<?xml version="1.0" encoding="UTF-8"?><!DOCTYPE svg PUBLIC "-//W3C//DTD SVG 1.0//EN" "http://www.w3.org/TR/2001/REC-SVG-20010904/DTD/svg10.dtd" []><svg xmlns="http://www.w3.org/2000/svg" xmlns:xlink="http://www.w3.org/1999/xlink" data-name="Layer 1" height="232" viewBox="0 0 228.27 232.43" width="228"><path d="M118.16,108.52c.69,1.95,3.06,2.56,4.92,2.75.42.03.91.05,1.43.05,2.4,0,5.38-.51,4.9-3.38-.17-.93-1-1.99-2.06-1.6-2.57.94-5.21.23-7.64-.67-1.41.01-1.85,1.74-1.55,2.85Z"/><path d="M168.37,33.91c.85.49,1.5,1.02,2.52,1.26.1.02.2.02.3.02,2.09,0,2.5-3.97.42-4.5-1.04-.15-1.73-1.1-2.77-1.18-2.19.19-2.18,3.49-.46,4.4Z"/><path d="M224.17,138.15c.87-3.3-3.95-12.13-5.02-13.8-2.05-2.96-4.41-5.8-7.1-8.21-.68-.64-1.6-1.41-2.64-1.48-.49-.1-1.04-.23-1.49-.18-.51-.35-1.04-.68-1.59-.98-.79-.5-1.72-.76-2.65-.61-.4.06-.7.33-.9.68-.06-2.73-.23-5.46-.48-8.17-.23-2.43-.73-5-2.47-6.84-.27-.32-.62-.68-1-1.05.37-.49.58-1.15.55-1.71-.15-1.27.09-2.59.02-3.86,7.69-1.25,15.24-3.32,12.24-13.62-.47-2.4-2.15-4.15-4.01-5.59-3.35-1.97-6.75-1.13-9.88.69-.13-2.18.21-4.79-1.06-6.51.35-.99.56-2.04.59-3.1.64-3.6-.53-6.87-3.22-9.12.93-.58,1.74-2.54,1.8-3.36.4-3.18-2.12-5.35-4.24-7.28-.25-.25-.45-.53-.64-.81,3.46-4.99,8.41-9.03,13.13-9.04,1.81.15,2.9-2,2.09-3.5-1.37-1.88-4.48-.73-6.28-.01-3.99,1.89-7.53,5.28-10.2,9.32-.23-.78-.49-1.55-.91-2.24-1.47-2.56-5.25-4.35-8-2.98-.1-1.37-.46-2.69-1.23-3.84-1.24-1.57-2.99-2.55-4.51-3.81-.39-.22-.81-.63-1.26-.97,0-.02,0-.04.01-.06,2.61-8.7,7.89-17.43,15.94-22.09,1.22.03,1.71-2.09.6-2.6-1.44-.31-2.69,1.01-3.82,1.72-2.66,1.99-5.39,3.93-7.59,6.44-2.02,2.22-7.22,10.33-8.5,15.64-2.54-.54-4.92-.05-6.94,1.08-.06-.53-.24-1.03-.55-1.44-.47-.72-1.27-.72-2.03-.72h-.38c-1.66-.09-3.31-.62-5-.62-2.82-.23-5.14,1.88-7.92,2.08-.83,0-1.66-.15-2.47-.3-1.01-.18-2.02-.36-3.05-.26-2.62.18-4.84,1.08-7.43,1.68-1.36.16-2.79.13-4.21.11-3.43-.06-6.88-.12-9.51,2.46-.19.18-.39.38-.58.58-1.18-3.44-4.42-6.02-7.87-6.99-.72-.19-2.25-.85-2.95-.05-.04-.02-.08-.03-.12-.05-.49-1.79-1.39-3.77-1.59-4.58-1.96-4.98-5.06-9.51-8.55-13.55-1.9-1.72-3.8-4.89-6.66-4.63-1.65.5-.97,2.39.07,3.17,6.25,4.77,10.57,11.67,13.26,19-3,.33-5.74,2.68-6.94,5.57-.54,1-.91,2.05-1.16,3.14-.68-.84-2.04-1.24-3.04-1.34-2.17.56-4.13,1.85-6.39,2.26-1.76.34-3.41-.68-5.28-.74-1.75-.26-3.41.23-5.07.71-1.61.47-3.22.93-4.91.74-3.28-.02-6.54-2.7-9.69-1.59-1.24.52-2.76,2-3.25,3.49-.94-1.24-2.23-2.23-3.96-2.8-1.56-.34-4.51-1.86-5.71-.28-.57-1.53-1.64-3.22-1.93-4.05-2.89-5.75-7.06-11.01-12.58-14.42-3.63-2.24-5.17,1.34-1.55,3.11,5.9,3.37,9.88,9.27,12.37,15.52-3.84,1.09-6.53,5.23-7.25,9.43-.13-.12-.27-.24-.45-.33-1.74-.49-3,1.54-3.92,2.74-.7,1.13-1.59,2.04-2.54,2.91-3.97-3.98-9.81-8.03-11.07-4.21-.52,2.07.89,2.87,2.72,3.31,2.14.78,4.03,1.98,5.71,3.45-1.35,1.81-1.87,4.14-2.75,6.2-3.13,3.33-5.9,8.79-3.46,13.2,0,0-.01.02-.01.02-.85,5.96-.06,12.2-.42,18.24,0,.09.02.17.03.25-6.56-.54-9.59,6.44-8.94,12.45.3,3.74,4.1,5.94,7.49,6.55.41.07.81.12,1.22.17-.08.66-.07,1.36-.12,1.97.08,1.25-.55,3.18-.13,4.46-.64.9-1.15,1.83-1.56,2.8-2.65-1.39-6.99,2.31-8.96,3.85-3.27,2.77-5.74,6.54-7.29,10.7-.39-.05-.82.12-1.21.67-3.68,5.82-4.68,13.06-3.41,19.79.46,2.01.78,4.72,2.68,5.88-1.59,2.88-2.43,6.11-1.98,9.75-.23,7.23,2.79,4.83,8.09,5.72.34.07.66.1.95.1,1.97,0,2.75-1.47,2.98-3.25.73.83,2,1.64,2.45,2.2,5.85,5.55,12.25,10.53,18.32,15.81.38.2.79.28,1.17.28.34,0,.66-.07.95-.19,1.15,2.15,2.31,4.27,3.37,6.49.87,1.33,1.33,3.62,3.24,3.69,1.39-.1,2.7-.52,3.95-1.07.16-.18.3-.36.43-.55.08.1.18.2.31.3,3.1,2.28,6.12,4.76,9.25,7.06,4.46,3.37,9.74,5.26,14.87,7.35,4.05,1.77,8.03,4.59,12.19,6.28,3.83,1.82,8.02,2.58,12.06,3.77,10.06,2.17,18,9.32,28.26,11,.75.05,2.17.24,3.56.24.56,0,1.12-.03,1.62-.11.24.56.63,1.03,1.18,1.34.27.14.57.21.87.21s.59-.07.85-.22c6.16-3.17,10.96-8.18,16.64-12.03,3.02-1.96,6.54-3.63,9.52-5.72,4.45-3.06,7.94-7.25,12.12-10.64,5.09-4.39,11.44-6.91,16.29-11.63,2.05-2.24,10.19-5.93,8.52-9.58.73.24,1.47.48,2.2.72.25.28.55.4.85.4.54,0,1.05-.39,1.18-1,.87-2.59,1.74-5.24,2.19-7.95.01.02.02.04.03.06.2.25.43.34.66.34,1.1,0,2.49-2.22,3.26-2.79,3.63-3.57,6.84-7.57,9.66-11.82,1.62-2.36,3.17-4.44,4.67-7.06.78-1.5,1.9-3.06,1.6-4.81,0-.02-.01-.04-.02-.06.61.07,1.22.14,1.82.18h.15c3,0,4.09-3.53,4.73-5.94.48-2.37-1.59-5-4.03-4.72ZM220.54,135.74c.05.3.1.62.14.95-.16.37-.24.78-.24,1.2-.79-.06-1.59-.12-2.39-.18,1.61-3.68-.64-8.66-2.02-12.17-.01-.04-.03-.07-.04-.11.17.22.34.43.51.66,1.72,3.03,3.15,6.27,4.04,9.65ZM203.63,116.12c5.35,2.09,8.32,8.02,10.23,13.2,1.12,2.63.76,5.53,1.63,8.15-1.98-.22-3.94-.56-5.82-1.22-1.73-.67-3-1.67-3.96-2.88.09-.07.18-.14.25-.21,2.38-2.44,2.24-6.42,1.08-9.41-.62-1.74-1.73-3.46-3.65-3.83-.19-.03-.37-.03-.53,0-.01-.95-.02-1.87-.06-2.75,0-.5,0-1,0-1.5.19.25.46.43.83.45ZM201.46,141.14s-.13.03-.24.07c-.11.03-.22.07-.33.11-.74-1.62-2.04-2.81-3.55-3.39,0-.07,0-.14,0-.2.37-.55.8-1.14,1.08-1.77,1.02,1.77,2.32,3.33,3.82,4.71-.25.15-.51.32-.77.48ZM191.99,151.41c-1.52-1.5-2.51-3.2-3.16-5.01.3.14.64.18.97.04,1.35-.7,1.76-2.49,2.95-3.47,1.63-1.73,4.71-1.51,5.51.9.5,2.89-1.96,6.52-5.1,6.53-.62.08-1.01.5-1.17,1.01ZM186.34,159.88s-.02-.07-.04-.1c-.87-2.02-2.24-3.17-3.81-3.64.48-1.25,1.23-2.42,2.16-3.37.47-.43,1.17-.49,1.79-.53.29,0,.55-.08.78-.22.66,2.06,1.12,4.27,1.47,6.47-.55.17-1.12.59-1.6.92-.29.09-.53.26-.75.46ZM178.34,167.65c-.65-1.55-1.97-2.7-3.55-3.2,1.03-2.52,3.8-5.08,6.65-4.41,4.45,1.77,1.38,6.47-2.04,7.26-.41-.01-.77.12-1.05.35ZM169.31,176.28c-.19-1.27-.64-2.51-1.44-3.59-.39-.51-.81-1-1.24-1.44.12-.12.24-.24.37-.36,1.88-1.52,4.31-2.41,6.73-2.46.83.15,1.14.68,1.84,1.3.25.96-.21,1.86-.66,2.67-.58,1.44-1.94,2.24-3.27,2.92-.51.23-1.2.52-1.91.71-.16.05-.31.14-.43.25ZM160.71,182.85s0-.04-.01-.06c-1.03-4.25-8.84-5.97-10.51-1.81-2.36-6.44-7-11.89-9.48-18.31-.68-3.29-.68-6.73-1.03-10.08.28.08.56.14.82.2.49.11,1.02.16,1.55.17.7,1.78,3.42,3.26,4.97,3.66.61.09,1.17.14,1.71.14.85,0,1.6-.12,2.26-.34.91.99,3.29,1.26,4.45,1.24.17.01.34.02.5.02,1.68,0,3.04-.46,4.09-1.2.02,0,.03.02.05.03.49.09.99.15,1.52.15,3.44,0,7.51-2.09,9.02-5.01.06-.15.1-.3.15-.45.14.05.28.09.44.09,1.54,0,3.67-2.51,4.4-3.53.76-1.12,1.28-2.55,1.44-4,1.07-.34,2.3-1.46,3.14-2.73.44.65.93,1.27,1.48,1.85.8,1.22,2.1,2.03,2.53,3.47.26.56.58,1.08.91,1.58-.77.22-1.51.59-2.03,1.03-1.36,1.1-3.95,4.66-3.94,7.07-3.69.78-7.3,4.14-7.61,8.05-.01.09-.01.18-.01.27-.14.03-.27.06-.41.1-2.68.67-6.7,2.15-7.26,5.14-.83-.11-1.73.1-2.72.8-1.65.85-6.54,7.14-4.13,8.48.53.1.96-.38,1.1-.83.65-2.05,2.44-5.03,4.9-4.66,1.33.87,2.89,2.09,3.17,3.75.36,3.04-2.04,4.86-4.75,5.45-.22.06-.47.14-.71.27ZM149.47,200.58c-.06.01-.13.02-.2.02-.99.11-1.98.26-2.97.38-2.24-6.74-1.58-14.18-2.02-21.22,1.61,3.49,3.47,6.89,4.69,10.58.69,3.38.56,6.82.5,10.24ZM127.64,202.22c.29-3.11,2.88-5.27,5.2-7.05.48-.31,1.05-.42,1.62-.42s1.2.12,1.76.24c.92.54,1.85,1.12,2.8,1.56.72,2.94-2.29,5.73-4.97,6.35,0,0,0,0,.01,0-2.14-.35-4.27-.46-6.43-.67ZM111.81,186.56c-1.34-.78-4.76-.82-5.96.53-.49-3.33-.3-6.75.8-10.09,1.31-3.31,4.18-5.51,6.27-8.3,1.46-1.93,2.73-4,4.06-6.02,2.73-4.41,3.35-9.59,4.17-14.67.2.11.41.18.64.18,1.48,0,3.48-2.1,4.51-3.54.26,2.95,1.18,6.56,1.46,7.62,1.63,6.25,3.74,12.07,8.01,17.11.97,1.31,2.18,2.4,3.34,3.53.86,1.83,1.28,3.92,1.85,6.01.26,2.44.88,4.84,1.44,7.25-.18-.05-.38-.07-.6-.05-2.15.62-4.79,2.48-5.22,4.82-.17-.03-.35-.06-.52-.07-2.89-.64-6.29,1.45-8.71,4.28-.1-.11-.22-.22-.35-.32-2.24-2.1-6.11-3.26-9.53-3.03-.61-2.27-3.89-4.13-5.66-5.24ZM85.37,189.34s-.03,0-.05,0c-1.29-.06-2.75-.19-3.9-.81-.58-.49-1.18-1.14-1.79-1.79-2.13-2.22-1.61-5.57.11-7.86.26-.36.68-.52,1.11-.43,2.47.36,4.58,1.74,6.11,3.68.46.5.79,1.19,1.27,1.68-1.66,1.38-2.76,3.43-2.86,5.52ZM49.31,168.23c-.94-.5-1.94-1.49-2.87-2.1-.75-.41-1.7-.38-2.43.01.16-1.45.46-2.9.94-4.31.34-1.06.84-2.06,1.41-3.01.3.36.77.61,1.26.66,2.8.93,5.39,3.27,6.47,6,0,0,0,.02,0,.03-.26.17-.52.35-.76.55-.73,1-1.13,2.05-1.27,3.11-.95-.19-1.85-.58-2.74-.94ZM56.79,167.53c3.62-1.03,7.38,1.08,8.58,4.63-1.43,1.56-2.07,3.76-1.59,5.99-3.09.43-6.89-1.62-8.03-4.62-.58-1.89-.6-4.67,1.03-6ZM76.15,177.77c-.85,1.14-1.38,2.69-1.4,4.73.09.49.23.98.4,1.47-2.98-.17-6.77-1.68-7.86-4.66-.68-8.87,5.12-6.7,8.87-1.54ZM96.65,186.49c.24.12.51.19.78.22-.02,2.66.32,5.33,1.09,7.97-1.35.67-3.14.86-4.61.43-1.58-.95-3.59-1.82-4.25-3.7-1.39-5.49,2.42-7.06,6.98-4.92ZM97.75,182.7c-1.66-.57-3.81-.64-4.98-.57-.24,0-.48.02-.71.05-.11-.7-.5-1.47-1.16-2.16-2.56-3.4-7.36-5.28-11.07-4.51-.38-.64-.89-1.22-1.35-1.76-3.35-3.09-6.54-4.02-9.09-3.66-.46-1.41-1.64-2.69-2.67-3.64-2.26-1.72-5.5-2.62-8.5-2.32-.98-3.48-6.59-8.46-10.02-8.05.22-.31.45-.62.67-.93,3.93-5.22,5.79-11.86,4.89-18.37.6.72,1.32,1.34,2.21,1.77.34.21.7.34,1.05.42-.23,3.28,1.81,6.9,4.75,8.32.33.19.65.28.94.33.4,3.12,2.4,6.54,6.64,8.51.4.2.84.29,1.26.31,1,2.73,3.67,5,6.55,5.33.51.08,1.06.14,1.6.14.74,0,1.49-.11,2.14-.44.69.69,1.6,1.24,2.78,1.58.65.32,1.83.52,3.1.52,1.76,0,3.67-.38,4.52-1.31,1.13.56,2.68.88,4.24.88,2.72,0,5.47-.95,6.02-3.17,0-.05-.01-.09-.01-.14.37.05.74.09,1.12.09,2.5,0,5.03-1.08,6.37-3.13.45-.7.75-1.69.63-2.54,1.02-.04,1.96-.38,2.79-.96-.72,3.91-1.61,7.73-4.48,10.75-5.47,4.9-9.15,11.57-10.22,18.66ZM35.35,170.93c-.44,1.84-.74,3.73-.85,5.62-.17-.15-.39-.29-.67-.41-5.72-4.73-11.44-9.77-16.28-15.57-.59-.68-1.14-1.4-1.91-1.9-.65-.46-1.71-.46-2.48-.09.18-1.63.55-3.23,1.23-4.74,1.69-2.75,4.18-4.87,6.51-7.12.24,2.9,4.86,8.45,7.46,8.73.25,0,.57,0,.9,0,.09,0,.18,0,.28,0,.11,1.9,1.03,3.64,2.23,5.2,1.03,2.15,3.29,3.45,5.66,3.46.17.02.37.03.58.04-1.12,2.17-2.08,4.45-2.64,6.78ZM22.65,128.18c-.65-3.52-1.68-7.62.31-10.95,2.45-3.27,6.12-5.8,9.65-7.82-15.67,15.44,1.84,25.7-12.35,34.52,3.74-4.34,3.73-10.46,2.38-15.75ZM39.97,112.08c-.12.36-.22.7-.33,1.05-.49.06-.96.25-1.28.59h0c-.39.5-.95.36-1.47.17-.46-.13-.97-.28-1.45-.49-.22-.13-.46-.2-.72-.22,1-1.26,2.09-2.44,3.27-3.51.24-.13.42-.31.58-.51.59.53,1.31.96,2.03,1.23-.22.59-.42,1.18-.64,1.69ZM32.51,116.46c.06.05.11.1.18.14.42.18.86.34,1.3.48-.44.48-.84,1.03-1.37,1.39-.35-.11-.73-.12-1.1-.07.3-.66.63-1.31.99-1.94ZM29.76,153.29c-2.28-.4-4.37-4.79-4.83-6.75-.31-1.31,1.13-2.18,2.01-2.9,3.02-1.69,5.12,2.97,6.2,5.28-1.66.94-2.93,2.4-3.39,4.37ZM39.15,162.03c-1.12.03-2.37-.12-3.06-1.05-1.5-2.44-3.4-5.31-2.18-8.27,1.69-2.53,5.53-1.67,7.37.27.39.41.88.62,1.39.68-.37,1.94-.93,3.84-1.84,5.65-.57.88-1.13,1.79-1.68,2.72ZM43.27,148.99c0,.08-.02.16-.02.24-1.73-1.2-3.99-1.69-6.19-1.5.06-1.56-1.11-3.56-2.1-4.71-1.97-2.36-5.09-4.14-8.14-2.8-.28.1-.57.22-.86.35,3.54-5.33,3.08-11.73,4.13-17.88.06-.28.14-.55.21-.82.07.02.15.05.23.07.4.09.8.13,1.21.13,1.66,0,3.31-.74,4.38-2.03.62-.64,1.55-1.56,1.61-2.51.32-.06.65-.13.96-.24-.92,6.67,1.28,11.88,4.16,18.77.8,4.22.36,8.62.42,12.92ZM41.96,106.6c-.32-.19-.63-.4-.93-.62-.16-.69-.21-1.28-.28-2.09.47-.38.91-.83,1.46-1.11.51.18,1.01.43,1.5.67.48.25,1.09.59,1.69.95-1.08.84-2.2,1.6-3.44,2.2ZM43.5,98.53c-.64-.04-1.22.12-1.77.37.18-.67.05-1.37-.58-1.85-4.74-3.56-9.83-6.69-15.07-9.43.25-.35.41-.83.41-1.42.11-4.76.43-9.89.45-14.83.99,1.51,0,3.69.47,5.44.23,2.92,1.85,5.36,2.87,8.04.55,1.72.98,3.57,2.34,4.86,1.2,1.22,2.85,1.69,4.34,2.43,1.55.78,2.76,2.09,4.2,3.03,2.52,1.59,5.67,1.54,8.45,2.42,2.36.33,3.14,2.75,5.03,3.75,2.65.88,5.33,1.9,7.25,4.06,6.5,8.82,5.36,8.88,16.47,9.84,1.45.45,1.94,2.05,3.09,2.87,1.1.84,2.46.82,3.78.97,2.73.1,5.16,1.04,7.07,3.01,2.02,1.8,4.44,1.36,6.87.92,1.64-.29,3.27-.58,4.8-.19,2.2.96,3.43,3.03,4.79,4.98-1.67-.59-3.38-1.01-5.18-1.07-12.91-1.12-17.34,18.5-3.69,20.82.88.13,1.76.18,2.64.18.17,0,.34,0,.52-.01-.05.15-.09.3-.1.46,0,0,0,.01,0,.02-1.99-.03-4.61,1.28-5.46,2.43-.04.03-.07.07-.11.1-.01,0-.02-.02-.04-.02-1.49-.73-3.27-.15-4.77.27-1.02.22-1.96.64-2.79,1.25-.45-1.16-2.83-1.73-4.06-1.65-.87-.03-1.87.02-2.8.25-.04-.09-.09-.17-.16-.26-1.83-1.99-4.77-2.83-7.38-2.33-.1-.56-.36-1.09-.62-1.59-1.71-2.47-3.34-4.06-4.82-4.97.13-3.07-2.06-6.5-4.84-7.87.32-.91.16-2.27-.31-3.64-.37-1.1-.93-2.19-1.57-3.05,3.9-3.3,6.16-8.41,4.02-13.25-3.94-6.06-12.29-5.99-18.18-9.2,2.24-3.31-3.11-5.4-5.56-6.14ZM41.23,71.41c.85-.03,1.36-1.01,1.43-1.75.5-.09,1.01-.13,1.51-.13,1.93,0,3.79.64,5.24,2.02-.06-.05-.09-.06-.1-.07,1.89,2.19,2.1,5.57,1.35,8.27-.9,1.1-1.41,2.81-2.45,3.85-1.77,1.38-4.28,1.54-6.48,1.82-1.57.08-3.1-.22-4.48-.99-2.8-4.7-3.2-12.59,3.98-13.02ZM41.4,87.77c4.28,0,9.29-1.11,11.28-3.67.39.24.88.3,1.34.05,3.68-.98,2.96,4.69,5.35,6.18,1.36,1.15,3.34.89,5.27.63,2.53-.33,4.99-.67,5.88,2.18.03.08.07.15.11.22-1.24,2.96-1.34,6.61-.48,9.62.54,1.86,1.18,5.17,3.61,5.09,1.27.41,3.02.62,4.93.62,4.44,0,9.7-1.19,11.51-3.98.2-.23.38-.47.56-.72.4.31.95.37,1.61-.01.77-.13,1.71-.39,2.51,0,1.24.95,1.58,2.83,3.06,3.49,1.27.57,2.74.57,4.19.57,2.23,0,4.42,0,5.84,2.05.5.5,1.06,1,1.72,1.33h0c.56.29,1.17.47,1.79.47.05,0,.1,0,.15,0,.08,1.15.34,2.3.61,3.42.27,1.48.77,2.77,1.68,4.12,1.41,1.76,3.74,2.41,5.83,2.99,1.64.48,3.29,1.17,5.02,1.33.23.01.46.02.7.02,4.53,0,9.38-2.28,11.03-6.72,1.73-5.59,1.03-13.04-4.49-16.23-1.28-.56-3.11-1.79-4.57-1.56,0-.02.02-.05.02-.08,1.81-7.5,5.77-14.09,11.44-19.36.45-.45.5-1.28.18-1.81-.31-.52-.94-.63-1.37-.19-2.75,2.82-5.52,5.64-8.09,8.63-1.43,1.51-4.66,8.29-5.8,13.55-5.52-.28-9.99,3.36-11.84,8.78-.06.17-.1.34-.14.51-1.7-.18-2.23-2.23-3.47-3.25-.95-1.29-2.59-1.69-4.09-1.96-.6-.17-1.32-.11-2.04-.04-1.4.11-2.82.23-3.3-1.28-.58-1.06-1.46-2.38-2.58-3.04-1.09-.5-2.51-.62-3.74-.27.73-4.69-1.39-9.94-5.92-11.78-1.31-.82-5.22-1.75-7.61-1.2-1.36-4.97-3.51-9.66-5.38-14.43-.94-3.02-12.92-14.71-14.8-9.05-.52,2.07.89,2.87,2.72,3.32,8.56,3.12,13.26,12.71,15.75,21.2-.08.14-.15.29-.19.46-2.22.34-3.91,1.44-5.13,2.95-.4-.94-1.15-1.81-1.79-2.28-1.72-1.19-3.85-1.12-5.9-1.31-1.13-.1-3.16.23-3.67-1.17-.89-2.59-1.62-6.18-4.85-6.64-.23-.04-.48-.06-.72-.05,1.19-4.91-.91-10.75-5.75-12.73-.86-.54-2.87-1.12-4.82-1.3.23-.64.34-1.29.28-1.78-1.32-6.19-.86-3.99,3.15-8.01.75-.63,1.69-1.02,2.67-1.12.45-.05.8-.35,1.05-.74.32.25.75.38,1.25.38.66,0,1.42-.21,2.18-.58,4.12-1.31,5.64-6.06,9.12-8.03,1.66-.23,3.47.33,5.15.42,3.18-.66,5.36-3.5,8.68-3.96,1.71-.22,2.79,1.05,4.15,1.93,3.04,2.76,7.05.88,10.49.14.24.01.48.01.73.01.62,0,1.25,0,1.8.27.58.7,1.03,1.5,1.55,2.24,1.13,1.72,2.66,3.49,4.78,3.87,1.15.25,2.34.19,3.52.14,1.47-.07,2.93-.14,4.33.37,2.46,1.52,6.49,2.36,8.41-.38,1.95-1.89,1.91-4.86,3.1-7.15.72-1.12,2.04-.85,3.3-.58.59.12,1.17.25,1.67.24,4.31.23,7.8-2.91,11.83-3.96,1.7-.5,3.41-.21,5.11.07,1.8.3,3.6.6,5.39-.02,1.84-.28,3.55-.98,5.37-1.28-.15.87.11,1.81.94,2.19.82.15,1.6.51,2.05,1.26,1.27,2.29,3.32,3.9,5.62,5.07,3.29,1.66,7.45.9,10.55,3.08-.12,1.12-.99,1.95-.88,3.14.14,1.17,1.12,1.97,1.47,3.05.73,1.8-1.13,2.95-2.52,3.7-.83.48-1.23,1.39-1.29,2.32-4.86,4.46-8.42,11.05-9.43,17.53-6.71-1.6-10.95,3.57-10.61,10.74.16,1.18.52,2.27,1.05,3.28-.61.07-1.25.3-1.74.56-2.4,1.12-1.99,4.06-3.53,5.75-2.71,1.96-6.83,2.22-8.46,5.49-.38.83-.34,2.12.51,2.67.24.14.46.21.66.21.93,0,1.49-1.31,2.31-1.75,3.24-1.88,7.82-2.67,9-6.81.17-.44.24-.93.48-1.34.54-.36,1.21-.44,1.8-.7.5-.27.83-.78.99-1.35,2.68,2.69,6.68,4.25,10.42,4.25h.51c1.18.03,2.29-.2,3.3-.62-1.47,1.19-2.74,2.57-3.55,4.36-.35.55-.62,1.13-.85,1.71-1.05-.78-2.41.47-2.51,1.68-.61,1.18-1.9,1.71-3.01,2.3-2.18,1.16-5.02,1.33-6.76,3.17-.53.65-.68,1.52-.93,2.3-1.21,3.15-4.19,5.24-7.21,6.52-1.41.68-3.4,1.31-4.34,2.78-1.13.55-2.32.94-3.43,1.53-.86.21-1.71.61-2.04,1.49-.27.59-.34,1.35-.16,2-1.5.57-3.05,1.17-3.87,2.11-1.46-1.54-3.32-1.35-4.81-.31-.45-1.45-1.46-3.17-2.93-2.64-.16-.28-.4-.51-.72-.65-.72-.12-1.46-.04-2.2.05-1.2.14-2.4.28-3.49-.41-3.54-1.74-4.22-6.73-8.32-7.63-1.64-.55-3.24-.11-4.84.32-1.52.42-3.05.83-4.61.4-1.84-.61-2.14-2.76-3.13-4.19-.68-1.07-1.73-2.04-2.98-2.42-2.21-.58-4.57-.87-6.85-.76-.79-.11-1.38-.78-2.08-1.11-3.31-2.35-7.67-2.38-10.78-4.99-4.53-4.09-9.91-7.89-16.19-8.22-1.54-1.55-2.47-3.85-4.61-4.86-2.21-1.39-5.13-1.47-6.87-3.58-.82-1.25-1.86-2.14-3-2.88.52.04,1.05.06,1.6.06ZM78.53,92.33c.85-.03,1.36-1.01,1.43-1.75.5-.09,1.01-.13,1.51-.13,1.93,0,3.79.64,5.24,2.02-.06-.04-.09-.06-.1-.07,1.89,2.19,2.1,5.58,1.35,8.27-.9,1.1-1.41,2.81-2.45,3.85-1.77,1.39-4.28,1.54-6.48,1.82-1.57.08-3.1-.22-4.48-.98-2.8-4.71-3.2-12.6,3.98-13.03ZM123.58,104.67c.22.89.68,1.52,1.47,1.72.94-.12,1.42-.78,1.68-1.67,1.84,1.11,4.33,1.2,6.08,2.52,2.06,1.6,1.32,4.71.48,6.79-2.86,3.7-7.52,5.69-12.18,5.8-1.66-.24-3.67-.03-4.83-1.5-1.4-2.54-2.32-5.99-1.14-8.82,1.06-2.53,3.32-4.76,6.18-4.89.14,0,.29,0,.44,0,.36,0,.73.02,1.1.03.24.01.49.02.73.03ZM184.71,56.73c.02.37.03.74.07,1.1-.29-.09-.58-.22-.87-.35-.56-.24-1.12-.49-1.69-.47-.44.07-.77.33-1.02.67-.5-.54-1.19-.77-1.94-.8.4-.31.89-.54,1.49-.62.31-.06.62-.08.93-.08,1.02,0,2.02.27,3.02.55ZM193.67,59.87c.44,4.25-2.36,7.79-6.22,9.21l-.05-.02c-.55.1-1.12.12-1.68.18-.62.07-1.24.17-1.87.21-3.94,0-7.29-3.93-6.58-7.78.68-.16,1.36-.25,2.04-.25.79.06,1.43-.33,1.85-.9.74,1.19,2.35,1.75,3.68,1.96.33.03.69.06,1.06.06,2.18,0,4.82-.65,4.29-3.29-.41-1.96-1.68-1.71-3.05-1.45-.22.04-.45.08-.68.11.07-.22.08-.46.07-.71.21.04.43.08.64.11.6.07,1.17-.3,1.45-.82,1.95.52,4.21,1.39,5.05,3.38ZM196.19,129.5c.17,1.2.45,2.33.82,3.4-.38.02-.77.17-1.07.5-.91.96-1.96,2.76-2.07,4.32-1.18.3-2.35.97-3.39,2.11-.85,1.03-1.98,2.21-2.44,3.54-.64-3.88-.19-8.08.03-11.99,1.35-8.23,3.69-15.8,1.94-23.69.31.11.61.2.88.27.32.07.63.11.92.11,1.18,0,2.12-.56,2.33-1.45,1.11,1.93,1.86,4.06,2.11,6.29.52,5.51-.39,11.08-.07,16.59ZM177.05,139.26c-.23.2-.49.41-.73.63-.37-.64-.88-1.2-1.57-1.63-.47-.22-.97-.36-1.47-.44.03-.1.05-.18.08-.29.64-1.16,1.73-1.93,3.03-2.18.52-.08.94-.39,1.25-.81.15.97.38,1.93.7,2.85-.51.57-.93,1.35-1.29,1.87ZM170.98,147.6c-.35-1.47-1.27-2.68-2.56-3.51.11-.16.22-.32.31-.46,1.09-1.28,3.68-2.31,4.89-.73.79,2.76-1.26,3.54-2.64,4.7ZM158.3,152.43c-.69,1.97-2.31,1.79-3.95,1.6-.14-.02-.28-.03-.42-.04.76-1.56.61-3.55-.51-5.31,2.52-.16,5.62.5,4.86,3.75h.02ZM150.32,151.08c.64,2.49-1.9,2.86-3.41,1.41-.24-.2-.45-.45-.66-.7.51-.38.96-.85,1.27-1.44.13-.57.25-1.3.25-2,.01,0,.02,0,.04,0,1.08.68,2.19,1.44,2.51,2.73ZM139.08,148.97c-.26-1.12-.61-2.21-1.09-3.27,1.66,1.04,3.4,1.88,5.28,2.33.02.36.03.73.03,1.09-.19.12-.39.24-.58.35-1.16.23-2.25-.44-3.39-.51-.08,0-.16.01-.25.02ZM120.27,146.37c-.57,2.97-1.25,5.92-2.48,8.68-2.18,3.91-5.23,7.05-8.1,10.5,1.65-2.97,3.39-5.91,4.6-9.11,2.16-4.8,1.43-11.56,6.77-14.31-.19,1.03-.38,2.07-.57,3.11-.16.34-.24.71-.21,1.12ZM103.8,156.2c-2.76.98-3.71-.66-3.55-3.22.55-.64,1.18-1.44,2.09-1.52.38-.03.91-.08,1.43-.23.48.88,1.17,1.62,2.03,2.11-.09.14-.17.28-.21.45-.2,1.04-.79,2.02-1.83,2.41h.05ZM88.55,159.7c-.44.22-.88.41-1.39.39-4.06.21-4.48-3.33-3.06-6.34.88-.29,1.68-.07,2.43.15.55.16,1.07.31,1.6.28-.77,1.71-.53,3.84.42,5.51ZM91.93,155.14s-.05.1-.08.14c.06-.15.18-.36.34-.54,1.13-.86,2.21-1.09,3.73-1.39.07.02.15.02.22.03-.17,1.73.5,3.66,1.64,4.82.12.11.26.18.39.28-.24.14-.45.33-.61.57-2.9,1.88-6.84-.36-5.64-3.91ZM119.48,131.97c.08.12.16.25.23.38-.11-.03-.22-.06-.33-.09-.09-.03-.18-.06-.28-.09.12-.06.25-.12.37-.19ZM111.36,133.34c-3.2-.4-6.38-1-9.6-1.12-2.54.18-6.09.17-6.9,3.15-.1.44-.11.85-.09,1.24-.24-.86-.31-1.79-.12-2.78.49-2.08,2.66-3.73,4.79-3.9h.4c4.11,0,7.85,1.6,11.51,3.41ZM96.81,137.06c-.14-.18-.29-.53,0-.65,1.08-.26,2.17-.36,3.26-.36,2.97,0,5.95.74,8.9,1.07-.27.08-.54.16-.81.24-2.13.57-4.28.94-6.44,1.36-1.72-.07-3.76-.19-4.91-1.66ZM103.77,143.14c.39.03.78.05,1.17.05,2.73,0,5.36-.71,7.97-1.52-2.02.84-4.23,1.24-6.47,1.67-1.13.06-2.39-.08-3.65-.39.34.07.67.14.98.19ZM106.95,147.31c1.5-.26,2.99-.62,4.44-.99.95-.24,1.9-.5,2.83-.81-.39,1.12-.7,2.28-.95,3.46-1.76-.61-2.7.64-3.83,1.74-1.99.06-1.77-2.09-2.49-3.4ZM122.61,141.23c.33.27.7.46,1.1.6-.44.61-1.09,1.13-1.7,1.66.18-.76.38-1.51.61-2.26ZM161.75,111.16c.52,4.03,3.2,7.76,7.22,9.42.87.15,1.7.23,2.47.23,2.08,0,3.79-.54,5.24-1.46-.78,1.72-.9,3.74-.27,5.61,0,0,0,0,0,0-.73.64-1.36,1.26-1.73,1.6-1.28,1.55-2.52,4.08-1.79,6.06-1.61,1.29-2.76,3.15-2.97,5.22-.02.13-.03.26-.03.38-1.61.62-3.05,1.8-3.89,3.26-.25.45-.45.97-.54,1.49-.45-.08-.91-.13-1.4-.14-1.11-.23-4.6,1.64-5.8,3.33-.39-.13-.8-.23-1.24-.31,2.78-1.62,4.87-4.09,5.33-7.66.41-5.04-1.95-10.33-5.94-13.42-4.91-3.31-10.06-2.55-14.87-.41,4.32-2.02,9.52-3.65,10.75-8.64,3.11-1.38,7.16-1.96,9.48-4.56ZM181.85,116.01c-.19-.18-.41-.33-.71-.4-.39-.08-.75.04-1.08.24.95-1.46,1.73-3.16,2.4-5.01-.02,1.76-.25,3.48-.62,5.17ZM177.43,131.13c-.26-.14-.57-.22-.96-.19-.1.02-.19.04-.29.06-.01-.12,0-.25.05-.37.25-.78.79-1.36,1.44-1.88-.13.78-.21,1.57-.24,2.36ZM169.97,113.76c-1.02-4.26,4.1-10.02,8.06-14.11-.3,4.89-3.47,9.23-6.44,12.96-.44.47-.98.96-1.43,1.49-.06-.11-.12-.23-.18-.34ZM180.36,103.93c.05.39.08.78.09,1.16.17,3.3-1.53,6.75-4.16,8.71-.45.26-.93.46-1.41.64,2.27-3.18,4.48-7.75,5.48-10.51ZM179.67,122.82c-.23-1.32.11-2.2,1.09-2.88-.33.97-.7,1.93-1.09,2.88ZM169.44,104.97c-2.12,3.11-3.23,7.12-1.7,10.51-.8-.29-1.57-.72-2.32-1.08-1.9-1.27-2.05-3.88-1.59-5.96,1.68-4.13,5.44-6.46,9.31-8.64-1.26,1.72-2.46,3.49-3.7,5.17ZM144.99,129.45c-2.87,1.66-5.89,2.52-9.2,3.03h-.01c4.25-2.65,9.76-6.96,15.05-6.96,1.82,0,3.62.52,5.33,1.79-3.97-1.41-7.78,0-11.17,2.14ZM158.15,134.41c-1.64,2.03-4.05,3.57-6.72,3.59-3.84-.26-7.54-1.62-11-3.25,4.02.29,7.43-2.52,11.36-2.72,2.03.38,5.48.24,6.35,2.38ZM136.45,137.95c6.82,1.03,13.98,2.47,20.81.86-1.62,2.49-4.14,5.16-7.35,5.06-5.14,0-9.21-3.49-13.46-5.92ZM126.57,137.74c-.64.15-1.31.19-1.97.23-.12-.01-.24-.01-.35-.04-.28-.46-.27-.92-.34-1.46.31-.65.92-1.5,1.66-1.5.18,0,.36.04.55.15.07.09.12.19.17.28-.22.77-.11,1.64.27,2.34ZM127.87,141.58s.02-.1.02-.15c.31-.15.6-.32.85-.52.11-.12.19-.25.27-.39,8.85,7.28,7.84,15.41,10.6,25.62-4.25-4.79-8.61-9.58-10.71-15.77-1.06-2.66-1.92-5.96-1.03-8.79ZM160.79,147.69c.14-.14.27-.3.38-.47.65-.52,1.47-1.08,2.25-1.45.91.02,1.82.38,2.63.78,1.02.53.94,1.9.93,2.9-.48,2.14-2.63,3.03-4.64,3.58.42-1.85-.07-3.88-1.56-5.34ZM184.16,126.16c1.12-5.23,1.91-11.16,2.61-16.52,1.35,5.78,1.71,11.86-.86,17.41-1.58,3.84-3.4,7.75-3.46,12h0c-.95-4.39.79-8.67,1.71-12.89ZM190.68,103.91c-.74-.1-1.5-.72-2.24-.93-.14-.31-.26-.61-.41-.92-.54-.92-1.08-2.04-1.73-3.03,1.06.81,2.59,1.42,3.35,2.28.88.73,1.71,1.54,2.45,2.42-.47-.1-.97-.05-1.43.18ZM183.62,92.21c.04.22.1.45.19.67.14.36.36.69.62.99-.04.07-.07.14-.11.21-1.05-.52-1.79-1.46-2.5-2.37.11-.04.22-.06.35-.06.44,0,.99.24,1.46.56ZM178.33,91.84c.05-.07.1-.15.14-.22,0,.04.02.08.03.12-.06.03-.12.06-.17.1ZM177.4,88.43c-.04.55.22,1.13-.19,1.59-1.33,1.9-4.95,1.26-4.61,4.13.11.65.41,1.01.77,1.17-.02.01-.04.02-.05.03-1.14.76-2.35,1.47-3.55,2.22,1.62-1.73,2.62-4.1,2.68-6.56.72-4.05-.85-7.72-4.33-9.94-.13-.07-.27-.15-.43-.23.07-.09.15-.18.2-.28,1.57-1.64,1.75-3.96.99-6.06,2.16-1.85,5.16-3.22,6.33-5.92.24-.69.36-1.42.38-2.17,2.38,4.12,7.5,6.63,12.24,6.62h.51c.35,0,.69,0,1.03-.04-1.33,1.25-3.36,1.93-4.69,3.13-2.05,1.64-1.53,4.52-2.51,6.72-1.03,2.24-5.07,2.61-4.78,5.59ZM152.7,88.03c.29-1.91.97-4.24,3.27-4.55.31-.06.62-.08.93-.08,1.02,0,2.02.27,3.02.55.02.37.03.74.07,1.11-.29-.09-.58-.22-.87-.35-.56-.24-1.12-.49-1.69-.47-1.23.21-1.72,1.84-1.35,2.91.51,1.6,2.42,2.32,3.96,2.56.33.03.69.05,1.06.05,2.18,0,4.82-.65,4.29-3.28-.41-1.96-1.68-1.71-3.05-1.46-.22.04-.45.08-.68.11.07-.22.09-.46.07-.71.21.04.43.08.64.11.6.06,1.17-.3,1.45-.82,1.95.52,4.21,1.38,5.05,3.37.44,4.25-2.36,7.79-6.23,9.21l-.05-.02c-.55.11-1.12.12-1.68.18-.62.07-1.24.17-1.87.21-4.23,0-7.79-4.53-6.36-8.63ZM170.71,65.31c.31.67.54,1.35.37,2.02-2.75,3.36-7.51,3.97-5.08,9.26-.92.51-1.55,1.65-1.63,2.74-.84-.18-1.59-.08-2.06.61-.14-.06-.27-.09-.4-.15,1.05-4.94,4.52-10.74,8.8-14.49ZM70.84,151.48c-.19.36-.32.72-.42,1.09-1.63-.62-2.97-1.83-3.72-3.42-.69-1.39-.68-3.34.35-4.57,2.18-.49,4.24,1.99,5.51,3.52.02.38.22.74.5,1.03-.9.55-1.67,1.33-2.22,2.35ZM63.06,143.85c-.83-.5-1.67-1.01-1.95-2.03-1.06-2.1.58-5.45,3.13-4.84h-.06c1.32.73,2.48,2.25,2.73,3.74-1.84.02-3.2,1.3-3.85,3.14ZM58.91,134.89c-.3.27-.54.57-.76.88-.51-.37-1.15-.59-1.59-1.06-.91-1.02-1.05-2.87-1.77-4.05,1.89-.1,3.79-.67,5.54-1.59.17.21.33.41.47.62.63,1.03.49,2.48.86,3.61-.94.2-1.87.7-2.73,1.59ZM61.43,124.37c1.27-3.47-.24-7.81-2.64-10.47-1.07-1.12-2.21-2.19-3.34-3.25,2.32,1.92,4.8,3.77,6.93,5.94,1.93,2.26,1.5,6.07-.94,7.78ZM57.53,123.39s-.05.09-.08.13c-6.15-1.8-7.23-6.87-7.97-12.59,2.76,4.09,7.44,7.29,8.05,12.46ZM75.75,151.41c1.22-.63,2.64-.06,3.75.55.23.28.54.49.87.62-.04.07-.09.12-.12.2-.87,1.83-1.22,3.85-.9,5.64-.04,0-.08,0-.12,0-.61.01-1.22.01-1.78-.22-2.67-.76-4.5-5.15-1.71-6.79ZM75.86,151.34s.04-.03.06-.04c.01,0-.02.02-.06.04ZM46.3,108.7c.13.07.25.14.38.21-.57,1.22.52,2.31.98,3.43,1.84,4.01,2.28,8.58,5.2,12.08-7.43-1.64-6.44-10.02-6.95-15.88.13.05.27.11.4.16ZM103.18,178.62c-.17,6.9,3.05,13.61,3.62,20.49-.26.06-.53.1-.8.13-.55.04-1.1.08-1.65.13-.47-1.12-.86-2.29-1.28-3.43-.32-.89-.61-1.8-.95-2.69-2.49-4.76-1.28-10.08,1.05-14.63ZM120.91,195.87c1.6.51,2.68,1.87,4.19,2.47.04,0,.07,0,.11.02-.66,1.34-1.05,2.68-1.03,3.87-.03.64.1,1.52.52,2.07-2.37.58-4.89.63-7.3-.1-1.55-.61-2.31-1.98-2.84-3.56-1.23-5.12,1.83-6.89,6.35-4.77ZM141.22,194.18c-.26-.82-.85-1.46-1.62-1.82.64-.81,1.42-1.5,2.44-1.79.48-.11.85-.42,1.11-.83.36,2.11.53,4.23.25,6.38-.05.34-.12.71-.2,1.08-.34-.24-.75-.34-1.21-.15-.25.14-.51.22-.78.28.2-1.08.22-2.15,0-3.15ZM204.23,129.27c-.09.21-.21.43-.33.64-.54-1.69-.8-3.53-.92-5.42,1.24,1.04,1.43,3.28,1.25,4.77ZM199.65,118.31c-1.48-6.63-4.1-12.92-8.15-18.42-.76-.92-2.82-3.38-4.5-3.86.03-.06.06-.13.09-.19.39.26.83.43,1.26.45,11.11-.35,13.78,13.44,11.3,22.02ZM195.89,95.12c-.96-.67-2-1.29-3.05-1.78.73-.21,1.46-.43,2.17-.72.32-.05.65-.1.97-.16-.1.87-.09,1.76-.09,2.65ZM205.58,74.43c2.19,1.65,2.51,4.39,2.74,6.93,0,2.23-1.92,3.94-3.77,4.89-4.5,2.49-9.71,1.18-14.47,2.59,3.75-4.02,9.08-7.41,14.7-7.41h.46c.69.17,1.18-.65,1.23-1.23.13-2.46-3.4-.62-4.67-.27-4.58,1.61-8.96,3.66-13.1,6.18,2.32-2.76,13.47-14.53,16.87-11.68ZM190.04,79.58c-1.92,2.36-7.26,5.29-5.37,8.77-.54-.22-1.11-.34-1.69-.26-1.28.41-2.45,1.19-3.69,1.72-.03.01-.05.04-.07.05.08-.37.14-.75.14-1.14,1.83-1.07,3.98-2.06,5.31-3.76.88-1.62,1.1-3.49,1.42-5.29,3.09-1.85,7.46-3.59,7.72-7.73,0-.25-.01-.52-.06-.79.13-.11.27-.22.39-.34.08,1.2.13,2.29.19,3.75.02.43.11.78.23,1.07-1.65,1.31-3.17,2.73-4.5,3.95ZM190.15,47.62c1.35,1.22,4.76,2.33,3.38,4.64-.41.4-.84.88-.89,1.44-1.53-.84-4.38-2.64-5.52-.97-.14-.06-.27-.09-.4-.15.41-1.93,1.19-3.98,2.24-6,.33.39.72.74,1.2,1.04ZM179.82,41.04c.23-.67.43-1.38.6-2.11.42.16.94.17,1.58-.05,4.1-.22,4.56,2.45,5.51,5.05-1.24,2.61-2.13,5.38-2.55,8.12-4.48-1.07-7.85.87-9.5,4.43-.13-1.42-.69-2.85-1.49-4.04,1.94-3.3,1.39-5.25-.28-6.51,2.66-.57,5.1-2.33,6.13-4.88ZM167.75,29.37c.88,0,1.78.15,2.66.48.54.14,1.62.79,2.37.69,2.07,1.31,5.05,2.42,4.11,5.41-.55,4.6-6.01,6.02-9.92,6.28-4.41.49-8.18-2.93-6.22-7.35,1.12-2.1,2.34-4.65,4.87-5.22.7-.19,1.41-.29,2.13-.29ZM120.48,34.56c.29-.03.58-.14.83-.33,1.26-1.1,2.64-2.6,4.36-3.06,1.32-.36,2.68-.31,4.04-.27,1.2.04,2.41.07,3.6-.16,2.98-1.04,5.89-2.43,8.95-3.23,2.23-.33,4.31.77,6.51.86,3.17-.12,6.82-.41,9.74,1.14.38.13.77.22,1.17.27-1.38,1.97-2.16,4.33-2.07,6.64-.6-.41-1.24-.64-1.91-.55-1.53-.95-3.67-.54-5.47-.28-2.7.5-5.21-.4-7.72-1.34-4.16-1.61-8.66.45-12.06,2.89-1.37.96-2.73,1.95-4.43,2.2-1.55.31-3.23.49-4.62,1.3-2.87,1.7-1.84,8.79-6.27,7.33-1.67-.79-2.69-2.49-4.4-3.2.4.02.8.04,1.18.08,5.25-.25,7.96-5.32,8.54-10.29ZM100.65,32.58c.43-2.89,2.58-5.84,5.74-5.8.03.22.09.43.2.63-.08-.01-.16-.02-.24-.04-.36-.06-.72-.13-1.09-.08-1.49.3-1.87,2.54-.97,3.6.5.62,1.3.85,2.05,1.04.35.07.72.11,1.09.11,1.87,0,3.78-.96,3.32-3.18-.1-.47-.25-.8-.44-1.05.13-.32.16-.68.13-1.06.85.24,1.81.24,2.62.59,1.6.53,3.08,1.91,3.5,3.57-.18,4.41-2.22,10.56-7.28,11.14-.46-.03-.95-.04-1.44-.04h-.37c-1.94.01-3.98.02-5.34-1.39-1.39-2.45-1.58-5.18-1.47-8.04ZM62.45,36.98c.93-.76,1.58-2.27,3.02-1.96,3.11.55,6.23,1.81,9.43,1.54,2.67-.6,4.9-2.51,7.6-2.97,1.09-.1,2.17.15,3.23.4,1.3.3,2.59.59,3.92.29,1.39-.13,2.73-.87,4.13-.79.4.31.89.45,1.29.76.3.38.68.7,1.22.69.51-.02.92-.25,1.25-.58.09,2.53.83,5.05,2.06,7.23,1.59,2,3.96,2.66,6.46,2.93-.53.09-1.06.2-1.59.31-1.25.26-2.51.52-3.74.51-1.49-.79-1.46-2.78-2.57-3.97-.54-.85-1.21-1.88-2.24-2.21-2.27-1.01-4.51-.43-6.76.15-2.04.52-4.08,1.04-6.14.39-4.64-2.19-8.56,2.41-12.91,2.8h.06c-3.97-1.79-6.27-1.21-8.26.31.31-1.87.24-3.78-.27-5.52.29-.02.58-.12.82-.31ZM45.56,36.83c.73-.41,1.51-.68,2.31-.88.14.26.32.49.54.7-.64.06-1.29.09-1.87.32-1.1.7-1.35,2.46-.53,3.46.54.59,1.29.79,2.09.79.72,0,1.48-.17,2.1-.32,2.08-.31,4.42-2.05,3.39-4.38-.37-.83-1.35-1.43-2.18-.92-.05-.23-.15-.45-.28-.67.05-.06.11-.11.15-.18,2.8,0,6.17,1.08,6.51,4.3.17,4.61-2.42,10.2-7.52,10.59-2.42-.06-5.29-.75-6.8-2.77-1.88-3.21-.98-7.87,2.09-10.04ZM37.75,46.53c.42-.45.79-.93,1.29-1.29.18-.11.34-.25.48-.41.04.29.09.58.16.86.76,3.71,4.24,5.33,7.65,6-.11.07-.22.15-.32.22-1.12,1.23-2.35,2.13-3.76,2.97-2.3,1.99-2.81,5.04-2.31,7.9-1.31-3.97-3.01-7.8-4.53-11.69-.15-.48-.58-1.18-1.2-1.99,1-.71,1.95-1.48,2.53-2.57ZM27.33,64.14c.27-2.28,2.09-3.97,3.06-5.98.61-1.55.47-3.19.91-4.81.2-.85.62-1.51,1.15-2.09,3.67,4.32,6.08,10.02,7.63,15.31-.08.14-.15.29-.19.46-6.86,1.05-8.7,9.23-7.05,15.02.1.36.21.78.34,1.21-.69-1.04-1.37-2.09-2.37-2.9-.94-.86-1.95-1.7-2.11-3.05-.74-2.57.81-5.28.15-7.85-.38-1.13-.99-2.15-1.54-3.19-.16-.7-.06-1.43,0-2.13ZM22.16,90.18c3.26,1.39,6.31,3.36,9.32,5.21-2.68-1.3-6.16-2.93-9.31-2.93-2.06,0-3.99.7-5.44,2.65-.22-3.27,2.05-5.84,5.43-4.93ZM18.4,98.68c-.62-.39-1.58-.61-1.65-1.47.5.54,1.32.37,1.87-.05,3.64-1.64,6.77,2.62,9.96,3.85-3.46-.37-6.99-.87-10.18-2.33ZM26.89,106.08c1.34,0,2.68-.07,4.01-.17-.44.28-.86.53-1.2.7-1.23.69-2.3,1.4-3.24,2.12,0-.12.02-.24.03-.35-.02-.62.07-1.49.04-2.31.12,0,.24,0,.36,0ZM4.52,151.6c-1.01-3.27-1.53-6.77-1.21-10.19,0-.05.02-.1.03-.16.1,1.87.4,3.71.91,5.47.29,1.31.64,3.42,2.03,3.95.07,0,.13.01.2.01,1.66,0,2.36-2.42,1.46-3.64-.39-.65-.46-1.03-.96-1.76-1.1-3.18-2.08-6.49-1.45-9.92,1.21-6.53,7.77-14.95,14.71-16.02-.65,3.98-.4,8.46-.78,13.56-.48,4.5-1.95,9.26-5.62,12.16-3.16,2.33-6.36,5-8.76,8.12-.14-.53-.36-1.06-.55-1.58ZM11,169.78c-1.99-.11-4.38,0-6.21-1.1-.37-4.52,1.48-8.5,4.35-11.91-.48,4.44.82,8.77,1.99,12.98-.04.01-.09.02-.13.03ZM20.98,171.08c-1.84-1.25-3.59-2.63-5.32-4.03-.5-.66-1.56-1.06-2.36-.66-.03-.74-.11-1.47-.21-2.1-.06-.95-.1-1.91-.1-2.87,2.28,3.08,5.52,5.45,8.19,8.19,3.53,3.15,6.96,6.67,11.17,9.11.32.14.64.2.94.2.46,0,.87-.15,1.18-.39.02,1.23.13,2.45.35,3.66-4.48-3.85-9.25-7.39-13.84-11.11ZM42.25,194.85c-4.47-7.1-5.45-12.28-2.83-20.37,2.39-6.29,3.9-12.83,6.48-19.06,1.89-5.23,2.5-11.05.85-16.43-1.71-4.6-5.14-8.57-5.35-13.72-.02-4.56.11-9.49,2.62-13.46.19-.24.38-.48.56-.73.08,4.52-1.15,9.05-.09,13.49.71,2.01,2.15,3.63,3.93,4.69-.16.91.26,1.97.49,2.87.62,3.21.8,6.6.5,9.87-.38,8.31-4.72,15.55-6.88,23.44-1.7,6.43-1.91,13.48-.08,19.93.7,2.8,2.59,5.56,2.5,8.44-.82.57-1.72.87-2.69,1.04ZM132.35,225.31c-.55.33-1.13.67-1.73.99-.49.26-.87.67-1.14,1.15-.7-.13-1.46-.08-2.23-.02-.75.07-1.5.12-2.17.01-4.08-.19-7.64-2.08-11.39-3.5-4.29-1.39-8.55-2.86-12.7-4.63-6.85-3.37-13.7-7.13-20.97-9.64-3.71-1.24-7.34-2.72-10.42-5.19-4.14-2.86-8.49-5.31-13.15-7.46-2.35-1.11-4.56-2.45-6.82-3.71-.52-.38-1.17-.42-1.72-.25.28-1.46.02-3.05-.37-4.64.42.27.83.5,1.14.69,4.5,3.07,8.98,6.18,13.88,8.58,5.4,2.7,10.04,6.65,15.36,9.5,4.39,2.79,9.44,4.26,14.32,5.99,5.65,1.74,10.5,5.3,16.17,6.96,5.61,1.58,11.41,3,17.19,4.11,4.65-.37,9.44-.92,13.67-3.11,2.4-1.11,4.72-2.35,6.96-3.71-1.32.97-2.68,1.87-4.14,2.61-3.33,1.58-6.58,3.34-9.74,5.27ZM189.32,185.16c-6.62,5.37-12.55,11.6-19.73,16.27-3.17,1.84-6.42,3.61-9.56,5.55,1.39-1.27,2.76-2.56,4.08-3.89,6.58-5.54,14.43-9.6,20.79-15.46,1.45-.95,2.7-2.17,4.07-3.23.54-.41.89-1.05.8-1.74-.44-2.24-3.78-2.73-5.27-1.23-6.36,5.45-11.65,11.95-17.73,17.72-5.97,4.84-13.23,7.77-19.58,12.19-4.45,3.13-8.68,6.06-13.24,9.26-.98.53-2.01,1.05-2.91,1.68-1.29.35-2.82.31-4.07-.19-1.74-1.05-3.8-1.41-5.7-2.07-2.53-1.08-5.06-2.22-7.66-3.15-4.98-2.19-10.36-3.07-15.48-4.83-6.07-2.21-11.44-6.05-17.57-8.14-3.73-1.67-7.68-2.76-11.32-4.63-6.66-3.71-12.47-8.9-18.7-13.29-1.17-.9-2.52-2.09-4.09-1.78,0-.02,0-.04-.01-.06-1.14-4.71-2.5-9.77-2.59-14.76,1.3,1.45,3.81,2.41,5.3,2.9.71.27,1.77.48,2.81.48.17,0,.34-.01.51-.02,1.39,3.76,5.43,6.98,9.26,7.53.33.08.82.13,1.33.13s1.03-.05,1.49-.18c1.26,2.23,3.82,4.27,8.08,5.43.7.19,1.39.31,2.09.31.35,0,.69-.03,1.05-.09.07-.02.12-.05.19-.07,1.61,2.87,4.47,5.17,7.72,5.41.38.04.93.1,1.49.1.13,0,.27,0,.4-.01.18.63.46,1.26.86,1.84,1.73,1.92,4.25,3.51,6.77,4.05.42.03.86.04,1.29.04,1.54,0,3.15-.18,4.54-.78.69,2.16,1.51,4.29,2.29,6.42.21,1.19,1.09,2.19,2.3,2.47.56.16,1.11.24,1.66.24,3.78,0,7.02-3.63,4.81-7.41-1.71-2.68-3.03-5.62-3.8-8.67.56.22,1.24.2,1.8.04,1.91.04,3.74,1.98,5.1,3.53-1.74,1.11-2.84,2.95-2.64,5.7.6,4.08,3.88,7.33,8.02,7.7.55.1,1.93.25,3.4.25s3.17-.16,4.05-.69c.75,1.41,3.21,1.07,4.76,1.23.08,0,.16,0,.24,0,3.34,0,6.69-2.67,8.63-5.97.29.21.65.33,1.11.29.16.03.32.04.48.04.43,0,.84-.1,1.21-.27-.21,2.13.03,4.19,1.71,5.52.5.29,1.03.39,1.58.39,1.11,0,2.28-.42,3.38-.47,1.57-.12,3.38-.66,3.83-2.36.58-6.24-.29-12.53-1.56-18.65-.09-.65-.22-1.28-.37-1.9.44.12.95.03,1.41-.39,1.72-.76,4.07-.3,5.26,1.17,1.02,2.22-1.68,3.92-3.03,5.31-1.21.47-2.06,1.7-1.67,3.01.33.81.8,1.13,1.35,1.13,1.5,0,3.52-2.41,4.39-3.35,1.05-1.06,1.77-2.41,2.1-3.84.06,0,.13,0,.19,0,4.51,0,7.76-3.97,8.28-8.19.17.1.36.16.57.16.88,0,2.06-.69,2.81-.87,3.31-1.08,5.78-4.3,6.05-7.77,0-.06,0-.11,0-.17.04,0,.08.02.13.02.15,0,.31-.02.48-.06,2.07-.07,3.71-1.6,5.36-2.7.96-1,1.69-2.38,1.98-3.82.07,0,.13.02.2.02.29,0,.61-.08.9-.16.51-.12,1.01-.37,1.44-.71.59,4.3,1.6,8.67.61,12.92-.37,1.2-1.44,2.49-1.62,3.8-.15.81.9,1.73,1.71,1.56,1.05.3,2.1.63,3.14.96-1.32.67-2.73,2.63-3.77,3.23ZM197.18,181.87c-1.68-.68-3.35-1.41-5.08-1.97,6.02-6.64,1.72-16.04-.88-23.28,2.71,5.19,5.25,10.54,7.06,16.12.78,3.05-.21,6.2-1.1,9.13ZM193.77,153.33c3.73.12,6.92-4.27,7.64-7.86,1.51-.18,3.1-1.28,3.41-2.73,2.96,2.05,6.41,3.54,9.96,4.55-.52.33-.87.9-1.17,1.42-2.35,4.5-5.24,8.68-8.43,12.62-.87,1.56-3.43,3.48-4.11,5.4-1.24-4.96-3.9-9.54-7.3-13.4ZM216.85,151.58c-2.79,5.33-6.49,10.04-9.94,14.92-1.35,1.76-2.73,3.64-4.22,5.33-.27.3-.6.64-.86,1,0-1.25-.09-2.49-.28-3.71.22.16.46.24.72.24.48,0,.97-.26,1.26-.68,2.64-3.13,5.12-6.4,7.58-9.68,1.12-1.6,7.23-8.89,5.71-11.19.6.14,1.19.26,1.79.37-.75,1-1.09,2.34-1.76,3.4ZM218.11,146.51c-5.96-.8-11.35-4.83-14.65-9.8,5.62,3.42,12.24,5.27,18.73,6.11-.88,2.89-.6,3.69-4.08,3.69Z"/><path d="M78.31,97.43c.22.04.46.06.7.06,3.04,0,6.74-3.27,4.45-6.13-.82-.77-1.95-.35-2.44.56-.28.68-.99.85-1.64,1.03-.72.14-1.53-.05-2.2.32-1.71,1.08-1.1,4.23,1.12,4.16Z"/><path d="M41.01,76.52c.23.04.46.06.7.06,3.04,0,6.74-3.27,4.45-6.14-.82-.76-1.95-.35-2.44.57-.28.68-.99.84-1.64,1.02-.72.14-1.53-.04-2.2.33-1.71,1.08-1.1,4.23,1.12,4.16Z"/></svg>