<?xml version="1.0" encoding="UTF-8"?><!DOCTYPE svg PUBLIC "-//W3C//DTD SVG 1.0//EN" "http://www.w3.org/TR/2001/REC-SVG-20010904/DTD/svg10.dtd" []><svg xmlns="http://www.w3.org/2000/svg" xmlns:xlink="http://www.w3.org/1999/xlink" data-name="Layer 1" height="117" viewBox="0 0 229.39 117.24" width="229" fill="rgb(75, 53, 38)"><path d="M124.92,56.13c.26.15.53.22.8.22.72,0,1.42-.47,1.84-1.07,1.08-.12,1.98-1.39,1.92-2.35.14-2.39-3.03-2.33-4.4-1.16-1.25.98-1.76,3.46-.16,4.36Z"/><path d="M149.8,51.73c-2.65.15-3.88,5.72-.55,5.53.14.07.29.12.45.13h.11c1.44,0,2.22-1.42,2.27-2.84.05-1.45-.68-2.91-2.28-2.82Z"/><path d="M227.23,56.64c-.24-.19-.48-.35-.74-.51.44-.69.5-1.64-.44-1.88-4.25-2.26-9.09-3.31-13.84-4.45-7.45-1.76-14.86-3.8-22.47-4.79-.69-.04-1.36.28-1.86.78-2.47-2.95-6.43-4.13-10.19-4.24-1.99.16-5.43-.25-7.17.98-.32-.46-.7-.87-1.14-1.22,1.6-.23,3.19-.46,4.78-.68,6.27-1.52,12.4-3.74,18.91-3.55,2.82-.71,4.53-4.53,3.06-7.08-.87-1.63-2.98-1.36-4.54-1.67-9.28-2.41-20.45,1.95-28.62,6.31-.23-.03-.47-.03-.72-.01.08-.07.16-.15.24-.23,2.32-2.04,4.73-4,7.2-5.85,1.26-.78,2.15-2.03,2.17-3.54.56.3,1.17.22,1.77.32.13,1.43,1.47,2.34,2.84,1.92,1.75-.58,3.35-3.45,2.4-5.18.17-.43.32-.86.46-1.31.34-.81.7-1.63,1-2.46.77.29,1.63.2,2.44.23-.03,1.36,1.28,2.42,2.56,1.87,1.78-.86,2.44-3.41,1.64-5.15.19-.61.37-1.22.51-1.83.43.43,1,0,1.14-.47.25-.99-.4-.99-1.12-1.22-.22-.52-.74-.87-1.3-.63-1.18.48-1.22,1.99-1.65,3.03-.08.01-.15.04-.23.07-.19.08-.36.2-.54.33-.37.01-.75.01-1.12.01-.41-.02-.8-.05-1.19-.04.08-.77-.25-1.75-1.14-1.86-.74-.09-1.4.53-1.67,1.17-.9,2.26-1.7,4.61-3.03,6.66-.17-.03-.33-.06-.49-.09-.08-.02-.16-.03-.24-.06-.05-4.52-4.81-3.15-3.87.68-.45,1.05-.47,2.37-1.25,3.25-1.06.66-2.04,1.49-3.04,2.26-.68.67-2.06,1.71-3.6,2.93,3.23-5.32,6.16-10.81,8.2-16.72.92-2.91,2.71-5.65,2.75-8.77.15-1.91-1.14-3.98-3.26-3.62-1.7.33-2.72,1.98-3.92,3.09-3.12,2.83-4.45,6.93-5.89,10.76-1.32,3.45-2.34,6.98-2.86,10.63-.57-.76-1.18-1.48-1.46-2-3.35-3.82-6.74-8.58-11.21-11.04-.1-.04-.2-.07-.3-.09-.66-.73-1.51-1.03-2.59-.51-.47-.58-1.11-1.1-1.53-1.64-3.6-3.88-8.93-5.3-13.83-6.83-6.36-2.07-13.07-3.12-19.75-2.54-4.36.22-8.46,1.8-12.69,2.8-8.29,1.86-17.19,3.93-23.36,10.19-4.91,5.23-9.35,10.96-13.55,16.76-3.22,4.96-4.77,10.71-5.75,16.48-.4,2.48-.93,4.96-1.43,7.43-1.16.58-1.91,2.14-1.2,3.3.17.1.34.18.51.27-.5,2.83-.86,5.67-.85,8.55-2.5.44-4.94,1.09-7.38,1.77-5.25,1.42-10.47,3.02-15.11,5.92-3.35,2.85-31.99,18.03-25.83,22.23.01,0,.02,0,.03,0,.02.05.02.1.04.14.32.72,1.04,1.09,1.68,1.48,2.88,1.64,5.76,3.31,8.64,4.95,4.72,2.17,9.78,3.51,14.45,5.84,2.94,1.59,5.82,3.4,9.09,4.23,4.69,1.41,9.34,1.13,14.19,2.02,4.61.96,9.14,2.71,13.88,2.71.17,0,.33,0,.49,0,5.35.05,10.6-1.17,15.9-1.55,1.69-.01,3.35,0,4.99.03,6.35.07,12.42.14,18.99-1.05,8.14-1.33,15.55-4.95,23.16-7.91,4.74-1.65,9.92-2.22,14.74-3.77,1.45,1.35,3.78.37,5.55.34,6.62-.71,12.69-2.88,19.05-4.77,11.85-3.34,23.8-5.73,35.2-10.62,6.39-2.16,11.54-6.52,16.51-10.92,4.49-3.74,10.19-7.05,11.63-13.16.68-2.51.35-5.55-1.84-7.21ZM160.71,52.23c-1,.29-1.98.75-2.57,1.75-3.18,5.34,4.94,9.83,2.46,15.09-.32.8-1.28.8-2.03,1.06-.49.1-1.01-.17-1.42-.51-1.09-1.1-2.14-2.36-3.58-3.01-1.93-.56-4.14-.07-5.47,1.5-1.68,1.43-5.12,9.93-7.57,6.22-.2-4.2,4.82-11.54,1.29-15.01-.38-.29-.99-.27-1.57-.25-.28.01-.55.02-.8,0-1.05,0-1.89.89-2.7,1.5-.56.43-.15,1.71.6,1.15.37-.3.72-.61,1.18-.78.22.05.44.05.67.05.28.01.56.03.84.08.41,1.15.14,2.35-.24,3.51-.12,0-.25,0-.39.02.04-.81-.4-1.77-1.29-1.87-.64-.06-1.09.16-1.58.56-1.9,1.8-3.19,4.09-4.53,6.32-1.38-1.87-4.74.82-6.76.9-.38.1-.76.19-1.14.28,1.04-1.95,1.88-4.06,3.37-5.64,1.9-1.11,4.25-.55,6.15-1.68,3.82-2.57,2.93-7.9,2.28-11.8,1.86-2.82,6.03-5.61,4.92-9.38.31.1.69.11,1.17,0h0c1.29-.3,1.98-2,1.49-3.18.36-1.57,6.56-9.42,7.11-4.96-.23,3.21-2.75,6.32-1.19,9.56.58,1.58,2.52,1.5,3.92,1.57,1.72.09,3.81.71,5.61.6,3.14-.03,7.07-.41,9.52,1.81-1.73,2.52-5.2,3.09-7.75,4.55ZM137.27,67.48c-3.74,6.83-7.87,13.61-12.38,19.98,2.6-7.41,6.31-14.82,12.38-19.98ZM118.73,61.01c-.45-2.06-1.49-2.75-2.78-2.75-1.15,0-2.49.55-3.77,1.16-1.52.59-2.99,2.25-4.72,1.77,3.81-2.26,3.78-5.64,2.13-9.32-.25-.47-.39-.99-.32-1.53.03-.19.09-.35.17-.52h.01v-.02h0c.71-.86,2.04-.42,3.05-.35.47.13,1.06.44,1.49.74.9.52,1.36,1.68,1.99,2.45.42,1.04,1.81,1.29,2.81,1.02,1.26-.48,1.81-2.35,1.16-3.47.08-1.3-1.21-2.01-1.32-3.33-.88-2.31-.08-7.31,3.25-5.3,1.14,1.29,1.78,3.17,3.67,3.51,1.92.42,3.89.28,5.86.15,1.75-.12,3.5-.25,5.22.03-1.34,1.44-3.16,2.35-4.46,3.84-1.98,2.28-1.29,5.43.3,7.7,1.21,1.74,2.58,5.54-.71,5.65-1.56.5-2.48-1.01-3.94-1.17-5.63.21-5.98,7.59-9.74,10.3-.18,0-.34-.08-.5-.15v-.03c-.36-.31-.45-.71-.52-1.2-.06-1.72.08-3.47.43-5.26.27-1.33,1.51-2.43,1.23-3.92ZM145,28.47c-.16-.47-.3-.94-.48-1.4-.16-.43-.32-.87-.46-1.31-.93-3-1.47-5.93-1.81-9.21,2.1,3.62,2.6,7.81,2.75,11.92ZM162.63,37.76c.22-.16.38-.41.55-.62.05-.06.1-.12.15-.19,5.23-1.01,10.51-1.88,15.74-2.9,3.31-.36,6.79-1.61,10.18-1.61.78,0,1.54.07,2.31.22-4.06,4.78-11.53,4.32-17.3,4.67-4.26.39-8.5.82-12.74,1.29.36-.3.73-.58,1.11-.86ZM162.71,21.85c2.23-5.34,3.82-11.06,6.79-16.04,3.58,8.07-6.26,18.64-9.95,25.56-.43-3.37,2.19-6.38,3.16-9.52ZM155.68,27.53l-.04-.07c.39.76,1.23,1.21,2.06,1.22-.19,1.05-.5,2.07-1.09,3.02-.12,2-2.13,6.17.02,7.42-1.04.1-2.09.2-3.14.23.02-3.84.44-8.65-4.41-9.17-.29-.03-.57-.04-.84-.02.08-.29.12-.59.11-.88-.22-3.75-.2-7.58-.81-11.28,3.07,2.86,6.06,5.92,8.14,9.53ZM66.08,24.63c3.84-3.84,8.23-7.06,12.33-10.59,3.53-3.09,7.33-5.71,11.5-7.86,4.83-2.47,10.31-2.32,15.55-1.68,6.08.75,12.19,1.26,18.26,2.12,5.59.87,11.25,2.18,16.18,5.2.37.2.8.65,1.23,1.06-1.44,3.51-.81,7.8-.31,11.48.25,3.14.91,6.31,2.51,9.06-1.1,1.45-2,3.11-2.78,4.43-.51.76-.84,2.01-.72,3-.36-.28-.8-.52-1.3-.71.19-2.73-2.51-6.59-3.42-8.66,2.6-2.4.09-9.3-3.19-5-.37-.07-.73-.13-1.09-.14.63-1.47-.48-2.69-1.67-3.42-.96-.71-2.76-1.79-4.18-1.83-1.57.37-3.24.43-4.79.88-2.03.5-2.62,4.43-.13,4.58.58,0,1.16-.08,1.75-.15.61-.08,1.23-.16,1.84-.14,1.42.4,2.66,1.23,4.06,1.69-.89,1.25-.73,3.28.63,4.12-1.21,2.85,2.22,3.5,3.99,1.99.91,1.74,1.69,3.54,2.33,5.4-3.83-.16-8.34.64-10.34,1.2-.6-.19-.98-.99-1.56-1.34-1.04-.83-2.31-.92-3.56-.57-4.44.53-4.37,6.46-3.75,9.84-2-1.3-5.21-1.59-6.93.31-1.77,1.96-1.55,4.65-1.54,7.1-1.03.86-2.31,1.97-3.12,3.21-.26.02-.53.04-.77.05-1.24.07-2.33.12-3.64.22-2.75.18-5.57.16-8.39.15-2.6-.02-5.2-.04-7.76.1-5.85.54-11.68.29-17.41-1.22-3.97-1.5-8.14-2.38-12-4.14-.37-.16-.76-.37-1.17-.54.38-2.87,1.08-5.69,2.27-8.39,3.54-6.98,6.43-14.5,11.1-20.81ZM71.63,61.97c6.52,1.15,12.64,3.06,19.31,3.06.46,0,.92,0,1.38-.03,4.05.11,8.15-.2,12.13-.95,1.17.97,2.55,1.79,4.05,1.91,2.77.2,5.12-1.58,7.63-2.48.06.04.13.08.2.12-.14,2.76-.93,5.91-.24,8.65-3.03.45-6.07.87-9.05,1.57-3.91.7-7.84.38-11.78.08-3.69-.29-7.39-.58-11.07-.04-5.28.38-10.45.58-15.66-.9-4.14-1.72-8.49-2.86-12.54-4.77-1.21-.54-2.28-1.48-3.5-1.96-.15-2.57-.25-5.17-.17-7.75,5.99,2.39,12.99,2.23,19.3,3.49ZM143.46,97.27c-5.11,2.87-10.26,5.83-15.89,7.72-8.81,2.34-18.04,3.04-26.89,5.29-6.94,1.16-13.98,3.73-21.15,3.78-5.77-.23-11.31-2.16-17.06-2.72-5.62-.39-11.36.1-16.83-1.57-4.03-1.17-8.02-2.53-12.18-3.22-5.13-.66-10.53-1.34-14.91-4.33-3.49-2.28-7.22-4.17-10.64-6.57-1.11-.8-2.21-1.79-3.46-2.39,3.16-3.9,7.39-6.95,11.26-10.17,4.63-3.56,10.26-5.08,15.74-6.83,5.78-2.02,11.52-4.19,17.5-5.54.18,0,.37-.03.55-.08.12.51.33.99.72,1.39.28.23.58.32.87.32.6,0,1.18-.41,1.55-.96,2.73,1.1,5.53,2.06,8.33,2.97,3.98,1.11,8.19.93,12.22,1.82,4.49.76,8.84,2.27,13.38,2.72,1.03.11,2.06.16,3.08.16,2.47,0,4.94-.26,7.4-.52,3.1-.32,6.18-.64,9.29-.46,3.23.47,15.33-.2,21.85-2.95-4.7,6.42-12.26,17.37-5.58,19.09,6.61-.63,8.37-8.66,11.67-13.31.27-.61,1.25-2.19,2.4-4.15.4,1.28,1.3,2.5,2.69,2.61.34.06.66.08.99.08,3.31,0,6.2-2.54,8.34-4.87,1.19-1.05,1.9-2.71,3.34-3.46.79-.16,1.48-.53,2.35-.48,1.07.25,2.25.61,3.32.96,1.6.17,3.47-.2,4.82-1.07,3.5-3.66,2.35-8.85-.04-12.89,3.31,0,6.49,1.62,9.72,2.34-1.33,1.59-3.14,4.92-.92,6.46.33.16.65.23.96.23,1.68,0,3.03-2.07,3.43-3.58,2.44-.52,3.93,1.43,5.76,2.4,1.71,1.06,2.57-1.68,2.5-2.98-.49-3.87-4.86-5.77-8.2-4.01-.16-.09-.36-.21-.58-.33.12-.42.16-.85.09-1.23-.04-1.14-.89-2.15-1.84-2.69-2.36-1.37-5.15-.79-7.73-.42-1.03-.3-2-.49-2.88-.53.31-.16.6-.32.86-.5,2.42-1.55,5.22-2.64,7.18-4.79.33-.51.52-1.05.62-1.6.5-.1,1.02-.32,1.47-.55,2.71-.55,12.57-.82,13.7,2.01-2.17,1.2-4.42,1.58-6.92,1.49-.6.05-1.26-.11-1.9-.26-1.18-.28-2.36-.56-3.24.37-1.17,1.13-1.31,3.85.62,4.23,2.03.36,4.03,1,6.12,1.1,3.15-.01,7.07-1.22,7.97-4.62.08-.28.12-.56.14-.84.3.01.61,0,.92,0,.58-.01,1.15-.02,1.66.08,9.89,1.52,20.54,1.44,29.77,5.63-6.2.2-14.12,4.88-18.54,7.21-7.43,3.77-13.23,9.88-20.6,13.68-9.47,3.88-17.68,10.27-26.47,15.45-4.18,2.07-8.63,3.55-12.7,5.87ZM224.34,65.86c-3.87,10.56-12.33,12.3-21.4,16.73-5.46,2.97-11.04,5.18-16.94,7.18-8.96,3.28-18.13,5.89-27.65,6.79-.63-.2-1.29-.25-1.94-.25s-1.35.05-2.02.11c5.23-3.5,11.15-5.82,16.37-9.35,5.5-3.39,9.96-8.13,15.34-11.65,5.19-3.22,11.02-4.63,16.31-7.9,5.6-2.86,11.51-6.26,17.63-8.03,5.79-1.59,5.68,2.01,4.3,6.37Z"/></svg>