<?xml version="1.0" encoding="UTF-8"?><!DOCTYPE svg PUBLIC "-//W3C//DTD SVG 1.0//EN" "http://www.w3.org/TR/2001/REC-SVG-20010904/DTD/svg10.dtd" []><svg xmlns="http://www.w3.org/2000/svg" xmlns:xlink="http://www.w3.org/1999/xlink" height="567" viewBox="0 0 970.471 566.808" width="970"><g filter="none"><path d="M449.014 220.907c-.12-.41-.902-.913-.975-1.503-.476-3.804 2.376-5.59 3.131-8.124.308-1.032-.041-2.294.262-3.188 1.871-5.509 5.156-10.72 4.004-16.888-.285-1.526-.937-3.642-1.02-5.074-.019-.306 1.416-3.25.923-4.309-2.891.274-5.26-.936-8.202-.439-3.53.596-11.564 3.483-15.355 4.766-5.919 2.004-11.404 5.506-17.402 8.466-13.504 6.664-39.636 17.428-54.596 13.476-3.673-.97-5.356-3.679-7.2-4.296-.856-.287-7.244-1.489-7.562-1.202.002 1.307-2.748 5.034-3.683 5l-2.634-1.42c-.355-2.012.178-4.283-.076-6.256-.135-1.047.198-.929-1.15-.852v8.335c0 .53 1.546 2.58 1.154 3.738l2.29-.575c-.56 2.339.34 4.206-1.734 6.017-4.603 4.015-7.193-2.658-6.924-6.868.162-2.53 3.164-4.68 3.478-7.544.088-.802-.464-5.967-.68-6.72-.804-2.797-2.823-.572-4.228-.433-2.14.212-4.377-.019-6.52-.029-1.496-3.422 1.878-3.07 3.913-4.306 6.545-3.974 1.258-4.488-2.443-6.653-1.221-.714-1.932-2.478-3.537-2.235-.572.086.108 1.438-.862 1.176.832-2.323-2.439-2.847-1.697-4.786.322-.84 2.21-.574 1.663-2.365-.211-.688-1.655-.92-2.016-1.476-.405-.623.66-8.38 1.187-9.76.896-2.348 4.202-5.542 4.645-7.479.324-1.417-.48-2.352-.256-3.6.213-1.195 2.736-4.471 3.417-6.46.823-2.407.71-7.69 1.478-9.364.4-.87 1.38-.697 2.163-1.288.686-.518 1.269-3.062 3.213-.847.975 1.11.242 6.832-.14 8.491-.576 2.494-3.21 7.465-4.568 9.804-.895 1.542-5.941 7.946-6.111 8.803-.169.846.94 2.252 1.004 3.412.168 3.077-1.854 6.436-.99 10.188.648 2.809 6.024 6.114 8.364 7.774 1.621.401 7.031-3.057 10.174-2.75 1.226.12 3.372 2.037 4.725 2.149 1.42.118 2.495-1.789 3.314-1.589.587.143 2.136 4.034 4.338 2.604.886-.575.894-2.49 3.157-2.544 2.607-.061 3.656 2.62 5.217 2.828 1.2.16 3.016-.625 4.57-.648 1.437-.021 3.032.738 4.018.638 1.172-.119 1.554-1.358 2.42-1.62 1.983-.6 6.368-.244 8.944-.828 1.98-.45 4.54-1.87 6.73-2.468 8.923-2.437 18.462-4.328 26.465-6.794 1.349-.415 2.994-.439 4.436-1.446l.755.187c.386 2.13 2.474 1.441 4.145.84.493-.176.464-1.08.804-1.127 1.29-.177 2.496 1.345 3.926 1.198 1.93-.198 4.724-4.953 8.349-.309-2.08 2.487-5.805 2.903-8.9 3.164-3.025.254-9.543-.429-12.4.24-2.13.497-5.748 3.805-7.265 4.24-4.42 1.266-2.798.215-7.115 2.653-2.696 1.523-4.717.197-7.64.403-6.592.465-15.687 4.333-23.065 5.11-7.178.756-15.266-1.216-22.381-.579-1.94.174-4.378 3.206-7.27 2.552-2.006 4.444.578 4.295 2.662 6.049.57.48.732 1.592.898 1.705.31.212 1.436-.565 2.355-.408 5.525.947 6.949 7.134 12.51 7.693 3.343.336 9.013-2.398 11.318-2.54.756-.047 1.312.924 2.167.99 1.18.09 3.316-.959 4.72-1.057 19.138-1.343 29.397-8.32 45.782-16.257 5.422-2.626 19.752-4.907 23.094-9.099.81-1.014.72-2.315 1.737-3.436 1.66-1.83 4.732-1.916 5.819-2.804.692-.566 1.246-3.84 2.825-4.652 1.43-.185.694.39.612 1.18-.212 2.048-1.09 3.663 1.116 5.138 1.208.28 1.173-1.45 1.506-1.674.448-.301 1.71.943 2.79.271 2.463-1.531 2.978-6.048.983-8.184-2.322-2.488-1.978.703-2.493.994-.555.314-4.506.823-4.786.528.554-2.695-1.377-2.517-2.344-3.692-.882-1.072-.72-2.723-1.447-3.727-.541-.746-1.812-.907-2.26-1.763-1.537-2.937.435-1.95-2.905-5.129-1.222-1.163-.789-2.68-3.42-2.373-1.951.228-.66 1.533-1.38 2.626-1.592 2.413-6.245 1.194-8.964 1.442-9.419.86-11.265 3.636-18.507 7.938-6.022 3.577-10.64 5.526-17.309 7.412-3.615 1.022-4.985 2.616-9.326 1.316l.743 2.118c-1.268 2.482-4.09 1.756-5.728 2.321-1.715.592-3.746 2.59-5.195 2.908-1.606.353-3.672-.237-4.968.207-1.173.403-.816 2.683-3.523 2.238-4.198-.69.387-3.807.815-4.37 1.37-1.805 1.116-3.168 3.855-4.237 2.038-.796 2.68.171 4.482-.02 6.061-.645 10.87-4.14 16.26-6.215 8.317-3.2 9.833-2.136 17.206-8.09.838-.676 12.12-7.627 12.837-7.858.833-.269 8.87-1.85 9.386-1.848 2.753.01 5.318 1.995 7.873 2.716l-1.14-1.432c2.963-1.235 1.013-1.943 1.25-3.895.345-2.824 3.622-5.578-1.248-8.176-.025-.724 8.542-3.232 7.46-6.027l-8.541-1.807-.004-2.435c.634-1.814 13.19-2.104 15.646-3.281l1.24 1.765c.508-2.015 2.586-.946 4.312-1.148l-.856 6.906c-1.22 2.147-6.346-.5-8.19 3.878-1.383 3.285.165 3.733.397 5.626.297 2.435-1.224 6.249 2.32 6.014l-2.061 1.095c-.575.743 2.288 8.095 2.635 8.387.634.531 2.364.591 3.4 1.198 1.65.966 4.703 3.88 5.947 4.402 1.583.664 3.386.104 4.514.7.454.24.056 1.264.473 1.758.844 1 2.016.715 2.54 2.673.42 1.577-.71 2.983-.77 4.494l1.439-.567 1.178-19.572c-1.008-3.33-3.523-7.533-4.083-10.888-.214-1.282.579-2.333.227-3.617-.254-.925-1.82-1.772-2.449-2.766-2.295-3.63-.32-5.059-1.158-8.048-.423-1.509-2.373-1.596-2.915-2.828-.496-1.126-.033-2.668-.551-3.47-.362-.56-2.276-.795-3.167-1.432-1.293-.925-2.127-2.523-3.634-3.265-2.244-1.105-10.417-3.531-12.814-3.88-4.368-.637-4.016 1.79-5.208 2.184-1.567.517-7.672-.757-9.264-1.49-1.551-.712-1.727-2.28-2.447-2.73-2.474-1.541-8.214 3.862-11.496 3.164-.271-1.749.43-.944 1.444-1.128 2.506-.455 3.628.174 3.724-3.465l-3.44 1.147-.642-3.387-3.967-.065.006-1.719 8.042 2.869c.714-1.696-.1-4.02-1.762-4.864-.674-.342-1.737-.147-2.137-.422-.596-.41-2.3-4.528.186-5.037 4.757-.973 11.267.812 14.939 3.992 2.134 1.849 1.075 4.034 2.94 5.682 3.396-.529 5.61 1.41 8.807 1.283l.03 1.668c3.42-.865 8.773.577 12.006 2.076 2.845 1.32 4.517 4.47 8.112 4.243-.02-1.928-1.625-3.37-2.054-5.126-1.702-6.972-3.264-14.546-5.28-21.161-.467-1.537.064-9.54-2.72-9.408-.595.027-3.387 1.18-3.724 1.514-1.652 1.633.273 4.735-5.233 3.471-9.931-2.28 2.787-9.035 2.343-10.949l-5.175-2.027.002-.851c2.252-1.13 1.018-2.719 1.406-3.757.485-1.297 2.221-3.199 2.48-4.45.17-.814-.501-1.61-.175-2.425.433-1.082 2.613-1.735 3.215-2.565.857-1.18.584-2.664 1.963-4.362 1.026-1.264 4.13-2.733 4.263-2.956.384-.645-.86-1.797.373-3.3 1.211-1.476 3.265-1.744 4.685-2.541.312-.175.47-1.022 1.556-1.578 3.01-1.541 5.773.58 7.252-2.24l-1.725-1.155h2.874l-.289 1.716c1.26-2.723 3.569-2.45 6.258-2.226.556.046 2.713.237 2.651 1.071-4.608-.013-8.503 3.323-12.642 2.885l.577 2.29c-1.58.505-4.728 1.48-5.972 2.374-.904.65-1.122 1.796-1.79 2.255-2.673 1.836-7.369 3.763-8.643 6.857l-3.147 9.783c1.734.028 3.151.993 4.884 1.16 4.995.48 7.355-4.054 11.383-6.447 3.982-2.366 12.327-4.82 15.565-7.43.833-.671 3.63-3.483 4.69-4.509 1.134-1.096 3.873-6.104 5.767-3.484 1.796 2.486-5.94 7.043-6.542 9.055-.804 2.68 1.683 3.01 1.686 5.048.007 3.688-5.785 4.513-8.684 4.31-.378-.964 2.337-4.63.292-4.592-1.83 3.757-6.43 3.21-9.522 4.279-1.558.538-2.357 2.635-4.57 2.046l2.596 2.267c3.094-6.16 7.787-.582 12.198.468 4.328 1.03 9.744-.535 14.1-1.73 5.698-1.561 11.97-4.836 17.537-6.034 1.037-.223 8.518-1.417 8.965-1.343.55.09.466 1.4 1.303 1.68 1.537.515 6.56.542 7.9-.436.885-.645.087-2.857 3.547-2.963 2.67-.082 1.912.935 3.198 1.996.5.414 1.633.39 1.981.89.412.592.593 3.092-.067 3.542-.979.667-8.675 1.503-10.365 1.603-1.265.074-2.418-.734-3.913-.516-2.31.335-7.045 3.414-9.549 4.294-6.145 2.161-12.244 3.087-18.641 3.78-1.366.148-2.161 1.289-3.998 1.116-2.999-.282-2.953-3.359-3.566-3.49-1.485-.317-2.37 1.08-3.415 1.18-3.786.366-8.297-1.683-12.077-1.159-.59.082-8.31 4.234-8.576 4.642-.129.196-1.975 4.007-1.99 4.24-.18 2.992 2.298 7.721 2.737 10.545.19 1.217-.494 2.116-.366 3.172.321 2.675 3.182 9.359 3.333 11.673.094 1.441-1.183 2.466-1.187 3.975-.002.407 1.689 7.283 1.905 7.909.481 1.395 2.984 3.107 2.159 5.02 2.372.489.397-2.162.833-2.878l2.029-.56c-.556 1.696 1.618 2.165 1.752 2.71.17.697-.289 1.965.073 2.38.169.194 1.163.063 1.557.416.536.479 3.882 3.562 4.014 3.805.212.392-.44 1.309-.239 2.192.393 1.715 3.074 3.172-.157 4.087l-.014 1.272c4.422 2.64 4.176 7.443 7.972 10.44l-2.299.287 2.645 2.837-.862 2.633c3.201 1.772 3.793 5.5 5.89 8.128 1.828 2.293 5.688 5.194 7.88 7.352 3.193 3.144 5.087 4.23 7.103 8.418 2.582 5.363 6.968 10.996 9.23 16.063.51 1.141.107 2.407.592 3.432.538 1.136 5.645 3.742 6.846 5.227.33.409 3.382 4.792 3.49 5.084.268.719-.529 2.03-.27 2.322.21.235 4.574.974 5.47 2.874.659 1.396-.436 4.165 2 4.028l.589-2.296 2.288 1.145c.962-1.45-.894-4.532.934-5.127 1.133-.368 5.541 2.445 6.246 3.417 1.299 1.79.618 4.064 1.415 5.996l-.888.787-2.57.332c-2.365 4.763.67 6.366 2.685 10.062 4.292 4.147 9.44 7.869 13.725 10.97 3.246 2.35 13.69 6.54 15.572 9.786.373.642-.32 1.438-.196 1.958.046.194 2.324 2.605 2.75 2.054-.307-.838-.746-1.604-.61-2.562.376-2.667 2.048-.658 3.272-.478 4.623.68 9.966 2.81 13.98 3.374.63.09 5.526-.272 5.978-.419.66-.214 1.919-2.515 2.966-3.358.647-.52 1.644-.628 2.3-1.15 2.781-2.211 5.193-4.999 8.617-6.329.007 2.053-3.459 3.925-4.012 5.186-.643 1.467.314 4.614-1.841 5.083-1.619.352-3.473-1.76-5.38 1.495-1.218 2.08-.214 2.305 1.623 3.03 5.833 2.304 9.916-1.94 15.581-2.79-.46-5.548 2.384-9.789 4.129-14.552.418-1.142 2.045-5.272 2.177-5.913.157-.76-.232-3.852-.558-4.106-.319-.25-1.833.06-2.791-.365-.206-.091-3.249-2.591-3.478-2.852-1.606-1.83.021-3.344-4.492-2.098-.73-2.82-3.364-2.485-5.49-3.441-1.103-.495-2.237-1.69-3.197-1.978-3-.9-8.057.483-10.928-1.717-1.088-.834-.775-2.189-1.346-2.971-1.207-1.655-7.668-7.263-8.137-8.245-1.65-3.46-.186-7.683-3.564-10.255-2.594-.871-3.15 2.72-4.31 4.157-2.931 3.636-4.143 2.212-7.787 3.713-2.364.974-3.14 2.845-5.773 3.425-8.978 1.978-10.024-.729-17.364-3.06-4.418-1.403-4.955-.581-9.181-4.042-3.56-2.915-4.192-3.185-7.91-5.613-1.5-.98-2.55-3.66-3.673-4.66-.633-.564-1.998-.702-2.179-.988-.313-.493.135-1.58-.18-2.086-.267-.427-2.741-.54-3.246-2.232-.43-1.436.08-3.253-.136-4.751-4.823.314-3.183-2.25-4.128-3.924-.121-.215-1.376-.591-2.085-1.646-1.514-2.253-1.906-5.29-2.94-6.834-1.913-2.86-8.803-.351-7.101-7.057 1.034-4.074 2.807-4.246 5.64-6.425.603-.463.811-1.446 1.44-1.927.414-.317 7.279-2.362 7.988-2.395l9.783 4.94-.278 3.436c.318.482 2.303 1.007 2.988 1.077 2.163.22.955-.557 1.676-1.632 1.423-2.121 4.354-.214 6.729-1.247 2.668-1.16 2.893-.097 5.929-.5 1.164-.153 2.225-1.177 2.727-1.084.515.095 1.051 1.033 1.84 1.058 1.57.05 3.37-3.55 5.734-1.15 1.21-3.283 5.091-4.057 7.735-6.081.729-.558 6.06-4.852 6.347-5.15 1.137-1.178.974-3.627 4.04-3.141.57 3.811-5.187 4.817-6.883 6.62-.91.968-2.452 2.339-2.765 2.693-.391.441.12 1.91-.933 2.807-.833.71-2.48.514-3.393 1.062-.611.367-.929 1.71-1.811 2.36-.914.673-9.328 4.24-10.507 4.438-2.258.38-4.56-.106-6.754.145-6.517.745-12.158 5.358-18.691 3.44-.786 2.742-.104 5.338-.117 7.76-.009 1.678-.826 2.925-.34 5.054.148.65 6.55 10.876 7.045 11.347 1.42 1.355 2.774 1.292 3.708 2.063 1.29 1.066 3.57 4.391 4.664 5.076 2.287 1.432 4.744.372 5.72 4.063 5.966.512 11.428 4.287 17.404 3.574 1.922-.23 11.825-2.814 13.046-3.643 1.414-.961 5.547-5.637 6.621-7.152 2.611-3.685 5.508-8.62 8.102-12.608.493-.759 1.592-.95 1.829-1.318.62-.968.69-4.435 1.84-5.778.135-.158 2.657-2.14 3.114-2.492 1.582-1.22 4.612-3.957 5.457-.372.225.958-.803 4.388-1.01 5.735-.134.871.473 2.035.243 2.53-.29.628-2.045 1.035-2.319 2.28l-5.149-2.322c-1.523.336-1.097 5.812-1.734 6.895-.646 1.1-5.168 3.208-5.345 5.553-.249 2.785 5.443 5.958 7.78 6.385 1.142.21 8.843.341 9.276.059.327-.213.47-2.602 1.482-3.44.532-.442 1.406.105 2.331-.454 2.185-1.32 3.916-5.376 6.61-6.668-1.065-.187-1.478-1.773-2.085-1.95-.242-.071-4.672.5-5.002.614-.907.31-2.241 2.9-2.778 3.84l-.73.109c-3.345-1.678-4.92-3.278-8.948-2.326-.71-2.06 3.833-4.673 5.235-4.321.825.207 1.542 1.444 2.525 1.45.912.004 1.843-1.326 2.99-1.608 3.193-.785 8.954-.404 11.809-1.412.85-.3 1.355-1.34 1.935-1.45 3.168-.609 7.871 1.668 11.411.994.95-.18 6.555-3.203 6.914-4.007-.063-7.864 2.224-15.77.875-23.554 2.002.116 2.249 4.036 2.928 5.861.158.422.991.46 1.077.863.353 1.669-.957 4.762 1.738 4.768-.043-2.33 1.397-5.213 1.74-7.218.18-1.062-1.041-.691-1.158-1.209-.32-1.414.411-2.852.291-3.94-.357-3.219-3.667-8.892-4.065-12.325-.292-2.516.934-4.618-1.147-7.465-1.448-1.98-5.093-.999-7.13-2.644-1.486-1.201-3.64-5.835-4.326-7.746-2.468-6.888-.512-8.746-.998-14.513-.048-.57-1.83-7.849-2.034-8.323-.661-1.536-6.251-4.53-7.601-3.904-2.553 1.186.72 4.21 1.41 6.07 1.126 3.038 1.473 6.51 2.945 9.702 2.606 5.654 2.77 3.08 3.246 10.15.255 3.782 2.462 8.056-.706 10.89 5.178 1.731 2.157 4.572 2.839 7.36.155.635 1.636.448 1.792 1.834.391 3.464-2.087 6.189-1.762 9.486l1.713-.58c.245 1.482.871 2.884 1.098 4.376.49 3.23 1.552 8.451-3.415 6.87-4.669-1.488-2.968-4.033-3.485-7.444-.636-4.19-.594-4.546-.52-8.689.04-2.333-.382-6.014-.001-8.046.332-1.77 2.46-1.327 2.303-3.15l-2.322-.964c-.52-3.008.946-7.941-.127-10.666-.557-1.416-2.566-2.89-3.04-4.442-1.439-4.707-.783-9.301-4.246-13.458-.539-.646-1.488.015-1.96-1.082-.469-1.089.865-5.272-.756-5.644-3.183-.73-3.815 2.028-4.66 2.32-.466.16-4.626 1.116-5.09 1.153-3.023.244-9.177-2.255-12.004-2.282-1.751-.016-7.231 1.255-8.565 2.355-1.25 1.031-1.036 2.553-2.049 3.699-1.685 1.906-6.155 4.401-8.328 7.193-.591.759-4.43 6.735-4.342 7.144.337 1.567 4.618.338 5.755.023 2.627-.727 6.422-2.785 9.169-4.06 1.231-.57 2.255-3.51 4.05-2.272.527 4.157-6.026 4.9-8.25 6.56-.632.47-.41 1.754-1.183 2.394-.806.667-2.405.557-3.45 1.16-2.258 1.306-4.237 5.257-8.075 5.14-7.024-.217-5.383.567-11.11 2.117-5.53 1.497-12.995.836-18.786.757-6.606-.089-10.493-.164-17.149 1.253-.827.176-1.386.741-2.135 1.021-1.078-1.437 6.061-5.944 7.312-6.216 1.903-.414 3.269.467 5.02.492 3.336.049 6.715-.47 9.797-.483 3.079-.012 7.09 1.033 10.323.433 1.436-.267 2.77-1.989 4.176-2.16 1.367-.167 2.46.764 4.312.323 1.854-.442 4.535-2.66 6.53-3.286l-2.059-5.766c2.856.294 1.937-1.808 2.747-3.298 1.215-2.235 3.07-2.499 4.668-3.955 3.306-3.013 6.176-6.494 9.561-9.414 1.27-1.418-6.27-3.395-6.942-3.438-1.044-.066-2.197.604-3.395.58-3.277-.069-7.397-1.117-10.089.848-.761.556-.904 1.553-1.573 2.017-5.065 3.516-11.345 6.827-17.006 9.285-2.135.927-10.847 4.61-12.442 4.806-.866.108-1.372-1.099-2.492-.834-.857.202-2.782 2.886-3.892 3.647-1.996 1.368-4.714 1.875-6.586 3.765-1.8.53-.369-2.217.043-2.835 3.092-4.636 12.683-8.086 17.45-10.72 1.542-.853 3.066-2.765 4.223-3.25 3.258-1.366 9.468-2.187 13.092-3.58 1.942-.746 4.264-3.835 6.485-5.012 5.08-2.69 9.659-2.332 15.015-2.807 1.37-.121 2.476-1.089 4.007-1.06 3.57.068 9.937 4.68 12.627 4.409 1.015-.103 2.069-1.34 3.084-1.471 1.22-.158 2.355.779 3.775.38.993-.277 1.629-1.933 3.395-2.399.447-.118 5.09-.92 5.394-.934 1.972-.094 4.719.805 7.148-.032l-.003-3.418c-4.107-1.19-6.617-5.425-5.75-9.797l-2.291.577c-.872-1.619-.213-4.008-.666-5.38-.293-.885-1.597-.961-1.932-1.524-.757-1.268-.514-1.703-1.917-3.798-1.269-1.895-2.531-4.378-3.455-6.349-4.328-9.228-7.836-19.584-14.463-27.472-2.23-2.655-.585-4.322.073-7.142 5.354-.765 3.587.541 4.84 3.355.54 1.215 2.701 2.128 3.63 3.269 2.795 3.438 8.789 13.508 8.636 17.768-.036 1.016-1.002 1.724-.823 2.595.3 1.466 2.153 2.503 2.607 3.258 1.852 3.074 4.199 9.258 5.3 12.452.787 2.281-1.416 3.665 2.499 3.738-.561 4.532 4.357 7.829 5.682 11.018.548 1.32.578 5.233 2.314 5.482 1.663-.574 6.94.07 8.2.967.408.29.53 1.286 1.329 1.82 2.175 1.452 2.692-.19 3.853 3.623.16.527-.25 1.286-.055 1.874.362 1.097 3.93 4.926 4.81 4.006.585-1.548-1.392-2.362-1.495-3.126s.518-2.085.333-3.436c-.216-1.589-1.979-4.258-2.555-6.098-1.653-5.284-3.23-10.613-5.381-15.888-1.182-2.898-3.684-5.464-3.542-8.812.837.247 1.396 1.18 1.86 1.872 3.734 5.572 5.73 12.939 9.142 18.474.41.664 1.523.802 1.651 1.328.427 1.755-.282 4.437.612 6.615 2.067 5.033 2.92 4.873 3.428 11.686.401 5.397.254 3.392 2 8.296 1.918 5.385 2.577 10.308 3.86 15.685.458 1.924 2.43 5.618 2.63 7.168.194 1.5-.974 2.59-.973 3.89.005 4.4 2.347 6.371 3.618 9.53 1.31 3.255.264 19.365-.965 23.081-.453 1.37-2.556 3.424-1.903 4.475 1.618 2.6 12.142-.72 15.066-1.087 5.87-.738 11.84-.839 17.692-1.79 3.326 1.575 7.184 3.37 10.289 5.282 3.454 2.127 2.19 1.825 2.702 5.628-4.242.554-7.364-2.713-10.599-4.63-.801-.475-1.782-.445-2.602-.878-.457-.24-.558-1.288-.882-1.4-2.11-.732-.983 1.329-1.806 1.763-3.323 1.754-7.113-.134-10.867-.049-4.123.094-11.162.518-15.007 1.679-4.39 1.325-2.767 3.406-3.65 7.54l2.291-.57c-.32 4.353-6.31 7.868-7.192 1.722-.241-1.676.644-2.57.773-3.898.379-3.908-7.889-1.272-9.993-1.348-2.021-.073-4.994-2.895-7.145.36 1.47.917 4.26 4.288 4.505 5.876.215 1.39-.89 2.032-.967 2.845-.058.611 2.03 4.152 1.055 5.935l3.054-.522c2.753 1.819.328 4.428-1.169 6.288-3.453.195-6.455-2.177-9.97-.895l.026 3.178-2.867-1.145c1.33 2.328-.417 7.686-3.467 6.052-1.23-.66-.93-3.401-4.016-4.097-1.983-.447-2.399 1.093-3.141.92-.809-.19-.513-2.041-1.568-2.503-2.6-1.136-9.07-.925-12.124-1.647-1.977-.467-4.66-5.041-5.577-1.04 2.489.421 6.69 4.595 8.468 5.048 1.873.477 4.444-.03 6.474.718l-1.148 2.286c.7.53 2.408.065 2.614.127.194.06-.354 1.017.593 1.507 5.226 2.703 14.955 2.178 20.516 3.107 1.058.177 9.099 3.41 9.343 3.853.356.65-1.052 1.736.868 3.186 1.69 1.277 3.142.527 4.748.998 1.076.316 2.527 2.43 3.671 2.609.301.046 5.35-1.08 5.961-1.276 1.688-.542 3.24-1.958 5.579-2.47 3.76-.822 8.054-.686 11.965-1.832 2.742-.804 5.05-2.584 7.73-3.488l-1.148-2.285c1.605-1.13 13.072 2.42 15.845 2.327 2.25-.075 2.495-2.778 3.99.531 1.296-3.259 3.766-1.473 5.6-1.839.562-.112 1.09-.927 1.895-1.018 4.371-.497 9.184 4.394 12.716 6.802 4.11 2.802 17.824 13.19 21.323 14.32 2.486.802 5.23-.662 5.382 3.867.099 2.938-.7 7.104-.557 10.229.25.987 4.721 5.355 5.511 6.659.68 1.121.303 2.123.478 2.4.605.953 6.876 2.95 4.134 5.592-.866.835-2.919.347-2.735 3.013-6.424-.223-6.292-8.571-10.642-10.342-1.253-.51-.971 1.984-1.989 2.586-.946.56-2.388.215-3.461.282.757-3.17-1.607-3.231-3.345-5.567-1.579-2.121-1.955-4.814-3.286-6.487-1.883-2.369-5.011-5.833-7.164-8.357-2.206-2.587-10.942-8.754-14.14-8.915-2.128-.107-6.913 4.129-9.934 2.806l-1.339-6.127c-8.898-2.112-2.778-3.261 2.425-3.274.887-.627.327-.932-.291-1.452-1.343-1.13-3.836-1.934-5.629-1.624-2.198.598-.26 3.392-2.432 3.376-1.817-.014-2.864-3.663-4.312-4.323-3.612-1.646-10.494 3.2-14.503 4.453-4.796 1.5-9.508 1.593-14.167 3.368l1.948 10.27c3.547 3.308 4.842 9.275 7.368 13.049.534.797 2.646 1.918 3.124 2.88 1.445 2.906 1.68 6.673.164 9.579l8.03 8.116c.14.694-.144 6.368-.42 7.018-.233.545-3.78 6.83-4.158 7.39-.948 1.404-3.081 1.383-4.042 2.845l8.198 2.14c1.112 1.078 6.024 2.783 6.59 3.47 1.571 1.912-.159 5.423.413 6.725l7.5 8.644.361-2.828c3.117.285 1.954-3.988 2.476-6.402.269-1.245 2.277-4.308 1.906-5.017-.059-.111-.97-.097-1.04-.483-.18-.988.63-2.113.495-3.25-.143-1.191-1.829-3.079-2.354-4.558-2.118-5.969-1.394-7.197-5.022-12.95-2.1-3.332-2.147-11.943-3.017-16.375-1.12-5.704-2.684-9.255-4.682-14.288-.805-2.026-3.43-7.545-3.677-9.01a6.11 6.11 0 0 1 1.015-4.473l2.91.015c1.49.755 2.072 6.374 2.742 8.179 1.292 3.478 5.687 10.183 8.155 13.115 1.583 1.88 5.255 3.352 5.192 6.581-4.584 2.375-4.007-3.249-8.258-2.906l-.933 2.596c2.488 5.205 2.957 11.06 5.835 16.062 5.356 9.307 7.314 15.617 10.372 25.817 1.035 3.45 3.507 4.13 4.752 5.596.82.965 1.799 4.74 2.67 5.952 2.289 3.178 11.085 2.657 12.632 4.613 1.68 1.443-.77 3.343-.614 4.034.494 2.196 12.121 3.75 14.369 4.64-.002.525-5.717.303-6.543.213-2.94-.323-9.494-2.118-12.254-3.273-2.199-.919-3.958-3.683-6.175-4.744-5.106-2.441-5.513-1.907-9.497-6.737-1.49-1.805-3.217-6.894-5.816-3.884-.716.83-1.007 2.782-1.783 3.962-3.038 4.62-7.57 1.678-7.954 2.102.646 2.314-1 3.432-1.58 5.036-.536 1.483.072 4.12-2.276 4.642-3.133.697-5.53-1.984-7.805-2.904-1.17-.473-3.422-.476-4.1-.956-.543-.385-.337-3.2-1.785-3.513-1.4-.303-1.081 1.853-1.835 2.312-.538.327-5.393 1.748-6.488 2.056-.996.28-1.858-.303-2.504-.174-.978.197-2.76 2.012-4.414 1.837l-.499.616c1.884 3.406-2.352 9.47.234 12.326.707.781 2.257.127 2.055 1.404l-.685 4.852-2.239.345c3.238 1.737 3.397 6.213 4.564 9.232 2.897 7.49 7.092 13.706 10.48 21.136.87 1.906 1.847 6.343 2.835 7.523.797.952 1.95.776 2.295 1.275.716 1.033.464 3.712 1.755 5.587.963 1.399 3.552 2.393 3.864 3.662.267 1.09-.611 2.068-.232 3.021.301.757 2.333 2.01 2.898 2.883 1.122-2.377 1.387-13.026 3.533-13.723 5.15-1.672.055 6.366 1.898 7.73.419.382.85.226 1.332.157 2.101-.3 12.146-7.378 15.38-8.809 4.143-1.833 5.948-1.807 10.02-2.045 1.457-.085 4.81-2.45 5.528-3.684.537-.925.454-2.366.615-2.539.284-.304 7.661-1.275 8.24-1.219 1.032.1 1.866 1.499 3.18 1.14-2.097-7.002-8.939-4.827-13.91-2.274-.67.343-.746 1.286-1.375 1.626-2.041 1.103-4.8 2.05-7.132 1.797-.492-2.195 2.294-.524 3.492-1.403.562-.412.344-1.721.625-1.957.363-.304 1.445.126 2.06-.22.309-.173.444-1.164 1.054-1.52 2.769-1.615 11.856-3.781 14.597-2.063.617.386.664 1.613 1.546 1.901.915.3 2.276-.185 3.095.355.533.351.593 1.732 1.108 2.34 1.06 1.25 2.807 1.668 3.437 3.442-.097 1.062-5.249 2.104-3.99 3.15l2.31-.326 4.581 2.046c-3.287-.005-7.664 2.955-10.666 3.422-1.177.183-5.824.582-6.897.54-1.063-.043-1.849-1.054-2.756-.974-.993.087-1.878 1.578-2.958 1.6-1.976.038-2.077-1.757-6.183-.408-3.882 1.275-5.878 2.677-9.224 4.57-1.256.71-4.632 1.69-5.31 2.739-.779 1.207 3.4 2.666.91 4.358-.712.484-2.184.093-3.057.388-1.265.428-2.065 1.169-3.47 1.408-2.571.437-2.642-1.324-4.172-1.568-1.584-.253-3.498 1.007-3.718 2.643-.117.862 1.065 6.812 1.288 8.462.1.74.902 1.406.947 2.395.106 2.367-1.445 7.35-4.235 7.816-1.358.227-.289-1.712-2.01-1.173l-.082 2.225c-2.226-.447-2.123 2.344-2.535 2.417-1.945.343-3.685-1.708-5.728-1.802-1.872-.086-3.606 1.062-5.255 1.164-5.753.356-9.01-10.908 1.132-9.041 1.693.311 1.544 1.916 3.033 1.987 1.78.086 4.08-.857 6.157-.383.32.073 2.15 3.441 4.467.313 1.726-2.328-.625-2.95-1.417-4.413-7.57-13.99-13.989-28.484-21.128-42.68-6.229-12.385-12.997-29.495-16.428-43.357-1.14-4.603-.501-7.249-.753-11.267-.158-2.503-2.014-6.598-2.277-9.846-.404-5.012.805-10.508-.14-15.38-.664-3.415-6.206-12.758-8.578-15.566-1.115-1.32-3.11-2.37-4.303-3.781l-1.863 1.47c-1.494 4.78-1.346 10.543-2.528 15.288-.256 1.03-1.57 1.742-1.457 2.942.085.888 1.592 2.355 2.034 3.692.708 2.138.333 5.438 1.025 7.024 1.04 2.38 5.477 2.22 3.73 6.329l2.29-1.147c-.443 1.879 2.904 3.567 2.062 5.178-.584 1.118-2.481.61-2.051 2.292 4.723-1.774 6.333 4.565 8.05 7.637.34.607 1.88 1.112 2.18 2.583.048.234.108 4.14.045 4.347-.328 1.09-2.478.848-2.259 2.94.228 2.178 3.73 1.935 1.19 5.47l1.685.945-.541 3.098 1.166-.278c1.835 1.735.542 4.153.706 5.676.257 2.383 3.137 6.764 3.283 10.975.116 3.376.051 1.421.552 3.022.294.94.066 2.293.622 3.3-2.172.245-2.216 2.797-4.847 2.059-.312-.088-1.838-4.636-4.398-4.415.871-5.158-2.241-9.597-3.28-14.437-.489-2.276.913-5.24-2.292-5.816-1.315-.236-4.258 1.486-5.536 2.304-.833.532-4.244 2.986-4.993 3.605-.809.669-1.14 2.213-2.066 2.532-1.788.616-4.583-.492-6.507.392-1.758.809-4.14 4.182-6.332 5.166-4.132 1.853-7.984 2.18-11.17-1.484-1.178-1.354-4.782-9.02-4.278-10.507.24-.71 1.263-.829 1.656-1.378 4.844-6.763 9.436-11.114 15.499-16.539 1.01-.903 2.33-1.461 3.185-2.568l1.996 1.144c.016-3.941 2.235-2.41 4.285-4.06 2.445-1.967 2.288-5.671.807-8.206-.77-1.32-2.356-.971-3.35-1.825-.704-.606-2.77-2.776-3.747-3.726-2.948-2.866-5.447-5.35-5.467-9.773l-5.073 1.852c-.823 3.7-9.76 5.959-13.187 6.054-3.27.09-5.542-2.796-7.983-4.367-1.247-.802-2.757-1.01-3.94-1.809-2.858-1.93-4.352-5.367-5.828-8.339 1.186-1.665 2.125-3.454 3.238-5.184.415-.646 1.153-1.004.028-1.733-1.921-1.244-10.707 2.94-13.237-1.14l6.178-1.814c1.023-1.013 2.408-2.875 3.982-2.955.718-.036 1.202.8 1.624.828.553.038 1.315-.831 2.264-.868 1.964-.076 5.458 1.677 7.43 1.481.629-.063 5.491-2.171 5.571-2.504.226-.942-2.541-7.46-3.21-8.228-2.21-2.53-7.441-5.938-10.32-8.076-1.015-.754-2.364-2.781-3.197-3.16-1.94-.886-9.316 1.535-11.826 1.964-1.953.335-6.815-.408-8.172 1.332-.277.354-.023.884-.104 1.028-.454-.054-1.283-.134-1.613.093l-.684 2.203c1.817.238 1.795-1.413 2.297-2.296.939.11.76.677.57 1.424-.433 1.69-8.544 9.62-10.38 10.898-3.93 2.737-10.5 3.545-14.91 5.504-.268.357 1.985 1.558 1.766 3.11-.088.619-2.237.56-1.765 2.053l2.271.057.028 1.671 2.867-1.15-.532 4.92c-1.646 1.14-6.793-.94-7.946-2.182-.6-.646-.434-2.047-1.013-2.727s-1.85-.534-2.538-1.487c-1.29-1.786-1.209-8.72 2.26-8.866l.856 2.293 2.583-3.735-2.863-.865c.952-3.248 1.944-4.732 4.897-6.314l.566-.022.29 1.158 1.143.011c-.568-3.062 1.305-2.367 2.595-3.447 1.422-1.193 3.26-3.814 4.576-4.622 1.647-1.012 4.456-1.264 6.26-2.364 1.051-.642 1.907-2.14 2.68-2.494 1.313-.6 10.455-1.138 13.587-1.944.788-.203 1.6.37 1.346-.932-3.318-3.198-5.367-6.842-10.656-6.343-.396.037-6.613 3.127-7.144 3.487-.875.595-1.091 1.98-1.535 2.034-.622.076-1.525-.585-2.248-.557-1.014.04-1.816.926-2.876 1.055-3.956.483-5.643.274-6.57-3.717l-5.59-1.625c-1.01-1.083-1.696-1.522-1.324-3.249-1.456-.335-1.353 1.253-2.127 1.745-3.13 1.991-2.657-2.496-5.899-1.767.982-2.761-1.939-5.94-.89-8.033 2.192-3.111 6.82-3.19 9.234-4.565.833-.475 2.437-2.593 3.435-3.464 1.183-1.033 4.136-1.888 3.66-3.644-.227-.837-2.61-2.588-3.369-3.572-1.422-1.841-4.54-5.216-5.456-6.616-.858-1.311-.704-3.66-1.412-4.768-.512-.8-2.158-.696-2.647-1.52-.606-1.02-.007-2.796-.909-4.265-.577-.941-2.479-1.704-3.399-2.924-2.214-2.936-3.076-4.79-5.768-8.028-2.835-3.41-2.709-6.584-4.162-8.782-.242-.366-1.272-.4-1.502-1.093-.37-1.116.486-2.344.207-3.118-.169-.469-1.693-1.543-2.231-2.315-4.733-6.791-9.234-13.232-13.488-20.427-.875-1.48-.38-4.704-2.95-3.374 1.854 5.417.425 10.095.003 15.513-1.207 15.481-5.603 26.111-8.475 40.96-.607 3.136.605 6.937-3.018 7.903l-.018 1.152 1.19 1.143c-4.461 5.731-1.425 14.411-7.493 19.258l.712-8.764c2.523-7.816 4.417-15.99 6.505-23.964.703-2.686.648-6.584 1.676-9.246.617-1.595 2.318-2.257 2.594-3.738.312-1.671-.418-3.258-.304-4.894.12-1.733 1.413-3.53 1.434-4.286.043-1.533-1.298-4.724-3.307-3.61-.913.506-4.295 6.097-6.123 6.776l-1.193 3.443-2.928-1.677-1.334.873c-.31 1.776 1.1 4.36 1.165 5.68.054 1.109-.484 4.329-.664 5.733-.26 2.025-.636 3.853-.941 5.866-.205 1.348.786 3.335.28 5.536-.364 1.577-3.152 5.664-4.006 7.486-1.012 2.16-2.387 7.738-4.078 8.593-.804.406-1.561.231-2.142.421.696 2.37.272 5.205-.902 7.434-.415.788-1.432 1.29-1.904 2.12-1.151 2.027-.473 4.568-4.092 4.824 3.649 3.306.708 5.058-.285 8.044-1.039 3.122-.883 8.996-5.465 7.474l1.72.57c.791 1.632-2.773 8.04-5.17 6.903l1.723 1.43c-2.461.671-5.931 9.305-4.016 10.636 4.21-.322 2.904-4.367 3.695-6.934.631-2.047 3.74-4.868 6.069-4.56.262.255-1.926 4.448.854 4.592 1.866-3.558 7.398-5.138 8.545-8.708 1.156-3.595 1.11-3.082 2.594-6.03 1.276-2.531 1.914-7.192 5.262-6.53.724-1.59-1.149-1.757-1.19-2.07-.337-2.62 3.935-3.468 4.925-5.972 1.36 2.811-.672 4.361-1.576 6.472-.456 1.067-.25 2.464-.738 3.285-.198.334-3.423 2.669-3.567 3.028-.39.978.021 2.086-.46 3.293-.711 1.782-8.102 11.586-9.807 13.763-1.575 2.01-4.664 3.802-5.695 5.227-1.43 1.975-.28 4.078-4.29 3.473.528 5.715-7.226 6.634-5.2 12.044 2.556-.335 4.173-2.342 7.043-2.166 3.275.201 11.339.998 14.388 1.714 1.82.428 4.515 2.168 6.585 2.614 1.428.307 3.862-.22 4.777.396.609.41.795 2.494 1.677 3.497 2.392 2.723 7.1 1.46 4.272 7.102-1.996 3.983-4.134 4.069-7.323 5.898-1.327.761-3.506 3.938-4.964 1.923.872-1.516 2.596-1.22 3.756-1.982.951-.627 1.397-2.102 2.272-2.902 1.666-1.523 4.757-1.697 3.19-4.34-1.862-3.137-2.652-.861-3.764-.833-.865.023-2.063-1.297-2.882-1.714-.33 1.722-2.514 2.833-2.903 3.441-.412.644.43 1.77.102 2.884-.062.213-2.135 3.641-2.28 3.81-1.65 1.925-4.404 1.726-6.123 3.363 1.374 1.297 6.367-2 6.893-1.437.163.174.039 1.847-.264 2.317-.472.734-5.173 1.591-6.354 1.695-2.616.229-7.813.598-10.278.526-1.603-.047-3.71-1.164-5.266-1.117-1.62.049-2.831 1.634-4.612 1.712-3.454.15-7.472-1.733-11.166.62-.18 1.585 1.647 2.101 2.871 2.3.285 2.027-1.834 1.342-2.708 1.887-.328.205-.45 1.046-.778 1.203-2.217 1.062-4.46 1.564-6.858.928 2.224 5.062.395 3.315-2.474 4.007-.348.083-1.324 2.425-4.176 2.255-.227-.013-4.022-1.639-4.174-1.809-.306-.342.193-1.37-.416-1.622-4.043-.862-10.977 5.049-13.493 7.946-.848.977-.46 2.591-2.596 3.007-1.1.215-6.48-.333-6.572-1.42 1.652-3.524 2.086-5.552 5.575-7.632.848-.505 2.212-.429 3.004-1.02.872-.65.889-2.097 2.108-3.066 2.261-1.796 6.708-1.707 9-3.073.735-.438 1.191-.577.985-1.594-7.03-2.379-14.27-.31-21.479-.502l-.844.88-1.189 6.284c-5.484 2.701-9.63 1.535-14.107-2.063-1.315 1.138-1.341 3.047-3.005 3.975-1.583.883-6.384-1.419-5.394 2.54.112.45 2.352.986 1.757 2.678 1.056.282 1.404-.863 2.142-1.062 1.97-.528 6.298 3.777 8.091 4.889 4.048 2.51 8.834 4.26 12.183 7.662-2.651.78-3.765-1.874-5.2-2.555-1.273-.604-3.043-.43-4.574-1.174-3.314-1.61-9.333-6.444-12.443-6.58-1.3-.057-2.364.597-3.368.546-5.336-.27-13.503-1.904-18.355-1.693-2.049.089-6.236 2.464-8.06 2.26-.762-.085-1.344-.868-1.93-.974-1.488-.267-8.519-1.973-8.975-1.923-.505.056-.488 1.214-.905 1.494-.813.546-1.837-.322-2.337-.034-.583.336-.72 2.173-1.954 2.026-2.117-.921-7.958-2.357-4.66-5.219.246-.212 5.558-2.638 5.9-2.717 3.412-.789 6.793.985 10.203.42 1.686-.279 2.413-1.51 3.767-1.977 3.097-1.07 7.298-2.693 10.494-1.87 1.747.45 4.355 3.686 2.152-1.286 1.828.144 3.054-1.625 4.58-2.039 1.862-.504 3.586-.026 5.356-.393 1.227-.254 2.27-1.458 3.627-1.59 4.022-.395 5.08 2.589 10.205-.675 3.359-2.139 6.603-5.37 11.045-6.196 2.371-.441 4.208.466 6.233.482 4.927.04 8.503.434 13.295.677 8.465.43 17.394-1.269 25.821-1.206.384.002.076 1.153 1.166 1.231 1.154.083 2.32-.498 3.378-.427 7.014.474 13.977 1.495 21.078.93.174-1.205.078-.936-.724-1.285-1.705-.74-2.562-.693-4.398-1.923-1.3-.87-7.032-5.683-7.573-6.807-.892-1.851.764-5.725 2.12-6.03 2.401-.542 4.99 3.61 6.53 4.873 2.042 1.675 8.03 5.827 10.203 6.456.737.213 4.37.314 4.686.03.15-.137 1.757-3.454 1.797-3.653.973-4.825-.547-4.41-2.678-6.792-.397-.444-.283-1.481-1.005-2.145-2.083-1.911-6.309-.65-8.687-1.102-1.427-.27-1.185-1.59-1.82-1.751-1.382-.352-3.917.19-5.625.003-3.406-.373-5.12-2.09-8.34.317-2.586 1.931-6.678 4.641-10.206 5.31-1.888.358-3.495-.477-4.395-.31-1.007.186-1.851 2.416-2.925 2.166-1.483-.96-1.755-3.772-.724-5.024.885-1.075 9.46-2.945 2.179-4.495-4.254-.906-9-1.101-13.252-1.982l-.017 1.714c-1.742 1.655-6.53-5.428-6.313-.56-1.2.394-1.958-.868-2.735-1.02-.842-.164-3.327-.658-3.918-.73-1.21-.144-3.642 2.154-5.99.594l1.721-.575c-1.576-3.434-3.74-.13-6.033.058-2.135.175-3.038-1.327-4.888-.625l.045-1.97.81-.71c3.038.697 6.844-.072 9.748.409 1.492.247 2.291 1.457 3.007 1.584.793.14 2.23-1.22 3.926-1.1 1.77.126 2.747.497 5.196.608 5.376.244 10.659 1.504 16.064 1.168 3.96-.247 8.016-1.272 12.09-1.183 3.04.067 5.61 1.952 8.9 1.19.3-.269-3.35-6.727-4.572-6.355-.211-1.038 1.122-1.64 1.125-2.545.004-1.265-3.188-5.498-3.336-6.434-.094-.59 1.362-4.381.46-5.932.919.302 4.646-.785 5.045-1.278.373-.46.12-2.036.747-2.993.803-1.224 3.285-1.127 4.875-2.598.648-.6 2.153-2.784 2.678-3.646 1.156-1.898 1.215-5.363 3.903-5.585l.008 1.73c.671.843 1.86-4.372 1.72-5.172l-1.72-.856 3.439-2.012-1.17-.368c-.581-2.206 2.976-8.176 3.976-10.347.605-1.312 2.713-7.089 3.094-7.543.425-.505 1.515-.51 2.154-.719m148.322-164.97c-2.464-.38-.408 3.352-.56 4.597 2.352.4.735-3.418.56-4.597m-148.035 2.872v.575q.561-.288 0-.575m150.34 4.02c-.009-2.107-1.71-2.107-1.719 0zm1.725 2.884h-1.144v.563h1.144zm6.9 14.942h-1.145v1.144h1.144zm18.112 16.092v.575q.561-.288 0-.575m4.31 12.074h-1.145v1.144h1.144zm2.873-.006c-1.451-1.767-1.291 4.276-1.163 4.907.291 1.434 1.38 1.172 1.609 1.514.117.177-.413.959-.134 1.568.534 1.164 1.239 2.296 1.701 3.508 1.154-.751.488-1.151.352-2.027-.506-3.244-2.51-6.078-2.365-9.47m-11.207 4.602v.574q.56-.287 0-.574m-154.37 3.445-.003-.85-1.139-.87-.002 1.72zm170.174-.574v-1.144h-.563v1.144zm-163.85 5.179-1.722.003.581 1.718 1.14-.003zm5.174 18.972h-2.869v.563h2.869zm-28.746 7.47h-1.144l.002.85.86.868zm41.397 10.912c-.589-1.726-1.782-1.023-1.719.58zm1.446 1.159c-2.248.494.842 4.2 1.423 2.003.219-.827-.355-2.238-1.423-2.003m-170.481 6.892.573-1.98c-1.77-2.044-2.735-.033-1.708 1.98zm320.24-2.866c-2.023-.056-2.411 2.49-2.296 4.015 2.312.096 1.441-2.674 2.296-4.015m-320.81 6.32c-2.885.13-1.24 2.933-1.142 4.597.716-.063 1.203.521.987-.735-.274-1.596-.175-2.293.154-3.862m275.388 4.024-1.144.282 1.142.865zm-91.985 4.015-1.437-1.707-.857.86-.002.85zm2.588-.569v.575q.56-.288 0-.575m-.288 3.443-1.144-1.144-.003 1.147zm.572 1.733-1.144.282 1.141.865zm5.465 5.17v.576q.56-.288 0-.575m108.37.579-10.947 2.557c-.732 3.266-3.362 3.674-1.12 6.926.9 1.304 2.296 2.422 3.973 1.957.58-3.23 4.693-4.54 7.427-5.79zm-34.495 9.2h-1.144v.563h1.144zm-62.377 3.443v.574q.561-.287 0-.574m6.609 6.9h-1.144l.003.85.86.869zm189.567 21.434c-.942-.749-2.795-.912-4.172-1.872-1.497-1.042-8.194-6.701-8.73-6.84-1.21-.31-2.266.566-3.32.497-3.301-.214-6.117-2.196-9.488-1.145 1.706 4.127 6.022 1.99 8.076 2.534.29.076 4.934 2.716 5.16 2.912.835.728.323 1.96.669 2.483.187.282 2.68.862 3.53 1.364 1.528.901 5.303 3.435 6.443 4.456 1.294 1.16 1.435 4.124 2.553 5.515.791.985 2.393 1.356 3.265 2.2 1.095 1.058 1.475 2.854 2.118 3.628 1.05 1.265 3.683 2.315 3.842 4.789l1.142-.285c-.058-2.903.671-5.88-1.763-8.02-.635-.558-2.033-.75-2.176-.974-.541-.843.364-3.579-.177-4.426-.162-.254-1.594-.41-2.2-.954-1.045-.937-3.394-4.766-4.772-5.862M532.96 239.875c1.458-.71 1.266-2.992 2.878-3.726 2.488-1.133 5.833 1.991 7.422-2.804-.063-.362-4.391-4.66-5.107-5.278-.887-.766-2.417-.966-2.95-1.648-.995-1.272-1.102-4.331-4.183-4.898-3.023 3.21-7.367 4.456-7.86 9.432 2.112.184 2.195 1.664 3.084 2.408 2.164 1.811 5.714 3.678 6.716 6.514m95.425-13.222v-1.144h-.564v1.144zm35.073 33.332c.81-.885-4.288-7.172-5.085-8.412-1.692-2.632-5.329-7.525-5.738-10.412-.182-1.284.723-2.111-.04-3.307-3.49-5.47-6.446-3.485-11.24-4.904-2.443-.723-4.034-2.91-6.637-2.844-1.293 4.974 1.612 4.302 2.99 7.062 1.167 2.341.266 3.838.699 5.576.244.984 2.964 7.44 3.476 8.072 2.683 3.303 6.124 2.996 9.142 4.656 2.305 1.268 2.774 4.099 5.534 5.385 3.882 1.81 3.565-.084 6.9-.872M515.993 231.83v.575q.56-.288 0-.575m112.388 1.152-1.14.003.58 2.296 1.142-.006zm8.053 8.619c-.343-.299-2.11.101-2.212.844l3.08 8.917c.923-.745 1.456-1.31 1.474-2.553.007-.54-2.056-6.96-2.342-7.208m-5.176 8.048c.904-3.004.516-4.482-2.302-6.043l-3.431 2.308c2.025 2.511 1.817 3.81 5.733 3.735m1.726.572v-1.144h-.563v1.144zm4.028 27.016-2.55-23.024c-.172-1.761-6.371-3.946-7.171-3.364-.285 4.238-6.7 1.545-5.467 6.86l-.702.502-5.951-1.092c.128 2.524-.431 4.98-3.287 5.63-1.863.424-10.506.415-12.492.086-1.778-.296-4.67-1.922-5.784-3.403-1.424 2.821-2.757 1.77-4.889 3.164 1 3.492 4.707 8.212 7.903 9.906 4.198 2.226 5.062.446 8.28 4.963.413.579 1.36.814 1.5 1.055.327.561.26 5.414.177 6.51-.093 1.223-1.171 2.106-1.075 2.726.032.201 1.228 3.676 1.328 3.853.645 1.134 2.809.853 3.717 1.458.794.529.97 2.05 1.73 2.868 2.283 2.453 3.993 2.44 7.128 2.521l.848-1.297c-.042-1.767-5.781-4.033-7.38-4.72-.886-.381-1.425.101-1.154-1.4l3.758 1.156 1.334-.965c-.638-6.796-1.254-13.145.221-19.883 1.298-5.933 4.777-11.869 10.983-6.667 1.197 1.004 5.53 6.287 6.165 7.632.82 1.734.327 4.823 2.83 4.925m.574-25.286h-1.143v1.144h1.143zm-97.162 2.299c-4.919 1.31-12.177 5.027-15.196 9.231-.472.658-3.765 6.199-3.76 6.577.025 1.84 3.042-.917 3.493-1.096 2.806-1.111 5.867-2.04 8.57-3.008 2.438-.873 1.669-.482 3.697-.884.328-.065 4.756-4.052 4.966-4.311.936-1.15.324-3.054 3.411-2.49 1.378-1.155-4.203-2.732-5.138-2.369zm74.171 2.294c2.876.217 2.876-1.935 0-1.719zm30.987.086c-1.66-.497-2.418-2.628-3.995-.855l1.184 13.991c1.864-.755.748-3.063 1.434-4.593.539-1.201 2.537-1.223 1.782-3.469-.712-2.115-1.938-1.738-.405-5.074m-122.406 5.093h-1.144v1.144h1.144zm225.661-.003v.575q.561-.287 0-.575m-87.105 17.256c-3.855-1.017-5.207-4.614-8.332-6.356-2.82 2.875-10.99 5.19-11.662 9.074-.63 3.646 1.482 4.968 2.032 7.486.24 1.099-.292 2.561.204 4.372 2.035 7.433 5.477 14.519 6.884 22.162 2.444.734 1.478-1.275 2.38-2.131.748-.71 2.524-.415 3.32-.998.56-.412.676-1.605 1.144-2.298.378-.56 1.3-1.03 1.487-1.43.2-.43-2.662-4.947-.574-9.154.953-1.918.984-1.96 1.772-3.929 1.026-2.565 4.437-6.901-1.259-7.081-2.854-.09-3.925 3.539-6.78 1.68-3.664-2.384 1.75-5.712 2.139-8.597l6.92-1.628zm-69.565-4.613c-1.87-.206-3.416 1.213-5.039 1.573-3.851.853-7.663.342-11.266 1.04-.603.117-1.312-.342-1.514.834 2.538-.672 4.367 1.695 6.591 1.743 3.195.068 8.023-2.197 11.804-1.166zm25.587 3.452v.575q.561-.287 0-.575m48.004 2.296-.003-.85c-.605-.903-1.232-1.002-2.291-.868l-.001 1.719zm-75.308 2.316c-.13 1.072 1.052 1.636 1.161 2.604.21 1.868-3.205 4.511.838 4.901 5.644.545 5.503-7.166 1.743-9.712zm-3.457 10.905c-.874-3.085-.52-4.375 2.292-6.032-2.543-2.228-5.702-4.343-9.212-3.478l-1.03 4.237zm-8.624-7.464h-2.294v.564h2.294zm62.091 1.142c-.75-.92-1.046.064-1.147.854-.316 2.475-.226 7.79.01 10.347.199 2.132 1.281 4.192 1.5 5.856.558 4.225-.135 8.934 2.239 12.847l3.035-2.455c-.95-4.273-.747-8.968-1.763-13.21-1.069-4.46-3.886-9.273-3.874-14.24m29.74 19.953c.53-.44.62-1.785 1.7-2.057 1.215-.306 5.143 1.985 4.563-1.246-.883-4.909-8.312-2.014-11.864-2.587-1.17.796.014 2.037-.088 2.911-.124 1.067-1.36 2.96-.495 3.453 1.637.452 4.866.621 6.184-.474m6.347 5.464c-.794.11-2.989.727-2.723 1.865 1.102.665 1.961 3.036 2.852 3.48 4.57 2.275 5.158-6.077-.13-5.345m-50.897 19.546c.4-.188 3.762 1.254 3.313-.979-.181-.9-2.41-1.399-3.125-2.054-.927-.85-4.47-8.448-4.683-9.7-.271-1.6 1.33-3.42-1.82-3.966-4.02-.697-5.066 2.65-7.331 4.502-1.03.842-4.63 2.282-5.322 3.01-1.081 1.14-3.615 5.803-5.287 7.674-.54.605-1.683.751-1.746.824-1.101 1.28 1.436.863 1.14 1.71l-1.723-.282-.57 5.456c1.963-.879 3.641.616 5.324.463 2.602-.236 8.195-2.98 11.195-3.774 4.455-1.18 6.176-.78 10.635-2.884m21.135-15.642c-1.788-.429-1.463 2.461-1.719 3.443l1.72.006zm-18.975 2.293v-1.144h-.563v1.144zm-223.068-.569h-1.144l.002.85.86.869zm-55.193 8.617c-.507-2.034-1.021-5.199-3.304-5.645-.561-.11-7.69.348-8.464.49-2.4.44-2.115 2.667-2.03 4.584zm255.267-1.725c.148-1.072.002-1.989-1.141-2.296l-.003 2.296zm41.966-1.15v-1.143h-.563v1.144zm1.725 4.602c.062-1.026-.642-2.454-1.713-2.874-.21 1.294.511 2.41 1.713 2.874m-11.495 8.05h-1.72v1.144h1.72zm-39.095 2.877h-1.144v.564h1.144zm41.685 4.018v.575q.56-.287 0-.575m1.724 4.024v.575q.561-.288 0-.575m73.303 32.195-1.721-.002v1.143l.85-.002zm-36.798 16.667h-1.144l.003.851.86.868zm1.44 5.17v.576q.561-.288 0-.575"/><path d="M302.983 465.78c.64-1.4 1.348-4.812 2.546-5.79 1.886-1.542 7.423-.09 5.497-4.551 2.154-.02 5.61-2.247 7.474-.86l-2.847.877c.607 3.873-5.622 3.952-7.072 7.007-1.385 2.919.13 4.677 3.213 3.912.749-.185 1.29-3.212 1.872-3.999.772-1.044 3.261-2.234 4.241-3.254.582-.607 2.007-3.61 2.5-4.086 3.928-3.8 16.841-8.436 22.362-9.542 1.707-.342 2.088-2.205 4.195.732 2.533-4.596 3.893-2.035 6.878-2.3 2.906-.256 8.984-9.677 7.78-10.908-8.362 1.986-7.754-.788-7.47-8.048 1.707.648 8.828-2.563 6.9-4.599-1.543-.432-3.52.519-4.812.398-1.231-.116-2.848-1.497-4.599-1.373-1.11.08-2.15 1.058-3.496.964-1.183-.083-2.131-1.334-3.432-1.127-.917.283-.67 1.755-1.049 2.139-.484.492-2.09.242-2.61.852-1.399 1.641 1.062 3.133-3.898 4.43-4.896 1.282-7.7-1.112-12.568-.487-5.815.745-11.958 2.566-17.714 3.502-4.508.733-5.071 4.867-7.516 5.807-2.387.919-5.915-1.773-7.217 3.68-.232.59.362 1.099.868 1.244 2.31.665 6.86.448 9.401.66.93 7.165-4.932 7.237-10.504 6.191-1.924-.36-6.688-1.997-6.71-4.226l-1.758.34c.477-1.454-.743-3.648-.484-4.772.074-.321 3.467-4.875 3.953-5.269.666-.541 14.506-7.499 15.346-7.679 2.003-.43 6.776.749 7.82.42.794-.249 1.044-1.883 2.666-2.552.839-.346 2.819-.645 3.844-.808 4.837-.77 11.095-.443 15.974-1.173 1.511-.227 1.807-1.666 2.63-2.05 1.065-.497 3.201 1.269 4.308-.836l1.724 1.708.86-1.13-1.147-.575c1.97 1.067 2.182-.856 3.74-1.151 1.35-.256 2.923.174 4.464-.132 2.621-.52 6.825-3.853 10.16-3.952l-.264-3.398c-2.333 1.354-3.896 3.393-6.913 1.806-.33.018-1.096 4.464-4.278 1.365 1.623-4.35 5.17-4.137 8.325-6.612 1.189-2.444-1.906-7.264.581-9.768l5.188 9.215 1.983-.03.585 4.03c4.04-.102 5.051-3.794 9.766-1.723.075-4.79 3.465-3.07 6.478-4.624.515-.266.643-1.86 2.725-1.131-1.334-2.318-2.767-4.763-4.885-6.312.546-1.92-5.597-11.47-6.324-11.492l-2.599 3.144c2.246 3.152 3.666 12.817-1.704 12.937-1.072-4.19-3.23-8.39-2.306-12.64l-2.31.001.009-4.604c-4.676 1.02-4.255-.957-6.364-2.548-3.823-2.882-9.954-1.493-14.631-1.027-1.834.183-2.806.536-4.044.681a931 931 0 0 0-13.827 1.719l-1.1-.541-.018-1.754c.85-1.18 7.595-.925 9.218-1.131 8.022-1.02 15.855-2.094 23.818-2.014.697.007 1.311.818 1.958.751 1.088-.113 2.066-1.555 3.833-.458.77-.863-2.52-6.168 1.7-7.804 2.18-.845 1.533.547 2.144.906 2.287 1.346 3.976-.063 6.13.043 2.343.116 6.154 1.686 8.17 1.606 3.064-.122 7.347-3.844 11.178-1.644l.008-1.733c2.264 1.054 5.206-.684 7.512-1.433l-.06-3.718c-1.697.62-3.218-1.042-4.263-1.107-1.908-.12-5 .892-7.544.56-1.024-.133-.75-1.032-1.258-1.153-3.537-.84-7.189-.559-10.8-.644-9.131-.215-20.832-2.377-29.289-1.688-4.14.338-8.728 2.824-12.601.603-2.148 4.06-4.074 2.787-7.383 3.56-3.481.811-7.5 1.556-10.81 2.413-3.42.886-4.822 3.04-8.023 3.768.167 3.232 3.613-.188 4.914 2.888.595 1.408-1.797 2.81-.018 3.423 1.226.423.91-1.783 2.407-2.221 4-1.172 3.45 4.787 3.698 5.056.128.14 2.703-.067 2.22 2.341l-12.966-2.34-6.008 1.194c-.668 3.221 1.51 3.62 3.585 5.17.574.427.809 1.549 1.364 1.705 1.136.318 1.872-1.071 2.812-1.113 1.284-.057 2.228 1.552 3.497 1.716 1.718.221 4.505-1.19 6.566-.578.233 1.22-.57 1.34-1.399 1.758-12.353 6.214-21.453 1.266-29.057-8.958-.797-1.073-.4-2.264-2.014-2.585-4.374-.872-12.728 1.863-16.602 4.115-3.348 1.946-7.759 8.282-11.841 4.205-.354-.354-1.737-3.006-1.68-3.342.055-.33 2.949-4.184 3.509-5.7.503-1.36.275-2.763.717-3.88 1.114-2.816 4.233-7.506 4.348-10.02.033-.722-.632-1.705-.505-2.276.198-.889 2.529-1.381 3.379-2.327 1.727-1.921 2.164-6.864 6.151-7.683 1.844-.378 5.614.828 5.369 3.054-.134 1.217-5.314 4.337-5.83 6.293-4.49 1.577-3.184 3.134-4.144 6.204-1.54 4.921-6.93 11.696 1.602 11.4 4.295-.148 5.706-2.204 8.768-3.331 4.559-1.679 11.003-1.906 13.135-7.021 1.818-.274 2.738 1.8 4.485 1.704 1.639-.09 3.465-2.048 5.76-1.735 1.372.187 2.264 1.921 4.042 1.744 2.157-.214 1.761-2.515 2.111-2.808s2.018.061 2.935-.228c4.396-1.385 11.624-5.258 16.214-5.044.246.011.473 1.896 2.046 1.165l.375-1.74c4.353-.814 8.818-2.229 13.207-2.788 1.612-.205 4.821-.696 6.228-.665 1.847.04 3.906 1.403 5.73 1.167 1.346-.175 2.544-1.676 4.665-1.744 3.925-.125 8.726 1.88 13.811 1.205 2.067-.275 2.927-2.128 4.838-2.635 3.458-.918 10.696.192 13.537 2.596l.56.015.298-1.155.935 1.174c1.351.179 4.286-.379 4.247-2.026-.015-.623-.774-1.138-.887-1.751-.348-1.894-.586-1.834-.664-2.119-.231-.84.742-1.719-.782-3.024l-8.039-2.39c-3.5-4.436-10.373-2.09-13.212-7.68l13.544 1.664c1.755-.917 2.304-1.5 4 .022 1.531-2.715 6.932-4.42 9.168-1.668 2.224 2.738 1.086 6.3 6.63 5.146l-1.082-2.666.524-1.054c3.942-1.488 7.441-3.278 7.52 2.515l15.804 4.635c-.634 2.832-.971 7.637-2.952 9.77-1.295 1.395-3.655 1.223-5.164 2.308-1.398 1.006-1.408 2.482-2.176 3.29-4.728 4.977-10.523 3.409-16.054 5.364-.65.23-.718 1.335-1.723 1.854-3.245 1.677-7.04.908-9.264 1.669-.87.298-1.107 1.833-2.232 2.367-1.349.64-2.802.19-4.051.548-1.204.346-3.349 2.114-4.357 1.508l-.949-1.628-1.184 2.333-8.878-.625.574-1.715c-3.002-.174-5.605 3.458-5.178 6.319l-2.283-.288c.798.203 2.717 2.06 3.133 2.072 2.433.074 5.636-1.705 7.49-1.712 2.188-.009 7.536 2.206 7.774 4.821.081.896-.632 1.875-.577 2.841.234 4.11 3.624 13.848 6.056 17.537.807 1.224 2.307.683 1.984 2.312-.98-.294-2.036.906-2.602.932-.559.025-5.958-2.62-5.14-.362.113.315.81.59.749 1.346-.016.202-1.25 3.652-1.362 3.82-.525.794-2.063.981-2.875 1.725-.924.848-1.202 2.19-1.978 3.196-.54.702-1.957.913-2.256 1.8-.902 2.686 4.515 4.172 5.43 7.06 1.039 3.277-1.43 4.84-.32 8.08-.67-.124-1.353-2.153-1.548-2.755-.315-.969.01-2.008-.482-2.99-.082-.162-2.535-2.35-2.7-2.437-1.05-.547-3.296-1.08-4.415-.725-3.9 1.233-3.129 3.713-4.729 6.24-1.959 3.094-2.787 3.95-4.576 7.497-.688 1.365-1.76 2.162-2.247 3.501 1.547.445 6.775-3.202 7.78-4.29.995-1.079 1.153-3.059 1.543-3.351.598-.448 5.395-1.234 5.634.188.047 1.588-2.118 2.478-2.56 3.172-.432.676-.126 1.759-.445 2.15-.167.204-3.735 2.536-4.338 2.83-4.28 2.093-7.617 2.313-11.635 3.282-.356.086-6.042 3.264-6.335 3.484-.712.537-.376 1.949-1.147 2.877-.403.485-2.778 2.76-3.475 3.425-1.26 1.2-3.458.694-2.842 3.77-1.783.17-1.807-1.55-1.725-2.877-3.144-.197-4.488 2.837-5.746 5.171 3.704-1.273 10.214-2.041 9.173 3.709-.81 4.473-3.54 7.274-4.87 11.245-.246.735.331 1.546.013 2.275-1.056 2.423-5.839 3.288-5.133 6.362l-1.973.638-.345 2.843-3.185 1.397 1.173 1.172c-.937 5.329 1.689 11.351 1.985 16.925 5.006 3.847 14.78 9.004 17.527.277.654-2.078-3.062.1-3.471.04-4.098-.606-5.45-6.483-7.042-9.345-.21-.377-1.351-.516-1.821-1.328-.541-.932-1.73-5.439-1.184-6.309.152-.242 4.077-3.612 4.338-3.73 1.627-.738 3.973-.11 5.741-.301.112 1.62-.454 3.555.529 4.93 1.62 2.267 4.43.666 4.633.816.091.068.163 1.483.753 2.142.818.915 3.151 2.065 4.14 3.04.719.71 4.431 4.315 4.601 4.596.825 1.365-.375 4.02.853 4.896.5.357 1.634.207 2.272.602 1.278.792 4.905 3.855 6.205 4.193 1.129.293 2.327-.536 3.741-.394 2.499.25 8.839 3.53 11.1 3.7.472.036 1.11-.695 2.04-.646 2.183.114 4.156 1.348 6.279 1.723 1.419 1.004-.145 3.068-.005 3.164 4.71-.585 4.372 2.645 5.745 5.488.939 1.946 3.814 3.312 5.186 5.144.822 1.098.883 2.326 1.472 3.127.807 1.095 3.294 1.572 3.116 3.489l-3.791-1.126.111-2.335c-1.3-.662-2.553-1.153-3.738-2.047-2.338-1.763-4.675-4.068-6.663-5.975-.71-.043-2.423 8.674-3.072 10.109-.482 1.064-1.46.594-1.236 1.654 1.279 1.656 3.392 2.193 5.309 2.745 3.275.943 6.04 1.086 9.323 1.89 1.66.407 5.463-1.068 7.208-1.461.326 2.01-1.778 2.745-2.455 4.438l-14.545 1.924c-1.092.005-.739-1.852-2.532-1.19l-.946 2.226c-2.432.288-4.91-.151-7.34.135-2.45.29-4.368 1.67-6.523 2.1-5.813 1.163-20.35 1.821-24.271 4.473-1.087.736-2.393 3.037-2.745 3.137-2.895.82-6.635.77-9.508 1.283-1.787.32-3.609 1.867-4.864 2.06-1.705.262-4.141-1.797-6.48-.47l-.292-1.736c-1.968-.185-3.073 1.297-5.1 1.144-2.012-.151-3.147-1.73-4.361-2.041-.966-.248-1.779.41-2.58.311-4.605-.566-15.423-8.71-21.548-10.08-1.671-.373-3.404.029-4.81-.365-1.184-.332-2.764-2.542-4.963-3.084-3.631-.896-6.534.027-9.5-.22-8.074-.675-18.47-2.114-24.413-7.862-.625-.605-.682-2.248-1.786-1.063l.584 2.574c-2.585.395-4.939-2.045-4.601-4.599l-2.292.582c-.013-.565.216-1.383-.345-1.787-1.09-.784-4.552-1.579-6.268-2.818-.8-.577-3.185-2.938-3.747-3.726-1.873-2.623-4.312-8.093-3.687-11.232-1.09-1.524-4.1.295-4.937-.226-.825-.514-1.012-2.82-1.955-3.832-.908-.976-2.44-1.033-2.556-1.173-.407-.491.238-2.042-.165-2.72-.206-.347-2.343-.356-2.738-1.619l.519-3.632c-5.386 1.214-8.813-3.866-13.957-2.747-3.804.828-5.458 2.364-10.361.906-1.151-.343-1.31-1.963-3.53-1.631-1.34.2-6.877 5.455-7.06 6.712-.274 1.883 1.682 3.543-1.673 5.298-5.645 2.953-4.526-5.361-7.122-6.513-2.511-1.114-5.401.638-8.035.268-.06-2.627 4.042-1.931 5.173-2.582.714-.41.817-2.072 2.116-2.478 2.008-.627 4.835.61 5.907.183 2.686-1.072 6.68-6.766 10.175-8.251 1.883-.8 2.959-.363 4.388-.786 1.13-.336 1.753-2 3.624-2.175 3.703-.344 8.116 2.14 10.333 2.283 2.631.169 9.276-3.05 11.942-2.203 3.43 1.089-3.172 3.968-1.28 6.185l5.402 2.36c1.318.16.653-.24.86-.863.709-2.136 1.302-5.358 3.867-5.926 3.817-.845 5.131 2.51 8.497 2.79 2.108.175 9.887-1.111 10.958-2.91.477-.802-.54-1.977-.331-2.287.298-.442 9.006-2.34 10.342-2.606 2.166-3.363 5.647-3.237 8.58-4.642 1.707-.818 3.204-2.978 4.624-3.425 2.03-.639 4.171.195 6.212-.686 1.518-.655 2.037-2.538 3.307-3.592 4.158-3.45 5.635-2.867 10.195-4.177 3.597-1.034 6.072-3.183 10.21-1.567-.683-1.726 1.002-2.548 1.154-2.879-.076.164-.174 1.22.29 1.153 2.204.517 3.71-2.026 3.731-4.024-.9-.869-3.74 2.266-4.021 2.871m122.95-116.606c-2.734-2.033-5.275.515-7.092.545-1.296.02-2.482-1.045-4.017-1.22-1.919-.219-8.753-.476-9.412 1.547l-.71 6.126c.194.983 5.871 2.245 4.668 4.625-.362 1.348-5.652.252-5.197 2.368 1.732 2.236 3.732 3.024 6.575 2.568.49-.079 8.562-3.966 8.936-4.292.928-.807.541-3.391 1.476-4.847 1.59-2.478 6.487-2.3 4.773-7.42m-125.252 24.632c2.45.247 4.161.175 4.603-2.572-.38-1.973-5.902 1.246-4.603 2.572m84.804-1.147v.575q.56-.288 0-.575m-16.673.575v.575q.56-.288 0-.575m14.09 35.637c.639-2.777-2.207-4.488-4.6-3.152-.633.353-1.73 2.75-2.507 3.525-1.717 1.714-9.714 6.679-10.022 7.213-1.08 1.872.87 3.199 2.729 2.498l11.531-9.787zm-18.405 19.548-5.168 1.715c2.077-.16 2.03.661 2.58 2.303.815-1.424 2.954-2.245 2.588-4.018m.865-.003v.575q.561-.288 0-.575m-66.691.575v.575q.56-.287 0-.575m-7.19 7.478h-1.144v.564h1.144zm66.692 6.898h-1.144v.563h1.144zm-25.297 11.494c-2.658-.422-10.054 2.408-11.523 4.305-.42.543-.39 1.491-.697 1.857-.708.844-2.594.056-2.147 1.88 5.223.071 9.094-3.917 13.227-6.622.673-.44 1.481.14 1.14-1.42m-1.149 7.475c-1.537-2.168-13.757 5.391-15.19 8.086-1.775 3.338-.321 5.816-.31 8.84.008 2.26-.453 4.398-.48 6.349-.024 1.73.997 4.281.467 6.204-.127.462-3.174 1.853-3.776 3.823-.52 1.7-.18 3.484-.254 5.208-2.621.86-4.086-1.384-6.066-1.7-1.712-.275-3.504.051-5.464-.286-2.745-.472-11.535-4.777-13.039-3.027-.158.185-2.283 4.031-2.338 4.268-.232.995-.354 2.125.195 3.042 3.188 2.125 3.906 6.522 8.514 6.292 1.742-.087 3.844-1.536 5.148-1.533.749.002 7.41 2.498 7.745 2.84.688.703 1.874 5.513 1.28 6.767 3.102-.55 16.119-5.378 12.787 2.16-.117.266-3.738 4.051-3.986 4.2-2.15 1.297-14.918-.888-16.839-2.633-1.083-.983-.881-2.708-1.746-3.428-.689-.573-2.527-.664-3.737-1.437-3.982-2.545-9.302-8.077-12.971-11.173-1.542-1.3-3.859-1.285-4.035-4.063-.24-3.774 5.222-6.176 5.8-10.06-4.293-.225-8.423-1.099-12.275 1.228-2.816 1.7-6.594 5.685-10.4 4.59-1.332 2.752-1.605.652-3.354 1.145-.672.19-1.132 1.216-2 1.509-1.35.455-4.489.415-5.321 1-.289.204-3.12 4.45-4.272 5.496-1.754 1.593-8.542 5.86-9.255 7.463-.773 1.74 1.423 2.464.835 4.203l-2.234 1.81 1.125 1.736c-.742.94-2.142.427-1.71 2.005 2.923-1.88 5.02 5.1 6.33 6.027.879.623 3.812 1.304 5.102 2.37 1.13.936 2.396 3.7 3.914 4.135 2.352.674 6.888.28 9.525.824 3.067.632 6.99 2.923 10.474 3.324l.294-1.15c-4.753-1.92-9.3-4.355-13.972-6.457-3.437-1.546-3.853-1.515-7.576-2.184-1.336-.24-6.82-5.95-7.771-7.335-1.142-1.663-1.585-3.51-2.863-5.015.405-.54.748-.78 1.434-.888 5.392-.846 11.372 7.189 15.5 9.81 1.155.733 2.486.57 3.359 1.1.584.355.703 1.466 1.556 2.025 2.258 1.479 8.56 2.143 11.643 3.316 2.53.963 5.415 3.333 7.598 3.946 2.02.568 3.321-.24 5.498.197 2.505.501 7.7 4.107 9.553 4.247.711.053 1.392-.885 2.239-1.036 3.505-.625 13.539 3.117 18.339 3.46 4.842.347 17.337.652 21.733-.158 1.941-.357 2.49-1.544 3.74-2.008 5.45-2.024 14.48-2.417 18.948-5.199 1.295-.806 1.463-1.896 2.476-2.695 1.17-.924 3.366-1.16 3.87-1.593.601-.516.2-1.745 1.136-2.166 3.208-1.44 8.74-1.13 12.22-.567 1.694-2.93-1.51-3.926-1.672-4.97-.133-.852 2.303-2.22.284-3.708-1.457-1.073-8.644-1.047-11.218-2.576-1.486-.884-1.998-2.992-3.167-3.732-.866-.547-2.021-.42-2.613-.836-1.979-1.396-.07-5.434-6.064-.868-2.186 1.665-2.04 1.732-4.687 3.359-1.266.778-4.25 2.985-5.341 3.315-3.644 1.1-15.731-5.57-17.507-9.001-.825-1.594-.377-3.78-1.776-5.126-1.622-.306-.438 1.456-.93 2.215-.892 1.373-7.376 1.097-9.124.649 1.091-5.53 4.495-8.581 10.09-9.165l3.173-25.568c1.398-2.351.834-5.131 1.697-7.5.534-1.466 1.999-2.02 1.712-3.742M286.1 482.804c-1.108.735-5.36 3.964-5.973 4.145-1.207.356-3.106-.634-4.752.375l.296 1.435c3.212-3.03 3.61.835 4.65 1.07.865.196 4.002-.24 6.118.253 4.504 1.048 8.186 4.925 12.806 5.066 1.056.032 2.135-.63 2.91-.58.87.058 1.453 1.111 2.166 1.017.207-.027 3.223-1.903 3.558-2.204 2.863-2.574 1.192-4.86 1.441-8.339.313-4.358 3.278-10.264 2.21-14.301-.473-1.792-1.559.155-2.524.218-.894.06-1.81-.587-2.798-.526-4.678.292-4.482 2.33-7.3 4.78-.928.807-2.167 1.249-3.118 2.08-.536.47-2.417 3.144-2.713 3.283-1.033.485-3.276-.012-4.961.52-1.546.487-1.45 1.331-2.016 1.708m-56.71 12.869-1.719-.002v2.295l.851-.003c.903-.604 1.003-1.231.868-2.29m-21.847 2.302h-1.144v.563h1.144zm40.245 2.871-.85.003-.872 1.138 1.722.003zm-21.76 4.094c-1.706 2.82 4.792 4.048 6.501 3.926 1.276-.09 7.426-2.65 8.565-3.51 1.453-1.096 3.57-3.804.38-3.689-2.368.086-14.394 1.533-15.446 3.273m72.35 11.995c.157-1.025-.033-2.015-1.138-2.296-.234.748.861 2.89 1.138 2.296m90.266 12.645c.825-1.042-1.903-2.626-2.293-.85-.33 1.504 1.91 1.334 2.293.85m-10.923 1.734h-1.144v.563h1.144zm12.076 2.863-2.02-2.289-.851-.002c-.112 1.55 1.494 2.523 2.871 2.29m-135.682 3.449-1.144-1.144-.003 1.146zm3.444 3.451v-1.143h-.563v1.143zm100.407 3.627c.317.683.244 1.421.492 2.121l1.105.541c3.724-3.802 6.87-.69 11.412-3.55 1.574-.991.27-3.034-.728-3.59-3.23-1.801-9.646 3.267-13.223 2.58-.558 1.659.803 1.598.942 1.898m14.871-4.773v.574q.561-.287 0-.574m-21.562 4.026h-1.72v1.144h1.72zm47.718.578h-1.144v.563h1.144zm-50.303.569v.575q.561-.288 0-.575m-58.927 2.871c.33.33 1.71-.478 1.71-.86 0-1.59-2.578-.008-1.71.86m51.165 6.907c-4.765-1.551-7.402 1.569-12.387 1.164-1.912-.156-4.979-.468-6.745-.71-1-.136-2.185-1.46-3.572-1.04-1.264 3.082 2.182 1.942 3.887 2.437 8.016 2.328 8.878 2.864 16.966-.547.707-.298 1.695-.32 1.851-1.304m5.75.574-2.297-.002v1.143c1.073.149 1.99.002 2.297-1.14"/><path d="M133.953 374.392c1.023 1.506-1.63 2.338-2.036 2.85-1.631 2.05-4.658 7.624-6.276 8.671-4.373 2.832-5.548 3.522-9.325 7.627-.356.387-.27 1.455-.73 1.851-.95.821-2.047-1.029-2.912-.629-.674.312-1.948 2.201-2.89 2.878-2.857 2.056-8.041 4.184-10.34 6.903-.927 1.096-.855 2.554-1.267 3.046-.434.518-1.707.365-2.053.825-.555.741-1.333 7.595-2.115 9.11l-3.749-.023 2.303 1.15c-3.387 4.054 1.048 5.85 1.616 8.459.507 2.328-.972 5.118-.44 7.893.283 1.478 2.787 5.985 3.287 7.63.586 1.932.051 4.762.376 5.93.316 1.135 3.12 2.905 4.069 5.146 1.454 3.434 1.236 7.14 2.952 10.843 4.266 9.208 11.842 18.432 18.062 26.197 5.362 6.694 5.29 5.587 11.898 9.953 7.55 4.989 14.485 10.98 22.032 15.91 3.366 2.199 13.225 8.397 16.617 9.254 2.89.73 8.053-.035 10.405 1.667 1.73 1.251 1.979 3.26 3.01 4.756.931 1.348 4.02 1.655 1.079 5.063l2.192 2.284c-.825 1.7-8.806 1.813-10.52 1.434-.42-.093-.38-1.456-2.984-1.714-3.798-.377-1.097 2.161.345 3.677 2.04 2.144 8.497 6.837 9.762 8.64 1.53 2.184-.483 1.012 2.534 3.185 1.674 1.206 4.87 4.055 6.834 4.006 1.954-.05 16.17-6.113 17.303-7.452 2.695-3.188 2.298-16.87 3.79-21.45-2.079-.873-1.647-2.67-2.948-4.079-.613-.664-8.194-5.6-9.35-6.172-1.038-.513-4.208-1.881-5.169-1.66-.408.093-.593 1.432-2.2 1.966-.855.284-7.324.978-8.106.847-1.08-.18-2.373-1.493-3.889-1.056.475-1.432.335-4.182 1.73-4.88 2.509-1.256 3.707 1.055 3.477-4.044-.127-2.817-2.06-6.833 2.592-2.599.743.676 1.214 1.991 1.845 2.322 1.604.84 5.31.852 7.438 1.614 1.373.49 5.919 3.658 7.373 4.701 2.292 1.644 2.411 5.47 2.641 5.694.177.172 1.704-.023 2.854.88 1.065.835 1.185 2.345 1.852 3.04 1.83 1.908 4.824 3.116 5.447 6.347.541 2.807-1.016 3.36-1.018 4.459 0 .676 1.617 3.435 1.675 5.267.074 2.333-1.406 11.946-3.414 13.123-2.771.07-4.485 2.013-6.897 2.876-1.944.696-4.326.779-6.477 1.571-1.694.625-4.021 2.47-5.33 2.717-1.423.269-10.147-.594-11.488-1.118-1.985-.774-4.884-5.021-7.168-6.047l1.718-2.002-2.29 1.146c.22-3.108-2.652-2.786-4.325-4.016-3.979-2.926-2.071-2.61-7.303-4.77-3.977-1.643-7.446-4.145-11.775-4.902l-3.346 2.763-2.001-1.142 1.15 3.443c-2.177-.113-4.804 1.634-6.646 2.868-.581.39-.526 1.38-1.281 1.715-2.723 1.207-14.068 2.28-16.964 1.62-1.76-.399-2.427-2.11-3.257-2.426-.57-.218-1.355.352-2.28-.03-6.192-2.554-11.23-10.715-13.949-16.573-5.128-11.048-11.141-29.538-10.312-41.53.019-.274-.918-.206-1.253-.963-1.99-4.497-.4-5.994.75-10.206l-2.376-.334c-.672-1.783-.725-4.158-1.529-5.827-.76-1.576-3.663-3.93-4.53-5.518-1.391-2.552-2.812-7.742-3.94-10.73-2.003-5.316-2.856-9.667-3.596-15.374-.5-3.86-.519-7.767-.671-11.393-.205-4.854.559-8.416 1.607-13.065-1.616-1.07-2.705-4.028-3.666-5.002-.608-.615-7.554-2.173-3.146-4.32 4.68-2.28 7.66 4.59 12.07 3.73.109-3.183-2.173-1.98-.224-5.684 2.06-3.918 11.64-9.546 15.471-12.695 3.15-2.59 1.152-1.75 5.431-3.767 1.197-.564 1.623-2.448 2.662-3.087 1.022-.63 2.47-.397 2.98-.754.32-.223.634-1.905 1.548-2.769 1.58-1.495 5.82-2.792 7.174-4.321.9-1.017.753-2.51 1.762-3.412 1.001-.895 7.07-3.435 8.038-2.012m-45.504 51.237-2.198-.661-.632 1.962 1.113.392.074 1.083c-1.91.598-4.275 1.44-2.007 3.45l1.431-1.14c-1.743 3.926-.163 4.742.423 7.918 1.164 6.3 1.71 13.032 2.454 19.277 5.327 8.775 11.735 18.414 14.217 29.01 1.31 5.594.782 11.072 1.524 16.412.67 4.818 6.619 25.962 8.844 29.554 1.463 2.36 5.99 8.36 7.79 10.322.485.53 9.303 4.683 9.849 4.71 3.025.155 11.984-3.537 13.255-6.27 1.2-2.576-.678-2.907-1.284-4.452-.725-1.848-1.584-4.489-1.867-6.462 4.361 2.162 5.11 6.853 11.09 5.056.83-.25 1.185-1.361 2.422-1.6 1.352-.26 8.9-.111 9.477-.586-.952-1.242.11-3.977-.25-4.592-.522-.891-3.708-1.955-4.652-2.86-6.13-5.877-13.377-11.084-20.444-16.348-6.311-4.7-15.755-10.503-20.964-16.403-1.351-1.53-2.132-4.777-3.328-6.154-.693-.798-2.339-1.315-3.05-2.13-6.562-7.525-9.503-16.147-11.81-25.213-.946-3.721-5.307-7.818-6.076-10.073-1.037-3.043-3.804-13.06-4.161-16.006-.175-1.443.75-3.158.527-3.91-.218-.732-1.55-.696-1.699-1.324-.203-.863.331-2.294-.068-2.962M389.797 95.597c-.96.39-1.415.617-2.546.598-4.524-.076-9.994-1.246-14.425-1.218-2.54.016-5.45.906-8.008 1.184l-.614-2.297-9.723 2.239c-.594.413-.147 2.712-1.194 4.093-1.338 1.766-4.889 1.13-3.117 4.583 4.43-.898 7.954 3.968 12.616 4.316 1.295 2.23-2.225.696-3.439.558-.906-.102-2.017.424-2.54.26-.831-.26-.739-1.653-1.265-1.694-.517-.04-1.649.7-2.796.623-5.229-.352-8.193-4.12-11.582-4.624-4.295-.638-3.961 6.836-6.31 9.163-.81.803-2.003.887-2.396 1.345-2.745 3.204-6.377 6.66-9.03 10.222-1.718 2.307-3.344 6.192-5.269 8.528-4.77 5.788-8.918 10.332-12.411 17.481-3.096 6.336-4.803 13.534-5.508 20.367-.407 3.939.273 9.518-.148 13.066-.158 1.332-1.7 2.063-1.7 2.316 0 .208 1.536 1.069 1.731 2.33.222 1.437-.594 2.651-.533 3.932.192 4.088.718 11.545 1.205 15.453.219 1.756 1.904 5.227 2.268 7.23l3.308.017c1.905-6.71-.401-13.378-1.086-20.055 1.477-1.437 3.375 3.747 3.632 4.703 1.655 6.143-.369 11.017.473 16.776.587 4.016 2.096 8.248 2.917 12.594.353 1.868 1.983 7.47 2.071 8.855.087 1.364-.62.769-.02 4.049.61 3.33 1.3 6.117 1.994 9.5 1.447 7.048 4.269 8.479 10.252 11.592 3.636 1.893 8.285 3.003 11.65 6.17 1.348 1.268 3.264 5.109 4.271 5.648 4.157 2.226 8.503-2.174 12.487-2.18 3.617-.005 7.01 3.057 9.486 5.365l-2.297 1.435.876 1.148 3.147-1.149c-.294 4.606-3.844 3.62-6.314 5.464-1.134.846-1.35 2.525-2.723 3.027-1.145.419-11.09 1.457-8.784-1.02 1.625-.379 4.307-.742 5.705-1.483 1.904-1.01 4.011-5.62 6.947-4.845l-.07-1.946-.879-.846c-2.576-.376-5.4.221-7.94-.103-.876-.112-1.563-1.112-2.325-1.119-.462-.004-8.106 3.16-8.552 3.514-1.578 1.25-3.105 4.42-5.556 5.941-1.457.904-3.16.786-4.183 1.422-.877.544-.507 1.865-2.422 2.325-.45.108-2.722.425-2.569-.557 4.93-.574 4.376-4.885 5.742-8.627-1.507-.29-3 1.125-4.322 1.095-.981-.022-1.836-.952-2.89-1.073-5.228-.595-15.18-2.439-19.975-1.056-.817.236-4.833 3.07-6.525 3.823-4.662 2.074-6.291 2.947-11.251 1.177-.774-.277-.357-1.791-3.495-.971-1.431.374-2.016 1.547-3.145 2.025-2.116.896-5.368 2.512-7.205 3.162-1.143.405-2.322-.28-4.012.563-1.7.849-2.273 2.955-5.018 2.168l1.725-2.292-1.63-.063c-.288-.323.046-1.521-.381-2.251-.382-.652-1.805-.15-1.434-1.416 1.634-2.235 5.998-.806 7.487-1.715 1.577-.962-1.469-2.485-.06-4.642 1.483-2.272 3.748-.837 5.217-1.698.82-.48 1.759-3.19 3.621-3.904 1.253-.48 2.053.301 3.238-.107 2.075-.714 5.95-3.505 8.268-4.433 2.805-1.122 5.909-1.49 8.748-2.749 1.901-.843 3.575-2.664 5.58-3.095 1.844-.396 5.232.623 7.076-.04.262-.093 2.258-2.204 2.304-2.559.113-.873-1.508-3.66-1.87-5.126-.746-3.015-.378-5.643-.878-8.32-.745-3.985-3.966-9.166-4.906-13.49-.38-1.751.1-3.49-.403-5.344-1.26-4.643-5.656-8.95-6.941-13.749-.653-2.44-1.902-11.095-1.987-13.538-.071-2.015 1.43-3.748 0-6.218-.215-.37-1.156-.338-1.17-.72-.03-.846.929-2.387 1.002-3.56.163-2.63-.615-6.79-.422-9.038.106-1.237 1.64-1.647 1.748-2.883.079-.894-.606-1.883-.586-2.874.363-18.19 7.96-29.717 16.769-44.76.632-1.08 2.878-5.264 3.07-5.527.5-.682 1.883-.582 2.616-1.41.503-.568 5.78-7.904 5.995-8.376.812-1.783-.29-4.024.931-5.966.81-1.286 4.467-3.42 5.71-5.214.786-1.137.69-3.012 2.136-4.11l-1.01-9.994c-1.684.777-2.683-.477-4.293-.595-3.026-.22-9.215 1.425-9.551-1.983-.367-3.72 1.131-3.138 2.658-4.856 2.95-3.318 7.968-7.718 12.728-7.98.907-.05 1.802 1.456 3.054 1.045l.867-2.288c1.875.278 1.3 2.143 1.441 2.287.184.187 4.075-.876 5.173.006.13 1.53.045.943-.873 1.12-1.92.371-10.66.121-11.173.63-.125.124.038 1.523-.33 2.237-.79 1.536-3.888 2.834-3.72 5.201 2.108-.204 3.627-.111 4.886 1.726l1.63-1.66c.858.063 4.11 2.973 4.32 3.79.322 1.253-1.1 2.706-.947 4.343.246 2.65 4.06 4.463 3.352 7.876 2.118-.672 3.468.884 4.86 1.183 2.109.454-.317-2.66-.282-3.68.012-.35 1.287-5.115 1.467-5.499.171-.366 5.39-5.568 5.787-5.64.786-.142 2.112.679 3.097.443l-.575 2.29c2.114-.188 4.085.716 6.125.947.949.108 2.08-.527 3.308-.366 1.197.158 2.07 1.16 3.49 1.177 1.737.02 3.554-1.507 5.47-1.182l-1.719-2.586c1.899-.806 3.381.594 3.473 2.576l1.697.013.009-1.719c1.533-.403 2.495.754 3.784 1.09 3.941 1.027 4.862.448 8.282 2.929l-1.722.003c.085.511-.144 1.353-.002 1.721m-37.943 11.494c2.876.216 2.876-1.936 0-1.719zm-33.926 161.53-9.193-.576c-.52 2.278 2.002 2.113 2.622 3.983.375 1.132.261 2.323.253 3.484 1.79.404.849-1.368 1.679-2.623.53-.802 5.63-3.397 4.639-4.269m-19.54 5.752 1.153-1.453c-4.798-2.308-8.772 1.356-13.091 3.022-.868.335-2.071-.032-3.032.427-.398.19-3.066 3.378-4.608 4.035-.89.38-2.068-.73-2.846.575l1.718 1.423c-1.57.237-2.559 1.206-2.293 2.882.17.17 4.231-.466 4.778-.7.856-.365.891-1.35 1.39-1.612 3.626-1.9 7.655-3.385 11.371-5.145-1.61 3.182.162 1.626 1.544 1.86 1.181.2 2.65.802 3.732.813 2.326.023 5.397-2.424 8.231-1.539.485-1.951-1.23-1.998-2.35-3.11zm32.758-1.731c-1.584-1.623-1.84 5.273 1.156 4.019z"/><path d="M391.521 93.873c.97.703 2.65.914 2.298 2.29-1.19.462-3.444.938-4.022-.566.91-.37 1.964-.21 1.724-1.724M897.416 372.726c.16.151-.115 1.145.146 1.506.485.674 2.84.354 3.289 1.674.61 4.685-3.535 8.244-1.01 12.479.546.915 2.289 1.962 2.144 2.851-.083.51-.986 1.112-1.215 1.701-.497 1.28.081 3.129-1.586 2.717.375-4.024-4.295-5.28-6.04-8.614-1.604.05-4.725 12.793-4.885 14.93 2.04.59 2.674-2.166 4.267-2.25 1.074-.055 6.11.457 7.38.667 1.004.167 5.485 2.058 5.894 2.73 1.492 2.452-.783 7.133-.623 7.48.223.485 1.469 1.236 1.96 2.105 1.318 2.326 2.84 6.978 4.41 8.81.63.734 2.14.468 2.51 1.514.593 1.669-.123 6.786.08 9.117.659 7.563 3.148 15.745 4.443 23.15.47 2.688-.046 5.517.868 8.325.278.853 1.322 1.327 1.453 1.942.247 1.156-1.477 3.838-1.019 5.391l1.716-.574c.14 2.147.209 4.244.864 6.327 2.646 8.414 11.868 23.393 20.834 25.732 1.095.285 2.761-.151 3.487.253.353.197.922 2.354 2.226 2.683 1.87.471 1.53-1.462 2.316-1.668.567-.148 6.63.656 7.527.943 2.177.699 4.357 2.34 3.573 4.82-2.927.1-6.394-.495-9.04 1.014-.64.365-.98-.044-.74 1.28 2.32-.717 2.52 1.307 3.297 1.746 1.611.91 3.912 1.26 5.297 2.604 1.416 1.373 2.23 4.08 3.08 5.258.709.982 4.013 2.865 4.675 4.745.517 1.469-.662 6.647-1.414 8.333l2.89.891-1.173 2.85-3.953-1.79.525-2.213c-1.138.266-1.42.59-2.603.073-.934-.408-8.398-7.94-8.635-8.668-1.985-6.118-2.953-5.355-6.913-9.758-.693-.772-.874-2.318-1.37-2.654-.854-.578-2.931-.121-4.2-.4-5.772-1.263-4.87-3.41-7.895-7.051-4.562-5.49-5.869-6.12-8.77-13.074-1.743-4.175-3.664-7.488-4.702-11.375-.382-1.43-2.533-2.17-2.053-4 1.135-.028 2.048.456 1.725-1.146l-2.923-.94c1.372-3.206-.732-4.74-1.406-7.67-.424-1.843-1.174-4.937-1.358-6.687-.218-2.08.627-5.84.42-6.724-.21-.9-2.459-2.512-2.67-4.265-.137-1.152.569-2.353.443-3.827-.362-4.232-3.575-11.77-4.007-16.214-.111-1.142.598-2.211.446-3.261-.373-2.574-4.446-14.76-5.952-16.476-.556-.633-6.7-4.518-7.47-4.641-4.354-.695-10.291 5.52-12.173 9.052-2.081 3.905-1.718 8.354-2.689 12.255-.355 1.428-1.751 2.591-1.821 3.09-4.304 30.633-11.9 47.152-26.795 73.492-1.895 3.351-3.836 9.378-5.61 12.063-.316.48-3.656 2.957-4.308 3.02-.67.064-7.825-.789-8.54-.999-1.022-.299-1.82-2.113-3.217-2.275-.088-.155.502-3.055.675-3.492 1.077-2.718 5.736-11.092 7.88-12.813.419-.336 1.125-.556 1.167.018l-1.154 4.3c.49.46 6.896-3.364 7.758-4.02 8.035-6.114 11.83-19.723 15.695-28.569 2.258-5.168 3.021-5.266 4.165-11.356.21-1.123 1.432-1.908 1.12-3.187l-1.708-.285c2.317-1.767.996-4.461 1.253-6.199.427-2.892 4.878-9.182 4.96-10.57.049-.81-1.005-1.306-.96-2.108.057-1.033 1.488-1.891 1.87-2.732 3.552-7.82 1.801-13.807 5.417-21.025 3.697-7.381 2.976-9.126 4.83-16.44.931-3.67 6.25-18.633 8.19-21.126.893-1.148 4.015-4.13 5.435-2.795m-18.936 51.089-.003-1.147-1.14.865zm-1.725 9.203h-1.143v1.143h1.143z"/><path d="M807.778 424.987c1.948 3.212-1.921 6.04-1.558 9.968.124 1.34 1.882 4.477 1.96 5.694.118 1.841-1.197 4.002-1.409 5.45-.264 1.805.867 13.822 1.328 15.613 1.097 4.27 2.974 3.784 5.874 5.64 1.353.865 2.619 3.996 5.142 1.722 2.09-1.882-.942-8.247 5.322-6.747l-1.688-3.758c-4.077-3.457-8.93-5.889-14.413-5.723 3.336-1.392 6.872-1.805 10.38-.6 1.834.63 2.793 2.899 4.019 3.455 1.156.524 2.652-.012 3.432 1.181l-1.186 2.838c2.22 1.223 3.93 7.42 3.471 9.78-.394 2.03-2.764 2.768-4.043 4.032-.591.585-.18 1.734-1.243 2.21-4.536 2.03-12.556-1.487-14.77-5.746-.765-1.472.046-2.45-.45-3.49-.485-1.018-1.842-1.2-1.94-1.708-.279-1.457.477-2.613-.539-5.06-.27-.65.45-1.096-1.144-.857-.904 3.538-1.634 7.319-2.718 10.796-1.737 5.571-4.673 10.948-6.474 15.946-.615 1.709-2.095 10.9-2.892 11.502-.383.289-1.209.23-1.724.279 1.29 2.35-.777 3.132-1.12 4.902-.479 2.47-.136 5.747 1.221 7.925.524.841 4.008 5.227 4.7 5.936 4.973 5.09 7.187 3.132 13.305 3.654 4.035.344 21.71 5.747 24.73 8.039.79.6 5.014 5.96 5.362 3.182.09-.71-1.023-1.233.06-2.923.357-.557 3.928-3.423 4.473-3.582 1.268-.372 8.33.39 8.796 1.03.163.223-1.237 2.564.29 2.864 1.093.215 1.392-.903.855-1.716 2.16-.951 7.916 2.139 10.086 2.843 1.34.435 4.28.443 4.886.863.603.419.466 1.807 1.127 2.353.768.636 9.249.835 5.443 5.431-6.062-3.025-12.154-5.129-18.965-5.738-1.162-.103-8.514-.428-8.931-.27-.19.072-2.867 2.337-3.088 2.6-3.814 4.522 2.237 4.762 3.627 7.21 1.893 3.334.299 8.638-4.168 8.227-1.17-.396-1.842-4.732-2.946-5.712-1.167-1.035-3.484-.24-4.37-1.54l-.3-1.034c.693-1.569 1.348-2.33.287-3.96-.289-.445-7.564-6.669-8.028-6.924-.713-.393-5.28-1.956-6.066-2.033-3.956-.391-14.543-.862-17.66-1.814-.83-.254-.904-1.48-1.557-1.917-.723-.483-1.906-.323-2.673-.774-2.406-1.415-6.707-3.442-8.514-4.71-4.473-3.138-5.399-11.116-5.459-16.102l-2.3.334c-.647-.653-.976-1.483-1.11-2.38-.623-4.153-.157-17.07.667-21.101.343-1.675 2.44-3.952 2.633-5.429.193-1.479-.937-2.98-.345-4.925.36-1.181 3.425-4.458 3.805-6.022.308-1.272-.552-2.537-.521-3.87.053-2.356 2.731-9.048 3.66-11.91.273-.839 1.25-1.186.989-2.174l-1.765-.314c-1.092-5.575 2.249-4.863 3.74-7.195.524-.818.221-2.106 1.133-2.891.998-.858 3.472-.599 4.377-1.385 1.243-1.079-.664-2.83 2.83-1.444 1.832-2.718.513-5.28 1.02-7.925.148-.772.876-1.467 1.009-2.121.678-3.34 1.94-6.857.88-10.063l2.293.57-.092-2.212-2.192-.948 1.426-1.416c1.3.914 2.489 2.822 2.459 4.42-.033 1.735-3.272 1.86 0 4.457-3.01 2.323.701 6.574-2.736 7.217m.558-1.172v-1.144h-.563v1.144zm-1.144 1.721-.862-1.132-.86.854zm-5.629 19.664c.179-.315 1.484-.466 1.915-1.247 1.218-2.211-1.568-4.56-3.756-4.044.03.758.053 1.575-.314 2.263-3.41 6.388-5.858 17.643-7.303 24.905-.46 2.313-.69 4.955-1.142 6.905-.328 1.412-3.46 8.307-2.74 9.039 1.352.206 2.241-.343 2.739-1.567 1.728-6.75 5.467-13.715 7.304-20.289 1.301-4.66 1.41-8.227 3.053-13.052.301-.885-.142-2.232.244-2.913m43.287 97.03v.575q.56-.288 0-.575M878.922 219.615c1.673-5.738 5.03-12.184 2.458-17.992-.143-2.115 2.184.677 3.373.366.752 1.15-.97 2.782-.96 3.124.012.397 2.12 1.824 1.595 3.148l1.15-3.449c2.792 1.103.938 5.73 1.41 6.887.486 1.187 5.668 4.07 6.344 5.186.683 1.127.08 3.286.407 4.767.427 1.942 3.004 2.976 2.688 5.18l-5.587 4.223c-.021 3.175-.13 6.686.9 9.553-2.328 7.926-4.417 15.88-6.557 23.883-.986 3.684-3.76 7.756-5.087 11.584-.427 1.232-.15 2.736-.65 3.91-.362.854-1.59.864-1.832 1.638-.36 1.157.031 2.735-.36 4.258-.515 2.01-4.527 6.46-5.607 8.764-1.368 2.92-1.747 7.396-2.877 9.769-.815 1.711-3.737 3.92-5.14 6.357-1.963 3.408-2.968 7.34-4.654 10.867-6.754 14.126-12.963 27.592-16.804 42.98-.172.69-1.682 4.48-2.591 3.442.933-2.723-2.444-3-2.803-4.418-.393-1.55 4.478-11.664 5.514-13.826 2.347-4.897 2.796-5.41 4.452-11.092 1.02-3.5 5.071-7.846 4.329-12.054l2.247-.048c.92-7.186 5.217-12.807 8.21-19.1 2.847-5.984 4.41-13.376 9.964-17.629l2.866-10.945 2 .01c.884-1.359-.264-3.222.057-4.232.227-.712 1.338-.735 1.542-1.065.362-.586.076-1.878.393-2.768.496-1.396 1.866-1.95 2.307-2.877 2.307-4.85 1.147-9.994 2.159-14.511.373-1.667 2.366-2.448 2.224-4.134-.441-5.241-4.382 4.473-4.746 5.061-1.154 1.863-3.006 3.381-4.162 5.036-3.103 4.447-6.859 12.495-12.391 13.188.756 2.938-.878 2.6-1.416 3.409-.266.401.221 1.233-.026 1.735-.562 1.137-2.036.885-2.452 1.309-.389.397-.29 1.685-.792 2.362-4.242 5.717-5.628 9.133-9.123 14.88-.383.63-1.452.76-1.886 1.704-.479 1.043-.239 2.378-.717 3.318-.72 1.414-4.015 1.627-3.16 4.607-1.223-.453-2.958-2.37-1.567-3.352.908-.64 2.235.977 1-1.817l2.87-.007c.48-1.795-1.557-1.102-2.294-2.006 4.48-2.983 3.107-10.087 8.49-11.916l1.86-7.34 2.01 1.01c1.39.006 3.289-5.053 4.086-6.12 3.744-5.011 7.661-10.172 11.486-15.536 2.023-2.837 6.197-6.574 7.576-9.67 1.095-2.46.725-5.883 1.989-8.359.604-1.184 2.451-2.258 2.608-3.068.2-1.031-.93-3.091-.83-4.46.118-1.614 2.264-4.436-.328-5.71-3.153-1.55-3.37-.149-5.352.16-4.653.724-7.714-3.345-11.522-5.098-2.404-1.106-7.466-1.873-9.07-3.003-.352-.248-3.903-3.187-4.079-3.394-.477-.562-.46-1.767-.962-2.487-3.572-5.117-5.184-4.033-10.088-6.584-2.959-1.538-8.016-3.803-7.647-7.581 1.584-.079 1.915 1.583 3.31 2.146 1.98.8 4.71.385 6.613.86 2.296.573 10.38 3.05 11.619 4.478.9 1.039 1.457 3.054 2.605 4.293 4.029 4.346 7.136 4.564 12.054 6.343 2.599.939 4.634 3.74 7.354 1.853m3.873-4.444c-1.505-.027-1.301 8.353 1.674 7.42 2.629-.826.323-6.463-1.674-7.42m7.765 5.74c-.055 2.133-.191 4.651 1.434 6.308 2.95-2.682 2.239-5.094-1.434-6.309m-39.96 71.848v.575q.56-.287 0-.575m-8.34 68.407c-1.178-.972-2.564 1.53-2.872 2.29.38.338 3.81-1.516 2.872-2.29"/><path d="M843.217 312.693c-.682 1.06-4.028 4-4.317 5.182-.222.908.648 2.405.482 3.858-.05.433-1.567 5.805-1.813 5.999-.947.745-3.777-.222-3.35 4.12.728-.233 1.222-1.18 1.153.281-.133 2.823-8.34 23.379-10.063 27.312-.586 1.337-1.98 2.26-2.341 3.407-1.637 5.183-2.653 12.951-4.55 17.868-.658 1.704-2.788 2.765-3.088 3.85-.38 1.374.471 2.493.365 3.765-.182 2.178-2.702 3.25-2.181 5.596-4.1.092-1.124-2.74-.718-5.034.278-1.575-.312-4.063.296-6.033.435-1.412 2.452-2.878 2.633-3.71.197-.9-.553-1.824-.437-2.706.204-1.557 5.396-16.151 6.142-17.444 1.08-1.87 4.215-8.27 4.497-10.178.088-.59.213-5.795.11-6.196-.082-.325-3.007-5.29-3.337-5.765-1.588-2.275-2.364-1.682-4.46-1.725-5.29-.109 1.874-3.722 2.206-4.266 3.299-5.406-3.83-5.412-6.851-2.39l.99 3.566-1.424 1.386c-2.058-1.267-10.836.524-11.611-.593-.304-.44 0-1.458-.11-1.57-.318-.328-8.089 2.135-6.9-2.88-2.789 1.222-13.566-1.416-12.682-5.363l1.751-1.242c-2.127-.73-3.361-2.687-4.958-3.654-1.26-.765-3.915-1.157-4.836-2.103-.738-.758.808-2.207-1.974-3.214-.998-.362-6.112-.017-7.345.196-3.208.555-5.77 3.43-9.379 3.917l-3.69-2.623c-.436-1.66 6.25-2.731 7.63-3.283 5.885-2.355 7.461-5.016 14.777-2.444 2.234.785 7.263 4.57 8.488 4.797 1.731.32 2.194-.927 3.198-.939 1.797-.02 7.458 1.164 6.152 3.893l1.72-.006.334-1.78c.981-.53 2.406-.268 3.317-.626 1.17-.459.436-2.053 2.093-1.614 1.218 3.311-1.83 7.12-5.436 6.358l-.59-1.759c-9.238 7.733 4.895 5.413 8.607 10.2 1.69-1.455 5.582-2.308 6.938-3.854 1.149-1.31.478-2.817 2.118-3.633 2.025-1.007 10.06.599 12.165 1.952.182.117 2.82 2.632 2.925 2.805 1.033 1.69-.788 3.68-.206 5.361 1.522.438 3.15 4.658 4.237 4.41.807-.186 3.136-8.183 5.465-8.622l1.152 1.147c.035-1.319-1.168-1.649-1.19-3.134-.09-5.857 4.484-9.304 6.625-13.562.57-1.135-.001-4.147 2.323-3.413 2.126.67-.313 4.983-1.052 6.132M940.158 346.095c1.49 2.89.61 2.903 1.041 6.109.59 4.384 4.121 11.369 3.37 16.11-2.722 17.205-5.03 34.325-12.341 50.894-.634 1.438-.03 3.897-1.995 4.608-1.204-.93-1.362-11.899 2.293-10.932-2.252-5.873-1.368-9.38.727-15.07.432-1.173 1.541-1.993 1.978-3.194 1.208-3.317 5.88-25.06 5.7-27.983-.07-1.141-.803-6.402-1.067-7.921-.54-3.123-4.044-9.495-3.923-12.243.06-1.333 1.138-2.016 1.168-2.84.033-.925-1.05-1.843-1.128-2.906-.106-1.476 1.209-6.05 1.185-8.05-.014-1.245-1.072-1.887-1.067-2.737.007-1.346 1.871-4.94 2.114-7.065.313-2.737-.498-5.272-.395-7.41.172-3.58 1.455-7.428 1.657-10.922.068-1.182-.675-2.346-.61-3.423.086-1.41 1.41-2.146 1.551-2.98.355-2.108-.514-8.603-.219-11.334.363-3.364 2.681-7.967 3.586-11.246.518-1.879-.255-4.056 1.456-5.467.349-.287 1.172-.194 1.506-.478.489-.415.345-1.437 1.146-2.178 1.315-1.216 3.391-1.745 4.47.031 1.74 3.52-1.77 4.931-2.743 7.081-.464 1.026-4.203 11.147-4.328 11.766-.3 1.483.696 3.07.443 4.962-.587 4.383-2.161 9.91-2.822 14.505-1.826 12.711-.824 25.238-2.036 37.86-.068.712-1.303 1.317-.717 2.453m11.338-76.9c-.38-.427-3.436 1.106-2.87 2.293 1.571.703 3.875-1.163 2.87-2.293m-7.474 11.49-.282-1.718-.86.868-.002.85zm-1.153 8.048v-1.144h-.563v1.144zm1.153 5.754-1.14-.002-.582 1.718c1.049.194 1.905-.63 1.722-1.716M85.658 373.237c.237 1.708-1.483 2.309-1.04 4.141.807 3.332 3.922 5.055 4.94 7.19.493 1.037.54 3.15.827 3.49.367.434 2.611.104 2.172 1.842-4.85.937-12.887-4.024-13.228-8.983-.085-1.23 1.635-.305 1.155-1.927-2.147-.981-8.28-1.06-9.126 1.545-.094.29-.057 5.772.038 6.092.231.778 5.581 6.752 2.39 7.784-4.568 1.478-4.579-1.521-6.798-3.37-.404-.337-3.939-2.7-4.18-2.77-.873-.25-1.83.336-2.526.17-2.275-.544-4.277-1.889-6.815-1.407 1.57 3.37-2.914 4.696-1.155 8.04l-2.293-.57c.408 4.357-3.764 7.825-2.923 12.025-2.67-.145-2.2 2.196-3.284 3.901-2.027 3.191-3.657 5.03-6.179 7.619-.977 1.003-1.613 2.201-2.56 3.218l-2.88-.652c-1.56.68-4.894 5.68-6.364 6.9-1.827 1.514-4.503 1.71-5.693 4.673-3.855.225-1.618-6.932.737-6.537.397.066.847.785 1.26.826 2.713.271 1.36-2.64 1.53-3.405.686-3.091 3.844.256 4.502-.406-.569-1.973 1.215-1.769 1.771-2.529.565-.773.318-1.644.592-2.18.363-.709 1.736-.791 1.091-2.766l3.162 1.143c1.288-.864-.037-2.386 1.128-3.456.827-.76 2.024-.324 2.484-.681 1.836-1.425 3.087-10.932 3.614-13.344.359-1.642 3.282-5.715.634-6.155l-.096-.775c2.32-1.72 1.648-6.366 2.715-8.798.913-2.078 5.958-5.112 8.358-4.62 1.202.248 5.333 3.504 5.075 4.99l4.544.081c-1.45-4.151.916-3.483 2.166-4.726.53-.526.414-1.845 1.3-2.44 1.179-.794 4.584-.88 5.855-1.476.963-.451.663-1.473 3.192-2.125 4.03-1.038 6.009.687 9.908.428m-17.823 13.798h-1.144v.563h1.144zm-22.997 16.086-.281-1.718-.86.868-.003.85zm-1.725 1.73-1.144.282 1.142.865zm-1.152 5.743v-1.144h-.563v1.144zm-8.621 9.197-.003-1.147-1.141.865zM244.789 298.056c.488.348.927 3.1.698 3.323l-6.32-1.15-.007 4.027c-1.578-1.373-4.03-1.471-6.063-1.177-1.282.185-1.986 1.022-2.871 1.148-4.613.659-7.97-.948-12.66 1.74-1.662.952-1.715 2.123-2.808 2.907-.963.692-2.235.67-3.03 1.296-1.043.821-3.112 4.473-4.22 5.257-.986.698-2.676.562-3.419 1.2-1.11.955-.541 3.422-4.591 2.578 1.354 2.368-1.137 3.493-3.034 4.725-2.512 1.63-3.837 1.88-6.222 3.548-3.415 2.388-3.495.913-5.655 1.78-2.9 1.163-5.825 5.497-8.808 6.755-1.697.715-3.308.155-5.001.746-2.249.785-1.719 3.349-4.299 1.996l-.853 2.597-2.353.27.579 2.292c-2.589-.244-2.222 3.334-5.748 2.3l4.368-5.686c2.776-1.905 4.815-5.197 6.862-7.495 3.201-3.594 4.608-6.59 10.072-4.88.779-.672.623-2.258 1.064-2.864.093-.127 1.275-1.185 1.914-1.895 1.326-1.472 3.407.309 1.015-4.759 2.48-1.018 2.745-1.274 5.17-.01-.294-3.593 1.957-2.478 3.446-3.741.833-.708.971-2.32 1.25-2.489.512-.31 1.656.06 2.386-.181.93-.307.932-1.528 1.555-1.913 1.62-.998 5.04.339 3.435-3.736 1.74-1.357 5.145.126 6.012-.082.47-.114 1.486-2.91 4.34-1.649.52.449-2.675 4.991-.294 5.164 1.28-.788.56-2.56 1.146-3.455.38-.58 8.723-5.038 10.057-6.04.91-.682 1.267-2.2 2.118-2.48 1.068-.353 4.382-.625 6.324-1.074 1.179-.273 1.499 1.427 2.817-1.257 1.978 1.522 10.577 1.617 11.628 2.364M696.096 161.228l.158 1.319c-1.903.81-1.953 1.746-1.744 3.75 4.358-2.006 10.257 1.956 14.114 1.671.915-.068 1.316-1.037 2.676-.996 1.691.05 3.623 1.605 5.32 1.644 2.762.063 7.376-1.849 10.295-1.567 1.517.147 7.488 1.783 9.709 2.263 2.852.616 11.75 2.154 6.138 5.868-2.99 1.979-3.912-1.025-6.255-1.725-1.358-.407-2.928.004-4.064-.536-1.013-.482-1.128-2.597-2.572-2.602l-1.789 2.845c-3.07-1.765-7.943-3.024-11.34-1.568-.826.353-.727 1.323-1.403 1.586-1.533.595-3.376-.084-4.38.04-.42.051-.309 1.043-.737 1.143-1.421.333-3.748-1.004-5.566-.078l-3.603-5.075c-2.626.776-5.867-.062-8.438.532-.769.177-.683 2.532-2.966 2.33-1.566-.137-4.137-4.164-3.77-5.776-1.993 1.1-3.108-.54-4.898-.624-2.318-.11-4.209 2.498-6.48 3.33-5.462 2.003-7.677.781-12.501 1.018-.985.048-1.756 1.093-3.373.88-1.413-.187-3.985-2.023-4.937-3.166 2.438.072 1.47-2.164 2.86-2.883 2.29-1.186 5.7.675 8.21.186 2.636-.514 7.285-4.08 9.366-4.463 3.51-.646 6.415 2.118 10.066.87 2.388-.817 2.159-7.375 6.832-5.773 3.196 1.096 2.659 4.35 5.072 5.557M254.11 366.338c-1.278 4.475-1.05 6.595-6.096 7.407-4.297.692-9.228.442-13.594 1.244l-6.614 6.718c-3.224.492-6.418 2.109-9.684 2.394-1.205.106-2.263-.735-3.829-.43-1.29.252-2.331 1.778-3.706 2.088-2.084.47-4.548-.131-6.718.182-11.69 1.687-23.232 10.289-31.707 17.733-4.148 3.643-6.748 10.084-12.908 10.944-.21-2.975 3.112-3.484 4.912-5.143 1.891-1.742 3.088-4.498 5.132-6.366 1.946-1.778 5.301-2.976 6.78-4.561 3.512-3.766 7.316-5.452 9.474-7.646.352-.358.097-1.388 1.046-2.103 2.139-1.613 26.665-10.26 30.005-10.846 1.901-.334 3.1.585 4.679.157 3.114-.844 3.908-4.87 7.494-4.921l-.53-3.976c1.624-.324 1.042.551 1.172 1.667l2.777.135c.94 4.793 2.742.78 4.53.066zM809.49 268.622c1.647.301 3.742.528 5.327-.145 1.424-.605 1.334-1.85 2.18-2.412.924-.613 4.825-1.305 5.165.062 1.204 5.052-2.81 6.606-7.174 5.915-1.633-.258-2.518-1.775-4.062-1.76-1.529.014-4.206 2.206-6.605 1.212-.292 1.622.379.947 1.26 1.294 3.04 1.198 6.924 2.722 10.11 3.193 1.514.224 3.256-1.023 4.574.262 2.129 2.073-.158 4.214.107 6.703-4.943 1.978-6.992-.458-10.748-1.527-7.32-2.084-17.594-1.85-24.1-4.646-1.77-.76-3.208-2.788-5.349-2.99l5.17-3.162c-1.354-4.13-4.938-1.69-7.14-2-.594-.082-9.558-3.243-9.994-3.563-.448-.328-.317-1.406-.62-1.843-.477-.69-2.377.093-1.788-1.2.535-1.172 3.943-.479 4.607-.02.68.472.502 2.065 1.423 2.588 2.165-2.73 3.65.006 5.319.442 5.3 1.386 10.687 1.37 15.891 1.9 2.386.243 7.34 2.658 9.863 2.825 1.916.126 4.52-1.823 6.3.58zM926.005 221.667c.748 1.213 1.786 3.98 2.469 4.729.944 1.033 4.26 2.027 5.198 2.854.858.759.324 1.86.7 2.454.211.332 5.798 2.972 6.965 3.673 1.731 1.04 1.853 2.87 4.403 1.619.095 2.967 1.411 1.85 2.826 2.627 3.068 1.686 5.587 3.648 8.427 5.394 5.497 3.381 2.897 5.748-2.661 4.386l-.569-2.592c-2.266-.274-6.548-1.131-8.56-2.076-1.384-.65-3.197-4.18-4.46-4.882-1.172-.652-3.229-.367-3.541-.625-.315-.26-.142-2.128-.785-2.673-.493-.42-2.525-.485-3.456-.852-.807-.318-1.28-1.243-1.991-1.456-1.259-.377-2.302.045-3.952-.647-3.903-1.638-7.768-13.046-10.397-13.759l-1.644.478-.92 4.54c-1.512.396-2.667-.076-3.926-.818-2.9-1.71-3.3-8.516-.893-10.61 3.66-3.183 6.632-1.304 10.397-.612.747.137 1.595-.622 2.528-.263 2.501.962 1.691 5.947 2.426 7.972.287.793 1.227.833 1.416 1.139M563.58 20.445c-3.022 3.137 2.513 3.653 3.027 4.424 1.957 2.934-2.128 6.49-3.418 8.7-1.08 1.85.106 3.663-3.958 2.707-1.206-.284-2.36-1.95-3.529-1.6-1.41 4.123-5.344 2.83-7.215 6.602l2.283.287c-.395 3.227-4.703 1.655-6.486 1.83-5.159.508-11.345 4.426-15.892 7.692-1.737 1.248-2.817 3.889-5.21 3.695-1.9-1.892 7.796-8.143 8.907-9.195 2.364-2.238 4.5-7.853 5.725-8.647.334-.216 6.26-3.06 6.616-3.158 1.359-.376 2.953-.021 4.054-.544 1.46-.694 4.883-7.053 9.182-5.482-.664-2.452 1.001-2.171 1.653-3.206 1.067-1.695 4.956-7.918 6.254-8.87 2.195-1.609 6.087-2.509 7.05.872-.4 1.673-7.66 2.459-9.043 3.893m-1.884 7.902h-1.144v1.143h1.144zM408.342 214.165c-.274.296-.29 1.27-.721 1.832-3.76 4.89-8.601 8.683-9.193 14.975-.164 1.744-.287 5.045-.368 6.986-.08 1.938.812 6.649.07 8.235-.246.528-1.095.902-1.452 1.45-1 1.533-3.11 3.965-4.627 5.121-4.415 3.367-8.172 1.342-7.962-4.208 2.681-.607 7.432-5.069 8.276-7.551.449-1.321.095-2.522.422-3.6.257-.846 1.368-1.185 1.603-2.42 1.186-6.226.257-9.89 5.512-15.183 3.428-3.453 5.976-5.798 9.409-9.562 2.772-3.04 7.89-4.49 10.124-6.547.93-.856.598-1.96 2.127-3.048 2.746-1.952 4.108-.977 6.503-1.063.8-.028 3.119-.011 3.303-.04.885-.137 2.654-2.137 4.164.669 1.129 2.098-2.146 3.403-3.73 3.774-5.718 1.338-11.356 1.492-16.685 4.588-1.077.626-2.226 3.211-3.754 4.291-.955.676-2.547.79-3.021 1.301M709.454 125.494c-1.734 4.656-6.936 2.066-9.945 1.911-1.474-.075-7.917.86-9.179 1.525-.87.458-.906 2.57-2.158 3.204-1.09.552-2.085-.378-3.127-.31-1.039.07-1.902 1.028-2.957 1.147-3.638.41-6.754-5.523-11.901-3.927-1.223.38-1.559 1.598-1.566 2.76-2.286-.444-3.39-1.043-4.913 1.167l.9 2.86c-3.541-1.496-2.837 1.349-4.954 1.563-3.995.405-2.598-1.47-3.21-2.579-.576-1.043-5.136-1.635-5.616-2.733-.831-1.902 2.355-1.83 3.639-2.655 2.26-1.452 6.616-5.872 9.33-6.23 2.371-.312 6.282 2.157 9.703 2.31 3.145.14 4.924-1.136 6.842-1.134 3.275.004 11.414 2.193 13.29 2.021 1.355-.124 5.033-1.811 6.362-2.031 3.548-.588 6.255-.3 9.46 1.131M570.894.754c.316 1.526-.378.991-1.13 1.43-2.045 1.19-5.732 2.17-6.903 2.89-.623.383-.657 1.64-1.552 1.918-.531.165-1.303-.37-1.93-.156-.776.267-2.133 2.21-3.274 2.428-.97.185-2.062-.532-3.25-.45-1.653.114-12.116 3-14.095 3.78-2.654 1.045-9.332 5.45-11.403 5.88-2.94.612-6.712-3.35-7.12 1.172-2.767-.599-2.544.89-3.437 1.425-3.595 2.155-6.305 1.139-10.294.944.68-2.534 4.141-1.015 4.503-1.212.157-.087.295-.969.696-1.317 2.202-1.913 2.682.54 4.17.182 1.019-.245 2.952-3.386 5.16-4.103 1.981-.644 3.549-.392 5.535-.5l1.054-2.825c3.841-.27 7.027-2.361 10.501-3.73.894-.351 2.009-.209 2.887-.562C546.567 5.712 556.407-.49 562.005.16c2.876.334 5.434 2.32 8.889.594M695.49 257.77c2.57-.636 7.045 3.945 8.626 4.401 1.79.516 4.5-.048 6.638.261 2.52.365 5.489 2.405 7.777 2.618 4.27.397 12.645-4.297 17.119.083 1.594 1.56.813 8.47-1.199 8.69-1.157.127-2.315-.565-3.464-.635-4.61-.28-9.26-1.403-14.285-2.332-5.556-1.026-8.413-4.52-13.046-6.5-2.338-1-6.317-1.246-8.558-2.937-1.605-1.21-1.472-3.188.392-3.649"/><path d="M800.878 311.15c.064-.437-.031-.884-.407-1.15-.962-.68-4.382-3.472-4.703-4.4-.437-1.263.334-2.44.253-3.386-.083-.971-1.126-1.53-1.22-2.253-.348-2.714 1.314-3.644-1.963-6.359-3.638-3.014-6.413-.92-10.607-1.467-4.135-.54-5.587-2.566-8.642-4.579-.979-.645-2.38-.424-3.233-1.366-.45-.498-2.033-4.594-1.681-4.924 5.392-1.787 10.455 5.92 14.202 6.775 3.44.786 14.143-.473 16.594 1.804.34.315 1.887 3.906 1.91 4.322.087 1.615-.257 6.47.138 7.95.214.806 1.49 1.209 1.667 2.45.137.961-1.352 7.193-2.308 6.583M283.991 326.645c-1.948.794-4.836 1.806-6.498 2.997-1.488 1.067-1.886 2.372-3.05 3.274-2.004 1.553-5.801 2.334-7.886 3.611-3.051 1.869-6.443 6.962-11.114 2.612-1.012-.942-3.261-7.967-2.777-9.007.468-1.005 1.976-1.377 2.562-2.057.666-.771.723-1.85 1.443-2.581 1.54-1.562 6.395-1.346 8.516-.982 2.317.398 3.573 2.172 5.872 2.217 3.723.074 6.89-3.08 9.713-2.908 1.581.097 3.778.882 3.22 2.824m-22.295 2.207c-.472-.26-.398-2.064-1.83-1.6.814 2.229-1.464 4.15-1.055 5.876.373 1.573 3.21 4.15 5.066 3.886.315-.228 1.156-4.72 1.557-5.618.335-.748.891-.611.971-.701 1.877-2.095-3.963-1.432-4.709-1.843M593.146 19.318c.83.89 4.365 7.288 5.213 8.874.579 1.08 1.353 4.483 2.01 5.168.78.816 2.793.367 3.59 1.305.718.844 1.003 3.997 1.989 5.33 1.944 2.627 6.077 6.892 7.437 10.019 1.108 2.547 1.407 3.831 4.004 6.286l2.372 5.383c-6.127-2.503-7.68-10.969-11.58-15.72-2.994-3.647-6.657-7.898-10.312-10.959-1.253-1.05-3.298-1.687-4.278-2.62-2.285-2.174-6.953-8.788-7.734-11.865-.69-2.718-2.583-11.851 2.016-11.703 3.68.12 1.003 5.927 1.506 7.623.436 1.47 2.913 1.965 3.767 2.88M776.724 396.799l1.432-1.145c2.96 1.446.226 9.053-.755 11.31-1.412 3.247-6.445 8.932-9.577 10.545-.924.476-1.492.759-2.598.557l2.528-3.789c3.62-2.749 4.022-3.991 5.576-7.934.69-1.749 2.5-2.51 1.373-4.933-1.275-2.74-3.873-1.177-.93-6.563-1.728-2.02-4.35-2.273-6.828-2.072-.604-2.055 1.033-1.674 1.449-2.27 1.365-1.954-3.549-2.28-4.9-1.47-1.861 1.117-.49 4.062-.513 5.755-.036 2.792-1.197 4.278.515 7.182l-1.738.318c-.35-.159-3.882-5.206-3.995-5.787-.433-2.231.519-10.733 2.696-11.65 1.528-.642 5.57-.903 7.222-.563 3.396.699 9.956 8.58 9.043 12.509M890.44 541.192c3.317 3.331 7.393 6.183 10.972 9.462 2.578 2.362 4.378 5.656 7.58 7.346.936.495 2.066.068 3.116.909 4.376 3.506-.423 10.122-4.86 7.153-1.053-.705-1.277-1.77-1.943-2.364-5.55-4.944-9.307-10.353-14.152-14.88-1.023-.956-4.767-2.877-4.935-3.116-.939-1.333.322-2.675.296-3.194-.095-1.917-2.542 1.45-2.855-.846zM512.253 119.168c.23 1.06-.578 1.405-1.154 2.028-4.878 5.276-4.98 3.234-8.955 10.564-.967 1.784-3.642 2.182-2.24 5.213.754 1.632 5.072 3.955 6.793 3.403 1.63-.522 2.161-4.457 2.849-5.527.402-.627 5.881-4.419 6.731-3.61.679 2.756-2.748 4.594-3.203 6.295-.454 1.693 1.272 4.119-.305 6.597-1.112 1.749-2.507.613-1.105 4.893-4.082 1.882-7.88-3.338-11.21-5.698-.766-.543-2.57-2.084-2.726-2.172-1.464-.82-3.24.571-2.71-3.83.312-2.602 2.056-2.448 2.892-3.622 1.373-1.93 2.163-6.581 4.153-8.634 1.206-1.244 3.86-.972 5.018-1.592 1.132-.605.842-1.874 1.308-2.424.167-.197 3.658-2.087 3.864-1.884m-2.3 23.567c-4.6-.466-3.384 4.754-.003.85zM734.61 137.697c.565.622.445 1.913 1.049 2.69 1.647 2.12 9.462 6.503 12.012 6.397 1.907-.079 4.37-1.473 6.626-1.185l.082 2.257c1.933-.346 2.272 2.009 2.792 3.496-1.144.16-1.478-.93-2.598-1.134-4.558-.826-11.95-1.551-16.226-3.32-3.43-1.418-2.904-6.13-4.466-6.462-.89-.19-1.812 1.183-1.425 1.71.085.117 2.307.577 2.296 1.73l-1.408.01-6.676-5.43c-5.421-3.146-10.416-5.805-13.221-11.387-.39-.777-1.31-.08-1.115-1 2.634-.585 1.82 2.213 3.602 3.05.983.46 2.155-.212 3.69.239 3.232.95 6.915 4.46 9.93 6.213 1.211.704 4.414 1.419 5.056 2.126M828.905 429.184c.295.127-.259 1.422 2.431.384.577 2.45-1.402 1.808-2.137 2.446-1.299 1.128-.239 5.288-1.333 7.001l1.2 1.181-1.78 2.879c1.463 2.144 3.961 7.364 1.56 9.295-.442.355-1.32.304-1.84.721-.753.604-.496 1.82-1.41 1.763l-.553-2.06-2.903.333 1.54-2.583c-1.175-1.904-2.477-5.178-2.127-7.439.23-1.487 1.87-1.701 1.734-3.19-.391-.34-2.996.668-2.867-.57 3.166-1.091 3.036-5.77 2.298-8.627l4.018-.01-1.718-1.714c1.264.123 2.671-.332 3.887.19m-3.028 18.787-.85.851.85.85.851-.85zM837.086 383.584c-.247 2.891-2.116 5.2-1.152 8.043l-1.714-.58-1.15 3.749 1.724-2.593c3.141 1.325.83 4.627-.101 7.094-.693 1.837-.231 3.131-2.776 4.692l2.259-.076 1.19.66-2.784 8.184c.987 4.878-1.387 9.458-2.422 14.193-.145.662-.206 1.05-.833 1.455-.864-2.185-3.06-1.542-3.157-1.714-1.052-1.867 1.283-2.734 2.292-3.739l-1.67-.316c-1.59-3.845 2.12-5.65 2.682-7.869.46-1.82-.246-4.018.127-5.492.168-.664 1.683-.769 1.727-1.258.015-.166-.995-1.158-1.083-1.862-.146-1.174.872-1.69.876-2.185.002-.361-.768-.83-.762-1.133.015-.714 3.423-3.04 2.691-6.862-.17-.884-1.08-1.564-1.112-2.33-.098-2.316 4.534-6.265 2.273-9.48zM150.053 349.672c-.808 2.479-3.78 3.486-5.438 5.205-.992 1.03-2.35 3.576-3.717 4.894-.746.719-2.007.755-2.625 1.398-.68.707-2.223 5.38-2.651 5.699l-7.982-2.576c-.137-.596 1.539-3.076 2.06-3.647.384-.422 5.098-4.215 5.414-4.359 1.475-.668 3.174-.051 4.74-.435 2.068-.506 8.952-7.17 10.199-6.179M330.698 408.998c1.357-1.89 4.669.29 5.95.418 2.242.225 4.52-.21 6.758.14l4.41 5.352c-3.374 2.091-6.134 2.268-8.316-1.297-2.9 1.144-7.077 3.651-10.267 2.64-2.264-.717.206-2.15.623-3.213.425-1.086.484-3.541.842-4.04m7.643 1.599v.575q.56-.288 0-.575M319.08 184.7c-2.298 4.194 1.094 7.087 1.148 11.486l-3.445-2.291c.122 3.507.99 6.672 2.244 10.087l-1.66 1.117c3.65 2.217 1.603 6.628 2.04 10.117.704 5.614 3.222 12.489 6.587 16.912 4.906 6.451 9.582 11.469 15.524 17.217 4.008 3.878 5.728 7.277 11.908 8.788 2.911.712 5.642-.828 6.77 3.006 1.358.282.634-1.191 1.419-2.013 1.018-1.066 4.253-.391 5.757-.853l-.557 2.04c-.86.7-2.282-.335-2.934-.035-.902.415-.565 1.909-1.946 2.063-2.505.28-8.165.199-10.277-1.148-.796-.508-.685-2.113-1.506-2.614-.32-.195-1.135.241-1.7-.052-5.305-2.748-7.349-5.898-10.974-10.315-1.697-2.068-2.618-3.865-4.05-5.588-6.54-7.866-10.75-9.873-13.946-20.68-1.92-6.49-4.835-26.503-3.597-32.685.142-.71 2.059-5.702 3.195-4.56m-.577 6.32h-1.144l.003 1.721 1.138-.87zM660.008 398.523c-7.118-.032-7.704-10.676-8.788-16.208-.116-.591-.89-1.15-.972-1.92-.21-1.99 1.267-6.346.59-8.862 2.132-.027 4.16-.358 4.005-2.894 1.753.991-.886 3.53-1.036 5.01-.429 4.248.185 11.73 1.743 15.829 1.333 3.507 4.237 5.543 4.458 9.045M968.596 252.954c-.51.508-1.718.485-2.427 1.3-.728.837-1.176 2.9-2.119 4.233-1.481 2.094-4.86 3.72-6.06 5.122-1.012 1.185-.01 2.676-2.465 2.134l-.004-1.725c-1.773-.363-2.07.758-2.868 2.022l-1.154-.594c-.135-1.522 4.294-5.64 5.324-5.349 1.142.324.926 1.745 2.459-.076 1.348-1.6.965-3.141 1.74-4.587.249-.462 2.831-4.07 3.137-4.337.336-.293 3.426-2.01 3.647-1.972 1.486.25 1.906 2.718.79 3.83M654.754 216.381c.29 5.603-6.234 3.36-9.341 3.434-2.306.055-8.927 1.878-10.12-.922 1.465-.452 4.132-2.57 5.46-2.55.988.015 1.757.993 2.84 1.043 4.312.2 7.411-3.561 11.161-1.005M671.505 212.292c-.192 1.215-1.911.426-2.497 1.874-.47 1.163-.187 1.644.767 2.432l-.556.58c-1.571 1.034-11.678 1.4-8.342-2.59l1.152 2.293c1.766.52 2.755-2.03 2.579-3.443l-3.999.563c-.424-1.501-.867-1.64.247-2.868 3.326-3.666 7.259-.49 10.65 1.16M769.002 161.385c2.18 1.295 5.255 2.523 7.679 4.093.976.633 1.009 2.422 3.487 2.256-3.606 2.94-5.858-1.028-8.086-2.256-1.175-.648-2.677-.637-4.17-1.58-1.668-1.051-9.377-6.956-9.597-8.227-.149-.862-.006-1.017.853-.854zM789.37 176.646c-2.739-1.013-1.822-1.11-3.49-2.546-.729-.628-2.112-.781-2.54-1.483-.222-.363-1.542-4.626-.018-4.01 1.912.772 4.284 2.254 3.174 4.587 1.492.207 1.477.017 2-1.15.363.065 4.15 3.105 4.702 3.648.846.831 1.123 2.469 2.272 3.192 2.565 1.615 7.186-.979 7.695 2.933-1.696.475-3.336-1.387-4.454-1.595-.912-.17-1.821.454-3.033.232-2.55-.467-1.816-3.198-5.73-1.508-.117-.497.146-1.39-.003-1.725.318.075.776-.03 1.146-.002.053-1.544.444-2.886-1.428-2.291-1.244.395-.493 1.144-.293 1.718"/><path d="M789.945 177.221c-.017-.037-.414-.108-.575-.575.5.185.535.566.575.575M12.064 434.164c1.218 3.678-.038 6.411-3.89 6.446l-.788 2.683-2.152.155c.298 2.18-1.176 1.383-2.061 2.208-.887.828-1.063 3.693-3.173 3.45l4.024-7.754c1.631-1.886 3.859-3.24 6.337-2.828 1.488-.965-.686-4.862 1.703-4.36M838.813 377.832c.27-.096 1.198-.185 1.16.296l-.596 3.323-1.71.402c.745-1.612.868-2.387 1.146-4.02-1.231.438-.699 1.718-1.719 1.72l-.105-1.644-1.666-.39c-.645-1.45 2.558-11.167 3.203-11.171 2.37 1.88-.053 4.694-.169 6.12-.093 1.143.944 2.507.456 5.364M408.197 100.767l2.001-1.716 2.31 4.016c-1.379-.802-4.998-2.598-6.356-2.84-2.624-.466-4.437 1.188-6.555-.94l-1.749-3.112c2.852-.533 3.329.808 4.844 2.678l5.201-.941zM808.342 405.424c-.02-.072-1.074-.312-.554-1.375.32-.654 1.348-.73 1.537-1.085 1.386-2.602.778-7.296 4.187-7.312 1.316.994-2.608 9.304-2.323 11.466l-2.814-.023c-.21-.518.083-1.243-.033-1.671l2.297-.004c-.016-2.29-2.292-2.258-2.297.004M813.513 190.44c-2.613-.806-7.034-2.271-6.843-5.481l-5.088-.69-.711-1.294 6.917.273.256 3.765 4.909.835zM747.562 321.11c-.14.06-1.26 1.688-2.456 1.54.61-3.444-.542-2.234-2.305-4.018 2.476-.106 4.675 1.318 7.169 1.172 1.012-.06 7.674-1.61 8.175-1.968.323-.23.073-2.155 1.892-.072-.004.57-6.32 2.84-7.313 3.023-1.675.308-3.869-.222-5.162.324M823.283 191.59c.066 2.763 2.652 4.254 4.032 6.319-.805.742-3.904-2.79-4.625-3.131-.987-.468-7.821-1.33-6.792-3.1.08-.138 2.05-.632 1.652-2.387 2.074.452 2.048 2.07 3.18 3.443zM583.92 131.034c-1.344 1.423-3.265 2.833-4.688 4.223-.825-.512.264-1.746.625-2.25 1.711-2.382 5.864-7.017 7.981-9.28.845-.903 2.33-1.653 3.177-2.838l-3.536 5.944c-1.308 1.211-2.405 2.98-3.558 4.201M496.73 30.647c1.333 1.41-4.979 2.826-5.743 2.871l-.008-2.3c-3.568 1.882-4.9-2.266-1.337-1.256 2.868.813 4.26.055 7.089.685M529.537 280.073c-1.184-1.855 5.814-5.332 6.288-3.112-1.315 2.59-3.357 4.73-6.288 3.112M385.12 117.511l.074 2.226c-1.924.717-1.977-1.563-2.697-1.736-1.052-.252-2.46.268-3.577-.042l-.617-3.392zM833.024 198.542c.483 6.166-5.763 0-4.556-1.2zM485.812 33.521l-.019 2.824-1.932.657c-1.291-2.444-1.733-2.435-4.373-1.763-.273-1.642.346-.956 1.328-1.225 1.653-.454 3.285-.631 4.996-.493M365.645 85.262l-.29 1.146c-1.765-.912-5.759-.178-6.027-2.879 2.837-.576 4.05.572 6.317 1.733M401.168 121.594c.138.068.054.849.5.983.864.26 4.123-.98 1.64 1.75-1.779-2.405-5.215.046-7.176-2zM551.928 42.136c-.306-1.7.362-3.085 2.13-3.34 3.548-.51.593 4.284-2.13 3.34M646.781 365.76c-.176 3.37 3.798 2.01 3.454 5.746-.978 1.02-4.271-3.937-4.541-4.947-.29-1.084.263-.837 1.087-.798M374.852 257.69c.21-.96 3.06-1.23 3.739-1.193.88.048 2.255.354 2.004 1.477-1.51 1.986-3.761-.488-5.743-.285M652.535 395.074l.006 3.16c-2.25 1.173-2.548-1.287-2.3-3.156zM352.78 79.74c.473.25 1.881 1.266 2.592 1.708.373.232 2.028.672 1.076 1.5-.863.751-3.261-2.127-3.732-2.153-1-.055-1.71 2.059-3.459-.718l.602-1.143c1.275-.252 1.937.282 2.921.805M645.637 364.607c-1.237.36-1.896-1.727-2.31-2.58-.919-1.886 1.758-1.969 2.218-.469zM686.983 315.805l-.039 2.159-2.783.659 1.129-3.194zM145.453 362.318l-5.749 2.288c.825-3.088 3.148-2.286 5.749-2.288M882.505 538.207l-.86 3.437c-1.228-.889-1.657-1.916-1.434-3.435zM458.63 236.27c-.123.15-1.512.803-1.561.732-.425-2.497.156-3.03 2.288-4.024.02 1.086.004 2.407-.727 3.292M772.693 315.185c-.966 1.737-4.082 1.006-5.743 1.136.18-.921 2.699-1.385 3.428-1.472.917-.11 1.472.122 2.315.336M156.374 347.37c.461 2.006-3.376.881-4.593 1.72-.02-2.502 2.98-1.622 4.593-1.72M397.27 97.903c-2.2 4.19-4.526-.528-3.153-.59zM591.598 120.311l4.315-6.308c.064.938-3.358 7.274-4.315 6.308M390.94 122.614c-2.047.464-.877-2.256-1.14-3.446l2.285.857zM372.549 88.119l-5.747-2.003c1.124-1.64 4.93.916 5.747 2.003M501.331 26.626c-.576 1.392-1.07 2.67-2.872 2.289l.576-2.872zM415.093 127.218c.943.119 5.112.574 5.163 1.431.085 1.426-1.541.255-1.879.174-1.047-.25-2.891-.458-3.284-1.605M318.505 385.874c-.089-2.3 2.704-1.796 3.439-.282zM579.519.18c.946.945-1.468 3.645-2.291 1.429-.736-1.982 2.043-1.675 2.291-1.428M387.488 118.017l.581 2.869-1.72.006.001-2.874zM395.543 120.317l-.003 2.296-2.866-1.439zM472.583 113.988c-.898.947-2.608-2.647-2.291-3.445.904.115 2.775 2.935 2.29 3.445M578.37 135.263c.585.535-1.627 2.746-2.292 2.87-.422-1.01.938-4.106 2.291-2.87M487.83 32.945c1.406-.31 1.916 1.995.558 2.294-1.406.309-1.916-1.995-.558-2.294M761.198 318.046c.85-1.703 3.151-1.067 4.588-1.437zM584.693.755l-.002 1.146h-2.865l-.001-1.146zM504.782 23.176c-.345 1.307-1.803 1.197-2.875 1.138.345-1.307 1.803-1.197 2.875-1.138M522.024 57.084l-1.142-.87.863-1.426zM16.095 430.721c-.349.287-2.234 2.894-2.875 2.288.821-1.226.997-2.776 2.875-2.288M842.838 495.676l-.871 1.138-.851.002v-1.143zM507.656 23.75l-1.719 1.72c-.19-1.088.67-1.914 1.719-1.72M424.864 128.94l-.003.85-1.138.871-.003-1.721zM319.653 183.541h-1.144l.003-1.721 1.138.871zM432.919 132.391h2.294v.563h-2.294zM496.738 29.493l.279-1.721.854.859zM398.42 287.005l-1.722-.278.86-.854zM639.311 147.903l-1.144-.282 1.141-.865zM438.665 134.104l-1.147.003.003-1.146zM373.696 112.845l-.282 1.144-.865-1.142zM427.164 130.089l-.282 1.144-.865-1.141zM342.655 287.017h1.719v.563h-1.719zM825.012 418.647l-.003 1.147-1.141-.865zM791.675 498.547h.563v1.144h-.563zM375.429 112.845h.563v1.144h-.563zM439.243 134.116h1.144v.563h-1.144zM617.467 420.369c-.554-.02-3.454.636-3.994.895-1.2.576-7.008 9.427-7.815 11.153-1.763 3.768-2.5 8.03-5.402 11.269-.906 1.01-2.357.656-3.246 1.353-.264.207-3.33 5.06-3.608 5.59-2.832 5.398-2.812 6.591.571 11.337 1.911 2.68 3.523-1.521 4.551-2.193 1.308-.853 5.02-1.003 6.481-1.995.863-.585.652-1.982 1.058-2.251 1.31-.872 7.769-1.276 8.52 1.343l-4.546 5.09 2.438 2.006c9.676-4.99 21.594 1.003 31.833-3.252 4.193-1.743.5-3.22 4.201-5l-3.444-.86c.785-3.797 3.692-7.925 7.07-9.88 4.517-2.614 3.113 1.541 5.262.65.651-.27.701-1.346 1.291-1.717 1.365-.859 8.376-3.785 9.711-3.988 1.698-.259 3.332.734 5.116.611 2.534-.174 6.662-1.611 9.81-1.791 1.371-.079 3.07.725 3.884.513.69-.18 1.116-1.235 1.962-1.516.913-.303 2.1.06 3.05-.398.9-.435 1.025-1.865 1.192-1.981.123-.085 1.6.694 2.963.436 2.65-.503 12.146-3.57 14.372-5.07 3.56-2.398 6.822-6.807 9.92-9.203 1.768-1.37 4.875-2.419 6.43-4.202.952-1.093 2.55-5.232 3.632-5.856.904-.521 2.332-.173 3.454-.57 1.173-.416 12.472-6.733 12.627-3.46-1.185 2.374-4.654 4.547-7.047 5.59-1.543.672-4.267.696-5.702 1.62-.215.138-3.717 2.97-3.897 3.152-1.444 1.462-2.234 6.595-3.637 8.15-2.148 2.38-8.701 6.381-11.614 8.793-.704.583-1.605 1.259-1.432 2.298 1.84.792 2.985-1.442 3.798-1.59.643-.118 1.582.515 2.662.35.45-.07 7.99-3.213 8.364-3.474.416-.292.408-1.654.97-2.189.833-.795 2.376-.549 3.407-1.198 1.4-.883 1.94-3.613 4.941-2.822l.858 2.3 3.25-4.549 2.215.53.335-1.785c1.062-.549 2.75-.24 3.678-.815.557-.346.69-1.415 1.14-1.7.25-.159 4.739-.017 5.772-.882l-3.484-3.687c-.48-1.374-1.239-3.481.408-4.271 1.511-.507 7.504 1.1 8.804 1.954 4.344 2.855-1.399 6.677-2.26 9.799-3.706-.874-4.556 1.61-7.46 2.837l-.595.56 1.05 1.267-.444 1.073c-1.408.249-2.245 1.677-3.047 2.144-.913.531-7.652 3.607-8.314 3.77-.852.21-1.943-.583-3.618-.24-3.837.784-6.931 5.74-11.897 5.936-1.193.046-2.837-1.524-4.786-.446l1.146-2.29-1.436-.57c-1.479 3.961-2.518 2.276-5.479 3.133-3.743 1.084-6.951 5.346-9.187 6.338-.943.419-2.657.163-2.834.327-.167.154.068 2.987-1.176 3.734l-3.102-.189-.985.707c-.636.82.363 1.897-.21 3.168-.127.28-3.771 4.492-4.054 4.611-1.204.508-1.212-3.152-1.134-3.52.102-.474 3.492-4.49 4.079-5.035 2.325-2.16 7.417-4.503 9.164-6.368 1.682-1.796 2.23-3.139 4.904-4.858 1.083-.696 3.136-.509 3.97-2.358.352-.933-2.19-1.777-2.716-1.883-3.005-.605-2.695 1.043-4.464 2.756l-1.16-2.298c-3.917.581-7.579 5.42-11.224 3.12-1.797.382-1.498 2.34-2.275 2.916-.248.183-5.284 2.242-5.708 2.34-6.095 1.425-13.522.762-19.725 2.124-1.067.234-2.29 1.38-3.023 1.367-.724-.012-1.53-1.02-2.832-.944-2.503.146-9.227 3.691-9.564 6.584-.435 3.737.975 2.814 1.747 4.205.717 1.293.819 5.68-.354 6.507-.636.45-3.112.161-2.503 1.377.6 1.199 2.522.621 3.445 1.156.907.525.98 2.414 1.184 2.56.714.516 2.727-.956 3.731-1.09 6.334-.85 10.565 1.093 17.074-.749 1.132-.32 4.882-1.721 5.82-2.228 4.03-2.178 6.998-10.261 11.848-3.083l-1.712-.3c.404 1.33-1.6 4.554-2.546 5.223-.991.701-2.175.372-3.184.84-.812.378-1.283 1.552-2.007 2.017-1.47.945-3.114.452-4.05 2.838l-2.01-1.14c.025.635.176 1.268-.363 1.772-2.24 2.1-17.503 1.231-21.235 2.761l-1.598-1.604c-3.455 2.692-4.06 4.604-8.399 1.627l.545-1.678c-2.542 1.221-5.527-1.799-7.316-2.19-1.272-.28-3.006.883-4.462.928-1.507.047-3.682-.948-5.465-.463-.564 2.043 1.939.778 2.301 1.147.92 2.473-1.748 4.36-3.843 4.493-.773.05-1.324-.949-2.164-.995-2.374-.129-4.012-.493-5.808-.61-.907-.06-1.868.676-2.735.471-.201-.047-3.195-2.28-3.323-2.458-.644-.902-.338-2.077-.638-2.508-.384-.553-2.159-.452-2.903-.738-.499-.192-.472-1.118-.771-1.128-.438-.016-3.509.59-5.057.671-2.751.145-8.664 1.005-10.666-1.566-1.334-1.712.615-2.414-3.452-1.407-2.574-4.263-3.55-7.131-2.865-12.283 1.078-8.104 7.97-12.392 10.987-18.906 1.383-2.986 2.686-8.96 4.458-11.637.958-1.447 7.881-8.053 9.613-9.358 2.337-1.762 7.659-4.191 9.06-6.463.603-.977.334-2.257 1.215-3.382.227-.29 5.372-4.475 5.692-4.657.503-.285 8.334-1.729 9.208-1.708 2.475.058 11.548 3.694 12.89 2.823l.575-1.889c.803-1.141 2.896-.119 3.267 1.363.06.24.234 4.547.175 4.779-.31 1.221-3.15 2.732-3.647 3.876-.564 1.297-.147 2.657-.944 4.23-.307.607-8.433 9.391-9.106 9.864-1.476 1.034-3.019 1.018-4.014 1.735-.734.53-1.016 1.91-1.759 2.305-.917.488-2.941-.894-4.33-.935-1.195-.036-2.247.586-3.377.558-3.533-.089-8.94-3.642-8.966-7.423 2.114.074 5.12 3.18 7.236 3.446.932.117 6.197-.545 7.166-.831 2.907-.86 4.954-4.397 6.93-6.293 1.17-1.123 7.556-5.318 6.22-7.191-3.692.075-7.212-5.045-9.58-5.659-2.38-.616-8.306-.008-9.93 1.863-2.108 2.43-2.377 4.952-.579 7.48-.812 1.064-2.101.634-3.138 1.45-.428.337-.8 1.453-1.418 2.036-1.321 1.245-2.922 1.491-2.907 3.699m135.681 1.717-1.427-1.14-.866.868-.002.851zm-27.023 13.234h-1.144v.563h1.144zm-38.52 24.714h-1.144v1.144h1.144zm-84.511 4.015-1.144-1.144-.003 1.147zm12.936 2.88v.575q.56-.287 0-.575m4.884 1.727-1.147.003v1.713l1.147.003zm5.746.572c-.6 1.148-4.728-.884-4.014.854 1.029 2.502 4.811 2.997 4.014-.854m9.202.578h-2.294v1.142l1.435.567.856-.858zm-20.123 3.449h-1.144l.003.85.86.868zm11.79 2.296v.575q.56-.288 0-.575M368.812 111.692q.56.287 0 .575zM764.36 418.644q.561.288 0 .575zM405.607 123.763q.56.287 0 .575zM319.943 187.568q.56.288 0 .575zM607.406 208.836q.56.288 0 .575zM509.668 23.745q.561.287 0 .575zM616.61 239.313c.572.377-.268.76-.586 1.127l-.27-.27zM618.91 296.22c.571.377-.268.76-.586 1.126l-.27-.27z"/></g></svg>