<svg xmlns="http://www.w3.org/2000/svg" viewBox="0 0 261.73 200.49" width="262" height="200">
  <g fill="#4b3526">
    <path d="M259.56,143.53c-.74-.66-1.55-1.11-2.42-1.42.58-.23.85-1.44.21-1.84-4.29-2.54-8.55-5.52-12.45-8.71-3.79-3.29-6.72-7.48-10.05-11.22-3.55-4.43-8.48-8.21-11.92-12.82-.77-1.16-1.42-2.16-2.2-3.36-2.02-6.65-6.9-11.91-10.64-17.62-4.03-7.09-6.3-15.17-12.28-21.04-.82-.85-1.7-1.92-2.74-2.63,5.54-6.05,7.64-15.9,8.39-25.4-.07-6.11,1.58-12.14,1.22-18.21-1.7-11.17-16.26-11.58-25.08-9.99-9.14,2.24-15.16,10.17-21.96,16.13-2.86,2.56-5.11,5.68-7.61,8.57-1.03,1.18-2.35,2.15-3.22,3.46-.3-.16-.65-.23-1.05-.18-3.6-1.71-7.1-2.47-9.74-1.25-.04-.15-.08-.3-.15-.45-1.24-2.75-1.77-5.72-2.48-8.63-.69-3.51-2.05-6.96-4.69-9.47-2.3-2.92-4.46-5.96-6.71-8.92-2.93-3.37-5.75-7.65-10.47-8.51-8.82-.56-18.94,9.58-22.38,17.12-2.24,4.7-2.85,9.87-2.8,15.02.12,3.1-.14,6.38.86,9.36.45,1.7,1.23,3.28,2.24,4.71-.44.14-.86.3-1.24.45-8.73,3.82-13.56,12.22-20.13,18.66-5.81,4.96-10.8,10.78-16.26,16.1-3.76,3.5-8.75,5.14-13.26,7.43-6.81,3.44-13.66,7.9-21.27,9.32-1.81.34-3.61.17-5.52.27-.82.04-2.19-.16-2.44.88.01.17.06.28.13.38-1.9-.82-4.3-1.83-4.96,0-.22-.13-.45-.22-.67-.28-2.27-2.43-4.46,1.36-3.65,3.98.8,2.66,2.69,5.18,4.55,7.27,1.55,1.94,2.95,3.99,4.72,5.75,3.81,4.72,7.47,9.53,11.4,14.2,4.65,5.85,10.19,10.8,16.04,15.41,4.18,3.88,8.42,7.71,13.1,11,6.07,4.45,13.29,6.99,19.25,11.61,7.95,5.79,16.15,11.69,25.66,14.49,4.16,1.55,8.21,4.5,12.84,4.51h.05c2.27,0,4.98-.46,6.46-2.32,1.64-.98,1.95-3.03,1.54-4.8.26.26.61.37.97.37.95,0,2.02-.72,2-1.7-.24-3.15-.32-6.29.04-9.43.87-11.78,1.64-23.75,4.59-35.21,1.84-6.25,6.2-11.26,9.14-16.97,1.54,5.07,2.62,10.25,3.52,15.46.62,5.85-.12,11.73.51,17.6-.03,1.22.62,3.24.74,4.58-.03,2.49-.1,5.14-.11,7.67-.47,8.11-3.24,15.88-5.04,23.76-.4,2.2-2.06,4.76-.92,6.91.19.16.37.27.54.35,0,0,0,.02,0,.03-2.41,1.03-1.78,3.33.03,4.62,1.92,1.68,4.64,1.78,7.1,1.9,7.85-.4,15.77-.97,23.38-3.11,7.13-1.26,14.11-3,20.84-5.76,10.07-3.42,20.46-5.99,29.71-11.45,6.41-3.47,13.65-4.71,20.35-7.44,7.25-3.07,13.58-7.86,20.4-11.72,5.45-3.51,11.47-11.59,5.98-17.48ZM162.96,22.94c6.13-5.3,13.81-8.58,21.68-10.32,2.77-.38,5.85-.65,8.36.81.99.69,1.89,1.5,2.74,2.36-.35-.1-.7-.19-1.07-.25-8.25-1.04-14.7,5.67-21.14,9.79-5.97,4.64-12.51,8.72-19.5,11.63-.87.42-1.86.58-2.84.73,4.26-4.62,7.11-10.5,11.77-14.75ZM168.36,31.36c5.43-3.3,15.29-10.88,23.03-10.88,2.6,0,4.97.86,6.85,3.01v.08c.79,1.12.62,2.71.3,4-.61,3.16-1.93,6.17-2.44,9.39-.89,3.8-2.43,7.4-3.83,11.03-1.29,3.04-3.32,5.72-6.97,5.83-3.91.51-7.56-.9-11.23-2.22-3.84-1.54-7.64-3.24-11.15-5.46-1.85-1.07-3.28-2.72-5.33-3.47-2.1-.81-4.38-1.04-6.68-1.04h-.25c6.79-1.71,12.36-5.94,17.70-10.27ZM148.36,42.01c.24.01.51,0,.78-.06-.78.42-.89,1.82.2,1.79,1.23-.05,2.63.29,3.84.71.86.58,1.83,1,2.61,1.71,3.08,3.54,7.03,6.15,11.29,8.11,3.66,1.79,7.59,3.3,11.71,3.35.3.01.59.02.87.02,9.37,0,15.63-8.85,19.06-16.7,1.1-1.84,2.19-3.78,3.02-5.79-.5,2.14-1.2,4.25-1.86,6.32-1.81,6.74-4.29,13.42-8.1,19.34-7.29,10.84-17.85,6.22-25.84-.99-3.93-3.47-6.99-7.83-11.08-11.13-1.52-1.4-4.43-4.39-6.8-4.36.18-.78.28-1.56.3-2.32ZM146.40,48.23c.08.06.14.13.24.18.91.33,1.76.75,2.57,1.24,2.39,2.2,3.95,5.32,6.24,7.62.56.63,1.14,1.24,1.75,1.84.89,1.81,1.64,3.68,2.26,5.5.96,6.43.72,13.17-.11,19.59-.35,3.16,1.04,5.93,2.53,8.61,1.76,3.16,4.04,6.23,6.55,8.89,3.61,4.56,8.5,8,13.07,11.54,6.08,3.2,8.41,10.36,6.94,16.92-.02.2-.09.43-.18.67-.29.02-.61.11-.98.29-2.32,1.4-5.23,2.21-7.98,2.65-.82.11-2.11.43-2.82-.22.37-4.04,2.06-7.97,2.46-12.06.51-4.87-.79-10.71-5.03-13.68-2.04-1.51-4.42-2.42-6.45-3.95-7.37-5.13-11.67-13.44-15.23-21.35-.93-4.09-.02-8.31.85-12.36.62-3.45-.04-7-1.12-10.29-1.03-2.91-3.15-9.18-6.41-10.57.31-.33.59-.68.85-1.06ZM136.82,39.41c.26-.04.51-.05.76-.05,2.03,0,3.95,1.07,5.97,1.21.46.68,1.49.9,1.61,1.84.33,1.77.32,3.7-.73,5.25-.34.41-.81,1.29-1.47,1.31-2.63-.08-5.2-1.42-7.38-2.81-1.27-1.85.07-5.07,1.24-6.75ZM134.75,54.89h0c.14-.18.22-.45.34-.66.47-1.07,2.07-2.19,2.48-3.38.92.16,1.9.28,2.94.39.24.02.47.04.69.04.37,0,.72-.05,1.07-.11-.03.23-.03.46.04.69.19.61.76,1.02,1.23,1.43,1.54,1.46,2.56,3.32,3.54,5.18-2.45,1.06-4.85,2.59-6.51,4.68-1.62-2.94-3.75-5.63-6.05-7.98.07-.09.15-.17.21-.27ZM134.09,49.83c-.62.7-1.66,1.87-2.32,3.03-.77-.45-1.62-.75-2.46-.63.97-1.47,1.89-2.98,2.5-4.62.44,1,1.23,1.71,2.28,2.22ZM130.37,47.03c-3.61,11.24-16.11,15.99-23.71,24.21.26-.64.5-1.28.73-1.93,1.5-4.13,2.3-8.67,5.27-12.09,4.6-5.1,10.98-8.99,17.73-10.33-.02.05-.03.1-.04.14h.02ZM126.50,19.05c1.61,3.77,3.12,7.58,3.69,11.67.14.76.3,2.04.56,3.37-1.63-1.04-3.12-2.35-4.32-3.79-4.26-5.3-8.03-10.91-12.48-16.07-1.52-1.74-3.16-3.26-4.77-4.96-1.86-1.32-4.11-2.59-6.41-2.89,8.61-5.32,19.5,5.03,23.73,12.67ZM106.82,12.81c2.19,1.06,4.16,2.57,6.14,3.98,4.02,4.06,5.43,9.92,8.94,14.36,2.14,2.45,6.78,7.97,10.8,8.61-.08.19-.15.39-.22.59-.49-.23-1-.42-1.46-.54-3.81-.72-7.92-.53-11.64.56-2.8.65-5.5,1.65-8.41,1.54-3.4-.14-6.91-1.59-9-4.31-.67-1.19-.96-2.3-1.54-3.59-2.07-7.39-8.95-28.77,6.39-21.2ZM88.24,28.72c1.32-2.95,2.94-5.93,4.68-8.86-.75,6.74-.35,14.17,4.19,19.31,5.08,3.03,11.18,4.41,17.14,4.28,2.07.32,5.64-.18,7.97-.2.72.06,1.49.05,2.27.04,1.31-.02,2.65-.03,3.84.29-.83.31-1.63.69-2.35.9-2.33,1-4.46,2.3-6.46,3.8-7.1,1.74-14.98,2.09-21.62-1.34-6.82-3.23-11.64-10.57-9.65-18.21ZM9.07,103.59c3.14.66,6.15,2.14,9.30,2.82,6.70,1.58,12.22,5.37,17.81,9.19,4.69,3.21,10.02,5.2,14.97,7.91,3.69,2.19,6.71,5.34,10.32,7.66,5.88,4.14,12.89,6.12,18.71,10.37.71.51,1.39,1.04,2.06,1.59-.19,0-.39-.02-.58-.02-1.93.02-3.85.37-5.61,1.17-3.41,1.55-6.1,4.44-7.18,8.06-.45,1.51-.65,3.1-.56,4.68.08,1.43.32,2.88.88,4.2.12.29.26.57.41.84-3.51-2.43-6.56-5.57-9.45-8.65-2.96-2.74-6.16-5.37-9.63-7.47-8.77-5.76-15.46-14.04-24.05-20.01-4.32-2.74-7.61-6.84-10.43-11.05-3.03-3.99-6.68-7.59-9.30-11.87.76.23,1.6.34,2.33.58ZM89.90,151.4s.03.07.04.12c.03.08.06.16.10.24,0-.01,0-.02,0-.03,0,0,0,0,0,.01v.02h0c.02.07.04.12.07.18.01.04.03.08.05.13.14.43.29.97.40,1.53,0,.03,0,.06.02.09.11.72.17,1.44.19,2.16-.02.91-.11,1.82-.28,2.72-.18.79-.41,1.57-.70,2.33-.29.7-.66,1.38-1.04,2.04-.27.41-.55.79-.85,1.18-.30.33-.60.65-.92.96-.26.23-.52.45-.79.65-.25.17-.50.31-.76.45-.27.14-.53.26-.81.37-.33.13-.66.24-.99.33-.28.06-.56.11-.83.15-.27.03-.53.05-.79.07-.35,0-.69,0-1.04-.03-.19-.02-.56-.07-.92-.14-.30-.07-.60-.15-.90-.24-.20-.07-.55-.20-.89-.35-.32-.16-.64-.33-.94-.52-.42-.27-.81-.57-1.18-.89-.28-.25-.57-.55-.85-.86-.35-.42-.67-.86-.97-1.32-.03-.05-.06-.10-.09-.15-.42-.73-.78-1.46-1.08-2.23-.29-.75-.54-1.53-.70-2.34-.09-.56-.13-1.12-.15-1.69.02-.61.08-1.21.19-1.81.14-.61.33-1.21.55-1.8.21-.48.44-.95.70-1.41.30-.48.63-.93.99-1.37.32-.37.67-.73,1.03-1.07.32-.27.65-.53.98-.77.37-.25.75-.48,1.15-.69.34-.16.69-.32,1.04-.46.36-.13.73-.25,1.09-.35.31-.07.62-.13.94-.18.41-.06.83-.10,1.24-.12.30,0,.60,0,.90,0,.62-.02,1.34-.37,1.69-.94,1.78,1.65,3.47,3.38,5.17,5.12-.12.29-.16.61-.05.91ZM90.01,151.68s.01.01.01.02c0,0,0,0,0,0,0,0,0,0,0,0,0,0-.01-.02-.01-.03ZM113.05,183.18c-5.31-.41-10.62-1.57-15.80-2.88-2.52-.67-4.58-2.13-6.80-3.40-4.24-2.13-8.47-4.28-12.81-6.2-3.83-1.68-7.71-3.38-11.29-5.56-5.17-3.46-9.47-8.06-14.42-11.84-6.71-5.24-13.93-9.78-19.65-16.17-5.38-5.36-11.03-10.44-16.34-15.87-2.52-2.32-5.23-4.37-6.90-7.46-1.94-2.7-4.14-5.4-5.14-8.62,5.25,7.23,11.81,13.38,18.02,19.87,2.61,3.27,5.29,6.46,8.31,9.39,5.69,4.08,11.01,8.08,16.42,12.83,2.97,3.37,6.29,6.57,9.99,9.19,3.77,2.19,7.48,4.65,11.52,6.36,1.24.65,2.46,1.36,3.66,2.09.66.63,1.40,1.19,2.18,1.68.65.41,1.32.76,2.02,1.06,1.74,1.2,3.43,2.44,5.10,3.69,8.29,4.76,16.97,9.10,26.69,9.71.35.01.68.03,1.01.03.75,0,1.50-.06,2.25-.21.83-.04,2.09-.34,1.66-1.45-.48-1.04-1.48-1.04-2.51-1.04-.55.01-1.11.01-1.59-.15-8.58-1.71-16.47-5.64-24.30-9.44.72-.09,1.43-.22,2.13-.40.41-.11,1.02-.30,1.62-.53,1.86-.70,3.83-1.84,5.33-3.52,1.20-1.35,2.15-2.95,2.63-4.71.20-.74.31-1.49.36-2.24,4.42,4.88,9.02,9.62,12.71,15.07,2.09,2.6,3.26,4.44,4.77,7.49.40.70.68,1.64.70,2.52-.31.52-1.06.36-1.53.7ZM132.94,105.75c-.62,2.24-2.27,4.02-3.43,6.01-4.33,6.23-4.73,13.94-7.03,20.96-2.77,7.45-6.40,14.67-7.62,22.63-.68,3.82-.44,7.73-.64,11.59-.26,4.02.05,8.02.98,11.92-3.08-8.43-8.29-16.13-14.31-22.85-1.98-2.14-4.15-4.05-6.41-5.83-.02-.03-.03-.06-.05-.09-.02-.04-.04-.07-.06-.09,0,0-.01,0-.01,0-.26-.36-.65-.60-1.08-.74-6.74-5.14-14.20-9.38-20.24-15.46-3.15-2.72-6.30-5.45-9.86-7.65-4.80-2.77-9.91-4.95-14.43-8.18-7.96-6.78-18.39-8.66-27.55-13.22-3.28-1.64-6.47-3.35-10.03-4.36-.28-.07-.63-.20-1.02-.36.48,0,1.05-.17,1.44-.19,2.44-.17,4.92-.15,7.37.14,5.22.08,10.29-2.10,15.07-4.06,6.08-1.74,11.31-5.29,16.19-9.20,4.24-3.37,9.02-6.11,12.73-10.11,3.28-3.26,5.54-7.31,8.07-11.14,2.27-3.09,4.96-5.85,7.90-8.31,3.67-2.73,6.93-6.24,11.46-7.54.46-.1,1.01-.35,1.47-.70,3.23,2.93,7.59,4.73,11.87,4.73.30,0,.59,0,.89-.02,3.39-.1,6.95-.39,10.24-1.31-.89.87-1.75,1.76-2.59,2.67-3.51,3.84-6.98,7.87-9.23,12.58-2.71,6.47-3.43,13.68-7.84,19.48-3.74,4.61-7.80,8.96-11.76,13.38-4.10,3.31-9.19,5.19-14.53,4.28-3.37-.04-1.60,8.21-1.47,10.38.36,1.61.19,3.80.79,5.29-.93-.65-1.89-1.27-2.87-1.84-4.25-2.52-8.92-4.16-13.25-6.54-7.17-4.27-14.43-8.45-22.17-11.64-1.12-.59-3.16-.63-3.14,1.05.20,2.03,2.50,2.52,4.11,3.11,6.84,2.86,13.90,5.52,20.42,9.16,7,4.76,13.38,10.32,21.03,14.16,7.03,3.98,12.28,10.32,19,14.76,7.08,4.86,13.88,10.80,17.91,18.51.23.51.67.73,1.07.73.58,0,1.06-.50.51-1.31-2.37-3.47-4.72-6.99-7.46-10.22-3.96-4.02-6.96-8.99-11.16-12.81-4.47-4.16-10.05-6.75-15-10.25-2.28-1.70-4.47-3.52-6.74-5.23.09,0,.16.02.26.02.27.02.54.03.80.03,3,0,5.79-1.31,8.30-2.88,3.83-2,6.60-5.38,9.71-8.33,3.71-3.23,6.09-7.41,8.33-11.72,2.51-3.84,3.08-8.65,3.88-13.1.40-4.33,3.13-8.06,6.32-10.88,7-6.24,13.94-12.66,19.47-20.27.11.18.25.34.46.47,3.90,2.77,6.94,6.73,9.55,10.73,1.63,3.49,2.82,7.26,3.69,11.01.47,5.03-1.63,9.66-3.16,14.32-1.60,3.87-3.16,7.80-4.33,11.83-.25.60-.66,1.78-.81,2.51ZM95.43,94.16c-.19,1.39-.37,2.78-.63,4.15-.44,2.53-2.10,4.73-2.97,7.13-3.20,7.55-12.15,11.81-20.12,11.88-.50-3.68-1.98-7.21-2.85-10.84,5.93,1.26,11.95-.65,17.33-3.05,3.78-2.21,6.36-6.06,9.24-9.27ZM135.28,187.87c1.58-7.07,3.02-13.95,3.43-21.23.51-5.42,1.15-10.8,1.91-16.14.38-4.49-.30-8.96-1.02-13.38-.95-8.07-.32-16.42-3.26-24.16-.42-.81-.91-1.27-1.40-1.48.48-1.69.92-3.39,1.78-4.91,2.50-4.33,4.87-8.92,5.97-13.84.81-3.38.99-6.87.87-10.35-.13-3.69.29-7.36-.17-11.04-.22-1.71-.68-3.39-1.31-5.01.58-.24,1.10-.67,1.45-1.13,1.28-1.34,2.74-2.51,4.41-3.33.16-.06.33-.13.50-.21.99,3.13,1.26,6.45,1.64,9.73-.22,4.24-.37,8.54-.70,12.77-.23,1.60.36,3.72.48,5.42,1.06,3.43,2.62,6.73,4.99,9.47,2.64,3.01,6.16,4.90,9.24,7.38,2.07,1.98,4.02,4.05,6.02,6.12,3.07,3.52,5.56,8.04,5.75,12.86.33,3-1.25,6.32-.73,9.11.67,1.34,2.43,1.63,3.82,1.67h-.19c.33,0,.66,0,.99,0,2.98,0,5.83-.62,8.59-1.98.93-.43,1.37-1.23,1.39-1.95.27-.35.42-.81.45-1.26.97-4.59.15-9.53-1.73-13.8-1.40-2.68-1.99-5.15-3.17-7.22-3.66-5.51-9.39-9.04-14.59-12.90-3.15-1.82-4.45-5.22-5.48-8.54-.69-2.34-.45-4.83-1.12-7.17-.47-6.31-1.18-12.67-2.82-18.8,4.62,3.36,10.06,5.58,15.78,5.92,1.36.18,2.63.26,3.85.26,4.43,0,8-1.14,10.89-3.07.05.07.09.16.16.22,4.03,2.88,7.38,6.61,9.82,10.92,2.41,3.63,4.93,7.20,6.79,11.17,1.97,4.37,3.12,9.09,5.59,13.26,1.19,1.99,2.17,4.33,4.14,5.66,3.83,5.20,6.68,11.16,11.20,15.82,4.22,4.33,9.61,7.12,14.64,10.39,4.10,2.85,8.03,5.95,12.19,8.73-2.13-.54-4.49-.39-6.72-.32-5.90.17-11.79.96-17.62,1.92-6.03,1.17-11.96,2.88-17.76,4.82-5.58,2.69-11.54,3.96-17.62,5.10-6.08,1.27-12.06,3.15-17.39,6.41-4.17,2.34-8.28,4.68-12.72,6.55-8.71,3.77-14.72,11.38-22.50,16.55-2.58,1.67-5.17,3.33-7.44,5.42-.37.40-.98.85-1.65,1.33.15-.71.27-1.36.38-1.77ZM182.83,173.02c-.42-1.74-1.27-3.47-2.54-4.89-1.03-1.25-2.51-2.28-4.19-2.90,3.14-1.35,6.47-2.24,9.63-3.54,5.71-2.15,11.01-4.76,16.48-7.52,4.39-2.11,9.19-3.01,14.02-3.42,3.68-.84,7.43-1.35,11.15-2,9.05-1.40,18-4.36,27.19-4.36.51,0,1.04.02,1.56.04-.42.21-.80.53-1.02.91-.90,1.67-2.23,2.98-3.63,4.24-7.55,5.40-15.16,10.81-23.17,15.52-7.23,3.97-15.84,4.12-23.19,7.75-4.46,2.29-8.75,4.87-13.24,7.09-3.59,1.33-7.07,2.50-10.60,3.85,1.83-3.23,2.45-7.17,1.55-10.78ZM159.84,183.96c1.44,2.79,3.90,4.89,6.80,6-2.45.82-4.95,1.47-7.54,1.82-4.37.66-8.78,1.45-13.22,1.37-3.14.06-6.30-.25-9.42-.43,4.53-3.91,8.53-8.57,13.53-11.94,2.74-1.98,5.81-3.39,8.78-4.98-.54,2.74-.22,5.66,1.07,8.16ZM165.70,184.92c-.45-.37-.87-.77-1.27-1.20-.37-.44-.70-.91-1-1.39-.24-.42-.45-.86-.64-1.31-.17-.45-.31-.91-.43-1.38-.08-.40-.15-.81-.19-1.22-.03-.38-.04-.77-.03-1.15.02-.38.06-.75.11-1.12.08-.37.17-.74.27-1.11.09-.29.20-.57.31-.86.15-.33.30-.64.48-.95.03-.06.07-.11.11-.17,1.92-1.20,3.79-2.48,5.66-3.75.24.21.53.37.90.41h.02s.09,0,.14,0h.1c.05.01.09.01.13.01.03,0,.06,0,.08,0h.12s.09.01.13.01h.05c.07,0,.14.02.21.03.39.05.86.13,1.33.24l.16.04s.03,0,.05,0c.75.21,1.48.49,2.20.82.80.40,1.55.88,2.27,1.42,0,0,.01,0,.02,0,.01.02.04.04.06.06h.01s.05.04.08.07c.46.39.96.87,1.43,1.40.36.44.70.90,1.01,1.38l.10.16c.21.40.41.80.58,1.21.12.31.22.64.30.97.07.30.11.62.15.92,0,.02,0,.05,0,.07.02.27.03.53.02.80,0,.32-.04.63-.09.95-.04.26-.09.52-.16.77v.03s-.03.08-.04.11c-.08.24-.19.54-.31.84-.12.26-.25.52-.39.78-.10.17-.29.47-.50.77-.09.12-.29.36-.50.59-.24.26-.51.50-.78.74-.21.17-.43.33-.65.48,0,0-.02.01-.03.02-.61.29-1.21.58-1.82.86-.17.06-.33.14-.51.19-.49.13-.98.23-1.48.3h-.01s-.07,0-.10,0c-.56.05-1.20.07-1.84.04-.92-.07-1.86-.19-2.76-.41-.55-.15-1.08-.34-1.59-.59-.52-.27-1.01-.57-1.48-.93ZM257.34,151.04c-2.64,3.24-5.76,6.10-8.75,9.01-7.27,5.43-16.18,8.01-23.72,13.06-7.78,5.17-17.27,5.78-25.84,9.02-5.04,1.86-9.85,4.26-15,5.83-4.76,1.40-9.66,2.33-14.37,3.91-5.30,1.79-10.60,3.53-15.98,5.06-2.28,1.14-4.84,1.55-7.36,1.88-3.44.13-9.68.95-11.57-2.35,1.15.30,2.44.30,3.58.46,6.27-.05,12.76-.03,18.80-1.89,4.84-1.32,9.52-3.18,14.38-4.35.68-.08,1.35-.22,2-.43,1.14-.22,2.30-.41,3.47-.53,5.60-1.01,10.54-3.55,15.45-6.59,3.38-1.65,7.02-2.64,10.54-3.96,5.09-2.24,10.13-4.72,14.91-7.62,4.69-2.99,10.06-4.70,15.28-6.54,2.52-.77,5.11-2.28,7.46-3.57,5.46-2.82,10.92-6.15,14.79-11.01.66-1.10,3.38-3.82,2.89-5.37.38.21.74.45,1.04.73.73,1.87-.79,3.89-2.01,5.24Z" />
    <path d="M74,166.6s0,0,0,0c-.02,0-.03-.02-.05-.03l.05.03Z" />
    <path d="M141.46,176.17c.26.11.54.16.81.16.87,0,1.73-.52,2.33-1.13,1.49-1.48,3.03-2.92,4.65-4.25,2.75-2.31,6.03-4.35,8.83-6.64,6.98-5.85,15.91-7.89,24.08-11.52,3.83-1.6,7.45-3.82,11.48-4.93,5.51-1.28,11.08-2.26,16.43-4.18,4.08-1.14,7.86-3.12,11.97-4.15,6.24-1.56,12.67-1.69,19.05-1.27.92,0,1.92-.73,2.09-1.65.16-1.84-2.09-1.38-3.29-1.27-6.43.86-12.91,2.12-19.38,2.74-6.26.6-12.61.96-18.63,2.99-6.52,2.74-13.11,5.06-19.9,7.05-6.32,2.18-11.77,6.01-17.27,9.68-4.87,3.28-10.48,5.39-15.18,8.99-1.51,1.47-11.54,7.32-8.07,9.38Z" />
    <path d="M80.07,158.46c-1.04-1.18-1.78-3.11-.97-4.57,2.01-1.69-.05-4.5-2.29-3.69-4.10,2.31-1.92,8.59,1.17,10.9.39.34,1.01.59,1.60.59.53,0,1.04-.21,1.31-.75.47-.9-.15-1.89-.82-2.48Z" />
    <path d="M126.20,68.28c1.87,3.17,3.4,6.58,3.56,10.33.60,4.78.93,9.7-.50,14.35-1.28,4.85-4.81,8.44-7.22,12.7-3.02,4.62-3.23,10.4-5.76,15.26-1.71,4.01-3.26,8.04-4.15,12.34-.19,2.14-1.96,4.94-.78,6.9.48.49,1.07.71,1.69.71,1.51,0,3.16-1.28,3.49-2.72,2.28-7.58,2.56-15.71,5.77-22.96,2.23-4.24,4.52-8.6,5.65-13.3.57-1.46,1.23-2.74,1.65-4.39,1.86-4.74,4.03-9.45,4.29-14.61-.48-5.65-.54-11.72-3.73-16.64-1.30-2.16-4.68-.22-3.96,2.03Z" />
    <path d="M200.73,98.42c.38,2.27,1.16,4.42,2.07,6.52,1.45,3.48,2.54,7.15,4.86,10.18,2.62,3.78,6.22,6.68,9.15,10.22.32.29.64.41.96.41,1.43,0,2.73-2.39,1.62-3.56-4.30-3.90-6.47-8.91-9.52-13.82-2.03-2.89-3.38-6.18-4.96-9.34-2.54-3.35-4.22-7.19-5.85-11.04-1.94-4.90-5.60-8.90-9.12-12.73-1.82-1.60-3.85-4.40-6.19-4.98-1.43,0-2.49,1.69-2.13,3.02.28.93,1.12,1.42,1.87,2.02,4,2.80,7.20,6.43,10.15,10.29,3.24,3.74,6.08,7.87,7.09,12.81Z" />
    <path d="M171.28,183.66c2.54,0,1.95-3.3-.81-3.79-.75-.34-1.45-.93-1.81-1.7-.12-.85-.53-1.70-1.37-2.06-1.01-.54-2.57-.30-2.69,1.08-.34,3.04,3.02,5.47,5.66,6.33.39.1.72.14,1.02.14Z" />
    <path d="M108.63,178.23h.02s-.02,0-.03,0t0,0Z" />
  </g>
</svg>
