<?xml version="1.0" encoding="UTF-8"?><!DOCTYPE svg PUBLIC "-//W3C//DTD SVG 1.0//EN" "http://www.w3.org/TR/2001/REC-SVG-20010904/DTD/svg10.dtd" []><svg xmlns="http://www.w3.org/2000/svg" xmlns:xlink="http://www.w3.org/1999/xlink" height="836" viewBox="0 0 936.477 836.177" width="936"><g filter="none"><path d="M357.09 341.61c-1.41-4.007-5.288-5.715-9.336-5.127-7.859 1.142-18.372 6.914-25.58 10.613-1.756.9-4.993 3.534-6.436 3.957-1.698.498-2.72-.506-4.332.085-2.887 1.059-9.243 6.166-12.703 8.04-7.104 3.852-18.841 9.882-26.743 5.837-5.93-3.037-2.164-7.56-2.824-8.47-.769-1.058-15.525-5.208-17.893-5.72-4.196-.905-13.352-2.73-17.296-2.795-2.392-.039-4.515.871-6.783 1.35l2.581 1.925-11.634-.635c.603 2.64-.23 5.165.073 8.009 1.654 15.543 10.473 32.032 12.82 46.65.225 1.41-.237 1.06-.945.294-2.403-2.596-2.378-7.691-5.476-9.71.376 2.98.819 6.62 1.904 9.402.365.934 4.357 8.846 4.731 9.206.299.287 1.276-.059 1.807.545 2.198 2.5 8.046 20.762 9.996 25.428 3.439 8.233 7.432 16.555 11.045 24.55 2.178.68 12.871-8.785 15.789-6.793 1.207.824 1.763 5.115.61 6.499-.847 1.015-6.363 3.595-7.955 4.323-1.52.696-4.838.909-4.996 2.79 3.986 13.303 5.515 27.288 9.145 40.66.47 1.73 2.244 4.274 2.488 5.91.02.126-1.96.611-1.266 2.232l-2.278-8.378c-5.105-5.652-6.203-16.603-8.531-24.436-.636-2.14-3.91-13.928-5.115-14.319-4.37.252-9.848 2.762-14.153 2.608-1.126-.04-.84-1.172-1.43-1.32-7.286-1.83-16.365-.53-23.752-.702-8.18-.19-16.898-3.691-25.22-3.862-7.1-.146-13.295.485-20.67-.665-5.822-.908-8.333-4.535-13.88-5.521-4.237-.754-5.845-.831-10.329-1.943-2.22-.551-6.366.222-7.69-2.003-1.383-2.326-.906-6.71 2.164-7.312 9.226-1.805 8.042 6.068 13.711 8.882 2.916 1.447 3.921-.076 6.15.26 3.3.496 7.928 4.456 11.193 5.027 17.668 3.09 39.526-.628 58.105 2.659 7.19 1.272 9.15 2.604 17.303.421 1.361-.364 7.038-2.363 6.892-3.89-3.962-9.067-7.564-18.291-11.424-27.401-7.765-18.33-15.622-36.532-21.146-55.777-3.023-10.532-4.302-21.616-6.843-32.263-5.785-1.033-11.114 1.35-16.582 2.359-2.925.54-6.43.455-9.245 1.097-13.093 2.987-22.172 12.268-35.377 14.397-2.127.343-4.3-.114-6.217.248-7.672 1.45-16.048 5.26-23.659 2.512-1.68-2.283 9.984-5.386 11.362-5.759 16.747-4.532 28.171-6.522 44.023-14.802 6.493-3.391 13.082-11.748 20.782-5.82l-.534 4.407c6.46-1.122 12.769-3.292 19.245-4.343 15.09-2.448 17.3.989 30.269 2.335 4.83.502 8.751-.44 14.081.793 2.356.545 14.207 4.312 13.938 6.723l-2.548 2.895c7.304.945 11.7 1.138 18.523-1.833 10.155-4.422 19.267-12.832 29.323-16.573 10.302-3.833 20.155-6.452 31.159-4.682 2.782.448 8.696 2.952 10.42 2.867.948-.046 10.89-3.951 12.697-4.673 14.679-5.866 30.132-14.372 46.34-6.887 3.002 1.386 8.963 4.06 5.712 7.852-17.386-9.729-35.513-.853-51.182 7.662-6.614 3.594-12.61 9.967-20.937 8.223-4.005-.839-7.699-5.15-5.072-9.021 1.897-2.796 3.138.625 4.782 1.235.691.256 4.526.101 4.85-.332m45.898-15.502c-2.22.008-4.56.465-6.69.998-.596.15-1.488-.441-1.71.928zm-179.38 67.22v.646q.629-.324 0-.647M300.209 752.073l-16.562-8.319c-1.628-.387-11.392-5.012-11.877-4.6-1.144.972.89 1.42 1.22 1.665 18.918 14.045 32.74 20.53 55.52 27.238 2.158.636 4.424.935 6.601 1.473.086-1.138.008-2.255-.162-3.387-1.08-7.183-3.491-15.059-4.829-22.319-1.796-9.748-5.116-24.6-4.7-34.09.034-.786-.491-2.403.64-2.253-.537 8.128 4.004 15.163 4.543 23.268l1.275-.651c-1.234 3.107.955 4.761 1.758 7.624 3.318 11.833 6.04 23.783 10.464 35.29 4.649.663 8.622 3.245 12.99 4.605 4.627 1.441 14.104 2.22 17.468 3.864.3.147.818.84.636.973l-3.875.326c9.59 4.308 16.073 10.1 22.243 18.481 1.736 2.359 2.9 5.503 4.918 8.01 2.089 2.598 9.73 8.698 10.652 10.697.732 1.585-.452 6.736-1.343 8.337-1.894 3.407-12.937 7.304-16.839 7.726-7.048.762-12.273-1.655-19-2.817-1.416-2.879 2.798.229 3.878-1.95-.688-1.447-2.322-2.333-3.17-3.284-.47-.529-1.17-.695-.061-1.253 1.681-.846 9.345-2.616 11.39-2.826 4.02-.414 8.899-.218 7.911 5.006l-7.004 3.32c7.427 1.739 11.972-.636 13.28-8.36.84-4.947-1.075-6.784-3.706-10.583-6.634-9.581-12.813-15.057-23.363-19.947-2.824-1.309-21.755-9.246-23.06-8.285 1.622 2.94 2.066 20.667 5.494 20.661 4.613-4.49 2.72-.298 3.015 2.111.189 1.537 1.433 2.6 1.838 4.031-3.587 3.202-12.315-.976-14.054-4.68-2.2-4.688-4.855-17.065-6.32-22.769-.454-1.77-.887-7.405-1.588-8.107-6.852-2.44-13.782-4.464-20.496-7.301-7.235-3.056-17.858-7.823-24.581-11.618-4.028-2.273-5.388-6.959-11.204-8.201-.837-.179-1.504 1.024-2.825.978-2.92-.1-10.865-7.203-13.302-9.396 2.882-.055 5.022 3.346 7.433 4.2 1.358.48.9-.35.451-1.077-1.67-2.7-5.872-4.611-8.917-5.342l.369.612c-.12 3.733-3.783-1.66-4.529-2.24-3.332-2.596-7.73-4.51-10.988-7.128-9.316-7.481-16.735-20.426-24.865-29.434-1.04-1.153-3.1-2.13-3.616-2.848-.834-1.16-.522-2.755-1.09-4.08-.75-1.747-3.243-3.081-4.3-4.75-.692-1.091-2.95-6.403-.075-5.752 6.254 3.913 11.103 8.903 16.186 14.204 13.4 13.977 27.241 28.486 43.68 39.062 8.652 5.567 18.292 9.692 26.448 15.885m-36.2-16.16-2.915-2.566-.304.304c1.047.902 1.77 2.486 3.219 2.262m101.948 48.67c-1.187-.9-7.039-2.618-8.84-3.115-3.042-.841-6.675-1.197-9.713-2.24-1.273 1.78 3.075 3.32 4.375 3.7 4.833 1.411 10.196 2.062 15.012 3.404.077-.058-.67-1.624-.834-1.748m3.416-.823h-1.933v.633h1.933zM95.938 149.634c5.068-12.354 18.2-25.006 26.486-35.246 5.695-7.038 10.912-14.512 16.494-21.644l2.257-1.615c-2.09 2.804-3.723 6.245-5.902 8.959-2.333 2.906-5.942 4.945-7.795 9.011-.167.365-1.31 3.12.45 2.392 1.977-.819 4.367-5.862 6.453-7.124 2.484-1.504 6.201-2.58 8.78-4.794.73-.627 8.045-9.87 8.238-10.51.697-2.3.238-4.73-2.453-3.427 3.004-5.21.155-11.68-.583-17.19C146.56 54.98 143.28 44.298 146 30.66c3.345-16.767 23.086-33.287 40.728-30.31 4.437.749 7.684 5.666 7.398 10.026-.06.912-1.015 1.461-1.06 2.41-.064 1.376 1.117 3.673 1.147 5.34.119 6.502-11.748 26.279-15.42 33.043-2.798 5.153-11.683 18.64-11.795 23.799-.181 8.357 2.69 18.756 3.273 27.163.294 4.24-.303 8.68.015 12.913.618 8.217 3.952 17.29 5.081 25.946.467 3.572.27 7.889.737 11.545 2.091 16.358 7.027 30.151 10.157 46.08.847 4.309 1.226 8.764 2.11 13.07-.624-.146-1.846-1.716-2.027-2.194-2.146-5.684-2.687-13.76-4.185-19.794l-1.532-1.28-.326 1.937c-2.407-4.112-.627-10.772-4.845-14.217l-1.942 3.229c-6.516-29.377-13.399-58.67-21.193-87.727l-1.112-1.46c-.334.308-.671.612-.974.952-1.62 1.817-7.188 12.158-7.819 12.544-.172.105-1.291-.818-2.494-.295-1 .435-11.346 14.806-13.219 17.226-17.473 22.588-30.845 42.653-41.42 69.762-2.866 7.348-5.06 15.448-6.158 23.257-1.24-.18-.655-3.26-.561-4.12.57-5.22 3.849-10.296 2.5-15.268-1.004-.763-3.495 5.489-3.724 6.287-3.159 11.03-6.561 22.51-9.529 33.78-9.345 35.494-1.193 81.982 3.232 118.297l-.307 5.816c-.457-6.965-3.361-12.798-5.187-19.382-1.217-.133-.522 1.356-.455 2.068.203 2.138.549 3.693.46 6.016-.03.783.49 2.402-.636 2.25-.094-2.599-1.423-5.02-1.896-7.481-.758-3.942-.383-8.635-.661-12.147-.03-.386-1.21-.335-1.677-1.65-1.152-3.248-2.829-11.62-3.47-15.3-.247-1.416-.5-3.715-.63-5.195-.063-.726-.598-2.32.562-2.175.703 4.255 1.295 8.978 2.802 13.039.248.668.872 2.46 1.724 2.467-.103-4.14-.943-11.369-2.728-15.063-.516-1.07-1.763-.93-2.164-2.322-2.46-8.542-.208-18.4-.22-26.89-.009-6.956-1.608-16.387-.642-23.215.51-3.614 3.282-8.808 4.285-12.519 2.355-8.712 3.904-16.709 6.98-25.34 7.88-22.114 14.8-44.88 28.11-64.65-.195.425.012 1.892-.495 3.04-1.151 2.606-2.91 5.348-4.156 8.146-.216.483-1.329 2.09.129 1.424l12.916-21.35c.32-1.131-.484-1.327-1.297-.647-1.943 1.625-3.576 6.823-6.451 8.093m90.466-137.07c2.536-6.5-6.063-7.141-10.665-5.815-5.293 1.525-12.851 9.586-14.208 14.879-1.398 5.452.57 9.707.983 14.57.664 7.826.562 16.007 2.091 23.791.348 1.77 1.805 1.774 1.805 2.106l-.005 5.447c1.666.269 1.002-.172 1.346-.91 1.59-3.412.417-4.568.715-7.026.718-5.922 9.27-18.898 12.075-24.786 3.257-6.837 5.698-14.805 3.306-22.22zm1.97 1.97-.004-2.58-.631.002-.652 2.577zm-34.898 62.703c8.775-3.92 4.093-10.888 2.896-17.446-2.157-11.824-2.38-24.66-.842-36.39.191-1.456 2.247-3.097 1.812-4.986-7.223 6.18-7.587 13.444-8.334 22.37zm-6.473-37.487c-2.406-.543-1.369 3.849-.317 4.518zm12.925 5.164v-4.518h-.634v4.518zm10.983 100.837c.098-1.108 1.097-1.869 1.277-2.94 1.068-6.35-7.967-28.63-9.517-36.96-.352-1.894.087-3.8-.217-5.6-1.295-7.67-2.33-15.453-4.133-23.01l-2.905 3.875 2.576-.973c-.843 1.22-3.37 2.72-3.758 4.023-1.396 4.689 5.455 22.743 6.815 28.479 2.108 8.896 3.062 18.582 5.464 27.508.342 1.214 2.029.797 2.531 1.488 1.045 1.435-.417 4.634 1.867 4.11m2.591 14.223c-.052-1.437.405-4.506-1.28-5.165zm-1.286 3.875-1.286-1.286-.003 1.289zM64.903 336.44v-1.933h-.633v1.933z"/><path d="M95.291 150.927c.208-.452.498-.93.647-1.293zM381.659 110.204c13.102.556 22.121-6.868 29.356-16.862 5.037-6.957 7.718-14.008 4.9-22.572-5.712 1.524-10.627-2.042-8.619-8.301.44-1.369 1.41-2.028 1.981-3.185 1.558-3.155-.585-3.247 4.697-4.024.936 1.165-5.22 7.89-2.283 8.29 3.418-.116 6.396-2.816 9.737-2.536.32.027 3.159 2.457 3.26 2.64.779 1.404-1.648 5.565-1.707 7.451-.082 2.665 1.415 6.337.689 9.364-2.431-.602.882-3.72-1.93-3.231-.468 13.898-10.855 29.777-24.218 34.285-5.044 1.701-13.29 2.392-17.643 4.288-1.368.596-1.79 3.195-3.087 4.09-1.104.271-1.782-1.724-2.659-1.872-.526-.089-3.46 1.925-5.394-.073-.295 1.192-.601 2.276-.688 3.53-.312 4.534.922 11.453.399 15.254-.514 3.733-10.459 18.047-13.606 20.663-1.185.985-10.7 5.348-9.38 7.098l2.577-.007c-4.451 1.043-8.92 2.173-13.409 3.079-2.309.466-3.897-.615-5.636 1.475-1.628 1.956-5.473 13.297-5.54 15.848-.109 4.107 2.793 4.104 4.83 6.796 1.74 2.297 3.087 5.39 4.9 7.71 1.034.218.825-1.849 1.6-1.922.58-.055 9.779 5.21 7.374 7.685-4.61.96-9.853 1.644-13.987-1.077-4.033-2.655-8.703-13.244-9.136-18.01-.543-5.983 1.393-12.977.576-19.181-3.381-2.67-6.784-5.33-9.694-8.55-2.376-2.632-7.319-8.976-7.557-12.35-.147-2.08 1.018-6.21 3.698-5.092 1.429.596.713 2.785 1.378 3.412 1.133 1.066 2.425-.605 4.848 2.33 1.567 1.897 1.272 1.075 1.808 1.647.77.822 1.497 4.263 3.236 3.923l2.691-3.808 4.734 1.86 1.65-5.164c5.654 3.554 8.429 1.077 13.43-1.432 6.263-3.142 9.635-6.07 13.66-12.182.436-.663.244-1.895.698-2.533.674-.947 2.7-.85 4.441-3.963 5.498-9.825 2.902-19.113 2.346-29.655l1.294 2.578c1.008.18.719-.929.646-1.609-.534-4.962-4.041-11.153.319-15.836.489 4.012.765 8.609 1.665 12.55.504 2.206 1.869 6.725 3.057 8.576 2.489 3.876 2.638 1.674 4.614 2.468 1.377.552 2.976 3.45 5.202 2.902.834-3.533-1.481-6.61-1.247-9.925.44-6.234 7.859-18.776 13.215-22.38-.174 1.53-5.444 5.962-2.582 7.092.937.37 1.649-1.77 2.578-2.576.508-.44 3.108-2.397 3.55-1.94.037 2.356-2.35 3.574-3.498 5.223-1.543 2.22-8.134 13.218-8.134 15.136zm.003-21.98c2.194.04 3.62-1.759 3.558-3.863-1.085 1.328-3.664 1.763-3.558 3.862m-49.775 73.042c6.351-.225 11.9-2.152 16.811-6.13 3.721-3.013 13.778-14.762 10.38-19.453-1.85-2.554-3.428 1.033-4.401 1.684-4.688 3.136-13.548 6.169-16.94 8.748-2.018 1.536-2.071 4.16-5.207 3.526 2.993 3.322-1.014 7.668-.643 11.625m-18.746-8.396c-.371.37.538 1.923.966 1.923 1.79-.001.01-2.9-.966-1.923m7.753 7.1c-1.109-1.72-2.992-3.745-5.168-3.868-1.1 1.054 4.006 4.208 5.168 3.868M577.426 567.739c.213-.097 2.268-2.745 3.649-2.476.853.31-.749 1.354-1.019 1.567-7.23 5.708-18.085 12.344-26.434 16.23-16.322 7.593-37.716 7.822-55.094 12.78-3.638 1.037-7.253 2.955-10.208 5.327l2.538 3.299-2.232 2.804-24.04 15.397c-8.624-.314-4.216-6.24-.188-9.898l-1.026-1.576c-16.774 1.846-32.691 6.916-49.688 7.755-7.462.369-15.94.73-23.297.618-4.667-.072-10.171-2.355-14.844-2.604-4.765-.254-9.77 1.344-14.25 1.369-5.515.03-15.246-.186-20.6-.785-3.045-.342-14.521-4.646-10.76-8.655 2.068-2.206 13.332 1.57 16.683 2.085 15.949 2.45 35.517 4.637 51.553 4.685 23.777.072 46.694-5.45 70.299-8.51 6.728-3.552 11.846-9.342 17.968-13.707 14.127-10.072 28.518-6.608 44.05-11.543 9.749-3.097 35.046-16.452 43.107-22.826 10.606-8.386 22.788-21.442 35.002-27.7 1.034-.53 2.582-1.448 3.687-1.557 1.8-.177 8.224 4.818 5.363 7.379-8.983 6.003-17.545 12.593-26.203 19.041-2.174 1.62-5.45 5.237-7.745 6.476-2.369 1.28-6.185 1.41-8.097 4.172.527.564.9 1.275 1.826.853m22.725-21.855-3.202.994-13.605 11.921c6.645-2.751 11.77-8.012 16.807-12.915m-38.455 28.449-2.903 2.255c.901.169 3.21-1.228 2.903-2.255m-6.472 3.865v.646q.63-.322 0-.646m-6.137 3.226c1.633-.206 3.32-1.15 4.508-2.263-1.267.379-3.87 1.063-4.508 2.263M621.483 141.231l3.871 2.584c.15-1.665 1.371-3.17 1.347-4.874-.024-1.705-1.38-2.028-1.336-3.524 4.674-.573 3.174 2.906 3.878 5.34.204.706 1.878.845 2.324 2.385.476 1.642-1.364 3.436-1.03 5.196 1.27 1.26 5.982-3.501 6.801-4.504 4.562-5.579 11.89-24.955 11.304-32.008-.7-8.453-8.863-14.753-16.66-16.321-8.497-1.709-12.537.686-20.786-4.425-1.056-.655-8.533-6.13-7.17-7.375 4.214.76 3.696-5.264 5.256-8.649 6.242-13.534 26.442-14.635 36.442-4.929 3.449 3.348 7.68 14.098 0 15.47-6.928-1.678-2.77-6.506-3.565-10.604-.873-4.506-7.865-6.998-11.954-6.863-3.778.124-10.591 5.11-11.199 8.95-.54 3.422 3.439 13.058-1.308 13.14l-.116 2.746 3.57 1.103c.23-3.543 6.744-2.763 9.621-2.527 10.11.826 20.744 7.62 22.343 18.379.213 1.427-.18 12.742-.412 14.364-.568 3.961-10.185 15.182-13.01 19.319-.767 1.122-5.995 8.614-5.28 9.259 2.369.408 6.568-.61 8.62.107.84.294 2.728 3.628 4.915 4.147.74.176 1.508-1.05 2.868-1.02 1.063.025 7 2.721 7.372 3.364 2.557 4.408-4.224 6.921-6.321 9.245-1.36 1.507-2.018 3.67-3.235 5.168-1.955 2.407-9.183 8.75-10.726 3.565-1.107-3.72 3.747-6.93 5.448-9.49 1.87-2.815 6.151-8.823 1.431-10.266-2.498-.765-11.085-.173-13.915.369-2.256.431-3.846 6.1-4.544 8.384-1.257 4.11-1.8 12.163-3.372 15.373-.788 1.61-2.509.942-3.094 2.735l-.32-3.232c-3.647-1.565-4.307 9.252-3.873 9.692l3.875-.641-.652 1.926c5.517 1.817 15.162 3.84 11.634 11.638l-4.074-3.347c-8.602-2.943-17.269-.557-26.455-1.987-2.676-.417-5.549-1.586-6.803-4.183-.914-1.89-1.72-5.482 1.49-4.082 7.929 3.459 8.273 4.189 11.262-4.826l-1.043-.865c-4.706-.522-9.393-1.042-14.151-.77-3.618.206-10.909 2.692-13.577.061-1.928-1.9-.941-3.713 1.274-4.606 5.136-2.072 18.93-1.578 24.107.552 2.853 1.174 1.702 2.808 6.686 1.79 8.421-1.718 6.864-8.605 7.101-15.446l-3.896-2.04c2.637-3.389 5.063-5.395 9.037-7.11zm-18.103 40.73h-1.933v.633h1.933zM790.204 249.823c2.84.417 4.008-2.272 5.87-3.497 5.785-3.81 9.274-5.035 13.406-11.157 5.44-8.058 9.456-18.933 9.807-28.648-2.302.155-4.09 1.758-6.328 2.392-8.748 2.48-18.126 1.38-26.951 3.432l-.236-2.502c7.695-2.513 15.969-2.239 23.843-4.273 3.599-.93 10.508-2.625 11.824-6.277 1.038-2.88 3.03-14.785 4.967-15.768 2.953-1.498 6.432 6.44 8.398 4.887l-2.272-3.875c.525-.752 8.43-3.941 9.568-3.763 2.6.407 4.935 5.573 7.121 4.992 5.775-5.702 15.308-10.516 19.093-17.813 6.646-12.815 19.493-21.446 25.173-34.297 2.043-4.622 4.74-19.261 8.175-21.558.98-.656 1.875-.951 2.974-.303 2.652 3.245 1.52 6.945.095 10.48-2.889 7.165-15.668 28.876-21.086 33.86-10.812 9.943-18.905 21.636-31.826 29.582-6.676 4.106-4.952 3.926-9.889 8.857-2.903 2.9-12.644 7.819-13.428 10.49-1.27 4.324-1.206 8.287-3.082 13.078-2.77 7.072-18.276 26.778-24.544 30.458-1.23.723-2.022-.077-3.355.405-.646.233-7.723 4.607-8.006 4.984-1.63 2.178-2.581 8.706-5.499 12.6-13.162 17.571-27.58 18.297-47.81 22.03-4.255.773-9.14-3.387-7.781-7.807.407-.572 3.693-1.247 4.569-1.248 9.988-.015 24.785 1.139 33.934-3.56 7.08-3.636 11.832-14.79 14.038-22.16 1.013-3.384 3.17-17.5 5.355-18.578 6.405-3.16 5.472 11.385 3.883 14.557M469.65 149.556c11.268 7.765 25.783 2.086 37-3.246 5.56-2.642 8.97-5.647 13.68-9.453.521 1.73 4.745 1.405 4.183 2.749-.598 1.43-7.28 4.743-7.058 8.034.528.138 1.138.314 1.498.74 2.357 2.795 6.573 8.093 9.106 10.32.564.495.718.834 1.626.63 1.35-6.93 6.054-12.757 10.989-17.452l-.634 3.231 3.783-1.855 1.38 1.529c-3.697 2.903-7.076 5.16-9.166 9.582-4.345 9.197-2.395 26.49 5.284 33.739l-2.25-.982c-.574-.005-.43 1.313-.306 1.595.67 1.536 8.931 6.466 10.646 8.1.388.37 1.796 2.417 1.611 2.584-10.775-3.12-22.794-16.269-23.91-27.474-.286-2.88.456-5.892-.304-8.745-5.717-1.416-7.807-5.974-11.798-9.582-2.338-.599-12.557 6-15.348 7.054-5.565 2.101-17.213 3.83-23.011 2.91-3.353-.531-8.68-4.147-9.969-4.17-3.716-.07-8.2 5.176-11.617 6.438-7.74 2.857-22.931 2.048-29.642-3.23-.865-.68-.78-1.864-1.429-2.62-1.265-1.473-3.384-1.606-2.904-4.528 1.37-1.935 10.201 5.098 12.273 6.15 4.58 2.324 13.357 2.518 18.122.648.734-.289 8.147-5.48 8.742-6.125 2.958-3.21-.828-7.014-1.838-10.5-1.568-5.407-2.219-13.899 1.167-18.613-.394 1.958 1.491 2.727 1.582 3.048.557 1.978.321 5.316.842 7.45.464 1.903 4.632 10.407 6.906 8.851l1.327-5.132c-1.606.625-1.922 2.595-1.944 4.11l-1.29.084 3.816-14.929c.5-2.496.546-5.034-.108-7.515-1.016-3.856-7.66-14.035-11.822-14.675-7.024-1.08-14.865 1.442-18.68 7.74-1.537 2.537-.741 5.477-2.62 7.73-8.47-4.309-1.708-13.34 4.415-16.277 22.454-10.773 37.155 7.476 34.044 29.46-.423 2.986-7.168 11.225-6.374 12.597m3.149-31.595c.213-1.223-.754-2.152-1.933-1.933zm37.499 31.02c1.574.502 8.828-4.667 7.75-5.81zM591.105 90.809l.969-5.811c-10.041 10.78-21.635 23.828-36.916 26.433-2.05.35-4.587-.718-6.062 1.035.01.739 5 3.506 6.024 3.414.925-.083 2.276-1.32 3.515-1.621 6.956-1.688 14.24-2.237 19.865-7.271 2.914 3.148-3.166 6.347-4.838 8.73l-.01.938c1.886.34 3.515 1.918 3.23 3.888-2.013-.723-4.04 1.207-5.482 1.237-1.269.027-4.665-1.472-6.571-1.783-5.818-.951-8.403 1.503-14.034-.84-5.593-2.327-8.967-6.007-12.712-10.56l-12.925-1.942c-3.38-4.645-9.453-10.85-3.231-15.844.48 1.425-1.39 3.082-1.188 4.105.05.251 2.587 3.959 2.855 4.253 2.08 2.283 7.017 3.644 9.971 4.567-1.927-11.285-1.61-28.288 13.253-29.732 7.219-.701 5.896 1.208 8.089 6.771-5.3 2.319-8.806 4.915-10.85 10.505-2.652 7.259-3.223 14.432 6.05 15.636 22.622 2.937 41.944-17.346 40.766-39.602-.264-4.998-9.167-18.846-12.995-22.426-3.556-3.324-9.618-6.523-14.57-5.796l1.924-1.609-1.893-2.51c.728-4.492 15.134 1.669 16.456 4.765 3.827 9.027 13.09 18.757 16.6 27.357 2.136 5.23 1.494 17.491-2.38 21.781-.76.84-1.625 2.093-2.91 1.932M644.53 288.188c2.58 2.577 4.04 12.12 7.319 15.63 3.185 3.408 10.61 3.328 14.465 5.573 2.08 1.21 10.224 8.407 12.728 10.543 1.118.954 1.86 3.391 3.638 3.48.855.044 1.442-1.209 2.154-.915 1.985.82 4.838 9.795 6.554 12.243 5.555 7.923 9.563 12.48 10.257 22.714.269 3.952 1.844 2.397 2.444 3.004.216.22.62 3.555.96 4.574.574 1.711 1.94 3.136 1.764 5.02l-1.934.318c.489 3.123 2.4 3.316 3.494 4.896 5.034 7.268 7.403 37.62 6.873 46.855-.894 15.559-7.714 41.468-15.427 55.031-2.331 4.1-6.524 7.467-9.439 11.247-10.202 13.23-17.941 25.248-29.773 37.454-1.895 1.955-5.13 3.86-7.058 5.87-2.632 2.743-7.557 12.018-11.06 12.15-4.605-.719-4.775-7.878-1.218-10.25l2.87 1.66c1.423-1.072 3.21-2.113 4.499-3.298 16.354-15.046 42.664-50.325 49.78-71.098 6.705-19.57 6.93-40.432 2.118-60.319l-3.416-24.046c.909-.153.944 1.146 1.1 1.792 3.05 12.584 5.614 25.13 8.903 37.645l.973.637.645-1.935 1.955 5.165c3.508-2.505 1.359-8.425 1.937-12.28 2.725 1.385 2.8-3.853.045-2.627l-2.133-19.531-8.903-21.484-1.296.666.64 6.778c-.89-1.242-2.862-3.426-3.496-4.578-2.884-5.235-6.658-16.41-9.09-22.584-2.909-7.384-2.582-12.937-10.738-17.702-3.462-2.022-4.624-.723-7.5-2.195-6.242-3.194-9.604-10.314-16.355-12.418.848-1.93 4.45.796 5.478.655.732-.1 1.061-.825.351-1.63-1.492-1.69-4.926-2.389-7.123-2.245l-.315 2.573c-4.617-2.503-7.98-6.43-10.146-11.19-1.108-2.435-3.886-9.867-2.795-12.07 1.349-2.138 3.742-1.305 5.27.222m53.07 66.533c-.697-.714-1.78-1.01-2.404.136.87 2.252 1.524 4.88 3.852 6.15.192-1.774-.184-4.989-1.449-6.286M107.574 455.375c9.082-.178 3.612 6.212 4.12 10.06.158 1.194 3.34 1.608 3.628 4.551.155 1.579-.73 4.116-1.632 5.409-3.218 4.607-22.64 10.661-28.506 11.572-10.927 1.697-17.278.575-25.755-6.39-2.382-1.956-4.416-4.915-6.841-6.733-3.624-2.717-9.094-3.741-10.935-8.447 4.272-3.613 6.674 5.78 10.777.392l1.038.003c4.142 4.637 9.125 8.164 13.734 12.184 1.263 1.102 1.868 3.03 3.272 3.838 5.925 3.408 26.77-3.814 31.281-9.619-4.865-1.43-9.643 1.209-14.623 1.854-4.047.524-9.008.205-13.17.721-.17-.848.28-1.513.929-1.974 1.743-1.24 12.697-2.332 16.552-4.133 2.818-1.317 10.78-7.206 13.202-9.423.926-.847 2.405-1.774 2.276-3.212-.632-.648-13.805 8.598-15.478 9.403-.904.435-6.369 2.63-6.977 2.744-1.043.196-2.003-.579-3-.445-5.651.758-11.638 1.193-17.199-1.071-1.029-.42-1.59.082-1.29-1.58l7.1.639-5.168-1.94c.965-2.535 2.952-.456 4.432-.336 6.59.533 12.406-.4 18.633-2.772 6.007-2.289 15.127-6.432 18.59-11.792 1.233-1.91 1.287-5.28 4.06-5.688 2.094-.308 4.326 4.681 3.944 6.547-.758 3.701-4.995 3.277-6.994 5.638M108.166 490.334l6.248 8.004-1.672 11.503-2.581 1.14c-.627 2.403 2.859.109 1.931 2.893-.703 2.111-2.87-1.401-3.869.004 3.722 3.362 4.16 9.334 5.978 14.06 5.108 13.272 10.642 29.829 17.825 41.645 8.778 14.439 18.687 27.826 27.89 41.922 3.015 4.616 7.938 10.21 9.86 15.351.67 1.798.314 3.46 1.225 5.238 2.963 5.78 13.505 14.108 16.603 20.89l3.358 6.99c-4.886-6.82-9.736-13.942-15.524-20.035-.48-.505-1.289-1.688-1.925-.66 3.93 6.643 9.404 12.265 13.714 18.606 5.39 7.929 8.319 16.751 14.725 23.73-1.19.16-2.033-.658-2.898-1.297-5.332-3.938-10.226-15.424-14.148-21.405-10.04-15.313-20.738-30.146-30.647-45.63-5.365-8.383-12.905-17.878-16.868-27.087-1.51-3.506-2.18-8.704-3.826-11.688-2.863-5.187-12.932-15.428-13.598-21.368-.842-7.5-2.084-6.694-4.3-13.093-1.13-3.266-1.513-9.244-3.064-11.803-.498-.82-.653-1.334-1.795-1.117l-.64 1.94c-.296-1.376-1.28-2.402-1.805-3.694-2.02-4.965-6.491-23.916-6.535-29.014-.007-.85.959-7.115 2.51-5.422l1.288 2.583c-.364-1.128 1.366-3.984 2.54-3.186M502.537 44.92l-1.932 2.58c.606.48 10.477-3.702 12.056-4.42 1.404-.64 2.516-1.86 3.962-2.503 10.988-4.881 23.054-7.36 35.041-5.347-.515 1.213-2.823 1.392-4.063 1.94-.386.171-.372 1.165-.902 1.276-3.334.7-7.066-.2-10.123.07-5.58.49-15.539 3.103-20.969 4.924-13.67 4.584-26.355 13.873-41.51 12.46.249-1.185 1.27-1.195 2.239-1.31 8.055-.964 16.875-.733 22.972-7.08-4.173.678-8.4.813-12.632.666-6.162-.214-19.442-1.975-24.671-5.064-1.955-1.155-4.973-5.012-6.629-5.583-.747-.257-1.783.365-2.768.173-2.39-.466-3.866-2.961-3.702-5.312.128-1.82 4.56-13.254 5.666-15.077 2.042-3.364 7.305-3.457 10.179-6.629 1.451-1.602.759-4.022 2.65-5.163 2.766 1.697 10.697 1.327 10.562 5.48-.04 1.264-2.04 2.263-2.437 3.994-1.558 6.81 2.48 18.025 6.696 23.415 4.563 5.834 13.363 6.724 20.315 6.51m-38.459-30.383v.646q.63-.322 0-.646m2.255 3.88c-5.355-.494-9.861 12.157-8.67 15.537 2.07 5.88 14.796 8.306 20.313 9.018-6.022-6.989-9.287-15.701-11.643-24.554m5.822 8.408h-1.286v.633h1.286zm-18.72 7.69-.031-3.167c-1.09-.184-.74 1.619-.605 2.22.32 1.42 1.297 3.544 3.196 2.943.256-1.746-1.414-1.842-2.56-1.996M302.796 633.15c2.186 4.72 5.069 7.609 5.225 13.248.448 16.088 5.586 33.15 7.78 49.69.445 3.35 1.418 6.75 1.873 10.097l1.275-.65c-.253 2.197 1.494 4.531 1.813 6.31.353 1.959.312 3.957.719 6.352 1.062 6.254.938 11.857 3.933 17.718l-1.292-3.233-1.93.652c-.43-.477-1.11-10.062-1.464-11.792-.48-2.335-3.634-9.27-2.9-10.687.065-.126 2.307-.843 1.125-2.081-.532-.557-1.565 1.447-2.911-3.229-1.634-5.672-2.819-11.788-4.39-17.59-4.737-17.506-7.72-35.489-13.468-52.786-.495-.321-10.296.454-11.786.651-8.053 1.07-7.375 1.438-13.378 5.363-3.556 2.325-12.117 4.81-15.469 1.322-.148-1.91 2.452-.421 3.87-1.286.551-.336 1.948-2.778 3.277-3.832 12.298-9.751 19.842-4.635 32.808-8.564 9.728-2.948 13.606-7.417 20.486-13.774 4.945-4.57 8.828.437 8.516 5.4-.427 6.77-17.914 12.196-23.712 12.7"/><path d="M642.169 238.191c-.938-1.033-1.14-1.875-1.3-3.23-1.35-1.08-3.375 4.842-5.445 1.245-1.866-3.243-2.255-11.953-3.436-15.825.237-1.166 2.397-.725 3.09-1.239 1.323-.98-.545-3.215 2.872-3.623 7.873-.939 13.723 7.916 20.732 1.37 12.953-12.097 10.824-35.535 6-50.66l-5.056-6.249c6.028-.232 6.544 6.636 9.373 10.336.738-3.215-1.086-6.313-2.908-8.727 2.44-.796 4.405 5.254 4.877 7.404 1.547 7.045 2.033 28.192-.022 34.95-.406 1.334-3.572 6.399-3.55 6.78.095 1.741 4.2-.908 5.152 1.292-6.561 3.335-1.697 5.607-.786 8.542 3.263 10.507-3.942 20.619-13.446 24.408-6.796 2.708-15.62 5.643-18.083-3.539l2.576.643c.336-1.335-.6-2.746-.64-3.878 5.32 5.858 18.927 1.453 23.269-4.204 3.861-5.03 5.46-13.504-1.594-16.481-4.236 7.383-12.83 7.872-20.378 7.113.953 4.775-1.457 9.142-1.297 13.572m-4.532-15.514c.213-1.165-.873-2.12-1.926-2.585-.212 1.166.873 2.12 1.926 2.585M439.835 506.452c.088 5.393-8.135 8.268-12.581 9.713-5.984 1.944-18.023 4.61-8.75-4.54-10.498 1.104-22.082 4.68-32.007 8.387-5.994 2.238-11.59 5.366-17.607 7.603-9.71 3.61-20.417 5.893-29.873 10.206-6.537 2.981-17.455 11.686-23.669 12.553-5.936.828-5.303-2.47-7.474-5.374-1.35-1.806-3.035-3.349-4.41-5.286-1.093-1.538-1.774-4.023-2.982-5.421-4.607-5.335-13.192-4.608-19.332-5.232-9.631-.979-9.66-.528-18.822.588-4.856.592-7.527-2.024-12.886-1.91-6.264.134-16.345 2.49-21.012 6.802-5.165 4.772-9.953 9.891-16.784 12.95-1.594.715-15.975 5.233-17.29 5.368-1.04.107-1.785-.405-2.752-.524.262-7.076 7.432-8.279 13.267-9.032 2.623-.34 5.316.543 7.903-.501 2.232-.9 5.234-7.374 8.263-9.836 7.008-5.697 21.425-7.105 30.373-7.766 15.262-1.129 35.836-2.003 48.742 7.484 4.204 3.09 5.739 8.568 11.246 9.777 12.032-3.34 23.272-8.662 35.018-12.755 7.054-2.459 14.283-4.15 21.373-6.424 23.087-7.408 43.235-14.865 67.852-16.828 1.393-.111 2.806.028 4.194-.002M606.412 305.856c-1.631 1.339-4.528 1.103-5.565 2.519-3.361 6.167-4.983 15.436-8.537 21.198-.28.452-.613 1.068-1.203 1.053-.11-1.325 2.031-4.28-.644-3.878-2.45 5.813-5.488 13.051-9.718 17.763-4.888 5.444-19.143 19.824-24.99 22.844-7.231 3.733-22.853 6.602-30.936 5.957-2.94-.235-22.563-5.725-23.46-7.24l.221-2.49c.86-.038 1.782.59 2.573.533 13.229-.947 24.183 3.117 38.785 1.413 34.793-4.058 43.95-39.945 57.305-66.16 1.763-3.462 4.132-8.235 8.648-8.194 8.837.08.66 12.108-2.479 14.682M537.931 429.617c.939-.228 3.719 1.744 4.375 2.478 2.44 2.725.95 4.911-1.311 7.118-7.771 7.584-24.924 15.056-34.59 20.357-17.21 9.44-26.222 16.854-40.72 29.739-2.895 2.573-9.536 11.912-13.902 8.098-3.287-2.871 6.468-11.142 8.73-13.27 9.596-9.018 22.143-18.258 33.836-24.342 7.041-3.663 16.393-5.946 22.634-9.687 3.672-2.201 8.978-7.947 12.078-11.192 2.146-2.248 6.086-8.622 8.87-9.3M407.516 463.139c.806-1.66 4.517.521 5.171-1.933-2.57-.417-5.02.328-7.435.518-3.385.267-1.755.245-3.387.727-1.93.57-4.632.354-6.643 1l.655 1.62c-3.96.17-7.989-.215-11.95.013-10.417.602-19.26 2.378-29.259 4.355-7.802 1.543-14.003-.77-21.659.321-3.486.497-4.049.402-7.337.551-2.542.115-5.27 1.079-8.01.578 1.04-2.237 4.156-.958 6.11-1.319 26.067-4.817 52.322-6.956 78.413-10.792 9.091-1.336 15.609-1.093 24.353-.772 1.801.067 6.793 2.7 8.56 3.73 5.26 3.07 23.009 18.155 15.133 24.396-5.41 4.285-6.394-4.88-7.693-7.918-2.49-5.82-11.21-15.075-17.892-15.075zM417.865 49.444c-1.736-3.804 3.494-7.375 6.454-9.063-.856-3.749-8.021-2.274-11.018-1.637-3.85.817-6.61 2.107-9.671 4.55-1.819 1.451-5.577 6.6-6.466 7.154-1.258.783-4.056-1.543-6.149.918-1.117 1.893 1.516.677.997 2.913-.05.219-2.474 1.1-1.846 3.764 1.002 4.255 10.883 6.777 14.76 6.27 1.413 1.159-5.064 4.442-6.186 4.515-4.99.324-15.196-10.551-15.652-15.338-.361-3.79 2.231-3.872 3.741-5.661C397.565 35.112 407.851 31.994 424.573 34c2.24.27 4.821 1.895 6.533 1.907 3.8.025 8.976-8.55 13.83-.88.835 3.233-8.282 4.992-10.479 6.126-2.43 1.254-9.613 8-10.586 8.232-1.246.297-1.86-.952-2.471-1.006-.736-.065-2.266 1.547-3.535 1.064M452.762 123.135c.335 4.68-1.014 10.24-3.591 14.178-3.469 5.302-18.844 15.874-25.148 16.223-3.493.193-6.575-.982-10.043-.663 1.766 3.666 6.186 4.2 7.757 8.39-.84.621-9.7-3.958-10.947-4.884-2.731-2.029-4.295-5.807-7.146-8.367-2.436-2.188-9.501-5.673-10.34-8.41-.102-.333-.178-1.054.31-.953l8.724 5.168c.928-5.46-2.595-13.089.653-17.776 4.39-6.337 3.569 1.682 3.545 4.857l4.229 2.373.915 11.876c9.087 3.543 26.077-2.01 31.285-10.16 1.072-1.68 1.972-5.755 3.013-6.684.944-.842 2.368-.515 3.289-1.236 1.15-.901 1.063-4.24 3.495-3.932m-11.632 16.163c-1.378.167-2.683 1.455-3.877 2.28-.705.487-1.694-.188-1.29 1.59 2.185-.131 4.05-2.139 5.167-3.87M46.17 423.062l3.219 2.585-1.935-4.188 1.609-.98 5.83 5.812c2.15-6.383 3.39.731 4.837 1.648 2.176 1.38 12.732-4.696 15.079-6.29 7.261-4.933 15.298-17.243 24.13-17.932 4.305-.335 8.9 5.54 5.102 8.358-2.144 1.59-6.16 1.898-9.23 3.72-8.775 5.205-12.715 16.375-23.76 16.374-2.045 0-4.583-.53-6.473-1.336.932 3.435-1.485 5.143-4.674 5.65-6.732 1.07-14.496-6.646-13.734-13.421M382.948 214.918c1.325-1.391-2.588-1.08-.97-2.58 1.172 2.146 7.788 7.57 8.359 9.02.256.651-.354 1.692.003 2.597 1.276 3.237 3.779 6.726 5.556 9.89 5.27 9.38 3.573 24.3 3.192 35.666-.045 1.326.836 2.82.72 4.548-.147 2.161-2.097 4.228-1.349 6.792l-1.924-2.578c-1.276 5.615 5.835 6.853 10.013 6.46 4.802-.45 11.975-6.692 14.212-6.499 4.375.379-3.14 9.053-4.57 10.324-4.668 4.148-8.47 2.146-13.846 1.34l.645-1.929c-4.582 1.522-8.606-1.49-10.029-5.812-1.06-3.22-1.667-13.432-1.655-17.15.051-17.052 5.787-23.246-3.479-40.417-2.305-4.273-6.42-7.516-8.48-11.565-.255-.5-.594-2.008.368-1.003.101.944 2.518 3.647 3.234 2.896M378.242 75.482c.545.845.602 3.21.828 4.337-2.232.11-1.143-2.215-3.403-3.379-17.78-9.156-34.479 15.282-28.745 31.977 1.933 5.627 9.031 6.072 10.205 11.749-6.537 8.498-17.132-9.811-17.52-14.835-.548-7.075 4.41-18.546 8.166-24.81 1.896-3.16 4.725-7.775 8.095-9.354 3.031-1.42 12.175-.57 15.588.436 1.295.382 6.209 2.984 6.786 3.879m-35.692 27.612v.646q.63-.323 0-.646m1.61 5.168c.04-1.417.358-3.376-1.28-3.876l.648 3.874zM213.581 329.98c-4.479-5.715-6.005-14.886-6.463-21.981l-1.282.654c-.108-1.81-.435-3.998-1.108-5.672-1.063-2.648-.87-2.22-1.635-5.495-.705-3.017-2.553-5.764-2.436-8.879-1.121.043-1.357-.435-1.147.817.446 2.662.875 5.531 1.578 8.13 2.45 9.07 6.529 18.808 7.923 28.276.092.631.653 5.605-.909 4.79-1.961-1.023-5.931-21.546-6.62-25.056-1.466-7.461-2.082-14.268-2.876-21.63-1.116-10.355-7.808-23.124-8.238-35.185-.092-2.561.461-7.652 1.568-9.908 1.586 8.226 2.613 17.081 4.515 25.212 2.579 11.025 7.083 22.09 9.975 33.335 2.772 10.776 4.991 21.683 7.155 32.592M629.139 211.78c.403.448.104 3.676-.054 4.606-.573 3.357-3.592 13.204-5.084 16.243-2.691 5.483-11.721 12.826-13.794 19.173-.923 2.823-.13 10.881-1.317 12.9-1.815 3.088-6.796-.67-7.742-3.27-1.874-5.15 2.999-8.63 5.449-11.947 7.997-10.827 13.296-18.367 14.803-32.385.414-3.85-1.265-9.443 2.015-11.874.46 2.624 1.969 4.488 3.974 6.084.434.346 1.537.235 1.75.47M106.694 423.776c5.106-1.714 5.948 4.266 5.361 7.972-.939 5.934-8.725 8.575-12.842 11.719-3.094 2.362-6.783 6.672-10.154 8.59-5.188 2.954-17.544 2.198-24.027 2.52-5.223.26-1.906-2.422.995-3.572 5.475-2.17 12.558-2.364 18.629-4.643 8.774-3.294 18.933-11.774 21.01-21.006.174-.773.103-1.27 1.028-1.58M572.351 146.406c.293 1.318-.306 1.725-.94 2.608-1.483 2.068-7.79 4.158-10.705 5.452-1.46.648-3.024-.058-4.898 2.25-1.395 1.718-.017 2.198-.566 3.864-.575 1.742-3.65 4.469-4.552 6.497-2.759 6.199-2.393 19.356 4.513 22.656 2.61 1.247 8.241.332 4.882 4.194-3.302 3.796-9.068 2.87-11.935-1.02-3.538-4.8-5.888-19.772-3.852-25.116.365-.959 7.294-11.186 8.065-11.968 2.132-2.162 7.525-3.087 10.728-4.786 3.128-1.66 5.626-5.104 9.26-4.631M458.587 80.473c3.48-.382 6.066 3.016 9.048 4.197 10.876 4.31 16.628-4.942 25.495-3.516 1.93.31 7.405 4.404 6.765 6.646-.67 2.347-5.959 1.488-7.868 1.872-10.859 2.185-16.731 8.052-27.287-.168-1.371-1.068-7.911-7.293-6.153-9.031M438.554 218.155c-1.73 4.14 1.972 7.791 1.927 12.275-1.318.114-2.47.029-3.71-.485-1.902-.788-5.33-6.597-6.627-5.33-.297 3.253.397 6.579 1.802 9.509.24.502 3.68 4.136 1.117 3.41-2.044-.578-2.446-3.022-3.85-3.92-1.007-.643-2.255-.382-2.8-.742-.35-.23-2.318-5.476-2.461-6.298-.424-2.433.456-8.229 2.697-9.65 3.758-2.38 7.918 1.055 10.925.622 1.72-.248 1.292-2.56 3.753-2.426 1.197.066 14.188 2.81 14.86 3.164 1.996 1.053.978 4.393-.618 4.932-2.383.806-10.743-1.017-12.973-2.327-1.713-1.007-1.673-3.24-4.042-2.734M455.028 189.711c.595.185 1.535 2.01 1.47 2.804-.343 4.254-6.707 1.676-9.195 1.698-4.89.045-15.63 2.327-19.957 4.662-2.73 1.474-11.818 10.743-14.062 7.211-3.682-5.794 8.587-12.054 12.822-13.623 2.496-.925 8.417-2.752 10.822-2.752 3.541 0 15.811-.71 18.1 0"/><path d="M57.149 418.534c-3.012-.13-6.526-3.932-6.507-6.785.01-1.726 1.637-2.941.697-4.846.183-.195.984.582 1.524.496.933-.147 10.215-12.825 11.668-14.774 2.71-3.635 4.744-10.887 9.944-4.057-1.289 6.418-7.194 9.918-10.732 15.551-1.842 2.934-3.025 6.006-4.512 9.063-.862 1.772-2.883 2.549-2.082 5.352M59.415 370.057c-8.295.768-17.24 7.386-24.564 7.163-2.38-.072-4.045-1.687-6.135-.7-.43-.515 1.894-3.416 2.425-3.89 4.103-3.659 14.48-6.41 20.049-7.566a40.5 40.5 0 0 1 6.609-.818l-4.522 3.222c3.001-.57 15.7-3.05 16.735.4.258.857-.349 2.189-.9 2.189-3.088 0-6.71-.277-9.697 0m-20.686 0v.646q.63-.322 0-.646M770.165 167.09c2.613-.123 6.272.797 7.753-1.936l-3.875-.646c13.224.344 26.899-3.876 38.148-10.66 9.85-5.941 15.908-16.561 26.479-21.35-7.063 4.804-11.187 12.21-17.784 17.763-10.403 8.76-29.057 18.324-42.725 19.325-2.406.177-7.583.674-7.996-2.495M236.019 564.806c2.337 2.806-.496 6.166-3.684 5.367-1.442-.361-2.694-1.996-4.23-2.286-8.976-1.698-16.059 7.533-25.503 5.136-.472-2.36 2.09-.588 3.883-.897.866-.15 2.366-.661 2.577-1.679-7.196.202-14.813 1.666-17.459-6.787 2.207.534 4.393 2.521 6.478 3.218 8.423 2.818 16.088-.824 24.062-3.073 1.15-.324 1.796-1.457 3.434-1.733 2.986-.504 8.428.317 10.442 2.734M220.882 621.965c1.502 1.108 7.218 1.905 9.061 1.348 1.005-.304 1.964-1.929 3.224-2.59 2.278-1.195 4.981-1.764 7.139-3.203 1.52-1.014 3.092-3.56 4.671-3.793 4.364-.64 8.222 6.777-.375 10.028-3.577 1.352-16.374 3.61-19.923 3.144-8.211-1.078-11.436-8.319-14.318-15.084 1.898 1.24 4.638 6.102 6.098 7.143.945.674 2.13.493 2.932.958.951.55.99 1.678 1.491 2.049M426.326 302.25c1.123-.98 11.041.657 13.157.605 1.902-.047 3.585-1.175 5.67-1.142 2.31.037 14.38 1.737 9.285 5.703-2.062 1.606-11.744-.525-15.514-.004-4.485.62-8.403 6.105-12.65 2.842-2.868-2.202-.197-5.173.052-8.003M593.687 104.386c-.75-3.466 5.598-3.742 7.977-3.639 7.745.338 19.25 9.854 22.883 16.413 2.522 4.556 1.696 8.714 2.747 13.729-1.562-1.168-1.932-3.258-3.22-4.872-.552-.692-1.8-.885-1.888-1.012-.113-.162.89-1.909.31-3.834-1.343-4.446-15.375-16.785-19.436-16.785zM26.954 453.901c-.6-.55-.388-1.736-1.278-2.443-3.076-2.437-10.103-1.988-9.824-8.901l3.372-1.956c2.963.712 5.846 5.246 8.219 6.028 1.735.572 3.23.07 4.692.48 1.376.384 6.574 6.908 6.18 8.458-1.391 5.46-8.916.571-11.36-1.666M413.321 126.359l-1.284-.32v-2.904c-1.814-.045-2.334 2.505-3.857.327.99-1.454 1.093-3.214 1.624-4.83 1.302-3.964 6.176-15.394 11.523-13.516.847.297 2.998 5.46 2.74 6.4-.373 1.357-6.252 6.93-7.77 9.086-1.126 1.6-2.157 3.94-2.976 5.757M569.775 191.65c2.675 1.93.96 7.357-.092 9.933-1.255 3.072-6.84 10.085-10.087 10.656-.826.146-5.688-.486-6.804-.703-7.591-1.482-14.61-8.376-21.15-12.458 4.904 2.796 9.629 5.487 15.217 6.753 10.65 2.413 21.997-2.296 22.916-14.18M899.776 58.505 889.38 68.14c-3.012 4.875-16.09 14.111-21.569 15.274-4.187.888-8.61.062-3.487-3.483 8.04-5.564 18.379-10.648 26.918-15.746 2.908-1.735 5.83-3.633 8.534-5.68M675.783 348.093c-2.863 3.779-10.374-3.318-12.612-5.825-2.907-3.258-3.513-6.616-5.59-9.923-2.922-4.648-8.352-8.349-8.942-13.997l10.65 11.641c3.12 2.901 5.932 6.154 9.043 9.058 1.144 1.068 5.431 3.815 5.871 4.516.906 1.443-1.98 4.229 1.58 4.53M486.376 349.375c-.126 4.59-5.603 5.136-9.227 4.376-1.74-.364-12.34-4.673-13.714-5.675-1.745-1.272-10.42-10.38-8.726-12.276 5.077.291 7.132 5.179 10.769 7.648 3.176 2.156 8.085 3.521 11.664 5.143 1.017.461 1.727 1.709 2.596 1.964 2.345.69 4.363-1.335 6.638-1.18M443.23 329.178c-2.021-1.994 1.082-6.672 2.748-8.235 5.099 8.627 8.077-2.24 11.132-3.135 2.642-.774 7.338 2.14 5.386 5.42-2.975 4.998-13.942 8.466-19.267 5.95M114.682 380.396c-3.32.692-6.325-1.031-9.377-1.284-6.918-.571-11.527.968-17.986-3.346-2.203-1.471-7.154-7.025-3.35-8.292 3.852 4.332 9.256 6.757 14.945 7.687 3.955.645 12.494-.034 15.103 2.997.698.812.839 1.114.665 2.238M373.261 148.342c2.519 2.236 4.989-.705 5.416-.668 2.806.237 11.562 2.22 14.15 3.397 2.922 1.328 3.934 2.604 4.196 5.919-.348.874-.966 1.544-1.977 1.551-1.155.01-9.572-2.037-10.993-2.575-2.074-.786-8.031-4.332-9.725-5.788-.672-.577-1.355-.642-1.067-1.836M214.228 597.596c-.031 2.313.786 4.65-1.9 5.521-6.98 2.264-22.533-3.227-22.655-11.988.464-.545 5.75 5.257 7.566 5.676 3.826.884 5.935-1.333 8.907-1.199 2.506.113 5.162 2.68 8.082 1.99"/><path d="M221.163 571.863c3.956-.903 7.372 2.231 3.23 5.182-2.07 1.475-22.595 8.439-24.708 8.319-1.021-.058-1.624-.116-2.245-1.025 3.579-4.524 9.926-4.493 14.648-6.67 2.624-1.21 6.661-5.255 9.075-5.806M122.558 453.555c3.439-.542 4.605-5.377 8.637-2.723 2.058 4.992.702 15.606-6.485 14.252-3.38-.637-2.925-8.942-2.152-11.53M183.849 567.852l-3.223-2.582c.079 4.37 4.966 6.632 3.872 11.637-6.118 1.996-15.988-12.447-9.67-15.213 2.276-.996 10.541 4.558 9.02 6.158M350.628 198.757l-1.947-2.58c-2.664-.436-.315 2.521-.643 3.876l-2.246-1.78-2.287.901c-5.072-1.284-2.787-17.313 3.879-14.3 3.586 1.621.85 10.412 3.244 13.883M235.57 634.438c2.39 1.63 5.598-.812 6.624-.565.424.103 7.48 3.598 7.828 3.882 1.669 1.364 3.506 7.17 1.01 6.768-2.65-.688-5.175-2.488-7.557-3.453-1.49-.603-2.994-.095-5.134-1.33-2.103-1.213-3-2.848-2.771-5.302M317.011 470.257c.004 1.129-2.834.715-3.577.665-9.282-.62-13.887-2.999-22.28-5.516-5.182-1.555-15.506-1.224-16.153-8.082.588-.594 6.486 3.044 7.768 3.538 3.6 1.389 7.876 1.55 10.997 2.578 2.949.972 6.25 3.04 9.534 4.041 4.485 1.368 9.106 2.01 13.711 2.776M223.284 604.694l12.26-9.425c2.687-.713 6.03.777 3.619 3.658-2.04 2.438-12.452 6.485-15.879 5.767M582.694 137.36c-.102 1.07-3.195 1.106-3.882.988-1.14-.196-6.678-2.585-5.161-4.224 1.796-.162 2.183 1.913 3.705 2.43 1.432.486 3.745.29 5.338.806M653.812 183.892l-2.276-8.389c1.734 1.605 5.218 6.469 2.276 8.39M202.592 271.8c-1.008-.123-1.382-2.37-1.62-3.218-.838-2.985-1.578-6.588-1.6-9.703zM73.316 368.115c.609-2.95-.92-5.026-1.29-7.754 1.98 1.454 2.032 4.726 3.211 6.747zM930.475 72.713c.048.03-.152.865.21 1.101.521.34 1.486.093 1.638.248 1.49 1.525-5.665 15.803-7.4 17.986-1.922 2.418-4.736 4.207-6.723 6.52l-.31-2.607-1.182-.529c-9.305 2.168-17.787 6.837-24.057 14.117-3.752 4.357-5.764 9.438-10.318 13.6-2.116 1.932-10.097 8.44-12.642 6.79-.67-.601-.876-.815-.32-1.651.796-1.197 6.739-4.901 8.437-6.432 4.013-3.618 7.093-8.034 10.956-11.669 8.318-7.827 28.215-22.671 31.838-32.803 2.76-7.718 4.86-20.765 4.754-28.905-.028-2.181-.988-4.623-1.362-6.783-13.965 4.468-23.36 17.075-37.806 21.307l.972-1.61-.952-.952c-4.063 2.783-10.386 2.828-12.604 7.724l1.274.661c-4.21 1.515-8.075 4.434-12.022 6.404-11.379 5.68-20.532 12.367-31.257 17.872-8.564 4.395-24.27 11.265-33.386 10.696-2.566-.16-6.525 1.695-2.669-3.495l16.633-6.915c.268-1.714-.315-1.287-1.632-1.311-11.171-.207-34.667 4.772-44.085 10.87-9.068 5.872-32.773 24.796-38.584 33.169-.924 1.332-1.414 3.307-2.7 5.056-2.171 2.952-4.936 5.466-7.058 8.45l.001-1.287c-1.754.359-2.35 2.823-3.565 4.194-3.38 3.815-8.68 8.32-11.53 12.382-9.228 13.152-8.813 33.57-11.891 48.876-4.236 21.06-10.61 37.285-27.294 51.568-4.295 3.678-15.815 9.539-19.653 2.82-4.35-7.612 5.967-5.474 9.508-6.5 6.733-1.951 17.819-11.598 22.421-17.01 14.23-16.733 10.72-37.895 13.954-57.798 3.27-20.114 28.687-54.546 42.914-69.562 16.46-17.374 53.362-27.762 76.94-29.072 6.417-.357 13.985 1.128 20.363-.323 3.625-.825 8.227-4.746 11.617-6.483 12.963-6.64 26.175-12.638 38.718-20.106 10.112-6.02 29.523-23.51 39.984-25.298 6.381-1.09 5.507.619 8.903 3.721 4.357 3.98 7.898 7.017 6.75 13.87-.335 2.004-2.367 3.168-1.91 5.521-1.95-.835 1.01-6.38-1.93-5.81-.044 1.36.147 2.763-.082 4.12-.565 3.35-.924 7.186-1.865 9.242-.43.94-2.312 5.595-1.929 6.02.52.154 1.674-.158 1.933.006-.71-.647 2.447-3.642 3.226-3.879.294 2.299-.677 4.16-3.226 3.879m-205.887 62.054v.647q.63-.323 0-.647m-.326 1.943h-1.28l-.65 2.582 1.927-1.625zM559.423 37.167c-.177 1.174-3.35.71-4.192.633-.793-.073-3.45-.237-3.559-1.279zM198.713 256.287l-3.186-8.762-.679-4.806 3.185 9.41zM189.663 234.956c-.932.17-.839-1.224-.975-1.916-.52-2.623-.534-5.208-1.598-7.772 1.095.282 1.495 2.757 1.748 3.737.51 1.98 1.086 3.857.825 5.951"/><path d="M933.7 66.892c-1.38-.595-.904-4.87.647-5.168zM562.655 200.707c-.703 1.446-3.822 1.179-5.165 1.28.703-1.447 3.823-1.18 5.165-1.28M582.697 53.314c-.84.264-3.25-.967-2.582-1.28 1.153-.175 2.266.038 2.582 1.28M634.415 199.4l6.448-4.201c-1.333 2.21-3.654 4.155-6.448 4.202M329.305 746.912h.633v2.579h-.633zM326.707 740.44c-.408.898-1.784-2.81-1.28-3.87h.632zM503.19 44.278h2.579v.633h-2.579zM878.76 66.255c.315.246-1.128 1.711-1.938 1.28-.314-.246 1.13-1.71 1.939-1.28M185.138 216.21l-1.927-4.517c1.315.57 1.879 3.233 1.927 4.517M177.381 189.708h-.633l-.336-2.57c1.006.68 1.128 1.384.97 2.57M198.726 256.94h.633v1.286h-.633zM202.605 272.454h.633v1.286h-.633zM547.147 201.999h1.286v.633h-1.286zM841.272 130.882v-.633l1.923-.336-.967.969zM189.03 214.278h.633v1.286h-.633zM191.616 225.913h.633v1.286h-.633zM185.151 216.863h.633v1.286h-.633zM186.444 222.681h.633v1.286h-.633zM75.575 374.582q.63.322 0 .646zM141.2 89.849l1.61-1.61.304.305-1.61 1.609zM7.573 412.258c-3.15 3.89 3.83 10.154 5.746 13.589 1.3 2.331 1.976 4.842 3.094 7.242-1.787-.557-3.221-1.982-4.9-2.85-2.872-1.485-4.72-1.417-7.397-4.24-9.798-10.329.266-17.725 5.737-26.641 2.815-4.59 9.691-19.345 14.325-20.636 1.411-.393 3.942.303 3.803 1.88-.108 1.238-1.99 2.935-2.344 4.159-3.126 10.82-8.166 17.243-15.65 25.726-.725.82-2.013 1.276-2.414 1.77M875.852 67.542q.63.322 0 .646zM558.13 47.51c-.085 1.318-2.052.2-3.245.976-.458.298-.44 1.508-1.07 1.648-1.282.286-9.91-2.078-12.806-2.037-7.916.11-20.27 5.563-26.495 10.41-1.78 1.384-3.487 4.039-5.158 5.183-1.367.937-3.564.22-3.595 2.553l-1.29-.344.006-2.24-1.919.335c.107-5.304 4.285-9.442 8.58-12.095 5.756-3.554 24.48-8.531 31.004-7.472 2.555.415 5.658 1.807 8.637 2.35 2.203.402 5.027.136 7.35.733M591.418 103.753c.358.411 1.302.842.66 1.267-.313-.379-1.299-.817-.66-1.267M702.61 356.483q.63.322 0 .646zM416.889 50.089q.63.322 0 .646zM585.156 138.753c-.564-.447-2.02.469-1.809-.747 9.606-.336 20.967 2.096 27.134 10.019-1.882-.873-2.982.82-4.072.828-1.69.012-5.109-2.558-7.382-2.943-4.437-.75-8.983 1.471-12.087-2.779-.88-1.206-1.599-4.232-1.784-4.378M192.579 229.788q.63.324 0 .646zM419.475 286.671q.63.323 0 .647zM280.493 750.787q.63.322 0 .646zM362.266 197.791c.038.69 1.945 2.616-.637 2.26.01-.838-1.608-6.556-2.587-5.813-2.72 4.392-1.913 8.885 3.866 7.747-.02 1.764 1.587 4.747 2.9 5.838 1.801 1.495 3.235.885 4.833 1.632.324.15 5.435 4.074 5.657 4.354.543.685 1.766 5.183 1.463 5.6-6.01 1.095-16.078-2.585-19.726-7.692-1.356-1.899-3.331-7.212-3.485-9.49-.083-1.241.45-7.314.6-8.95.543-5.892 3.406-23.124 7.087-27.188 1.047-1.155 2.538-1.715 3.547-2.915 1.54-1.833 1.141-4.368 3.883-4.381 1.205-.006 2.315.719 3.854.535 1.655-.197 3.427-1.98 5.536-1.277-.928 3.458 3.844 5.458 3.846 8.062.002 2.252-1.968 2.386-2.737 3.736-1.292 2.268-6.085 16.886-6.289 19.51-.68 8.741 5.222 14.527 7.78 22.326l-3.557-3.871-.647 1.94c-1.157-4.451-6.297-8.195-7.75-12.29-2.746-7.74-2.106-17.752-1.623-25.849-1.555-.239-2.412.429-3.143 1.698-.357.62-2.671 8.497-2.671 8.965 0 5.072-.275 10.499 0 15.513M840.305 130.902c.643.424-.301.855-.66 1.267l-.303-.304zM203.568 274.39q.63.322 0 .646z"/></g></svg>