<?xml version="1.0" encoding="UTF-8"?><!DOCTYPE svg PUBLIC "-//W3C//DTD SVG 1.0//EN" "http://www.w3.org/TR/2001/REC-SVG-20010904/DTD/svg10.dtd" []><svg xmlns="http://www.w3.org/2000/svg" xmlns:xlink="http://www.w3.org/1999/xlink" height="1320" version="1.2" viewBox="0 0 962 1320" width="962"><g><path d="m481.25 22.14c8.24-0.09 15.49 0.42 20.5 1.45 4.26 0.87 11.8 2.88 16.75 4.47 5.63 1.81 13.11 5.36 20 9.5 6.05 3.64 13.7 8.54 17 10.88 3.3 2.34 12.64 10.63 20.75 18.41 10.25 9.84 16.5 15.02 20.5 17.01 3.16 1.57 9.35 4.01 13.75 5.42 4.4 1.4 10.25 3.02 13 3.58 2.75 0.57 10.4 1.79 17 2.72 6.6 0.93 18.52 3.38 26.5 5.45 7.98 2.08 19 5.49 24.5 7.59 5.91 2.26 13.68 6.29 19 9.85 4.95 3.31 11.7 8.55 15 11.63 3.3 3.09 8.33 8.94 11.17 13.01 2.84 4.06 6.82 10.99 8.85 15.39 2.03 4.4 5.26 12.5 7.19 18 1.92 5.5 4.84 12.93 6.48 16.5 1.64 3.57 5.93 13.25 9.53 21.5 3.6 8.25 7.56 16.57 8.81 18.5 1.24 1.93 4.22 5.36 6.62 7.63 2.39 2.27 8.62 6.63 13.85 9.68 5.23 3.06 12.65 6.87 16.5 8.47 3.85 1.6 11.5 5.5 17 8.67 5.5 3.16 12.43 7.62 15.4 9.9 2.97 2.28 6.85 5.95 8.63 8.15 1.78 2.2 5.89 7.82 9.14 12.5 3.24 4.68 7.17 10.75 8.71 13.5 1.55 2.75 4.37 8.82 6.28 13.5 1.9 4.68 4.06 11.43 4.8 15 0.74 3.57 1.63 9.65 1.99 13.5 0.36 3.94-0.04 14.87-0.91 25-0.86 9.9-2.26 29.25-3.13 43-0.86 13.75-1.35 29.5-1.1 35 0.3 6.33 1.45 13.67 3.15 20 1.47 5.5 3.82 12.93 5.23 16.5 1.41 3.57 4.7 10.1 7.31 14.5 2.61 4.4 6.76 11.37 9.21 15.5 2.46 4.12 7.33 12 10.82 17.5 3.49 5.5 8.03 13.6 10.1 18 2.06 4.4 5.37 13.62 7.34 20.5 1.98 6.87 4.03 15.2 4.56 18.5 0.52 3.3 0.95 15 0.95 26-0.01 13.13-0.49 22.23-1.39 26.5-0.76 3.58-2.84 11.23-4.62 17-1.78 5.77-7.05 20.17-11.71 32-4.66 11.83-10.06 24.65-12 28.5-1.94 3.85-6.93 12.62-11.09 19.5-4.17 6.87-8.9 15.65-10.53 19.5-2.43 5.75-3.04 8.79-3.4 17-0.37 8.59 0 11.9 2.65 23.5 1.7 7.42 4.24 17.55 5.65 22.5 1.41 4.95 3.4 12.15 4.42 16 1.13 4.25 2.32 14.26 3.03 25.5 0.88 13.81 0.89 21.16 0.06 29-0.62 5.77-1.6 13.2-2.18 16.5-0.58 3.3-2.15 9.37-3.48 13.5-1.34 4.12-4.88 12.45-7.86 18.5-4.8 9.74-6.77 12.44-17.08 23.5-6.41 6.87-14.92 16.77-18.92 22-3.99 5.23-10.73 13.33-14.98 18-4.25 4.67-10.35 12.1-13.54 16.5-3.2 4.4-8.11 12.5-10.92 18-4.58 8.96-5.58 12.18-9.63 31-2.49 11.55-5.86 25.61-7.5 31.25-1.63 5.64-5.25 15.31-8.04 21.5-2.79 6.19-7.46 15.3-10.37 20.25-2.91 4.95-7.99 12.6-11.28 17-3.29 4.4-10.21 11.84-15.37 16.53-5.17 4.69-13.9 11.71-19.4 15.61-5.5 3.9-12.25 8.21-15 9.58-2.75 1.37-8.15 3.42-12 4.54-3.85 1.13-8.58 2.37-10.5 2.76-1.92 0.39-12.73 0.8-24 0.92-15.82 0.17-21.53 0.58-25 1.82-2.48 0.88-9.23 4.38-15 7.79-5.77 3.41-15.45 9.47-21.5 13.48-6.05 4.01-14.55 10.37-18.9 14.13-4.34 3.76-12.89 11.04-19 16.18-7.97 6.71-13.63 10.54-20.1 13.61-4.95 2.36-13.39 5.69-18.75 7.42-5.36 1.72-13.01 3.66-17 4.32-4.19 0.68-17.6 1.18-31.75 1.18-14.15 0-27.56-0.5-31.75-1.18-3.99-0.66-11.64-2.59-17-4.31-5.36-1.71-14.25-5.29-19.75-7.95-6.52-3.16-12.44-6.98-17-10.97-3.85-3.37-11.27-9.85-16.5-14.4-5.23-4.56-13.1-10.87-17.5-14.02-4.4-3.16-14.52-9.62-22.5-14.35-7.98-4.74-16.98-9.5-20-10.58-4.69-1.68-8.52-2-26-2.18-17.19-0.19-21.87-0.57-29-2.37-4.68-1.19-11.2-3.41-14.5-4.94-3.3-1.53-10.28-5.73-15.5-9.34-5.23-3.62-13.75-10.33-18.95-14.92-5.2-4.6-11.96-11.51-15.02-15.36-3.06-3.85-8.22-11.28-11.47-16.5-3.25-5.22-7.91-13.78-10.37-19-2.45-5.22-5.48-12.2-6.73-15.5-1.25-3.3-3.63-11.17-5.28-17.5-1.65-6.33-4.65-19.15-6.66-28.5-2.9-13.46-4.55-18.77-7.91-25.5-2.34-4.67-6.68-12.1-9.65-16.5-2.96-4.4-9.63-12.73-14.81-18.5-5.19-5.77-12.46-14.55-16.16-19.5-3.7-4.95-11.35-13.95-17.01-20-5.66-6.05-11.31-12.35-12.56-14-1.26-1.65-4.06-6.6-6.23-11-2.18-4.4-5.31-11.83-6.96-16.5-1.65-4.67-3.71-12.77-4.58-18-0.88-5.23-1.87-14-2.21-19.5-0.34-5.5-0.14-17.2 0.45-26 0.98-14.58 1.56-17.78 6.61-36 3.05-11 6.43-24.39 7.52-29.75 1.09-5.36 1.97-13.01 1.97-17-0.01-3.99-0.61-9.5-1.34-12.25-0.74-2.75-2.22-7.02-3.31-9.5-1.09-2.48-5.38-10.13-9.54-17-4.16-6.88-9.63-16.77-12.16-22-2.53-5.23-7.37-16.48-10.75-25-3.38-8.52-8.35-22.25-11.04-30.5-2.7-8.25-5.61-19.05-6.48-24-1.21-6.88-1.47-13.23-1.08-27 0.41-14.99 0.94-19.76 3.13-28.5 1.44-5.77 3.81-14.1 5.25-18.5 1.44-4.4 4.53-11.83 6.87-16.5 2.34-4.67 6.91-12.55 10.17-17.5 3.25-4.95 9.45-15.08 13.77-22.5 4.32-7.43 9.18-16.43 10.8-20 1.62-3.57 4.24-11.45 5.83-17.5 1.59-6.05 3.18-13.93 3.53-17.5 0.35-3.57 0.1-16.63-0.56-29-0.65-12.38-1.9-29.93-2.78-39-0.87-9.07-1.58-23.25-1.58-31.5 0.01-11.94 0.43-16.53 2.04-22.5 1.12-4.13 3.89-11.77 6.16-17 2.26-5.23 7.6-14.63 11.85-20.9 4.25-6.27 9.34-13.25 11.31-15.5 1.97-2.26 5.79-5.74 8.5-7.74 2.71-2 9.42-6.23 14.92-9.41 5.5-3.17 12.7-6.87 16-8.21 3.3-1.34 10.48-4.98 15.96-8.09 5.49-3.11 12.24-7.71 15-10.23 3.21-2.92 6.56-7.46 9.21-12.5 2.29-4.36 5.05-10.17 6.13-12.92 1.08-2.75 4.33-10.18 7.23-16.5 2.89-6.32 6.94-16.23 8.98-22 2.05-5.78 5.27-13.88 7.15-18 1.89-4.13 5.66-10.82 8.39-14.89 2.72-4.06 7.99-10.25 11.7-13.75 3.71-3.5 10.24-8.69 14.5-11.53 4.26-2.85 10.45-6.38 13.75-7.84 3.3-1.47 9.6-3.84 14-5.27 4.4-1.43 13.18-3.92 19.5-5.55 6.32-1.62 16.9-3.7 23.5-4.61 6.6-0.92 14.25-2.13 17-2.7 2.75-0.56 8.6-2.18 13-3.58 4.4-1.41 10.59-3.85 13.75-5.42 4.04-2.01 10.29-7.23 21-17.52 11.2-10.76 18.44-16.76 27.25-22.56 6.6-4.35 15.6-9.63 20-11.74 4.4-2.11 12.5-4.98 18-6.38 5.5-1.39 11.12-2.73 12.5-2.96 1.37-0.24 8.24-0.49 15.25-0.56zm-21.25 12.2c-4.68 1.27-11.2 3.17-14.5 4.21-3.3 1.05-11.63 5.44-18.5 9.75-6.88 4.32-14.52 9.49-17 11.49-2.48 2-10.35 9.29-17.5 16.21-7.15 6.92-15.48 13.96-18.5 15.66-3.02 1.7-9.32 4.45-14 6.1-4.68 1.65-12.1 3.7-16.5 4.55-4.4 0.85-11.82 2.06-16.5 2.68-4.68 0.63-15.7 2.94-24.5 5.15-8.8 2.2-20.5 5.69-26 7.76-5.5 2.06-13.38 6-17.5 8.77-4.13 2.76-10.2 7.5-13.5 10.53-3.3 3.03-8.09 8.62-10.65 12.41-2.56 3.79-5.86 9.59-7.35 12.89-1.48 3.3-4.04 9.82-5.68 14.5-1.64 4.68-4.36 11.87-6.05 16-1.69 4.12-3.41 7.95-3.83 8.5-0.41 0.55-3.53 7.52-6.94 15.5-3.4 7.97-7.67 16.97-9.48 20-1.82 3.02-5.95 7.97-9.18 11-3.24 3.02-10.59 8.2-16.35 11.5-5.75 3.3-13.2 7.12-16.54 8.5-3.35 1.37-10.48 4.98-15.84 8-5.36 3.02-12.19 7.41-15.18 9.75-3.35 2.62-8.34 8.37-13.04 15-4.18 5.91-9.47 14.6-11.75 19.31-2.28 4.71-4.69 9.89-5.35 11.5-0.67 1.62-2.02 5.87-2.99 9.44-1.35 4.94-1.75 9.97-1.67 21 0.06 7.98 0.81 21.7 1.68 30.5 0.86 8.8 2.12 26.35 2.79 39 0.93 17.48 0.95 25.16 0.07 32-0.62 4.95-2.5 13.84-4.16 19.75-1.65 5.91-3.99 12.89-5.2 15.5-1.2 2.61-6.23 11.73-11.17 20.25-4.95 8.52-11.11 18.65-13.69 22.5-2.59 3.85-6.63 10.6-8.98 15-2.36 4.4-5.37 11.15-6.69 15-1.33 3.85-3.78 11.95-5.45 18-2.76 9.97-3.09 12.78-3.54 30-0.45 16.94-0.27 19.98 1.62 28 1.16 4.95 3.72 13.95 5.68 20 1.96 6.05 4.16 12.35 4.89 14 0.73 1.65 3.85 9.52 6.93 17.5 3.09 7.98 7.26 17.87 9.27 22 2.02 4.12 7.58 14.02 12.35 22 4.78 7.98 9.93 17.87 11.45 22 2.02 5.49 2.89 10.05 3.26 17 0.38 7.23-0.02 12.25-1.67 21-1.19 6.33-4.34 19.37-7 29-2.66 9.62-5.32 19.75-5.91 22.5-0.59 2.75-1.37 11.98-1.73 20.5-0.41 9.83-0.2 19.7 0.57 27 0.67 6.33 2.3 15.33 3.63 20 1.33 4.67 2.81 9.4 3.29 10.5 0.48 1.1 2.92 6.27 5.42 11.5 3.92 8.2 6.15 11.22 16.22 22 6.43 6.87 14.72 16.55 18.42 21.5 3.71 4.95 10.98 13.73 16.17 19.5 5.18 5.77 11.7 13.87 14.49 18 2.78 4.12 6.91 10.87 9.17 15 2.27 4.12 4.99 10.2 6.05 13.5 1.07 3.3 3.38 12.75 5.14 21 1.76 8.25 4.08 18.37 5.16 22.5 1.08 4.12 2.9 10.42 4.04 14 1.15 3.58 3.99 10.78 6.32 16 2.33 5.22 6.49 13.33 9.23 18 2.75 4.67 7.87 12.3 11.38 16.94 3.5 4.64 10.42 12 15.37 16.36 4.95 4.35 13.05 10.71 18 14.14 4.95 3.43 10.57 7.05 12.5 8.04 1.93 0.99 7.32 2.91 12 4.26 7.61 2.19 10.7 2.48 29.5 2.73 15.63 0.21 22.47 0.7 26.75 1.91 3.28 0.92 12.93 5.87 22.5 11.52 9.21 5.45 20.35 12.49 24.75 15.64 4.4 3.16 12.27 9.46 17.5 14.02 5.23 4.55 12.65 11 16.5 14.32 3.85 3.32 10.37 7.68 14.5 9.7 4.12 2.01 12.68 5.4 19 7.53 9.68 3.25 13.72 4.04 25.5 4.98 8.26 0.66 20.97 0.85 31 0.46 9.35-0.36 19.25-1.12 22-1.68 2.75-0.55 9.27-2.41 14.5-4.12 5.23-1.71 12.99-4.83 17.25-6.93 5.09-2.51 11.89-7.34 19.81-14.07 6.63-5.64 14.84-12.64 18.25-15.57 3.4-2.92 11.14-8.61 17.19-12.63 6.05-4.03 16.4-10.5 23-14.37 7.24-4.25 14.58-7.74 18.5-8.79 4.99-1.34 11.16-1.79 26.5-1.95 17.19-0.18 21.12-0.52 28-2.43 4.4-1.22 10.02-3.13 12.5-4.25 2.48-1.11 9.62-5.67 15.87-10.14 6.26-4.47 15.51-12.17 20.57-17.12 5.71-5.59 11.7-12.79 15.79-19 3.63-5.5 8.83-14.5 11.55-20 2.72-5.5 6.2-13.15 7.72-17 1.53-3.85 4.48-13.97 6.56-22.5 2.08-8.53 5.23-21.8 7-29.5 2.62-11.37 4.24-15.97 8.67-24.5 2.99-5.78 8.06-14.1 11.26-18.5 3.21-4.4 9.31-11.83 13.56-16.5 4.25-4.67 10.99-12.77 14.99-18 3.99-5.23 12.28-14.9 18.42-21.5 6.14-6.6 12.25-13.8 13.57-16 1.32-2.2 4.03-7.83 6.01-12.5 1.99-4.67 4.65-12.1 5.93-16.5 1.28-4.4 2.86-13.85 3.52-21 0.9-9.78 0.92-17.15 0.1-29.75-1-15.36-1.51-18.22-6.13-34.5-2.78-9.76-6.21-23.6-7.63-30.75-2.17-10.9-2.49-14.62-1.99-23 0.33-5.5 1.1-11.8 1.72-14 0.62-2.2 2.65-7.04 4.53-10.75 1.88-3.71 5.59-10.24 8.25-14.5 2.66-4.26 6.99-11.8 9.63-16.75 2.64-4.95 6.34-13.05 8.21-18 1.88-4.95 5.21-13.5 7.42-19 2.2-5.5 4.41-10.9 4.9-12 0.5-1.1 2.83-8.08 5.19-15.5l4.28-13.5 0.03-51c-5.04-17.44-7.57-25.31-8.87-28.75-1.3-3.44-3.82-8.95-5.61-12.25-1.78-3.3-6.03-10.27-9.44-15.5-3.41-5.23-7.96-12.65-10.11-16.5-2.15-3.85-5.84-10.15-8.2-14-2.35-3.85-5.61-10.38-7.24-14.5-1.62-4.13-3.84-11.1-4.92-15.5-1.08-4.4-2.54-11.6-3.25-16-1.04-6.48-1.05-12.56-0.04-32 0.68-13.2 2.17-34.8 3.3-48 1.26-14.76 1.8-26.7 1.4-31-0.36-3.85-1.11-9.02-1.67-11.5-0.56-2.48-1.42-5.4-1.91-6.5-0.48-1.1-1.84-4.48-3.01-7.5-1.17-3.02-3.15-7.52-4.41-10-1.25-2.48-5.37-9-9.15-14.5-3.78-5.5-9.12-12.2-11.87-14.89-2.75-2.69-10.17-7.89-16.5-11.57-6.33-3.68-13.75-7.52-16.5-8.54-2.75-1.02-10.4-4.97-17-8.78-7.13-4.12-14.36-9.22-17.82-12.58-3.2-3.1-7.32-8.34-9.17-11.64-1.84-3.3-5.83-11.85-8.85-19-3.03-7.15-6.62-15.25-7.98-18-1.36-2.75-4.1-9.5-6.1-15-2-5.5-5.25-13.82-7.23-18.5-1.98-4.68-5.9-11.83-8.72-15.9-2.82-4.07-7.61-9.64-10.63-12.37-3.02-2.74-9.1-7.35-13.5-10.25-4.4-2.89-12.27-6.85-17.5-8.79-5.23-1.94-16.48-5.33-25-7.53-8.52-2.2-19.55-4.52-24.5-5.14-4.95-0.63-12.6-1.84-17-2.7-4.4-0.85-11.83-2.89-16.5-4.53-4.67-1.64-10.98-4.39-14-6.11-3.02-1.73-12.25-9.62-20.5-17.54-10.41-10-18.37-16.62-26-21.66-6.05-3.99-13.7-8.64-17-10.34-3.3-1.7-10.73-4.5-16.5-6.24-9.41-2.82-12.11-3.18-26-3.51-13.8-0.33-16.43-0.12-24 1.95z" fill-rule="evenodd"/></g></svg>