<?xml version="1.0" encoding="UTF-8"?><!DOCTYPE svg PUBLIC "-//W3C//DTD SVG 1.0//EN" "http://www.w3.org/TR/2001/REC-SVG-20010904/DTD/svg10.dtd" []><svg xmlns="http://www.w3.org/2000/svg" xmlns:xlink="http://www.w3.org/1999/xlink" height="856" viewBox="0 0 495.368 856.21" width="495"><g filter="none"><path d="M294.749 706.867c-.256-.074-.355-.402-.48-.48.094.165.373.299.48.48M294.27 706.387c-.096-.168-.382-.302-.48-.48.179.14.323.383.48.48"/><path d="M293.79 705.907c-6.914-5.379-2.722-10.721-5.731-15.5-.411-.653-2.156-1.165-2.912-2.01-1.253-1.396-2.161-4.446-3.34-6.124-.48-.682-1.52-.826-2.14-1.83-.762-1.237-1.014-4.096-1.667-4.96-.35-.463-1.19-.153-1.383-.36-.238-.256-2.99-4.893-3.55-5.832-1.691-2.835-4.134-10.489-6.28-12.19-1.24-.982-4.71-1.206-6.291-1.049-3.695.367-9.563 3.321-12.524 3.322-1.38 0-4.457-1.146-6.305-1.382-1.59-.204-3.466-.55-4.939-.036-1.014 1.436 4.596 7.24 1.41 8.854-1.78.903-3.09-.807-3.336-2.443-.323-2.135 1.148-4.668.007-6.24-.925-1.276-8.614-5.126-10.815-6.935-1.924-1.58-8.573-7.674-9.767-9.426-2.615-3.835-4.159-11.189-6.219-15.854-1.298-2.94-2.624-3.408-2.968-7.588-.835-10.14 1.349-21.081 2.387-31.188.445-4.338-.333-9.705 1.374-13.96.5-1.245 2.295-1.756 2.985-3.276.707-1.558 1.322-5.037 1.74-6.895 3.407-15.127 7.15-33.316 12.74-47.72 2.095-5.4 5.332-7.964 8.113-12.52 5.55-9.09 13.452-38.056 13.252-48.55-.04-2.15-1.14-5.303-1.332-7.682-1.346-16.688 2.628-30.888 4.308-47.023 1.044-10.02-.144-19.295-2.13-29.054-1.661-8.157-7.341-18.03-6.498-26.603.313-3.178 3.734-14.908 5.03-18.002 3.335-7.954 8.33-15.363 11.845-23.184 3.083-6.862-.27-13.923-1.395-20.853-1.034-6.37-1.677-15.537-1.617-21.943.03-3.17 2.564-4.695 1.943-8.617-.572-3.62.024-2.773.443-6.316.85-7.178 2.358-13.872 2.98-21.054l-1.451-12.028c-1.994-1.012-3.676.369-5.177.64-1.23.223-3.61-.249-4.222.577-1.008 3.648-2.214 7.22-2.977 10.938-1.471 7.175-1.59 14.248-2.586 21.407-4.542 32.624-16.548 59.656-32.306 88.134-1.646 2.974-7.045 8.603-7.69 10.063-.685 1.55-1.248 8.028-1.923 10.554-1.374 5.14-4.575 14.498-7.93 18.46-4.251 5.017-7.025 8.65-10.745 14.206-5.017 7.494-7.47 9.577-14.703 15.046-8.211 6.21-15.751 13.752-24.21 19.933-3.061 2.237-5.332 2.819-8.39 4.563-4.979 2.84-4.413 5.355-7.178 9.617-1.388 2.14-7.72 10.578-9.37 11.743-4.44 3.137-13.382 1.806-10.786-5.274 2.786.53.097 3.636 3.176 5.212 1.731.887 2.94.735 4.66-.012 2.712-1.177 10.62-12.087 11.843-15.024 1.58-3.792.24-3.303-3.287-2.329-2.749.76-5.671 2.58-8.464 3.53-11.399 3.88-28.055 3.871-38.785-2.03-2.546-1.4-4.924-3.654-7.538-4.936-17.228-8.448-25.908 5.146-37.668 14.613-4.236 3.41-9.323 6.31-13.42 9.61-1.183.953-6.566 5.81-7.172 6.743-1.396 2.149-.674 4.297-2.176 6.003-1.09.565-3.8-3.023-5.198-3.24L5.413 460c.264-4.605 4.514-7.062 7.939-9.394 5.545-3.776 11.756-6.683 17.203-10.625 8.272-5.985 16.404-16.986 27.008-18.095 14.294-1.494 20.567 8.305 33.267 10.756 4.427.854 10.155 1.036 14.67.722 8.552-.593 15.751-5.602 23.727-8.185.45-2.179-3.324.275-2.875-1.904 1.638-.372 7.499-3.891 8.185-5.015.606-.992.351-2.087.823-3.016 4.845-9.54 9.58-15.333 20.121-18.744 2.091-.677 7.897-1.243 9.002-2.514.594-.683 2.112-6.783 2.178-7.926.35-6.059-3.49-8.984-5.766-13.922l.956-.454c-1.51-1.852-3.011-3.792-4.25-5.835-1.118-1.845-1.972-4.21-3.114-5.994-.777-1.213-6.133-9.071-7.501-8.086-.901 6.587-3.304 12.789-5.145 19.092-3.41 11.674-7.734 29.564-13.327 39.953-.363.673.036 1.179-1.201.934-.005-2.265 1.772-4.125 2.623-6.249 2.423-6.053 4.411-13.343 6.249-19.662 3.07-10.553 5.908-21.573 8.05-32.256.354-1.76 1.703-5.218 1.065-6.601l-7.672-9.598c-3.213 1.772-5.535 4.723-8.438 6.908-6.196 4.665-12.5 7.142-18.214 12.974-.837.854-.864 1.903-1.71 2.61-1.61 1.344-5.829 2.215-7.627 3.887-1.493.479 2.69-3.706 3.151-4.046 2.89-2.136 5.327-2.79 8.137-5.774 4.682-4.973 6.48-5.46 11.735-9.381 2.62-1.955 11.566-8.85 12.821-11.17 1.52-2.806 2.03-10.077 3.014-13.78 5.379-20.238 18.8-37.907 24.578-57.955 2.277-7.9 2.895-16.522 5.075-24.195.777-2.735 3.437-6.024 3.69-8.314.11-.995-.335-.825-1.097-.612-1.553.435-6.265 2.256-7.072 3.486-.51.778-2.185 6.616-2.55 8.006-1.486 5.649-1.657 8.276-4.365 13.87-5.152 10.644-12.681 21.13-20.66 29.727-3.53-1.484 2.975-6.142 4.54-8.055 4.609-5.63 15.952-23.054 17.75-29.64.864-3.167 1.4-6.29 2.335-9.663.569-2.05-1.16-1.008-2.03-.107-3.783 3.924-4.49 9.358-6.735 13.897-.542 1.097-3.811 5.904-4.606 6.427-.958.632-2.72 1.067-2.878-.454-.147-1.413 1.223-7.67 1.73-9.329 2.672-8.739 12.209-18.104 20.516-21.709 2.873-1.246 6.541-1.446 8.916-2.598 1.967-.954 2.822-3.49 4.619-4.02.672-.199.852.044.703.703-2.548 5.391-6.725 11.218-8.647 16.786-2.392 6.925-3.375 15.627-5.396 22.916-5.259 18.97-15.057 34.633-21.471 52.903-1.404 3.998-3.426 9.103-3.103 13.212 1.15-1.426 3.388-3.366 4.301-4.815 1.002-1.59 1.543-3.954 2.476-5.681.859-1.588 5.719-9.878 5.432-10.805-.203-.658-2.522-.634-1.163-3.646.344-.762 4.587-3.729 5.718-5.312 5.527-7.737 14.243-19.34 18.416-27.648 1.656-3.298 1.854-7.667 3.21-11.185 1.706-4.425 6.244-9.138 7.539-12.614.227-.61.424-6.472 1.804-5.145 2.272 3.968-1.5 5.904-2.276 8.991-.39 1.553.06 3.35-.24 5.04-1.713 9.648-9.918 21.863-15.5 30.084-2.377 3.502-6.555 7.446-8.558 11.115-.97 1.78-1.464 4.405-2.332 6.304-1.643 3.588-7.608 14.113-7.985 16.962-.453 3.423.937 8.04.956 11.479.007 1.242-.533 2.38-.516 3.362.04 2.295-.303 13.11 3.109 13.196.783-5.445-1.549-11.032-1.692-16.538-.1-3.828.92-7.664.498-11.537-.08-1.864 2.946-.95 3.294.062.177 5.41-.832 10.762-.354 16.19.155 1.764 1.804 10.905 2.83 11.565.958.615 3.754.206 1.86 2.85-1.525 2.128-5.028.561-5.23.765.175 2.142 1.807 4.388 1.78 6.577-.018 1.314-1.35 1.806-1.297 3.203.071 1.87 2.342 5.513 3.442 7.164 4.06 6.097 8.589 8.466 8.566 16.861-.006 2.043-.753 5.828-1.213 7.946-.69 3.176-1.302 7.317-4.725 8.232-8.306 2.22-17.819 2.541-23.545 10.04-3.17 4.15-4.17 9.065-6.523 13.63 3.519.968 3.246-1.666 4.227-3.45 1.556-2.83 3.642-5.416 5.14-8.299 1.006-.189.79.385.621 1.1-.284 1.203-1.122 2.307-.868 3.692 1.007.068 1.883.086 2.86-.257.89-.313 14.894-10.035 15.506-10.752.651-.764.465-1.66 1.339-2.632 2.093-2.33 7.205-4.836 9.79-7.001 5.768-4.83 17.15-21.615 20.332-28.61 1.644-3.613 4.575-12.176 5.13-15.983.3-2.057-.104-4.555.43-6.288.344-1.115 5.99-6.767 7.367-8.947 5.262-8.324 11.283-21.264 15.702-30.363 8.792-18.105 15.433-39.84 17.927-59.807.727-5.824.623-12.244 1.613-18.061.756-4.44 2.655-9.358 4.106-13.645-4.564-6.279-6.092-13.04-4.98-20.82l2.67-.444c-1.057 2.227-.83 5.87-.367 8.28.235 1.223 2.71 7.856 3.547 7.987 3.776-1.202 3.487-5.171 5.47-7.86 1.377-1.866 3.215-2.338 4.606-4.017 3.372-1.18 3.39 2.62 5.221 2.807 2.298.234 9.531-3.28 11.508-4.802 6.664-5.128 5.515-11.713 4.074-19.196-1.128-.244-.77.165-1.07.62-.528.802-2.015 4.282-2.083 5.113-.06.735 2.808 2.89.075 4.858-2.784 2.004-5.568-3.874-7.983-5.52-2.692-1.836-6.12-1.156-7.642-3.874 1.702-1.32 8.34 3.043 9.128 2.423 1.008-2.044 1.08-4.891.231-6.986-.687-1.697-3.754-2.88-3.564-4.001.34-2.01 4.167-1.904 5.717-1.747.175 1.268-.013 1.217-.974 1.677 3.238 3.993 1.561 8.988 1.455 13.674 1.235.177 2.158-.431 2.385-1.689.154-.851.559-4.94.525-5.741-.055-1.308-1.422-3.112-1.329-3.86.089-.71 3.02-1.66 2.257-3.58-2.64.41-3.084-1.726-5.13-2.794-4.658-2.429-7.064.288-10.86 2.395-.917.51-2.089.667-3.064 1.255-2.103 1.267-4.524 5.702-5.92.843.124-1.246 4.203-4.463 5.44-5.162 1.61-.91 6.855-3.553 8.477-4 5.829-1.603 7.42 1.245 12.319 1.668 2.5.216 2.645-.56 3.62-2.52 5.727-11.512 3.855-21.736 7.448-33.34 3.065-9.897 14.542-14.38 22.862-18.4 8.099-3.914 10.65-7.935 17.094-13.615 8.94-7.881 25.31-22.563 36.009-26.366 12.331-4.383 21.321-4.837 32.13-13.93 7.21-6.066 13.532-18.206 24.23-18.034 2.871.046 6.262 1.143 9.117 1.465 3.498.394 6.445-.37 10.096.938 1.55.556 2.65 1.911 4.295 1.981 1.511.065 2.565-.811 3.87-.953 7.973-.864 16.153 3.959 18.32 11.832.256.934-.136 2.167.354 3.003.694 1.183 5.019 2.556 5.034 4.798-1.047.906-7.012-2.585-7.708-3.562-.81-1.136-.26-2.51-.572-3.747-1.58-6.273-10.521-12.04-16.803-9.38-1.313.555-1.378 2.972-2.26 3.528-.908.571-2.084-.681-3.358-.056-1.136.559-2.438 2.875-1.22 4.12 2.648 2.702 4.574-1.932 5.051-1.457 1.1 1.899.352 3.016.438 4.563.089 1.589 4.972 6.002 6.274 7.683 4.14 5.348 9.092 12.567 11.265 18.965.91 2.68 1.414 7.842 2.541 9.934.965 1.791 2.784 2.71 3.847 5.75 3.73 10.664-3.308 14.936-4.201 23.893-1.164 11.666-3.397 28.69-12.7 37.202-2.63 2.405-4.246-.194-7.707 3.33-.204.207-4.446 6.082-3.583 3.137.272-.929 4.746-5.502 5.729-6.27 3.3-2.578 4.645-2.322 7.31-6.603 6.331-10.162 7.516-18.789 8.551-30.317.731-8.139 8.917-15.35 3.623-24.273-1.452-2.448-3.765-4.498-5.32-7.635-1.34-2.705-1.889-5.586-3.015-8.021-1.05-2.274-3.965-4.38-4.608-5.944-.941-2.29-.596-4.56-1.994-7.127-1.61-2.96-5.553-5.65-6.94-7.934-.727-1.196-.478-2.438-1.635-3.644-1.53-1.593-3.266-.963-4.85-1.867-2.332-1.332-4.916-5.893-4.535-8.66 1.428-.44 5.598 1.506 6.2-.291.515-1.534-1.036-2.468-2.268-2.922-3.69-1.359-8.18-.468-11.823-.609-1.717-.066-3.311-1.05-5.3-1.014-7.997.143-18.078 13.772-24.48 18.741-10.486 8.14-20.93 8.989-32.633 13.428-7.633 2.895-18.55 13.592-24.941 19.201-2.79 2.448-7.126 4.396-7.902 8.167 1.147 1.017 16.119-4.456 18.686-5.057 3.288-.77 5.228-1.108 8.516-2.04 10.048-2.85 16.244-1.73 26.23-.04 1.705.29 3.614 1.283 4.846 1.418 4.444.487 8.614-3.563 12.463 2.385.57.882 3.895 9.012 3.93 9.885.138 3.47-2.95 9.215-5.117 11.916-6.684 8.329-19.59 18.628-30.188 20.672-8.302 1.601-11.915.525-20.016 4.933-1.497.815-8.361 6.012-9.276 5.356-1.882-4.223 8.522-7.752 9.076-9.926.24-.94-1.1-1.685-.93-3.22.315-2.82 2.887-8.69 2.887-11.087v-7.197l-1.192-.718c-.357.29-.695.59-.933.991-1.297 2.193-2.037 10-3.403 13.391-1.639 4.066-5.96 10.12-9.584 4.34-.937-.051-2.806 11.914-8.63 12.482-1.595.156-3.738-.68-4.694-.425-.93.25-6.273 5.005-7.448 1.035-1.197-4.049 1.768-5.062 1.874-7.104.159-3.05-2.978-5.099-5.849-3.856-.11.856-.89 5.053-2.358 3.614-.334-.327 1.342-5.835 1.903-6.49 2.954-3.443 6.928-.791 8.835 2.23.524.829 1.203 4.05 2.445 3.78 3.05-.665 6.276-18.334 12.037-18.708 5.851-.378 3.662 10.842 5.783 11.483 2.158.29 3.783-3.366 4.364-5.142 1.162-3.547 1.274-17.498 7.8-14.73 4.94 2.096.22 15.795.972 16.541.653.027.931.16 1.46-.317 2.742-2.477 4.273-16.238 7.877-15.518 2.675 2.89-.315 6.155-.706 9.356-.066.532-.318 5.483.957 4.082 1.138-2.152 3.011-13.926 4.583-14.414 1.199-.372 1.594.687 1.617 1.726.049 2.27-2.836 14.168-4.06 16.023-2.502 3.791-4.65 1.629-5.009-2.051l-1.2-.338c-.318.1-2.302 3.7-2.915 4.3-1.35 1.324-3.948 1.866-4.525 4.346.859.031 1.72.045 2.58-.054 15.153-1.73 25.234-3.177 36.527-14.33 7.659-7.563 13.192-12.819 8.274-24.125-3.04-6.99-7.187-2.336-12.593-2.718-6.763-.477-13.745-3.476-21.484-2.812-1.754.15-4.816 1.88-6.692 2.432-3.759 1.107-7.659 1.877-11.408 2.985-5.213 1.542-27.404 7.901-30.013 10.77-1.646 1.808-2.607 5.934-4.775 7.7-.21-3.342 4.515-7.106-2.005-4.885-5.155 1.756-16.217 9.217-18.414 14.214-.712 1.62-3.44 12.54-3.338 13.952.173 2.402 4.009.29 5.537.238.722-.024 1.385-.33 1.187.711-.933 1.091-4.422 2.619-5.017 3.622-.515.87-.765 3.91-1.324 5.393-2.052 5.441-7.526 14.732-7.084 20.259.171 2.137 1.31 4.31 1.437 6.483l9.568-2.433.025-1.4-4.85-1.297c-.538-2.367.426-4.477 3.135-3.983.738.135 1.287.875 1.98.951 1.333.148 3.936-1.42 5.732-1.436 2.556-.021 11.446 1.434 13.39 2.922.936.716.793 2.102 1.723 2.595 5.364 2.84 12.712 1.998 17.76 7.67 1.618 1.82 2.606 6.002 5.748 6.002-.635-1.133-1.262-5.849 1.127-5.21 1.505.401 2.236 4.534 3.189 5.937 2.1 3.095 4.08 2.2 6.931 3.145 6.107 2.025 20.979 5.7 25.174 8.891 1.753 1.333 3.128 3.378 4.881 4.716 5.442 4.152 18.375 9.115 25.063 8.236 4.734-.623 13.486-2.384 17.276-5.155 2.288-1.673 3.21-4.97 6.074-5.197.45 2.594-.696 4.785-1.209 7.217 1.713 1.762 3.874 2.144 6.247 1.896.95 1.988-4.53 1.633-5.777 1.463-1.599-.218-2.172-1.333-4.071-1.245-2.122.1-5.296 1.82-7.036 3.033-.417.29-.89-.081-.626 1.065.573.573 8.225.79 9.726 1.074 3.179.603 3.521 2.762 8.141 2.164 3.79-.49 4.129-2.176 6.417-3.636 4.866-3.105 11.704-6.166 12.07-12.942.119-2.179-1.085-4.455-1.121-6.09-.053-2.318 4.448-1.824 3.657 1.17 8.288-.7 2.124 9.216-1.197 11.098-2.52 1.428-1.526.412-4.098 2.622-3.091 2.656-14.23 10.36-17.936 10.15-1.709-.095-3.714-1.69-5.46-2.13-2.904-.728-11.587-1.5-14.782-1.57-2.703-.06-5.26 1.402-8.104.946-2.01-.322-2.68-2-4.146-3.05-3.769-2.7-6.638-1.845-10.543-2.89-3.638-.975-14.384-3.882-17.097-5.454-.404-.233-.822-.423-1.1-.821-.11-.795-.028-.774.724-.73 2.233.132 4.89 2.457 7.427 1.931.065-.047-.461-1.074-.642-1.277-1.04-1.168-3.782-3.966-4.962-4.87-3.945-3.02-9.7-3.94-14.544-4.402-.732.657 3.097 3.407 3.683 3.75 1.128.659 4.378 1.654 4.72 1.997 1.86 1.867-2.82.14-3.297-.062-6.336-2.677-9.812-8.244-14.231-10.239-1.026-.463-4.384-.48-6.232-.965-4.465-1.171-11.002-6-14.37-9.14-.734-.685-.912-1.868-1.67-2.65-1.515-1.563-11.529-2.83-13.995-2.8-.671.007-5.935.36-4.496 1.62 1.506 1.32 5.078 1.114 5.265 3.608-3.262-.868-8.244-.793-11.262-1.927-1.261-.473-1.729-1.578-2.503-1.812-2.364-.714-11.63.648-11.667 4.221l-2.228-.9-1.105.684.946 5.495 2.72-1.855c6.053 4.863 7.54-4.67 12.62-6.303.362 3.473 3.967 5.274 6.858 6.824.997.534 1.943.182 3.255 1.063 2.455 1.65 6.772 10.06 9.096 12.977 1.148 1.441 7.407 7.977 8.868 7.916.764-.031.508-.981.49-1.425-.045-1.099-.115-3.09-.292-4.042-.527-2.83-4.261-7.816-.673-9.361 1.829 1.48.914 3.852 1.302 5.852.521 2.683 1.909 5.508 1.83 8.73-.163 6.731-6.046 1.353-8.21 2.867-1.114 1.608.634 5.234-2.214 5.47-2.882.24-.704-3.885-.604-4.958.27-2.892-3.547-9.724-5.586-11.718-.567-.555-1.264-1.097-2.116-.998-1.116 6.522 2.702 10.333 5.247 15.558-.614 1.336-2.938.278-3.602 1.201-1.345 1.87 2.337 8.625 2.915 11.066.622 2.628.464 5.555 1.22 7.898.716 2.223 2.547 4.98 3.464 7.572 2.615 7.4 4.421 19.58 7.91 26.16.599 1.13 1.833 1.336 2.529 2.268 1 1.34 3.06 8.822 5.015 8.41 1.308-.275.116-7.626-.35-8.758-.686-1.667-3.67-1.71-2.76-4.675 3.03-.687 3.935 2.427 4.661 4.694 1.104 3.451 1.333 7.102 1.797 10.682l2.148-.017c1.123 3.262 1.17 6.361 3.596 9.145.994 1.14 2.843 1.62 3.851 2.866 4.517 5.578 3.899 16.795 5.187 23.604 2.187 11.56 2.924 23.515 5.767 35.02 5.569 22.536 23.338 30.528 33.36 48.69 2.002 3.63 2.82 11.769 5.329 13.864 2.17 1.813 2.788-1.07 4.62-1.237 1.076-.098 1.863.803 2.872.944 1.38.192 4.848-.467 5.416 1.3.28.865-.337 3.21.776 3.408 1.786-.53 4.183-.718 5.712-1.872.995-.75 1.744-2.287 2.96-3.277 2.325-1.892 4.95-3.363 7.382-5.094 3.553-2.527 4.185-4.9 9.39-5.03 4.226-.105 5.62 1.926 10.275-.734 6.605-3.775 7.73-11.383 10.668-17.642 2.183-4.651 5.514-11.512 8.1-15.785.686-1.134 7.41-8.851 8.36-9.499.575-.391 2.064-1.004 1.696.253l-9.305 11.81c-3.953 8.33-6.898 17.277-10.907 25.56-2.62 5.413-5.165 9.728-11.743 10.325-1.711.156-4.228-.436-5.151-.283-.483.08-7.996 3.52-8.898 3.99-3.212 1.674-6.748 5.587-10.062 7.691-4.197 2.666-16.312 9.213-14.023-.946-2.085-3.309-7.38-.263-9.04-1.51-2.199-1.654-3.896-10.36-5.29-13.454-4.015-8.92-12.64-14.92-18.71-22.073-11.598-13.666-16.982-28.298-19.2-46.059-.98-7.848-1.682-13.008-3.213-20.779-.76-3.855-1.781-15.076-4.217-17.377-.41-.387-2.824-1.72-3.128-1.424.525 2.012.787 4.183.251 6.248-.498 1.92-1.75 3.472-3.024 1.079-1.645-3.091-1.897-8.86-3.11-12.246-2.93-8.187-8.775-15.097-11.756-22.31-3.275-7.922-4.855-15.991-7.167-24.024-.845-2.939-3.189-6.047-3.868-8.608-.582-2.196-.552-4.952-1.212-7.425-.927-3.47-2.946-6.329-3.578-9.858-.795-4.442-.08-4.061-2.146-8.41-1.552-3.267-9.324-19.39-12.2-19.95-2.111.84-4.487 2.333-6.76 2.694-2.002.317-4.622-.414-5.866-.11-.488.12-4.479 4.079-4.624 4.526-.767 2.351 2.024 6.756 3.646 8.418l-.953 1.197c.167.187 1.513-1.757 1.889-.2.314 1.3-.72 4.837-.413 7.118.184 1.362 1.323 4.91 1.83 6.338.177.498-.228.87.708.61.464-.13 2.007-.87 2.22-1.266l2.44-12.842c-.011-3.247-5.037-7.416-3.816-10.97.368-1.068 3.9-1.436 4.989-2.11 1.469.21 3.319 11.736 3.52 13.624.252 2.367-.325 5.369.16 7.517.283 1.247 1.524 2.158 1.778 3.98 1.06 7.576-.662 17.68.549 24.405.328 1.824 2.401 5.067 3.078 6.998 4 11.404 8.05 20.48 8.884 32.862.18 2.671-.595 5.235.01 7.91l1.44-4.793c2.181-.03 1.51 3.95 1.31 5.392-.375 2.712-2.814 7.073-2.788 9.262.017 1.538 1.364 1.775 1.479 2.863.121 1.159-.929 2.952-.983 4.34-.05 1.292.426 2.22.501 3.37.024.37-.682 4.245.71 3.56.98-.53 1.368-3.514 2.88-2.872 2.686 1.142-2.021 10.258-6.133 9.036-4.256-1.264.36-13.919-.342-17.196-1.803.154-2.866 2.097-4.733.889 1.046-3.25-1.624-4.856-1.954-6.917-.702-4.394-.157-13.381-.047-18.227.03-1.286 1.423-8.849-.22-8.849l-.658.772c-.17 3.1-.94 12.591-3.173 14.579-1.78 1.584-3.13.126-3.487-1.802-1.522-8.203.446-21.569-.123-30.589-.422-6.686-2.344-14.855-4.078-21.362-.086-.323-.246-1.46-.717-.715 1.495 11.16 1.558 22.366 1.901 33.61.203 6.66 1.062 13.41.492 20.126-.232 2.742-1.532 5.462-1.435 8.147.238 6.58 1.972 17.085 3.004 23.89 2.221 14.654 6.062 29.127 7.973 43.85 1.666 12.843 1.584 26.039 3.944 38.764 1.7 9.166 4.465 18.357 8.597 26.676.695-.091.798-.66.918-1.234 1.025-4.915 1.491-12.51 1.95-17.723 1.687-19.134 2.535-38.568 3.84-57.59.036-.532.354-1.786-.471-1.666-1.573 3.726-2.863 12.352-5.052 15.34-3.306 4.51-5.587-3.603-5.55-6.465.093-7.018.762-18.522 2.09-25.305.243-1.248.803-2.434.833-3.727 1.79-1.74 1.468 5.92 1.43 6.47-.305 4.412-1.274 8.987-1.453 13.423-.103 2.55-.286 6.744.019 9.146.085.67.249 1.377.953.71 2.66-9.107 5.047-18.29 7.94-27.334.671-2.095 1.725-10.02 5.044-7.86-.034 5.933-1.492 11.76-1.937 17.685-1.354 18.03-2.01 36.163-3.369 54.215-.89 11.832-3.08 24.14-2.888 35.97.06 3.727 2.133 9.2 2.174 13.222l1.197.477c-.058-4.9 2.961-8.78 4.552-12.962 6.576-17.293 12.21-40.817 13.222-59.236.215-3.933-.829-7.708-.492-11.528.185-2.102 1.231-3.963 1.444-5.75.482-4.038-1.228-8.643-.963-12.967.186-3.027 1.91-6.907 1.905-9.605-.005-2.347-2.056-5.273-1.894-7.656.149-2.202 3.786-3.707 4.264-6.768.594-3.801-1.49-6.25-1.403-9.805.972-.182 1.149.438 1.472 1.162.573 1.285 1.87 6.386 1.9 7.74.08 3.71-4.79 5.135-4.78 7.65.004 1.372 2.339 4.582 2.405 7.2.07 2.714-1.364 5.84-1.496 8.62-.228 4.814 1.497 9.77 1.001 14.917-.196 2.036-1.245 3.298-1.465 5.253-.407 3.607.577 8.09.5 12.017-.259 13.236-4.458 30.986-7.922 43.902-3.497 13.038-10.289 23.078-10.83 37.15-.122 3.188 1.146 5.5.988 8.168-.216 3.649-2.866 7.514-2.925 11.057-.053 3.225 1.006 7.783.999 11.032-.027 12.525-1.892 26.054-4.927 38.26-1.67 6.718-.919 9.8-1.315 16.44-.762 12.798-3.352 25.51-4.427 38.28-.567 2.758-2.724 3.966-3.877.746-1.972-5.506-1.607-12.193-1.746-17.927-.065-2.685-1.242-5.537-.014-8.377 1.186-.88 2.322 8.71 2.388 9.362.201 2.01-.795 5.235.959 6.472 1.06-4.172 1.79-8.506 2.345-12.775.616-4.747 1.837-12.743 1.878-17.217.007-.816-.554-5.108-.852-5.644-.424-.762-1.408-.47-1.814-.945-1.75-2.044.371-20.857-1.077-24.839l-3.117 9.592c-4.412 17.342-10.795 42.268-6.335 59.609.497 1.932 1.686 3.97 2.128 6.029 4.1 19.11 4.92 38.917 15.472 56.025 1.331 2.16 4.27 3.513 4.927 5.148 1.017 2.528.217 7.232 1.563 10.434.671 1.597 2.024 2.139 2.837 3.4 5.695 8.838 8.214 41.766 6.939 52.445-1.421 11.903-8.196 25.389-12.527 36.897-.758 2.013-2.661 5.052-3.017 7.039-.194 1.085 1.325 2.083 1.59 3.25.917 4.042-.663 9.21-2.296 12.864l-.947-.48c.657-1.318 2.473-12.282.704-12.234-1.15 1.76-6.02 10.961-8.144 10.55-.57-.11-.722-1.141-.771-1.678-.315-3.405 6.515-11.383 8.28-15.275 2.813-6.2 4.83-13.585 7.36-19.991 1.992-5.04 4.566-8.61 5.856-14.298 3.089-13.617.99-38.669-3.361-52.036-1.28-3.931-3.537-4.72-4.692-7.303-1.592-3.558-1.327-9.3-2.73-12.627-.544-1.292-3.22-3.995-4.217-5.858-2.404-4.497-4.458-9.942-6.552-14.561-2.432-5.365-2.68-12.728-3.884-18.67-1.555-7.674-2.79-15.396-4.319-23.031-.704-3.515-2.479-7.285-3.095-10.821-1.38-7.925.093-25.547 1.441-33.827 1.912-11.74 6.58-24.368 8.881-36.224.383-1.97-.075-4.487.72-6.478.39-.976 1.417-1.442 1.69-2.628 1.033-4.482.862-12.574 1.597-17.598.646-4.417 2.676-5.095 3.203-6.873 3.052-10.281-9.83-21.085-11.775-31.214-.706-3.684-1.019-9.497-1.123-13.317-.114-4.14.881-9.49.487-13.358-.694-6.811-2.93-18.468-4.498-25.294-.812-3.534-3.124-6.976-3.582-9.853-.66-4.136-.146-8.847-.528-12.909-.895-9.528-3.164-18.237-6.604-26.985-4.607-11.717-12.778-26.738-12.621-39.73.029-2.408.44-1.605.059-4.336-.379-2.711 1.384-4.472 1.447-6.71.275-9.78-4.735-24.32-6.619-34.178-1.31-6.858-1.41-14.55-2.652-21.34-.188-1.023-.832-3.72-1.187-4.57-.289-.69-.114-.729-1.079-.597-.397.494-.303 11.03-.522 12.674-.51 3.843-1.777 7.552-2.362 12.034-1.444 11.066-3.64 22.328-.953 33.351l4.558-1.914c.136-1.848 1.745-4.142 2.052-5.626.373-1.807-.561-3.738 1.303-4.925 1.016 0 .754 3.672.667 4.5-.832 7.947-4.436 18.44-4.751 25.983-.166 3.963 1.853 5.273-1.444 9.086-3.137 3.627-5.094 5.835-7.372 10.381-1.757 3.507-4.364 8.888-5.813 12.42-.727 1.772-5.541 17.868-5.53 18.972.019 1.696 1.217 2.268 1.699 3.58.89 2.426.9 6.026 1.703 8.853 2.668 9.396 5.423 16.743 6.2 26.91 1.42 18.59-6.144 35.978-3.826 54.457l2.286-6.115c.462-1.406-.685-2.541 1.543-3.003-.018 1.176.103 2.373-.046 3.549-2.63 20.88-4.775 51.805-15.866 70.026-1.384 2.273-7.512 9.191-7.975 10.738-.518 1.731.093 4.96-.148 7.05-.433 3.74-4.276 15.881-5.805 19.626-2.989 7.32-3.784 9.402-5.776 17.257-6.667 26.29-15.513 50.638-3.652 76.829 3.521 7.775 13.338 15.677 21.256 18.568 3.876 1.415 8.017.346 11.624 3.162l16.456-3.904c-.701-1.14-1.562-2.3-2.629-3.12-2.102-1.616-9.555-4.358-12.308-4.965-2.677-.59-6.266-.43-8.481-1.114-1.429-.441-1.968-1.727-2.815-1.989-2.893-.893-3.595 1.955-5.695 2.3-2.858.469-2.983-1.617-4.511-3.123-1.572-1.55-5.344-4.118-6.123-5.872-.676-1.52-1.82-7.693-1.983-9.534-.684-7.742 2.878-24.56 4.408-32.897 3.17-17.263 9.702-33.507 14.48-50.3 1.68-5.902 2.638-12.4 4.414-18.138 1.528-4.938 4.302-9.41 5.762-14.391 2.816-9.608 3.155-19.8 4.452-29.618 1.424-10.772 2.903-11.79 9.598-19.672 5.833-6.868 8.054-19.417 11.03-27.837 5.609-15.868 11.05-31.734 16.711-47.587l2.483-3.988-1.066 6.844c-1.693 4.995-3.085 8.386-3.34 13.551-.135 2.741-1.867 3.555-2.804 5.737-7.862 18.308-10.478 42.49-22.756 58.335-.604.779-1.709 1.145-2.025 1.573-7.742 10.49-5.61 30.937-9.672 44.313-1.504 4.953-4.19 9.58-5.837 14.796-2.618 8.286-3.891 17.777-6.84 25.79-4.26 11.58-9.102 23.098-11.74 35.284-.332 12.872-6.8 27.44-4.788 40.053.91 5.706 2.219 9.291 7.748 11.922 3.893 1.852 2.658-3.364 3.252-5.453.167-.587.966-1.018 1.232-1.647 1.418-3.35 3.176-6.003.34-9.24-1.194-1.363-3.195-.761-2.627-3.364 4.42.759 6.324 9.268 6.707 13.2.3 3.084-1.409 7.74 2.674 8.363 5.037.769 8.144.457 13.335 2.498 5.962 2.343 8.055 5.553 12.544 9.044 2.825 2.197 6.23 3.289 8.642 5.755 4.971 5.084 5.711 15.346 8.957 21.753.476.94 2.318 4.253 2.996 4.68 1.003.631 2.56.356 2.665.456.446.429.57 10.595 4.028 9.561.625-.187 4.473-8.615 6.806-5.28 1.075 1.538-.617 11.995-1.619 14.275l.335.904 5.024 3.006c5.372-5.077 8.234-9.686 7.499 1.75-.097 1.497-1.768 6.3.03 6.29 1.486-.01 3.006-.908 4.237.97 2.067 3.152-1.097 1.916-2.31 2.339-1.514.528-3.413 4.126-4.593 4.073-1.485-.067.272-2.89.144-3.52-.209-1.024-3.216-3.594-3.961-4.644-.534-.752-.718-2.318-1.197-2.642-.56-.38-4.17-.34-5.07-.23-1.489.181-3.177 1.994-3.833.975-.662-1.03.892-2.963.725-4.522-.115-1.084-.928-1.813-1.438-2.68 2.292.663-.255-3.129-.375-3.705-.234-1.128.237-3.691-.55-4.248-4.698-1.182-1.156 4.975-.035 6.992m39.818-580.155c-.3-.344-2.305 1.077-2.599 1.475-.748 1.015-5.45 12.105-5.537 13.214-.066.847-.159 1.664.763 2.068 5.005 1.471 8.539-13.343 7.373-16.757m-37.9 46.065h7.917c.144 0 .824-.431 1.421-.498.334-.037 5.021.395 3.617-.937-3.806-.2-9.106-2.087-12.354.331-.43.32-.851.005-.6 1.104m12.81 19.812c-.127-.157-1.708-1.181-1.77-1.098l.031 1.163 2.358 6.035c-.17-1.75.515-4.695-.62-6.1m-48.794 6.578c.152-.907-.56-1.592-1.435-1.435v1.435zm17.273-.953c-.939-.723-11.47 5.743-13.437 5.988-1.736 2.416 1.028 3.059 1.865 4.38 2.813 4.438 1.371 12.954 4 17.597.677 1.196 1.735 1.32 2.519 2.279 3.63 4.437 3.4 19.614 5.196 25.993.16.565 1.233 4.021 2.253 3.259.426-.32-.156-7.6 2.877-6.716 1.428 1.182-1.208 16.187-1.43 18.96-.44 5.503-.832 29.375.842 33.22.78 1.79 2.374 2.244 2.073 5.17-.28 2.71-2.058.86-3.344 2.43.25 4.96 3.583 8.162 5.4 12.264.754 1.703 1.157 4.365 1.855 5.821.315.656.523.985 1.323.831.07-7.305-1.2-14.574-1.912-21.836-.282-2.883-.146-6.146-.489-9.108-1.033-8.938-4.274-16.891-1.222-25.705.452-1.305 1.821-1.454 2.317-2.483.981-2.039-1.021-6.512-1.44-8.897-3.198-18.224-4.583-34.958-9.09-53.29-1.033-4.203-3.39-6.196-.156-10.157m-19.907 5.928c-1.928-.015-3.668 3.071-4.304 4.64-.25.62-.99 1.679-.262 2.142 1.55.81 5.602 1.088 6.49-.71.779-1.582.528-6.053-1.924-6.072m37.174 25.256c-.39-2.448 1.279-7.386-1.911-8.153l.212 3.382zm3.36 43.193c.04-3.777 2.044-8.04 1.937-11.73-.05-1.743-1.631-7.758-2.148-9.892-.168-.695-.406-1.71-1.22-1.894l.474 22.802zm-145.373 49.426c-1.14-.264-.773.199-1.064.623-3.124 4.554-4.468 6.211-4.225 12.113.177 4.281.728 6.921 5.53 7.423zm-10.543 13.434.945-.72-.713-.717zm14.865 20.152c.947-1.122-2.75-11.032-6.232-9.593-.998 1.05 3.709 7.437 4.693 8.499.475.513.499 1.337 1.54 1.094m6.72 17.762-.957-.002.002.957zm153.525 79.173v-8.877c0-3.714-2.255-4.512-2.863-5.895-.5-1.139-.396-3.367-.833-4.804-1.233-4.058-3.77-10.194-5.48-14.192-.393-.916-1.514-3.645-2.573-3.666-1.26 3.19-.028 6.198.229 9.368.412 5.093.328 11.794 3.42 16.254.53.764 1.504.989 2.088 1.75 2.085 2.719 3.082 7.832 6.012 10.062M14.082 453.5c-.906-.153-1.591.56-1.434 1.435h1.434zM314.9 495.006c.456 2.568 0 7.644 0 10.557 0 .079.471 1.403.954 1.197.502-3.217 1.48-6.683 1.867-9.892.43-3.567 1.356-17.99-.203-20.324-.474-.71-1.375-.741-1.643-1.348-.336-.761-.313-2.315-.497-3.217-.096-.503-.655-.322-.966-.015-1.316 1.298-3.072 18.081-2.156 19.937.309.625 2.329 1.33 2.644 3.105"/><path d="m231.42 164.139 11.263-.971c4.736-.878.575-10.876.766-13.705.06-.87.977-1.24 1.277-2.006 1.046-2.678-.148-4.06.165-6.546.353-2.806 2.067-2.286.665-6.031-1.018-2.718-5.667-5.817-7.358-8.953-.98-1.817-1.072-4.274-2.251-6.385-2.295-4.108-6.985-9.187-9.81-13.222-1.882-2.688-3.29-4.186-5-6.515-7.726-10.52-11.844-28.731-17.192-40.87-2.523-5.727-6.075-10.238-9.083-15.387-3.34-5.72-3.769-9.8-9.273-14.718-5.91-5.282-25.237-14.17-33.113-13.947-5.142.145-7.85 1.422-13.048.612-6.17-.962-13.44 1.426-19.425 3.374-4.838 1.574-10.997 5.647-16.342 4.09-2.173-.634-1.56-4.292-5.509-2.429-.88.416-1.105 1.49-1.853 1.983-1.11.73-2.88 1.197-3.852 2.145-1.89 1.846-2.14 5.174-3.507 6.809-1.774 2.12-6.713 4.78-8.643 7.427-.154-.86 1.013-1.625 1.62-2.206 1.68-1.612 4.234-3.321 5.495-5.31 2.14-3.377 1.077-7.63 5.185-10.169 1.021-.631 4.903-2.887 5.812-3.3 5.291-2.406 5.349 3.787 9.824 3.136l23.393-9.266-1.908-.957c.337-.454.627-.65 1.198-.741 2.127-.338 8.16 2.151 11.035 2.412 5.228.476 12.22-1.028 16.744-.427 3.623.48 17.96 7.79 21.642 10.02 10.157 6.155 13.768 13.828 19.81 23.375 8.048 12.72 10.679 24.928 16.165 38.535 3.593 8.912 6.527 11.568 11.193 19.037 4.354 6.97 9.19 13.744 14.072 20.475 2.329 3.21 6.504 7.051 8.01 10.703.962 2.334 1.223 5.02 2.121 7.476.514 1.405 2.792 2.842 1.005 4.724-1.345.239-3.453-2.296-4.266-.991-1.452 2.33.169 10.895-.35 14.525-.117.817-.996 3.675-1.388 4.37-.936 1.664-4.177 2.528-4.075 3.898.196 2.635 10.806 6.284 11.254 8.258.177.78-1.05 5.448-1.388 6.593-.447 1.51-4.088 10.882-4.746 11.568-.61.637-1.047.824-1.939.696-.878-6.126 7.345-10.69-1.186-14.384-3.476 1.485-6.182 3.997-9.529 5.83-6.09 3.338-12.688 4.812-19.013 7.377-2.172.88-12.567 6.503-13.933 5.493.62-3.186 4.084-3.513 6.678-5.072.523-.314 5.343-3.544 4.836-4.035-6.667-2.233-13.545 1.095-20.15.47-.139-.133.254-.583.48-.723.312-.195 6.27-1.86 7.078-2.03 3.05-.642 5.483-.718 8.438.31l4.158-5.98.65-.174c.466.143.707.71 1.033.92 2.249 1.441.348-1.538.345-1.682-.03-1.43 10.72-7.912 8.523-2.158 1.6.958 4.408-2.971 3.836-3.829-1.08-.46-2.403-.293-3.47-.613-6.05-1.813-10.293-3.87-16.94-3.254-2.777.258-2.584 1.323-4.508 2.21-10.426 4.802-29.223 5.097-40.333 2.376-7.401-1.813-14.964-6.592-22.17-8.537-5.614-1.515-12.825-1.47-18.724-2.866-13.375-3.168-18.637-9.41-29.773-15.328-3.765-2.001-10.018-3.866-13.448-6.224-1.79-1.23-2.56-3.102-4.4-4.237l-1.189 2.649c-2.657 1.607-10.325-5.096-12.002-7.21-4.605-5.806-8.775-20.419-9.592-27.835-.239-2.162-.799-7.71-.456-9.568.953-5.163 3.599-9.943 5.26-14.893 3.224-9.605 6.344-19.263 9.436-28.913.657-.85 3.218-3.534 3.504-4.213.481-1.144-1.84-.775-1.947-1.48 1.331-5.357 3.45-11.06 6.181-15.877 2.078-3.667 2.887-4.492 4.782-8.653 2.92-6.414 5.962-7.328 10.49-11.822 1.231-1.22 4.65-6.084 5.692-6.546.211-.093.787-.122.711.234-2.023 1.418-2.974 3.772-4.55 5.527-3.736 4.163-7.47 6.616-9.933 12.138-1.776 3.983-2.63 5.588-4.626 9.289-1.897 3.519-3.946 7.72-4.392 11.677 1.687-1.277 2.483-3.11 4.781-3.627 1.148-.258 2.12.757 3.365-.691.337 1.565-2.454 2.199-2.796 3.197-.398 1.163.09 3.228-.13 4.669-1.226 8.069-7.106 14.37-8.582 22.362l6.944-7.206c2.681-3.43 8.412-2.834 11.428-4.405 1.212-.63 2.367-3.008 4.015-4.142 3.684-2.536 9.4-3.162 13.724-2.369.857.158 2.813.93 3.225 1.804-1.705.809-3.275-.318-4.954-.292-2.684.04-9.147.665-10.891 2.92-1.83 2.368 2.072 1.223 3.115 1.194 9.873-.272 20.041.021 29.712 1.996 1.17.238 2.557 1.234 3.497 1.27.975.038 1.553-.965 3.143-.76 13.759 1.77 33.43 24.866 40.577 36.24 4.573 7.277 9.592 15.431 12.215 23.771.847 2.691 1.56 7.789 2.654 9.823 1.036 1.926 9.233 9.28 9.201 10.463-.008.298-.833.97-1.262.32-1.79-1.746-6.066-3.344-7.582-4.902-4.486-4.614-6.716-18.992-10.733-26.215-7.638-13.735-23.001-35.458-36.689-42.961-8.946-4.903-31.032-6.496-41.375-6.163-4.393.141-13.775.652-17.488 2.183C75.06 64.53 69.03 71.234 66.72 76.904c-3.642 8.937-4.712 19.714-.815 28.69 1.882 1.413 1.845-11.93 1.918-12.71.161-1.722.963-9.596 1.676-10.321.573-.583.904-.555 1.676-.48-.042 1.99.073 3.998-.003 5.992-.563 14.857-2.515 21.258 2.998 35.88 3.104 8.233 12.787 20.392 21.389 23.235 10.664 3.525 22.147 6.03 33.425 4.947 10.383-.998 21.747-2.678 32.018-4.445 2.911-.501 7.393-2.276 10.21-2.264 5.973.024 14.315 6.415 20.793 5.916 5.25-.404 6.495-4.109 10.473-6.316 1.009-.56 4.256-1.423 4.387-1.617.725-1.077-.872-2.614 2.672-2.273 3.332.32 4.5 3.616 6.51 5.505 1.73 1.626 5.172 3.899 7.248 5.227 1.376.88 12.297 7.164 12.92 6.508.144-1.318-.038-2.235-.737-3.337-2.06-3.248-5.038-5.58-7.424-8.413-.853-1.013-.832-2.282-2.394-2.89.905-1.537 1.721-2.468 1.88-4.38.179-2.156-1.947-8.057 1.616-7.77 1.72.137 2.126 2.505 1.697 3.898-.223.724-1.261 1.047-1.36 2.025-.04.413.563 6.006.706 6.494.972 3.31 5.635 5.002 6.385 6.328.3.531-.009 1.534.37 2.263.789 1.519 1.948 2.09 2.16 4.097.664 6.31-2.927 5.55-7.692 4.569zc-6.556-4.274-11.563-6.29-19.48-7.144-5.435-.586-10.231 2.571-13.466-4.407l-9.492 2.448c-7.63-4.1-16.06-8.479-24.73-4.809-.118 1.27-.025.778.718.948 2.302.527 4.742.347 5.999 2.882l-14.61-2.407c-11.473 1.663-23.968 4.508-35.503 4.349-7.448-.103-12.076-2.603-18.835-4.243-.693-.168-.743-1.047-1.569.146 6.282 6.064 13.97 8.862 22.43 10.667 6.437 1.372 23.647 2.784 28.528 5.414.537.29.848 1.337 1.943 2.02 3.779 2.36 10.62 5.349 14.974 4.678.638-.098 1.532-.218.724-.94-1.546-.059-4.019-1.706-5.17-2.738-.65-.582-.761-.398-.586-1.584 5.244.21 10.532 6.675 15.111 6.715 5.5.048 12.522-2.176 17.891-3.262 3.748-.758 2.589-.534 6.085-2.027 5.028-2.146 6.84-1.134 11.565-.507 5.21.693 10.373 1.477 15.58 2.173 2.248.625 1.449 3.902.808 5.658-1.797 4.92-11.709 6.534-14.748 10.918 7.474.583 16.75-3.87 22.52-8.423 1.477-1.166 4.897-5.921 6.651-4.902.895.871 4.352 5.567 5.368 4.693-.152-1.406 1.62-3.11.755-4.343-.153-.219-4.066-2.183-4.72-2.485-6.028-2.788-6.365-3.998-11.416-7.294-1.189-.775-2.38-1.577-3.325-2.194M59.177 85.437c.2-.215.516-1.903.48-2.395-1.102.305-1.017 1.521-.949 2.396.155-.024.407.066.469 0m-.002 6.724c-1.287-1.25-1 3.076-.971 3.617.072 1.31.284 4.306 1.454 5.018-.949-3.04.275-5.804-.483-8.635m-.957 17.753-3.113-11.027c-1.01.659-.641 1.11-.593 2.01.167 3.15 0 8.547 3.706 9.017m5.76 4.316c-.16-2.01-.72-4.986-2.392-6.235-.265 2.092.15 3.537 1.203 5.288.366.608-.095 1.216 1.189.947m-.48 14.883h-.954v.47h.954zm7.677 8.15c-.027-3.979-1.143-3.926-4.076-5.746-.905.7-.581.553-.332 1.27.323.927 3.278 5.556 4.408 4.477m9.595 2.885c-1.115-.194-1.73.382-2.387 1.197.559 1.53 2.992-.636 2.387-1.197m142.147 15.212c-1.641-1.336-1.484-1.294-3.515-2.475-7.393-4.298-13.86-10.734-20.597-.983 3.135 1.427 4.027 4.274 7.82 4.38 3.904.108 6.967-.92 11.545-.245 4.908.723 8.291 3.825 12.106 4.209 4.187.422-1.474-3.205-2.518-3.722-1.649-.818-3.682-.22-4.84-1.164"/><path d="M78.134 338.81c.364.09 1.004.837.242 1.201-1.174.838-7.704 1.687-7.7-.707l-.692-.01c-.808 1.532-3.283 2.085-4.105 3.094-.3.369-3.692 8.58-3.336 8.896 1.457.003 2.906.13 4.35-.204 1.497-.346 9.713-6.152 11.226-7.486 16.5-14.547 27.087-34.648 40.566-51.56 2.243-2.813 4.587-3.176 6.067-6.886.631-1.582.037-4.473 2.558-2.23-.302 2.012-2.063 3.137-2.982 4.683-4.623 7.781-10.413 16.549-14.163 24.704-1.774 3.859-1.332 5.816-4.679 9.236-1.915 1.957-3.74 2.534-5.535 4.06-9.468 8.061-16.171 18.031-27.187 24.634-3.293 1.973-10.124 6.85-13.109 2.742-3.243-4.466 3.702-8.88 4.247-11.643.373-1.887-.97-5.069-.907-7.068.072-2.285 2.466-7.087 1.598-9.241-.285-.708-.14-.734-1.085-.61l-1.027 2.81c-4.728.426-2.212-7.27-2.332-10.228-.33-8.077-6.936-11.627-12.255-16.562-6.976-6.474-17.387-13.723-20.734-22.45-2.22-5.791-3.596-17.834-12.387-11.157-.54.839.757 4.787 1.7 5.522l-1.19.725-.953-.492c-3.058-8.426-4.849-17.982-.431-26.333 1.161-2.196 5.832-8.102 7.609-10.144 3.795-4.362 11.052-8.598 13.906-12.965 1.144-1.752 1.874-4.701 2.951-6.645 9.742-17.574 35.431-20.581 53.238-23.53 9.033-1.495 16.515-2.055 25.899-1.022 1.784.197 4.411 1.43 6.74 1.418 10.728-.05 17.664-5.826 26.891-7.12 1.06-.148 4.079-.48 5.17-.544 5.427-.313 11.683-.484 16.44 2.34 1.308.776 2.809 2.638 4.019 3.177 4.67 2.08 11.238-2.034 16.276-.678-2.115 2.158-6.459 2.147-9.39 2.86-.813.199-1.396-.47-1.162.97 2.513.417 5.052-.398 7.412-.494 1.653-.068 3.438.406 4.75.332 2.966-.167 7.445-3.415 8.399 1.3-.125.655-1.83 1.652-2.462 1.855-5.102 1.64-13.686.258-19.324.347-4.486.07-19.715.01-22.765 1.223-.753.299-8.36 5.733-7.675 2.405.215-1.046 3.123-1.54 3.965-2.148.889-.642 1.123-1.726 2.8-2.608 3.649-1.92 9.306-.5 13.64-.752 1.57-.091 4.119-1.101 5.243-.97 1.323.156 2.238 2.033 4.091-.253.672-1.397-3.485-.327-4.18-.586-1.956-.729-6.64-4.883-8.165-5.29-4.347-1.163-18.333-.86-22.574.703-2.396.883-4.894 2.879-7.65 3.866-8.916 3.197-13.656 1.557-22.44 1.078-12.88-.701-25.202 1.204-37.76 3.494-9.487 1.73-24.765 6.458-31.8 13.299-4.38 4.259-7.358 12.943-12.216 17.534-6.106 5.77-12.712 10.264-16.893 18.132-1.849 3.48-5.703 14.818.843 15.212 1.964.118 2.96-3.498 5.978-.754 3.96 3.599 6.614 13.647 9.208 18.619 2.636 5.054 13.12 11.711 17.643 15.944 2.964 2.775 12.263 12.297 13.098 15.691.76 3.088-.289 4.608 2.225 7.372 1.055 1.16 2.997 1.702 3.305 3.452.508 2.886-5.292 12.28-2.105 15.06.57.498 1.372.078 2.04.304.528.178 1.248 1.076 1.34 1.076 1.903 0 6.186-.365 7.677 0m29.892-22.157c.49-.834-.329-2.59-.858-2.312-.18 1.694-4.236 3.574-3.843 5.028 1.748 2.087 2.6-2.539 4.701-2.716M353.281 154.057c-2.945 1.095-6.256 2.143-8.983 3.694-.74.42-.823 1.326-1.395 1.51-1.937.626-8.062.368-10.5.559-2.075.162-1.413 1.02-.249 2.176 1.676 1.665 10.915 6.288 13.323 6.83 1.907.428 8.58 1.22 5.152-2.277-1.223-1.248-3.788-.21-3.584-1.924 1.344-.178 2.736-.95 4.089-.97 2.215-.031 3.268 2.737 5.335 3.773 1.832.92 7.399 1.523 9.361 1.256 1.509-.205 2.094-1.736 3.519-1.719 1.734.021 4.072 2.146 1.848 2.86-2.11.677-3.375-1.336-5.112-.91-.296.072-1.56 2.789-3.701 2.17l-.466.966c2.56 1.994 1.887 6.212-.95 7.694-10.689 5.584-17.86-2.155-25.221-8.391-4.555-3.86-4.493-2.672-9.679-4.71-.851-.335-1.4-1.324-2.608-1.707-2.34-.742-6.952.49-9.68.46-1.83-.019-7.348.003-7.35-2.46l2.955-3.115 1.676 1.433-.883-2.083c2.299-3.703 4.452-1.574 7.354-1.27 3.4.356 6.153-1.145 9.527-1.035l.796-1.843c-.388-.412-9.91-.112-11.28-.006-3.684.285-3.307.459-7.252.158-5.89-.448-13.208 5.598-16.987 9.707l-2.356-1.047c-.537-1.793 7.3-7.068 8.843-8.34.72-.593 1.06-1.687 1.914-2.403 5.675-4.756 12.468-2.17 18.684-2.422 2.46-.1 3.802-2.177 7.612-1.306 1.485.34 2.122 1.721 3.256 2.5.502.345 1.458.275 2.147.732 1.103.733 1.374 2.767 2.86 2.909 2.32-.762 4.708-.283 7.057-.618 2.715-.387 7.161-2.563 8.852-2.624.9-.032 2.263.697 2.076 1.793m-41.74 7.207c.618 1.309 2.84 2.122 3.828.715zm29.909 13.267c4.463 3.664 12.038 6.976 17.1 2.804-3.602-4.28-9.534-4.236-14.291-5.852-2.446-.831-4.272-2.765-6.808-2.543l.072 1.602c1.653.815 2.847 3.104 3.927 3.99m16.628-3.2c-.117-.857-2.647-1.879-2.876-.707-.323 1.655 2.155.817 2.876.708M405.58 161.74c1.464-.78 2.587-3.157 3.213-4.7.978-2.41.854-6.56 3.496-6.34.481 3.734 1.164 7.524 1.438 11.284.212 2.914-.336 6.245.052 9.07.073.531.264 2.078 1.145 1.718 3.107-1.267 2.506-11.759 5.039-13.91 2.513 3.03-1.3 18.276-3.84 19.422-2.672 1.207-3.59-.638-4.4-2.78-1.43-3.787-.568-7.942-1.587-11.843-2.482 2.77-4.191 18.177-9.494 16.725-1.676-.459-1.397-3.061-1.293-4.485.375-5.123 1.53-11.322 2.496-16.207.142-.72 2.891-7.683.138-7.07-2.446 4.46-1.976 9.734-3.478 14.76-.745 2.488-2.998 5.74-3.372 7.184-.32 1.236.005 2.59-.328 3.99-.48 2.016-1.548 4.222-2.656 5.978-1.589.966-5.788-.945-7.163-1.963-2.126-1.572-2.942-6.162-6.987-5.99-4.342.184-7.694 11.324-13.681 10.107.046-1.59 1.904-1.991 2.875-3.117 1.56-1.809 2.676-4.411 4.336-6.242 4.3-4.743 9.581-5.936 13.661-.236l2.164-2.874c3.27 3.19 6.635-3.894 7.678-6.472 2.49-6.157 1.625-14.505 5.548-19.404 1.535-1.917 3.615-3.803 5.888-1.655.459 5.074-.347 10.04-.888 15.05M345.76 197.085c4.214 3.656 12.049 9.877 15.415 14.103.863 1.084.62 2.54 1.193 3.483.268.441 2.393 1.801 3.152 2.728 10.837 13.243 24.238 24.304 40.543 30.469 16.24 6.14 37.741 7.474 50.559 20.45 4.81 4.872 18.702 21.806 19.447 28.072.4 3.366-1.185 2.866-2.467.533-1.69-3.075-2.828-8.356-5.172-11.144-1.215-1.446-2.536-1.377-3.864-2.373-1.832-1.375-4.125-5.827-5.97-7.945-14.819-17.022-34.43-18.075-53.827-26.3-13.581-5.758-25.207-13.7-36.141-23.354-7.598-6.708-12.24-15.491-20.395-22.309-8.199-6.853-15.964-11.83-25.02-17.203-2.837-1.684-6.373-3.363-7.352-6.798 3.754-.796 4.883 2.605 7.336 3.935 2.653 1.438 6.539 1.761 9.17 2.824 3.294 1.33 10.41 8.24 13.394 10.83M489.05 120.473c1.727 6.769 2.525 13.423 2.424 20.412-.065 4.476-.215 9.408-.48 13.916-.696 11.87-4.06 22.56-2.848 34.48.284 2.785 2.035 4.05-.535 6.764l2.922 1.043c.582 1.44.608 3.087.324 4.607-.306 1.643-5.023 10.298-6.188 12.042-4.57 6.842-13.154 17.21-18.876 23.348-2.989 3.207-4.61 3.914-9.143 4.186-2.589-3.897 4.53-7.39 6.984-9.704 5.655-5.333 23.092-23.433 24.369-30.337.068-.369.136-.725.09-1.099-2.73-.94-5.835 3.543-7.952 1.95l-.608-1.148c.172-1.978 5.53-4.05 7.157-4.935-.176-1.317-.752-2.535-.921-3.854-1.467-11.423.357-17.33 1.364-28.248.432-4.685.54-9.445.478-14.15-.716.076-1.064 1.788-1.212 2.379-1.304 5.196-1.48 10.694-3.154 15.797-.733.047-2.13.514-1.871-.66 1.088-8.74 3.496-17.668 4.315-26.404.488-5.21-.058-11.302.543-16.253.203-1.67.787-3.973 2.818-4.132M39.874 416.907c-.87.849-2.772.39-3.844.718-4.236 1.3-13.323 7.568-16.679 10.67-6.984 6.455-11.468 19.854-15.612 28.532-.323.676-1.375 1.072-1.582 1.814-.855 3.063 2.493 2.82 2.87 3.304.445 7.88-6.489-.08-4.745-4.26 6.756-11.099 8.706-25.183 19.69-33.088 2.44-1.757 6.2-4.107 8.839-5.556 2.634-1.446 7.593-2.997 9.506-4.408 1.525-1.125 4.874-6.32 6.192-8.203 15.572-22.248 35.834-37.914 57.525-53.792 4.75-3.477 9.42-8.072 14.274-11.155.581-.369 1.542-1.252 2.129-.276.574.957-2.17 3.193-2.896 3.827-14.883 12.997-30.476 22.529-45.068 36.5-11.437 10.95-22.435 21.626-30.599 35.373"/><path d="M474.542 175.535c-1.087.973-2.255.545-2.319-1.073-.183-4.592 3.375-12.838 3.817-18.303.156-1.935.39-9.94-.186-11.207-.309-.677-1.588-1.343-2.087-2.231-3.26-5.794-.462-23.284 1.027-30.036 1.025-4.653 3.548-8.476 2.635-13.456-.394-2.15-2.012-2.678-1.781-5.349.29-3.347 4.098-.788 4.732-5.842 1.37-10.922-4.083-20.84-7.152-30.91 3.562 2.497 5.225 8.754 6.477 12.952 2.232 7.492 3.302 14.416 2.626 22.311-.413 4.815-2.008 10.375-2.395 15.36-1.415 18.24.387 37.41-2.535 55.528-.246 1.522-2.39 11.837-2.86 12.256m1.08-43.067c.936-.193.846-.961.962-1.677.508-3.145.89-6.427.977-9.625l-.974-4.531c.065 1.367-.965 3.942-.965 5.036zM295.71 809.076c1.374.262.772-.373 1.086-1.048 1.635-3.517 2.198-7.443 3.47-10.946 3.378-9.296 6.341-14.434 8.62-24.49.321-1.42 1.367-6.484 1.8-7.316.507-.974.776-.915 1.812-.823-.273 13.293-6.652 25.384-11.053 37.647-2.693 7.503-4.918 18.387-8.891 25.176-.34.58-.94.995-1.403 1.468-2.908-3.021 1.256-8.424 2.038-12.349 1.104-5.549 1.144-11.736 2.263-17.41 1.342-6.805 4.513-13.38 5.048-20.384.642-8.39 1.271-20.793-1.67-28.549-.452-1.189-2.21-2.44-1.445-3.833 3.352 1.9 5.072 6.161 5.461 9.893 1.399 13.421-.159 31.227-4.978 43.85-.533 1.397-1.795 2.411-2.06 4.202-.25 1.679.484 3.199-.097 4.912M477.208 318.506c1.796 1.616 7.291 2.288 9.662 2.046 1.554-.16 2.667-1.961 4.32.528 2.074 3.122.414 7.648.804 11.19l3.096 1.224c1.372 1.871-2.744 4.057-3.527 5.665-1.203 2.473.179 4.596-1.548 7.09-.352.507-4.494 4.652-4.805 4.786-5.889 2.525-4.79-4.781-3.356-8.15 2.756-6.478 8.11-7.942 8.198-15.833.098-8.83-6.847-2.708-11.42-4.454-3.16-1.208-4.841-4.785-6.86-7.051-3.515-3.95-9.138-8.65-8.72-14.3l-6.497-18.896.84-3.525c2.868-.232 2.59 3.608 3.328 5.545 3.24 8.516 4.133 18.433 9.633 25.395 1.396 1.766 3.348 3.548 4.786 5.29.767.93 1.32 2.779 2.066 3.45m6.572 30.379c4.147-.05 6.281-5.166 4.073-8.633.476 4.213-4.889 4.127-4.073 8.633M448.767 226.515c.76.182.979-.268 1.443-.697.6-.555 4.588-5.301 4.776-5.783.593-1.518-1.956-.048-2.389.248-.482-.576 4.958-7.094 5.74-7.93.963-1.031 5.08-5.085 6.016-5.502 1.065-.474.553.584.511.987-.666 6.451-5.874 11.965-7.473 18.199.599.488 4.382-3.586 5.044-4.308 3.417-3.722 7.237-8.583 9.432-13.12.724-1.496 3.77-10.04 4.292-10.34 1.004-.577 2.46.728 2.273 1.983-.072.482-2.417 5.385-2.868 6.297-3.919 7.925-11.748 19.033-18.648 24.537-.715.57-2.452 1.954-3.231 2.08-1.439.232-2.727-1.47-3.662-1.29-1.234.237-1.979 3.544-4.347 1.803-2.293-1.687.378-7.208 2.36-8.588zM276.51 676.637c.507.503 1.502 3.637 1.485 4.553-.08 4.259-2.5 15.398-4.124 19.43-4.43 11.005-10.074 17.389-9.338 30.475.28 4.969 1.703 6.538 6.617 7.284 4.974.754 10.35-.208 14.96 2.8-2.706 1.182-4.859-1.06-7.915-1.1-3.498-.046-5.448.248-4.098 4.004 1.825 5.082 7.725 10.46 13.455 9.336-.843 2.044-3.984 1.636-5.77 1.21-2.165-.518-8.954-5.776-9.694-8.06-.438-1.351-.168-6.823-2.658-5.487-.244.13.025 1.308-2.247.804-3.558-.789-4.554-9.025-6.49-11.753l1.461-.508c.082-8.677 2.156-15.967 6.115-23.57 4.056-7.79 6.039-18.107 7.562-27 .062-.365-.666-3.753.68-2.418M260.204 729.898c-1.127 1.055-2.958-2.584-3.215-3.258-2.746-7.211-1.851-16.843-7.41-23.3-2.66-3.092-4.947-3.205-8.023-4.932-21.253-11.933-31.8-41.73-38.67-64.014-1.125-3.651-2.536-7.757-3.474-11.4-.773-3-1.709-6.132-1.571-9.22.922.193.85.956.961 1.672.81 5.238 3.088 11.614 4.772 16.821 5.748 17.778 16.812 48.809 32.293 59.834 7.203 5.13 16.045 6.635 19.305 16.202 2.385 7 2.218 14.73 5.032 21.595M100.926 65.277l.275-.966c.576-.204 1.116-.516 1.764-.378 1.61.342 7.2 3.94 8.859 5.086 11.809 8.156 18.579 22.332 24.356 35.142 1.373 3.043 2.25 7.092 3.731 10.184 1.538 3.21 4.122 6.181 5.572 9.303 2.013 4.336 2.536 9.441 4.654 13.58 2.354 1.62 5.128-1.16 6.684 1.478l-.502.955c-1.206.289-2.356-.737-3.34-.747-2.15-.02-3.37 2.95-5.445-.522-1.453-2.432-1.74-7.554-2.861-10.575-1.47-3.958-4.455-7.363-6.269-11.005-4.23-8.49-6.98-17.883-11.805-26.582-6.2-11.18-14.154-19.257-25.673-24.953"/><path d="M440.596 218.366c1.182 2.185-1.776 4.21-1.896 4.666-.194.734.097 1.64-.25 2.539-.588 1.52-3.872 6.902-3.582 7.85.444 1.451 6.357 1.202 8.305 2.282 2.762 1.531 3.438 5.017 5.406 7.068 1.613-.395 4.92-2.965 6.21-.902 1.033 1.651-3.208 3.92-3.626 4.7-.829 1.545-.563 5.088-.268 6.863 1.922 3.089 8.849-6.847 10.55-7.741l1.698-3.812c.02.999.088 2.01-.11 3.002-.465 2.315-7.41 10.395-9.557 11.072-6.757 2.133-4.867-3.121-5.893-6.426-.334-1.077-1.685-1.907-2.289-2.99-1.296-2.324-2.4-8.2-5.516-8.877-1.475-.32-3.009.147-4.484-.315-2.187-.685-3.402-3.55-3.223-5.676.154-1.834 4.596-9.682 5.93-11.344.29-.36 2.104-2.55 2.595-1.959M243.894 558.349c.668 6.77 3.172 10.833 3.342 19.22.211 10.483 2.37 22.883 5.399 32.98.228.76 1.978 2.506 2.552 3.686 1.26 2.588 1.97 5.641 3.238 8.277 2.61 5.428 5.784 10.595 8.486 15.977l-1.193.736c-1.559-.002-5.702-7.613-6.555-9.293-5.69-11.205-10.073-24.725-13.034-36.87-1.973-8.097-.361-14.915-.77-22.7-.21-4.003-3.244-10.791-3.36-15.43-.032-1.328.981-2.29 1.176-3.533.288-1.835.198-3.893.244-5.764 1.69.544.475 2.645.475 3.116 0 3.017-.287 6.692 0 9.598M434.787 311.994c.8 5.635-8.382 9.504-8.354 14.599.02 3.813 5.687-.224 6.73-.225 1.525 0 2.48 1.915 5.17 1.313 1.073-.24 4.16-2.766 5.613-3.518 2.23-1.153 7.863-4.08 10.072-4.34 1.378-.162 2.764.605 2.076 2.062-.59 1.248-4.957 2.327-6.551 3.077-4.143 1.95-8.366 4.197-12.43 6.283-2.016 1.036-4.482 4.106-6.955 2.899-.854-.417-1.128-1.45-1.866-1.98-2.137-1.535-3.954-1.555-4.391-4.76-.455-3.33 3.923-8.915 6.135-11.388l-1.314-1.432c-.143-1.768 4.538-3.672 6.065-2.59M304.822 805.722c-.45 5.117-2.557 11.521-4.564 16.305-1.472 3.508-4.48 10.208-6.395 13.284-1.08 1.736-2.73 2.788-3.384 4.288-.912 2.091-1.044 5.65-2.43 7.516-.431.58-1.262.713-1.713 1.282-1.23 1.551-4.437 6.522-5.714 7.251-1.476.844-3.73.945-3.617-1.17.127-2.362 6.268-13.737 8.399-14.204l.732.224c1.224 3.04 1.304-1.077 1.954-2.33.853-1.646 3.996-3.913 5.32-6.196 4.119-7.11 7.743-17.27 10.403-25.127.251-.741-.423-1.373 1.009-1.123m-18.711 38.39c-.634-.64-3.647 2.466-1.67 2.873 1.053.217 1.665-2.123 1.67-2.874M305.786 801.398c-.615-4.063 1.728-7.462 3.023-11.128 1.49-4.219 2.7-8.602 4.564-12.71.337-.743.636-1.519 1.287-2.063l1.439 1.901c4.49-6.193 4.69-14.004 6.714-21.102 2.254 2.592.748 7.872.11 11.142-2.29 11.75-7.03 16.654-12.424 26.442-.377.683-3.626 8.788-4.713 7.518M234.776 195.333c1.285 1.24-5.807 5.893-6.847 6.348-.679.298-2.16.312-2.238.395-.135.145.074 1.576-.273 2.364-.446 1.01-3.288 2.69-3.544 3.706-.253 1.004 1.211 2.155 1.272 3.341.117 2.28-5.182 5.346-6.325 6.91-1.298 1.777-2.652 4.108-4.104 5.974l-10.328 8.379c.817-3.64 9.01-7.416 10.095-10.08.32-.784-.354-1.713-.281-2.61.319-3.893 6.67-14.516 9.862-17.052 2.527-2.008 7.68-6.052 10.529-7.223.751-.309 1.276-.654 2.182-.452M302.425 457.337c.503.655-3.793 7.273-4.41 8.785-2.687 6.586-4.125 11.594-7.983 17.928-.75 1.234-6.247 9.3-6.788 9.524l-1.45-.248c-.31-.394.93-3.611 1.247-4.271 2.095-4.366 5.983-9.354 7.972-13.621.814-1.748.573-4.537 1.31-5.77.476-.796 1.027-1.381 1.752-2.686.97-1.743 5.42-8.747 6.662-9.69.74-.563.934.068 1.688.049M453.55 283.628c-1.22 4.113 1.456 8.072 1.871 12.284.395 4.015-.237 8.175.53 12.188-5.178.763-3.228-5.402-3.489-8.265-.184-2.024-.962-8.496-2.285-9.714-.881-.812-2.897-.898-2.851-2.911.038-1.655 4.742-3.315 6.224-3.582M438.623 201.986c-.73.428-1.86-.124-1.87-1.116-.009-.759 1.213-2.421 1.728-3.099 7.245-9.545 18.205-15.068 20.61-27.848.238-1.262.132-7.215 1.418-7.214 2.602 3.658-.052 11.413-2.078 15.187-4.325 8.058-13.59 12.544-18.027 19.88-.459.758-1.31 3.934-1.781 4.21M178.642 337.368c.836 2.837.651 8.057-3.303 5.945-3.001-1.602-5.689-4.374-6.656-7.735-.272-.944-1.514-5.864-1.578-6.605-.479-5.498 2.834-6.356 3.385.48.06.742-.573 1.527-.405 2.303 3.15 3.315 2.604 7.96 8.557 5.612M143.142 16.825 147 16.61c3.322 2.464 7.292 4.078 10.493 6.73 1.397 1.155 3.444 3.942.301 3.574-1.027-.12-6.246-4.794-7.702-5.769-2.205-1.475-5.208-2.189-6.95-4.321M139.516 273.768c-.294.382-1.744 2.003-1.973 2.082l-6.872 1.3c1.329-1.424 4.28-1.593 5.61-2.79 1.327-1.194 5.47-12.21 7.101-12.319 1.021.718.515.823.241 1.664-.646 1.986-1.987 3.628-2.666 5.979-.672 2.329.306 1.819-1.44 4.084M253.494 343.608c-1.064-4.055-.205-8.104.057-12.174l3.061-11.809c.61 3.082-1.094 5.998-1.563 8.988-.379 2.413-.94 6.168-1.072 8.522-.118 2.106.968 5.346-.483 6.473M355.115 161.34c.276.455.487 2.021-.634 1.845-1.264-.199-3.518-1.314-5.017-1.707-1.09-.285-2.246-.214-3.391-.456-.562-.119-1.781-.055-1.423-.955.19-.478 1.046-1.128 1.64-1.165.964-.06 8.466 1.847 8.825 2.438M195.908 226.526c2.138 1.463-2.34 8.459-4.786 8.63-.299-.322 2.733-7.92 3.074-8.196.419-.338 1.34-.689 1.712-.434M117.715 396.394c-1.46 4.804-4.902 7.228-5.28 11.998l-2.262-1.195c-.05-.605 5.837-9.819 6.365-10.322.524-.498.78-.326 1.177-.481.405-1.335.173-2.347 1.036-4.002.275-.526 6.294-8.389 6.635-7.995l-6.011 11.51c-.38.73-1.284.34-1.66.487M314.421 693.429c.511 2.528-1.053 4.407-1.678 6.718-3.172-2.414-3.427-7.599 1.678-6.718M117.233 7.23c.337 2-2.548.437-3.597.473-4.203.143-7.904 1.18-10.79 4.318-.004-.782-.226-1.542.485-2.15.329-.281 5.204-2.623 5.831-2.805 2.577-.746 5.665-1.087 8.07.164M198.313 199.651c.213.976-.219 1.281-.697 1.938-.584.805-3.755 4.783-4.34 4.766-.972-.563-.222-3.488.205-4.103.363-.522 4.492-2.968 4.832-2.6M303.862 122.393c.33.351-3.33 7.823-3.866 8.844-.351.668-.246 1.445-1.406 1.228-.397-1.235 3.754-11.684 5.272-10.072M188.542 212.433c-.184.276-.876.45-1.195.938-1.012 1.545-1.002 4.736-3.902 4.51-.395-3.42 2.9-4.152 4.33-5.98.913-1.166.865-3.014 2.38-3.615.285 1.656-.77 2.883-1.613 4.147M52.95 69.605c.624-3.683 2.002-8.587 4.309-11.517-.32 3.841-2.066 8.49-4.308 11.517M119.634 8.667c1.199.162 9.588.836 9.585 1.675-2.446 2.11-3.696.625-5.746-.004-1.31-.402-3.193-.133-3.84-1.67"/><path d="M427.163 315.779c1.247 1.14-6.15 4.19-7.194 3.831.621-1.22 6.41-4.549 7.194-3.831M388.309 171.816c-.337-1.549-.919-4.14 1.187-4.795 1.628 1.457.427 3.998-1.187 4.795M289.472 745.26l-.48-3.358c.65-.497 2.942 1.578 3.355 2.164.28 1.307-2.066 1.319-2.875 1.194M120.11 422.309c.198 1.976-.605 4.215-2.39 5.276-.433-.767 1.302-6.56 2.39-5.276M223.744 142.552l-.001 1.423c-1.209-.037-2.432 1.135-3.356-.238.336-1.808 2.062-1.44 3.357-1.185M198.794 607.052c-2.22-.159-1.715-3.794-1.433-5.273 1.466.972.72 3.718 1.433 5.273M203.598 563.867c.835-2.394 1.634-4.85 2.66-7.172.262-.593.458-1.924 1.168-1.943l-.367 2.265zM197.838 147.341h-2.399c.002-2.837 2.768-3.422 2.399 0M416.607 321.057c.41 1.663-2.113 1.329-2.649 1.544-.207.083-.395 1.722-1.184.85-.895-.99 3.162-2.52 3.833-2.394M310.095 121.907c-1.17-.641-.128-3.925.961-4.315.306 1.707-.299 2.848-.96 4.315M253.962 425.184h-.95c-.361-3.146 2.144-2.927.95 0M199.273 239.48l-.235 2.874c-.922-.678-.757-1.852-.72-2.874zM199.757 234.677c-.204-1.156 1.081-1.498 1.912-1.917.46.556-1.183 2.274-1.912 1.917M240.053 670.4c.07.914.131 2.105-.952 2.396l-.003-2.396zM130.188 277.872l-1.434 1.434c-.162-.875.527-1.593 1.434-1.434M99.483.03c.279.216-1.407 1.496-1.91 1.199.613-.59 1.001-1.393 1.91-1.2M6.893 259.155h.47v1.915h-.47zM296.186 137.744l-.957-.003.485-1.431.469-.001zM111.003 413.669l.232-1.437.713.717zM96.602 3.861l-.954-.235 1.201-1.192zM201.668 569.142c-.062.067-.315-.023-.47 0 .125-.728.255-2.046.952-1.913.073.162-.415 1.84-.482 1.913M305.789 802.363h.47v.955h-.47zM126.59 381.998q.468.24 0 .48zM197.845 236.363l1.195-1.194.225.225-1.194 1.194zM127.55 380.078q.467.24 0 .48zM287.792 741.417q.468.24 0 .48zM282.76 247.158h.47v.955h-.47zM172.41 154.544c.736-.645 7.154 2.72 9.235 2.31.406-.08 4.716-2.626 4.667-.633-.022.868-5.054 2.193-5.913 2.147-1.25-.067-5.758-1.624-6.887-2.292-.66-.39-1.288-.582-1.102-1.532M159.454 169.412c-1.387-.11-3.99.504-4.795-.95 1.483.202 3.972-.724 4.795.95"/></g></svg>