<?xml version="1.0" encoding="UTF-8"?><!DOCTYPE svg PUBLIC "-//W3C//DTD SVG 1.0//EN" "http://www.w3.org/TR/2001/REC-SVG-20010904/DTD/svg10.dtd" []><svg xmlns="http://www.w3.org/2000/svg" xmlns:xlink="http://www.w3.org/1999/xlink" height="476" viewBox="0 0 813.862 476.153" width="814"><g filter="none"><path d="M523.437 199.675c-2.31-2.594-5.178-4.758-7.5-7.378-.39-.44-1.607-2.765-2.21-3.06-.69-.339-1.828-.008-2.784-.344-8.542-2.999-16.32-24.266-18.846-32.51-3.439-11.221-5.562-20.71-5.15-32.808.23-6.702 2.003-13.205 1.935-19.9-.483.164-1.2.78-1.45 1.186-2.362 3.844-3.62 11.83-4.678 16.483-.38 1.674.57 3.274-1.754 4.921-1.852 1.313-2.237-.615-2.557-2.304-1.736-9.142 2.188-19.466 6.882-26.969 2.835-4.532 4.55-5.196 5.827-10.965.426-1.926-.744-3.748 2.395-4.813 2.822-.957.533 2.654 3.158 2.233.875-.14 6.513-3.62 8.164-4.345 2.048-.899 4.867-1.653 7.051-2.31-.391-2.683-3.626-3.868-5.005-5.31-1.898-1.985-2.63-4.844-3.804-7.055-.287-.54-2.338-1.595-1.745-3.471l1.216.467-.255-.942c9.265-.566 10.09 14.5 18.708 15.352l-2.394-11.516c1.952-2.015 3.733 7.598 3.965 8.269.747 2.159 1.825 4.532 3.73 5.87.883.62 2.225.666 2.888 1.43.684.787.978 2.936 1.63 4.13 6.325 11.57 18.062 18.624 26.172 28.54.842 1.03 2.011 1.86 2.876 2.886.214.983-.518.815-1.212.734-1.555-.18-2.864-1.921-4.387-2.817-9.342-5.495-21.617-14.357-28.384-22.945-1.164-1.477-2.014-3.713-3.177-5.004-.642-.712-5.408-4.571-6.15-4.895-1.493-.65-4.247.466-5.89 1.062-1.557.567-7.42 3.066-8.536 3.82-.573.387-.54 1.347-1.094 1.919-3.012 3.104-1.67 2.678-3.176 6.41-4.607 11.408-7.346 19.573-8.07 32.25-.566 9.922 4.125 16.73 7.791 25.366 1.244 2.931 1.786 6.239 3.255 9.225 6.12 12.445 20.412 33.405 30.702 42.728 6.675 6.048 14.891 10.553 20.063 17.983 2.567.953 5.768 5.452 8.037 6.232 1.334.458.09-1.892 1.424-1.43 1.994.692 2.54 3.46 4.936 4.663 2.848 1.43 5.412.632 8.707 2.813 4.992 3.305 9.438 8.201 13.987 11.928 5.65 4.63 14.18 10.265 19.028 15.29.616.639.383 2.111 2.051 2.264-.545-1.612 1.26-1.835 2.643-1.82 9.792.104 30.433 24.127 39.148 29.862.465 3.087.912 1.643 2.626 2.644 4.184 2.445 8.361 9.606 11.77 12.711.645.587 1.908.771 2.398 1.442.912 1.247.1 3.033.702 4.578.514 1.318 6.06 6.724 7.403 8.435 4.196 5.344 8.345 12.069 10.939 18.338 3.71 8.965 8.458 24.428 6.552 33.96-.094.467.044 1.335-.676 1.205-.168-7.378-.824-15.659-2.913-22.77-6.132-20.875-17.954-33.079-33.588-47.052-5.233-4.677-2.888-4.226-10.316-6.95-2.786-1.023-7.535-4.771-10.04-6.757-5.039-3.992-9.169-9.327-15.125-11.986-.937.948 5.457 6.164 5.99 6.72 17.796 18.531 34.624 38.721 41.374 64.217 1.09 4.116 3.467 12.77 3.538 16.665.015.81-.386 6.132-.513 6.613-.111.421-1.003.6-1.37 1.116-.935 1.316-1.65 3.21-2.463 4.278-.459.604-1.677.795-1.88 1.5-.218.76.957 4.644.95 6.166-.012 2.884-1.644 5.795-.997 8.882 1.794-1.789 3.59-5.325 4.5-7.735 1.313-3.483 1.45-7.814 3.063-10.863.944-1.783 1.124 3.015 1.11 3.477-.251 9.083-1.64 14.145-7.24 21.12-2.317 2.885-2.634 3.836-4.408 7.11-.863 1.593-4.428 6.448-5.67 7.767-3.38 3.587-9.807 6.166-13.707 9.327-1.838 2.248.216 3.848 2.465 4.327 5.238 1.116 5.345-.161 9.433-1.543 7.264-2.456 14.716-4.63 21.659-8.094 9.478-4.73 18.354-11.957 25.99-19.123.535-.502 4.841-5.334 5.002-5.676.16-.34.542-2.366.465-2.672-.384-.718-.744-.93-1.56-.71-.736.197-5.941 5.683-7.28 6.646-1.768 1.273-3.43 1.63-5.51 1.922-.52-.618 3.316-5.038 3.944-5.89.82-1.114 1.527-3.053 2.34-3.898 2.807-2.915 4.779-1.894 8.017-3.022 4.666-1.624 6.12-6.355 7.806-10.34.18-.424.887-.352.901-.666.02-.438-.51-.87-.233-1.604.05-.128 1.556-2.115 1.677-2.18.36-.197.865.242 1.155.214.277-.026.48-1.858 1.259-.93.167.198-.393 1.631-.594 2.038-1.548 3.144-1.885 8.375-3.003 12.36-.3 1.071-1.306 1.884-1.56 2.758-1.105 3.794-1.28 9.904-2.678 13.422-.065.165-1.44 1.042-1.75 1.448-6.45 8.48-15.462 16.43-24.363 23.661-1.649 1.34-2.865 1.976-3.95-.011-.052 1.482-1.113 1.555-2.406 1.445l1.917.48c-.817 1.284-2.745 1.285-4.199 2.226-7.763 5.022-16.334 6.012-24.957 8.685-7.6 2.356-16.41 5.362-23.894 7.3-3.832.991-8.889 2.128-12.695 1.468l-.23.96-1.695-2.4c-.965.838-2.98 1.796-3.117-.007.864-1.153 17.634-3.393 20.5-3.978 23.551-4.812 41.214-8.659 59.905-24.557 1.485-1.263 2.798-3.044 4.295-4.344-.675-.468-2.102.733-2.718 1.12-5.754 3.621-10.218 7.167-16.108 9.804-10.855 4.86-24.976 12.339-37.555 11.154-3.008-.284-1.805-1.942-2.272-3.723-.143-.544-2.781-5.488-3.088-5.584-2.5-.79-9.142 5.547-11.53 7.056-7.596 4.798-19.584 10.248-27.985 13.767-15.555 6.514-29.966 9-46.162 12.865-2.991.713-10.34 4.422-10.856-.983-.275-2.878 6.035-5.161 8.281-4.914 1.58.174 2.607 1.676 5.249 1.404 23.287-4.222 46.24-9.96 66.764-22.05.864-.509 6.388-3.719 6.503-4.085.067-.214.137-1.197-.257-1.187-4.337 2.33-9.116 3.77-13.912 4.805-.624-2.313 2.429-1.678 3.585-2.174 2.182-.937 6.178-3.98 8.531-4.907 1.447-.57 3.859-.755 5.36-1.36 3.575-1.438 5.804-3.268 10.025-4.851 14.401-5.403 24.636-24.859 25.062-39.74.117-4.107-1.723-5.015-2.218-7.908-.04-.234-.092-3.38-.062-3.555.344-2.017 3.004-2.46 3.453-3.194.292-.478 1.626-6.741 1.6-7.456-.073-2.115-3.913-17.299-4.842-19.536-7.403-17.829-24.4-41.58-38.018-54.632-2.076-1.99-6.398-4.859-8.29-6.808-.429-.442-.342-1.484-.687-1.714-.968-.644-1.183-.36-2.836-1.722-3.214-2.649-6.485-5.447-9.785-7.972-.956-.731-9.853-5.894-8.875-7.187.056-.074 1.58-.796 1.672-.798.41-.009 1.532 1.414 2.16.55-3.202-4.072-7.154-7.61-11.272-10.804-10.064-7.805-21.757-11.824-31.882-18.99-12.305-8.709-20.497-19-30.261-29.969l.957-.002v-.955h-.955zM504.722 60.96l-.957-.002.002.957zm20.152 20.633c.22-.23-1.701-4.757-3.355-3.835-.632.59 2.684 4.53 3.355 3.835m-21.352 85.922v.48q.468-.24 0-.48m59.263 61.435-.955-.955-.002.958zm25.43 19.688h-.955v.955h.955zm11.999 13.912-2.874-1.915c.156 1.543 1.416 2.63 2.874 1.915m2.877 3.363c.42-.417-2.325-4.166-3.347-2.158zm49.668 28.322v.48q.466-.24 0-.48m1.194 2.878v-.955h-.47v.955zm2.165.962v.48q.467-.24 0-.48m5.513 38.398v-.955h-.47v.955zm.725.482v.48q.466-.24 0-.48m2.639 4.805-1.437-.002v.955l.71-.003zm-.233 3.838-.717.717 1.183.718.717-.718zm-1.926 23.037v.48q.467-.24 0-.48m3.114 27.838v-.955h-.47v.955zm43.912 3.842v.48q.467-.24 0-.48m-1.209 2.877.734-1.907-1.682 1.672zm-.953.968h-.955v.47h.955z"/><path d="m395.314 423.835.082-.887c2.248-.467 2.99.346 4.69.679 3.155.618 6.261.541 9.42.693 8.061.39 16.12.49 24.198-.008.048.75-.208 1.785.22 2.422.165.246 4.37 2.736 5.05 3.11 1.535.842 2.898 1.168 4.458 1.78 4.196 1.644 10 2.246 14.923 1.747 4.434-.45 8.934-1.53 12.968-3.328 2.057 3.842-.198 3.792-2.839 4.83-.565.223-.903-.364-.71.955.254.267 5.57.98 6.474 1.012.922.033 3.27-.09 4.32-.145 1.535-.08 10.335-.858 10.31-2.54-3.7-3.774.301-2.624 2.443-3.325 1.436-.471 1.25-2.09 3.679-2.556 2.778-.534 6.087-.32 5.403 3.243 2.624-.441 5.834.454 8.266.35 6.189-.267 13.784-4.28 19.389-4.67 1.551-.107 2.044.993 3.168.887 1.126-.106 2.638-1.239 3.852-1.525 2.03-.477 4.235-.637 6.425-1.212 3.542-.929 11.32-5.576 10.775 1.142-.33.438-5.617 3.783-6.421 4.173-.6.29-3.497 1.497-4.03 1.646-1.337.372-4.507-.544-5.434 1.602 1.649.379 3.302 1.04 5.037.994 10.574-.277 24.479-4.63 34.78-7.48 3.8-1.05 7.066-1.056 10.832-3.085 2.105-1.134 3.121-3.596 5.71-3.838 1.781 2.192-.419 2.72-1.6 3.651-2.418 1.908-2.663 1.272-4.832 2.345-1.368.676-5.068 4.024-6.571 4.947-1.13.693-2.689 1.619-3.996 1.803-1.598.225-2.98-.551-4.026-.319-.554.124.01 1.194-.78.985l.012-1.181 9.099-4.82c.075-.36-.47-.31-.71-.23-4.397 1.476-9.21 2.489-13.202 4.065-1.228.485-2.888 1.589-3.944 1.866-1.224.321-2.052-.205-2.505-.095-.533.129-.56 1.053-1.116 1.354-1.031.558-18.081 5.363-20.057 5.735-5.371 1.011-11.95-.506-16.71.043-2.935.338-6.796 1.798-9.686 2.353-15.737 3.024-32.481 7.085-48.428 7.234-.812.008-1.673.531-2.432.508-1.18-.035-1.623-.967-2.366-1.005-.22-.012-.962 1.496-3.835 1.435-9.526-.203-13.892-.702-22.795-4.069-1.25-.472-3.188-.968-3.847-2.146 3.389.394 7.022 1.472 10.373 1.859 16.889 1.95 35.915-.133 52.589-2.967 7.176-1.22 14.304-3.026 21.493-4.18 1.23-.932-2.677-1.394-3.127-1.432-3.818-.32-12.53-1.307-15.833-.967-3.08.318-9.433 2.53-12.028 2.364-.793-.051-1.005-.736-1.638-.925l-.007 1.447c-.855.265-1.119-.712-1.74-.837-.914-.184-4.233.68-5.615.652-7.68-.151-15.886-2.076-23.598-1.263-3.79.4-8.668 2.153-12.594 2.762-17 2.638-45.952 7.561-57.06-8.918-.602-.891-.563-2.016-1.095-2.745-1.19-1.63-7.11-1.39-9.325-1.713-10.273-1.498-19.591-4.32-29.506-6.002-8.857-1.503-19.155-1.643-27.381-6.214-.99-.55-1.422-1.973-2.7-2.14-1.14-.149-2.356.638-3.767.491-3.389-.352-9.275-2.902-12.048-2.882-1.778.012-4.334 1.526-6.355 1.8-7.25.981-13.003-2.287-19.314-4.433-8.77-2.982-24.801 3.286-35.199 2.133-14.35-1.59-30.928-4.53-44.402-9.868-1.206-.477-2.32-1.658-3.676-2.082-2.89-.904-5.936-.173-8.854-1.47l2.153-.468c.827-.67-.492-1.496-1.063-1.816-4.255-2.386-12.735-.802-18.011-2.144-1.108-1.411-8.35-3.091-8.799-3.709-.314-.434.255-1.193.156-1.634-.14-.621-1.006-.947-1.215-1.602-.437-1.369-.209-3.76 1.357-4.22l-.027-1.176c-1.187-.287-2.674-.768-3.76-1.287-3.124-1.492-14.362-6.449-15.623-8.853-.898-1.711-.656-2.939-2.205-4.994-4.54-6.023-7.113-2.267-13.155-3.16-4.717-.699-10.842-3.919-15.498-4.655-4.072-.643-4.237.23-6.868 2.51-.498.43-1.59.542-1.792.84-.228.34-.084 1.181-.369 1.77s-.976.773-1.168 1.729c-1.373 6.836 5.428 15.08 10.869 18.395 12.286 7.484 28.544 4.94 42.167 5.82.834.054 3.14.18 3.578.974l-13.92.791-2.872 1.62c.231 1.287 2.931 1.022 3.357 1.441.169 2.365-2.668-.194-3.578-.507-5.747-1.976-13.372-1.425-19.727-2.35-8.829-1.284-24.813-3.108-32.644-6.203-.502-.199-3.927-1.948-4.488-2.244-5.562-2.942-11.433-7.282-12.374-14.027-.405-2.909.027-2.757 1.041-4.968.262-.57.155-1.458.37-1.764.508-.723 4.293-1.68 4.128.524-2.253 4.373-3.465 5.426-.78 10.086 5.554 9.639 19.654 10.352 29.506 12.624l4.473-1.01c-3.076-1.094-4.836-3.182-6.698-5.784-3.256-4.551-6.24-10.47-3.593-16.042.081-.172 2.019-2.992 2.152-3.127.659-.666 4.804-2.226 3.757-4.033-.28-.484-5.415-3.56-6.409-4.383-5.19-4.296-13.216-12.83-16.024-19.012-.476-1.05-.689-2.202-1.02-3.3l1.205-.25c.256.05.386 1.844.781 2.585 2.99 5.601 13.411 15.832 18.98 18.933 4.494 2.502 7.126 1.674 11.426 2.488 3.484.66 6.45 4.356 9.129 6.232 3.766 2.636 8.179 2.142 12.463 2.893l-.71-1.443c2.54-.28 3.093 2.749 4.31 4.082 1.609 1.765 7.073 2.69 9.68 3.757 14.06 5.749 27.032 13.886 40.387 21.041 8.06 4.32 18.844 11.128 27.297 13.495 8.572 2.401 20.911 3.834 29.894 4.657 8.928.818 17.266.302 26.15-.002-.78-.888-1.97-1.885-2.92-2.594-13.485-10.059-29.439-21.074-47.004-16.859-3.989.957-7.334 3.9-11.502 4.094l.49-.953c-1.843.87-2.903-3.658-2.367-4.287 5.652-.58 11.934-3.56 17.489-3.873 7.837-.443 16.432 2.519 23.432 5.825 8.022 3.79 10.413 7.254 19.63 9.164 5.252 1.088 7.308 7.272 11.836 8.322 6.04 1.4 14.352-2.934 20.667-2.669-.195.947-.981.821-1.683.952-4.108.77-7.283 1.81-11.143 2.774-.374.093-5.527.126-3.498 1.318.262.154 3.667 1.413 4.196 1.563 2.24.637 7.198 1.454 9.504 1.556 1.155.051 2.222-.012 3.304-.432.286-2.804 1.755-4.681 3.147-7.02l-2.385-1.19c2.962.512 6.324-2.882 8.86-2.42 4.075.74-3.285 7.548-3.065 8.833 6.621 5.43 16.54 4.222 24.67 5.104 4.27.463 8.85.891 12.933 1.42 12.431 1.61 24.368 6.85 37.438 7.713 1.405.093 2.868-.006 4.274-.077 4.208-8.45 14.695-9.873 18.534-.422l-3.126-.96-.495.993c-3.238-.942-7.102-2.677-9.803.21.305.226 1.043 1.2 1.19 1.2zM164.98 388.32c-2.58-.485-5.26-1.612-7.664-2.655-2.006-.87-4.156-3.448-5.76-.95 2.164 2.912 5.521 3.415 8.872 4.076zm14.876 8.16h-.955v.47h.955zm164.592 23.043c-4.857-2.002-10.225-1.45-15.35-1.925l.227.948c.545-.458 1.12-.499 1.797-.396 3.66.554 8.909 2.824 12.617 2.326.663-.09 1.383-.24.71-.953m88.779 6.234-2.64-.004c-1.57.186 3.08 3.69 2.64.004m-3.364.483h-.955v.47h.955zm14.396 11.03c.162-.819-.191-.985-.818-1.335-2.104-1.172-10.429-2.355-11.379-4.4-.189-.407.387-1.338-.239-1.718-.31-.19-3.432-.64-4.124-.695-13.822-1.113-28.055-.647-41.74.379-1.507.112-3.938-.98-5.517.83-.38 1.779 7.479 6.83 9.105 7.674 10.706 5.556 32.307 3.386 44.34 1.614 3.492-.514 6.945-1.556 10.372-2.349m30.953 1.445v.48q.466-.24 0-.48m35.267 3.838-.235-1.435-.718.724-.002.71zm-19.194 1.925h-.955v.955h.955z"/><path d="M31.497 202.155c.16.093 1.76 3.05 1.792 3.255.093.606-.638.976-.613 1.592.145 3.611 3.699 9.722 5.702 12.995 7.23 11.817 17.828 19.565 28.022 28.614 1.578 1.401 2.285 1.785 3.694 2.916 1.127.904 7.03 6.626 8.028 5.748l.677-1.963 4.124-2.591-5.726-3.667c.11-.96.828-1.616-.271-2.337l-.958 1.43c-3.949-3.605-9.191-5.578-13.048-9.256-.484-.462-.557-1.564-1.328-2.278-.612-.566-1.739-.687-2.056-1.061-.968-1.142-.19-6.021 2.014-5.66 1.365.147 6.304 6.804 7.68 8.202 3.646 3.703 12.854 12.751 17.26 14.417 2.34.885 4.795.177 7.175.503 4.362.597 15.935 2.437 19.46 4.053 5.531 2.535 12.133 3.678 18.051 5.944 2.31.884 4.477 3.656 7.082 4.916 1.618.782 4.528 1.752 6.313 2.325 3.35 1.076 6.83 2.543 10.334 1.418l-3.348-3.605c-9.113-11.144-16.418-23.879-23.414-36.58-2.734-4.963-7.025-16.123-12.325-18.872-1.41-.732-3.482-1.114-5.06-1.423-.005-2.294 3.933-1.234 5.273-.708 4.947 1.94 8.973 11.042 11.707 15.648 12.841 21.64 26.615 45.968 47.363 61.104 8.297 6.053 22.972 12.27 32.925 15.067.728.205 1.278.361 1.111-.631-.105-.625-6.68-8.839-7.699-10.062-9.649-11.588-17.278-22.125-23.602-35.91-1.175-2.563-2.608-8.118-3.807-10.118-.58-.97-2.423-.564-2.338-2.457 2.791-1.914 7.328-1.084 9.31 1.73 1.153 1.638 1.254 3.726 2.018 5.18 1.15 2.19 3.278 4.253 4.457 6.582 1.722 3.4 2.148 7.132 3.392 10.526 2.279 6.216 11.774 18.857 17.538 22.298 3.101 1.852 2.577.895 5.287.949 2.768.055 4.163 2.504 6.316 3.764 4.085 2.389 10.878 3.903 9.75 10.162-1.123-.274-2.585-.558-3.722-.368-.284.047-.92-.45-.585.599.593 1.853 3.74 5.246 5.243 6.746 1.027 1.025 4.835 4.61 5.807 5.243 6.129 3.996 11.115 9.142 17.576 13.14 20.753 12.839 44.859 20.584 68.193 27.306 3.237.933 11.642 3.71 14.41 3.867 3.654.207 12.716-6.663 17.1-8.076 2.155-.695 4.246-1.12 6.368-.076.954.47 6.15 6.398 6.87 7.524 1.196 1.874 2.922 7.846 4.635 8.804l12.593 3.723c7.156 1.486 14.652 2.757 21.724 4.669 2.39.646 4.343 2.381 7.096 1.783.075 1.124.156.846-.713.962-1.138.151-5.422-.319-6.612-.596-3.485-.814-8.134-2.71-11.756-3.6-7.36-1.81-14.765-3.388-22.182-4.927-.197 5.747 9.151 15.107 14.175 16.776 6.89 2.288 20.105-.16 27.279-1.95 2.154-.537 5.867-1.077 4.61-3.785 1.271-.596 1.534.918 1.644.912 2.086-.124 7.082-1.589 7.96 1l.71-.953 1.193 1.198c-4.543 2.545-9.733 3.249-14.758 4.429-7.363 1.729-20.534 5.09-27.728 2.559-6.471-2.277-12.75-9.842-16.454-15.2-1.808-2.616-2.042-5.664-5.709-6.79-5.237-1.61-19.626-4.486-24.834-4.474-3.741.008-6.687 2.092-9.941 3.053-4.314 1.274-9.578 2.443-14.058 2.738-17.403 1.146-36.8-9.524-50.78-19.276-2.776-1.937-6.024-5.387-9.004-6.833-3.18-1.543-7.578-2.458-10.943-3.933-12.886-5.649-23.066-13.234-32.182-23.969-2.267-2.669-4.296-6.276-4.577-9.821 3.643 4.384 6.795 9.124 10.786 13.212 6.786 6.952 17.413 14.27 26.224 18.407 1.694.795 4.63 2.055 6.417 1.74-5.237-4.746-10.088-10.202-15.346-14.889-6.121-5.455-15.3-13.191-21.853-17.98-4.061-2.967-9.312-3.144-14.346-4.85-11.377-3.857-21.07-8.76-30.39-16.16-1.266-1.006-3.992-2.795-4.875-3.763-1.73-1.897-1.405-2.022-3.646-4.032-2.3-2.062-3.108-4.103-6.62-3.357-.119.025-.79 1.122-1.898 1.526-6.346 2.312-12.464 1.585-18.775 1.873-7.59.348-9.506.7-17.209-.65-4.693-.823-9.431-2.92-14.278-1.797-.224 1.412.985 2.325 1.956 3.083 2.62 2.041 10.333 4.827 13.656 4.62 2.447-.154 3.865-1.885 5.995.213.442 1.842-.917.857-1.333 1.291-.298.311-.117 1.279-.56 1.616-1.064.81-5.521-.162-6.519 1.173l-.52-.999c-5.8 1.342-12.943-4.001-17.457-7.425-4.237-3.214-8.654-7.618-13.282-11.183-16.25-12.518-35.553-25.284-47.667-42.08-.572-.793-.676-1.81-1.234-2.605-3.527-5.03-10.064-12.48-10.679-18.65-.35-3.524 2.174-2.491 3.936-2.538.769-.02 1.889-.78 2.607-.36M61.33 231.36h-.955v.47h.955zm20.632 24.473v-.955h-.47v.955zM100.2 261.6c-3.5 3.46-8.261-2.88-11.514-3.651-1.152-.273-2.517.47-3.84-.19 4.095 4.767 7.055 10.47 13.442 12.23 13.792 3.8 27.773 5.095 41.981 4.948 1.498-.015 3.352-.755 5.036-.385.738-.647-2.168-2.266-2.547-2.487-9.539-5.569-34.486-15.251-45.201-14.313-.65.057-1.703.227-2.152.72zm82.057 31.199-.957-.002.002.957zm32.462 5.445c-1.11-.976-2.725-1.367-4.147-1.608l2.447 4.987 5.225 3.649c.38-.419-2.82-6.408-3.525-7.028m14.562 31.033h-.955v.955h.955zm75.927 36.859c.459.209 1.534-.47 2.466-.364 7.004.799 15.276 1.536 22.086-1.511 5.001-2.238.064-2.24-1.47-2.74-22.062-7.184-43.371-12.267-64.344-22.52-3.611-1.766-7.423-3.572-11.147-4.924l2.637 3.356c3.146 1.78 5.809 5.674 8.144 7.696.994.86 3.765 1.597 4.719 2.352.681.54.493 1.386.928 1.833.8.82 9.225 5.913 10.777 6.744 7.927 4.247 17.489 6.568 25.204 10.078m-29.139-23.422v.48q.468-.24 0-.48m88.055 23.518c.93-.924-4.063-11.277-6.09-11.91-4.375-1.366-12.338 5.306-16.462 6.874 2.314 1.557 21.728 5.854 22.552 5.036M583.41 75.832c.337-1.417 1.079-2.687 2.606-2.91 3.551 5.2 10.248 8.451 16.118 10.352 1.472.477 3.519.301 4.91.85 1.316.518 2.189 2.304 4.207 1.794.061 1.04-.817 1.632-.955 2.676-.255 1.937 2.672 9.525 5.3 7.67 1.586-1.12-.872-3.365-1.345-4.47-.43-1.006-1.778-4.431.124-3.494 1.329.655 3.08 1.198 4.038 1.73 4.052 2.252 8.517 13.565 8.157 18.142-.143 1.807-1.672 7.465-2.636 8.91-1.638 2.458-5.97 5.392-8.808 6.07-2.153.513-4.999-.543-5.342 2.336-.75 6.29 1.02 10.258 2.314 15.98 2.351 10.401 6.168 23.761 11.537 33.099 2.185 3.799 6.438 6.822 8.652 11.025 4.936 9.37-2.344 26.763-14.177 20.422-4.623-2.477-4.955-5.991-7.608-9.67-2.638-3.657-6.73-6.528-9.526-10.631-11.826-17.352-19.117-37.254-31.763-54.145-3.725-4.975-8.613-8.5-7.161-15.91 2.504-4.716 6.693-9.385 8.737-14.296 2.69-6.462 1.457-15.489-2.34-21.352-1.108-1.712-3.282-3.149-3.628-5.004-.366-1.972 1.312-7.338-.816-7.34l-2.43.965c-4.797-3.39-.43-8.693 4.809-8.67 4.815.019 9.865 4.446 12.446 8.225.766 1.121 3.211 8.611 4.58 7.646m-11.985-4.32c-.788 2.517.22 4.673 2.63 5.76 1.914-2.514.584-5.69-2.63-5.76m7.676 32.639c1.664 1.149 4.098-5.149 4.452-6.354.628-2.137-1.903-1.152-2.75.14-.46.7-1.994 6.013-1.702 6.214m17.869 28.218c-.728-8.223-3.996-20.486 2.353-27.425 1.238-1.352 8.39-3.374 4.224-6.284-4.21-2.941-12.574 1.668-15.82 4.763-1.352 1.288-2.472 3.54-3.714 4.58-1.747 1.465-6.82 3.615-9.048 3.817-2.604.236-4.771-1.496-6.537 2.537-1.482 3.381 4.16 7.266 5.884 10.162 3.594 6.035 7.163 13.676 10.65 20.093 6.913 12.72 13.047 26.447 21.281 38.712l9.56 9.637c.491 1.109.101 2.345.348 3.493.547 2.545 7.338 4.45 9.043 2.531 1.741-1.958.186-3.481.135-5.214-.108-3.635 2.728-8.017.78-10.993-.398-.607-1.079-.652-1.412-1.092-6.173-8.153-10.496-14.857-12.466-24.877-.088-.448-1-.425-1.36-1.138-1.2-2.375-1.159-7.295-3.029-10.798-1.255-2.351-3.82-3.454-5.424-5.243-1.876-2.09-3.1-5.68-5.448-7.26m8.663-14.925c-.409-.293-.391-1.482-1.322-1.278-4.53 2.997-.585 7.69-.991 12.003l3.127 5.746c.913-2.284-.03-4.907.134-6.827.16-1.866 1.99-7.702.839-8.791-.374-.354-1.224-.45-1.787-.853m1.776 18.869-.002-.71-.95-.728-.002 1.438zm3.357 4.322-.712-2.398-.71.715zM330.528 102.716c-.055-1.045.513-2.141 1.47-2.614.895-.441 5.352-.856 6.447-.778 3.944.28 16.488 3.296 19.804 5.192.85.486 1.057 1.437 1.14 1.48.16.082.915-.493 1.82-.178 1.489.516 7.755 6.003 8.947 7.422 1.673 1.99 2.475 8.3 2.125 10.845-.212 1.534-2.131-.124-2.391-.619-1.353-2.57-.778-7.482-3.167-10.63-3.972-5.236-19.85-8.806-26.326-8.696-.879.015-1.85.441-2.899.52-.424.033-2.984-.976-1.942.95.471.87 6.304 4.18 7.683 5.276 2.754 2.189 6.708 5.809 9.2 8.317 1.963 1.976 8.08 10.08 9.498 10.9 1.012.583 2.08.299 2.94.898.713.495 1.228 2.197 1.914 2.904.442.455 1.275.366 1.525.611.542.532 1.195 5.018 3.039 6.326 3.092 2.194 8.484-.076 11.96.27 1.876-1.74-7.328-5.31-8.035-5.621-.547-.241-.526-.88-.972-1.06-1.764-.712-4.37-.169-5.828-2.186.5-.88.995-1.866 2-2.29.438-.186 6.07-1.636 6.442-1.643 2.39-.049 2.235 1.355 3.193 2.088 1.332 1.019 1.614 1.225 2.89 2.389 3.516 3.21 7.658 6.43 9.44 10.987-2.686 4.804-8.276 1.492-12.485.464-1.497-.366-3.206-.259-4.919-.848-.969-.333-2.905-2.276-2.755-.605l13.222 18.937c11.812 14.133 24.544 27.933 39.11 39.12 5.837 4.483 16.93 12.988 23.499 15.37.866.315 1.7.338 2.604.293l.318-1.379c2.276-1.268 2.993.574 3.386.741.241.103.811-.426 1.34-.124 1.532.874 6.364 6.593 8.15 8.19 7.302 6.533 19.853 15.457 25.674 22.786.745.938.953 2.594 1.918 3.373 1.334 1.075 4.227 1.037 5.88 1.799 4.36 2.01 6.49 7.295 9.345 10.834 10.415 12.906 21.143 25.676 30.83 39.218l5.544 13.41c-2.24-2.46-5.883-3.283-8.393-5.28-3.725-2.963-5.518-8.708-7.835-12.803-4.289-7.58-11.146-13.075-16.322-20.132-8.244-11.24-16.997-23.93-27.182-33.77-1.58-1.525-8.376-7.629-9.852-8.405-.836-.44-2.28-.7-1.91.704 2.272-.238 1.872 1.628 2.689 2.836.94 1.392 2.58 3.494 3.745 4.666 4.247 4.274 10.862 7.405 13.255 13.382.19.475.748 1.073-.265 1.204-.47.06-5.096-2.47-5.673-2.956-.921-.777-1.565-2.487-1.882-2.68-5.241-3.206-7.66-8.532-11.39-13.326-.442-.569-2.63-2.865-3.108-3.161-.93-.575-3.402-.233-4.962-.77-5.249-1.812-7.377-8.721-11.169-12.344-4.202-4.016-11.833-6.873-16.914-9.96-10.708-6.508-21.334-16.114-30.715-24.717-2.259-2.07-8.101-6.217-9.46-8.542-.447-.767-.386-2.003-.508-2.127-.208-.21-1.471.071-2.156-.486-.58-.472-.453-1.483-.803-1.835-10.394-10.436-17.524-23.34-26.255-35.316-.213-.292-.602-.366-.949-.35l.946-1.912-1.434.756c-1.869-1.204-2.373-3.634-3.576-5.1-1.52-1.853-3.267-2.162-4.69-4.916-.36-.695-.215-1.848-.475-2.16-.156-.187-1.243-.24-1.848-.78-5.66-5.045-9.565-10.502-15.972-14.988-14.038-9.83-27.97-13.989-44.827-16.359-2.348-.33-15.975-1.552-16.906-.608 1.24 2.748 5.63 3.44 8.34 4.852 15.002 7.823 24.156 18.643 34.835 31.394 2.968 3.544 8.945 9.9 10.916 13.56.177.329 1.136 1.856-.113 1.557-2.219-.658-3.03-3.399-4.356-4.762-3.244-3.336-5.802-3.6-9.276-5.627-1.23-.718-4.319-5.458-5.55-6.906-6.806-8-15.28-16.937-24.764-21.789-7.171-3.668-22.85-11.53-30.536-12.182-1.041-.088-2.09.499-3.249.422-4.052-.266-8.158-1.163-12.237-.049l2.638-1.917-7.916.487.96 1.43c-1.086.254-1.756-.788-2.663-.932-4.71-.746-11.768 1.647-6.615-6.77 3.388.62 6.923-.775 10.396-.752 4.05.027 7.854 1.37 11.571 1.765.547.058 4.37.23 3.144-.98-2.35-.614-4.45-1.806-6.734-2.628-1.795-.646-4.713-.853-6.388-1.785-.66-.367-.692-1.29-1.093-1.343-8.843-1.18-20.713-5.114-29.676-4.195-3.355.343-10.576 2.052-4.567 5.006 1.076 4.372-2.161 8.224-6.274 5.21-1.257-.922-1.41-2.423-2.014-3.026-.551-.55-2.043-.458-2.275-1.56 2.25.475 2.2-1.143 3.342-2.181 9.567-8.691 24.982-4.724 36.492-2.39 7.502 1.521 19.115 3.903 25.67 7.442 4.453 2.403 8.182 6.078 12.687 8.425 10.408-2.186 21.34-1.512 31.805.35 4.547.81 11.11 2.65 15.507 4.17 4.193 1.449 8.12 3.625 12.21 5.3m48.466 54.239-.232-1.438-.713.718zm122.367 101.763-.955.235.952.722z"/><path d="M29.015 237.283c2.108 2.15 9.442 9.359 9.28 12.037-.235 3.872-7.22 3.606-9.824 4.133-.414.083-1.105-.17-.725.696.09.204 2.304 3.247 2.623 3.618 5.893 6.851 18.275 16.73 25.718 22.275 11.253 8.382 33.778 25.707 47.707 25.258.952-.03 1.737-.349 2.643-.507l.03 1.391 2.854.048c-1.036 5.202 2.673 4.42 5.527 6.712 1.263 1.015 2.804 3.366 4.065 4.574-.444.76-1.263-.06-1.695-.258-2.999-1.377-4.673-3.275-7.283-4.802-9.977-5.837-21.414-7.03-31.644-12.387-5.013-2.625-9.376-7.148-14.885-10.07-1.844-.977-4.013-1.522-5.76-2.397-2.14-1.071-14.553-8.196-15.985-6.806.475 1.437 1.196 6.071 1.924 6.95 2.403 2.898 12.535 9.659 16.157 12.158 4.622 3.19 15.137 8.555 18.52 12.066.511.53.415 1.439.804 1.745.428.337 1.26-.326 1.927-.055.51.208 3.622 3.762 3.847 4.341.429 1.1-1.734.783-2.167.726-3.638-.473-6.03-2.187-8.696-4.503-1.379-1.197-5.886-7.51-7.267-2.85-.9 3.042 2.423 6.096 4.916 7.362 10.215 5.19 20.512 10.874 29.97 17.541 1.385.976 6.3 4.59 7.104 5.609.18.23 1.723 3.567 1.576 3.705-.99.265-1.306-.333-1.935-.7-6.231-3.638-12.468-9.96-18.74-13.415-5.828-3.212-12.364-4.824-17.883-8.98-3.128-2.357-7.937-6.99-6.72-11.362.435-1.562 2.621-2.885.935-4.461-6.547-3.7-12.518-8.208-18.547-12.65-8.382-6.175-12.92-9.064-18.013-18.46-2.172-4.008-12.94-11.23-17.015-14.673-1.282-1.084-3.345-1.28-2.792-4.044 2.208-1.352 4.535-1.813 7.026-.66 1.618.75 1.246 2.755 2.234 3.526.639.498 1.706.376 2.456.904 4.715 3.321 8.635 8.233 13.307 11.648 7.035 5.142 15.9 8.39 23.862 11.887.225-1.076-.537-1.074-1.18-1.455-3.128-1.85-5.383-2.976-8.233-5.183-11.452-8.868-22.802-18.277-30.135-31.318-3.13-5.567-3.728-12.85-7.007-17.493-1.34-1.9-3.6-4.087-5.436-5.82-1.609-1.52-3.707-2.224-4.62-4.732.705-.07 2.116-1.648 2.254-1.675 1.739-.339 5.683 2.062 6.302.165.396-1.21.167-7.776.067-9.522-.266-4.63-1.967-9.926-1.458-14.427.27-2.386 1.974-1.837 2.355-.35.248.968-.446 1.831-.376 2.73.187 2.442 1.636 5.495 1.875 8.21.492 5.572.12 9.367 1.77 15.03.319 1.092 1.612 2.6 1.778 3.428.169.838-.361 1.65-.11 2.547.482 1.719 4.465 3.975 5.211 5.896 3.596-.61 1.505 1.117 2.337 2.387.434.661 4.183 3.705 5.17 4.712m-4.326.973c-4.352-3.537-4.888-1.93-2.948 2.702 1.111 2.653 3.52 5.198 4.325 8.15 1.382 1.45 5.106.308 6.988.281.402-.284.837-2.71.661-3.18-.75-2.011-7.66-5.822-9.026-7.953m81.51 68.94v.48q.468-.24 0-.48m-26.634 16.802h-.955v.955h.955zM141.952 138.724l.246.96c1.935-.789 3.171 1.233 5.18 2 4.832 1.843 8.842-.559 13.666-1.388 13.355-2.297 27.851-2.416 40.885 1.542 1.341.407 9.884 3.706 10.09 4.316.937 2.78-3.14-.652-3.849-.96-19.6-8.514-44.218-4.354-63.181 4.002-6.162 2.715-12.952 6.278-17.427 11.36-.025 1.43 7.262.286 8.397.263 5.262-.107 13.743-.687 18.48 1.161 3.225 1.259 1.13 3.632-.814 4.975-7.752 5.352-22.546 7.462-26.953 16.72-2.462 5.17.998 7.131 3.268 11.324 2.474 2.776 11.472 6.886 15.227 8.417 3.815 1.556 9.772 2.63 13.076 4.2 1.145.545 3.405 2.986 4.865 3.774 3.657 1.977 8.082 1.614 8.599 7.239l-1.444.481c.463.451 3.599 2.324 2.872 3.125-2.94-1.906-4.696-3.862-8.443-4.266-2.319-.25-3.867.42-5.708.426-1.628.005-3.247-.753-5.29-.479-.66.089-1.396.247-.707.952 2.62.92 5.011 2.451 7.919 2.444 1.591-.003 2.777-.604 4.73-.46 2.073.152 6.153 1.35 6.542 3.78l-1.92.005.504 3.335 1.898.025-.951 2.163 1.43.726c-1.278 2.054-4.443-1.232-6.375-2.034-1.821-.756-4.84-1.126-6.546-2.091-3.289-1.862-8.015-7.18-11.526-9.111-8.96-4.928-21.423-7.03-29.905-12.199-.448-.273-.535-1.054-.829-1.233-.522-.317-2.181.652-2.399-.47-.272-1.402 3.893-2.233 4.908-2.063 11.416 5.688 22.457 12.991 35.875 11.425-.49-.794-2.17-1.666-3.017-2.014-7.991-3.29-17.1-4.812-23.816-10.247-.415-.336-.617-1.005-1.044-1.366-3.88-3.28-8.46-5.977-7.602-12.021 1.733-12.205 16.904-15.046 25.829-19.762 7.92-4.186-.939-3.673-5.003-3.565-3.384.09-12.894 1.925-15.27 1.486-.344-.063-.287-.996-.575-1.003-.666-.017-1.718.962-2.605.278-3.827-3.36 1.024-6.283 3.608-8.407 5.502-4.524 12.053-7.286 17.499-11.776.104-.242-4.05-2.31-4.537-2.655-2.283-1.623-6.502-4.96-3.975-8.018.173-.21 4.148-2.528 4.67-2.77 4.553-2.122 10.276-3.302 14.983-5.653 1.46-.728 5.937-2.34 2.533-3.697-7.28-2.905-26.233-1.296-32.844 3.137-1.034.693-2.226 2.894-2.715 3.048-3.07.965-.019-3.351.92-4.12 5.118-4.185 25.547-6.08 32.207-4.913 2.56.449 10.835 2.824 9.812 6.346-4.508 4.775-11.811 6.02-17.37 9.06-2.215 1.21-3.863 3.17-6.078 4.246M307.683 193.614c-5.609 5.924-13.041 10.707-19.284 16.584-3.968 3.735-10.578 9.158-13.445 13.802-3.224 5.223-3.084 11.882 2.31 15.515-.839-11.258 10.53-16.834 20.157-17.757.505.398-1.099 1.703-1.337 1.888-4.47 3.472-9.915 6.46-14.267 10.1-3.01 2.517-3.286 7.791 1.511 8.152 2.154.162 7.514-4.423 8.938-1.302.468 1.026.266 2.54.825 3.405.236.366.92.298.945.34.502.813-4.49 5.098-5.266 6.102-3.147 4.073-4.834 9.415-3.073 14.482 3.369 9.695 16.619 10.666 25.278 9.506.972-.13 7.92-1.776 8.51-2.046.953-.435 1.386-2.082 1.7-2.165l.944.006c.591 2.112 2.864.225 4.368.044 2.748-.33 6.185 1.03 8.292 2.655-1.822 6.244-6.084 8.08-5.226 15.321.389 3.288 5.632 6.186 8.626 6.732 5.166.941 10.303.214 14.739-2.582l5.916-4.396c.178 2.966-.683 2.755-1.861 4.623-1.121 1.778-1.21 2.78-3.445 4.224-7.978 5.152-22.996 3.578-28.778-4.274-3.928-5.335.985-9.728.497-15.14l-20.887 1.423c-1.797-.583-4.502-.06-6.133-.555-.683-.208-1.109-1.193-1.53-1.225-.388-.029-.847.716-1.708.61-2.422-.297-8.064-3.148-10.023-4.83-5.356-4.601-6.897-11.778-4.579-18.452.716-2.059 2.763-3.436 1.694-5.936-3.691-1.454-8.563 2.608-8.185-3.671.23-.222 2.449.527 1.92-.715-5.183-4.805-8.854-10.151-6.462-17.514.957-2.943 3.881-7.592 5.789-10.05 6.977-8.994 17.374-14.593 25.445-22.319 2.343-2.243 9.684-10.21 11.01-12.733 3.654-6.954-4.86-9.61-10.471-8.557-2.942.553-5.245 3.287-8.03 4.204l4.077-4.317c4.373-2.97 10.73-5.141 15.575-2.141 2.354 1.457 4.506 5.902 4.371 8.618-.193 3.924-6.684 11.422-9.447 14.34m-31.858 27.659v-.955h-.47v.955zm6.238 9.12v-.955h-.47v.955zM574.757 17.249l-2.852 1.224c1.536 1.733 4.052 2.974 5.718 4.36 4.245 3.531 8.295 7.364 11.328 12.189.398.633.967.916.704 1.93-2.287-.11-2.414-2.839-3.351-4.083-6.641-8.816-20.013-16.83-30.527-19.384-12.746-3.096-34.009-4.136-46.843-1.357-3.693.8-6.753 3.074-10.447 3.713.066.873 2.012 1.01 2.635.995 1.558-.037 2.587-.824 3.879-.962.782-.084 5.456-.448 5.74-.402.75.124.957 1.917.677 2.26-.505.617-9.41.812-11.05 1.189-7.162 1.643-15.605 8.204-20.86 13.218-15.326 14.619-28.941 40.217-33.887 60.658-.844 3.488-1.004 8.433-1.946 11.493-.332 1.077-3.755 5.248-3.734 6.343.013.655.87 1.195.955 1.938.156 1.36-1.14 3.93-.833 5.608 1.763 9.668 4.808 19.352 6.963 29.05 2.033 9.144 3.263 20.211 5.87 29.058.184.625 1.438.503 1.82 1.65.479 1.437.746 4.22 1.195 6.004.431 1.718 1.85 3.436 1.067 5.172-.814-1.17-1.792-2.567-2.402-3.837-5.658-11.771-7.323-25.964-10.922-38.515-2.754-9.605-5.758-16.878-7.508-27.091-.375-2.192-1.152-4.073-1.35-5.263-.125-.754.472-2.427.356-3.771-.28-3.258-1.61-6.351-1.467-10.097.095-2.455 1.532-5.588 3.854-6.461-.067 4.053.264 8.626 1.072 12.608.08.399.947 3.011 1.81 2.265-.55-2.155.475-4.766.905-7.011 3.81-19.904 9.796-41.002 21.251-57.964 11.385-16.858 22.968-28.131 43.57-34.155 11.935-3.49 24.253-2.794 36.482-1.67L522.957.48c3.406 1.065 7.212 1.637 10.583 2.609 9.582 2.762 18.917 6.511 28.656 8.776 4.086.95 11.608.08 12.561 5.384M7.765 389.105c8.373 12.249 35.892 10.385 49.028 9.747 14.674-.712 50.227-5.47 62.6.265 10.119 4.69.329 10.103-4.337 14.377-2.933 2.686-11.334 9.044-12.95 11.526-.187.286-1.255 2.746-1.255 2.904.003.498 2.846 4.477 3.53 4.93 7.376 4.865 15.934 5.235 24.384 5.364 9.142.14 20.267.218 29.603-2.519 2.381-.698 4.558-2.657 7.329-2.75-.119 1.282-2.25 1.057-1.673 2.884 9.65-.595 19.374-.452 29.05-.938 14.038-.705 29.395-3.305 43.166-2.514.613.035 1.338-.453 1.929-.4 1.601.147 1.772 1.673-.471 1.95-4.794.592-9.679.824-14.463 1.372-21.63 2.477-43.135 2.538-64.789 4.795-9.715 1.012-19.496 2.497-29.613 2.276-9.443-.207-16.804-1.13-25.386-5.226-1.33-.635-4.834-2.571-5.655-3.597-.353-.44-3.327-5.802-3.347-6.152-.056-.962 1.762-4.9 2.432-5.689 2.064-2.431 10.075-8.492 12.966-10.068.778-.424 2.234-.386 2.73-.872.545-.533 3.19-6.773 2.907-7.716-.226-.758-3.864-2.498-4.6-2.638-16.364-3.102-36.892 1.51-53.717 2.095-5.004.174-9.731-.386-14.706-.098-1.645.096-4.464.78-5.862.723-1.168-.047-1.773-1.138-2.375-1.196-.6-.057-1.841.766-2.897.8-9.205.299-22.278-6.924-26.8-14.958-2.536-4.506-4.214-9.559-4.18-14.533.004-.555-1.153-3.572.76-3.171.646.135 2.094 9.255 2.622 10.822.581 1.728 3.038 6.738 4.04 8.205M480.55 216.167c8.08 10.74 19.412 29.425 30.17 36.788 1.344.92 3.874 1.682 4.827 2.373.721.523 1.942 2.873 2.78 3.697 1.9 1.868 4.794 3.211 6.795 4.986 3.868 3.43 7.825 8.559 11.73 12.244 3.126 2.949 6.242 5.062 9.393 8.35 1.788 1.866 2.21 2.614 4.374 4.521.628.553 1.215 2.114 2.111 2.49 1.057.443 1.677-1.456 1.422 1.657l.961-1.917c.362-.273 3.85 2.424 4.18 3.015.296.528-.032 1.42.195 1.713.075.097 1.623.333 2.326.801 1.062.708 5.772 6.911 6.94 8.419 1.405 1.812 7.34 11.101 8.43 11.728.726.419 5.71 1.01 6.215 1.725-.386 1.032.176 2.627-.06 3.437-.317 1.084-1.92 1.508-1.826 3.434.014.278.64 3.219.773 3.65.105.344.831.703 1.01 1.318 2.804 9.677 4.275 24.682.404 33.742-.83 1.943-1 4.512-3.661 5.51-.747.279-1.16-.246-1.606-.236-.139.003-1.083 1.88-2.208 1.422-1.056-.754 1.69-6.372 2.265-7.546.34-.693 1.302-.937 1.764-2.08 3.814-9.446 4.009-19.146 1.193-28.96-.262-.912-2.616-7.36-2.866-7.693-1.337-1.782-3.77-.56-5.355-.844-1.52-.272-6.795-5.343-7.345-6.649-.295-.7.24-1.244.268-1.901-2.93-.579-4.621-4.739-6.772-6.916-2.73-2.763-6.627-5.028-9.56-7.719-6.136-5.63-13.166-13.598-18.688-20.185-4.69-5.592-4.638-8.256-11.484-12.033-3.236-1.784-3.57-5.613-5.803-8.595-2.236-2.986-5.293-4.684-7.704-7.174-6.45-6.661-11.517-14.082-16.956-21.439-2.266-3.065-5.08-6.067-7.214-9.104-1.54-2.19-4.88-7.434-5.55-9.81-.252-.891.34-.921.965-.484 1.095.767 1.28 2.383 1.983 3.318.36.479.97.661 1.185.947m80.004 82.73c-.879-.791-.374-1.292-2.205-1.907-.461-.155-1.213-.776-.835.355.489 1.467 4.222 7.585 5.287 9.114 2.355 3.383 5.919 6.427 8.356 9.88.733.664 1.339.542 2.193.223 1.307-.487-.028-.7-.142-.838-3.127-3.747-4.948-8.674-8.014-12.484-1.225-1.52-3.402-3.228-4.64-4.343m8.71 16.938v.48q.465-.24 0-.48M762.763 411.233c-.37.375-1.286.426-1.768.859-6.514 5.848-19.048 17.092-28.134 16.586-1.766-.099-.96-1.039-1.405-1.01l-.478.966-1.44-1.91c-1.283 1.267-3.02 1.768-4.531 2.66-3.595 2.125-7.512 4.213-11.22 6.536-.729.457-1.282 1.195-2.168 1.432l.406.879c-3.822 1.01-7.303 4.16-11.093 5.952-10.98 5.189-22.548 11.342-34.421 15.489-20.741 7.243-43.093 13.662-65.132 15.527-1.612.136-6.445-.92-6.45.951l-.522-.873-4.748.876c-.8-.674 2.481-2.444 2.877-2.638 6.029-2.942 16.87-4.906 23.302-5.458.123-.01.558 1.485 1.868 1.412.27-.015.023-.898.947-1.031 2.084-.3 3.9.838 4.632.78 1.875-.149 5.093-2.932 7.158-3.145l.249 1.45c.64.101.874-.636 1.435-.727 34.722-5.644 65.094-21.359 93.69-41.025 7.275-5.003 19.301-12.31 23.504-20.063 1.375-2.538 2.981-5.474 4.335-8.145 1.068-2.106.31-4.945 3.924-4.903.124.786.66 1.436.805 2.212.587 3.14-3.467 10.12-5.354 12.638-1.512 2.018-6.498 5.986-6.923 8.424-.21 1.205.239.519.782.3 3.973-1.596 15.339-11.878 18.115-15.48 10.465-13.57 14.511-35.369 1.916-48.875l-5.24-6.274c4.061 3.556 10.66 10.215 12.612 15.22 2.378 6.097 1.822 12.433 2.028 18.612.06 1.788 1.128 5.731.97 7.192-.02.19-1.027 2.677-1.289 3.483-2.927 8.994-6.838 14.623-13.239 21.12m9.236-15.24v-.955h-.47v.955zm-172.267 77.285h-.955v.955h.955zM361.077 86.563c1.039 1.013 4.384 4.453 4.002 5.805-3.884 2.677-8.966-1.705-12.004-4.282-5.96-5.056-8.39-9.001-15.985-12.81-12.47-6.253-27.737-11.203-41.821-9.516-7.398.886-21.617 5.009-27.568 9.385-1.356.997-2.639 3.495-4.346 3.332 2.595-2.93 5.329-5.557 8.66-7.66 22.15-13.982 50.93-9.967 73.408 1.404 5.788 2.929 7.999 7.42 12.203 11.793.966 1.004 2.515 1.636 3.45 2.549M201.852 109.359c-.643.393-3.955.058-4.235 2.222 3.475 2.36 7.032 4.136 10.023 7.264 2.8 2.928 5.003 8.021 7.872 10.123 1.109.813 3.272.61 3.694 3.022l-2.636-.973-.543 1.001c-.661.147-5.582-1.935-6.205-2.396-4.71-3.486-8.375-8.838-13.714-11.722-7.918-4.278-19.89-4.926-24.908-13.482-.912-1.555-.796-2.428 1.088-2.533 3.408-.19 2.286 1.202 3.711 1.991.416.23 2.168-.078 2.994.298.38.173 3.095 3.565 3.741 2.859.602-2.124-2.007-1.251-2.652-2.89-.28-.71.28-1.645.227-2.563-.167-2.837-2.148-3.507-4.285-1.745l-.008-1.438c3.377.145 6.276-.8 9.717-.359 3.71.475 13.06 4.277 15.694 6.86 1.105 1.084 1.45 3.834.425 4.461m-10.302-4.868c-.535-.52-.611-1.167-1.437-1.712-1.36-.897-7.706-3.757-8.312-1.693-.61 2.08 4.198 4.823 4.36 6.876 2.561-.945 6.832 2.501 8.068-.65-1.01-.48-1.18-2.168-1.563-2.556-.214-.217-.91-.065-1.116-.265m-5.454 5.42-.727-.951-.71-.002v.955zM237.133 183.054c-.266.182-.467.837-.947 1.185-2.837 2.053-6.562 2.646-6.905 7.27 1.383.404 2.493.683 3.97.38 2.677-.55 8.835-5.717 10.91-3.497 3.129 3.344-3.773 5.128-5.924 6.56-2.308 1.537-5.786 4.834-7.513 7.006-3.645 4.585-4.548 10.054-3.84 16.197.458 3.98 3.209 6.079 6.215 8.212-2.161 4.177-5.947.887-7.645-1.982-3.823-6.462-1.924-16.073 1.47-22.408.778-1.451 4.975-4.799 2.634-6.66-1.176-.934-3.65-.329-4.397-2.828-1.463-4.893 8.316-11.387 11.947-13.547 9.56-5.688 21.125-9.458 31.518-13.357 0-3.173-3.855-3.306-6.227-3.857-.241-7.869 12.631-5.487 11.517 1.202-.637 3.824-16.24 8.712-19.87 10.395-5.39 2.498-12 6.363-16.913 9.729m-6.41 10.856-.955-.955-.002.958z"/><path d="M590.147 36.955c1.221.542.725 1.864 1.651 2.898 2.394 2.67 8.934 5.555 12.267 8.984 3.527 3.627 11.094 16.005 13.03 20.911 1.611 4.08 1.737 8.646.775 12.949-.274 1.226-2.91 3.753-3.988 4.173-.912.355-.597-.295-.696-.723-2.64-11.455-9.075-25.429-16.817-34.41-2.642-3.065-10.326-9.548-11.618-12.994-.225-.602-.502-1.1-.37-1.785l5.076 1.316zM413.065 119.038c.284-.303-.884-2.575 2.198-.997 2.443 1.251 1.794 2.967 2.892 4.787 1.526 2.529 4.451 6.661 6.222 9.136 1.27 1.773 6.586 7.277 6.365 8.799-.064.442-.503 1.333-.874 1.557-.52.314-1.092.292-1.671.27-3.508-.136-6.187-5.48-8.019-7.866-5.473-7.133-10.037-14.072-17.447-19.028-1.515-1.013-2.36-2.926-5.015-2.422-.714 5.814 4.97 9.107 5.757 14.63l-.984.535c-3.315-.062-2.572-1.507-3.802-3.417-2.672-4.15-6.155-7.689-7.458-12.706-.315-1.212.465-3.042 1.496-3.825.666-.506 3.641-.001 4.536.2 6.497 1.464 10.193 7.31 15.804 10.347M182.255 178.56l-9.756 4.394c-14.608 9.291-.025 28.39 12.613 29.948 4.423.545 7.817-3.544 10.1 4.046-1.272.088-2.915 1.493-4.099 1.423-.862-.052-1.189-1.118-2.135-.934-2.602 5.786 4.703 7.537 8.997 8.036 2.42.281 6.184-.355 8.176.482 1.54.648 1.377 2.479-.428 3.178-4.602 1.782-7.514.107-11.82-1.028-2.762-.728-3.97.024-6.606-2.511-2.902-2.791-1.712-3.712-2.192-6.928-.454-3.04-2.982-2.19-5.109-3.05-.867-.35-5.341-2.662-5.772-3.105-.386-.397-.397-1.262-.862-1.768-5.526-6.011-10.542-11.876-8.75-20.797 1.366-6.793 11.37-11.122 17.643-11.386M804.78 407.658c-7.008 12.124-17.563 25.34-30.838 31.317-1.729.778-7.656 3.128-6.645-.857.617-2.432 8.234-6.02 10.613-7.654 14.384-9.873 26.453-20.93 31.973-38.098 1.475-4.584 2.253-9.456 3.394-14.127.899.286.52 2.84.424 3.546-1.441 10.562-3.805 17.023-8.92 25.873M143.866 96.47c-3.422.553-7.429-.68-10.545 1.685 6.22 6.456 15.948 6.383 24.149 8.474 1.037.45.954 1.777.711 2.731-.997.365-1.937 1.02-3.042 1.072-5.287.25-17.303-3.022-21.948-5.917-.9-.56-6.046-4.991-6.346-5.647-1.22-2.666.503-2.637 1.048-3.482.42-.652.093-1.92.74-2.635.29-.321 4.088-1.763 4.674-1.844 3.717-.508 9.498 1.578 10.56 5.563M481.689 422.4c-.987 2.088-4.348-.17-5.277 1.91 1.7.562 6.427 1.797 6.723 3.6.307 1.867-2.913-.264-3.417-.454-3.301-1.248-6.535-.947-10.246-2.217l-.461.95c-4.253-1.719-9.177-.344-13.433-.955-1.657-.238-2.665-1.306-4.084-1.675-3.589-.934-8.097-2.008-11.67-.677-.607.227-.492 1.138-1.12 1.329-.439.133-1.822-.386-2.576.1.283-2.824-4.215-4.144-3.759-6.5.51-2.633 9.937.449 11.7.696 4.704.66 9.563.896 14.29 1.545 7.722 1.062 15.477 3.28 23.33 2.348m-18.955-.005v.48q.468-.24 0-.48m-24.472.48v.48q.466-.24 0-.48M351.645 346.078c.76.578.007.874-.709.958-4.004.47-7.997.438-12.024.501-22.722.354-44.223-4.754-64.363-15.3-10.789-5.65-18.384-10.584-25.799-20.276-1.95-2.55-3.602-5.362-4.107-8.603l10.786 12.964c19.174 16.84 45.412 28.089 71.006 29.773 8.186.539 16.962-.443 25.21-.017M245.12 274.078c.276 1.523-.586 1.772-1.736 2.342-4.606 2.285-12.554 2.06-17.639 1.434-11.568-1.425-23.694-8.94-31.728-17.222-.392-.404-2.043-2.467-1.678-2.877 5.592 4.32 10.646 9.384 17.157 12.353 7.767 3.541 16.747 5.21 25.298 4.44 1.907-.172 4.732-1.383 6.256-1.362 1.223.016 2.64 1.19 4.07.892M675.554 392.633c-1.025-1.042 3.817-7.09 4.203-8.512 2.28-8.395 1.432-16.745 5.68-25.04.22-.432 1.26-2.158 1.864-1.961.96.313-.089 5.312.197 6.425-2.202 6.578-2.347 13.552-4.26 20.218-1.187 4.134-2.362 9.38-7.684 8.87M736.326 411.667c-9.682 8.313-22.036 15.663-33.897 20.328-.185-1.138.951-1.412 1.665-1.93 5.556-4.026 12.436-6.962 18.166-10.628 7-4.478 13.34-10.281 19.496-15.548 3.403-2.912 6.489-6.418 10.568-8.374.036.52.085.979-.227 1.448-.587.884-4.876 3.941-6.011 5.027-3.265 3.12-6.34 6.741-9.76 9.677M233.485 251.137c.772.826.889 5.157.353 6.134-.699 1.272-6.604 2.896-8.159 2.924-6.536.114-13.724-4.513-18.467-8.442.292-.614 1.326-.053 1.782.138 6.513 2.718 10.462 6.245 18.02 2.396 2.222-1.132 3.551-4.617 6.471-3.15M344.153 145.256c4.848 4.92 6.694 10.464 12.734 13.898 2.168 1.233 1.583 3.449.994 5.48-2.455.188-3.488-2.362-4.844-3.549-4.835-4.23-4.35-3.857-7.611-9.187-1.407-2.299-7.109-5.384-6.202-8.078 2.539-2.321 3.495-.02 4.93 1.436M192.334 81.59c-9.078-1.751-17.812-5.246-27.117-6.23-9.288-.982-34.9-1.801-41.953 4.585-1.377 1.247-1.647 2.637-2.669 4.04-2.276-3.078 3.235-6.535 5.874-7.555 16.414-6.343 46.5-2.299 62.965 3.506.924.325 2.478.703 2.9 1.654M571.42 340.793c.122 1.859.615 3.694.736 5.554.062.94.121 1.838.181 2.821.028.454-1.501 7.01-1.774 7.828-.311.935-5.522 6.892-6.483 7.652-.333.263-2.777 1.617-2.94 1.58-.958-.95-2.187-2.639-1.673-4.02.312-.839 1.371-.55 1.744-.906.288-.275.234-1.134.6-1.542 3.12-3.478 6.422-5.948 8.047-10.69.96-2.802.27-4.961.604-7.563.085-.658.33-1.484.957-.714M306.058 176.638l-.078 1.84c-5.914 2.822-11.225 6.115-16.346 10.173-7.158 5.672-10.934 9.9-15.464 17.764-2.048 3.555-3.622 5.463-3.377 10.058-1.028-.934-.457-4.186-.195-5.47 2.886-14.109 22.532-26.567 33.76-33.911.589-.386.954-.592 1.7-.454M256.152 432.953c-1.63-.479-3.358-.517-5.048-.385-.851.066-1.457.714-2.023.758-1.36.105-7.98.379-8.441.069-.578-.389-.963-.601-.797-1.395.597-.025 1.112-.42 1.714-.445 3.54-.153 6.912-.35 10.56-.123 1.37.086 3.683-1.143 4.035 1.521M272.947 432.96c.093.9-1.069.417-1.623.398-3.967-.142-7.787-.924-11.812-.405l.006-1.436c4.414.223 8.993.211 13.43 1.444M320.456 257.76c-2.283 2.91-4.638 6.995-2.861 10.69.265.55 1.121.076.94.82l-1.615.026c-1.661-2.371-.581-6.473.724-8.834.41-.744 1.774-2.735 2.812-2.702M609.809 433.438c.207.158.478.952-.604.823-1.226-.146-2.031.006-3.23.13.09-.917 3.67-1.078 3.834-.953M316.613 236.155c-1.245-.397-2.067-.488-2.395-1.915.405-.334 2.79.859 2.395 1.915M324.292 254.88c-.284.479-2.975 2.73-3.353 2.393-.82-.733 2.825-2.537 3.353-2.394M258.554 431.52c-.256.954-1.024 1.079-1.919.95.257-.954 1.025-1.079 1.92-.95M185.134 178.553l-2.395-.003v-.47l2.392-.485zM719.701 369.118h1.435v.955h-1.435zM218.242 152.155c-.137.142-2.824-2.201-2.64-2.87.244.604 3.351 2.13 2.64 2.87M147.71 389.28h1.915v.47h-1.915zM435.14 424.318l-.235.955-.722-.953zM311.341 233.76h.955v.47h-.955zM326.212 253.92v.47l-1.427.25.717-.72zM220.171 154.078h.47v.955h-.47zM521.52 0h.955v.47h-.955zM414.991 379.68h.955v.47h-.955zM214.168 148.315q.467.24 0 .48zM121.07 84.485c.266.305.967.625.49.94-.232-.28-.964-.606-.49-.94M414.269 378.235q.466.24 0 .48zM317.907 245.602c-.84.714-2.513.955-3.335 1.58-1.046.794-2.31 3.33-4.183 3.618 1.123-3.31 8.274-7.409 8.18-10.543-.044-1.428-1.335-2.76-.747-4.107l2.976 2.645c-1.364 1.014.21 1.94-.09 2.641-.116.274-2.601 3.996-2.801 4.166M298.623 221.755q.466.24 0 .48zM659.477 352.795q.467.24 0 .48zM597.328 133.436c.522.541 1.447 5.875 2.012 6.89.352.633 1.25.666 1.36 1.133.088.369-.12 2.892-.733 3.014-3.315-1.345-3.998-7.22-3.591-10.328.086-.661.268-1.418.952-.709"/></g></svg>