<?xml version="1.0" encoding="UTF-8"?><!DOCTYPE svg PUBLIC "-//W3C//DTD SVG 1.0//EN" "http://www.w3.org/TR/2001/REC-SVG-20010904/DTD/svg10.dtd" []><svg xmlns="http://www.w3.org/2000/svg" xmlns:xlink="http://www.w3.org/1999/xlink" height="847" viewBox="0 0 517.705 847.235" width="518"><g filter="none"><path d="m195.822 509.722-.96.485c-2.896-1.285-1.238-12.773.548-15.293.954-1.345 2.785-2 3.773-3.425 2.562-3.694.43-5.634.556-9.136.107-2.956 3.44-6.704-.553-9.34-.866 4.31-1.867 8.51-1.447 12.957-1.124.052-1.696.209-2.318-.8-1.75-2.836.997-10.07 1.302-13.416.63-6.894-3.08-13.03-3.305-19.856l-2.391 1.917-.008-3.354c-.734.247-.87 2.418-.95 3.12-.376 3.252-1.045 12.442.605 14.984.207.318 1.12.458 1.537 1.091.794 1.21 1.198 2.7 2.172 3.831-1.25.959-1.545-1.889-2.16-.476-1.89 4.345-2.272 10.412-4.34 14.853-.306 1.113-.14 2.295-.432 3.408-.447 1.706-2.119 8.859-2.65 9.715-.25.4-3.62 1.537-3.85 1.295-.366-3.253 1.623-6.139 2.284-8.989.233-1.004 0-2.114.234-3.124.898-3.881 2.18-11.485 3.47-14.766.857-2.184 2.963-2.196 3.112-2.412 1.468-2.132-4.888-2.749-5.51-3.812-.079-1.9-.906-3.732-1.143-5.575-1.036-8.055 1.737-13.54 3.175-21.196 1.55-8.248 3.067-16.343 4.718-24.554 2.979-14.816 2.494-31.767 6.426-45.878.183-.657.063-1.488.979-1.655-.01 1.833.037 3.677.002 5.514-.054 2.818-.237 8.317-.963 10.957-.147.534-1.163.18-.952.562 1.494.504 2.195 3.354 2.359 4.84.403 3.668-2.436 12.131-3.18 16.417-1.322 7.619-2.186 13.549-1.215 21.09.9 6.996-.294 12.443.12 19.073.158 2.517 1.597 12.286 2.633 14.162.12.217.553.604.715.478.855-1.796.526-6.2 2.405-6.962l.959.492c-.166 4.621-2.913 9.612.059 13.626l1.856-.439c-.43 1.867 1.306 2.375 1.484 4.066.373 3.552-1.675 7.342-1.712 10.777-.01.822.554 1.298.564 1.763.023 1.18-.536 2.429-.374 3.804.125 1.06 1.745 1.027 2.228 2.6 1.883 6.13-.858 11.719-1.647 17.6-.277 2.069-.32 10.136-.98 11.015-.415.55-1.597.657-1.88 1.48-.72 2.097.722 10.53.877 13.363.378 6.877.3 14.27.97 21.104 1.262 12.898 4.352 25.923 5.265 38.882.12 1.719-.587 8.166-.446 8.572.176.506 2.405 1.149 2.847 2.217.319-2.049 1.085-3.993 1.388-6.055 2.419-16.488-2.89-27.189-3.777-42.656-.456-7.94 1.96-19.821-.593-26.759-1.08-2.936-4.385-6.105-.856-8.986-1.099 4.561 2.596 8.664 2.855 12.787.51 8.086-.84 16.632.033 25.357 1.05 10.477 5.197 22.254 5.302 32.62.154 15.166-7.414 30.324-11.458 44.73-1.37 2.734-10.098 9.638-13.028 10.962-5.346 2.417-6.148-.529-10.936-1.093-3.559-.42-5.457 3.51-8.309 5.358-1.583 1.026-2.982 1.246-4.241 1.996-1.614.962-2.791 3.178-4.86 4.257-2.636 1.376-10.347 2.089-12.584.292-1.207-.97-3.691-10.548-5.619-8.663l.004 1.091-.957.347-2.025-4.694c-5.502.584-7.988-1.453-10.704-5.856l-1.413 1.391c-6.47-1.779-2.607-9.616 3.097-9.55.115 1.891-1.996.934-2.803 2.227-.435.695-1.278 3.912-.519 4.46l5.243-.45c-.656 2.188.059 4.604 1.715 6.197 1.841 1.77 2.768.288 4.722.519 1.867.22 5.257 3.188 7.986 2.61.95 3.771-.527 7.205 3.565 9.75 2.774-2.094 7.564-3.351 6.767-7.587-1.015-.336-4.859-1.684-4.601-3.086.642-1.016.97-.404 1.732-.329 1.682.167 5.038 1.16 6.426.325.996-.599 2.937-7.422 5.036-8.399.7 1.514-3.86 8.703-.48 8.657.625-.009 4.685-3.579 5.286-4.33 1.226-1.535 3.119-7.003 5.3-5.323 2.776 2.14.179 5.6.913 6.76 2.759.88 5.702-1.104 8.314-1.793 2.798-.738 5.76-.164 8.242-2.773l-6.447.736c-2.28-.027-5.065.255-7.008-1.185-1.977-1.467-2.655-4.716-.305-2.556 2.258 2.075 2.213 2.499 5.789 2.229 3.428-.259 4.774-2.325 6.906-2.74.971-.19 1.849.293 2.536.115.716-.186 1.934-1.704 2.838-1.914.786-.183 1.54.371 2.099.217.957-.264 3.213-5.047 2.712-5.7l-6.709 2.878 4.991-6.28c4.045-4.766 3.097-10.196 3.642-15.788l-1.923-.001c-.375-3.834 1.188-7.487 1.462-11.261 1.558-21.452-5.04-44.39-5.314-66.263-.03-2.347 1.34-9.462.255-11.251-.281-.465-2.057-1.37-2.844-2.434-.825-1.115-1.483-3.64-2.408-4.34-.608-.46-1.61.39-2.173-.666.848-2.366 2.428-1.259 3.277-1.754.225-.131 1.627-3.815 2.263-4.694 1.918-2.65 4.26-1.762 2.477-5.9-.415-.962-1.22-1.382-1.662-2.655-.603-1.733-.625-4.042-.608-5.874-1.331-1.31-2.877 3.269-2.877 4.08zm-3.358-72.22v-6.718l-.983 4.538c.159 1.005-.598 2.526.983 2.18m-.956 7.678c1.906-1.09.217-4.397.47-6.238-1.838 1.165.458 4.314-.47 6.238m11.028 44.625-.235-.955-.722.953zm1.435 11.518c.843-2.452 1.964-4.959-1.43-5.755.335 1.642.283 3.445.481 5.04.083.663.25 1.42.95.715m-1.438 8.64c-1.538-1.057-4.154 4.184-4.288 5.575-.246 2.547 1.254 3.589 2.614 5.451 1.108.045 2.372-10.546 1.674-11.026m-36.457 139.644c-.865-.433-4.07 1.754-3.356 2.392 1.577.218 2.608-1.283 3.356-2.392M30.677 435.969c-.171.265-1.067.221-1.238.852-.091.336.327.977.207 1.313-.37 1.035-1.427 2.189-1.291 3.383.022.19.852.37 1.241 1.229.622 1.371.802 2.862.704 4.356 7.901-1.644 5.383 2.3 6.565 7.106.207.841 3.6 7.345 3.981 7.535l23.514-.732c-.817-1.418-3.243-.637-4.381-.756-3.121-.326-7.037-.64-10.013-1.395-1.041-.264-6.454-1.939-5.27-3.603 2.738.558 7.186 1.911 9.836 1.959 3.53.062 8.324-.821 11.97-1.019 7.054-.382 2.443 3.898-1.657 3.864l1.916.48c-.638 2.506-10.09 2.698-10.065 3.594 1.889 1.48 3.383 2.427 5.775 2.884l-.024 1.641c.669.981 17.174.804 18.514-.906-.565-1.73-.314-13.423 1.392-13.448 3.372 2.006 4.047 3.012 3.626 7.164 2.024.369 4.897 1.102 4.767-1.894l-1.43.96c.85-2.86-1.535-2.784-1.44-4.802l.95.487 1.855-5.436-1.618-.814-.718 4.803c-.897.073-.462-1.553-.41-2.092.066-.685.733-4.468.92-4.609.64.316 1.409.433 2.042.031.892-.566.705-2.62 1.768-2.922l-.958 11.517c-2.008.317.326-1.594-1.199-2.4-.734 1.066-1.27 2.9.003 3.83l1.194-.952c-1.248 2.502-.009 2.88.367 5.19.34 2.096-.286 4.23-2.555 4.867-1.059.297-.236-1.437-1.644-.936 1.637 3.874-6.768 3.968-7.256 4.614-.99 2.62 2.458 8.302 1.255 10.257-.258.42-1.548.968-2.169 1.668-.578.654-.887 2.091-1.419 2.425-1.51.947-3.223-.716-4.49-.609-.22.019-3.872 1.412-4.126 1.58-3.58 2.367 3.903 6.551 4.261 7.713.383 1.242-1.444 2.438-2.54 2.503-2.163-.76-1.553-2.943-2.185-4-.87-1.454-3.036-1.984-3.149-2.144-.425-.603-.362-1.554-.696-2.097-.687-1.116-11.968-.893-14.612-1.338-2.154-.363-4.941-1.743-6.842-1.835-4.254-.207-8.953 2.796-12.917-1.454 1.302-3.257 2.02-9.789.485-12.943-.495-1.017-2.283-1.545-2.132-2.902 2.646.212 4.889-.037 7.111-1.53l-4.466-15.276c-.556-1.013-1.38.447-1.56.856-1.78 4.04-3.303 10.365-1.572 14.508-.823-.51-1.806-1.402-2.394-2.16-3.196-4.118-3.45-13.535-2.843-18.682.2-1.69.635-5.226.931-6.742.216-1.1 1.32-1.538 1.392-1.99.09-.564-.836-1.092-.88-1.827-.274-4.531.981-8.195 1.247-12.088 1.206-17.622-2.11-37.134-1.308-54.667.124-2.718 1.452-6.506 1.443-8.687-.004-1.076-.824-1.634-.972-2.786-.475-3.682.975-9.341.939-12.923-.019-1.863-.954-4.278-.951-6.289.003-2.065 1.076-3.128.985-5.028l-1.454-.275.037-25.648c.809.003.912 1.596.957 2.154 1.18 14.721.056 29.938 1.922 44.625.546 4.298 1.253 4.002 2.626 6.97 1.694 3.66-.823 36.121.226 43.922.19 1.412 1.194 2.32 1.419 3.859 1.097 7.514-1.706 15.857-1.885 23.011-.032 1.284.774 4.32.386 4.926m41.947 37.887c-.48-.278-.676-1.45-2.5-2.049-.922-.303-10.38-2.055-11.255-2.093-2.247-.096-3.616 2.028-5.83 2.3-3.1.379-6.497-1.521-8.558-1.39-1.552.098-2.44 1.924-3.304 1.842-.912-.085-5.448-4.006-6.078-3.29.206 1.955-.086 4.898.217 6.735.487 2.954 2.196 4.206.702 7.358 2.435 1.696 5.512.326 8.183.29-.784-4.287 5.107-3.62 7.45-6.226l.24 1.44 11.748-1c1.306-.566 5.474 2.021 4.56 3.39-2.7 1.287-5.654-.757-8.386-.491-.912.089-.789-.08-.728.976 4.181.11 8.33 1.404 12.37.134 4.96-1.56 3.965-3.055 3.945-7.812-.822-.117-2.094.283-2.776-.114m-17.86 10.68c-.09-.094-2.25-1.116-2.393-.964-.146 1.42 1.146 1.582 2.394 1.432-.026-.155.066-.399-.002-.469m6.237-.48-2.393-.484v.954l2.394-.002zM457.781 459.576c.101-.134.377-.438.48-.48-.178.208-.353.337-.48.48"/><path d="M458.26 459.096c2.35-2.745 6.932-9.365 8.244-12.63 1.464-3.643 1.57-7.074 2.31-10.88-2.57.165-3.77 3.126-5.326 4.505-.811.72-5.331 4.683-5.677 4.834-.48.209-1.11-.437-2.202.21-.729.432-8.573 9.02-9.338 8.203l1.431-2.166-.958-1.671c2.91.363 4.013-3.569 5.764-5.517 2.482-2.76 8.075-6.518 9.224-9.968.37-1.114.486-2.065.365-3.232-2.347-.998-4.675 4.035-5.033.482-1.332 2.48-3.516 2.33-5.968 3.15l-18.26 27.322 1.911-.242-1.43 3.608c-.418.463-.743-.533-1.2-.563-.344-.023-4.115 2.136-5.522 1.268.848-2.31 3.6-2.848 5.297-4.534 1.144-1.137 3.468-4.54 4.506-6.05 4.18-6.084 7.832-13.131 11.77-19.423.928-2.293-3.026-.146-3.488.229-.862.7-.688 2.692-2.017 3.381l.243-1.907c-.555.007-1.128-.065-1.685-.013-.584.055-5.12 1.933-5.855 2.304-2.686 1.356-6.073 5.986-9.245 7.303-.164-.94.114-1.288.704-1.93 1.223-1.33 9.377-6.83 9.357-7.427l-2.871-2.869c1.54-.815 5.725-3.828 7.2-2.908 1.162 1.115.919 2.226.48 3.614l3.093.038.322-1.387c.785-.185 1.38.004 2.096-.567 1.484-1.182 6.177-6.425 7.688-8.15 3.365-3.844 8.87-10.562 9.34-15.624.105-1.134-.797-1.948-.27-3.6.058-.184 1.85-3.172 1.98-3.314.75-.818 2.5-.389 2.143-2.426 2.5 1.082 5.732 4.912 6.157 7.56.174 1.087-.53 1.916-.218 3.01.671 2.354 3.788 2.126 4.379 3.34 1.155 2.375.45 7.808-.175 10.401-2.88 11.953-4.107 20.493-9.585 32.161-6.142 13.083-15.973 25.286-26.713 34.705-.673.59-4.383 3.854-4.502 4.135-.96 2.249 3.175-.178 3.743-.575 3.252-2.273 6.378-6.944 9.878-9.315.356-.076.327.501.233.71-.138.311-4.003 4.51-4.556 5.043-6.634 6.397-23.026 19.513-32.148 20.147-3.149.219-6.251-.667-9.53-.048l-2.216-5.219c1.548.133 3.471 1.108 4.995.955.423-.042 7.344-2.95 7.819-3.253 1.392-.887 1.533-1.911 2.552-2.724.683-.545 2.555-1.033 2.757-1.325.286-.414.117-1.508.453-2.176.517-1.028 6.15-2.709 7.97-4.033 1.68-1.222 3.079-3.994 3.517-4.28.76-.497 2.472-.344 2.559-.44.115-.128-.18-2.702 1.434-2.88.006.767-.038 1.963-.43 2.601-.327.534-.949.212-1.004.279-2.84 3.396-2.028 4.221-3.503 7.545-.072.163-2.168 1.926-2.252 2.775.296.616 1.32.046 1.779-.141 1.631-.668 12.216-9.995 14.063-11.847 8.189-8.206 20.002-24.546 23.49-35.531.078-.245.132-.783-.23-.708-2.248 1.758-3.374 4.897-5.04 6.955-2.516 3.106-4.513 4.628-7.658 6.737-.923.62-1.922 2.642-2.894 1.904l1.436-2.158c-1.079-.839-5.9 6.208-6.962 7.184 1.904-5.4 7.201-8.407 10.8-12.467-.125.166-.192 1.057-.48 1.435.496.393 2.023-.906 1.924-1.67.04-.399-.765-.325-.964-.245m9.596-47.502c-.6-.32-1.672.768-1.439.95.601.32 1.672-.767 1.44-.95m-4.557.955v.48q.466-.24 0-.48m-1.202 7.2c-.509-.573-3.86 3.093-4.302 3.611-2.293 2.693-3.792 5.96-5.771 8.859.968.769 7.75-4.794 8.633-5.996 1.58-2.155 1.621-3.846 1.44-6.473m-13.909 13.912c2.357-.403 3.604-2.666 4.08-4.787-.433.997-5.086 3.692-4.08 4.787m8.631 28.317c-.451-.435-2.228 1.032-1.914 1.914.451.435 2.228-1.032 1.914-1.914M208.299 318.973l2.62-.955c2.872.747-2.058 8.867-2.126 9.855-.1 1.45.883 3.981.961 5.72.236 5.267-.231 10.603-.038 15.874.108 2.965.928 6.204.502 9.335 1.296.22.83-.235 1.087-1.044 1.997-6.248 3.505-12.774 5.493-19.002.645-2.023 2.58-6.56 3.962-8.034.706-.755 3.544-2.143 3.342-.506-.144 1.16-.461 2.934-.755 4.053-.629 2.402-3.825 10.053-3.558 11.806.283 1.859 1.564.706 2.69 1.163 1.895.772 3.546 4.419 5.627 3.823.665-.19 1.134-1.174 1.833-1.558 3.847-2.114 2.713-.623 5.593 1.016 9.674 5.506 23.346 11.527 33.927 15.013 2.714.894 9.557 3.37 12.023 3.369.797 0 1.167-.05 1.65-.739l-1.43-2.155c4.144-1.019 5.118 1.623 8.161 3.11 19.095 9.325 43.209.874 61.49-6.63 2.156-.885 5.013-2.057 6.634-3.678l-27.595 4.306c-2.252-.079-4.116-.028-6.344.383-.928.17-.577-.039-.607-.852l29.363-4.467 2.784-1.29c-8.415-.09-16.628 2.167-24.83 3.714-2.79.526-5.927.513-8.758 1.565l.483 1.43c-2.53-1.04-3.653-.856-6.234.007l-1.2-1.444.718 1.437c-1.872.357-3.543-1.05-5.092-1.38-5.716-1.22-14.195-1.8-20.092-1.49-3.449.182-6.985.629-10.318 1.433-1.609-1.434 5.928-2.804 6.482-2.87 11.395-1.362 23.194 1.808 34.53.945 9.429-.718 21.64-4.953 30.287-5.22 5.396-.165 9.612.06 15.188-1.122.366-.077 5.456-2.561 4.664-.615-1.893 1.264-3.88 3.197-5.806 4.272-2.951 1.648-6.596 2.36-9.668 3.766-7.709 3.528-14.411 7.748-22.696 9.932-9.51 2.506-16.323 3.013-25.882 3.82-1.009.085-1.662.92-2.307.91-1.092-.018-2.873-1.949-2.731.09l-.708.014-.318-.838c-3.855-.622-6.54-2.948-10.854-3.831-6.398-1.31-13.587.002-19.063-3.412l-1.665 1.36c-.024-1.667-1.642-1.36-2.616-1.966-.602-.374-.693-1.254-.81-1.332-.148-.098-1.015.483-1.593.419-4.176-.464-8.047-2.888-11.775-4.568-.871-.393-2.255-.143-3.103-.74-.783-.552-.503-1.514-1.09-1.898-1.054-.69-3.96-1.247-5.266-1.818-1.257-.549-3.758-2.791-5.084-2.432-.63.17-.943 1.15-2.024 1.37-2.08.42-4.41-.367-6.471-.47.567 1.346.086 2.461-1.583 2.344-1.939-1.219-2.452-2.595-1.777-4.743l-2.313.42-6.063-5.221c-.766.185-3.678 6.318-4.104 7.43-2.797 7.309-2.982 19.476-4.062 27.612-1.343 10.124-1.541 20.544-3.346 30.24-.543 2.915-.508 7.069-3.15 8.473-.896 8.842-.568 19.008-1.966 27.68-.242 1.498-.402 3.88-1.857 4.615.215-3.146 1.15-6.219 1.43-9.362.69-7.74.954-15.665 1.722-23.337 2.864-28.61 8.593-62.425 5.483-90.87-.181-1.656-1.193-3.309-1.273-4.863-.11-2.137.877-4.783 1.265-6.89-2.472 1.094-3.568 6.036-5.476 7.235-.992.624-1.842.299-2.799.56-.639.176-1.85 1.826-1.792.13 2.44-2.716 5.303-5.97 7.394-8.923 3.108-4.39 6.959-10.13 9.783-14.688 1.928-3.111 2.955-6.504 5.131-9.264.368-.07.29.44.243.72-.259 1.544-2.713 6.293-3.595 7.924-.937 1.734-9.707 15-8.882 15.824m49.894 44.145c.233-.182-.838-1.27-1.439-.95-.233.183.838 1.27 1.439.95M410.76 100.635l-.399-6.401.375-.581 1.457-.21c.422 1.32.744 2.959 1.312 4.194 1.033 2.249 1.797 4.366 2.832 6.783 4.41 10.305 15.313 19.072 21.684 28.697 2.153 3.251 5.485 8.232 4.404 12.144l1.399.027c.14.824-.099 1.68.155 2.503 2.293 7.454 6.162 15.016 8.19 22.522 2.123 7.865 1.71 20.67.752 28.874-1.056 9.049-5.058 21.295-9.595 29.273-1.175 2.066-4.268 2.542-4.967 4.15-.532 1.223.009 2.493-.506 3.812-.333.854-2.213 2.493-2.828 3.41-.449.667-4.721 7.95-5.066 7.642l-.244-.97-24.457 25.938c-5.108 3.707-10.066 8.726-15.597 11.752-6.364 3.481-20.03 6.875-27.139 6.493-4.274-.23-8.287-1.457-11.558-4.245l-5.928 1.82c-.916-.852 4.61-3.661 5.214-3.893l-1.311-2.658.4-1.376 8.166-1.43-4.376 1.893-.716 4.116c1.286 4.218 11.851 4.095 15.402 3.823 1.946-.15 4.016-.937 6.007-.956.491-1.787-1.196-.962-.96-2.39 2.201-1.169 4.271.179 6.345-.097 13.41-1.784 33.194-23.603 42.361-33.489 4.673-5.038 9.172-13.09 12.45-18.73 13.95-24.01 14.626-65.923 3.217-91.014-5.8-12.756-12.1-18.617-20.48-28.941-6.33-7.8-8.42-13.043-17.544-18.923-8.624-5.559-17.896-7.453-27.3-11.075 1.602-2.283 2.572-.563 4.316-.007 16.827 5.357 19.082 6.219 33.094 16.805.48.361.602.936 1.44.715m30.226 40.789c1.099-1.31-3.196-7.924-4.79-8.636.998 2.28 2.048 5.403 3.333 7.459.394.63.389 1.399 1.457 1.177m6.96 20.636v.48q.466-.24 0-.48m-4.566 59.981c-.002-1.711 2.074-3.326 2.332-4.67.244-1.276-.49-2.236-.313-3.135.204-1.035 2.974-4.952 3.613-6.962 2.783-8.746 4.032-27.34 1.923-36.208-.539-2.266-2.329-4.634-2.275-7.084-.836-.112-.45 1.09-.474 1.672-.381 9.441 1.257 18.716-1.836 27.837 1.325 6.351-.088 14.799-1.66 20.977-.557 2.19-2.13 4.881-2.268 7.33zM466.897 394.79c-5.38-1.13-11.205-3.493-16.826-2.188-3.546.823-9.867 6.485-13.858 7.737-1.715.537-2.941-.425-4.195.077-1.048.418-5.42 3.728-7.289 4.77-.815.454-1.946 2.483-3.888 1.367 3.028-5.624 9.796-7.461 14.39-11.274-1.047-.77-9.914 4.545-11.485 5.543-5.925 3.766-11.514 8.306-17.072 12.676-1.249.982-3.476 1.848-4.34 2.857-.902 1.05-1.16 2.77-2.129 4.11-2.23 3.083-6.202 5.992-8.745 9.488-10.765 14.808-16.085 29.419-21.349 46.788-.642 2.118-3.252 10.404-1.248 11.664 1.473.927 4.67.732 6.395 1.408-.455 1.417-2.764.752-3.398 1.75-.264.416-1.241 4.033-1.359 4.762-.084.518.35 6-.994 4.52-.904-3.147-1.508-6.536-1.08-9.78l-5.614-9.683c-.379-4.637.366-9.218 1.645-13.655 1.272-4.41 3.526-11.276 7.663-13.45l18.009-29.729c-.51-.524-2.943 2.177-3.369 2.624-8.551 8.992-18.499 20.28-24.538 31.122-3.186 5.72-5.333 12.174-8.796 17.595-.289-1.981.546-4.503 1.182-6.495 4.293-13.446 14.304-27.005 23.776-37.184 6.07-6.522 19.773-22.111 27.257-25.502 1.874-.85 3.781-.628 5.303-1.414.854-.442 1.585-1.65 2.539-2.26 4.53-2.896 10.081-5.476 14.326-8.225.716-.465 1.54-1.948 2.154-2.191.725-.287 1.395.338 2.053.183.667-.156 1.156-1.272 1.524-1.262.243.006.765.775 1.464.85 4.351.47 8.353-2.093 12.937-1.907.816.033 1.592.431 2.408.468 5.345.244 12.613-.281 16.547 3.84M259.637 115.993l5.995-4.796c.533.14.219 1.095.007 1.446-1.075 1.772-8.366 5.77-10.348 7.405-4.215 3.467-.982 7.019-.098 11.182 1.307 6.154 1.667 13.475 2.636 19.917.548 3.637.441 4.191.462 7.794.012 2.123 1.444 3.67-.105 5.996-1.474.35-.705-.992-1.415-1.681-.654-.636-2.605-.572-2.83-1.47.945-3.918 1.217-7.935.887-11.96-.343-4.174-.854-10.288-1.485-14.346-.309-1.98-1.383-3.58-1.39-5.569l-2.873 1.916c.062-1.119.054-2.538-1.44-2.396 1.023 2.328-.897 2.873-1.007 4.549-.093 1.42.808 3.363.946 4.865 1.769 19.255 4.362 38.705 5.332 58.01.218 4.34.01 10.564-.46 14.886-.206 1.885-1.62 3.709-.97 5.98l1.873-5.076c.704-11.297 2.595-22.251 2.94-33.53.09-2.957-.11-5.94-.015-8.895.687.074.824 2.113.897 2.695 1.428 11.361 1.296 23.531 1.517 34.952.08 4.188-1.023 8.194-1.016 11.539.004 2.003 1.224 3.17 1.38 4.424.28 2.265-.723 6.6-.41 9.036.471 3.643 1.533 3.812.263 8.369-1.677 6.017-4.228 13.67-4.507 19.889-.038.84 1.292 3.173-.776 3.166-1.312-.005-2.623-3.876-2.632-5.05-.03-3.981 2.482-10.784 3.218-15.025.558-3.21 1.25-7.231 1.574-10.423.656-6.474.444-12.97.005-19.424-1.255-.11-.795-.064-.942.72-.763 4.09-1.295 8.25-2.064 12.344-.295 1.567-1.665 5.225-1.688 6.453-.012.61.781 1.297.897 2.299.506 4.38-3.277 4.395-4.985 7.78-2.49 2.213-4.77-.575-7.093-1.962-.939-.56-2.141-.557-3.089-1.23-1.805-1.28-3.648-5.74-3.625-7.94.017-1.573.934-2.388 1.003-3.387.071-1.046-.828-2.045-.976-3.308-.246-2.09.032-4.6.467-6.665 6.636-2.806 3.46 4.605 4.823 8.526-.208 2.231-2.66 2.043-1.69 5.577.279 1.015 2.78 4.445 3.786 4.27l3.977-4.24c1.484-.43 4.201 2.696 4.495-1.75.158-2.403-1.049-1.504-1.375-2.43-.787-2.23.685-3.67.858-5.249 3.033-27.69 1.85-53.45-1.94-81.022-.279-2.024-1.686-5.652-1.754-7.328-.04-1.029 1.264-2.67 1.345-4.256.101-2-.959-4.295-.498-6.457l1.41 3.621 1.49.001c1.748-1.822.078-8.254 1.992-9.281 1.728-.927 3.32 1.159 2.522-3.93 4.889-5.518 10.28-10.545 15.132-16.085 3.24-3.698 2.353-2.28 6.556-4.48 2.727-1.426 6.174-5.785 8.786-3.679-7.878 5.421-16.963 11.89-22.074 20.14-.858 1.386-2.08 2.883-1.9 4.573M230.698 155.7c-.043.099-.66.12-.772.49-1.25 4.158-1.077 9.463-.977 13.807.467 20.28-.18 42.004-4.483 62.22-.873 4.1-2.953 7.96-2.806 12.306l-5.24.81c-1.419-.256-4.922-3.797-5.986-5.034-1.173-1.362-.817-3.359-3.58-2.903v-1.434l2.883-.488c-1.423-2.548-.46-4.167-.46-6.454 0-6.616-.302-13.64-.041-20.193.192-4.815 1.494-10.71 1.465-15.343-.008-1.355-.952-2.463-.969-3.822-.027-2.289 1.088-4.658.953-7.682-.283-6.375-3.367-11.47-2.807-17.699.303-3.366 1.794-6.759 3.064-9.891 1.205-2.97 2.847-6.653 4.798-9.12 1.156-.227.735.93.661 1.62-.218 2.055-1.165 4.138-1.863 6.052.088.106 2.157-1.48 2.243-1.587.668-.827.63-2.393 1.586-2.728l-.925 6.9 2.816 1.555c-1.19 6.562-3.541 13.181-4.631 19.748-.961 5.79-1.644 10.422.832 15.945l2.39-.481c.274.933-1.025 1.307-.899 2.076.067.403.994 1.186 1.257 2.126.77 2.753 2.045 9.83-2.683 7.24l.408-4.242c-2.29.005-1.19 2.943-1.442 4.552-.313 2.007-1.2 3.901-.96 5.999l-3.77-.411c-1.071.674-.461 21.042-.339 23.97l6.04 5.948c1.05.538 2.544.374 3.1-.724.424-3.577 2.832-6.955 3.563-10.353 1.323-6.154 1.41-15.502 1.919-22.078 1.717-22.176 2.222-46.715.04-69.045-1.186-12.146-4.362-24.916-5.266-36.96-.125-1.666.066-3.367-.001-5.03.74.109.763 2.05.877 2.714 1.316 7.716 2.326 21.453 5.811 28.258 1.547 3.02 3.677 2.289 2.871 7.147-.199 1.202-1.084 1.997-1.299 3.01-.384 1.809.485 14.113 1.216 15.847.497 1.179 2.164 1.621 1.406 3.362m-17.61 9.236c.67-1.558 1.118-3.201 1.685-4.795 1.044-2.94.5-1.94.808-4.458.13-1.063 1.677-2.306 1.346-3.7-3.084 2.706-3.98 6.882-4.304 10.807-.043.524-.387 2.23.465 2.146M69.078 55.134c1.785 2.403-.757 4.508 2.472 5.914l-1.909 1.673c6.209 1.726 12.138 5.572 15.598 11.04l.236-2.393c1.31-1.23 5.488 4.947 5.726 6.505.373 2.44 1.255 15.37.629 16.886-.58 1.401-3.05 2.727-.84 4.909l1.195-3.347c-.03 1.664.082 3.343-.018 5.01-.045.74-.78 1.466-.755 1.934.029.549 1.103 1.325.795 2.89l-1.457.242c-.27 1.34.488.938 1.44.96-.174 2.56-.978 5.928-1 8.396-.079 8.91.531 17.305-.494 26.338-.106.933-.351 2.773-1.38 3.174.181-8.744-.24-17.467-2.064-26.013l-1.294-3.257c-.308 2.216.533 4.293.508 6.482-.07 6.392-.967 12.81-1.01 19.21-.072 10.684-1.616 21.642-1.952 32.61-.06 1.983.702 3.954.045 5.996l-1.394-5.561c-.363-7.84.413-15.635.913-23.475.195-3.056-.381-7.905.038-10.523.19-1.186 1.274-2.284 1.337-2.996.08-.903-1.273-1.206-1.335-2.273-.034-.601.46-1.542.47-2.418.067-5.965-.126-12.851.46-18.729.292-2.923 1.926-6.01 1.932-9.1.004-2.464-.921-6.086-.997-8.64-.248-8.39 1.629-15.77-4.052-22.819-3.271-4.058-8.215-7.462-13.48-8.137-1.295-.167-2.372.417-3.26.327-2.613-.263-1.254-2.088-5.515-.04-4.662 2.243-9.335 6.749-11.66 11.37-.55 1.093-.877 2.358-1.375 3.483l.932 1.322c-5.558 8.072-4.539 17.484-8.114 26.23-1.259.938-2.184-4.778-2.228-5.586-.55-10.131 7.52-26.82 14.925-33.784 2.386-2.244 5.786-3.993 8.417-5.978-.362-.697-1.24.033-1.696.223-3.623 1.514-8.644 3.975-11.245 6.988-1.268 1.468-2.62 4.192-3.62 5.977-2.766 4.935-4.825 10.237-7.189 15.364-2.07-5.361 2.548-13.413 5.608-17.905 3.635-5.333 13.96-14.273 20.069-16.398 1.612-.561 3.283-.869 5.006-.692l.299-1.412zm-9.036 4.72h-.954v.47h.954zm3.84 1.92-1.916-.003v.955c.895.124 1.66.001 1.917-.953M168.956 485.005c5.197.838 3.722-8.193 5.522-8.632.543-.133 2.49 2.954 2.552 3.213.55 2.278-2.298 5.756-2.671 8.186-.41 2.67.696 5.154.357 7.057-.203 1.14-1.403 1.36-1.49 2.889-.034.58.479 6.81.597 7.15.227.647 1.136.651 1.267.86 1.173 1.881-3.377 4.69-4.118 6.012-.204.364-1.508 3.95-1.527 4.248-.043.677.62 1.904.466 2.111-.195.263-3.16.828-3.828 3.15l1.91 1.667-4.7.102c-5.014 7.18-6.374 16.039-10.177 23.89-.93.107-.26-.873-.133-1.331.705-2.551 2.446-4.592 2.053-7.303-4.1 3.975-7.593 10.432-9.244 15.938-.905 3.02-.642 5.207.85 8.053l5.044-13.667c.648-.787.516.529.44.91-.43 2.16-1.722 4.204-2.248 6.395-1.077 4.485-1.121 8.903-1.534 13.3-.343 3.655-1.062 7.298-1.045 10.993l-2.84 1.09-6.208 32.804c2.838-1.018 6.7-.479 9.253-1.058 1.77-.402 1.93-2.452 4.051-1.462 2.014.94-1.516 3.52-2.717 3.74-.853.155-2.622-1.587-4.52-1.532-2.025.059-6.382 1.597-6.59 3.907-.532 5.922 5.726 4.364 9.156 2.65-1.418 2.041-4.799 3.19-7.197 2.63-.89.209 1.585 5.448-.233 4.56-1.074-.971-1.238-2.543-2.158-3.602-1.723-1.983-4.072-1.442-3.875-5.268.154-2.996 2.965-3.334 3.313-4.398.779-2.387.533-8.134 1.177-11.3.26-1.278 1.78-4.977 1.76-5.424-.03-.681-.854-1.2-.937-1.933-.327-2.88 5.295-16.533 4.315-17.5l-2.404.005c.48-2.128-.474-4.604-.477-6.48-.006-3.807.14-10.582.603-14.273.154-1.235 2.492-9.992 2.977-10.459.665-.64 3.04-.487 4.424-2.05.326-.367 1.6-2.787.392-2.72-.381.02-1.374 1.97-2.15 1.674 1.191-1.436 2.018-3.602 3.816-4.337 1.563-.64 3.055.068 3.823-2.42-.377-2.302-1.03.27-1.176.278-.676.033-.896.106-.673-.675.419-1.466 2.273-3.297 2.564-4.108.196-.547-.293-1.47-.022-2.43 1.974-6.982 4.294-10.818 5.787-18.726.294-1.554 1.5-3.896 1.565-5.091.104-1.905-2.382-3.959-.815-6.401.975-.714 2.331 2.83 2.42 3.581l-1.46 12.732c1.21-1.056 3.793-5.209 4.118-6.694.393-1.801-.4-2.666-.281-4.057.21-2.48 2.875-2.97 2.375-6.253-.156-1.028-3.12-5.878-3.896-7.152-.56-.916-1.556-1.46-2.06-2.258-2.255-3.574-.813-7.766 1.168-11.138.296-.503 1.185-.614 1.573-1.423.69-1.435.43-3.967 1.364-5.364.882-1.32 4.918-2.487 5.501-3.653.475-.95-.982-3.269.683-3.831-.406 1.325 1.079 2.408.883 3.458-.656 3.502-4.48 4.852-5.081 8.412-.255 1.51-.22 3.594-.092 5.136.097 1.188 1.374 2.063.458 3.622m-2.89 4.322c-.448-1.068 1.378-2.89 1.376-3.123-.003-.301-1.072-.851-1.275-1.53-.39-1.298.504-2.955-.811-3.974-2.17 2.502-.82 5.732-.718 8.631zm5.762-1.441v-.955h-.47v.955zm-.023.988-1.889-.026c-.117 1.063-.064 1.737.455 2.66.193.344 1.697 2.398 2.42 2.136zm-10.052 23.485v-.955h-.47v.955zm-24.467 107.97-1.196-3.348c-1.527 1.113-.552 3.349 1.196 3.347M42.283 632.807l.965-1.44c.7 4.018-1.559 7.215-2.27 10.921-1.294 6.735-1.016 14.943-2.07 21.444-1.224 7.549.191 6.44 1.817 13.111 2.401 9.852 2.35 17.43-1.849 26.705-.247.546-1.16.524-1.368 1.127-1.552 4.514-.529 8.706-1.095 13.185-.098.778-1.26 6.228-2.747 5.159-.086-3.234-4.573-.657-5.25-2.707-.44-1.327 2.233-11.08 1.924-13.854-.178-1.589-1.976-.429-2.438-1.666 3.256.01 2.782-3.464 1.44-5.527-2.255-3.464-6.845-4.328-5.283-10.312-2.304-.37-4.124 2.595-3.851 4.53.273 1.942 4.041 3.528 4.604 4.591.398.752-.405 2.345-.077 3.858.34 1.566 1.437 2.128 2.205 3.33-4.486-.017-4.145-4.775-5.836-7.355-1.316-2.008-3.4-1.762-3.304-4.859.136-4.412 3.714-5.095 5.782-7.696 1.2-1.51 2.7-5.81 4.656-6.38 2.089-.608 3.902.504 4.74-2.98.47-1.948-2.353-4.913-.763-7.672-1.367-.253-1.273 1.507-2.233 1.837-1.152.395-2.895.104-3.997-.4-.14 2.315-4.178 10.762-6.008 11.512-.902.37-.798-.565-.689-1.167 1.094-6.038 5.774-10.903 9.563-15.392l.971.017c.3 1.252-.198 1.645 1.155 2.194 2.64 1.07 2.91-1.673 3.497-3.785 1.255-4.512 3.593-14.667 3.927-19.115.273-3.627-1.29-7.738-1.415-11.437-.225-6.72 1.46-13.694 1.94-20.179.66-8.883.013-19.416-.477-28.299-.316-5.741-1.96-11.595-.47-17.518.614-.147.789.888.795 1.265.026 1.48-.459 2.95-.31 4.725.964 11.423 4.676 25.954 4.304 36.95-.095 2.8-.857 6.29-.975 9.103-.134 3.223.667 8.36.364 10.997-.118 1.025-1.87 2.359.126 3.18m-8.149 48.469-5.429 3.816-.328 1.458c1.469.023 3.068.224 4.326-.712zm-2.002 17.358c.43.675-.257 3.613 1.75 3.746.767-.16 4.925-7.849 4.817-8.866-.028-.267-.998-3.464-1.167-3.88-1.428-3.517-9.164-2.284-9.6-.853 1.242 2.267-1.431 4.125-.945 5.624.068.21 2.7 2.862 3.067 3.192.592.53 1.966.86 2.078 1.037m1.52 19.586v-.954h-.47v.954zM181.426 97.756c4.467.807 2.99 2.137 2.884 5.046-.137 3.748 1.091 7.93.983 10.58-.047 1.15-.974 1.64-.975 2.784 0 .964.789 2.338.899 3.476 1.586 16.425 2.537 32.928 3.588 49.296.388 6.042 2.03 12.911-.665 18.554-2.941-2.766-.669-7.722-1.006-11.19-.238-2.452-.618-4.91-.87-7.281-.167-1.57-.367-5.945-1.724-6.476-.9-.242-.916.708-1.055 1.322-2.025 8.923-1.342 18.277-2.037 27.2-1.155 14.832-3.408 29.711-3.386 44.644l-1.426 6.004c.164-3.9-.233-7.876-.025-11.774.594-11.143 2.018-22.375 2.439-33.55.413-10.997.408-21.398-.525-32.145-.244-2.813 1.322-5.02 1.311-5.302-.014-.34-.808-.757-.725-1.346.06-.43.854-.96.931-2.013.107-1.454-.854-2.26-.985-3.389-.83-7.106-.379-14.543-.484-21.549-.027-1.797.183-3.954-.136-5.663-.337-1.809-2.209-3.741-1.807-5.836-1.794-1.173-2.03 1.59-3.104 2.617-2.26 2.162-7.691 3.72-10.809 3.82 1.352-2.007 4.297-1.694 6.378-2.493 6.996-2.685 2.258-7.158-3.195-4.156-2.84 1.564-6.188 6.735-6.888 9.907-.516 2.339-.271 7.428-.86 8.736-1.621 3.597-8.938.34-7.808 6.848.099.57.952 2.6 1.296 2.92.542.507 1.452.273 2.22.769 2.149 1.385 3.204 3.873.716 5.538-3.302-.552-7.627-2.805-3.381-5.75-1.946-1.626-2.505-2.71-2.42-5.288.172-5.315 5.382-2.09 7.928-6.006 1.16-1.786.725-6.434 1.36-9.197 1.239-5.402 6.571-10.835 12.33-10.94.017-6.446 1.295-8.807 8.086-7.13l.555 3.77c2.164-1.468.004-4.486-.039-6.952-.03-1.757.525-7.547 1.273-8.844.339-.586.947-.986 1.405-1.469zm-.48 25.434c.324-.376-.775-6.302-.951-7.443-.11-.716-.038-1.48-.96-1.673l-.48 9.116zM92.192 408.708c1.742.31.43-.962.595-2.028.75-4.856 1.148-8.323.704-13.026-1.359-14.4-2.426-31.952-2.72-46.626-.05-2.493-1.474-4.854.315-7.298 1.593-2.177 1.847 2.475 1.106 3.716l1.912-.48c.898 2.867.345 5.932.465 8.9.289 7.136 1.383 14.118 1.498 21.1.025 1.509-.67 2.923-.572 4.33.057.834 1.46.43.985 3.314-.59 3.595-.133 2.907.043 6.249.525 9.913-.46 20.8-1.074 30.65-.742.154-2.929 3.268-1.105 2.721.39-.117 1.086-2.606 1.215-.717l-1.46 9.131c.644 5.33-.553 10.523-1.407 15.756-.184.506-1.43.24-2.216.74-.848.54-.789 1.805-1.64 1.957-.551-2.562 1.9-2.414 2.342-3.127 1.91-3.083-.145-7.213.043-10.529.13-2.288 2.55-9.846 2.427-11.017-.069-.648-.807-1.204-.942-1.996-.269-1.573-.362-3.396-.52-5-2.528 1.65-.938 5.028-1.003 7.01-.032.962-.414 1.825-.456 2.81-.246 5.86-.339 11.702-.94 17.533-.985-.187-.769-1.027-.951-1.681-1.453-5.217-.21-12.165-.464-17.774-.273-6.013-1.493-12.344-1.902-18.252-1.453-21 1.382-42.517-1.974-63.288l.5-27.127c.887-.187.94.246 1.319.835 2.214 3.433.44 8.603.563 12.365.45 13.76 2.721 28.464 3.824 42.27 1.027 12.847.871 25.695 1.49 38.579m-5.282-74.374h-.955l.002.71.718.725zm4.798 7.673-.236-1.435-.717.725-.002.71zm.96 3.839-.236-1.915c-.738.517-.835 1.03-.72 1.915zm.476 7.198v-1.915h-.47v1.915zm.003 3.839c.07-.915.13-2.106-.952-2.397l-.003 2.396zm.968 24.474c1.39-.35.557-3.444-.481-3.838zm-1.45 30.71v-1.915h-.47v1.915zm-.715 1.922v.48q.467-.24 0-.48M26.458 118.87c.19 3.46.263 6.837-.002 10.315-.678 8.893-2.535 18.826-4.205 27.466-.756 3.911.403 5.468.413 8.53.01 3.637-.487 7.615-.526 11.52-.025 2.515-.96 8.673-.822 10.01.096.927 1.215 1.83 1.288 2.966.067 1.058-.579 2.37-.496 3.82.387 6.796 1.12 13.486 2.799 19.782 2.35 8.821.516 29.02-.371 38.748-.197 2.163-.337 4.515-2.91 2.443-3.41-2.75-.953-8.704-.905-12.535.036-2.92-.423-6.846-.498-10.049-.081-3.505-.969-8.722-.505-12.027.18-1.277 1.108-1.933 1.04-3.331-.076-1.588-1.525-2.038-1.872-3.461-.424-1.735.023-3.901-.212-5.51-1.202-8.248-2.034-15.704-1.825-24.172.41-16.606 1.077-35.27 4.382-51.268.916-4.433 2.282-8.69 3.748-12.959zM341.195 552.674c-4.001 4.21-8.224 8.268-12.462 12.245-9.836 9.232-20.505 18.6-31.24 27.298-5.183 4.2-11.039 7.873-16.019 12.29-1.022.906-8.225 7.664-7.444 8.625l1.913-.242-2.435 1.497c2.141 5.753-2.937 13.346-8.12 15.78-1.304.611-5.27 1.932-6.616 2.06-1.707.164-5.244-.986-6.058-.782-.585.146-.754 1.205-1.27 1.573-2.36 1.686-6.797 1.142-9.563 1.224 1.023-1.799 3.92-.756 5.275-2.157-3.888-2.418-7.565 1.722-10.379 4.047-.83.144-3.056-2.5-2.978-3.496.24-1.232 4.91-4.397 6.242-4.788 1.537-.451 2.927-.099 4.418-.86 2.074-1.057 1.993-4.01 4.878-5.197 1.75-.72 2.51-.438 3.343 1.42.246.548-1.366 3.746-1.69 4.574 2.313 3.604 2.259-1.587 3.357-2.903 1.066-1.278 3.416-1.772 4.76-2.917 4.938-4.204 11.365-12.249 15.875-17.233 8.737-9.657 16.959-21.04 26.864-29.275 7.309-6.076 15.527-11.186 23.507-16.314-10.733 8.804-23.448 15.779-32.605 26.408-2.569 2.982-4.779 6.809-7.442 9.832-1.968 2.235-4.681 4.2-6.73 6.706-.61.748-2.225 2.35-1.914 3.363l14.396-12.473c1.761-1.304 4.286-2.342 5.982-3.615 1.047-.785 1.076-2.434 2.893-2.15l-.95-1.194c.007-.807 4.424-2.014 5.065-2.602.794-.728.418-1.712 1.013-2.472.928-1.186 4.084-1.696 5.665-2.847 5.362-3.9 10.703-9.597 15.848-13.9zM263.47 625.61c1.348-.496 3.263-.593 4.337-1.66.932-.924 1.358-3.025 1.973-4.265.417-.842 2.959-2.837 1.378-3.928-.864-.553-1.677.06-2.385.524-.918.6-7.43 6.552-7.698 7.176-.249.58.13.933.708.708 1.097-.428 4.021-4.147 5.045-3.349zc-2.45.9-6.534 1.362-6.715 4.796 3.821.228 10.274-.806 11.03-5.274-.3-.324-4.4 2-4.315.478M100.344 797.879l1.45.249c-.336 2.796-4.87 7.905-.01 8.392-.63-2.923 1.473-2.952 2.875-4.565 1.74-2.002 3.137-6.603 5.76-6.237-.71 1.567-2.04 2.92-2.754 4.444-2.062 4.398-2.666 7.597-6.412 11.342-2.87 2.868-3.385 3.442-5.926 6.55-1.58 1.93-5.014 3.05-6.052 5.462-1.511 3.512 1.73 5.8-3.08 8.918-2.016 1.307-4.2.944-6.477.954-.204-1.249 1.038-1.43 1.907-1.454-1.004-2.272 1.256-3.532.266-5.763-3.73-2.027-7.329-.633-8.655-5.748-.658-.067-.769-.084-1.23.33-1.18 1.056-3.229 5.825-3.805 6.19-2.606.328-4.89-.565-3.587-3.621.612-1.436 3.823-2.776 4.573-4.061.715-1.226.397-2.963 1.68-4.079.945-.823 2.145-.66 3.058-1.26 2.117-1.391 4.191-4.304 7.232-4.048.593-1.584-2.283-3.824-2.395-4.192-.245-.806-.041-2.466-.481-3.482l4.65 5.178c6.674-.242 14.183.847 16.455-7.094-.676-.641-3.701 2.515-4.671 2.761-.378.096-4.406.617-4.649.604-.289-.014-.213-.865-.6-.963-1.35-.34-3.499-.023-5.09-.59-.853-.303-1.146-1.465-.82-1.814.347-.37 1.51.817 2.168.944 2.924.563 8.284-1.977 10.938-3.432 4.169-2.285 4.039-2.854 4.17-7.588l1.236 3.112zm-1.568 11.868c.493-.492 1.632-3.264.37-3.22-.237.009-2.994 2.863-3.126 3.584-.278 1.52 2.388.003 2.756-.364m-5.63-1.787c-3.261 1.021-9.203 2.64-8.043 7.076 4.568 1.5 9.515-1.836 8.044-7.076m-17.753 7.193v-.955h-.47v.955zm.007 2.404.722 2.392 1.672-.722zm14.151.958v.48q.468-.24 0-.48M66.759 698.071c.634.835-.519 11.148-.508 13.208.095 18.136 3.572 37.312-1.544 55.035-.917 3.175-2.279 6.87-3.365 10.07-.452 1.33-1.855 2.327-1.295 4.219l3.354-2.64 11.043-16.069c.879-.196.173 1.566.073 1.74-.555.97-1.23.398-1.045 1.373l.994.508-.525 1.383c2.165.646-.274 4.963-1.01 6.68-1.923 4.484-4.808 8.468-6.721 12.954-.383 1.464-3.117 1.55-3.547 2.21-.418.643-.111 1.998-.444 2.915-1.241 3.423-6.831 11.741-10.976 11.372-.22-.02-3.976-1.185-4.092-1.367-.664-1.03-.07-2.874 1.596-2.847 3.41.054 3.576 1.394 6.01-2.615-4.176-1.78-10.626-4.618-12.554-9.027-.83-1.896-1.767-5.62 1.047-6.085-1.072 6.206 4.234 8.703 7.822 12.567 1.28.872 2.982 1.315 4.2.065.33-1.355-.683-2.968-.52-4.212.168-1.277 1.664-1.543 1.924-2.914.348-1.832-.074-4.343.126-6.07.472-4.086 3.289-8.632 1.07-12.393-.652-.195-3.256 1.732-3.609 2.256-.606.902-.448 3.154-2.372 3.018-.186-.209.474-3.747.74-4.292.634-1.304 2.33-.955 2.134-2.421l-6.232.24c1.789-3.527 8.509-2.487 11.03-3.848 1.194-.644.32-2.313 2.909-1.43.858-.363 1.678-4.25 1.841-5.331 2.477-16.449.95-33.005 1.425-49.438.075-2.603-.269-5.527.063-8.105.085-.661.355-1.503.958-.709M203.019 128.47c-.551-2.628-1.042-4.382-1.44-7.198.702 2.894 1.118 4.088 1.44 7.197"/><path d="M201.58 121.272c-.93-3.834-1.942-7.682-2.885-11.514-1.325.68-.999 3.264-.894 4.498.85 10.05 4.355 23.963 6.796 33.994.117.48.14 1.445.816 1.331 1.34-5.755-1.716-11.285-2.344-16.601-.178-1.506.1-3.065-.05-4.51 1.23 5.863 3.097 11.897 4.206 17.626 1.537 7.942-.437 10.308-.87 17.623-.275 4.643 1.409 8.46.943 13.418-.563 5.996-.615 6.506-.013 12.565.41 4.126-1.034 8.284-1.385 12.43-.402 4.741-.68 9.657-.506 14.353l-.447.539c-2.006-.682-2.231 1.489-2.663 3.085-1.598 5.912-3.087 12.15-4.422 18.128-.494 2.213.486 3.234-1.9 4.945-4.672-.278-5.626-5.363-5.895-9.14 1.79-.17 3.947.434 4.903 2.048.632 1.066.327 3.471 1.809 3.226.574-1.611-1.106-3.283-.965-4.527.07-.616.749-1.095.81-1.556 1.614-12.163 5.81-24.429 6.401-36.884.163-3.421-2.265-2.534-2.294-4.188l5.054-23.74c-.167-4.873-2.085-8.961-2.76-13.806-1.868-13.42-6.743-28.558-7.7-41.244-.45-5.96.366-12.471.02-18.49 2.032-.027 2.215 2.973 2.388 4.565.839 7.765 2.743 14.009 3.846 21.826M85.869 190.775c-.034.074-.698.099-.88.408-.946 1.613.815 6.357.964 8.558.47 6.938-.269 6.062 2.183 13.16.409 1.184-.19 2.948 1.17 3.383l.96-1.919v5.279c-.091.128-2.133-1.823-2.881-.713.818 1.717.3 3.51.511 5.247.109.888.829 1.589.933 2.467.144 1.211-.59 2.448-.403 3.221.222.92 2.05 1.69 2.253 2.587.047.21.01 3.286.069 4.231.098 1.563-.218 3.386-.035 4.826.116.918.92.458 1.035 1.375 1.053 8.437.84 17.127.884 25.458.013 2.37.827 5.914.342 8.089-.758 3.404-1.994 9.153-2.926 12.33-.396 1.349-1.93 3.328-2.16 5.061-.247 1.864.732 3.612.459 5.478-.873-.181-.892-.943-.973-1.662-.35-3.117.623-7.372.357-10.034-1.258-12.588.246-26.066-.8-38.948-.544-6.693-1.756-12.211-2.035-19.176-.486-12.151-1.039-24.356-1.837-36.451-.148-2.246.505-4.345.016-6.494.74-.755 3.042 3.696 2.794 4.24M80.192 497.487l-.295 1.473c-3.326 1.626-6.652 3.517-9.771 5.5-.639.406-.707 1.233-1.35 1.645-1.147.737-13.671 4.238-15.8 4.705-1.475.324-3.003-.137-4.473.325-1.207.379-1.91 1.855-2.973 2.305-1.927.816-5.39-.05-6.127 2.517.119 1.522.05.575.546.198 1.938-1.47 8.097-1.718 9.531.765-2.019 2.8-7.684-1.305-6.623 3.729.885 4.2 6.398 4.228 9.712 3.67 4.206-.708 8.541-1.736 12.873-2.48 2.612-.45 5.493-1.737 8.271-1.806l-2.111 2.57-1.482.32c.31 1.294 1.746.714 2.538.973.51.167.177 1.267 1.049.935 4.446-2.427 4.79-7.027 4.059-11.72-.506-3.24-3.827-5.668-6.207-7.463 3.577.074 7.004 3.778 8.048 7.062.384 1.209 1.657 6.895 1.44 7.942-.873 4.237-6.553 4.178-5.606 11.584.225 1.761 1.946 4.777 1.835 6.3-.059.8-.996 1.2-.86 2.26.094.723 2.011 4.828 2.998 4.642 2.449-1.831 4.936-4.285 4.624-7.642.844-.024.54 2.142.476 2.638-.627 4.825-5.772 8.63-4.32 14.157l-3.083-.418c-1.929 1.837-1.225 4.022.697 5.477l3.824-.74c-.007.399.065.814.026 1.215-.03.304-.918 3.862-1.06 4.014-.185.2-1.063-.207-1.383.356-.254.446-1.198 4.14-1.294 4.854-1.162 8.602-2.14 16.972-3.623 25.649l-1.294 3.256c-.494-4.662.862-9.174 1.386-13.726.099-.857-.523-1.77-.432-2.784.145-1.617 3.581-9.014 2.336-10.324-.13-.138-.928.084-1.238-.131-1.715-1.197 2.222-6.464 2.253-8.358.04-2.39-4.215-4.436-3.872-8.11.202-2.17 2.69-2.859 3.512-4.679 2.935-6.495-3.818-12.332-5.052-18.205-.382-1.821-.313-3.28-.439-5.083-1.913-.674-4.549-3.112-6.4-3.43-6.794-1.167-12.677 4.09-19.903 2.15-1.25-.336-2.794-1.86-3.714-2.089-.754-.187-1.517.322-2.053.132-.513-.182-2.153-2.167-2.409-2.822-.667-1.712-.113-3.9-.895-5.222-.567-.958-6.342-3.667-5.785-5.843 2.525-2.02 5.221 1.694 7.228 2.382 1.395.478 5.516-1.612 7.537-2.018 3.77-.757 9.269-.688 12.722-1.67.275-.079 2.933-1.776 2.256-2.299-4.116.484-8.847-2.726-12.734-2.896-2.437-.107-4.538 1.385-6.934 1.45 1.565-2.079 5.492-1.912 7.938-1.934 5.221-.047 10.135 1.68 15.335 1.462 1.493-1.142 2.231-2.19 3.93-3.267 1.144-.726 6.246-3.341 7.334-3.667.913-.274 3.618 1.472 5.281.214M69.64 522.923l-1.437-.002v.954l.71-.002zM193.875 611.676l-2.77.101-2.72 6.145-2.116-7.868c-1.565-2.243-3.633 5.092-4.165 5.913-.445.688-1.17 1.606-2.112 1.482-.762-2.36 1.813-5.089 2.152-6.657.13-.603-.44-1.71-.22-1.952.059-.064 1.1-.075 1.668-.485 1.174-.849 1.954-2.293 2.876-3.378l.953 1.44c1.226-1.354-.688-2.082-.723-2.247-.3-1.432 1.194-2.924-.2-4.025-.982-.776-6.756-1.785-7.713-.931-.602.536-2.17 6.027-2.169 6.967.003 1.338.923.272 1.496.998.799 1.013-.438 2.406-1.244 3.072l-.242-1.917c-1.494.708-1.455 2.864-1.92 4.315-1.362-.476.495-3.749.003-4.313-.847-.17-1.233.413-1.55 1.084-.378.803-1.436 4.45-1.686 5.512-.399 1.69-1.363 7.048-1.08 8.519.106.546.167.971.79 1.139 3.7 1.232 7.913-4.82 11.116-2.735 1.284.835-.247 7.026-1.326 8.215-.455.502-2.005.881-2.88 1.563-.718.56-1.038 1.636-1.463 1.906-1.491.95-4.72-1.912-6.716-1.216.637-1.037.282-2.332.728-3.345.458-1.04 2.552-1.335 2.146-2.163-.546-1.115-3.73-.314-3.76-4.317-.009-1.105.914-2.445.845-3.389-.053-.722-.844-1.172-.89-1.886-.162-2.473 3.784-12.383 5.15-14.986.62-1.179 1.967-1.675 2.016-3.018-4.228-.235-5.604 4.71-9.593 5.271 1.496-2.397 3.732-3.842 5.712-5.558.656-.568 1.032-1.722 1.707-2.174 1.365-.912 2.35 1.209 3.844-2.831 2.98-8.063 3.555-21.447 5.19-30.319 1.059-5.74 2.85-11.386 3.702-17.174l-7.651 48.206.688.555c3.233-.284 9.72.838 10.318 4.781.142.937-.428 2.043-.22 2.625.6 1.689 5.238 4.47 6.447 5.973-1.16.986-2.508 1.272-2.418 3.102m-4.772-10.055h-.955v.47h.955zM325.362 6.109c-.695 1.728-2.68.615-3.91.75-3.276.355-4.795 2.205-7.49 2.958-13.322 3.722-20.77 1.635-33.576 9.733-3.187 2.015-11.447 2.759-16.28 5.184-14.451 7.249-24.033 14.909-36.145 25.272-15.075 12.899-30.491 25.647-41.93 42.052-.188.27-.537 1.729-1.242.899-.49-.577 3.651-6.537 4.326-7.426 5.976-7.871 15.328-17.086 22.534-24.008 15.48-14.872 35.927-32.628 55.813-41.11 3.808-1.623 7.936-2.165 11.818-3.535 7.979-2.815 14.46-5.673 22.945-7.763 3.851-.948 10.783-2.937 14.29-3.462 2.98-.445 5.894.538 8.847.456M26.94 725.425c-.92 1.381.615 2.26.488 3.565-.065.674-.848 1.24-.95 1.97-.297 2.153.334 4.438-1.224 6.45-.535.69-1.728 1.079-1.922 1.422-.177.312.335 1.605.166 2.539-.557 3.08-3.393 9.54-4.47 12.846-.275.841-.724 2.782-.732 3.61-.012 1.324.947.273 1.49.99.776 1.024-.73 11.287-.483 13.831.091.939.958 2.204.829 2.855-.136.687-1.295 1.131-1.583 1.75-1.689 3.625 1.934 15.785 1.437 20.145-2.765-1.287-2.05-2.509-2.87-4.327-1.843-4.083-2.575-7.01-2.188-11.763.151-1.848 1.226-4.077.974-5.704-.228-1.47-2.841-3.904-3.247-5.904-.323-1.594-.004-3.316-.111-4.928-1.454-.237-.764.369-.967 1.167-.567 2.228-1.541 5.197-1.775 7.362-.26 2.42.568 7.271-.845 9.233-.897 1.246-1.51-1.44-1.57-1.807-.82-4.913 1.873-16.233 3.48-21.237.269-.839 1.464-3.872 1.934-4.341.77-.768 2.285.557 3.684-2.037 3.128-9.012 6.217-18.045 9.445-27.02.243-.675-.156-.823 1.01-.667M259.15 318.505c.85.958-1.061.947-.955 1.188 2.777 1.938 6.134 3.459 9.59 3.608l-2.877.47.005 2.88c1.388.412.827-1.089 1.726-1.372 3.963-1.248 3.155.918 4.23 1.889.58.524 1.97.698 2.923 1.399 1.42 1.042 1.888 2.64 2.904 3.833.413.486 1.262.324 1.68.818.538.635.65 2.421 1.65 3.03l.723-2.879 2.388.003-.476 2.876h1.925l1.435 7.678c-2.878.723-4.768-.012-6.258-2.616-.452-.79-.978-3.38-1.743-3.627-2.129-.688-1.129 1.572-3.026 2.166 1.775 1.092 3.245 3.183 4.82 4.29 4.68 3.29 15.875 3.9 21.563 6.744 1.093.546 3.052 2.568 1.228 2.136-1.67-.395-9.55-4.697-10.345-2.127-.487 1.578 2.131 2.266 3.145 2.605 9.202 3.07 14.3 2.237 23.488 1.476 2.417-.2 4.763-.206 7.25-.43.538-.049 1.723-.442 1.616.418l-16.049 1.946c-3.797-.402-8.36.457-12.041.011-.953-.115-.667-.914-1.27-1.148-1.028-.399-2.17-.195-3.238-.59-2.675-.99-3.355-4.16-4.626-4.97-2.996-1.907-10.064-2.645-13.6-5.112-3.851-2.687-1.693-2.312-6.759-3.787-.98-.286-2.488-1.735-3.594-2.178-.756-1.061 3.178-.688 3.142-2.644-4.164-5.904-8.243-12.772-14.886-16.08-.076-.887 1.078-.242 1.677-.951.365-.433.227-1.518.958-1.913zM77.314 678.397l1.92 18.71-3.354-2.395.472 4.796c-2.28-1.645-4.388-10.163-3.62-12.505.387-1.179 1.843-1.636 1.72-3.051-.058-.662-1.393-2.846-1.707-4.104-4.303-17.27-1.06-32.782-1.166-50.18-.01-1.561-.571-2.913-.497-4.766.12-3.01.871-5.697 3.857-6.81l-.016-5.437.974 5.976c.171 13.368-.208 26.73-1.422 39.885-.508 5.502-1.437 14.208.18 19.421.173.56.535 1.03.982 1.4zM414.596 174.054c-.77-.077-.901-2.064-.95-2.643-.441-5.347.119-6.664-1.324-12.11-5.02-18.955-7.994-31.385-22.407-45.73-18.67-18.582-45.99-17.962-69.328-9.312-5.88 2.18-10.978 5.31-16.113 8.841l.736 1.927c-2.736-.093-7.1 6.347-9.331 5.76-.295-.078-.879-.758-.739-1.185.707-1.167 2.292-1.8 3.082-2.682 17.765-19.875 59.75-27.047 82.663-12.552 20.383 12.894 30.325 36.533 34.946 59.101.305 1.49.922 5.097.575 6.39-.311 1.164-2.102 2.53-1.81 4.195"/><path d="m82.597 699.506 2.398.003c.275-1.062-.416-2.52-.23-3.421.262-1.278 2.418-2.919 2.887-4.233.973-2.728.126-6.896 2.219-9.56 3.448-.41 2.603 2.168 4.576 4.01-.002 2.26-3.15 1.087-3.473 1.653-.041 2.426-.679 3.814-1.662 5.785 10.207 3.257-3.053 6.749-2.863 10.76.025.514.962 4.42 1.173 5.093 3.437 10.947 9.634 20.498 13.776 30.848 1.698 4.241 1.384 7.904 2.342 11.967.1.423.85.196.962 1.05.251 1.933.353 12.108-1.296 12.69-2.43.86-2.272-3.241-2.06-4.942 1.01-8.154 1.312-7.078-.673-15.241-1.384-5.694-4.956-17.715-8.527-22.181-.703-.88-1.27-.779-2.336-.784.368-3.462-.31-5.618-2.112-8.448-.29-.456-1.296-.62-1.576-1.597-.294-1.03.864-1.227.45-2.255-1.326-3.282-4.566-.84-7.33-2.804-1.57-1.116-3.958-5.91-3.127-7.909 1.457 2.118 1.432 5.552 4.556 6.233-.382-1.587 1.379-3.739 1.461-4.59.142-1.458-1.648-2.418-1.802-3.393-.075-.479.386-4.772.551-5.483.637-2.745 3.101-2.736 4.072-4.609.614-1.184-.263-2.065.253-3.041.325-.615 1.27-.716 1.569-1.084.518-.638.284-1.792 1.092-1.788-.33 3.68-.217 6.349-2.184 9.566-.497.814-1.792 1.44-2.033 2.285-.274.96.01 2.113-.192 3.167-.154.805-1.027 1.333-.861 2.253m9.113-2.872c-2.2.527-5.285-3.662-5.78.211-.853 6.678 3.582 2.178 5.78-.211M165.593 88.643c-1.688 4.338-3.034 8.84-4.863 13.126-6.796 15.922-15.88 29.494-21.739 46.398-7.082 20.432-8.9 63.782-3.684 84.736.808 3.247 2.268 6.282 3.074 9.401.128.494.736 1.501.11 1.81-1.45-3.027-2.967-6.347-3.847-9.588-3.964-14.602-3.138-30.757-3.093-45.853.037-12.263-.025-24.778 3.473-36.796 5.497-18.884 18.77-36.33 25.525-54.128 1.27-3.349.84-7.805 5.044-9.106M45.167 830.511c-1.982-.542-3.664-1.27-5.033-2.87-5.107 6.904 9.09 5.954 12.584 8.039 1.403.837 1.594 2.593 2.987 3.73 1.16.949 3.024 1.401 4.188 2.557.275.042 3.927-2.895 4.221-3.305.922-1.28.472-2.73.815-3.266.11-.17 3.468-1.831 3.75-1.528 1.285 4.268-1.454 7.05-2.658 11.018-5.838 5.992-10.225-.99-14.937-4.213-2.926-2.002-12.105-5.916-13.6-7.991-2.842-3.944 1.763-6.271.958-7.432-3.505-.828-2.255-1.594-1.56-3.772.608-1.907 1.423-4.295 2.27-6.346.223-.543 2.065-3.58 2.397-3.848 2.479-2 3.316 4.402 3.163 6.012-.2 2.102-2.18 5.127-1.956 6.71.204 1.437 3.748 3.56 2.41 6.505M382.566 507.919c2.073 2.125 6.9.502 5.649-2.752l3.363.71-1.923 3.85-.721-.738-1.191.732c5.936 8.158 7.127.89 11.02-3.598l-.475 9.116-2.334.067c-2.329 5.075 2.092 4.68 5.936 4.256 2.163-.238 3.944-1.564 5.783-1.898.697-.127 1.372-.3 1.166.688-5.066 5.376-12.485-.397-17.98 4.084-2.419-2.975 5.055-2.027 3.353-5.744-1.737-3.79-7.75 2.514-11.4 1.806-1.895-.368-2.76-2.115-3.732-2.543-1.097-.484-1.671.36-3.978-1.28-2.766-1.965-5.829-4.916-4.107-8.494 2.283-.633 2.3.446 3.545 1.852 2.257-2.095 1.052-6.02 5.544-4.574 3.233 1.042 1.713 3.671 2.482 4.46m6.847-1.316v.48q.466-.24 0-.48"/><path d="M84.99 716.783c.02 1.724.23 3.714.616 5.386 2.512 10.883 6.79 20.983 9.493 31.774 1.336 5.336.044 10.862.43 16.365.2 2.87.262 7.75 4.341 6.94.418 1.625-.73 1.342-1.374 2.21-2.313 3.124-2.84 3.622-7.201 2.523-1.534-4.49.25-9.043.449-13.607.067-1.54.064-5.221-.014-6.702-.775-14.688-6.957-28.432-7.688-43.221-.05-1.018-.43-1.953.949-1.668m10.083 64.782.945-.72-.712-.717zM195.786 308.88l-.92-.464c.765 1.692-.69 2.567-.934 4.11-.332 2.097.496 3.754.467 5.704-.074 5.02-2.402 13.423-3.421 18.694-.437 2.26-1.586 6.126-1.803 8.295-.043.43 2.478 6.2 2.776 8.099.313 1.991.859 4.936-.687 6.436-.987.005-1.068-5.014-1.32-5.867-.437-1.47-2.332-3.54-2.91-5.248-2.75-8.145 1.456-15.718 2.91-23.306 1.229-6.417-.235-13.043-.706-19.499 1.352-3.148 3.502-3.99 4.905-.304.876.017 2.175-6.116 2.058-7.29-.34-3.394-2.36-6.986-2.54-10.453 3.823 6.394 5.62 14.124 2.125 21.092M45.167 601.616c-2.127-2.106-2.521-6.883-2.867-9.845a373 373 0 0 1-1.463-15.331c-.145-1.992.58-7.365.294-8.436-.187-.699-2.68-3.519-3.405-4.769-1.675-2.888-3.188-6.097-2.568-9.542 4.418-.186 3.162-3.956 5.296-6.941.758-1.059 1.46-1.588 2.562-2.237.138 1.74-1.477 2.945-2.028 4.69-2.633 8.332 4.232 13.041 5.104 20.06.947 7.624-.908 14.96-1.249 22.095-.145 3.041.788 7.03.324 10.256M510.074 181.257c.43.534-.696 1.984-.736 2.616-.19 3.055.7 7.066.759 10.078.318 16.311-9.526 50.246-20.664 62.388-.928 1.011-3.8 3.026-4.094 3.625-.497 1.013 1.068 1.766.56 3.359-.59 1.852-3.691 4.179-4.818 5.777-3.217 4.563-3.104 9.33-3.005 14.71-1.232 1-5.707 6.14-7.34 4.93.291-.731.983-.972 1.316-1.798.652-1.621 2.517-8.88 2.54-10.465.025-1.63-1.18-4.236-1.927-5.73.79-1.074 2.143-.446 3.145-1.16 2.12-1.511 3.953-6.74 5.462-8.453.857-.973 2.547-1.263 3.616-2.142 1.737-1.429 4.805-4.518 6.198-6.278 8.271-10.452 18.75-44.127 18.052-57.323-.2-3.766-2.161-9.922-.319-13.25.172-.31.619-1.676 1.255-.884M358.47 278.182l16.002-6.78c20.952-13.037 37.239-29.164 48.218-51.586.975-1.992 2.3-6.637 3.477-8.039.713-.848 1.569-.737 2.12-1.238.695-.632 1.046-2.213 2.136-2.178-2.072 4.894-4.069 9.911-6.445 14.663-10.024 20.055-24.035 33.995-42.512 46.735-3.964 2.733-5.78 3.148-10.178 4.216-3.687.896-8.317 4.926-12.819 4.207M486.808 134.228c.589.12 3.164 1.894 3.826 2.41 3.6 2.81 7.07 6.282 10.315 9.359 1.396 1.324 5.788 4.862 6.446 6.025 1.088 1.923.337 13.19-.919 13.4-2.424.404-1.019-1.83-1.155-3.114-.1-.95-.713-1.722-.75-2.417-.213-4.152 1.693-6.677-2.412-9.826-.595-.456-3.291-1.991-3.786-1.882-1.695 1.439-.987 3.818-2.469 5.7-5.093 6.47-12.947 1.46-13.205-5.975-.045-1.302.7-5.851 1.434-6.755 1.59-1.955 3.35.544 4.762 1.554.56.4 1.74.562 1.886.743.467.579-.264 2.471 1.78 2.781 1.086.178.71-.476.708-1.206-.003-.63.065-3.111.04-3.273-.027-.171-2.192-2.28-2.439-2.471-1-.779-6.092-3.41-7.256-3.779-1.511-.48-4.529.35-4.243-1.274 2.204.304 5.39-.417 7.437 0m6.354 13.554c-1.965-.247-4.945-5.046-6.635-2.795-.954 1.272-.757 7.937.671 9.242 4.168 3.807 8.185-4.173 5.964-6.447m2.04 5.158-.003-.957-.952.722zM298.37 291.263c.882.915.149 2.157.403 2.78.104.255 2.894 3.51 3.3 3.839 3.384 2.74 16.03 5.884 20.71 6.64 6.507 1.053 9.93.876 16.24.52.524-.03 1.816-.312 1.688.491-3.983.696-7.646 1.739-11.743 1.439-2.156-.158-4.411-1.176-6.283-1.394-8.447-.986-18.136-.457-24.402-7.264-.526-.571-.651-1.797-1.222-2.138-.677-.405-3.161-.42-4.43-.847-3.13-1.053-9.207-3.275-11.637-5.157-1.273-.986-2.372-2.516-3.607-3.595-.117-.532.322-.969.797-1.111.543-.163 6.7-.96 7.05-.904.597.098 2.28 1.595 3.165 2.043 1.75.887 9.245 3.903 9.972 4.658M252.247 691.168c-.862 1.242-2.404 2.396-2.213 4.499l3.84.968-1.915 2.871 2.873-.003c-2.108.84-4.748.654-6.732 1.187-1.95.523-4.33 3.424-5.494 3.625-2.268.391 1.504-3.628 1.194-3.842-2.271.302-4.755-1.4-6.954-.98-1.467.28-2.16 3.704-5.007 1.892l-.037-1.395 3.352-.722c-.03-.701-6.6-1.763-7.158-5.306-.415-2.632.802-9.169 3.817-5.268l-1.96 5.69c1.597 1.884 3.63 1.387 5.442 1.874 2.918.785 2.9 1.622 6.769 1.27 2.03-.183 8.177-1.242 4.144-3.058.93-1.04 6.185-5.604 5.267-6.954-2.234-.226-6.287-2.375-6.713.953l2.874-.955c-.97 1.935-1.065 2.651-.48 4.794-2.13-.67-3.796.118-5.748.966.186-1.787-.707-1.62-1.962-2.21-.113-7.958 11.307-9.349 15.272-3.32-.557 1.328-1.668 2.267-2.471 3.424M332.074 293.063c-5.382-6.025-13.519-6.633-20.574-9.409-6.52-2.565-22.085-11.046-27.148-15.555-4.359-3.881-5.269-8.253-7.444-13.423 4.283.013 4.515 3.636 6.506 6.204 5.556 7.168 11.521 10.87 19.379 14.688 1.05.51 2.324 2.454 4.007 3.19 6.082 2.661 14.026 4.462 19.862 7.966 1.732 1.04 5.817 4.143 5.412 6.339M216.25 656.12c-1.046 1.253-3.71 4.37-4.1 5.738-.333 1.167 1.885.776 2.521.598 2.465-.688 5.098-7.52 8.496-8.053-.301 2.509-2.607 3.632-3.835 5.035-.66.754-.985 1.823-1.604 2.478-.725.766-3.96 2.936-4.12 3.827.944 2.8 4.371 2.022 6.68 2.097.611 1.19-.968.835-.982 1.225-.016.428.488 1.195.508 1.891.045 1.591-.271 3.874.005 5.27.377 1.908 2.612 1.288.179 4.037-.638.72-1.75 1.121-2.348 1.968-.777-2.504-4.458-2.007-4.092-4.978 2.675-.81-1.62-5.684-2.888-6.75-1.06-.89-2.56-.889-3.09-2.184l-1.205 4.794c-3.145-.099.976-7.07 1.832-8.484 2.853-4.712 9.48-12.573 13.775-15.975 1.194-.946 2.55-1.598 3.83-2.408.324-.102.347.457.232.71-.3.662-4.35 3.458-5.28 4.32-1.632 1.51-3.093 3.139-4.515 4.843M274.985 631.852c-1.246 2.324-4.508 2.98-6.416 4.394-1.693 1.255-11.368 10.536-12.036 11.936-.383.803-.165 1.699-.712 2.647-1.84 3.191-7.947 7.783-10.045 11.56-.952 1.713.35 2.459-.497 3.783-1.182 1.846-3.212 2.188-5.084 2.966l-.481-.29c-1.826-1.708-1.717-2.228-.94-4.356.772-2.11 5.207-10.352 6.543-12.173.986-1.343 2.436-1.687 2.807-3.193.752-.03.958 2.196.879 2.541-.291 1.264-3.976 2.888-2.567 5.13 1.028-1.914 2.904-3.142 4.105-4.527.918-1.06 6.278-7.023 6.465-7.48.269-.661-.371-1.459-.054-1.916.23-.331 1.883-.838 2.559-1.31 4.606-3.22 8.545-6.214 13.54-9.011.618-.346.956-.975 1.934-.7M369.022 532.52c-5.445 6.457-11.05 12.775-16.546 19.197-8.801 10.286-27.215 31.815-32.152 43.66-.944 2.268-.479 5.234-2.864 6.535l-3.613-.78c-1.286-1.233 3.978-1.666 4.096-1.872-.423-3.977 1.373-5.261 2.802-8.26 7.583-15.92 23.075-34.213 36.039-46.495 2.753-2.61 5.5-5.51 8.411-8.38.558-.548 2.97-4.354 3.827-3.605M243.94 284.8c.112.161.575.135.815.114.385.503-2.9 1.628-3.501 2.003-5.127 3.196-5.322 5.989-8.78 9.455-1.295 1.298-3.546 2.311-4.991 3.644-3.413 3.15-8.84 14.422-9.838 18.953-.4 1.824-.117 9.393-3.823 8.644-1.134-.23-.32-.898-.252-1.19.44-1.886.944-3.873 1.472-5.739 1.901-6.72 4.283-11.144 5.334-18.136.169-1.126 4.503-6.746 5.44-7.082l.96.985c3.936-.512 4.62-4.285 6.741-6.714 1.117-1.278 4.863-4.623 6.286-5.71.517-.395 2.9-2.071 3.266-2.003 1.13.626.415 2.117.871 2.776M459.098 381.96c2.245 1.183 5.126 1.641 7.787 2.53 2.836.945 4.975 1.668 7.059 4.212 2.196 2.68 3.004 9.771 2.504 13.247l-3.789 1.003c-.238-3.818.347-8.95-2.154-12.007-1.544-1.886-3.675-2.123-4.7-4.175-2.394-.38-7.603-3.595-9.728-3.473-.473.027-3.092 1.784-3.572 2.374 1.385.637 5.703.9 5.74 2.62l-.773 1.743c-3.756-1.076-7.328-1.445-11.203-.52-.528-2.5 2.895-1.746 3.836-3.352l-6.235.952c-.28-2.818 4.074-2.622 6.147-3.205 1.638-.46 7.678-2.687 9.081-1.948m-7.077 3.242h-.954v.47h.954zM249.555 8.986c.222.998-.525 1.091-1.092 1.543-3.209 2.557-7.798 4.565-11.34 6.892-22.078 14.507-36.364 28.162-52.066 49.176-.54.723-3.58 7.178-5.065 5.726.406-3.85 3.678-6.51 5.673-9.436 11.473-16.821 26.94-29.065 43.11-41.338zM172.797 463.895l3.226-13.325c6.734-24.539 13.207-49.464 14.997-75.215.203-2.934-.33-6.304-.013-9.13.08-.719.1-1.48.972-1.662l-.48 19.91c-2.065 22.53-8.031 43.915-14.165 65.489-1.048 3.686-1.782 8.352-2.94 11.936-.26.809-.73 1.713-1.597 1.997M374.778 302.174l-13.429 6.25c-.117.828 1.097.46 1.671.475 6.037.164 10.11-3.923 16.075-3.355l-8.77 5.869-1.79.157-1.271-2.219c-2.778.842-6.949-.028-9.401.623-1.006.267-2.093 1.674-3.216 2.062-5.052 1.746-8.523 2.79-13.126 5.468-.606.353-.539 1.773-1.761 1.469-.208-1.129-1.087-2.679.005-3.59 5.21-3.29 12.492-4.76 17.604-7.778 3.479-2.053 1.132-1.985 6.028-2.641 2.368-.317 7.661-3.348 10.265-4.168zM321.042 36.337c-1.634.678-3.242-2.422-3.993-2.358-7.024 3.642-5.026 10.409 3.033 8.117-.861 5.69-10.28 4.142-10.505-.725-.062-1.346 7.18-9.2 8.514-11.108.572-.816.654-2.047 1.295-3.024 2.454-3.745 7.358-5.001 11.21-2.616 1.856 1.149 4.08 4.372 1.01 5.281-1.822.54-2.687-1.312-4.443-1.157-3.957.348-6.692 3.598-6.12 7.59m7.676-9.601c-.915-5.415-8.621 1.516-7.671 2.4 2.621-.666 4.78-2.778 7.671-2.4M217.423 277.703c-1.259-1.51-1.14-3.11-1.674-4.811-.814-2.6-3.07-5.648 1.536-6.633 2.758-.59 2.494 2.266 3.292 3.724 4.166 7.61 10.025-.981 11.717-5.709 1.867-1.286 1.483 4.675 1.204 5.769-.866 3.404-5.67 7.115-9.15 7.21-1.803.05-3.48-1.532-4.229-1.39-.738.14-1.9 2.42-2.696 1.84M56.688 562.264c.417-1.312-.123-2.696.09-3.94.438-2.548 4.218-6.175 1.05-7.994-3.216-1.847-3.57.994-3.779.898-5.302-4.063 1.729-9.126 5.974-6.455 5.63 3.543 4.67 10.187.97 14.843-1.042 1.31-2.502 3.012-4.305 2.648m6.712-11.511h-.954l.002 2.876c1.217-.37.976-1.825.952-2.876M187.665 258.997c-2.959 6.432-1.809 14.003-3.784 20.797l8.103 7.506c-1.806 1.06-9.453-4.017-10.073-3.352l1.386 7.83c-5.864 5.1-5.936-8.655-6.184-12.149 1.833.328 2.622 1.69 4.588.508 3.164-1.903 2.399-15.91 4.763-20.206.364-.66-.048-1.188 1.201-.934M421.313 303.62l.29 1.487c1.92 1.537 6.262-2.734 5.471-3.88-6.304-2.657-11.228.344-15.542 4.842-.372.387-3.046 3.463-2.686 3.787l6.397-.4.576.384.008 1.485c-2.795 1.895-4.802.477-7.458-.508l-1.02 3.306-1.372.05c-.122-2.023-1.505-2.442-.43-4.487 2.557-4.872 11.324-11.578 16.952-11.84 7.048-.33 9.644 4.797 2.993 8.268-2.804 1.464-6.94.76-4.179-2.494M427.56 470.613l2.871-1.917c-.82 4.467-5.408 6.217-8.32 8.708-3.605 3.082-6.53 8.952-9.231 12.841-.91 1.31-4.41 5.035-4.75 5.806-.811 1.831.163 3.493-1.948 5.741l-.455.44-1.203-.696-1.433 1.705c-.696-5.175 4.022-8.116 6.713-11.753 3.73-5.042 7.073-10.433 10.361-15.55 2.53-3.936 4.884-7.288 9.072-9.642zM421.254 188.387c-2.35.743-3.325.416-4.657-1.683-.124-.65 3.784-7.645 3.7-10.03-.071-2.039-3.028-3.014-2.842-5.237 2.16-1.225 7.302-2.861 8.912-.251 1.2 1.945-5.434 13.926-5.113 17.201M168.95 307.456l-12.694-24.006c-4.187-9.321-6.498-19.282-8.669-29.24-4.48-20.542-7.821-41.98-3.576-62.875l-.01 5.51c-3.018 25.47 2.817 62.93 13.206 86.614 3.572 8.144 9.536 15.387 11.743 23.997M105.628 747.495c4.592 4.201 5.124 12.039 6.283 17.947.603 3.072 1.87 4.942 1.344 8.643-.393 2.758-2.199 4.311-4.727 2.414-2.333-1.752-.234-6.794-.03-9.095.562-6.343-1.4-13.781-2.87-19.91M278.826 8.019l4.662-2.284c3.585-.756 3.861 1.222 5.132 1.294 5.102.291 15.346-4.889 22.188-5.545C320.9.516 332.134-.577 342.866.354c1.224.106 3.133.34 4.077 1.191l-6.967.26c-8.33-1.323-15.93-.523-23.998.91-2.985.53-8.836-.208-11.37.616-3.356 1.093-8.366 4.164-12.225 5.059-4.756 1.102-5.55-.693-8.558-.814-1.414-.057-3.353.889-4.999.443m37.418-5.756-.235-.955-.722.952zM464.02 243.635c1.887-.544 3.015 1.315 4.312 1.737 1.118.365 2.098-.911 1.918.416-.893 1.143-1.805 2.604-3.348 2.916-1.35.273-2.226-.857-3.497-.662-1.799.276-5.096 2.632-7.342 2.754-1.065 1.417 1.29 3.732 2.675 3.887-.025 1.626-1.031 1.607-2.266 1.066-2.652-1.16-9.32-9.099-7.009-12.138 3.061-1.049 7.794 4.837 9.993 4.817.22-.002 3.941-1.5 4.1-1.654.797-.778.397-2.144.464-3.14M168.84 633.656c-.227.201-4.367 1.333-5.046 1.454-.616.109-1.47-.416-1.534-.37-.292.203-2.748 6.762-4.338 5.262l.955-2.394c-3.495-.24-6.055 2.766-9.556.68-3.408-2.031-1.355-6.094-2.554-7.286-1.767-1.1-3.989-.353-5.889-.593-.703-.088-1.482-.37-.708-.958 2.028.218 6.585-.576 8.14.73 2.516 2.115-1.847 10.19 7.212 6.227.84-.368 4.504-2.7 4.607-3.342.134-.837-.991-2.448 1.008-3.04 1.12-.333 4.24-.228 5.397.163 1.053.357 3.616 2.306 2.306 3.467M219.809 294.02c-1.046 1.023-10.45-1.753-12.249-2.38-2.073-.724-5.649-1.701-5.498-4.333 4.487.087 8.533 2.921 13.11 2.414l.799-2.414-2.394-.476c2.125-.572 8.117-1.71 9.549.278 2.339 3.25-5.116 3.424-3.317 6.911"/><path d="M179.843 244.254c1.766 2.052-.852 3.267-1.497 4.697-.635 1.405-3.3 25.374-3.143 27.534.064.877.858 1.515.894 2.4.045 1.102-.882 2.343-.792 3.743.152 2.351 1.405 7.68 3.243 9.238-4.808.314-5.384-5.307-5.294-9.142.234-9.935 3.973-22.543 3.68-31.737-.042-1.31-.77-2.484-.8-3.775-.036-1.452.805-2.977.5-4.532.253-.302 2.926 1.245 3.209 1.574M459.542 297.223c-2.58 2.583-4.729 1.956-7.992 1.818-1.03.505-1.259 2.42-1.525 2.58-.54.326-1.546-.25-2.559.56-.842.674-1.402 3.052-2.401 3.836-1.085-2.847 5.02-9.123 7.2-9.087 1.742.028 2.007 2.067 4.58-.248 1.124-1.012 6.52-8.4 6.7-9.616.327-2.216-2.548 1.581-3.363.716-.275-1.635.865-2.848 1.233-4.29.177-.692-.34-1.46-.185-2.08.18-.72 3.506-5.473 4.875-4.115 2.89.992-1.709 5.522-1.988 6.508-.337 1.19.09 2.492-.147 3.692-.657 3.33-1.982 7.276-4.428 9.726M42.777 629.928c-.026-1.18-.046-2.356.057-3.538 1.217-13.865 7.278-27.664 6.3-41.787l.83-3.618c.16 1.091.76 2.058.927 3.154 1.323 8.659-2.129 17.894-3.763 26.392-1.073 5.582-1.168 12.337-3.152 17.961-.203.576-.532 1.311-1.199 1.436M261.9 103.858c-.625.503-1.62.416-2.22.904-2.567 2.087-5.232 4.122-7.077 6.948-6.072-.739-1.339-4.561-.158-7.71l.958.244-.25 2.63 20.158-16.304c-2.436 4.843-6.413 8.619-10.57 11.998-.431.35-.555 1.061-.84 1.29M464.98 477.808c-.265-.243 3.225-5.479 3.59-6.242 5.574-11.697 7.457-25.17 11.528-37.416l2.147-16.8.505 9.813c-4.018 14.715-6.943 34.991-14.813 48.09-.69 1.149-1.298 2.904-2.957 2.555M66.757 564.186c-3.575-2.474-.351 2.75-1.433 4.317l1.913-.957c.023 4.618-.933 11.126-6.04 12.46l-.426 1.451c-4.441-2.093 3.169-9.036 2.152-10.55-1.223-.466-2.365.054-3.58.015-.724-.024-1.415.326-1.213-.73 3.951-1.45 5.098-5.226 7.432-8.395zM162.883 106.56c-4.308 5.76-2.799 9.366-4.814 15.101-1.166 3.319-4.025 6.202-3.761 10.634l-2.142 4.329c1.022-3.254 1.446-6.984 2.531-10.178 1.21-3.558 3.5-6.227 3.71-10.206-.39-.585-3.488 1.133-2.88-.478.575-1.524 2.374-3.105 3.137-4.543 1.97-3.709 1.24-7.14 5.056-10.299 2.824-2.338 4.943-2.789 8.103-.523-1.45 2.002-2.862.178-4.959 1.752-.287.216-3.686 4.015-3.981 4.41M62.922 527.722c.952 1.418-6.086 5.657-2.877 8.148-2.213.692-3.224-1.656-4.342-2.17-.542-.25-1.204.253-1.345.17-.223-.13-.761-2.027-1.54-2.526-1.262-.808-5.112-.284-3.356-2.936.901-1.362 7.203-2.398 8.873-2.108 1.195.209 3.035 1.501 4.587 1.422M126.727 618.41c-.755.728-.845-.068-.94-.723-.899-6.126-.457-20.25 3.83-24.944 1.832-2.004 4.52-3.002 6.21-4.346 1.568-1.247 1.563-4.105 3.376-5.016-1.297 5.625-5.577 7.797-9 11.867-1.816 7.644-2.25 15.459-3.476 23.161M264.586 682.397c-.25.156-.437.877-.931 1.199-1.37.891-4.863 1.849-3.478-.34.082-.13 2.108-.847 2.775-1.304 6.165-4.226 15.723-14.369 16.339-22.089.237-2.974-2.557-1.968-3.825-4.018 3.656.242 6.624 2.492 6.203 6.423-.212 1.985-4.115 7.516-5.527 9.365-3.658 4.789-6.492 7.616-11.556 10.764M333.05 40.17c.884.618 2.837-3.124 5.01-2.889.643.07 6.277 3.997 5.53 4.813-1.927-.59-4.186-4.164-5.195-.808l1.355 2.946c-1.1 1.025-2.669.653-2.398 2.662l-.694-.018c-6.403-2.56-9.334-9.829-4.584-15.34-.477 3.315-1.188 5.77.975 8.634M443.863 307.939c.947.91-5.187 5.006-5.758 5.513-7.169 6.348-11.6 10.421-22.192 8.29-2.693-.542-4.028-1.23-4.601-4.064-.15-.658.314-.755.745-1.005 1.953-1.133 5.571-2.32 7.821-2.971l-5.541 3.82c-1.202 1.868 2.575 3.148 3.905 3.331 10.046 1.385 16.72-6.443 23.207-12.634zM280.1 679.19c-1.606 1.437-4.555 2.576-6.07 4.247-1.565 1.726-1.637 4.11-2.552 5.367-.258.353-1.064.506-1.503 1.122-2.201 3.086-2.664 5.198-7.461 4.781-.09-1.199-.116-.821.718-.946 1.914-.287 2.91.442 2.636-2.408l-9.592.952 4.768-2.182c1.873-.521 3.808.17 5.662-.575 2.228-.897 3.357-4.531 4.713-6.323 2.726-3.603 6.823-4.898 10.526-7.227.46.664-1.486 2.87-1.845 3.192M71.94 452.005c.255.149.828 1.784 1.53 2.052a3.22 3.22 0 0 1-1.777 1.094c-7.263 1.618-19.983-1.01-27.101-3.393l-4.696-2.254c8.531 1.265 15.301 3.973 24.244 3.37 1.853-.124 6.477-1.639 7.8-.869M162.12 171.064c-.857.84-4.018 1.31-5.032.47-2.013-1.669 2.967-3.062-.91-5.09-4.218-2.208-8.062 4.071-7.376 4.731 1.936-.17 3.621.243 4.26 2.235l-.67 1.128c-1.676-.413-3.636-.86-3.594-2.88l-1.429.959c.119-.69-.477-1.521-.373-2.101.068-.382 4.855-5.194 5.465-5.517 3.07-1.626 8.423-1.895 10.534 1.39zm-2.521-1.806v.48q.467-.24 0-.48M199.665 315.137c-.16-3.801 1.218-7.477 1.472-11.27.13-1.945.163-7.34-.08-9.082-.489-3.51-3.732-6.787-5.715-9.395 1.01-.96 8.311 7.235 8.626 8.883 1.033 5.41-.867 14.372-3.115 19.417-.256.574-.463 1.32-1.188 1.447M396.201 437.335c-.437.488-1.986.91-1.75 1.842l1.91 1.443c-5.055 6.137-11.291 11.701-13.914 19.435-3.627-.24-1.611-2.962-.393-4.96 1.882-3.086 4.65-6.221 6.668-9.06 3.64-5.12 7.049-10.43 11.473-15.024 2.04-2.117 4.237-4.165 6.72-5.75-3.997 3.624-7.158 8.1-10.714 12.074M483.38 169.908c-4.045 4.67 4.756 4.381 4.145 8.945-.184.183-4.884-.455-5.164-.598-.233-.12-3.568-3.506-3.683-3.742-2.794-5.722 5.962-5.224 8.116-8.144 1.634-2.214-.12-3.058-.224-5.266 1.422-.501 3.906 1.922 3.739 3.015-.028.183-1.39 3.158-1.531 3.271-.964.781-3.637.488-5.398 2.52M248.118 270.987c.078 4.212-.747 10.112-6.36 9.021-1.944-.378-6.089-3.207-5.152-5.657 1.43-.022 2.34.566 3.848.288 3.597-.662 4.01-4.178 7.664-3.652M69.635 697.59c-.673.711-.87-.05-.955-.712-.19-1.494.163-3.192-.05-4.757-.394-2.902-1.619-6.235-1.86-9.176-.364-4.417.829-8.773.476-13.188.937.168.78 1.016.975 1.659.916 3.019 3.243 18.345 2.83 21.105-.229 1.519-1.559 3.3-1.416 5.068M259.148 45.938l-3.081-.432-1.71 1.863c1.069-6.312 12.382-8.362 13.81-1.08 1.484 7.575-11.375 8.743-9.02-.35m4.626-1.893c-.547.166-3.95 5.228-2.96 6.214 5.302 3.636 8.186-4.644 2.96-6.214M160.28 618.93c-.8 4.336-3.724 7.126-1.403 11.954-6.332.276-3.868-4.909-3.456-8.525.27-2.38-.79-2.797-1.96-.49-1.039 2.048-2.226 4.25-2.261 6.617l-1.22-.471c.179-5.029 4.409-12.016 10.3-9.084M295.139 306.977c1.339.275.936-.49.958-1.438.642-.566 3.588 1.95 4.468 2.489 1.264.774 6.45 2.478 2.863 4.73-2.496 1.567-2.933-1.377-4.203-2.43-3.73-3.093-8.715-2.922-10.216-8.977-.088-.354-.597-3.035.603-2.526.566.24 5.575 4.796 5.779 5.287.345.834-.462 1.93-.252 2.865m-.723-2.397v.48q.468-.24 0-.48M356.55 531.066l-.24 1.447-.521-1.457c2.439-5.07 6.627-8.76 4.6-14.854 1.415-.311 2.916.727 3.557 1.956 1.489 2.858-.486 7.589 5.066 4.515-1.976 2.075-2.56 3.502-5.485 1.69-.893 1.367-1.634 2.784-2.676 4.058-.894 1.093-2.86 3.682-4.301 2.645M243.32 351.122c-3.259-.145-6.146-2.085-9.003-3.227-.768-.308-1.85-.07-2.872-.487-2.302-.94-3.745-4.826-4.946-5.61-.605-.396-2.29-.677-3.242-1.097-.702-.31-1.298.268-1.045-1.089 8.075 1.682 15.553 5.408 21.108 11.51M189.582 187.495l-.118 42.485-2.276.701c.932-6.915.226-13.93.458-20.895.078-2.34.974-5.341 1.005-7.643.048-3.57.208-4.897.5-8.167.155-1.743-.816-3.648-.526-5.774.089-.653.348-1.51.957-.707M448.185 411.113c-2.947.555-4.398-2.395-6.001-4.32l-.238 2.395-2.867-1.677c-.002-.501 2.388-1.348 2.73-1.817 1.436-1.967.822-6.631 5.18-3.704 3.901 2.62.873 5.522 1.196 9.123M203.491 337.692l.507 9.376c-1.448 3.547 1.38 10.83-3.376 11.734-.191-6.987.194-14.124 1.41-20.899zM201.94 266.27c2.975-.526 6.025 4.026 5.73 6.817l-1.54 5.098c-3.283-1.391-3.432-3.947-4.398-6.629-.644-1.789-3.215-4.682.207-5.287M187.725 276.802c1.269-.241 2.944-.667 3.723-1.79 1.758-2.534.805-6.215 2.215-8.812.354.01 2.486 6.075 2.555 6.598.559 4.263-9.648 13.45-8.493 4.004M157.44 191.807c1.78-1.316-.736-3.867-2.263-4.213-2.228-.504-6.738.977-6.897 3.495-.27 4.245 5.679 7.127 9.15 4.797-3.642 5.556-12.49-.182-11.525-5.741.187-1.077 3.974-3.107 5.168-3.502 1.022-.338 5.283-1.162 6.03-.993 2.016.455 4.168 6.003.337 6.157M351.268 10.42c-.427.434-2.4-.832-3.141-.932-6.354-.856-14.068.92-19.81-.821-2.426-.736-1.38-2.441.13-2.522.616-.034 1.54.452 2.414.462 3.446.043 7.697-.394 11 .031 3.014.388 5.747 3.003 8.71 1.979.697.088.915 1.582.697 1.803M395.543 320.778c.066.119.73.086.817.442.736 3.02-.596 4.923-2.901 6.601-.97.706-5.5 2.962-4.061.258 1.267-2.382 6.574-1.506 2.107-8.317l-3.773-3.183c1.626-.498 7.73-.165 8.056 1.727.128.745-.72 1.604-.245 2.472M377.175 19.539c-4.768-.676-9.006-.569-13.524-2.544-.557-.244-2.626-.823-2.3-1.526.71-1.536 3.361-.27 4.501-.294.883-.019 1.814-.543 2.93-.48 1.587.09 6.276.646 7.596 1.087 1.31.438.694 2.62.797 3.757M463.389 271.322c-.413.432-2.333 1.467-2.728 1.103.157-3.047 1.124-4.226 2.895-6.474l-1.935-1.918 6.481-5.017c.994.844 1.45 2.187 1.095 3.45zM164.747 270.4c-1.271-.867-1.088-3.916.024-5.035 3.904-3.929 9.822 3.43 5.824 7.02zM84.996 677.917c.206 1.774-2.754 1.584-3.82 1.171-1.647-.639-4.57-5.68-5.073-7.396-.983-3.346-.38-8.518 1.456-11.53.275 1.702-.319 3.186-.189 4.973.289 3.96 2.753 12.717 7.626 12.782M396.369 298.336l-2.658.939.26 1.943c-2.751.29-6.46.403-6.69-3.145.12-2.058 7.612-4.575 9.334-5.96l-2.156 3.097zM491.365 180.78c-.403 1.067-.852 2.093-1.516 3.036-1.724 2.446-4.661 5.74-7.119 7.282-.09 2.3 5.187 2.19 4.796 3.827-3.118 3.227-8.902 1.614-7.136-3.283zM445.784 40.172c-.258.243-4.961-1.92-5.619-2.293-2.91-1.648-2.22-1.736-5.388-2.738-3.494-1.104-8.803-4.491-12.479-5.788-.786-.277-1.61-.233-2.423-.217l.006-1.436c5.772 1.838 11.695 3.406 17.115 6.15 1.982 1.004 3.682 2.564 5.472 3.659.637.39 3.332.227 3.316 2.663M165.115 245.073c-2.195.179-3.765-.045-4.893-2.058-3.088-5.512 2.535-2.931 2.956-3.227.548-1.957 1.242-3.144-.933-4.066 1.792-1.102.392-2.462.452-3.323.018-.25 2.002-.82 1.465-2.198.642.083.846.651.937 1.217.738 4.598-.73 9.247.016 13.655M364.702 36.813c-2.122-.19-1.894-3.274-3.028-4.648-.093-.112-2.126-1.732-2.268-1.81-2.854-1.569-12.123-.62-7.187-5.056.647 2.713 4.516 1.613 6.762 2.125 4.08.93 6.412 5.47 5.72 9.389M32.212 785.885c1.817 5.624-.505 8.133 4.782 12.257 1.211.945 3.349.872 3.377 2.615-2.775.54-8.204-2.386-9.23-4.919-.954-2.351-.02-4.145.072-6.302.049-1.128-1.554-3.506.999-3.651M232.77 214.845c.456-1.314-.03-2.741.06-4.016.532-7.519.504-14.482.412-22.13-.022-1.862-1.011-3.93.243-6.01l1.219 11.783c-.739 5.72 1.525 13.628-.624 19.05-.224.565-.699 1.173-1.31 1.323M412.682 448.064c.148.118-.935 1.614-1.188 1.926-1.51 1.854-5.728 6.384-7.49 7.865-.8.673-3.703 2.58-4.61 2.59-1.035.011-3.097-1.607-.885-2.808 1.881-1.022 3.743-1.881 5.497-3.14 1.24-.89 7.676-7.226 8.676-6.433M293.223 45.453l-.945-2.174c-4.726.314-4.044 9.874-9.607 3.374 2.368-.544 3.15-3.149 4.604-4.024 1.515-.912 6.627-1.747 7.628-.064l.004 2.421zM401.766 341.414c5.64 2.33 9.791-1.202 14.745-3.009-4.515 3.344-6.916 6.62-13.133 5.948-4.622-.5-7.023-3.588-2.215-6.183zM90.748 672.153h-1.921c-.71 2.931 2.215 4.367 1.919 7.2-1.256-1.068-2.334-2.867-3.123-4.31-.631-1.154-4.368-8.4-4.468-9.006-.223-1.357.529-4.395 1.6-5.395.725 1.758.221 4.566.964 6.23.084.188 2.236 3.23 2.389 3.368.848.77 2.84.194 2.64 1.913M409.323 470.616c.355 1.985-2.429 2.13-3.118 3.368-.569 1.02.329.579-1.395 2.915-1.94 2.626-1.958 5.47-3.717 8.297-.498.8-2.059 1.045-1.85 2.689-.962.218.049-2.012-1.188-1.432-.645.302-3.61 5.507-3.12 6.713 1.581-1.122 1.33-3.018 3.767-1.953l2.23-3.795c-.929 2.057-1.306 6.496-4.086 5.745.329 2.1-.068 2.322-1.678 3.36l-.231-1.065c-1.278-1.399-1.478.623-2.401 1.067.914-2.412 1.907-5.459 3.094-7.698 1.674-3.158 4.953-6.07 6.42-8.934 1.124-2.196 1.456-4.194 3.047-6.55 1.177-1.743 1.977-3.654 4.226-2.727M338.796 351.602c-3.857.18-8.78-.72-11.753-3.356-1.397-1.239-5.758-7.657-4.835-9.118 2.108-3.334 3.027 3.487 3.55 4.645.953 2.107 3.257 4.274 5.36 5.195 2.444 1.07 5.754.862 7.678 2.634M513.43 225.4c-.918.104-.309-.934-.246-1.445.336-2.702 1.32-5.428 1.64-7.96 1.013-7.993.142-16.864.993-24.44.08-.72.1-1.481.972-1.662 1.52 6.847-.131 13.636-.948 20.4-.313 2.592-.151 5.242-.628 8.01-.422 2.45-1.336 4.674-1.783 7.096M232.288 73.763c3.174-.019 1.934-4.307 5.75-4.797.692 3.555-4.338 3.888-5.572 7.186l-3.537.013c-.84-2.015.828-8.3 3.545-7.643 2.652.641-1.004 4.413-.186 5.24M420.355 327.137l-6.331 3.018c-6.029 1.272-14.856 5.347-20.825 2.789-1.129-.484-1.316-1.436-2.105-2.214l7.872 2.117c7.007-2.509 14.323-3.441 21.389-5.71M40.373 539.229c-2.153-.118-4.297-1.231-4.358-3.616-.009-.32 1.115-4.79 1.243-5.014.264-.46 1.519-.953 2.009-1.373 3.177-.498.156 8.735 1.106 10.003M380.534 323.297l-3.361 6.47c-3.62 3.267-8.39 4.242-12.159.655-1.376-1.31-1.998-3.414-.315-4.726-.066 3.942 2.461 3.69 5.257 4.582 1.37.438.937 1.697 3.957.543 4.053-1.548 3.818-6.726 4.676-7.315.563-.385 1.326-.174 1.945-.209M348.396 342.009c.13-1.524 1.739-1.94 1.91-3.642.204-2.017-2.398-4.98 1.094-6.573.554-.253 10.775 3.177 10.903 3.744l-1.171 1.19c-2.049-.415-6.766-3.256-8.554-2.806-1.797.453-.685 2.174-.845 3.467-.224 1.824-1.534 4.035-3.337 4.62"/><path d="m362.785 42.09-2.882.761c-2.622-1.265-3.172-10.737-1.174-11.307 3.376-.961 1.41 5.448 1.677 6.924.252 1.4 1.73 2.445 2.379 3.621M392.531 47.85l-1.924-.002-.708 1.92c-1.246-1.692-1.996-3.629-3.416-5.224-.582-.654-3.995-3.095-4.018-3.65-.071-1.8 2.52.514 2.752.598 1.052.383 2.567.347 3.456.862.515.298 4.375 5.03 3.858 5.496M61.964 825.237c-1.828 2.453-3.835 4.976-2.881 8.15-1.808-.009-2.828-1.038-4.311.483-.87-5.026 2.157-8.324 7.192-8.633M71.56 803.637l-6.268-.214c-.448-.3-.582-4.452-.21-5.061.173-.284 1.8-1.388 2.16-1.234.967.416 1.718 2.534 2.385 3.405.743.97 2.525.87 1.934 3.104M250.998 49.774l-.069 1.851c-2.022-.16-3.295 2.302-4.265 2.714-.605.257-1.252-.266-1.882-.008-1.043.426-2.522 2.6-4.34 2.154.232-2.735 1.227-2.199 2.58-3.433 2.529-2.308 4.089-3.596 7.976-3.278M39.896 495.563c-.434-1.505 1.187-.708 1.716-1.407l-.273-3.838c1.422-.725 3.132.063 4.344-.216.607-.14 1.79-2.57 2.353-.502.147.538-2.784 4.82-3.353 5.237-1.425 1.045-3.124.713-4.787.726M60.522 488.37c.433 1.645-1.428 2.07-1.81 3.224-.119.36-.96 3.615-.98 3.814-.073.733 1.478 1.735.636 2.555-2.486-2.509-5.416-3.374-2.847-7.165 1.22-1.8 2.712-2.868 5-2.428M329.197 335.29c-.06 2.445 2.332 4.133 4.323 5.038 1.481.673 5.916 1.954 7.478 2.127 1.797.198 2.781-.358 4.28-.45.955-.058.75.103.715.959-3.733.72-8.089.93-11.632-.598-.633-.272-5.062-2.926-5.375-3.261-.922-.984-2.164-3.84.21-3.814M89.311 147.904c.083-.543.843-1.89 1.446-.954l-.491 29.026c-.308.035-.955-.638-.955-.72zM453.943 268.115c-1.587 2.017-4.79 5.362-7.318 5.93-.47.106-4.497-.837-5.152-1.383l3.619-1.168c2.66-1.772 5.755-2.677 8.85-3.38M205.418 692.07c.074.756 1.094 5.202 1.4 5.68.386.603 2.385.892 2.428 1.518.09 1.289-2.036.29-2.631-.238-3.497-3.103-3.318-11.798-2.014-15.939.16-.507.123-1.447.817-1.338.236 3.327-.323 7.042 0 10.317M364.222 318.978l-2.432 2.603c-4.65 2.843-10.558-1.213-5.96-5.962-.127 6.854 4.04 3.574 8.392 3.36M229.646 84.322c.375.105 2.245 2.671 2.153 3.087-1.243 1.275-4.592 2.977-4.789.28l1.437-.963-7.442-1.444.485-.96c2.194.39 6.259-.532 8.156 0M210.69 691.832c1.023 7.817 5.11 8.14 11.51 5.032-2.632 4.552-10.862 4.905-12.247-.688-.14-.566-1.05-5.675.736-4.344M391.077 14.753c.454.878-.025 2.723.253 3.33.082.178 2.588 2.679 2.76 2.77.143.076 2.775.868 3.083.931.76.157 2.098-.95 2.555.63-4.887.565-11.563-.85-11.546-6.878zM242.358 78.086c-.021 4.382-.144 8.409-5.272 9.113l2.178-7.174zM384.373 330.015l-5.423 8.005a58 58 0 0 1-12.806 5.904c1.388-1.852 4.2-2.097 6.183-3.168 4.754-2.571 6.747-6.48 10.358-9.794.528-.486.828-1.128 1.688-.947M483.55 216.906c1.105 1.257-1.537 5.919-2.257 5.135-.621-2.94-.454-7.205-4.318-6.954.859-1.123 1.597-1.414 3.005-1.116.64.136 3.07 2.367 3.57 2.935M447.213 475.88l-1.429.014c.859 1.301-.237 3.092-1.457 3.619-.988.427-1.826-.543-2.645.156-1.245 1.063-1.338 5.206-3.334 6.298l-.292-.874-1.384.392c.193-1.484 1.724-1.664 2.415-2.615.722-.994.73-2.538 1.86-3.422.928-.729 2.187-.537 2.494-.968.377-.531 1.88-4.655 2.354-4.985 1.455-.13 1.576 1.2 1.418 2.385M305.215 42.093l-.486-2.88c-2.036.773-3.54.001-5.492-.019-.999-.01-3.495 1.485-3.14-.452 1.978-.685 10.72-1.965 11.477.293.512 1.526-1.801 3.557-2.36 3.058M232.764 92.965c-.89 1.26-2.614 1.122-3.999 1.993-.994.625-1.57 1.666-2.576 2.27l-3.016-1.635 4.654-3.01zM438.11 326.658c-4.63 4.032-9.158 7.71-15.353 9.108 1.481-2.875 4.803-3.163 7.217-4.534 2.688-1.526 5.123-3.623 8.136-4.574M378.615 11.387c.089.827-1.655.527-2.174.495-1.972-.124-3.997-.658-5.995-.724l-11.016-6.49c6.368 1.964 12.523 6.37 19.185 6.72M252.436 317.051l-1.437-1.677 2.516.715 2.279 2.405c-1.215-.568-2.591.742-3.13.786-1.118.09-6.888-5.562-6.46-7.502.127-.153 3.15 1.936 3.338 2.174.93 1.188.36 3.462 2.894 3.1M478.406 241.714l-.712-3.353c-2.22 2.717-5.142 4.794-8.396 6.233l5.777-5.013.943-3.145c2.617.916 2.597.606 4.075-1.434zM357.023 485.009c-.865-.179-.9-.95-.976-1.666-.442-4.14 4.198-13.088 6.733-16.569-2.036 6.027-5.745 11.647-5.757 18.235M484.174 277.227c-.183-.851.451-1.168.942-1.692 1.355-1.447 2.93-2.688 4.319-4.318 2.578-3.024 4.934-6.32 7.222-9.572l11.976-24.244c-5.344 14.72-12.61 29.325-24.46 39.826M258.722 60.372c1.407.112.933-1.958 1.486-2.355.483-.346 2.454-.055 3.022-1.52 2.947 2.133-1.97 7.321-4.553 4.544zM165.255 143.213c-.882-.815-.727-3.028-.255-4.066 1.451-3.191 3.303 2.45 3.878 3.89l-1.188 1.212c-.13.021-2.32-.93-2.435-1.036M435.709 407.276c-.672 1.315-3.014.818-4.34 1.17-4.046 1.073-7.674 2.952-11.49 4.578 3.955-4.052 10.216-6.1 15.83-5.748M67.719 808.915c-1.793-.194-8.33-1.478-7.674-4.068l1.437-.494c1.982 1.776 5.6 1.342 6.237 4.562M53.328 783.96c-.945.22-1.137-.487-1.633-1.002-.67-.696-4.998-7.21-4.602-7.629l4.736 3.656zM342.637 30.1c1.873-.298 2.61.641 3.308 2.205.328.736 1.638 4.712.28 4.988-1.38.28-3.155-5.878-3.588-7.193M26.205 819.256c1.289 1.584.07 2.453 2.171 3.342.177.618-.095.948-.708.71-.304-.118-4.837-3.52-5.225-3.894-2.516-2.428 1.291-3.195 3.762-.158M485.61 202.857c2.422-.99 3.511.684 5.267 2.151l-2.212 2.056c-2.685-.033-2.856-1.96-3.055-4.207M448.178 290.185c2.546 2.483-3.183 8.046-5.029 9.597-.539.453-.78 1.164-1.68.954 1.064-2.081 3.29-3.372 4.343-5.488.628-1.262.774-2.707 1.291-4.01.124-.312.174-1.932 1.075-1.053M281.703 350.172c.722.65-.066.884-.721.965-2.962.366-6.647-1.559-6.474-4.807 3.183-.185 4.002 4 7.195 3.842M257.234 15.697c1.232-1.551 3.734-1.495 5.604-2.308 1.715-.746 4.16-3.748 5.9-1.766-3.406 2.718-7.278 3.63-11.504 4.074M234.197 175.015c-.68.66-.876-.03-.955-.708-.49-4.187-.58-8.522-.952-12.724l1.85 7.02c-.087 2.278 1.04 4.235.057 6.412M466.42 255.631c-.614-3.693 3.749-4.321 6-6.226.486 1.626-5.154 7.122-6 6.226M167.03 261.39c-.787.142-.556-1.23-.489-1.688.218-1.481 1.184-2.522.972-4.066l-4.306 2.162c1.605-1.57 2.922-3.61 5.446-3.568 2.346 2.162-1.388 4.817-1.623 7.16M61.966 584.343c2.795.368 1.008 4.732.957 6.476-.04 1.41 1.389 3.304-.24 4.549-1.588-1.11-.166-2.762-.25-4.046-.05-.781-.74-1.376-.812-2.004-.136-1.2.778-3.476.345-4.975M313.372 610.253c.489-1.155-.887-1.515-.95-1.78-.535-2.244.84-4.652 2.86-2.538l.717-2.875c1.021.74.657.866.353 1.77-.539 1.601-1.802 4.16-2.98 5.423M369.448 506.656v1.333c-3.01.848-4.268 2.63-5.468 5.322.084-2.08.537-4.228 2.68-5.063l-1-2.353c.252-1.5 3.057.826 3.788.761M26.455 287.782c-.837.113-.45-1.088-.475-1.672-.271-6.62-.159-13.3-.475-19.917l.975 5.496zM408.844 23.864l10.065 3.594c-2.11 2.049-4.483-.49-6.272-1.394-1.277-.646-3.212-.48-3.793-2.2M390.97 345.03c.079.03 1.008 1.049 1.078 1.292-2.13.569-4.576 2.7-6.704.726.01-.53 4.703-2.374 5.626-2.018M157.437 204.286c-1.587-.096-2.1-2.007-3.71-2.32-2.366-.457-7.908 1.726-8.757-2.474.748-.042.55.93 1.23 1.4 2.768 1.914 9.442-2.392 11.237 3.394M92.66 673.12c.06.053.217.94.699 1.445 1.77 1.851 3.77 3.436 5.548 5.264-2.23-.201-6.835-3.887-7.208-5.99-.157-.883.606-1.035.961-.72M457.783 51.214l1.384-.462c.71 1.984 2.776 3.193 4.137 4.772 4.444 5.157 8.81 11.891 11.68 18.07 1.18 2.54 1.631 5.302 2.938 7.613-2.82-1.365-.254 3.067.265 3.58.567.559 1.575.584 2.179 1.18 1.975 1.945 4.54 6.946 5.282 9.633.56 2.029.153 1.846 1.115 4.126 4.115 9.747 4.163 19.234 8.98 29.403 5.318 11.221 25.225 27.132 21.501 40.34-.668 2.371-3.872 7.633-6.685 6.75 1.119-.646 5.147-6.02 4.313-6.959-1.36.157-1.534 1.395-2.843 2.19-3.837 2.332-10.577 2.91-10.589-3.15l2.912.207c.416 4.207 4.086 3.532 6.665 1.451 1.648-1.329 3.144-6.968 2.82-8.976-.298-1.837-4.872-10.14-6.146-12.132-3.323-5.197-8.375-9.427-11.432-14.477-2.17-3.583-3.86-8.215-5.38-12.14-1.194-.262-1.443 1.413-2.196 2.356-2.303 2.881-4.214 5.598-8.35 5.798-.026-1.81 1.012-4.144.397-5.92-.245-.707-6.254-5.306-6.93-7.972l1.592-2.43 3.979.004-1.925-8.152c-2.401.263-5.887 1.858-5.045-1.923 1.351-6.073 7.66-4.278 11.53-1.92.362-1.953-.982-4.881-1.792-6.844-1.853-4.49-3.321-7.492-3.25.126-3.661.114-1.955-4.734-3-7.31-.321-.792-3.962-4.467-3.232-5.161 1.827-.337 2.762 1.887 2.88 3.358.627-.104 2.099-.18 1.848-1.116-.431-1.605-5.28-8.575-6.665-9.187-1.192-.527-2.804.206-2.872-1.692l-.957.26.004 1.66c-3.431.464-4.043-2.546-6.375-3.942-2.975-1.782-6.596-2.238-9.464-3.492-.904-.395-1.725-1.488-2.247-1.611-1.971-.465-8.671 1.153-11.376.85-2.784-.312-8.795-2.265-11.577-3.306-1.888-.706-3.523-1.96-5.495-2.416-.375.392 1.925 5.88 2.989 6.362 1.887.856 7.217.783 9.61 1.426 1.3.349 3.559 2 4.51 2.145 1.038.158 2.197-.815 3.91-.53 2.062.343 3.497 2.136 3.719 2.136.677.002 1.335-.788 2.003-.912 1.742-.324 3.634 1.08 3.971 2.803l.706-1.426 6.472 4.553-5.033-2.633c-.272.322.366 1.226.59 1.454 4.835 4.92 13.026 6.45 15.588 14.03 1.797 5.313.157 7.296-.552 12.17-.136.94.467 1.779.356 2.699-.264 2.183-2.453 3.479.096 6.101l-1.615.026-1.986-2.898-.962 1.437c-1.51.393-2.523-6.225-2.627-7.445-.463-5.482 1.562-10.48-.955-15.36-4.87-9.44-10.426-11.756-20.52-13.546-3.706-.657-10.478-.63-13.283-1.591-1.369-.469-2.019-1.752-3.435-1.884-2.181-.203-5.968 1.18-8.513.398-1.4-.478-2.617-4.688-3.45-5.666-1.35-1.581-5.738-1.615-5.417-4.93.362-3.731 2.797-4.31 6.146-3.722.184-2-2.044-2.188-2.816-3.66-1.064-2.026-1.051-5.44 2.023-4.429.736.242 1.878 3.566 2.96 4.726 8.173 8.763 18.016 8.975 28.776 10.569 8.528 1.262 16.002 3.63 23.746 6.96.877.377 7.754 8.448 8.16 7.91-1.12-5.8-5.402-10.718-8.54-15.687-1.207-1.91-1.942-4.069-3.49-5.877l-1.396.453c-.311-5.687-7.46-8.284-9.27-13.05-.16-.419-.747-1.473.145-1.346 1.225 2.902 5.176 3.345 4.806 7.197M417.84 62.845c-.213-.223-5.081-2.988-5.389-3.005l-.731 2.89c-1.188.587-.854-.927-1.197-.982-1.705-.275-2.3 1.407-.693 2.168.442.209 1.097-.143 1.42.051 1.56.937 3.928 5.27 5.955 5.514.98.117 2.135-.136 3.151-.037.262-.237-2.273-6.343-2.516-6.599m66.804 41.149v-.955h-.47v.955zm-.95 10.559c1.546-1.43 1.689-5.497 1.457-7.464-.174-1.485-1.3-2.652-1.99-.985-1.032 2.494.349 5.813.533 8.449M436.671 461.97c-.498-.449 3.857-4.013 4.074-4.317.77-1.08.488-2.452 1.446-3.353l.474 1.434 2.632-1.681c-2.386 2.124-4.528 4.933-6.946 6.964-.538.452-.78 1.164-1.68.954M87.39 303.623c-.102.958.201 2.12-.012 3.022-.101.433-1.266 1.768-1.426 3.935-.076 1.034 1.26 2.513-.474 3.117-.032-2.902-.119-5.917.625-8.748.233-.888.109-1.6 1.287-1.326M454.596 259.297c.305.326 1.09.452 1.204.931l-1.167 2.59-2.08-1.178c1.072-1.257.895-2.133.432-3.604 1.086-.236 1.09.704 1.61 1.261M345.031 334.818c.841.918-1.22 1.069-1.359 1.705-.128.587 1.055 1.966-.791 2.125-2.8-1.52.164-5.998 2.15-3.83M56.202 568.985c-2.807-.974-2.614-8.378.486-5.508-1.12 2.398-1.746 2.957-.486 5.508M353.665 483.568c-2.951-1.892-.43-4.816-.954-7.193 3.123.507-.27 5.062.954 7.193M304.257 627.528c-.238-.294 2.444-6.278 3.349-6.717-.453 2.688-.21 5.78-3.35 6.717M84.031 652.484c-.334 2.112-1.168 5.14-3.833 4.794-.151-.137 1.678-3.285 1.918-3.595.466-.6 1.052-1.341 1.915-1.2M152.162 253.714c-.745.112-.565-.893-.71-1.444-.563-2.144-1.609-5.374.71-6.714zM379.577 523.878c-.644-.2-1.718.166-1.919-.955l1.908.015c.105.297-.063.714.011.94 2.693.833 1.497.789 3.097 2.42.704.719 1.784.985 2.18 1.894-2.705.318-4.56-2.149-5.277-4.314M161.752 149.585l.286 2.91-2.912.927-.492-.959zM439.074 326.173l3.578-4.334 3.13-2.383c.21.9-.501 1.142-.954 1.68-.518.617-5.308 5.478-5.754 5.037M179.983 270.026l.065-7.856c.686-2.122.668-4.417 1.115-6.561.152-.729.396-2.65 1.22-2.852-1.458 5.698-1.296 11.523-2.4 17.269"/><path d="M451.51 43.093c2.209 3.259-5.4-.938-5.244-2.434zM377.656 524.36c.163 1.285-2.339 3.846-3.354 2.874-1.002-.959 2.4-3.349 3.354-2.874M156.957 191.334c.217 2.893-6.05.628-4.791-.48zM481.77 243.162c-.008 1.007-3.754 3.448-3.826 1.678-.062-1.517 2.587-2.033 3.826-1.678M469.773 288.747c.364 1.553-.919.553-1.477 1.254-.246.308-.225 1.073-.703 1.59-.385.417-3.16 3.282-3.572 2.91l3.528-4.625zM145.44 182.21c-.634-.12-.957-3.358-.905-3.533.037-.122 1.486-1.491 1.865-1.738zM249.08 649.12c-.477-.513 2.488-4.442 3.351-4.796.07.803-2.614 5.59-3.351 4.796M464.018 257.078c.342.327-3.042 4.107-3.833 4.314-.183-1.034 3.142-4.974 3.833-4.314M190.062 632.332l-2.079.778-4.153-1.258zM155.997 258.039c.043.78-2.074.928-2.388.739-.557-.335-1.614-2.313-1.442-3.142.806.088.588 1.083 1.45 1.662.606.407 1.648.571 2.38.74M144.01 189.892c.203-1.484-.724-3.975.95-4.798-.201 1.483.725 3.974-.95 4.798M394.445 500.363c-.833.77-1.83-2.438-1.91-2.878l2.203.94zM191.509 342.969l2.389-6.716c-.245 2.158-.536 5.33-2.39 6.716M83.548 185.09c-1.023-.442-.671-3.615.48-3.835zM387.251 504.685l-.002.711-1.202 1.205-1.188-.725-.004-.709zM345.51 280.589c.526.533-1.874 2.921-2.394 2.394-.317-.883 1.934-2.86 2.394-2.394M244.753 105.912c-1.022-.442-.67-3.614.481-3.835zM95.548 691.347l-2.396.481.002-.711 1.201-1.204 1.188.725zM156.478 643.366c.134 1.185.03 2.527-1.435 2.395l.485-2.395zM463.539 65.132c2.102.29 2.825 2.878 4.308 4.079zM270.185 323.772c-1.24 1.24-2.575-1.904-.717-1.908.496 0 1.013 1.612.717 1.908M384.852 348.725h-1.915l.001-1.435c.884-.112 1.407-.029 1.912.725zM85.957 195.65c.137-.695.057-2.717.95-2.875.572 1.373.545 2.222-.95 2.875M448.188 474.45l2.871-3.837c.012.7-2.13 4.575-2.871 3.836M158.877 205.25l-.473 3.355c.495-1.07-1.459-3.757.473-3.355M231.803 156.784l-.003 2.394-.468-.001-.484-2.393zM156.958 232.118c-.346.321-1.908-.139-1.917-.952l1.2-.476c.448.238 1.005 1.16.717 1.428M156.957 232.602l.001.95-1.914.486-.001-.951zM402.119 492.205l-.949-.001.001-.71 1.431-1.207zM308.572 612.655h1.434v.955h-1.434zM355.586 3.23c.007.939-1.976.443-2.51.347-.886-.16-2.427-.304-2.765-1.307 1.788.366 3.357 1.3 5.275.96M463.056 295.465v.955l-1.437-.003.727-.95zM245.244 120.794h.47v2.395h-.47zM240.441 704.791c-.234.922-1.06 1.08-1.916.95-.496-.231 1.292-1.145 1.916-.95M451.538 469.65c-.068.067-.314-.025-.469 0-.13-.855.028-1.682.95-1.916.051.377-.371 1.807-.481 1.916M75.882 762.373h.47v2.395h-.47zM440.024 388.076l-.945-.72.713-.717zM279.788 50.251c-.32-.6.768-1.672.95-1.439.32.601-.768 1.673-.95 1.44M310.491 601.133l-1.911.248 1.672-1.202zM305.21 611.688c2.208-.278 1.588 2.009 3.394 2.684.09.497-1.747 3.267-2.246 3.986-2.53 3.648-4.388 5.772-7.632 8.682-.421.378-5.197 8.592-5.313 9.107-.186.822 1.785 1.596 1.246 2.896l-1.922.005c3.11 5.063-7.287 8.58-8.077 10.871-.959 2.781 1.546 8.24 1.832 11.45.046.518.383 2.233-.466 2.146.43-3.293-4.368-11.276-3.879-13.586.131-.617 2.765-.642.525-2.971l1.69-.199c-.223-3.55 2.86-3.286 4.984-5.141-.872-4.304-.615-8.117.99-12.167-4.918 1.555-2.84 5.759-3.335 9.376-.288 2.108-3.015 4.494-4.337 6.219-1.284 1.674-1.693 4.013-3.752.399 1.116-2.655 4.25-4.52 4.963-7.346.298-1.183.086-4.514.303-4.743.15-.16 1.056-.065 1.579-.556 3.618-3.397.305-5.89.225-9.35-.058-2.526 3.282-10.394 4.837-12.476 1.318-1.763 3.745-3.423 5.747-4.324-.813 1.41-2.603 1.735-3.598 2.635-2.123 1.922-6.016 11.276-5.26 13.898.401 1.396 2.866 4.625 4.564 4.154 3.227-.893 8.615-11.649 10.146-14.839 1.017-2.116.822-5.379 4.221-2.967zM390.617 503.244l.233-1.438.712.718zM145.443 158.698l-.955-.235.952-.722zM410.283 478.295l-.955.955-.002-.957zM469.78 79.526h.47v1.435h-.47zM170.871 637.603l-1.427.247 1.192-1.202zM347.435 2.26v-.47c.88-.118 1.402-.027 1.906.72zM398.288 497.01l-.954.955-.002-.957zM410.76 469.651l-.954-.235.952-.722zM33.183 724.465l.48.242-1.21 2.624zM380.059 40.179h.955v.47h-.955zM407.409 481.172h.47v.955h-.47zM255.797 15.706h.955v.47h-.955zM512.481 225.884h.47v.955h-.47zM511.99 229.237c-.062.067-.315-.023-.47 0 .125-.728.255-2.046.952-1.912.073.162-.415 1.84-.482 1.912M250.522 261.394h.47v.955h-.47zM168.959 307.941h.47v.955h-.47zM199.665 321.377h.47v.955h-.47zM276.43 326.176h.47v.955h-.47zM356.07 3.71h.955v.47h-.955zM380.062 347.77h.47v.955h-.47zM378.14 349.212h.955v.47h-.955zM341.197 352.571h.955v.47h-.955zM332.561 353.531h.955v.47h-.955zM198.706 366.965h.47v.955h-.47zM441.951 386.162h.955v.47h-.955zM311.453 608.816h.47v.955h-.47zM480.815 412.552h.47v.955h-.47zM481.295 414.951h.47v.955h-.47zM306.173 601.621h.955v.47h-.955zM408.124 23.38q.468.24 0 .479zM299.214 604.495q.468.24 0 .48zM328.96 556.029q.468.24 0 .48zM330.17 555.314l1.195-1.195.226.225-1.196 1.195zM276.19 630.897c.477.315-.224.635-.49.94l-.225-.225zM364.944 343.929q.466.24 0 .48zM152.402 547.391q.468.24 0 .48zM257.474 649.122q.466.24 0 .48zM385.344 320.18l1.675-1.674.225.225-1.675 1.674zM447.946 317.536q.466.24 0 .48zM364.464 531.076q.468.24 0 .48zM419.876 459.581l-.898-.045-.056-.673c5.07-5.289 9.015-11.633 15.345-15.602.68.77-4.767 4.953-5.519 5.752-.69.734-3.6 4.185-3.84 4.84-.425 1.166.395 1.99.268 3.061-.2 1.693-3.68 2.875-4.785 3.895-1.134 1.048-1.404 2.887-3.156 3.556zM27.18 723.501q.466.24 0 .48zM30.058 723.501q.468.24 0 .48zM397.09 498.445q.465.24 0 .48zM14.467 802.197l-2.6-.005-.29 1.208c2.843.381 1.926 2.854 3.134 4.552.891 1.254 7.888 6.084 8.393 3.594l-1.44-5.025c5.32 1.15 11.923-.02 16.506-2.946.874-.558.839-2.616 2.674-.656-.75.571-1.402 1.692-2.133 2.176-2.182 1.446-6.156 2.259-8.762 2.753-1.527.29-4.073.007-5.41.828-.838.513.467 2.173.968 2.424 1.97.99 9.48-1.501 9.152 2.863-.086 1.148-1.918 1.186-2.916 1.44-7.733 1.968-8.553.542-14.7-2.586-1.319-.671-2.906-.724-3.984-1.294-.729-.385-2.979-3.677-3.379-1.422l1.672 4.565c-2.065-1.457-2.674-4.18-4.085-5.987-2.425-3.105-7.974-4.71-7.192-9.836 1.753-.17.987 2.18 2.13 3.383.614.646 1.765 1.009 2.662.935.754-3.805.822-7.964 4.072-10.533 2.123.23 6.304 8.789 5.528 9.569m-5.282-1.916c-2.248.09-1.797 3.355-.237 4.308 1.511-1.146.26-2.858.237-4.308M164.876 505.163q.468.24 0 .48z"/></g></svg>