<?xml version="1.0" encoding="UTF-8"?><!DOCTYPE svg PUBLIC "-//W3C//DTD SVG 1.0//EN" "http://www.w3.org/TR/2001/REC-SVG-20010904/DTD/svg10.dtd" []><svg xmlns="http://www.w3.org/2000/svg" xmlns:xlink="http://www.w3.org/1999/xlink" height="746" viewBox="0 0 422.808 746.491" width="423"><g filter="none"><path d="M151.94 130.643c.557-3.227 6.286-2.405 7.106 1.087.45 1.92-1.916 4.413.53 6.63 2.175 1.97 4.562-2.94 7-.764 1.53 1.366.629 2.879.726 4.076.466 5.735-.56 8.186-2.947 13.384-.61 1.328-2.664 3.755-2.825 4.895-.204 1.443 3.432 8.857 5.032 8.84 1.802-1.578 10.306-3.013 10.72-5.099-.996-4.44-2.817-10.258.924-13.849-.477-1.78-2.745-2.136-1.794-4.083l-1.907-.02c.01-2.19-1.277-4.188-.962-6.423.401-2.855 1.91-6.397 3.804-8.589.409-.472 1.193-.187 1.498-.615 1.168-1.64 1.476-9.014 1.079-11.145-.465-2.49-4.153-8.845.937-9.051 2.888-.117 7.704 1.529 10.821 1.988.896.132 2.004-.362 3.152-.2 3.179.447 4.98 2.451 4.597 5.74-1.502.402-2.73-1.052-4.038-.959-2.376.17-5.926 2.877-8.639 1.49l-.52.416c-1.677 2.662.51 5.506.245 7.412-.026.19-1.117 3.45-1.206 3.63-1.27 2.556-6.04.718-7.117 4.92-.258 1.007.087 1.956-.214 3.06-.302 1.112-1.35 2.222-1.425 2.891-.033.29 1.137 5.173 1.336 5.686.92 2.374 4.178 3.96 6.71 3.855 1.054-.629-.867-3.01-.992-4.336-.383-4.052 3.168-10.538 6.506-12.71 1.535-.998 3.88-1.274 5.66-.855 1.856.437 2.434 2.992 5.289.889 1.603-1.181.349-3.972.445-5.443.055-.837.38-1.614 1.312-1.303 1.11 2.489 2.861 6.124 2.927 8.872.117 4.914-5.52 6.794-4.07 12.648.323 1.297 1.907 2.643 2.084 5.177.126 1.795-.962 3.94-.374 5.614.483 1.375 6.037 3.014 7.596 2.71-.077-.744-.416-1.403-.455-2.168-.167-3.227 2.276-5.34 3.903-8.056.648-1.082.818-2.423 1.42-3.38 2.67-4.248 7.293-8.145 10.625-11.96.457-1.865.537-4.003.85-5.836.564-3.299 1.258-5.788.805-9.501-.265-2.176-2.09-4.793-.356-6.595-2.39.2-2.083-2.499-3.142-4.3-2.057-3.497-8.014-4.959-6.447-9.137l.479 1.916 2.394-.485c.232-.17-2.755-2.509-.334-5.128.552-.597 1.68-.696 2.266-1.463.891-1.165 1.678-6.046 1.408-7.534-.191-1.052-1.287-1.987-1.652-3.154-.343-1.102-1.3-4.6-1.21-5.504.122-1.22 1.914-1.89 2.17-3.07.428-1.965-2.479-4.029-3.513-5.666-1.497-2.369-2.606-5.01-4.175-7.341l-1.5 7.234c-2.139.434-5.818-2.489-4.975-4.84l-2.643.472.73-1.658-2.401-1.453 8.085-2.91c-1.287-5.071 3.581-1.779 4.634.782.254.617-.29 1.34-.24 1.387.106.097 1.077-.054 1.669.496 1.668 1.551 3.47 8.03 6.692 7.688 2.066-.218 1.048-2.048 4.956-.614 2.749 1.009 4.24 3.659 6.82 4.456l-1.436.479.718.945c.963-1.52 3.643-.432 4.81.477 2.667 2.077 3.051 6.9 4.891 9.617 3.174 1.365 7.56.859 9.97 3.343.78-2.104 1.82-.866 3.626-1.266 1.693-.376 5.125-1.206 6.546-1.986 1.186-.652 1.812-1.881 2.886-2.392 1.842-.876 4.103.063 4.42-2.693l.971-.277c1.36 1.171 2.352 4.925.986 6.02-.332.266-1.22-.169-1.79.08-.206.09-2.4 1.49-2.476 1.616-.09.15.499.95.359 1.525-.154.632-1.142.996-1.268 1.595-.908 4.32 7.858 7.54 11.405 5.459.05-3.196-5.523-3.026-4.56-6.71.942.395.969 1.887 1.341 2.256 1.294 1.282 5.39 2.457 5.1 5.183 4.437.827 10.45 4.08 14.831 4.259 2.616.107 5.287-.812 8.25-.472.621.071 1.221-.232 1.422.761-1.757.259-3.846 1.73-5.493 1.948-.657.087-5.883.38-6.187.32-.474-.09-.931-.901-1.5-.827-1.716 1.374.724 1.114 1.228 1.757.658.837.679 3.473 1.878 4.48-2.35.634-4.693 2.309-7.192 1.446 1.425 8.307-5.436 14.45-12.937 15.851.397 2.293-.8 4.338-.974 6.465-.724 8.86 2.817 14.251-3.83 21.601-1.718 1.9-4.49 5.133-7.248 2.905-2.73-2.204-4.76-11.406-2.833-14.672.88-.206.931.296 1.358.795 2.014 2.353 5.02 6.456 2.474 9.272 4.831 2.241 3.872-1.501 4.344-4.524.512-3.275 2.203-6.285 2.39-10.602.183-4.24-2.125-9.696 2.69-12.627 2.273-1.384 5.013-1.113 7.164-1.951 1.059-.413 3.634-3.242 3.934-4.224.26-.856.842-6.24.506-6.774-.1-.158-2.63-1.075-3.28-1.784-.423-.461-.055-1.24-.45-1.433-.444-.217-1.074.31-1.597.175-.574-.149-1.147-1.042-2.008-1.375-8.231-3.18-25.213-7.066-20.645 7.716l1.673-.02c.625 2.35-1.039 5.285-.85 7.333.183 1.995 2.223 4.186 2.78 6.103 2.32-.14 3.246-4.182 3.318-6.069.06-1.586-1.23-3.266.278-4.48l2.41 3.817c.264 2.554 1.193 4.155-.337 6.441-.895 1.338-3.235 4.244-3.875 5.697-.861 1.955-.688 4.534-3.002 6.104-.555 0-2.041-4.02-2.301-4.887-1.084-3.615-3.31-16.383-5.627-18.364-1.313-1.123-3.75-1.488-5.264-2.892-2.822-2.617-1.577-3.716-1.415-6.702.255-4.707-3.095-3.415-3.152-1.672-.124 4.954.575 9.144 1.368 13.969 1.178 7.165 1.4 7.366 4.748 13.479 3.876 7.076-1.08 11.548-4.143 17.2-1.202 2.218-1.981 4.726-3.466 7.09-4.176 6.647-8.625 10.652-15.563 14.184-2.754 1.402-7.17 1.124-10.239.713-1.851-.247-3.738-1.607-5.347-1.849-2.989-.448-6.535.542-9.29-1.744-4.091-3.396-2.437-6.15-2.968-10.467-.182-1.475-.941-2.426-1.189-3.515-.252-1.114.144-2.989-.433-3.984-.546-.941-3.797-1.187-4.993-1.72-6.948-3.097 2.232-9.162-4.093-12.652-1.41.32-3.713 5.165-4.004 6.568-.46 2.217 1.027 8.37-1.382 9.174-.855.286-2.653-.162-2.99.131-.156.137-1.05 3.445-1.055 4.018-.03 4.006 2.811 8.92 5.55 11.775 1.6 1.668 4.369 2.454 4.566 4.784-.41.44-3.597-2.265-4.287-2.665-.951-.55-2.168-.686-3.078-1.24-.909-.552-4.2-4.08-5.101-3.291.556 2.991-2.564 3.695-4.342 5.496-3.774 3.823-5.943 6.248-5.7 12.021-.59.533-4.556 1.511-5.47 1.51-1.63-.002-8.093-.606-9.569-.901-1.22-.245-2.174-1.25-3.222-1.81.708 6.243-3.995 9.272-7.923 12.97-2.58 2.431-5.768 5.729-8.753 8.156-.868.706-2.211.848-3.017 1.647-1.242 1.232-1.234 3.616-2.62 5.057-2.043 2.124-6.614 2.523-8.408-.226-2.312-3.542-1.066-5.24.463-8.681 1.429-.844 4.82.343 5.804-.004 1.758-.62 4.948-4.813 7.658-4.53-.553-1.741-2.055-.326-3.022-.549-.56-.129-4.583-3.786-4.804-4.352-.557-1.427.884-9.66 1.682-11.095.97-1.744 2.936-4.189 3.939-6.118 1.188-2.286 1.752-6.58 4.251-7.746 1.05-.49 2.621.138 2.27-1.317-1.648-.005-3.042-1.81-4.291-2.191-2.317-.705-4.27-.328-6.579-2.296-3.938-3.355-1.537-6.442.308-10.121-2.172-1.818-5.004-2.174-7.016-4.284-5.998-6.289-.748-14.753-2.108-22.123-.361-1.96-4.856-6.947-6.684-7.71-5.341-2.23-12.768-2.366-18.502-2.167-4.697.162-11.925.259-14.084 5.586-2.064 5.09 2.217 7.154 4.198 10.58.758 1.31.71 2.856 1.302 3.976 1.295 2.447 4.731 4.74 4.889 8.518.062 1.502-1.186 1.596.028 4.322 1.492 3.349 3.555 2.892 6.206 4.327 4.536 2.455 10.415 7.431 10.232 13.355-.032 1.027-.884 1.676-.888 1.91-.005.367 3.828 4.616 3.734 6.222-4.16.918-2.116 4.475-2.39 7.18-.209 2.063-1.759 3.335-.874 5.172 2.012 4.177 8.924 3.597 12.134 1.34l.493.95-.737.955 1.465.312c.024 2.063.991 4.66.952 6.625-.016.788-.927 4.753-1.932 3.621l-.043-4.755c-2.968-.684-2.372.367-3.524 1.425-2.228 2.046-6.19 5.033-7.946 6.935-3.75 4.058-.665 6.607-2.884 10.787 1.463-.543 5.418 4.664 4.797 5.282-2.295.656-2.18-2.186-2.4-2.4-.206-.202-1.446.754-2.385.274-.999-.51-1.052-2.042-1.57-2.548-.408-.398-1.312-.387-1.789-.842-.985-.942-.798-3.136-1.336-4.429-.953-2.292-5.283-4.08-.828-6.845.944 1.363.708 4.235 3.109 3.836 1.342-4.849 3.692-9.189 5.787-13.634-2.069-1.466-4.412-1.986-4.799-4.874-.836-6.247 2.577-14.314 1.807-20.946-.281-1.225-4.079-4.523-5.24-5.36-1.65-1.187-4.432-2.97-6.194-3.88-.4-.207-1.255-.58-1.435-.005 1.097 1.564 1.043 3.379 1.736 4.982 2.44 5.646 4.048 9.322 4.944 15.689.785 5.583.547 14.841.515 20.594-.005.893.593 1.705.473 2.616l-1.901.5c1.226-2.923-.893-4.782-1.405-7.472-.797-4.18.602-10.653.264-15.244-.257-3.49-2.41-9.77-4.694-12.48-3.609-4.28-3.335 1.071-5.547 3.279 4.604 8.452-1.948 12.887-7.644 17.691-1.43 1.206-2.799 3.721-5.443 3.667-.509-.53 3.885-8.865 4.515-10.135.264-.532.157-1.228.425-1.718.489-.891 2.67-1.393 1.714-4.152-.867-2.502-5.598-.148-6.784-.403-1.353-.29-6.324-3.665-7.033-5.025-.493-.945.051-1.564-.139-1.956-.047-.098-.9-.264-1.306-1.372-1.355-3.69-.264-8.932-.45-12.845l1.133-3.654 3.01 10.432c.13 1.307-.697 2.441-.752 3.71-.159 3.716 3.74 9.084 7.821 6.483 3.478-8.35 3.38-17.19-6.975-19.456-.457-4.49 8.958-2.003 9.923-3.786-.25-2.4.804-4.974.867-7.218.065-2.352-1.153-4.476-1.2-6.259-.06-2.263 1.066-4.27-.237-6.92-.361-.734-1.412-1.178-1.856-1.983-.929-1.683-1.508-3.655-2.678-5.233l2.66-.464c.36-2.897 1.193-5.592 3.337-7.689 1.261 1.129.816 2.875 2.85 2.895 4.058.039 3.874-3.216 7.338-3.746 2.57-.393 3.912.673 4.958.622 1.016-.05 2.612-1.223 3.802-1.226l-1.916-3.35c3.591-1.066 3.439 1.384 5.147 2.407 3.055 1.83 3.51-2.778 5.907-3.585 2.212-.745 3.15-.171 5.06.423.252.079.763-.28 1.035-.111.807.5 2.037 2.831 3.83 3.19 1.845.37 2.219-.943 3.358-1.255 3.652-.997 9.67-.033 11.4 3.724 1.738 3.773-.538 4.629-1.091 7.548-.397 2.096-.192 4.802-.627 7.05-.79 4.08-3.38 7.89-3.988 11.955-.063.421-.639.83-.635 1.048.008.52 1.454 1.321 1.813 1.891.665 1.055 1.129 3.097 2.134 4.09.705.695 3.111 1.521 3.91 2.573.562.74 1.243 3.576 2.18 4.005.336.153.924-.56 1.576.12.807.844 1.31 3.196 1.977 4.296.578.956 3.71 6.307 4.008 6.548.861.696 1.92-1.138 2.724-1.625 1.305-.791 3.394-1.354 4.266.412.956 1.934-1.066 3.064-1.792 4.457-1.532 2.939-1.584 11.138 1.54 6.819 1.704-2.358 2.845-4.575 5.022-6.973 1.872-2.062 4.213-2.526 3.617-6.44-.317-2.079-3.062-1.83-3.353-2.23-.118-.161.37-.925.177-1.395-.415-1.006-1.41-1.888-1.524-3.23-.133-1.566 1.002-3.7.161-5.435-1.989-1.191-9.582-1.385-10.605-3.331l.297-3.069-1.009-.562c.33-1.024.732-2.134.495-3.232-.075-.346-.803-.374-1.094-.937-2.472-4.783-5.236-9.374-4.61-14.942.28-2.489 3.021-8.823 4.547-10.806.511-.664 4.993-5.489 5.474-3.153.295 1.434-3.009 2.392-3.252 2.738-.128.182-1.152 3.79-1.232 4.286-.197 1.218.608 12.906.945 14.361.2.866 4.554 8.66 5.077 9.015.216.146 1.003-.31 1.675-.057 1.04.39 1.977 1.175 3.025 1.559.307-2.558-.419-5.97 0-8.397m63.802-69.815h-.954v.954h.954zm21.91 102.519c1.447-1.743 1.537-2.906 2.313-4.639 1.311-2.926 5.66-12.295 4.833-14.89-.256-.8-1.15-1.478-1.474-2.374-1.513-4.176.528-7.02.262-10.792-.11-1.563-1.055-3.29-1.33-4.93-1.287-7.689-2.58-16.465-1.432-24.216.682-4.603 3.648-9.182 2.732-14.038-.344-1.823-5.867-5.31-6.506-2.175l-1.112 15.653c.761 2.292-.209 12.96-1.685 14.14-3.217 2.57-2.843-7.256-2.672-8.91.39-3.771 2.873-7.713 3.302-11.572.252-2.265.428-9.422.04-11.455-.064-.334-3.445-4.78-3.896-5.22-3.418-3.348-1.798 4.387-1.913 6.107-.243 3.626-1.34 7.032-2.535 10.33-.163.448.147 1.216-.113 1.824-.637 1.489-5.323 1.893-4.98 5.166.089.843 3.972 5.579 4.72 6.826 3.093 5.147 2.083 6.274 2.68 11.824.398 3.717 1.167 7.514 1.707 11.146.356 2.4-1.009 6.152-2.283 8.22-3.107 5.05-6.708 9.962-9.862 15.088-1.062 1.727-3.937 6.338-2.693 7.846 3.21 3.89 10.683 1.243 15.048 4.16.519.346.715 1.298 1.093 1.387 1.863.433 1.797-1.01 2.571-1.71.84-.76 2.533-2.01 3.185-2.796m29.24-68.264c-1.997-1.202-3.375-2.957-5.094-3.787-2.608-1.261-6.816-1.49-9.81-2.185-2.131-.495-3.808-2.158-6.499-1.411.34 2.368.812 5.44-.48 7.434 1.566 2.26.809 4.828.962 7.436 1.962-.528 3.846-.996 5.524.47.83.725.826 2.218 2.373 1.954 1.86-4.304 8.395-4.085 12.483-3.857 5.393.3 10.712 2.694 15.858 2.888 1.466.055 2.356-.187 3.572-.977-.543 2.166 3.658 2.279 5.279 2.4.27-1.39-.41-.763-1.054-1.08-2.977-1.461-4.52-2.781-6.918-4.138-.844-.477-1.906-.37-2.57-.809-.373-.247-.418-1.012-.573-1.105-.145-.089-2.234.464-3.389.315-2.508-.323-3.825-2.306-4.656-2.48-2.414-.507-1.79.867-5.007-1.068m-45.15 1.73v.48q.465-.24 0-.48m81.79 4.804h-.954v.47h.955zm-11.033 3.831-.235-.955-.722.953zm-168.001 6.358c-1.001.104-2.106.568-3.147.718-1.243.18-2.877-.981-3.911.921l3.085 9.757 7.294-8.867c-.908-2.136-.859-2.786-3.321-2.53m34.641 37.788c.906.153 1.594-.562 1.432-1.437l-1.434.486zm-77 1.452c-1.464 1.057-.633 3.104.953 3.347 1.403-.24-.491-3.009-.952-3.347m-4.317 13.915c-.437.002-2.548 6.053-.48 6.699 1.632-.746 1.594-6.703.48-6.699m80.829-.009c-4.414 1.514-7.055 3.682-9.296 7.73-.386.698-.44 1.684-.832 2.527-.407.873-2.153 1.422-.915 2.474 1.412.896 6.487-.01 7.567-1.34.343-.42.286-1.503.86-2.256 1.671-2.193 3.608-2.816 3.411-5.95-.066-1.055-.688-2.117-.795-3.185m-93.302.48v.48q.468-.24 0-.48m117.534 2.399v.48q.468-.24 0-.48m-42.08 1.07c-.532-.287-1.23-.06-1.813-.113-.21.195.224 3.602-.067 4.51-.29.904-1.777.34-1.375 1.726 4.513 2.54 5.543-4.892 3.255-6.123m-65.38.85v.479q.468-.24 0-.48m53.36 19.798c.458.379.28 1.301 1.44 2.166 1.055.785 5.398 2.133 6.551 1.91.53-.104 1.182-1.094 1.87-1.428 2.947-1.43 8.467-2.724 5.887-6.64-1.513-2.298-4.456-3.295-6.13-6.823-.419-.884-.235-2.265-.589-2.768-1.5-2.137-2.96.705-3.353.99-2.444 1.773-7.253 4.006-7.449 7.488-.056 1 .365 1.863.464 2.835.053.52-.395 1.14-.364 1.452.064.659 1.31.519 1.673.818m12.6-8.765-.001-.957-.953.722zm-23.988 13.436v-.955h-.47v.955zM245.607 5.528c.386.385 1.259.307 1.66.732 1.274 1.349 3.416 4.224 5.021 5.08.35.187 1.235-.433 1.972-.338 1.107.144 6.105 6.152 7.86 7.515 5.648 4.383 12.36 7.337 18.56 10.705 1.529.83 4.125 3.2 5.618 3.98 1.134.591 3.556.69 4.422 1.221.574.352.563 1.98 1.544 2.408l.258-1.41c.482-.494 11.617 2.706 13.406 3.097 15.047 3.28 38.472 6.47 53.004.702 1.225-.486 1.733-1.392 3.007-1.79.599-.188 4.464-.942 4.431.123-1.398 1.483-2.632 2.881-4.674 3.468-1.378.396-3.127.077-4.11.31-2.586.61-5.155 1.61-7.75 2.227l-.484-1.445c-.687.585-1.242 1.031-.722 1.909-8.738 1.08-18.199 2.837-26.983 1.326-2.37-.408-4.68-1.693-6.944-2.143-6.934-1.377-12.844-1.91-19.67-4.346-.813-.29-2.272-1.665-2.762-1.55-1.477 3.127-5.36 6.96-9.13 6.258-2.362-.44-3.143-4.347-2.535-6.397.342-1.154 2.668-1.744 1.373-3-4.82-2.572-9.775-5.99-14.57-8.467-1.143-.59-2.893-.815-4.273-1.484-1.772-.858-3.182-2.677-5.173-2.739-.215.202 2.079 5.005 2.382 5.401.54.703 1.676 1.049 2.41 2.04.84 1.132 1.2 3.16 2.142 4.093 1.287 1.273 5.438 3.423 7.204 4.788 2.145 1.658 3.603 4.624 6.964 5.275-.382 1.028-3.207.148-4.022-.058-1.121-.283-5.322-2.177-5.808-2.173-.88.008-1.886 1.148-3.822.783-1.252-.237-10.309-7.809-11.484-9.161-2.413-2.779-3.526-7.466-5.569-10.264-.79-1.083-2.28-1.722-2.733-2.299-.64-.815-.687-3.301-2.215-3.157l-10.873 8.335c-.159 1.194.33.574.983.508 1.222-.124 3.023-1.01 3.328.917-3.425 3.58-7.773 5.471-9.961 10.195-.27.582-.01 1.621-.366 2.513-.35.874-2.963 4.164-3.826 4.81-2.95 2.211-5.537 1.858-8.5 2.93-4.37 1.58-8.739 4.182-13.922 5.834-2.487.792-4.77 2.308-7.557 1.792.566-1.371 2.384-1.31 3.498-1.916 2.47-1.343 3.318-3.01 5.372-4.779 4.842-4.169 12.097-7.51 17.495-11.314 1.564-1.102 2.328-3.116 3.856-4.306l-.782-1.154c-2.2-.65-8.737 3.372-11.1 3.713-.924.133-6.613-.028-6.83-.395l.5-1.16-.973-.991c.933-2.272 9.762-2.648 9.589-6.482-2.175 1.218-4.867.55-6.84 1.07-.978.258-1.98 1.782-3.469 1.331l.24-.96c-1.374-.572-1.389.85-1.752.951-.24.067-2.1.288-1.373-.477 3.526-2.611 7.546-2.666 11.412-3.462.463-.095 8.425-2.929 8.848-3.148 2.907-1.505 10.473-7.25 12.038-10.029 2.63-4.67-2.268-2.933-1.768-7.508 2.678-2.38 5.988-4.582 9.642-3.068.514.213 3.326 2.078 3.751 2.48.925.874 1.067 2.084 1.535 2.55m9.95 15.47c.163-.876-.525-1.59-1.432-1.437l-.001.951zm.725 0v.48q.466-.24 0-.48m12.708 4.796v-.955h-.47v.955zm69.563 18.241h-.955v.47h.955zM149.542 65.624c-.046-.254-.044-.947.252-.986l2.624.986.306-1.466 28.957-6.207c-.108.59-1.573 1.311-2.07 1.522-5.012 2.126-10.988 2.638-16.271 3.878-4.249.997-9.043 3.212-13.318 2.752z"/><path d="m150.022 66.103-.003.96-1.21-.423c-.264-.018-.16.777-.574.874-5.105 1.198-8.483 1.362-13.705 3.008-7.742 2.44-14.699 3.525-22.492 6.293-11.813 4.196-22.127 8.204-34.72 10.22-5.689.91-11.333 1.902-17.132 1.025-1.736-.262-3.356-1.18-4.666-2.283.544 1.524-1.43 5.176-.386 6.126.598.544 3.61.991 4.698 1.308 3.824 1.112 6.096.769 10.333.7 6.023-.096 9.85-.838 15.573-2.61 2.044-.634 4.346-.998 6.227.474-.793.926-1.525 1.776-2.869 1.685-.755.729 4.487.981 5.013.979 9.309-.043 18.15-2.675 26.873-3.42 2.19-.187 1.98.12 3.852-.331.18-.044 1.804.017 2.158.125-1.915.777-5.098 2.155-7.027 2.479-1.41.237-4.022-.068-5.655.192-4.493.715-9.989 2.73-14.43 2.85-3.907.105-9.028.203-12.543-.335-.851-.13-2.403.601-3.488.367-2.083 5.595 5.274 6.901 9.379 7.115 1.769.092 4.23-1.497 5.707.53l-.492.96c-2.826-1.227-5.672.38-8.606.032-.78-3.288-1.203-.588-1.532-.504-1.884.484-6.209-.21-8.567-.012-1.27.108-2.242.777-3.391.922-2.262.285-14.195-2.338-17.01-3.062-1.972-.507-13.21-5.215-13.894-4.571.167 2.583 2.063 4.174.86 6.874-.32.717-1.098.671-1.26.909-.189.275.39.855-.033 1.584-.365.63-3.772 3.681-4.364 3.104-.134-1.023.89-1.421 1.156-2.343.904-3.128-.548-6.139-1.367-9.126-.5-1.822-1.112-2.013-1.244-2.668-.464-2.314.333-4.752.762-6.962-2.448-2.44-7.737-5.055-7.91-8.923-.072-1.62 1.353-4.66.708-5.962-.34-.684-4.587-3.5-5.388-4.47-1.424-1.727-.712-4.701-3.888-5.514-.758-.194-1.488.239-2.092.125-3.098-.585-7.04-4.067-3.924-6.873 1.774-.264 5.675.615 7.196.062 3.266-1.188 1.807-4.299 4.445-5.2 3.397-1.16 4.73 3.542 7.702 4.122l-.299.99c-1.26 1.174-4.299.462-4.407 2.685-.012.246 1.834 3.99 2.113 4.452.416.686 1.835.06.67 1.937 1.58-.332 1.721 1.065 2.455 1.636 4.697 3.66 11.507 8.682 17.826 6.409 1.684-.606 3.385-3.114 6.094-1.804l2.668-4.793c1.119-.238 2.298 2.972 2.818 3.646 3.532 4.579 10.511 3.88 15.752 2.943 6.769-1.209 15.262-.463 22.787-1.467 9.896-1.32 20.79-3.144 30.338-5.372 2.749-.641 11.923-3.19 13.925-2.153.062.339.043.525.48.48m-87.314 5.761h-.954v.955h.954zm-.959 1.44c-1.852.375-2.79 1.216-4.748.495l-.518 2.365 4.3 1.216c-.011.974-7.848.935-3.532 4.021 6.221 4.449 13.77 2.387 20.64 1.565 5.949-.712 11.469-1.272 17.087-3.061 1.282-.409 4.899-1.465 5.765-1.912 1.335-.687 2.088-2.63-.125-2.563-2.072.064-4.213.864-6.093 1.03-4.56.4-10.635 1.276-14.85 1.47-1.488.07-3.322-.796-4.733-.787-3.173.021-7.378 1.056-10.556.99-1.045-.02-2.048-.394-3.063-.56zm-16.79 4.798c-1.814.665-9.235-3.73-9.59-3.359l-.002 2.875 7.937 2.374c.845-.043 1.798-.96 1.655-1.89m58.289-2.882v.48q.467-.24 0-.48m2.399.96v.48q.467-.24 0-.48M59.113 86.737v.48q.467-.24 0-.48m7.433.484h-.954v.47h.954zM41.6 89.141h-.954v.47h.954zm8.398 2.874v.48q.467-.24 0-.48m14.93 4.998c-2.411-.757-6.15-1.056-8.14-1.792-.986-.365-5.3-3.496-6.068-2.724l.009 1.418c.75.003 1.41.242 2.082.557 4.363 2.041 8.591 3.882 12.923 5.796 2.16.955 14.311 4.307 14.608.632l-2.124-3.55c-3.833.207-8.64.917-12.415.457-.825-.1-.742-.752-.876-.794m-15.89-2.599v.48q.468-.24 0-.48m34.783 9.115c1.76-.008 1.76-1.427 0-1.435zM216.648 186.967l1.56-4.205c3.75-1.286 5.543 3.9 7.378 4.738 1.205.55.18-1.075.655-1.693 1.024-1.332 4.014-1.126 5.338-.463.662.331.87 1.434 1.466 1.89 1.123.86 3.662 2.69 4.814 3.343.859.487 2.553.242 2.83 1.241-3.074.14-5.61-1.918-8.882-1.822-1.511.045-2.941.935-4.786.904-3.428-.06-7.676-.989-11.021-1.257-1.413-.113-3.761 1.646-3.651-.171l-.675-.044-.273 1.401c-3.509 1.733-8.628.08-11.576 1.14-1.573.565-4.21 2.754-5.543 3.099-2.729.705-3.308-.078-6.215 1.922-.425.292-.89-.076-.624 1.069 1.072.008 2.034-.508 3.115-.513 3.229-.012 8.738 1.076 11.498.74 2.12-.259 4.378-1.922 5.816-2.14 3.588-.543 11.952.6 15.784.959 2.232.209 4.698-.16 6.96.001-1.28 3.164-4.12.633-6.478 1.038-6.244 1.071-12.682 3.863-19.238 4.665-3.742.458-8.157.123-11.938.537-7.263.795-14.314 2.876-21.61 3.407l-1.174-1.013c-.021.556-.215 1.168-.792 1.37-.552.194-3.968.935-4.72 1.042-.538.077-2.467.413-2.168-.728l5.998-3.124-.477-.945c-1.673.997-3.968.602-5.645 1.063-.215.06-3.529 1.469-3.698 1.577-1.91 1.217 1.027 5.709-2.203 6.002-2.742.25-1.67-3.257-2.861-3.855-.935-.384-.62.957-.98.978-.847.05-2.392-.997-3.586-.69-1.36.351-3.176 2.43-4.446 3.162-3.59 2.069-4.589 1.608-7.918 4.665-.56.515-2.367 1.428-2.448 1.549-.202.302.404 1.118.375 1.621-.232 4.059-8.526 6.431-11.413 8.184-.703.427-1.084 1.17-1.716 1.643-1.398 1.047-3.378 1.087-3.106 3.815 2.06.361 4.679 1.292 4.013 3.874-.627 2.434-1.804 1.984-3.012 2.66-2.38 1.335-4.765 2.042-6.891 3.205-1.423.778-1.708 2.196-3.473 2.322-2.21.157-6.295-3.606-6.848-5.681-.688-2.582.698-8.699 4.244-8.078.996.175 1.905 2.847 3.787 1.984.771-.354 1.084-1.558 1.612-2.02.66-.578 2.116-1.022 2.463-1.618.405-.695.245-1.843.621-2.736.95-2.256 3.241-3.672 5.388-4.454l-.001-.71c-2.6-.646-2.259-7.713-.199-8.363l1.402.44 1.683 5.758c4.695-1.037 7.77-4.825 11.283-7.66 5.008-4.042 12.242-9.098 18.338-11.888.936-.429 5.32-2.05 6.11-2.054 1.494-.005.174 1.026.244 1.927.749.626 8.013-1.886 9.246-2.503.356-.178 3.616-2.306 3.753-2.484.625-.816.84-3.435 2.14-5.058 2.807-3.51 11.375-3.94 15.762-5.347 2.068-.662 4.012-2.028 6.008-2.628 1.35-.406 7.551-1.616 8.692-1.444 3.136.473 1.698 3.225 3.94 4.702 2.233 1.472 5.376 2.487 7.97 1.752m14.443 1.015v-.955h-.47v.955zm-45.092 9.602-.71.002-.727.95 1.437.002zm-34.061 4.8h-.955v.47h.955zm21.108.478-.71.002-.727.95 1.437.003zM360.79 618.092c-1.5 1.492-1.087 1.026-2.466 1.904-.426.27-.341 1.627-1.537 1.287-.292-.318 2.605-4.958 2.791-6.12.42-2.616-3.495-10.871-5.991-11.563-3.34-.926-.562 3.645-.392 4.242.818 2.878 1.195 12.181.741 15.121-.167 1.087-1.166.992-1.624 1.808-1.552 2.766-2.02 6.249-3.083 8.87-.506 1.25-2.249 2.54-2.902 4.326-.88 2.408 1.905 2.727-1.594 5.092-2.115 1.43-3.231.797-4.902 1.335-.649.209-.897 1.293-1.578 1.78-1.301.93-3.128 1.048-4.461 1.777-2.327 1.27-4.042 3.74-6.426 5.088-3.431 1.94-8.338 3.87-12.315 3.758.046 2.214 2.391 1.465 3.59 1.878.885.304 5.032 1.88 5.034 2.678-1.114 1.403-2.29 1.764-4.047 1.693-2.243-.091-6.055-1.035-8.141-.982-.33.008-.29.795-.602.972-1.502.852-5.026.598-6.871.48l-.257 1.432c-1.26-.506-3.092-.224-4.2-.573-.702-.221-1.118-1.19-1.537-1.209-.234-.01-.652.644-.964.629-4.968-.236-10.323 1.563-15.242 3.179-.597.196-.958 1.007-1.617 1.193-.636.178-2.217-.347-3.28.632-.866-.65.621-.276.724-.809.213-1.109-.617-1.919.946-2.316-.661-1.295-1.899-.197-2.316-.364-.108-.042-.315-1.715-1.91-.722-1.018.634.266.452-2.01 1.084-3.631 1.01-5.94 2.149-9.72 1.566-3.614-.558-6.282.308-10.18.106-1.551-.08-3.222-.914-4.753-.899-2.766.028-5.301.9-8.683.907-7.48.015-14.875 1.195-22.153 1.256-1.387.011-2.972-.584-4.473-.303l4.67-1.801c5.836-.67 10.39-3.387 16.286-4.381 7.2-1.215 14.279-.135 21.472-1.036 17.203-2.154 33.902-4.596 51.1-7.907 4.074-.785 7.418-2.69 10.815-3.097.57-.068 1.304.46 1.859.36.482-.086 7.24-4.215 8.502-4.874 1.53-.8 5.137-1.762 6.055-2.342.307-.193.96-1.645 1.805-2.275 3.783-2.823 10.136-5.557 11.872-10.675 1.144-3.374 1.052-10.825 6.125-10.914-.817-2.667-.184-5.172-.984-7.893-1.548-5.264-3.25-9.607-7.492-13.14-1.937-1.611-8.997-5.018-8.832-7.506l.807-1.184c2.105-.093 3.08 1.997 4.545 3.054 1.17.845 6.693 4.849 7.623 4.385 2.71-1.352 1.361-3.51 6.573-1.31 6.465 2.73 11.834 13.627 7.93 20.095-.834 1.381-1.485 1.386-2.33 2.228m-76.926 46.382h-.955v.955h.955zM133.74 247.004l1.433-.261c1.443 2.2 2.669 3.9 3.595 6.505.162.457-.217.954-.106 1.334.03.104.718-.072.835.788.143 1.043-.333 1.894-1.425 1.194-.316-.203-1.889-5.608-2.92-6.922-1.066-1.361-2.759-1.666-4.083-2.625-.494.334-.602.634-.706 1.199-1.728 9.353 1.556 14.826 2.38 23.51.293 3.073-.237 6.912.116 9.918.217 1.855 1.608 5.065 1.678 6.285.135 2.341-.744 6.2-.642 8.657.149 3.6 1.5 7.498 1.753 11.101.295 4.176.049 9.208.001 13.475-.1 9.005-.393 18.126-.317 27.25.023 2.74 1.72 6.555.038 9.418-1.444 2.457-6.689 1.474-7.915-.801-1.424-2.643-1.742-9.94-1.735-12.986.002-.653-.759-1.736.548-1.543.87.553.656 1.307.754 2.133.13 1.107.852 4.89 1.278 5.876.575 1.332 2.413 2.945 3.97 2.54.12-1.755-1.044-2.938-1.313-4.68-.655-4.242-1.315-11.467-1.078-15.706.285-5.102 1.411-13.285.734-18.254-.082-.605-1.012-1.264-1.197-2.41-.49-3.04-.07-7.382-.528-10.506-.702-4.78-3.192-10.868-4.474-15.724-.582-2.202-.103-6.665-3.174-7.571-.502.574 1.216 5.515 1.284 6.536.098 1.45-.782 3.868-.728 5.234.046 1.17.854 2.294.915 3.817.376 9.366.039 19.088.938 28.812.248 2.675 1.219 6.227 1.443 9.563.07 1.038-.062 2.103-.018 3.14h-1.436c-.698-4.006-1.007-8.144-1.628-12.138-2.485-15.99-2.912-30.853-3.65-47.123-.055-1.204-1.327-2.87.476-2.648l-.962-.79c.399-3.148-2.92-8.23-2.806-10.988.086-2.067 2.219-2.578 3.175-3.928 1.37-1.933 2.524-7.145 3.855-9.58 1.736-3.178 5.196-4.254 8.455-4.956 1.945.61 2.966 1.838 3.187 3.855m-1.948-1.433-1.437-.003v.955l.71-.002zm1.679 105.561v.48q.467-.24 0-.48"/><path d="M59.356 33.464c-4.963.96-4.384 4.955-.1 6.58.75.285 1.73.014 2.5.383 1.03.492 1.06 2.496 3.592 3.168 1.278.34 2.176-.232 3.23.046.636.168 1.15.942 1.78 1.137 2.325.717 7.042-.143 7.69 3.298l-1.423.99c1.289 1.55 3.085.282 4.591.239 8.187-.235 16.334-.904 24.42-1.55 8.044-.643 15.874-.786 23.88-2.403 11.46-2.314 21.422-6.891 32.638-9.673.356-.089 4.972-2.45 4.665-.52-.158.997-3.453 3.153-4.468 3.689-13.196 6.963-26.777 11.038-41.388 13.308-9.84 1.529-20.022 1.688-30.045 2.579-8.452.752-15.161 1.14-23.475 1.57-8.68.45-7.988 1.632-16.824-1.38-2.066-.703-8.599-2.34-9.757-4.175-.605-.957 3.57-6.618 3.956-6.726 3.143-.874 4.88 2.155 7.823 1.681-1.2-2.905-5.565-4.03-7.412-6.022-1.31-1.412-4.664-8.433-4.45-10.234.234-1.966 2.992-3.243 4.8-3.072 3.74.354 6.023 2.408 9.126 3.828 2.08.951 4.16.171 4.65 3.26m16.785 15.37h-.955v.47h.955zM289.72 537.686c-2.875-4.86-1.567-10.498-1.641-15.605-.316-21.748.681-39.58 2.515-61.32 1.742-20.662 1.887-42.063 2.827-62.923a998 998 0 0 0 .958-57.06c2.072-1.95.465-1.324.174-1.742-.64-.917 1.114-9.918-.146-12.107l.979-.51-1.005-.527c.005-1.213.986-2.692.943-3.811-.034-.883-.84-1.664-.92-2.845-.495-7.28.215-14.921.05-22.08-.437-19.007-3.32-37.463-6.4-56.018-.147-.879-1.86-4.784-.103-5.167.906-.197 1.833 3.07 2 3.748.519 2.098.29 4.69.743 6.455.285 1.11 1.722 3.448 2.175 5.022 3.098 10.78 2.65 22.267 3.333 33.363.782 12.703 2.035 26.993.62 39.945-.465 4.266-1.007 2.963-.438 7.675.501 4.149.212 10.823.396 15.434 1.083 27.197.706 54.818.035 81.969-.277 11.206-.606 22.448-2.131 33.76-1.38 10.233-2.53 21.82-3.442 32.382-.97 11.254 1.182 22.646 1.075 34.068-.013 1.344-.732 3.223-.694 4.418.063 2.024 2.58 4.014-1.903 3.476m5.9-99.702v.48q.466-.24 0-.48M86.982 636.357c2.264 1.869 4.065 4.425 7.175 5.089 2.188-.02.409-5.726 4.328-6.208 6.448-.794 13.71.673 19.978 2.02 5.917 1.27 12.41 3.523 18.533 3.908 6.45.406 13.268-2.044 19.931-1.217l7.97-2.584c-2.92 4.76-9.66 5.156-14.714 5.96-.89.142-1.73-.294-2.327-.214-1.82.245-5.537 2.861-7.68.724-.362 1.534-2.335 1.045-3.772.903-6.132-.608-15.308-5.034-20.571-4.143-1.15.195-4.575 1.263-3.653 2.709.704 1.103 6.474.714 5.25 4.083l-6.745 3.163c3.632 1.382 6.517 5.22 10.52 5.343l.035 1.383c2.148-.995 3.963.22 6.05.422 5.598.542 11.165.261 16.788.48 2.22.086 4.76-1.19 6.42 1.258-2.22-.49-2.604 1.455-3.166 1.642-1.226.407-1.945-.763-2.346-.756-.318.006-.814.723-1.464.793-5.431.587-19.697 1.28-25.27-.528-.883-.287-.75-.256-1.913-.552-3.424-.873-4.684-2.578-7.637-3.898-5.064-2.265-9.196-3.297-14.278-6.352-10.72-6.443-17.105-10.772-23.73-21.133-.295-.463-1.18-.51-1.54-1.571-1.466-4.336 2.789-6.958 6.021-4.588.395.29 3.879 4.3 4.25 4.867.95 1.447 1.43 3.948 2.468 5.209 1.003 1.218 3.765 2.695 5.089 3.788m17.941 9.887-1.676-.957-.714.718-.002.71 2.394-.003zm20.63 11.992h-.955v.955h.955zm20.39-.002v.48q.468-.24 0-.48M405.345 625.702c-4.992 2.183-7.13 2.38-12.21 3.872-5.231 1.537-9.443 5.181-14.182 6.447-3.609.963-9.299.51-12.356 2.517-1.022.67-1.419 2.229-2.126 3.017-4.342 4.845-8.379 9.549-13.618 13.619-10.308 8.009-20.132 18.01-27.84 28.52-.42.572-.289 1.51-.976 2.403-1.186 1.542-3.477 3.866-5.55 3.322l1.43-.711c-.279-.34-.91-.634-.725-1.194.389-1.181 5.064-6.629 6.2-8.22 7.79-10.923 19.78-26.05 29.6-35.17 1.124-1.044 4.546-2.154 4.222-4.304-.213-1.42-3.529-.691-3.351-4.867.084-1.988 1.006-1.2 1.796-1.84 4.459-3.612 8.088-2.503 13.214-3.344a305 305 0 0 0 19.207-3.812c3.26-.759 4.513-4.218 6.506-5.615 4.432-3.105 11.709-4.584 16.743-6.64 2.255-.92 7.14-5.235 9.289-2.28.137.189 2.002 3.97 2.06 4.197 1.205 4.717-6.263 6.805-9.412 8.179-2.296 1.002-2.829 1.84-5.923 2.246-.713.094-1.497-.56-1.998-.342m5.167-6.813-10.268.565c-.787.19-.576 1.32-.92 1.67-1.022 1.04-3.17 1.23-2.72 3.038 3.176.072 6.104-1.676 9.025-2.756.777-.287 1.696-.15 2.26-.36.615-.23 2.921-1.134 2.623-2.157M167.586 541.8c-2.792-7.79-1.068-13.347-1.234-21.542-.202-9.983-1.78-19.912-2.36-29.786-.108-1.84.974-5.148.917-6.148-.016-.278-.878-.225-.97-.597-.283-1.141.157-2.903-.012-4.23-.498-3.914-1.153-7.819-1.43-11.76 1.381-.193 2.927.09 3.571 1.462.667 1.42 2.905 10.083 3.102 11.769.265 2.262.288 4.554.5 6.699 1.008 10.2.388 18.698.048 28.799-.145 4.306-.531 9.627-.44 14.327.043 2.245.601 12.544 2.651 13.191 1.397.441 3.648-1.521 4.397-2.673 1.646-2.528 2.226-10.607 2.435-13.885.456-7.132-.362-12.8-.92-19.623-1.02-12.464 2.356-18.005 4.692-28.903 1.055-4.923.042-20.588-.974-25.676-2.898-14.507-9.446-24.64-9.955-40.427-.227-7.065-1.42-21.274.262-27.587.128-.48.057-1.914.936-1.444 2.095 4.92 1.582 10.401 2.647 15.589-1.652 8.148.166 15.92-.471 23.94 3.257 10.854 8.142 21.336 9.696 32.572 1.426 10.307 2.525 22.756-1.18 32.634-5.271 14.06-1.033 35.26-3.754 50.42-.746 4.151-3.86 11.115-9.051 8.188-2.396-1.351-2.334-3.162-3.103-5.309m8.336 3.187v-.954h-.47v.954zM97.565 580.186c1.184 1.103 2.189 3.283 2.572 4.864l-1.922-.233-.008 1.438 3.359.485.455-2.202c1.351-1.02 4.2 2.496 5.346 3.356 5.332 3.994 9.767 8.216 14.34 12.96 4.359 1.622 9.257 1.754 13.53 3.309 3.725 1.355 6.776 4.73 10.33 5.502 5.695 1.236 11.472 1.29 17.142 1.667 15.381 1.02 30.982 3.971 46.205 5.508 7.022.709 13.63 1.744 20.51 2.94.878.152 2.277-.79 3.109-.176-.77.953-2.05.795-3.128.749-2.865-.124-9.602-2.145-11.726-.252-.443.394-.63.512-.495 1.18 4.139 1.274 9.11 2.218 12.47 5.045-4.49 1.933-9.49.127-13.767-1.584-1.176-.471-2.155-1.688-2.886-1.912-2.548-.779-6.16-.239-8.493-2.54-.57-.562-1.102-2.268-1.572-2.374-1.73-.386-6.722-.63-8.536-.464-3.77.345-7.515 1.9-11.54 1.37-1.56-.206-4.812-1.839-6.226-1.815-1.586.026-2.17 2.208-3.371-.552-2.086 1.658-3.017.174-4.757.11-1.264-.048-3.616.8-4.918.738-3.825-.181-8.191-.604-11.973-1.136-4.01-.563-9.009-.233-12.388-3.038-1.161-.965-1.672-2.307-2.616-3.142-2.083-1.843-11.913-1.55-15.499-2.251-2.69-.526-13.476-4.604-15.395-6.195-1.386-1.15-2.01-2.627-1.779-4.43l4.627-2.206c-.028-2.744-2.09-4.339-4.583-5.063-2.775-.807-5.868-.334-8.382-.734-2.646-.42-5.885-3.3-4.862-6.21.193-.55 2.437-3.568 2.89-3.88 1.252-.861 2.948.246 3.937 1.168m119.136 40.622h-.954v1.435h.954zM143.185 676.143c1.746 1.048.785.138 2.717.319.871.081 1.602.882 2.481.967 1.05.101 1.993-.55 2.84-.484 11.347.884 24.073 3.436 35.436 5.342 5.097.855 10.157 1.96 15.315 2.436 5.36 4.583-.052 7.359-5.2 7.116-5.829-.275-7.485-2.959-12.014-4.293-15.937-4.695-35.19-4.728-51.617-7.871-10.569-2.022-22.06-6.482-32.476-7.716-7.578-.897-15.18.513-22.842.187-1.906-.082-3.054-.055-4.832-.048-.347.001-.309-.916-.67-1.161-.952-.65-2.054.272-3.092.216-1.573-.085-3.262-.846-5.324-.954-3.137-.164-9.38.433-12.467 1.006-.784.146-.829-.313-.72.942l14.867.965c.132.661-.168 1.148-.8 1.353-2.421.787-1.858-1.192-2.789-.872-1.062 3.334-2.138 1.773-4.219 2.005-5.579.624-4.672.364-9.935-.814-4.731-1.06-8.776-1.614-12.955-4.312.62-.266 2.685-2.195 2.98-2.31 2.646-1.038 8.153.461 11.25.448 5.829-.026 9.322-.158 15.284.177 13.287.749 26.828-1.07 40.301-.014 11.098.87 23.219 4.934 34.159 7.1 1.283.254 3.56-.187 4.322.27m-47.613-5.913v.48q.468-.24 0-.48m-46.534 1.92v.479q.468-.24 0-.48m2.157.481h-.955v.955h.955zm3.6.958v.48q.468-.24 0-.48m103.622 5.278v.48q.467-.24 0-.48"/><path d="M288.663 627.044c.107-.274-.252-.977.248-.968.991.036 1.834 1.246 3.269.983.213-.039 1.907-2.17 3.477-2.416 1.454-.228 2.825.795 4.169.402.651-.19 2.323-1.581 3.723-2.066 3.398-1.178 4.477-.609 7.44-3.594 2.961-2.985 5.522-6.209 8.615-9.117 2.638-2.48 7.873-4.332 2.884-8.228-2.836-.354-4.51 2.358-6.948 3.182-1.403.474-6.028 1.483-7.51 1.616-1.16.104-7.902.014-8.33-.435-.38-1.543 1.384-.707 2.193-1.388l.907.93c3.436-2.141 8.851-1.356 12.357-2.546 1.616-.548 3.569-2.676 5.66-2.972 1.304-1.267-.278-3.605-.759-5.049-.246-.74.808-1.82-1.545-2.287-3.202-.635-6.02 1.457-8.744 2.083-.73.168-1.439-.117-1.973.003-4.438.995-8.815 2.457-13.375 2.592l.961-1.431-1.442-.96c1.96.15 4.437-1.645 6.027-1.891 1.467-.227 3.16.61 5.21-.044 1.392-.444 5.303-1.97 6.543-2.598 2.261-1.145 4.241-3.142 4.313-5.805.07-2.637-.632-5.521-.035-8.552.053-.273 1.882-.483.967-1.266-.538-.46-4.393 2.928-5.757 2.145l.005 1.69-2.404-.002c.801 4.477-4.674 3.168-7.082 5.633l-2.985-.104c.878-1.543 2.744-1.23 3.947-1.813 2.99-1.45 17.185-14.134 18.532-16.972.535-1.125.396-2.28.775-3.063 2.718-5.609 6.911-11.678 4.493-18.132l-.876.159c.445-3.193.623-5.459 4.667-3.73 5.398 2.31-.24 12.362-2.267 15.591-2.516 4.01-3.553 6.022-5.679 10.282-1.549 3.104-5.482 5.463-3.923 9.752 4.053-.289 4.102-2.342 6.034-4.755 3.244-4.05 9.83-13.718 16.007-9.857 5.042 3.152 2.408 10.346 1.721 15.113l-2.638.439c-.803-1.888.097-7.18-1.173-8.182-1.194-.758-6.593-.603-7.359.173-.256.26-.265 1.196-.81 1.816-1.508 1.715-4.298 4.39-6.024 5.98-.78.718-3.29 2.119-3.616 2.64-1.186 1.9 1.46 3.831 1.62 4.624.055.275-1.392 4.486-1.374 5.44 2.364-.252 1.513 1.298 2.08 2.262 1.737 2.953 2.822 5.59 3.473 9.237.136.762-.365 1.579-.211 2.118.176.617 2.092.99 1.783 2.398-1.597 1.297-2.777 2.967-4.236 4.388-3.417 3.328-4.867 6-7.885 9.389-2.15 2.412-6.155 4.254-9.28 5.113-3.754 1.033-9.302 1.631-13.263 2.094-2.553.299-1.394.834-4.597-.044-.176.453.024 1.065-.717 1.428l-1.676-1.426c.21 1.32-.204 1.365-1.214 1.924l-.467-.966c-2.32 1.673-5.893 1.616-8.704 2.333-2.05.523-13.176 4.311-14 3.816-.292-.175-1.824-3.177-1.044.566-3.63-.046-6.684 1.914-10.414 2.194-1.114.083-2.626-.555-2.766-.54-1.643.19-4.358 1.317-6.418 1.434-2.547.145-7.52-1.046-9.41-.69-1.232.23-2.168 1.904-4.35 1.847-1.021-.027-1.89-.776-2.904-.846-3.191-.222-16.273-.465-18.217-1.95-1.147-.876-1.805-1.222-2.743-1.905-4.177-3.041-.92-6.364 3.358-6.115 2.769.162 7.732 2.532 9.532 4.666 5.135-.598 10.274-1.118 15.39-1.752 2.828-.35 8.067-.776 10.813-1.729 4.475-1.553 4.528-1.717 9.542-2.59 7.673-1.335 17.424-6.3 25.932-8.02 2.632-.532 8.736-1.665 11.154-1.276.12.019 1.109 2.297 1.2-.198.014-.377-.506-1.173-.444-1.238 2.497-.68 4.804-2.122 7.439-2.407 4.522-.49 9.094.868 13.622.53l.324 1.403c-1.173.469-2.54 1.802-3.61 2.167-2.526.862-6.252.877-8.812 1.362-2.88.545-8.428 3.764-10.16.3-1.029-.276-.971 1.15-1.204 1.438-.467.577-.364-1.778-1.431-.954l-.295 1.372c-1.222.24-2.537-.112-3.745.1-5.145.908-9.349 3.648-14.079 5.592-1.182.486-2.675.619-3.95.611l.028 1.69c-2.565.067-4.835 1.436-7.093 2.044-.905.244-2.074-.947-3.005.825 1.654-.228 4.027.798 5.407.617 1.722-.226 5.601-1.83 7.757-2.374 4.528-1.143 10.114-2.765 15.135-3.57 2.264-.364 4.192-.275 6.24.287m8.396-31.67v.48q.466-.24 0-.48m-26.385 28.79v.48q.466-.24 0-.48m-9.595 3.84v.48q.466-.24 0-.48m19.906.002h-.954v.954h.954zm-27.824 3.839h-.955v.954h.955zM298.556 245.273c4.976 3.9 6.848 15.062 7.796 21.228 2.074 13.491 2.233 27.18 2.476 40.754.183 10.2.01 20.405.226 30.694.063 2.99-.065 6.6-.147 10.063-.25 10.462-.605 21.001.018 31.553.148 2.505 1.274 8.088 1.777 9.829.31 1.07.96 6.001-.21 6.371l-1.203-.304c-.294-5.87-2.017-11.508-2.82-17.274-.74-5.318-.735-10.018-.995-15.319-1.399-28.468-1.566-57.245-3.853-85.877-.604-7.566-.114-17.57-2.535-24.816-.327-.978-5.92-8.101-2.524-8.055.788.179 1.384.675 1.994 1.153M53.593 636.643c.905.698.457.682-.525.746-5.372.353-8.242-.666-13.156 2.599-4.337 2.881-4.207 5.81-6.823 8.18-.577.522-4.58 3.03-5.294 3.223-1.042.281-1.705.414-1.55-.83l-.467-.001c.01 1.561-2.237 1.42-3.477 2.045-2.262 1.14-2.972 2.049-3.25 4.667l1.441.24c-4.396 1.552-8.784 4.385-6.93 9.818 1.845 5.408 8.517 4.74 12.923 4.82.792.014 1.632.544 2.389.474.985-.092 3.805-2.286 5.532-1.91-1.863 1.724.457 3.178 1.186 5.288.753 2.18 1.724 9.38 3.424 10.496 1.339.878 2.76-.247 2.09 2.665-.54 2.346-2.921 2.105-4.236.436-2.162-2.748-.872-6.58-2.091-8.945-.093-.18-2.582-2.9-2.764-2.992-1.107-.554-6.714.039-8.83-.287-3.026-.466-4.62-.75-7.67-1.043-.234-.023-3.936-1.62-4.306-1.853-2.733-1.72-3.593-5.657-3.072-8.695.69-4.026 4.649-5.838 6.119-9.465-.738-.07-1.415-.522-2.175-.519-.6.003-4.802 2.783-5.293 3.36-2.873 3.37-2.627 9.735-1.184 13.728.144.4 1.75 3.549 1.903 3.736.71.87 7.151 2.914 8.552 3.08 5.05.602 10.143.2 15.159.287 3.164.055-.109 2.072-1.479 2.605-2.95 1.148-7.18 1.304-9.06 2.54-3.46-.916-7.345-.52-10.738-1.71-12.907-4.534-13.435-23.928-.473-29.264 5.216-2.148 9.938-1.844 14.404-6.225 1.115-1.094 2.047-2.939 3.149-4.049 1.949-1.962 9.229-6.786 11.846-7.822 4.23-1.674 10.052 1.192 14.726.577"/><path d="M309.459 558.592c-2.053 2.365-4.647 5.184-7.408 6.747-2.112 1.195-5.143.813-5.526 3.204-1.951-.291-2.388.664-2.948.887-1.116.444-2.37.645-3.465 1.236 1.017-1.964 3.815-1.988 5.12-2.794 2.57-1.588 11.254-8.99 12.819-11.407 2.514-3.884 5.805-13.023 3.99-17.345-.43-1.024-2.98-3.725-3.875-4.52-.413-.368-2.867-2.425-3.19-2.083.449 2.479-1.053 6.75-2.174 9.1-4.83 10.122-9.44 13.927-19.234 19.15-6.924 3.691-12.559 4.812-19.85 7.496-4.117 1.515-7.836 3.614-12.036 4.85-1.845.543-2.512 1.581-4.996 1.152-2.072-.36.254-2.074-1.674-1.932.938-2.047 3.658-1.685 5.387-2.42 6.867-2.915 10.636-3.092 17.637-5.009 6.329-1.733 20.046-7.468 24.416-12.046 4.483-4.696 9.06-17.949 7.032-24.21-.853-2.633-6.236-4.036-4.616-6.473 1.84-2.768 5.793.88 7.703 2.18-.802-1.44 2.172-5.64 3.374-5.068.876 1.86 2.704 3.239 3.755 4.901.422.668 2.973 5.492 3.127 6.01.442 1.495-.195 2.258-.066 2.982.054.302 2.256 3.288 2.713 5.387 1.893 8.686-.54 13.715-6.015 20.025M204.97 13.151c-.105.188-.847 1.552-.922 1.618-.528.459-2.47 1.343-3.234 1.659-.733.304-1.404-.13-1.871.06-.994.402-3.452 2.41-4.627 2.505-.732.06-1.541-1.213-2.559-.87l.048 1.192c-.666.696-1.932.454-2.55.761-2.56 1.273-3.878 1.595-6.61 2.603-10.54 3.888-21.314 8.41-32.422 9.98-.491.069-.561 1.046-1.01 1.325-3.368 2.09-18.356 5.239-22.376 5.065-2.287-.1-4.74-.565-7.28-.734-10.647-.71-20.238-1.969-30.569-4.014-3.315-.656-7.008-2.127-10.33-2.623-4.076-.608-9.467.123-13.024-1.846-1.81-1-3.235-2.357-2.203-4.52 1.553-3.253 9.901 1.006 12.5 1.416 1.768.279 4.039-.155 5.84.175 16 2.94 32.376 9.833 49.025 8.242 8.53-.815 16.246-4.231 24.742-4.694.187-.01 2.037-1.49 3.225-1.909 5.078-1.79 11.957-2.81 17.283-4.306 2.467-.693 4.582-1.705 6.701-2.792 4.068-2.088 9.119-4.609 13.232-6.637 2.608-1.287 5.455-2.197 7.63-4.311l.767-.006c1.587.94 1.363 1.293.594 2.661m-76.539 23.684h-.954v.955h.954z"/><path d="M133.57 557.16c1.629 1.511.902.808 2.974 2.032 3.014 1.78 6.395 4.54 9.549 5.898 5.445 2.345 11.5 3.54 16.984 6.43 5.946 3.132 12.041 10.535 18.406 11.338 4.989.63 10.935-.988 15.79-.917 2.728.04 6.646 1.597 9.178 1.765 3.232.215 7.594-.997 11.472-.829 6.226.272 16.324 3.603 21.973 2.24 1.201-.29 2.121-1.195 3.194-1.499 10.585-2.993 21.022-5.913 31.716-8.583.493-.123 1.515-.704 1.862-.057-2.953 1.866-6.483 2.418-9.693 3.648-5.088 1.95-10.655 4.507-15.377 6.827-7.711 3.787-24.146 3.777-32.715 2.697-4.951-.624-10.006-3.523-14.506-.938-2.89 1.66-23.238-.236-26.858-1.824-4.947-2.17-7.895-7.975-12.177-10.837-12.247-8.184-40.403-12.095-43.106-29.36-.088-.566-.447-2.976.435-3.077.763 6.29 6.484 10.944 10.9 15.045M152.114 291.434c.853.67 1.853 1.237 2.218 2.366.277.857-.193.806-.718.352l-.23 1.318 1.429-.959c1.618 4.378 3.047 9.102 3.657 13.754 1.647 12.559.059 24.02-.024 36.39-.043 6.383 2.5 15.042 1.677 21.14-.212 1.576-1.244 1.745-1.46 2.858-1.488 7.708.706 16.546 1.843 24.052.397 2.618.072 5.242.547 7.849-2.178-.007-1.44-3.187-1.732-4.218-1.046-3.7-1.75-4.827-2.313-8.758-2.77-19.335-2.86-38.81-2.647-58.261.07-6.447.65-16.177-.713-21.875-1.062-4.446-4.59-11.701-2.42-16.285.597-1.263.694.126.886.277M246.927 682.226c-3.234 1.573-5.18 2.567-8.187 5.018-.536.436-.765 1.407-1.053 1.576-2.376 1.393-1.39 1.113-2.586 2.084-.873.708-3.392.715-4.493 1.15-2.905 1.152-6.763 3.018-9.266 4.65-4.724 3.08-8.488 8.955-14.228 3.277.082.981.486 1.415.364 2.51-.397 3.562-4.462 11.466-5.41 15.718-.852 3.814-1.029 7.778-1.27 11.683l-1.61 1.11c-2.366-.878-3.097-2.456-3.144-4.861-.023-1.219.835-7.237 1.105-8.534.497-2.38 2.348-5.62 3.007-8.026.765-2.794 1.211-8.582 2.263-10.694.541-1.087 2.294-1.595 3.091-2.429.474-.495.204-2.09 1.59-1.753l1.682 1.915c.656-.656 1.02-1.505 1.673-2.17 4.773-4.87 21.608-10.441 28.586-12.195 1.829-.46 3.729-.236 5.124-.632 3.458-.98 7.772-3.319 11.271-4.081.496-.108 2.544-.559 2.521.36-3.835 1.039-7.464 2.59-11.03 4.324l-.003-.957h-.954v.954zm-1.444.477v-.955h-.47v.955zM121.236 415.915c-.848 4.101.749 8.271 1.383 12.29 1.204 7.633 2.123 15.693 3.53 23.341 1.04 5.66 2.705 9.006 2.943 15.072.403 10.261.526 22.315-2.424 32.22-1.575 5.284-4.516 10.673-6.264 15.807-1.907 5.6-3.188 11.438-5.003 17.07-1.941 2.183-4.579 1.304-4.63-1.723l6.88-17.621c6.025-17.204 8.992-31.091 6.471-49.68-1.361-10.036-2.531-20.218-3.38-30.243-.11-1.287.547-3.049.26-4.557-.285-1.494-1.546-3.076-1.595-3.655-.065-.775.726-1.35.777-1.925.068-.771-.737-1.357-.768-1.943-.064-1.203.376-2.848.371-4.126zM281.946 247.009c-.135 3.191-1.082 6.098-1.338 9.356-.882 11.238 1.75 19.67 4.019 30.47 3.128 14.894 3.676 35.542 2.112 51.094-.152 1.512-.147 3.706-1.913 3.128l.008.953.973.691-1.707 3.149c-1.464.031-.893-2.62.249-2.625-2.402-2.94-.676-6.598-.664-10.006.02-5.795-1.16-12.807-.796-18.328.4-6.057-.31-13.137-1.722-19.32-.485-2.129-2.109-3.758-2.455-5.269-.332-1.454.239-2.435.09-3.523-.242-1.79-1.869-4.665-2.088-6.958-.566-5.925-1.362-14.745-.498-20.554.445-2.994 2.309-6.431 2.483-9.511zM123.837 574.06c3.755 3.203 7.82 6.116 11.972 8.92 7.019 4.74 19.768 11.225 28.022 13.696 5.093 1.525 10.474 2.053 15.442 3.756.554.19 1.824-.043 1.447.933l-3.96.14c-1.14-.894-3.353-.804-4.328-1.345-.424-.236-.329-1.63-1.277-.914-.076.058.054.684-.122.803-.384.262-8.083-1.171-9.113-1.461-14.52-4.085-24.457-11.632-36.19-19.944-1.246-.883-4.624-2.026-5.44-2.715-.864-.73-.635-2.895-2.243-3.525-1.752-.686-1.765 1.906-.672 2.98.683.671 1.793-.218 1.462 1.273-9.07 1.418-17.856-10.755-17.224-18.892.098-1.271 2.085-4.193 3.16-4.529 1.443-.45 8.136.228 9 1.377 1.64 2.183-1.192 5.84.163 9.436.807 2.142 7.77 8.191 9.901 10.01m-6.92-4.6-.234-.955-.722.952zM25.77 128.486c.44.435-2.234 6.805-2.595 7.937-1.254 3.935-2.445 9.5-2.637 13.943-.262 6.081 2.011 6.753 3.65 11.612.96 2.848 1.013 6.61 2.11 9.405 1.68 4.281 7.347 13.399 10.31 17.04 2.182 2.682 4.72 4.571 8.28 4.791.715-1.745 2.587-2.727 3.93-4.006 2.01-1.912 3.238-4.934 6.694-4.58.402.417-.85 4.502-1.195 5.277-.206.46-2.438 4.385-2.611 4.584-1.047 1.201-2.715 1.05-3.826 1.442-.418.148-.768.903-1.345 1.086-2.018.635-7.35-1.497-9.197-2.608-1.79-1.076-5.137-4.35-6.509-5.974-10.42-12.328-15.007-25.386-12.464-41.78.542-3.496 2.25-9.082 3.311-12.431.306-.966 2.711-7.102 4.093-5.738m20.625 66.694v-.955h-.47v.955zM246.606 556.655c-1.71 3.863-.309 8.602-6.062 8.518-3.158-3.402 1.993-8.192 3.273-11.538 3.538-9.25 5.818-29.65 5.035-39.596-.141-1.792-1.228-4.196-1.42-5.785-.907-7.534-.288-14.933-.028-22.493.038-1.117-.872-2.041-.007-3.306.287-.42 1.124-.228.965-.563-1.717-3.63-.66-11.767-.346-16.185.546-7.683.053-15.15.834-23.16.16-1.635.274-6.553 2.158-6.47 1.255.055.754 8.514.66 9.77-.81 10.726-3.235 21.945-1.409 32.707.567 3.337-.937 6.189-1.14 9.262-1.537 23.228 7.206 46.902-2.513 68.84"/><path d="M64.151 107.372c1.151 1.157-3.69 6.328-4.7 7.17-4.532 3.782-15.303 5.572-18.07 10.118-.628 1.032-2.143 4.255-2.657 5.503-1.05 2.545-1.154 5.42-2.865 7.704-.367.49-1.307.62-1.392.748-.052.079.42 1.023.235 1.865-.548 2.49-2.015 3.015-2.235 6.937-.705 12.603 4.783 16.644 11.4 25.374.298.392.056 1.18.14 1.281.045.056.892-.551 1.432-.278.57.289 1.303 1.95 3.029 2.76 4.359 2.045 11.747 5.08 16.438 3.309.945-.357 6.58-4.695 6.917-4.352.17.84-.431 1.186-.95 1.684-.61.586-3.67 3.285-4.155 3.54-1.284.673-1.954.097-2.583.334-.798.3-.65 1.188-2.613 1.202-6.029.045-17.697-4.424-22.097-8.663-7.141-6.878-8.565-15.483-8.786-25.178-.168-7.33 4.947-21.619 9.8-27.12 2.538-2.876 17.39-13.165 20.706-13.825 1-.2 2.002-.134 3.006-.113M277.622 164.481l-.374 8.387c-.112 3.532 2.215 8.17 6.384 6.49l-.249 1.427 1.441.001.26-1.47c2.326-.665 2.683.897 2.961.97.643.171 1.499-.078 2.177.134 4.518 1.415 10.98 4.411 8.606 10.257-.325.8-.878.727-1.238 1.2-.604.791.25 1.69-1.492 1.396-2.676-.45.042-3.947-.318-5.431-.05-.205-1.937-3.264-2.19-3.586-1.785-2.277-4.689-3.532-7.546-2.966-1.042.206-1.63 1.172-2.514 1.326-.967.169-3.314-.41-4.574-.255-7.25.891-12.888 3.049-19.571 4.408-2.357.48-3.578 2.093-5.985-.218-.61-1.431-.256-2.678.319-4.01.878-2.032 6.596-7.64 8.832-7.962 1.709-.245 7.075-.666 6.452 1.877l2.85.011c.88-4.254 1.473-8.79 4.324-12.257zm5.282 15.83h-.954v.47h.954zM185.85 226.04c1.94 2.71-.329 12.265-1.037 15.698-.207 1.002-.914 1.86-1.1 2.739-1.14 5.4 1.377 11.214 1.825 16.667.739 8.993-1.241 18.712-1.022 27.368.077 3.031 1.125 5.717.728 8.939-.166 1.35-1.552 2.055.295 2.58-1.582 1.977-.234 2.034-.02 4.074l-1.435.005c.498-4.428-1.112-8.799-1.686-12.948-1.116-8.061-1.561-15.18-1.223-23.31.065-1.577.841-4.626.797-6.214-.075-2.671-2.8-8.848-3.423-12.217-.461-2.49-1.597-10.013-.966-12.04.523-1.677 2.426-6.722 3.397-8.112.643-.92 1.916-1.331 2.067-1.562.08-.122-.154-2.116.57-2.769.287-.208 2.006.787 2.233 1.103M339.456 85.385l.063 1.351c3.864-.78 7.568-.83 11.51-.477.371 2.055-2.423 2.83-4.063 2.912-.67.033-4.772-.512-5.537-.704-2.006-.504-3.283-1.715-5.27-1.725.987 1.4 3.393 1.809 3.761 3.708.478 2.468-2.34 3.018-1.825 5.382 1.044.118 2.032.478 3.096.538 5.314.3 16.196-1.233 21.451-2.575 2.392-.61 11.272-4.118 12.397-5.953 2.685-4.376-5.516-4.665-5.298-8.301 1.973.495 4.446.175 4.32 2.883 8.736-1.89 7.243 4.114 2.151 8.15-4.506 3.572-12.67 5.437-18.264 6.203-6.273.858-12.642.75-18.563 1.333-1.366.134-2.81.115-4.191.14l-.242-.965c-2.555 1.522-5.568.794-8.144 2.414l.714-.49c-.316-1.392-1.632-.552-2.395-.804-.914-.302-2.595-1.37-3.251-1.48-1.2-.2-2.502 1.125-3.46-.351l2.664-1.166.802-6.156c.25-.435 5.117-2.192 5.999-2.396 1.291-.3 4.964-1.174 5.205.39.896.118 2.808-.736 2.589-1.946-.234-.216-5.326-.886-6.244-1.193-1.771-.59-3.722-2.25-5.31-2.847-2.553-.961-5.94-.745-8.103-2.92-.064-1.483 6.388.191 7.185.48 2.077.754 4.745 2.7 6.75 3.805zm-20.33-6.806v.48q.468-.24 0-.48m15.588 15.84c.182-.17 1.347-4.255.735-4.813l-4.904-1.82c-.98-.018-1.353 1.159-2.105 1.55-1.99 1.036-4.28.989-5.235 3.406 1.755 2.03 4.079 3.17 6.833 2.51.973-.233 1.834-1.121 2.627-1.232.688-.096 1.903.534 2.049.398m3.839-5.28h-.955v.954h.955zm-1.44 2.88h-.954v.471h.955zM160.503 540.119l-2.719.468c-.711-.406-1.897-5.406-1.961-6.464-.144-2.341.727-4.033.907-6.176.52-6.2-2.734-26.568-4.53-32.882-1.226-4.315-5.161-7.889-2.43-12.946 1.385-1.012 4.037-.655 4.788.992.305.67.152 1.493.386 2.013 4.698 10.428 4.418 19.276 5.157 30.35.52 7.8 1.308 11.25.453 19.222-.166 1.549.527 3.718-.05 5.423M216.222 457.656c-.329 5.681.185 11.364.022 17.056-.111 3.867-.973 8.044-1.214 11.764-.17 2.648 1.09 7.798 1.208 10.795.257 6.564-.206 11.55.44 18.235.852 8.824-.16 17.523.615 26.255.427 4.808 2.005 7.503-.005 12.69l-2.262 3.018c-.912.153-.777-.5-1.002-.948-1.852-3.688-.93-9.95-.672-14.166 1.113-18.142-.3-36.416-.002-54.705.06-3.73.05-7.041-.032-10.534-.154-6.515.368-13.004 1.001-19.45zM165.783 237.483c.563.876-.81 5.37-.907 6.866-.542 8.315.769 19.878 1.36 28.328 1.61 23.013 3.88 47.34 2.806 70.417-.035.755.25 2.43-.553 2.757-1.698-2-.93-4.255-1.2-6.472-1.28-10.466-2.329-24.088-2.143-34.563.02-1.09.844-2.451.73-3.288-.044-.32-.922-.267-.997-.617-.206-.958.459-1.911.347-2.724-2.393-17.398-2.562-35.35-1.752-52.841.1-2.182-.373-5.246-.018-7.215.274-1.525 1.917-1.286 2.327-.648M197.993 461.98c-.008.651-.57.718-.142 1.413 3.004 4.873-.876 11.76-.831 17.038.051 6.05 2.688 13.685 1.934 19.663-.079.62-.8 1.184-.804 1.477-.005.417 2.382 6.105 2.51 7.878.05.678-.749 1.037-.652 1.618 1.704 10.202-.505 23.364.34 34.165.136 1.733 2.877 3.567.673 4.951-1.543.97-3.243-.021-4.094-1.486-.522-.898-1.741-5.645-1.854-6.828-.566-5.922 2.21-13.03 2.258-19.275.037-4.79-1.859-11.005.663-15.276l-.962-.517c.619-7.212-1.847-14.926-2.346-22.085-.388-5.56 1.374-15.707 2.368-21.53.147-.86-.517-1.431.94-1.206M272.351 719.169c-.659.107-1.458.271-2.03.61-5.333 3.168-11.605 8.043-15.936 12.373-.969.97-2.456 1.42-3.07 2.724-.813 2.977 5.384 5.768 7.69 6.525 8.562 2.811 15.464 1.203 23.784-.511 1.897-.391 4.567-.085 6.463-.734 1.147-.393 2.116-1.708 3.196-2.017 1.113-.32 1.421 1.208 1.446-.968l5.321-1.68c.591 2.936-.823 2.226-1.747 3.046-10.149 9-31.487 9.507-44.224 5.748-3.677-1.085-7.577-6.181-5.952-10.115.868-2.102 6.028-6.156 8.261-6.631.71-.152 1.802.383 1.912.271.061-.061-.032-1.007.502-1.659.856-1.044 2.924-1.284 3.683-1.849.575-.428 1.113-2.017 1.74-2.576.529-.472 7.343-3.998 7.78-4.006.783-.013 1.325.674 1.181 1.449M386.407 37.468c.149.089.115.804.395.817 1.601.071 3.046-1.588 4.935.774 1.954 2.446.345 3.147.26 4.728-.074 1.403 1.856 3.332 1.025 5.038-.701 1.438-10.628 4.341-13.229 6.943-1.363 1.364-1.64 3.186-2.554 4.406-1.317 1.76-3.457 3.626-4.62 5.693 1.87.62 4.017-2.17 5.523-2.636 1.966-.607-1.628 3.681-1.892 3.868-.869.615-1.98.292-2.953.887-1.324.81-1.672 3.707-5.016 2.21-.665-.374.46-3.067.77-3.58 3.188-5.272 7.225-11.534 12.23-15.119 1.062-.76 7.834-3.418 4.432-5.453-3.045-1.822-14.677-2.405-15.887-4.495-1.23-2.125 3.361-4.412 4.978-4.686 1.04-.176 11.105.306 11.603.605M264.197 441.818c1.006-5.83.398-12.046.458-18.008.01-1.023.491-1.937.502-2.86.036-3.168-1.487-8.142.479-11.04-1.921-.526-.49-2.747-.46-4.295.386-19.527 1.46-40.668-.017-60.037-.11-1.428-2.187-12.706-1.197-12.685 2.71 1.31 1.893 5.468 2.202 7.872.915 7.12 2.086 13.266 2.356 20.679.538 14.781-1.202 27.783-1.83 42.71-.418 9.957.934 20.204.378 30.228-.046.831-.568 6.221-.745 6.496-.266.41-1.787 1.217-2.126.94m2.159-48.46v.48q.466-.24 0-.48M282.254 74.465c7.514 2.93 19.337-.206 26.72 1.72.403.105.275.992.563.974.636-.04 1.004-.707 1.42-.758 1.35-.164 3.107 1.272 4.567.259l.004 1.437c-.158.16-3.705-.346-4.476-.29-6.819.497-14.183 1.34-21.182.765-6.392-.525-16.984-4.429-23.06-6.685-5.428-2.017-4.248-2.997-7.642-5.79-3.018-2.486-7.383-2.739-10.346-5.488-.818-.76-2.362-3.111-3.03-4.168-.581-.922-3.668-6.606-3.18-7.13 4.428 1.109 6.742 5.922 10.065 8.882 6.423 5.722 19.926 14.421 27.933 15.696.644.102 1.073.353 1.644.576m16.479 3.632v-.955h-.47v.955zM233.106 303.55c2.02 2.753 2.133 12.39 2.659 16.763 1.146 9.532 2.505 19 2.914 28.612l-.862.767c-.499-2.968-.313-6.455-.763-9.338-1.593-10.188-2.628-18.461-3.562-28.806-.226-2.499-1.327-6.012-1.388-8.212-.097-3.45.349-3.958-.236-7.811-2.85-18.778-.327-39.707-1.419-58.93-.053-.933-.954-2.088-.31-3.503.884-1.008 3.287 3.514 3.326 4.592.177 4.827-.932 10.042-.964 14.917-.059 8.991-1.222 20.038-.27 28.612.725 6.53 1.766 13.566 1.625 20.366-.017.791-1.175 1.393-.75 1.972M338.555 105.45c-.303.254.657.734.96.48-.329.506-1.2 1.3-1.246 1.654-.29 2.292 1.562 2.378-2.213 3.766-1.94.713-11.415 1.953-11.253 4.417.056.846 5.2 7.015.104 6.478-1.04-.11-1.59-1.38-2.696-1.206l-.84.344c-.011 3.085-3.244 4.547-4.818 1.52-1.472-2.832.943-4.861.439-7.038-.068-.292-3.346-2.503-3.779-4.535-.253-1.188 1.184-3.283 1.846-2.26.2 2.782 3.371 4.72 5.277 2.384 1.333-1.635 1.818-3.708 4.785-3.601.088 1.158-1.021 2.087.236 2.863 2.515-1.346 7.99-1.647 6.483-5.742 1.385-.63 2.523 1.779 3.105 1.795.192.006 2.712-1.068 3.61-1.318M338.555 105.45c.28-.077.64-.807 1.437-.477l-.002.717c-.057.17-.415.148-.475.24.303-.253-.657-.733-.96-.48M273.31 593.937c.248 1.246-.274.836-.936 1.2-1.497.82-5.919 2.365-7.689 2.884-7.85 2.3-12.97 2.07-20.87 2.637-4.202.302-9.529 2.752-13.188.474-.665 2.506-4.293 2.206-6.376 2.505-3.937.566-8.692 1.67-13.067 1.715-1.218.012-4.696-.166-4.794-1.347l-.477.964c-.282-.313-.635-.704-1.046-.798-2.002-.462-5.52-.35-7.565-.667-1.043-.161-1.985-1.03-3.142-.938-.123-.809 1.128-.49 1.684-.491 3.74-.002 6.793.818 10.292 1.218 3.438.394 4.753-1.115 7.565-1.566 9.036-1.45 21.159-3.609 30.107-3.477 3.105.046 1.652-.35 2.844-.517 1.686-.236 3.35.523 4.722.421 3.02-.223 10.025-1.242 13.009-1.875 2.92-.618 5.78-2.585 8.927-2.342m-56.608 8.16h-.955v.47h.955zm10.796-.005v.48q.466-.24 0-.48m-8.156 1.44v.479q.468-.24 0-.48M141.236 259.15c1.19 1.315 1.476 4.27 2.331 5.586.9 1.383 3.27 1.223 3.583 3.67.182 1.423-.914 1.918-.877 3.166.074 2.559 1.693 5.658 2.18 7.952.409 1.923 1.77 8.358 1.565 9.944-.164 1.26-2.542 2.074-3.653 2.148-2.893.192-4.136-2.007-4.443-4.6-.573-4.842.086-9.819-.23-14.41-.335-4.87-2.14-9.774-3.184-14.56.432-.336 2.33.664 2.728 1.104m4.945 9.453h-.954v.47h.954zM211.904 337.217l-1.434.002c-.122-1.793.181-3.723-.029-5.495-.17-1.438-2.173-3.21.026-3.86-1.973-2.537-.785-7.029-.932-10.097-.18-3.784-.566-7.74-1.01-11.512.086-1.073 3.497-2.046.023-2.15 1.044-2.535-.008-4.683-.03-6.958-.126-13.765-.808-27.938-.444-41.755.023-.895-.205-1.531.714-2.139.87.574.683 1.266.743 2.126.394 5.637 1.22 10.251 1.263 15.86.144 19.215-.113 38.687.33 57.984.023 1.052 1.302 7.473.78 7.994M222.458 410.156c.17 2.582-.217 5.38-.016 7.933 2.356 29.926 7.47 58.74 4.81 88.747l-1.675 15.119c-2.024-3.207-.232-5.846.008-8.855 1.013-12.686.093-27.817-.273-40.785-.327-11.606-1.81-20.988-2.824-32.193-.878-9.717-.732-19.533-.995-29.255zM265.154 331.94l-1.886-.028c.032-3.938-.596-7.804-.9-11.731-.185-2.397-.806-4.357-.928-7.171-.33-7.553.002-15.46-.218-23.058-.102-3.545-1.359-8.713-.904-12.033.13-.953 1.034-.61 1.019-.927-.035-.706-.832-1.142-.964-1.93-.37-2.214.145-5.3.006-7.683-.335-5.749-1.671-14.014-.282-19.436.297-1.158 1.038-2.147 1.228-3.336 1.709.637.215 1.096.224 1.653.308 19.545 1.668 39.135 2.172 58.566.04 1.541-.52 4.05-.466 5.747.225 7.24 1.33 14.202 1.899 21.367M198.95 438.943c-1.733-.068-1.812-1.238-.477-2.16l-.998-.523c1.001-2.48-.05-5.129-.002-7.631.093-4.913 1.425-11.87.882-16.678-1.309-11.587-6.546-22.09-8.04-33.705-.528-4.113-1.055-8.068-.953-12.236 1.032-.186 1.14.464 1.43 1.203 1.163 2.961 1.074 9.678 1.864 13.493 1.096 5.29 3.225 10.274 4.72 15.43 2.62 9.03 4.128 17.658 3.517 27.233-.132 2.067-1.173 3.5-1.418 5.3-.187 1.367-.13 9.91-.524 10.274M182.548 89.085l-1.112-.414c.602 1.4-2.031 3.415-3.145 4.03-4.248 2.343-8.562 2.786-12.934 3.856-1.978.484-4.689 2.533-6.59 3.487-2.749 1.38-5.549 1.449-7.613 4.408l-1.537-1.23c-.578-2.938 9.018-6.499 11.436-5.451l-.751-1.92c.146-.293 4.612-3.45 5.3-3.847 2.736-1.58 6.173-2.128 9.305-3.649 2.73-1.326 7.978-5.532 10.117-6.205 1.82-.573 3.793.417 5.285 1.468-2.957 1.218-6.266 2.417-7.76 5.467M368.142 102.257c.198.143 1.835 1.7 2.104 1.984.375.395 1.652 2.544 2.034 2.954.864.929 1.585.585 2.24 2.35 1.206 3.244.498 7-1.248 9.848l-2.096-.026c-.084-2.91 1.06-6.082-1.43-8.406-1.148-1.073-5.497-3.492-7.083-4.406-4.436-2.555-7.04-2.708-12.374-2.563-1.8.049-3.973 1.36-5.495-.223 1.669-.644 3.9-.047 5.553-.628.731-.257 3.048-2.037 3.91-2.379 3.143-1.242 11.125-.489 13.885 1.495M81.898 585.782l-4.054 4.325c-3.147 5.13 1.494 9.285 2.406 13.875.366 1.84-.022 3.567.435 5.323.369 1.417 2.273 3.71 3.131 5.025l-2.393-.24c.066 2.457 2.035 4.321 3.355 6.23-1.922 1.488-5.791-7.115-6.13-8.497-.392-1.61-.043-3.89-.345-5.409-.209-1.047-2.73-8.014-3.366-8.16-4.899 3.804-5.287 10.544-5.241 16.341-2.235 1.692-4.686.37-4.927-2.247-.358-3.896 1.948-9.844 5.117-12.436 2.145-1.755 4.061-.8 4.913-4.248.384-1.554-.047-2.85.631-4.604.973-2.517 3.87-4.693 6.468-5.278m-5.995 11.031v.48q.468-.24 0-.48M144.15 403.798c-1.275 1.286-3.38.459-4.313-.972-1.77-2.717-4.293-13.641-3.5-16.68.506-1.94 2.696-4.985 3.389-7.165.345-1.086.007-2.274.288-3.08.224-.64 1.12-.644 1.256-.876.053-.091-.126-1.118.604-1.816.815-.126.514 1.15.467 1.667-.232 2.575-1.055 7.127-.852 9.495.219 2.55 2.335 7.304 2.75 10.213.22 1.54.538 5.611.528 7.161-.004.567-.228 1.66-.617 2.053M131.31 411.11c-.389 6.567 1.297 12.932 1.916 19.441.87 9.153 1.217 18.417 2.16 27.352.947 8.955 2.308 19.695 2.202 28.778-.012.97.167 1.967-.766 2.642-1.16.23-.686-.933-.713-1.67-.604-16.06-3.026-31.729-4.743-47.566-.777-7.172-.979-14.46-1.346-21.424-.132-2.5-.2-5.037-.145-7.553zM331.359 173.593c.243.193-2.13 2.511-1.228 3.355 2.687 1.17 5.186 4.818 7.593 5.87 4.805 2.097 12.487.927 17.275 1.914.336.07 3.056 1.257 3.147 1.404.8 1.283-1.336 3.818-2.314 4.443-.156.1-3.406.83-3.6.82-1.203-.06-6.782-2.532-8.392-3.18-4.25-1.713-13.544-6.397-16.324-10.17-.827-1.123-.125-2.17-2.674-3.015l.765-3.364c1.98 1.056 3.396 3.031 5.752 1.923M148.046 412.135c4.387 11.305 2.17 24.147 1.996 36.082l-1.223.8c-.281.082-.635-1.392-.67-1.719-.84-7.626-1.53-15.338-2.514-22.924-.452-3.488-2.414-6.466-.824-10.073.447-1.014 1.997-3.015 3.235-2.166M305.623 196.446c5.163 4.174 9.538 9.935 8.25 16.994-.294 1.608-3.029 9.614-3.756 11.118-.651 1.348-1.625 2.36-1.785.142-.373-5.178 1.242-9.513-.142-14.74-1.362-5.137-6.777-8.832-4.648-14.776 1.567-.43 1.484.78 2.08 1.262M146.07 215.45c1.29 1.292.09 3.797.145 5.33.152 4.201 2.13 9.12 2.387 13.97.243 4.581.085 9.27-.984 13.692-.804-.417-1.536-2.536-1.686-3.34-.526-2.802.184-7.16-.27-10.291-.209-1.446-1.3-2.822-1.396-3.925-.106-1.228 1.084-3.382-.124-4.398-.504-.424-1.745-.237-2.77-1.304-2.79-2.91-2.737-10.304 2.172-10.37.681-.008 2.058.167 2.525.635M138.026 492.687c-.46 2.841.205 5.695.354 8.507.031.594-.642 1.013-.649 1.325-.006.3.976 1.579 1.147 2.516.288 1.58-.072 3.167.115 4.681.194 1.578 4.707 13.849 5.536 15.096 2.185 3.288 4.92 1.733 5.505 2.141 1.407.981 2.982 8.624.707 9.87-1.248-.852-.91-2.615-1.65-3.617-.675-.913-2.829-1.343-3.89-2.348-4.134-3.908-8.246-16.932-8.63-22.602-.085-1.249.512-2.262.453-3.28-.108-1.877-1.19-11.575-.432-12.292zM282.747 230.849c-.326-.29-1.106-.276-1.508-.629-3.683-3.235-6.345-12.695 1.376-11.954 4.163.4 5.58 2.43 7.962 5.478l-.709 1.035c-4.708-.363-6.39.313-3.703 4.812.957 1.603 3.571 2.734 2.037 4.724-1.75 1.264-4.599-2.704-5.455-3.466M204.71 62.75c-1.564 2.229-5.07 1.86-7.289 2.54-2.236.684-4.619 2.076-6.626 2.547-2.386.559-1.621.636-2.609.968-6.006 2.021-13.273 3.495-19.368 5.782-8.548 3.209-17.3 9.02-25.397 11.55-1.851.578-4.037 1.293-5.869.603l.954.952h-2.396c1.672-2.992 5.621-2.661 8.53-3.698 4.715-1.681 7.823-3.951 12.088-6.145 9.76-5.02 21.201-7.687 31.996-10.702 5.315-1.484 10.43-3.793 15.987-4.398M155.06 80.018v.48q.467-.24 0-.48M215.592 387.961c-1.255 2.16-.194.828.133 2.779.96 5.735.341 12.923.05 18.71-.098 1.942 1.347 3.653-.985 4.062.716-2.012-.794-2.989-.97-5.044-.532-6.215.47-13.74.025-20.168.21-6.195-2.05-14.299-1.858-20.147.037-1.132.769-2.755 1.599-3.576.541.004 2.011 5.6 2.12 6.507.218 1.824.31 16.148-.114 16.877M186 305.065c-.135 4.827 1.349 9.509 1.709 14.268.093 1.233-.331 2.514-.27 3.693.406 7.805 2.011 15.446.663 23.468l1.255 15.192c-1.257.233-.84-.241-1.174-.955-1.074-2.304-.178-4.678-.507-6.956-1.832-12.655-2.614-24.15-1.177-36.92-.743-.102-1.227-2.426-1.419-3.427-.362-1.89-1.006-5.842-1.016-7.637-.008-1.38 1.222-.535 1.935-.726M242.607 378.483l-.51 10.319c1.762 18.12-1.617 35.892-2.635 53.647-.035.6.924.952-.688.811-.593-8.281.97-16.492 1.414-24.687.455-8.408.891-17.737.564-25.43-.124-2.928.519-5.712.633-8.347.046-1.067-.554-5.991-.213-6.315zM286.606 214.71c-.543.44-2.283.894-2.74.621-.041-.024.37-.595.168-.948-.672-1.18-1.54-2.076-2.194-3.507-.31-.681-.256-1.928-.46-2.17-.307-.36-6.914-3.385-8.307-4.408-1.316-.966-3.902-3.284-2.678-5.06 1.835-1.173 9.392 3.464 11.084 4.81 2.388 1.9 8.693 7.777 5.127 10.663M284.648 143.666l-2.219 2.09c.089-1.254.431-2.543.824-3.73 1.256-3.807 3.004-9.762 5.483-12.75.42-.507 3.938-3.612 4.367-3.787 1.66-.679 4.187-1.001 4.199 1.299.023 4.492-.7 2.913-3.309 4.867-4.023 3.015-6.795 7.592-9.345 12.011M316.484 689.907c.675 1.523.008 4.06-1.912 2.879l.952 1.19c-.615 1.452-4.18 3.959-4.816 4.904-3.194 4.741-4.602 10.936-10.089 13.794-.605.315-1.44-.154-2.02.215-1.118.709-.134 1.988-3.25 1.28-2.168-.493-2.33-1.57-2.762-3.557.996-.971 3.461-2.636 3.767-.576l.925-.004c-.151-1.322 1.139-.785 1.886-1.21 7.742-4.395 10.462-11.954 15.682-17.92.475-.544.737-1.187 1.637-.995m-7.912 11.033v.48q.468-.24 0-.48M318.404 168.793c1.109 1.04-1.829 9.921-2.274 11.876-.259 1.135.026 2.336-.333 3.505-.44 1.43-5.11 5.75-6.504 4.77-.415-.634.058-1.772-.026-2.093-.119-.45-1.258-.115-.931-1.019 2.021-1.369 1.766-3.594 2.631-5.529.992-2.216 4.506-9.449 5.986-10.807.473-.434.678-.881 1.45-.703M239.729 445.184c-.246 1.39.386 2.706.412 4.049.048 2.504-1.678 6.723-1.356 8.604.08.474 1.089.382 1.346 1.089 1.321 3.637-.303 5.476-.438 8.092-.296 5.75 1.93 11.912.191 17.904-.177.61-.376 1.403-1.108 1.527.325-1.228-.36-2.68-.337-3.71.108-4.872-.002-8.27-.633-13.36-.846-6.826-.419-8.16.286-14.927.247-2.372-.208-5.74.2-8.07.145-.819.523-1.346 1.437-1.198M290.193 605.86c.596.384 5.08-1.635 5.666 1.025-2.082-.116-4.573.207-6.595-.127-.7-.115-1.376-.926-1.552-.824-.073.042.206 1.009-.928 1.232-.923.182-1.783-.384-2.651-.29-3.802.411-8.464 2.722-12.25.723-1.215-.64-3.196-3.37-1.102-4.443 3.868-1.982 9.355 1.295 13.585 1.598 1.549.111 3.624-.68 4.963-.195.658.24.649 1.161.864 1.3M267.404 611.055c-1.27 1.154-4.33 1.259-6.083 1.835-1.625.534-4.17 2.43-6.015 1.694l.006.973c-2.739 1.047-6.71 2.855-9.614 3.3-2.225.34-4.688-.13-6.924.504.21-.814 2.055-1.118 2.775-1.29 3.09-.743 4.17-.699 6.925-1.732 2.359-.884 8.806-2.813 10.304-4.313.28-.28.272-1.069.62-1.518 1.378-1.782 2.553-3.715 4.051-5.398 1.434.786 3.028-.013 4.04 1.102 1.33 1.463 1.419 3.476-.085 4.843m-2.25-5.12h-1.434v.47h1.434zM135.627 385.683c.552 1.237-1.285 2.13-1.315 2.63-.023.375.699.979.706 1.497.066 4.82-2.093 9.068-3.101 13.51-.406 1.786-.25 4.067-.755 5.984-.234.888-.108 1.6-1.287 1.326-.437-.542.305-6.978.298-8.313-.027-5.084-2.218-17.044 5.454-16.634M131.722 168.722c-3.152 1.64-6.456-.418-9.338-.878-.76-.121-1.582.292-2.502.145-1.399-.224-2.773-.813-4.155-1.125l-.198 1.204c-1.401 1.23-6.95 1.477-7.722-.711 2.905-1.042 5.853-1.936 8.935-2.343 2.114-.28 6.49-.63 8.586-.566 2.797.085 7.773.485 6.394 4.274M298.263 505.163c.27-1.4-.842-2.316-.997-3.578-.434-3.523.132-8.787-.038-12.437-.13-2.795-.913-6.498-.93-9.18-.027-4.214 4.054-1.772 4.383 2.377.258 3.265-1.13 4.373-1.32 6.325-.33 3.398.67 8.56.353 12.428-.065.794-.653 3.535-1.451 4.065M310.092 119.036c.713 1.301 1.05 5.486-.025 6.58-1.875 1.908-3.818.489-6.05.466-.21-1.435 1.711-1.482 2.162-2.392 1.568-3.167-3.09-9.3-5.04-11.754 2.56-2.306 6.213 1.49 7.311 3.713.676 1.368.886 2.006 1.642 3.387M118.842 398.634c.662-1.506-.022-3.908.137-4.957.405-2.66 1.056-5.777 1.293-8.722.192-2.385-.683-6.425.952-8.174 2.655-2.838 4.07 5.01 3.778 6.629-.19 1.054-1.522 2.005-2.001 3.314-.658 1.797-1.604 5.85-2.14 7.938-.424 1.654.786 4.327-2.02 3.972M300.649 215.82c1.254 3.519-1.05 7.226-.99 10.788.044 2.59 1.541 5.383 1 8.157.004.423-.98.319-1.187.23-1.485-.633-3.768-9.46-3.646-11.255.095-1.398 2.833-9.267 4.823-7.92M215.735 101.128l-1.871-2.288c-1.414-3.636-1.48-6.731 1.23-9.743 6.72 1.368 2.436 8.158.641 12.031M275.228 214.374c-2.2-.817-4.64-.095-6.812-1-.911-.381-5.204-3.645-5.683-4.49-.53-.937-.558-1.623-.452-2.663l11.983 5.043c1.14.694 1.038 1.906.964 3.11M320.805 103.052c-2.604 1.377-6.197 4.176-8.953 2.5-3.507 1.613-7.434 1.364-11.195.855-1.683-1.85 5.921-1.404 6.449-1.46 4.816-.503 10.922-2.789 16.195-3.957.158-.035 3.667-1.617 1.801-.119-1.475 1.184-2.87 1.426-4.297 2.18l-.002-.957h-.955v.955zm-5.759.482-.957.002.722.953zM264.564 522.8c-1.347 1.503-2.262-.61-2.329-2.028-.211-4.476 1.277-9.072 1.792-13.522.177-1.531-.06-3.809.175-5.446.51.133 1.24.825 1.359 1.294.295 1.16-1.054 7.144-.872 9.002.642 1.555 1.402 4.251 1.295 5.884-.02.302-1.253 4.628-1.42 4.815M328.96 141.924c-.84 1.432-2.364 2.291-3.277 3.674-3.748 5.676-2.676 8.868-2.44 14.796.044 1.097-.544 2.152-.533 3.331.023 2.43 1.65 4.259 1.696 6.503-2.202-1.271-1.627-3.26-2.176-4.94-.272-.835-1.684.571.03-2.014 0-.257-.778-.173-.94-.602-1.007-2.674-.116-10.51.898-13.342.866-2.42 3.697-5.46 4.882-7.842zM216.222 435.585c-1.86.328-.424-1.265-.584-2.105-.135-.713-1.55-1.057-1.355-2.446.034-.246.824-.222.914-.48.139-.404-.853-2.08-.91-2.861-.185-2.586-.392-6.612-.364-9.14.015-1.314.13-3.724 1.585-4.078.953 3.918.041 8.042 1.115 11.742zM222.933 353.533c.252.244.892 6.143.867 6.954-.053 1.756-1.054 3.87-1.135 5.293-.041.733.676 3.12.623 4.49-.168 4.316-.206 8.795-1.065 13.01-1.998-1.77.125-4.072.223-5.538.057-.857-.496-1.837-.488-2.839.052-6.541.31-12.828.243-19.24-.002-.14-.863-3.673.732-2.13M86.81 619.25c-.515-.489-.854-2.503-2.03-3.005.957-1.735 8.993 1.423 9.11 1.928.462 1.984-5.443 2.628-7.08 1.077M239.245 507.56c-.846-.181-.948-.95-.987-1.68-.206-3.872.593-8.95.724-12.953.058-1.75-1.122-4.87.744-5.998.95 2.959-.035 5.763-.03 8.392.007 4.166.944 8.227-.45 12.24M267.116 672.085l1.39.784-2.273 1.663c-.939.772-1.212-.052-2.031-.465l-.012 1.445-2.39-.008c-.036-1.062 1.426-1.542 1.634-1.901.192-.332 1.04-5.117 1.248-5.293 2.237-.016 3.355 1.684 2.434 3.775M199.431 70.904c.351 1.857-2.47 1.062-3.247 1.554-1.307.829.678.835-2.216.856-.305.002-.27.79-.657.908-2.554.778-2.572.194-5.257 1.468-2.026.961-4.045 2.26-6.368 1.927l3.221-2.292c4.919-1.12 9.594-3.816 14.524-4.42"/><path d="m214.306 457.173 1.391-9.884c-.709-1.646-.093-3.382-.211-4.774-.039-.451-1.641-3.203.012-3.087.64.471.752 1.144.916 1.856.466 2.025.392 8.082.226 10.315-.084 1.128-.296 7.08-2.334 5.574M21.229 65.151c1.681-.364 3.21 6.626 1.374 7.167-4.05-.124-3.978-5.099-1.374-7.167M120.276 399.12c-1.074 2.939.883 7.655.467 10.252-.085.532-1.408.609-1.417 1.018-.001.068.69.525.78 1.047.152.884-.169 3.184-1.262 3.512.037-2.263.314-4.621.295-6.875-.027-3.11-1.103-4.676.14-7.822.268-.676-.47-1.401.997-1.133M266.114 442.785v13.916h-1.435c-.333-1.565.324-3.144.384-4.56.084-1.985.095-4.261-.24-5.896-.321-1.565-1.236-3.854 1.29-3.46M384.444 72.023c.85.719 1.047 1.707.644 2.715-.902.679-6.52-3.562-6.236-5.507.301-2.059 3.742 1.87 4.088 2.162.413.348 1.154.335 1.504.63M209.985 101.138l-3.384 1.166c-1.943.94-3.396 3.565-5.726 3.622l1.633-2.43c2.265-1.955 4.383-3.409 7.477-2.358M222.938 396.237c-.681 3.506.51 7.224-.715 10.555-1.002-.625-.534-1.263-.58-2.008-.178-2.817.59-5.93-.141-8.542zM284.823 352.574c.283.894-.792 1.188-.886 1.76-.092.559 2.238 3.579.169 4.946-1.298-.013-.234-5.21-1.204-6.224zM222.46 394.793c-2.666-.307-.502-6.19-.473-8.149.835-.115.45 1.09.471 1.669.085 2.316-.684 4.457.002 6.48M288.663 710.062c-1.565 1.363-4.214 2.544-6.234 2.872l2.763-2.273zM266.111 465.815c-2.232-1.665-.7-5.472-1.39-7.856l1.16-.771c-.418.944.567 4.574.507 4.811-.389 1.528-1.58 1.11-.277 3.816M242.607 372.727c-.223 1.458-.133 2.886-.147 4.33-.018 2.01-1.293.615-1.541-.256-.185-.647.03-4.448 1.688-4.074M170.168 354.012l.959 5.755c-1.796.186-1.8-3.618-1.759-4.838.028-.813-.682-1.047.8-.917M264.682 491.247c2.337 1.102.194 3.837.169 4.573-.02.542 1.43.788.066 1.655-1.684-1.595.328-4.182-.235-6.228M280.028 574.256c.603-.884 2.658-1.574 3.659-1.856.35-.1 2.174-.833 2.088.181-.06.72-4.804 1.98-5.747 1.675M170.168 351.13c-1.806.15-1.574-2.753-1.916-3.832l1.69.464zM387.486 134.718h-1.917l.002-3.353c1.692-.099 1.594 2.238 1.915 3.353M265.634 477.33l.43 3.527-1.385.79c.354-1.1-.933-4.654.955-4.318M265.15 484.531c.414.348 1.16 5.008-.468 5.277l-.484-5.274zM281.945 712.939c.398 1.721-1.361.556-1.854 1.02-.429.404.195 2.515-2.461 1.851 1.323-1.152 2.256-3.125 4.315-2.871M284.823 359.772c.19.194-.051 3.517-1.432 2.877l-.437-2.121zM265.161 474.452l-.481-4.316c1.903-.375 1.658 3.822.481 4.316M187.438 602.096c.112.838-1.088.45-1.671.475-.483.02-5.712.275-4.08-.957zM126.512 341.533c-1.61.267-1.524-2.848-1.911-3.836 1.445.696 2.088 2.29 1.911 3.836M180.242 78.102c.355 1.906-1.331.38-1.84.572-.12.045-.708 1.821-1.993 1.342.042-1.885 2.428-2.023 3.833-1.914M103.008 103.527l-3.355.482-.005-1.435c1.12.038 2.86-.425 3.36.953M194.053 173.723c.333.226.521 1.72 2.023 1.31l-.716.944-2.638-1.675c-.267-1.042.877-.887 1.33-.579M233.974 198.536l-2.596.012-.279-1.445zM285.303 346.816c.547 1.835-1.187 1.624-1.433 1.926-.84 1.03 2.261 1.176.243 1.426-1.403-.889-.456-3.34 1.19-3.352M343.829 103.533v1.437l-3.355-.004zM162.015 83.862l-3.356 1.433c-.352-1.549 2.543-1.116 3.356-1.433M264.679 469.172l.472-2.873.969 2.143zM288.661 570.904c.345 1.397-1.592 1.218-2.392 1.917-.083-1.278 1.167-2.113 2.392-1.917M317.926 95.86c-.371 1.224-1.823.96-2.877.949.561-1.33 1.708-1.348 2.877-.95M386.044 129.92c-.701.126-.615-1.527-.643-2.03-.041-.726-.586-1.167.41-1.803zM136.112 492.204l.002-.71 1.43-1.207c.188 1.152-.223 2.037-1.432 1.917M171.125 363.126h-.47c-.021-1.106-.918-2.105.237-2.875zM186.958 56.511c.661.307-2.089 1.322-2.873.95v-.47zM222.459 409.191h-.955l.002-1.915.469.002zM204.701 67.533l-2.384 1.449 2.156-2.396zM116.436 183.665c-1.084-.288-1.024-1.5-.95-2.396h.47zM68.47 141.442h1.434v.955H68.47zM198.472 442.3h-.955l.003-.71.717-.724zM153.86 86.262c-.235.922-1.061 1.08-1.917.95-.496-.232 1.292-1.146 1.916-.95M201.83 69.467c.496.232-1.292 1.146-1.916.95.234-.922 1.06-1.08 1.916-.95M265.634 482.612l-.002.71-.95.727-.003-1.437zM170.168 351.614l-.235 1.435-.718-.725-.002-.71zM158.177 84.822c-.235.922-1.06 1.08-1.917.95-.495-.231 1.293-1.145 1.917-.95M222.456 352.571l-.945-.719.712-.718zM264.682 498.927h.47v1.915h-.47zM145.707 262.843h.954v.955h-.954zM168.733 81.463h1.914v.47h-1.914zM25.294 127.046h.954v.955h-.954zM81.902 584.34h.954v.955h-.954zM273.794 593.939h1.434v.47h-1.434zM277.632 574.265h1.434v.47h-1.434zM166.814 81.943h1.434v.47h-1.434zM175.447 79.544l-.954.955-.003-.957zM239.731 354.006l-.957.003.002-.957zM276.67 716.3l-.954.954-.003-.957zM233.497 619.371h1.434v.47h-1.434zM283.391 351.134h.47v.955h-.47zM274.276 716.297h.47v.955h-.47zM385.094 124.647h.47v.955h-.47zM210.952 337.699h.47v.955h-.47zM221.986 384.244h.47v.955h-.47zM264.2 497.97h.955v.47h-.955zM171.132 80.983h.955v.47h-.955zM205.193 65.628h.955v.47h-.955zM162.499 83.38h.47v.955h-.47zM188.885 55.069h.47v.955h-.47zM276.193 593.459h.955v.47h-.955zM132.754 88.661h.955v.47h-.955zM116.68 184.625q.468.24 0 .48zM237.572 618.886q.468.24 0 .48zM241.405 47.879c.266.305.966.625.49.94-.232-.281-.964-.606-.49-.94M197.275 175.028q.466.24 0 .48zM198.234 442.783q.468.24 0 .48zM240.93 369.846q.468.24 0 .48zM152.18 109.29q.468.24 0 .48zM239.97 363.128q.468.24 0 .48zM299.457 109.77q.468.24 0 .48zM30.329 119.846q.468.24 0 .48zM26.97 124.165q.468.24 0 .48zM289.863 710.057q.466.24 0 .48z"/><path d="M363.335 119.55c.153.063.169.674.509.756 1.69.41 3.861-.093 5.676.957 3.27 1.893 5.404 10.078 8.143 10.57 2.221.398 3.458-.869 5.286 1.43.894 1.124 1.26 2.42 1.176 3.858l-2.09-.895c-2.546 1.586-2.238 4.585-3.23 6.846-1.45 3.306-4.171 5.724-5.8 8.593-1.297 2.285-1.714 5.108-2.854 7.222-1.034 1.916-3.277 3.61-4.435 5.161-.458.614-1.636 3.595-1.81 3.704-.512.32-2.792-.041-3.897.185-.584.12-3.304 1.245-3.156 1.98.43 2.139 6.283 2.349 8.317 2.267 3.636-.145 7.898-2.416 10.763-4.635.55-.426 5.34-5.15 5.521-5.495.67-1.28 1.036-4.994 1.471-6.704 1.198-4.706 2.374-9.135 2.627-14.123.104-2.042-1.242-3.954 1.218-6.023.274.512.584 1.757.593 2.286.1 5.945-.22 14.634-1.835 20.463-.457 1.647-2.09 6.81-4.274 5.561.747 1.585-.555 2.317-1.67 3.37-3.59 3.386-7.846 4.799-11.888 7.175-.81.476-1.95 2.357-3.592 2.772-5.198 1.312-11.254-2.348-11.905-7.57 3.189-.416 1.571-1.37 2.857-2.92.171-.208 3.312-2.205 3.79-2.447 1.891-.956 3.8-.579 4.931-1.305.319-.205 3.792-4.522 4.062-5.052 2.45-4.827-1.91-7.842-3.142-5.568-.205.377.392 1.225.035 1.934-.29.576-1.575 1.104-2.19 1.691-1.197 1.144-.812 2.645-3.488 2.074-3.228-.687-3.263-4.623-3.94-7.118-.738-1-3.714.083-4.726.585-.613.305-.583 1.028-1.47 1.426-3.234 1.448-6.985.287-10.16 1.322-.885 1.225 1.124 3.835 1.601 5.186.415 1.173 1.87 6.953 2.116 7.238.321.373 3.146.233 3.625 2.004l5.408.964c-.249.994-.71.764-1.428.753-4.186-.065-8.445-1.366-11.25-4.632-1.84-2.143-2.022-2.474-4.125-4.51-.893-.866-2.762-4.116-2.843-5.315-.047-.691 1.162-7.21 1.449-8.014.151-.425.966-.34.95-.61-.04-.632-.737-1.029-.813-1.517-.309-1.975-.834-6.876.558-8.303.152-.155 4.273-2.079 1.903-2.405-1.239-.17-4.283 1.797-5.806 1.901-1.693.116-2.522-.919-4.402-.646-4.48.648-4.531 4.577-6.407 7.55-.614.974-1.66 1.558-2.242 2.556-1.034 1.775-4.557 7.802-4.318 9.386.29 1.925 2.05 2.496 2.246 3.067 1.31 3.824-5.153 2.697-5.541 6.24-.202 1.836-.227 2.739-.591 4.77-.297 1.654.655 3.684-1.47 4.523-1.261-5.226.507-9.062 1.578-14.011 1.489-6.88.43-14.358 4.732-20.699 5.274-7.772 12.61-7.415 20.018-11.168 2.35-1.19 3.814-4.008 7.074-2.393 4.304 2.132-.49 8.111-3.662 9.166l1.913.723-.952.476v.962l.946-.249c-1.962 1.071-2.33 4.243-4.297 4.317 1.682 1.829.201 2.603-.006 3.88-.44 2.707 1.716 5.866 4.459 6.339 2.477-1.646 12.933-3.637 13.7-6.482.304-1.125-2.563-5.73-3.457-6.682-1.591-1.691-3.62-1.522-5.817-1.606l-.01-.968c3.291.276 5.279-.17 8.149 1.929 2.425 1.773 5.543 7.134 6.532 10.018l4.294-.153.687-3.147 2.17 1.667 3.358 4.56.92-.034.3-.947 2.116.501c-.07-2.409 2.797-3.462 3.575-5.308.32-.759 2.245-6.5 2.147-6.845-.77-1.303-2.627-1.145-3.782-2.002-1.063-.789-2.055-2.975-3.047-3.906-3.424-3.212-9.183-4.932-8.514-10.683l-13.15-.99c-2.48.797-5.045.24-7.553.597-2.705.385-4.456 2.302-7.08 2.272-.257-1.788 1.416-2.509 2.625-3.37 2.997-2.131 8.295-4.601 11.953-4.254 6.957.66 7.97 1.494 14.038 3.971M239.97 359.77q.468.24 0 .48zM236.169 157.068c-1.214 1.692-2.98 2.322-5.075 2.121.635-1.042-.088-2.033.03-3.047 1.103-9.43 1.389-19.32 1.433-28.884.014-2.908-.474-5.935-.497-8.849.667.274 1.06 2.058 1.293 2.778 2.612 8.046 3.707 17.016 4.418 25.376.274 3.226.283 7.878-1.602 10.505"/></g></svg>