<?xml version="1.0" encoding="UTF-8"?><!DOCTYPE svg PUBLIC "-//W3C//DTD SVG 1.0//EN" "http://www.w3.org/TR/2001/REC-SVG-20010904/DTD/svg10.dtd" []><svg xmlns="http://www.w3.org/2000/svg" xmlns:xlink="http://www.w3.org/1999/xlink" height="616" viewBox="0 0 652.825 616.494" width="653"><g filter="none"><path d="M256.466 335.775c-3.866-.136-6.833-.728-10.338-.966-.933-.064-1.704.477-1.905.471-.68-.019-.762-1.348.015-1.423.347-.034 1.065.534 1.803.382.468-.095 2.556-.79 2.746-1.338-1.91.37-3.484-1.643-5.076-1.906-1.58-.262-2.798.49-4.253.477-6.921-.059-16.257-3.524-23.541-3.85-3.569-.158-6.41.698-9.675.773-6.265.143-11.88-1.135-18.147-.197-3.716.556-7.222 1.676-10.8 2.774 1.684-2.958 6.24-3.792 9.414-4.256 7.339-1.073 15.222.068 22.489-.542.593-.05 3.377-.2 3.12-1.188-.588-1.44-20.96-13.155-24.227-15.6-3.97-2.971-4.69-5.884-7.66-9.627-3.411-4.301-6.363-7.265-8.736-12.842-1.54-3.619-2.003-7.585-3.043-11.352.386-.743.834-.053 1.211.228 2.295 1.709 3.694 6.002 5.281 8.652.365.61-.094 1.216 1.19.946.025-2.498-3.38-5.674-2.881-7.834.093-.402 1.015-.128 1.002-1.005-.087-6.228-5.519-14.822-6.282-21.385-2.344 2.074-.175 6.05 0 8.636-2.06-1.032-2.634-3.47-2.81-5.576-.375-4.451 2.4-5.528 2.567-9.787l.488-.462c.911 1.5 3.153.433 4.137 1.636.615.751-.023 2.134.7 3.577.522 1.045 6.11 10.066 6.554 10.497.454.441 1.567.394 1.742.656.259.386-.078 1.446.092 2.054.62 2.222 2.694 2.859 3.804 4.85.044 1.48-.502.318-.87-.092-.7-.782-1.044-1.65-2.252-2.046l-1.997 2.33-2.55-.917c-.41.41 3.834 9.807 4.383 10.726.923 1.541 3.037 3.205 3.97 4.666 1.212 1.894 2.623 6.457 4.26 7.973 2.033 1.884 1.527 1.119 3.297 3.663 1.688 2.427 2.42 1.526 3.65 2.345.257.17 1.005 2.583 2.004 3.516 1.395 1.303 3.881 2.107 5.066 4.052l.993-3.824c-2.09-1.77-4.184-3.522-6.272-5.292-3-2.544-5.595-4.968-8.117-8.197-2.089-2.674-4.41-5.719-5.075-9.075 1.578 1.129 3.316.398 4.073 2.39 1.975-1.411-.704-3.12-.002-4.786 3.11 2.14.526 4.945 1.642 7.472.213.482 3.562 4.91 4.101 5.5 1.192 1.3 2.514 1.586 3.629 2.607 2.497 2.288 3.529 5.393 7.662 5.048l-.955-3.097c.296-.484.656-.683 1.215-.766 1.191-.178 7.837 3.964 9.52 4.905 5.142 2.874 5.34 2.743 10.995 4.338.796.225 2.227 1.926 3.357 2.401 1.31.552 3.515.227 4.076 1.681.261.678.05 1.365.56 2.32.636 1.187 2.496 2.984 3.836 3.36 4.814 1.353 9.247 1.225 14.2 1.152 10.706-.156 21.627-.304 32.609-1.323 6.282-.583 12.552-1.16 18.88-1.743 1.226-.113 4.856 1.08 4.869-1.228l-2.107.4-.768-1.356c4.034-1.493 6.887-2.487 10.791-.002 1.07.681 1.93 2.531 3.6 2.393.877-.844-3.59-3.611-3.77-4.157-.47-1.42.896-3.08-.538-4.272-1.678.707-2.534.775-4.325.271-.284-1.576 2.172-1.615 2.666-2.38l.163-.661c-1.472-1.306-1.351-3.224-2-4.744-.285-.67-.935-1.08-1.198-1.68-7.554-17.266-10.735-40.501-5.044-59.04.849-2.767 2.362-8.674 5.89-8.266l.003 1.927c5.718.256 5.828-7.693 8.427-11.488 7.256-10.596 17.272-20.956 29.625-25.554 3.91-1.455 8.113-2.64 12.326-2.31.217-.832-.347-.957-.715-1.438-1.42-1.855-8.661-7.094-10.83-8.363-.803-.469-7.668-2.403-6.203-4.109 5.502 1.285 13.305 4.817 17.51 8.637.971.883 3.664 4.87 4.462 5.257 2.202 1.069 8.333-1.72 10.642-2.616-1.603-2.266-3.204-4.888-5.022-6.966-8.145-9.312-23.23-17.582-34.166-23.413-3.047-1.625-7.95-5.773-11.551-5.06-1.325.262-4.653 1.364-3.727 3.061 1.366 2.504 6.285 2.987 8.545 3.934 3.003 1.258 5.656 3.256 8.86 4.087.877-.069.711 1.442.602 1.56-.455.493-2.852-1.632-3.694-1.819-2.717-.601-4.09 0-7.102-1.534-3.06-1.559-1.367-1.652-4.806-2.136-.595-.084-1.877-1.238-3.08-1.494-3.242-.69-11.385-.098-3.247-4.15 2.27-1.13 5.007-1.76 7.435-2.657.453-.167 1.444.1 1.058-.835-.156-.377-.893-.861-1.275-1.126-14.609-10.126-33.666-6.896-50.34-4.917-4.978.591-11.97.775-16.703 2.01-5.531 1.443-15.405 6.059-21.02 5.583-.406-.035-1.946-.18-1.821-.831 6.214-1.37 13.126-2.407 19.057-4.696.739-.286 1.217-1.25 1.909-1.45 1.972-.571 5.78-.205 7.954-.683 1.283-.283 2.446-1.426 3.98-1.778 8.202-1.884 35.095-3.929 43.039-2.325 5.72 1.154 19.232 5.981 24.498 8.61 11.97 5.975 36.386 23.447 42.152 35.578.598 1.259 1.115 2.174.877 3.687 2.458-.758 5.69.172 7.663-1.2.044-.794-7.749-11.734-8.895-13.168-2.602-3.253-15.071-16.652-18.32-17.188-.67-.11-1.348.335-2.059.155-.88-.223-4.077-2.167-2.143-3.14l2.637 2.388c.475-2.036-3.205-5.151-4.84-5.95-10.527-5.148-23.781-8.964-35.111-11.433-11.986-2.612-26.613-3.488-38.987-3.29-7.763.125-16.615 1.96-23.725 5.098-3.282 1.448-10.015 6.034-13.214 6.02-1.48-.008-2.486-.735-4.196-.42-5.076.938-12.166 5.696-16.973 7.999-7.343 3.518-14.918 6.437-21.533 11.095l-5.994 6.237 3.092-5.3c9.205-6.562 19.409-12.476 29.579-17.444 6.44-3.147 13.438-4.212 20.086-6.304 11.012-3.467 17.466-8.147 29.988-8.877 17.97-1.048 35.487.74 52.67 5.43 7.3 1.993 21.353 6.161 27.48 10.425 1.97 1.371 3.335 3.591 5.034 5.042 10.213 8.726 19.52 17.563 26.177 29.482 1.034 1.852.662 4.253 3.55 3.891l.03 1.886c-4.986-.119-9.991.47-14.878 1.446-.69.654.033.88.71.958 1.874.218 4.392.022 6.263.258 1.221.154 3.125 1.097 3.863 1.178 1.848.201 3.254-1.754 3.463 1.127l-1.163 1.166c-1.477-.474-3.145-.538-4.616-.971-.697-.206-1.086-1.1-1.614-1.208-2.49-.508-5.59 3.066-5.987.907l-.91-.058c-.094.453-.125 1.146-.7 1.277-2.635.6-7.512.214-10.535.689-1.526.24-5.254 1.055-6.644 1.512-4.038 1.329-16.29 9.935-19.566 13.062-2.077 1.982-3.386 4.808-5.993 6.484l-.716-3.12c-.968 3.208-4.72 6.836-5.87 9.488-.665 1.535-.862 3.948-1.803 5.629l7.435-6.715.243-2.402c1.61.59 4.996-1.436 6.388-2.483 1.468-1.103 1.984-2.465 2.967-3.27 3.871-3.173 10.215-6.61 14.993-8.038 7.943-2.374 15.631-4.106 23.908-4.883 5.66-.53 10.337.156 15.56 2.623.71.335 1.19-.078.954 1.178-2.145-.482-4.337-1.148-6.536-1.376-6.45-.67-19.859.553-26.298 1.888-1.45.301-6.999 2.286-8.621 2.895-.617.232-6.071 3.416-5.082 4.27 2.91.631 5.016-1.845 7.175-2.657 12.56-4.726 29.48-1.324 42.428.796 2.679.439 7.652 2.34 9.916 1.65 1.105-.337 2.052-1.84 3.817-1.225l-.033 1.67c3.355 2.353 7.552 2.61 11.057 3.856 13.57 4.825 26.654 15.767 36.01 26.364.866.981 2.832 4.7 3.831 5.313.997.612 2.623-.678 3.599.696 2.387-3.598-3.14-6.805-4.564-10.067l2.397.478.005-1.923 3.314.437c1.144-2.31-.903-3.794-2.596-5.235-4.024-3.423-7.805-6.41-11.763-9.83-.648-.56-2.706-2.18-2.156-3.121 5.32 2.112 10.453 5.506 14.397 9.584l.24-1.426c1.146-.611 5.753 2.157 6.743 3.09 1.03.969 5.951 6.585 6.322 7.593.405 1.102.18 2.142.456 2.902.265.73 1.307.883 1.77 1.589 2.777 4.23 4.021 8.817 6.184 13.019.45.874 1.451.993 1.734 1.678.46 1.116-.237 2.073.137 3.108.206.57 1.004.513 1.38 1.527.288.78.72 2.984.401 3.745-.288.686-1.159.731-1.352 1.092-.533.994.153 3.027-1.698 2.877-1.434-4.035-1.281-8.533-2.537-12.583-1.624-5.241-8.491-19.542-12.801-22.705-.657-.481-.968-.905-1.938-.696 2.178 4.873 5.295 6.922 5.657 12.714.06.96-.595 1.985-.373 3.326.35 2.117 4.194 5.97 4.95 8.507.593 1.989 2.891 12.5 2.748 14.081-.064.715-.133 1.498-.983 1.673l-4.092-12.946-3.586-5.286c.255 2.133 3.343 7.509 2.835 9.296-.53 1.863-4.353.443-5.001-1.137-.12 1.967.655 8.07 3.581 6.726l.502 5.268 1.431-.957c1.156 3.236 1.825 6.556 2.268 9.97 1.808 13.921-2.782 24.687-9.717 36.55-.545.933-1.632.834-2.355 1.484-1.28 1.15-1.372 3.984-4.102 3.33l3.338-7.325c3.376-2.92 7.226-7.526 7.69-12.11.24-2.37.738-10.415.5-12.485-.364-3.159-.945-7.862-1.494-10.982-.371-2.117-2.046-3.579-1.402-6.034-3.188.602-6.607 2.105-5.234 5.865.592 1.621.221.765.523 2.418.14.762 2.334 2.651 1.832 3.227-.921 1.056-1.833-2.517-2.062-2.734-.751-.713-1.81.117-2.219-2.333-.859-5.147 3.056-5.226 3.701-8.735.403-2.187-1.023-1.211-.881-2.263.136-1.003 1.273-1.32 1.467-2.422.157-.893-.179-3.326-.523-4.164-.62-1.509-3.372-4.89-4.362-6.772-4.242-8.065-5.21-11.869-12.71-17.999-2.166-1.77-11.376-6.95-11.946-8.685-.35-1.066-.008-2.026-.663-3.176-.35-.614-7.972-6.244-9.014-6.82-5-2.76-26.444-8.777-32.105-9.169-1.592-.11-3.705.567-4.609.341-2.01-.502-5.353-2.255-7.828-2.77-1.598-.332-3.15.39-4.76-.99-2.217 1.199 1.357 4.078 1.188 4.314-1.733.186-2.146 1.565-1.971 3.135.122 1.102 1.27.645 1.503 1.896.29 1.555.536 7.788.493 9.626-.019.816-.675 5.335-.943 5.702l-1.48.284c-.497-2.29.618-4.854.504-6.943-.072-1.323-.751-5.762-1.007-7.192-.362-2.027-4.177-5.005-4.305-7.745l1.446-2.11c-1.244.379-2.197-.823-3.095-.904-2.633-.238-2.52-.685-4.365-.994-1.205-.201-7.022-.23-8.036.073-.885.264-1.335 1.567-2.108 1.752-.79.189-1.873-.58-3.153-.335-1.31.252-3.425 2.687-5.03 3.165-5.859 1.745-11.68 2.73-16.874 6.638-5.176 3.895-9.35 9.295-12.994 14.356-2.681 3.724-2.48 12.46-3.377 17.267-.147.783.315.83-.942.72.515-13.24 4.01-31.041 12.26-41.715 1.415-1.831 3.438-4.75 4.756-6.28 1.547-1.797 4.376-3.632 6.011-5.504-2.241-.088-4.917 2.617-7.034 4.002-1.425.93-7.153 5.808-8.061 7.293-.654 1.069-.608 2.357-1.187 3.132-.696.934-2.616 1.123-3.605 2.632-1.258 1.92-.074 2.333-.336 3.483-.136.601-1.462 1.468-1.942 2.395-3.952 7.637-4.952 17-5.71 25.477-.27 3.025-.833 3.744.06 7.156.104.4.942.327.96.607.113 1.712-2.292 3.123.401 4.336-.349 5.154 2.855 9.568 3.976 14.501l2.327.082c-.266 2.353-1.494 5.48.716 7.2 2.957 2.3 2.922 3.061 5.113 5.922 6.036 7.88 11.791 17.004 19.174 24.01 3.459 3.282 6.984 6.918 10.487 10.145 1.377 1.269 3.539 1.726 4.322 2.395.594.507.522 1.569 1.184 2.176 1.32 1.212 10.053 3.237 12.366 3.947 7.316 2.247 14.274 5.374 21.879 6.91l3.927 1.82c-.951 1.122-2.201 1.25-3.598 1.249-4.094-.005-12.377-1.125-16.166-2.586-1.516-.585-3.48-2.31-5.049-2.628-4.076-.83-7.37-1.927-11.43-3.445-1.992-.745-6.177-3-7.78-3.279-1.388-.24-2.504.393-3.182.27-.568-.103-2.146-2.097-3.01-2.69-5.69-3.91-10.993-5.945-15.503-11.848-.844-1.105-1.691-2.058-1.449-3.584l3.12 3.835c1.136.56.74-2.055.612-2.534-.626-2.363-3.777-3.087-3.732-5.62 2.06 2.275 2.563 3.605 5.75 1.908-.065-2.877-2.985-3.927-4.243-5.579-5.07-6.658-8.316-15.36-15.458-20.648-.388-3.064-3.32-4.876-5.011-7.346-1.33-.248-.364 1.441-.947 2.402-1.963 3.236-4.541-4.133-4.907-5.663-1.495-6.26.145-5.64 1.265-10.451 1.38-5.934.09-10.444.089-15.748-.002-3.832 1.742-9.517 2.017-13.823.05-.776.719-1.106-.392-1.812-1.047 2.761-3.66 4.737-4.444 7.541-.125.446-.885 4.911-.868 5.173.037.581.667 1.125.69 1.88.06 2.086-1.24 5.621-1.394 7.698-.107 1.443.89.26 1.454.25 1.13 4.413-1.809 8.82-1.944 12.71-.16 4.593 2.612 10.394 4.002 14.744.489 1.532.518 3.821.911 4.846.295.769 1.316.778 1.733 1.627 1.043 2.125 1.391 7.365 2.586 9.409.46.785 1.542.935 1.762 1.601.251.764-.149 2.08.129 2.505.219.337 2.16.372 2.803.798 1.2.796 1.946 6.754 2.184 8.37l4.874 4.276c1.132.099 1.843-2.399 2.098-3.29 2.03-.332 4.475 2.886 4.637 4.598.103 1.086-.635 2.084-.227 3.661.536 2.076 4.153 3.812 3.786 7.016 2.702-.598 2.646.893 3.65 1.513 9.246 5.715 16.588 7.657 27.127 9.694.967.187 2.134 1.18 3.117 1.262 1.082.09 1.5-.769 1.803-.777.596-.017 8.245 5.658 10.916 3.789 1.508 1.706 8.684 3.759 9.422 5.496.124.292.251 1.15-.236 1.188-1.169-.257-6.973 2.82-5.014 4.06 1.946-.115 3.773.757 5.595 1.035.623.094 1.413-.48 2.23-.265.712.188 1.174 1.21 1.814 1.587 1.602.942 3.762 1.325 3.812 3.62-2.158.638-3.009 1.211-5.405.847-6.132-.932-11.847-3.14-17.493-5.533-4.558-1.931-9.267-3.672-13.726-5.947-4.792-2.446-8.926-6.387-13.534-8.967l-1.421 2.81c-1.224-2.38-2.76-2.624-5.289-2.868-10.109-.978-18.617.053-28.29.493-1.9.087-3.594-.63-5.229-.482-1.426.128-2.76 1.306-3.944 1.415-1.388.128-2.627-.841-4.164-.383-2.002.597-7.245 4.883-9.344 6.027-1.253.683-6.8 3.481-7.79 3.77-1.045.304-1.818-.39-2.555-.22-.699.16-1.432 1.543-2.377 1.961-1.06.469-2.245.335-3.418.9-3.27 1.579-6.99 4.63-10.017 5.818-1.11.437-2.26.195-3.224.615-.808.352-1.698 2.058-2.707 2.57-1.075.547-2.497.38-3.07.77-.784.534-2.07 5.974-3.827 1.216 1.642-.819 3.644-1.773 5.155-2.768 1.913-1.258 6.075-4.857 7.814-5.65 1.337-.609 2.439.612 3.337.04.425-.27.739-1.37 1.46-1.932 1.053-.821 3.149-1.549 4.458-2.259 3.242-1.759 6.043-3.3 9.287-5.107 2.838-1.58 9.172-3.433 11.358-5.815 1.689-1.839-2.438-2.053-3.713-1.919-.665.07-4.828 1.456-5.442 1.775-2.314 1.204-.546 3.025-1.563 3.74-2.021-.804-4.045 1.66-5.444 1.545-.974-.08-2.11-1.342-3.1-1.668-6.854-2.255-14.199-3.515-21.22-5.66-.82-.25-1.37-.504-1.91-1.2 3.111.11 6.257-.05 9.376-.023 1.685.015 3.132.83 5.02.018.357-1.957-2.543-.122-3.35-1.674 1.896-2.102 4.674.243 6.451.257 2.842.023 6.862-1.353 9.667-1.407 4.858-.094 9.48 1.343 14.568-.302 1.652-.534 3.24-1.947 5.109-2.124 1.918-.182 2.632.756 4.246.951 3.09.374 9.028-.06 12.034-.958 2.054-.614-.234-1.101-.777-1.652-.484-.489-.863-1.634-1.264-1.731-.77-.188-3.277.216-3.498.006l.48-2.392c-1.447-.864-2.813.157-4.058.013-1.878-.217-3.593-4.919-3.14-6.733 1.252-.478.876.865 1.193.97.818.27 1.475.079 1.204-.966-1.416.23-1.997-1.215-3.129-1.441-2.292-.457-5.94 1.239-8.61 1.452-5.713.457-11.663-.589-17.269-.517-5.846.076-12.58.635-18.26.022-1.879-.202-4.295-1.92-5.985-.232-.56.56-.528 1.6-1.177 2.18-3.313 2.957-6.777.275-9.867-.75-.771-.256-1.628-.207-2.39-.489-1.215-.45-6.562-3.176-6.941-3.138-.314.03-2.49 1.484-2.997 1.838-.413.288-.892-.085-.628 1.064 1.87.866 4.012.61 5.888 1.076 1.691.42 3.927 1.457 5.43 1.762 2.06.42 9.848.838 10.754 1.726.584.572.553.905.48 1.676-1.175-.043-2.387.124-3.56-.036-3.34-.455-19.243-3.35-21.355-4.555-.718-.41-1.333-1.316-1.94-1.902-.379-1.14 1.745-.629 1.423-2.139-3.19.415-4.022-2.943-6.231-4.567-.209-1.055.459-.654 1.15-.79 1.454-.289 2.805.4 4.121-.16l-6.23-3.124-.78 1.891c-1.514-.72-2.927.143-4.22.03-1.633-.144-9.426-4.76-10.357-3.836-.921 4.277 5.921 5.522 7.236 7.393.669.95.141 2.264.734 2.734.382.303 3.685 1.646 4.023 1.382l-.004-1.687c.964-.62 6.3 1.157 7.327 1.805 2.253 1.422-.5 2.175-2.486 1.048-.694-.393-1.025-1.257-1.816-1.543-.502-.182-2.503-.485-2.057.615.422 1.04 6.819 4.121 8.31 5.126 2.683 1.807 7.516 6.508 10.66 7.094 1.62.302 3.728-.284 5.273.01 1.192.227.99 1.329 1.518 1.462 1.066.27 2.856-.171 4.186.028 1.652.247 3.165 1.317 5.055.943-.017 1.352.64 3.236 1.46 4.296m93.086-177.536-.954-.955-.003.957zm27.348 33.117c-.856-.13-1.682.028-1.917.95.625.195 2.413-.718 1.917-.95m-11.996 1.917c-1.494.436-4.179-.088-5.402.105-2.944.467-5.488 2.854-8.546 3l-.928 2.877 1.18.728c4.3-2.388 8.01-4.003 12.646-5.629.776-.272 1.281.248 1.05-1.081m-15.832 4.32c-1.23-.078-2.826.16-3.358 1.43 1.23.079 2.826-.159 3.358-1.43m-4.323 2.392v-.954h-.47v.954zm5.76.965c-1.027-.963-5.232 4.037-5.745 5.04 2.63-.556 5.434-2.098 5.746-5.04m121.399 32.14-.966-1.91-.469-.002-.002 1.915zm-.003 7.684h-.955l.003.71.717.725zm.96 9.592c.153-.907-.56-1.592-1.435-1.435v1.435zm2.4 9.601c.146-1.695-.116-3.3-.603-4.915-.218-.722-1.036-2.435-1.789-2.761-.784 1.856 1.601 3.139 1.694 5.241.035.81-1.029 1.432-.738 2.43zm-2.88-4.798h-.955v.954h.955zm-298.455.478c-.691-.69-.875.062-.961.717-.188 1.432 1.539 6.747 2.173 8.392.417 1.079 1.106 2.763 2.148 3.365zm170.638 56.32c-.635-.764-1.86-1.589-2.455-2.58-.541.492-.254 1.79.011 2.388.207.467 4.075 4.32 4.547 3.845-.11-1.328-1.283-2.667-2.103-3.654m-114.015-1.62h-.954v.955h.954zm82.05.96-1.218.474.265 1.924.953-.004zm10.557 4.797c-1.666.834-6.885-4.572-7.673-3.837-.198 1.222 1.255 1.563 1.656 2.417.452.964.214 2.99 1.214 3.584 2.286 1.358 9.253-2.227 4.81-4.564zm-95.965 10.552c.048-1.037-.707-1.995-1.456-2.618-1.624-1.352-7.071-4.36-9.257-5.617-.754-.434-5.73-3.152-6.076-2.796-.538 2.548 3.886 3.672 4.543 4.809.723 1.251-.08 3.117 1.985 4.252zm87.324-11.033c-6.67 1.366-2.907 6.13 1.923 5.755zm19.197 1.917-.002-.71-1.43-1.207.482 1.917zm-9.592 11.515c.353.416 9.33-3.946 9.573-5.085l-5.695-6.22c-1.656-.375-6.232 4.915-6.716 6.32-.352 1.025 2.027.91 2.598 2.107.43.903.217 1.93.24 2.878m-12.96-7.672c-2.965-.509-.596 2.078 0 1.435zm25.91 6.24h-.954v.47h.954zm2.402 1.43-.727-.95-.71-.003v.955zm-36.6 2.481c-.84.172-4.05 2.31-3.677 3.478.797 1.316 5.518 2.909 5.624.631.04-.861-.571-2.154.072-3.407-.424-.903-1.161-.877-2.02-.702m13.086 5.678c-.332-2.704-4.48-1.08-6.236-.952-.71.673.05.871.712.955 1.712.219 3.764-.156 5.524-.003M582.433 453.046c-1.83.992-1.305-.018-3.174.357-2.729.548-6.564 3.738-10.228 4.204-4.386.557-3.912-2.427-5.158-2.312-1.19.785-2.515 1.334-3.737 2.053-9.627 5.667-10.971 9.004-23.271 11.198-7.903 1.41-17.617 2.078-25.852 2.087-8.362.01-12.258-2.1-18.99-6.01-1.903-1.106-8.274-3.173-10.761-3.174-1.046 0-8.55.696-8.875 1.002-.219 1.336.219.724.724.952 6.858 3.096 13.092 5.542 16.276 12.992 1.401 3.278 1.429 8.401.424 11.87-.481 1.663-4.061 8.698-4.003 9.411.096 1.183 3.002 3.924 3.232 6.342.107 1.126-1.05 2.86-.784 3.713.138.442 3.847 2.2 4.496 3.204.56.865.524 2.75 1.34 3.7 1.86.98 4.346-.414 5.916-.318.664.04 1.073.746 1.786.784 1.32.07 4.282-.776 6.801-.813 4.52-.065 13.463-.924 17.246-.495 1.39.158 3.035 1.38 4.871 1.449 2.302.087 4.723-1.291 7.095.078.77.444.785 1.596 2.234 1.582-.64 1.138-1.756.08-2.399.468-.34.207-.36 1.07-1.067 1.379-.98.429-2.199.318-3.247.312l.955-1.679c-1.133-.623-2.327.837-3.707 1.092-2.769.512-5.812-.055-8.876.72-1.36.343-3.166 2.457-5.16.59l.705-1.686c-1.417.6-4.94.315-5.046 1.916-2.391-2.4-3.737.142-5.522.471-3.565.656-11.764.651-15.375.467-.993-.05-1.3-1.185-1.934-1.299-.773-.138-1.895.998-2.569-.391-.375-1.708 1.837-2.694 2.157-3.797.457-1.57-.438-4.721-2.653-3.296.646 3.46-3.32 2.309-3.82 5.73-.116.795.89 1.495-.268 2.117-1.457-.91-2.785.1-4.186-.072-1.12-.137-2.3-1.366-3.004-1.35-.572.013-1.06.715-1.833.796-1.84.193-2.993-.633-4.442-.767-1.404-.13-4.779.17-5.62-.009-.556-.118-.642-1.438-1.057-1.46-.091-.005-.485.69-.935.717-4.694.273-12.044-2.861-16.703-4.021-5.793 2.84-12.913 5.118-18.28 8.644-1.435.943-1.74 2.444-3.052 3.185-2.282 1.289-4.88.724-7.201 1.436-3.005.92-4.82 3.276-6.842 5.153-3.05 2.83-1.721-2.3-2.682-3.572-.105-.14-2.322-2.378-2.47-2.472-.692-.439-1.372-.28-2.052.043l-1.438-4.107-2.88.26.481-7.677h-1.926l.603-1.076 6.327-1.351 1.47 2.42-.151-2.154c1.19-2.106 3.695-1.312 5.552-2.268 2.172-3.719-2.898-5.391-5.816-5.684-1.404 3.26-4.832 4.058-7.01 7.01-.845 1.148-2.42 5.087-2.992 5.399-1.604.873-2.322-.815-4.62 2.344-3.303 4.541-6.544 6.452-10.39 10.242-.928.916-2.103 3.334-2.85 3.867-.317.227-6.752 2.159-6.988 1.884-.021-.646-.173-.944.311-1.465.642-.69 4.637-2.277 5.896-3.12 1.467-.982 7.753-6.13 8.674-7.293 2.087-2.638 2.684-9.381 5.483-12.616 1.997-2.308 7.543-5.275 10.367-6.528 1.44-5.245-.007-8.616-3.176-12.607-.433-.545-3.432-4.121-3.67-4.277-.253-.164-1.01.313-1.67.046-2.219-.899-6.132-3.033-8.056-4.443-.662-.485-2.316-1.465-2.164-2.392 3.844-.382 7.648 2.314 10.723 4.388.674.454.938 1.41 1.558 1.8.866.543 1.93.315 2.816 1.022 1.898 1.513 5.955 7.501 6.38 9.935.237 1.365-.372 4.49.901 4.888 1.09.34 5.02-1.059 6.603-.918 3.583.319 8.242 7.6 12.544 2.896 1.1-1.2 1.304-2.83 2.028-4.218.333-.64.444-1.196.836-.13.938 2.547-1.336 7.916-3.616 8.873-3.954 1.661-9.076-2.668-9.584-2.151.388 1.266-.85 2.266-.966 3.16-.132 1.012.163 4.163.995 4.727 1.924 1.305 2.83.063 4.567-.17 6.368-.86 13.218-3.436 15.98-9.927 2.407-5.657-1.294-8.926-.921-14.328.12-1.732 1.223-2.948 1.428-4.365.491-3.385-.211-8.332.687-12.36.39-1.756 1.675-3.564 2.065-5.372-.394-1.513-3.028-1.03-2.723-2.624 1.102-.143 2.918.34 3.847-.232.654-.402.62-1.614 1.066-2.058.36-.358 1.17-.316 1.667-.725.926-.76 1.163-3.243 3.28-.811.067 1.126-.238 3.442.81 4.191 3.13 2.238 13.868-2.987 17.533-4.07 7.94-2.345 21.506-4.522 29.282-1.244 3.148 1.327 3.42 3.775 8.13 4.825 11.037 2.46 21.978 1.34 32.992.127 5.618-.619 9.725-.096 15.25-2.504 3.412-1.488 6.11-4.648 9.016-6.818 2.51-1.873 5.42-2.982 7.397-5.548 1.155.728 1.658 2.354 2.647 3.1 4 3.017 10.9-2.698 14.954-3.742 2.217-.572 4.659-.506 6.862-1.318l1.177.742c-.626 3.587-4.821 2.143-7 3.324m-101.886 37.71c1.64-1.126 3.023.467 4.002.387.375-.03 2.767-1.526 2.95-1.83.368-.612.432-6.507.25-7.441-.236-1.208-1.317-1.07-1.819-2.016-.743-1.4-.117-3.54-.543-4.23-1.087-1.76-7.122-7.172-9.036-8.267-.8-.457-1.98-.5-2.862-.976-1.882-1.017-3.09-2.972-5.655-2.98-2.717-.009-4.68 1.268-6.843 1.801-5.33 1.316-10.59 2.828-15.956 3.963.486 1.549.56 2.924.474 4.548-.135 2.52-2.197 6.552-1.92 8.142.03.175 1.598 2.98 1.716 3.112.582.65 2.765.706 1.89 1.95-2.181.04-4.37-2.716-4.092-4.784l-1.906-.02c.081-3.284 3.021-6.625 2.391-9.819-.523-2.65-2.654-1.61-2.808-1.721-.398-.288-.761-3.576-2.938-2.85.557 5.122-3.1 7.937-2.208 13.117.604 3.503 2.476 6.122 3.676 9.163.595 1.505.602 3.498 1.416 5.067 1.524.27 1.75-2.072 1.463-3.064-.162-.558-2.378-.258-1.947-1.73l10.069-.497-.953-2.382c3.287 1.052 2.904-.435 4.835-1.643 1.943-1.216 7.739-4.926 9.525-5.352.491-.117.955-.28 1.47-.208l.96 1.92.004-2.394c.99-.332 1.646.732 2.284.846 2.93.52 4.865 1.36 7.98 2.08l4.261 3.924zm49.18-23.512v.48q.466-.24 0-.48m-54.612 18.86c-.43-.468-2.168-1.555-2.803-1.75-3.971-1.218-3.608 1.234-7.061 1.663l.395 3.942c5.34 1.138 8.323 6.397 13.936 7.032.38-.424-.79-5.364-1.19-6.242-.207-.453-2.91-4.244-3.277-4.644m-19.524 2.734c-1.517.025-4.357.423-3.834 2.394 1.537.172 3.739-.567 3.834-2.394m8.157 6.718-.957.002.722.952zm20.633.96-4.314 2.393c.855.14 1.485-.084 2.26-.377.51-.193 2.403-1.094 2.054-2.017m-10.314 4.315v.48q.466-.24 0-.48m-28.072 6.72-2.893.222-5.74 3.132c2.454.608 3.79-1.541 5.74-2.173 1.227-.398 3.271.382 2.893-1.181m35.027.48c-1.76.007-1.76 1.427 0 1.434zm-31.669 2.874-.951-2.164-1.916.487zm1.725-1.36-1.22 1.608c.97 1.672 7.228 2.239 7.653.467.484-2.019-5.417-1.584-6.433-2.074m29.873 5.588 2.472-2.552-.784-1.155-10.73 2.366c1.555 3.093 6.256 1.234 9.042 1.341m-20.56-2.782-.951-.002-.485 1.914.953.004zm-26.872.478c-1.45.212-3.016.864-3.356 2.392.867.423 4.061-1.736 3.356-2.392m27.828 3.833v-.954h-.47v.954zm20.155-.474h-.955v.954h.955zm11.995.96c-.895-.125-1.66-.002-1.916.952l1.916.002zm5.758 0c-.925.336-4.177-.917-3.832.955 1.17-1.063 4.183 1.004 3.832-.956m-75.812.479-1.913.483-.002.47 1.915.002zm-9.664 3.297c.725-2.236-3.1-3.567-4.18-2.27-.187.225-.086 1.921-.39 2.728-.484 1.287-2.018 3.475-2.082 4.684-.128 2.39 2.208 3.7 4.31 2.335 1.08-.703.499-1.987.577-2.07.305-.325 1.666-.325 2.099-1.022.898-1.448-.476-3.021-1.695-3.606zm7.265-2.817h-.955v.954h.955zm99.086-.003v.48q.468-.24 0-.48m-117.557 3.36v.479q.468-.24 0-.48m3.596 4.795c.354-.375-1.478-3.736-2.392-3.836-.159 1.54.554 3.74 2.392 3.836"/><path d="M490.141 300.749c1.09-5.519 5.045-10.063 4.796-15.832l-1.91 1.916-1.435-3.6c.512-1.206 1.762-.185 1.88-.265 1.234-.845-1.404-7.995 1.429-6.178.21.135 1.658 4.077 1.825 4.659.56 1.947.776 12.88.6 15.2-.068.903-.97 1.67-.936 2.422.031.713.872 1.176.92 1.905.1 1.524-2.397 6.125-2.35 7.214.035.847 1.648 2.516.944 4.074l2.632-3.836c1.416.618.32 4.586.796 5.935 1.079.134 1.359 2.597 2.08 2.217.558-.294 3.753-4.21 4.612-4.987.96-.868 2.719-1.362 2.839-2.678l.958.237-.808 2.88 1.035 1.085c1.208-.33 1.981-1.702 3.1-2.078 1.955-.657 7.293-1.613 9.214-1.395 1.7.193 3.131 1.834 4.13 2.06 1.331.301 3.008-1.07 4.202 1.537.744 1.623-.688 3.646-1.683 4.887-.639.796-2.323 1.054-1.922 2.525.242.888 3.815.68 3.827 1.927.017 1.702-3.633-.15-4.103-.225-1.148-.182-3.455.025-2.13 1.67 1.432.618 3.596.364 4.932.826.983.34 1.202 1.545 2.269 1.328l.081-1.324c.694-.794 3.585-.234 4.398.329.594.411 1.193 3.157 3.436 4.379 1.065.58 4.88 1.367 6.251 2.346 1.375.982 2.109 3.574 3.555 4.62.972.704 1.917.676 2.943 1.375 1.524 1.038 3.301 3.615 3.333 5.548 2.423-.105.963-2.02 1.027-3.139.026-.454.409-.812.409-.94v-11.755c1.474-.273.716.49 1.004 1.134 1.943 4.327.268 4.256-.037 7.282-.027.263.083 4.806.123 5.205.077.768 3.393 5.745 3.573 6.84.14.858-.524 2.78-.36 4.265.116 1.038 1.45 3.414.962 4.048-.875 1.137-2.496-.595-2.971-1.56-1.375-2.797-1.209-5.708-1.915-8.16-.424-1.474-9.075-10.396-9.795-10.4-.484-.002-1.13.666-1.643.27-.542-3.471-1.865-2.742-3.767-3.935-3.505-2.197-8.161-4.928-12.127-6.111-1.93-.576-4.26.219-6.359-.358-2.1-.576-3.91-2.527-6.731-2.336-5.568 2.393-10.957 3.279-16.141 6.411-.519.314-1.333.222-1.845.555-1.577 1.025-2.818 5.145-6.206 3.985-1.63-2.574.811-4.267.66-6.653-.73.685-.762 1.606-1.42 2.42-1.837 2.272-4.119 4.404-6.012 6.46-4.043 4.39-18.221 17.343-23.502 19.205-.941.332-2.213.008-2.792.335-.222.126-.337.998-1.176 1.446-1.233.658-5.081 1.572-5.645-.115 1.565.032 4.288-.483 5.534-1.427 1.114-.845 1.076-2.266 1.938-2.86.792-.546 2.226-.488 3.256-1.063 5.92-3.303 10.903-9.571 15.415-14.334 3.088-3.259 9.181-8.533 11.211-12.3.374-.691.687-1.255.552-2.086l-1.4-.025c-.734-.792 1.639-7.394 3.081-8.13l-.72 5.273c1.1 1.263 3.788-5.187 3.849-6.05.045-.638-.993-.982-1.238-1.652-1.01.914-3.116.947-3.924 1.6-.92.74-3.66 5.052-5.09 6.42-1.486 1.423-6.63 4.314-7.392 5.088-.293.298-.078 1.147-.874 1.754-.51.388-3.972 1.5-4.049.756-.187-1.824 5.041-4.855 6.481-5.991 1.034-.815.634-2.374 2.637-1.44-1.24-3.555 5.24-6.144 6-7.68.72-1.452.459-4.96 1.195-6.717l-1.193 1.916c-2.23-.95.894-6.87 1.677-8.154-.34 1.72-.442 3.979-.475 5.755.699-.113 1.188-1.55 1.442-2.15.778-1.843 1.179-3.891 1.92-5.758-1.286-1.008-2.253 1.114-2.887 2.153m36.808 13.58c-1.492-1.686-4.599-.29-6.579-.62l1.301 2.639c-.023.313-.74 1.014-1.049 1.206-1.895 1.182-6.832 1.96-9.55 3.405-.39.208-3.965 2.08-3.175 2.818 6.633-2.944 13.8-3.39 20.605-5.782.255-.375-1.254-3.329-1.553-3.666m-21.936 5.615c-1.868-.412-4.696 5.864-4.313 6.232 1.222.22 1.018-.018 1.582-.59.684-.692 3.44-4.863 2.731-5.642M110.596 431.258c.066.714.507 1.102.248 1.887-.292.886-3.57 4.69-4.47 6.123-1.36 2.17-2.294 4.813-3.752 6.829l-2.332.014c-.693 1.674-3.628 6.816-2.888 8.18.982 1.81 2-3.643 2.173-4.07.299-.74.373-1.396 1.426-1.207.688.79-1.79 5.494-1.91 6.52-.229 1.941.566 6.02.458 8.089-.062 1.19-1.386 2.284-1.435 3.427-.045 1.051.843 1.566.95 2.376.182 1.379-.221 2.816.135 4.18.465 1.778 2.858 2.6 1.32 5.633-3.314-.646-2.597-4.206-3.005-6.35-.36-1.892-1.25-3.915-1.21-5.887.046-2.177 1.583-4.66.642-6.982-.301-.454-3.478-.36-3.633-.253-.954.652.364 4.293-2.865 4.125 1.901 2.782.178 3.43-.27 5.721-.771 3.94-1.053 6.286-.809 9.985.24 3.643-1.36 7.51-.874 11.423.093.746 1.414 2.5 1.507 5.248.113 3.319.747 6.42 1.636 9.848.747 2.881 3.618 8.935 7.166 5.708 1.182-1.075 7.652-10.68 8.625-12.485.306-.566 1.706-3.282 1.736-3.572.17-1.63-3.241-4.195-1.414-5.473 1.364-.955 2.638 1.902 3.806 1.897-.925-5.365 4.443-2.188 5.225-2.94.155-.149.023-.984.298-1.35.456-.61 1.522-.421 1.92-.982s.05-1.551.723-2.156c1.753-1.576 6.775-4.07 9.069-5.806 8.61-6.518 14.93-13.784 24.478-19.206.356-.202.483-.923.856-1.16 1.692-1.08 2.07.26 3.284.479 2.9.521 9.57-1.495 12.955-1.363 1.188.046 1.659 1.067 2.491 1.273 2.713.671 7.4-.833 10.095-1.675 1.369-.428 4.99-2.785 4.433.09-.132.678-6.783 2.178-7.77 3.29-5.287 2.193-10.762-.378-15.534-.176-10.016.423-19.057 7.8-26.12 14.171 1.217 1.322 2.986.358 4.668 1.08 1.238.53 1.696 2.304 2.318 2.438l2.134-.19c1.807 2.286-1.43 2.131-.97 4.107.239.266 2.366-.901 2.97-1.107.434-.148 1.464-.756 1.341.143-2.918 1.188-4.884 3.616-8.148 1.446l-.497 2.396c-.82.104-1.53-.573-2.368-.245-4.539 1.776-12.004 10.531-15.376 14.4-1.892 2.172-5.148 7.069-6.973 8.862-.71.698-2.337.758-2.854 1.943-.506 1.16-.42 3.38-1.073 5.164-.788 2.157-2.218 2.588-2.661 3.567-.476 1.05-.228 2.264-.566 3.283-.746 2.243-1.847 6.145-4.581 6.21 1.35-4.025 2.066-9.602 4.38-13.128 1.264-1.925 2.541-3.728 3.703-5.894 4.588-8.551 13.997-18.764 21.707-24.836 2.051-1.615 4.742-3.05 6.856-4.657 3.536-2.688-3.895-4.202-5.953-3.59-2.868.854-4.106 5.41-5.618 6.54-.582.435-5.004 2.894-6.025 3.443-1.553.836-5.713 1.786-6.93 2.904-.429.393-.309 1.17-.563 1.491-.37.47-1.625.372-2.63 2.272-.808 1.527-2.013 6.584-2.66 7.301-.44.49-1.221.308-1.68.82-.948 1.06-2.478 6.075-3.387 6.128-.444.026-1.027-.94-1.691-.648-2.973 1.304-4.587 7.291-6.255 8.636-1.492 1.202-4.19.702-4.312 3.613-1.707 1.156-2.574-3.629-3.11-4.777-.65-1.395-2.7-4.53-2.992-5.644-.392-1.488.127-3.086-.214-4.585-.744-3.274-1.706-6.539-1.847-10.159-.238-6.11 2.233-14.473 2.376-20.217.083-3.303-.94-6.31.652-9.902.467-1.053 1.785-1.686 2.088-2.754.295-1.041-.148-3.346.667-4.804-2.896.36-4.675-1.759-7.675-1.439l.48 1.913c-1.533.36-4.176.696-4.32-1.43 1.803.133 2.154-1.683 3.21-2.31 3.06-1.812 5.867 2.346 9.06.416.396-.239 3.674-4.961 4.245-5.828 3.018-4.587 5.511-9.623 9.429-13.602.499-.507 3.883-2.5 4.281-2.193m-8.158 12.476.73-2.87-1.66 2.18zM349.068 530.1c-1.278-.682-2.524-1.543-3.844-2.15-2.988-1.371-9.895-2.207-7.635-6.469.777-.55 5.808 2.306 6.93-.019l.47.977 1.457-.484c1.227-4.16.464-8.941-4.715-6.15-2.617 1.41-3.137 1.48-5.636 2.517-3.79 1.57-10.884 5.884-13.667 8.884-.438.471-.88.68-.703 1.452l2.627-.47.543.978-.29 2.373c3.733-.929 4.5 1.246 6.453 3.38.558.609 1.49.903 1.92 1.44.976 1.223 1.73 4.848 4.358 4.779 3.032-.079 1.239-7.93-.228-9.39-1.658-1.652-8.662-.853-11.068-1.17-.13-1.092.058-2.413 1.298-2.78.546-.162 5.766-.503 6.618-.477 1.148.034 4.784.712 5.656 1.319.301.21 4.1 5.455 4.296 5.946 1.018 2.554-.57 6.151 3.243 8.231l-2.679.693c-2.369 1.595 4.473 3.79 5.557 4.106 5.43 1.582 10.042.579 15.181 2.021l6.894-.83c-.68-1.633-2.824-.717-4.108-.93-2.088-.343-6.224-1.388-8.03-2.401-.446-.25-.481-1.174-1.12-1.384-1.984-.652-9.431 1.121-9.277-2.73.108-2.71 3.908-1.131 5.474-1.17 2.13-.055 6.202-2.105 7.704-.494.652.7.551 2.073 1.412 2.905 2.295 2.216 12.117 3.734 15.34 3.289 3.055-.422 8.37-4.396 10.85-6.423.79-.645 1.078-1.59 1.57-2.026.843-.748 2.39-.888 2.982-2.542 1.218-.152.739.71.38 1.303-1.79 2.947-5.425 4.821-7.915 6.888-1.587 1.317-2.485 3.127-4.696 4.041.599.93.766.52 1.428.493 5.696-.237 4.356-.47 8.197-3.333.622-.463 1.856-.463 2.37-.989 1.323-1.352-.285-3.887 4.07-4.096 1.006-.048.615-.006.725.716.146.96-.304 5.204-.589 6.147-.266.881-1.897 2.62-2.766 1.062 1.958-.99 3.18-3.481.715-4.558-.946 2.828-5.618 4.122-6.837 5.403-.467.49-.443 1.68-1.073 2.046-.647.376-1.705.137-2.514.365-7.472 2.1-14.08 1.185-21.699.323l-.538 1.001c-7.024.375-13.597.066-20.23-3.276-1.864-.94-2.6-3.668-5.071-2.901-.618.192-.983 1.026-1.645 1.268-1.882.685-1.494-.745-2.052-1.09-.662-.41-1.623-.172-2.388-.515-.792-.354-1.383-1.834-2.28-2.08-1.503-.413-2.168 1.27-3.629.835-.642-1.05-2.532-1.542-3.065-2.013-.89-.787-1.404-3.14-2.897-3.59-2.619-.787-3.024 1.162-3.802 1.303-.702.127-2.487-2.321-3.072.285.008.977 3.831 4.062 4.738 5.353 1.67 2.376 1.879 4.354 2.743 6.85.353 1.02 1.84.869.732 3.182-1.132 2.361-3.243.998-1.471-.985-2.388-1.011-2.108-3.927-3.432-5.7-1.624-2.177-9.976-7.228-7.35-10.83 1.902-2.608 5.637 1.585 8.407-.84 2.161-1.891-.092-2.816-.416-3.847-.709-2.248.804-4.633 2.105-6.34.825-1.08 9.639-7.779 11.067-8.606 1.536-.889 3.13-.709 4.446-1.311 2.177-.998 6.765-4.483 8.78-4.413 4.505.155 2.551 4.333 5.604 5.881-1.294 1.1-.73 3.35-1.06 4.258-.485 1.34-1.989 1.208-.93 3.546.664 1.47 1.962 1.454 1.077 3.963m8.16 20.157h-.956v.47h.955zM411.928 435.104c.197 1.322-.155.732-.711.954-10.052 4.03-22.578 6.255-33.199 8.55-3.237.7-8.1 2.276-11.423 2.505-1.626.112-3.268-.592-4.311-.495-.67.063-2.595 1.415-3.988 1.78-5.697 1.491-13.071 2.082-19.018 3.055-29.735 4.86-55.112 2.101-82.486 17.794-.786.451-1.836.682-2.724.883-1.87 1.844 4.714.066 5.087.038.88-.066 1.729.499 2.757.406 4.094-.368 11.717-4.95 14.41-4.235 2.957.786-2.014 1.426-2.221 1.506-7.319 2.825-5.355 2.952-14.03 3.723-2.643.234-7.59 2.234-8.633-.465-2.06 1.468-4.763 1.685-6.97 2.615-4.93 2.076-12.737 7.572-18.372 5.901-.553-.164-.894-.87-1.35-1.048-1.198-.467-4.686-2.166-5.508-2.214-2.404-.141-.957 3.053-3.58 2.204-2.13-.69-2.703-7.22-7.213-9.118-2.54-1.07-3.669-.342-5.962-.237-1.961.09-2.655.254-4.341.414-4.07.387-12.871.226-15.291 3.899-5.308 8.054-7.992 18.14-13.23 25.635-.404.577-.302 1.438-1.44 1.195-.6-1.936.372-3.949 1.43-5.541.302-.455 1.202-.547 1.344-.794.33-.576-.119-1.675.315-2.323.335-.5 1.592-.384 1.96-.922.343-.501.137-1.43.376-2.024 1.354-3.363 4.746-9.864 5.114-13.128.272-2.414-2.64 2.068-3.17 2.14-.57.077-1.013-.718-1.467-.816-.779-.168-3.06 2.011-3.021.146 2.231-1.879 6.143-4.401 8.84-2.651.759-1.756 1.888-2.233 2.921-3.33 1.084-1.15 4.39-5.347 5.342-5.708.315-.12 1.101-.289 1.13.172-.366 5.097 1.904 2.532 4.135 2.294.782-.084 1.827.458 2.819.387 5.356-.386 12.042-2.702 16.506 1.2.989.863 3.134 4.34 3.866 4.712.352.18 1.07-.153 1.46.034 2.724 1.308 6.39 4.044 9.305 4.029 7.086-.037 16.13-5.343 22.417-8.289 8.93-4.186 18.04-7.992 27.163-11.703 16.434-6.684 36.36-5.487 53.628-7.309 15.432-1.627 29.286-6.065 44.281-8.98 4.334-.841 9.009-.721 13.196-2.157 4.87-1.67 9.07-2.353 14.267-3.487 3.351-.732 5.993-2.715 9.59-1.197M596.505 428.215c-3.558 2.31-11.824 3.13-16.252 4.627-4.592 1.553-9.717 4.1-14.31 5.843-1.626.617-4.58.794-5.885 1.668-2.451 1.643-6.81 6.612-9.98 8.858-1.128.8-7.58 4.981-8.354 5.086-.716.097-.862.007-.73-.733.355-1.98 5.936-5.043 7.632-6.285l4.85-4.983-23.264 4.832c-12.124.375-23.912-2.383-35.985-3.432-1.182-.103-2.573.504-3.299.384-.756-.125-1.343-1.267-2.95-1.336-1.469-.063-2.781.775-4.226.812-2.212.056-4.69-1.072-6.81-1.258-8.916-.78-19.973-.574-29.27-.959-3.806-.158-14.817-.861-17.643.581-1.423.727-1.53 3.263-4.662 2.29l2.664-2.392-.266-2.88c2.06.452 4.15-.954 5.997-.962 2.038-.01 5.038.912 7.177.98 16.167.504 30.94.634 47.122 1.72 16.308 1.096 32.246 3.268 48.8 1.555 2.66-.275 4.051-1.606 5.345-1.852 2.245-.427 5.763-.216 8.15-.488 2.369-.27 4.725-.899 7.12-1.036l.737-.712.07-2.08c2.937.87 5.725-2.26 7.533-2.783 1.536-.445 3.737.085 5.54-.217 2.523-.423 5.244-2.43 7.45-3.131 3.03-.962 7.572-.903 11.24-2.17 2.315-.8 6.114-3.77 7.511-3.943 1.408-.175 2.404 1.226 3.1 1.122 1.79-.265 7.226-5.98 8.723-7.595 1.306 4.382-5.988 8.071-9.403 9.324-2.153.791-1.03-.04-3.472 1.545M280.602 537.629c.827.676 5.112 3.387 5.504 4.093.295.534-.029 1.488.368 2.266.716 1.4 4.021 5.222 2.893 6.77-.388.532-1.804.315-2.13 1.232-1.355 3.814 3.82 5.552 6.65 6.418-.023-5.215 5.666-5.158 9.093-3.09 2.53 1.525-1.599 5.582-2.371 4.214l-.954-2.329-4.8-.711.069 1.845 5.197 1.271c-.982 1.077-3.326 3.153-4.838 2.878-.58-.106-1.22-.815-1.858-.974-4.893-1.213-9.262-3.428-13.933-5.256-1.5-.587-3.49-1.587-5.043-1.7-.8-.058-13.117 1.72-13.797 1.958-.444.156-.324.962-.592.954-.764-.022-1.138-1.01-2.334-.977-2.336.065-3.393 2.952-6.028 1.168-4.253-2.881 3.523-8.679 1.642-12.681-.276-.587-1.179-.88-1.551-1.804-.575-1.428-.39-3.194-1.292-4.946-.794-1.544-3.348-2.776-1.46-4.287 2.105 1.247 3.265 3.184 4.321 5.278 3.767-2.649 7.853-2.776 11.957-3.87 1.641-.437 4.817-2.264 5.825-2.371.991-.105 5.781 1.303 6.776 1.823 1.626.849 1.834 2.13 2.686 2.828m3.692 8.782c.713-.643-4.814-8.467-6.594-8.996-6.254-1.858-8.32.71-13.36 1.288-1.52.175-2.71-.319-4.053-.225-2.363.163-4.332 1.75-6.25 2.983l1.474 4.952c3.871-4.684 3.293-1.155 5.489.522 2.435 1.861 5.769-2.797 7.434-3.67.883-.463 4.088-1.513 4.98-1.5 3.201.047 6.924 5.276 10.88 4.646m-18.234 2.404h-1.914v.955h1.914zm18.566 1.58c-.295-.269-2.157-.992-2.729-1.098l3.121 2.872c.632-.267-.104-1.513-.392-1.774m-22.404-.62h-.955v.954h.955zM537.162 206.223c-.706.85-1.042-.606-1.205-.931-1.773-3.521-.036-4.9.25-7.94.78-8.286-2.337-16.385-4.108-24.208-.758-3.348-1.09-9.739-2.145-12.613-.206-.56-1.156-.666-1.644-1.34-1.574-2.176-5.005-8.545-6.478-9.846-1.087-.96-2.355-.394-3.031-1.764-1.068-2.165.905-4.72-.349-7.087 1.742-.547 1.467 1.075 2.164 1.433 2.297 1.18-.98-3.503-1.077-3.724-1.336-3.05-1.883-5.652-5.44-7.515-.809-.424-1.857-.352-2.629-.73-3.207-1.568-6.413-3.212-9.81-4.339-.504.494 4.896 7.92 5.517 9.112.517.994 3.316 7.221 3.49 8.023.2.912-.071 3.163.178 3.43.15.161.95.074 1.321.328 1.092.744 1.047 2.41 1.003 3.577l-2.408-.202c-.835-.549-.26-2.062-.463-2.815-.076-.284-2.094-2.491-2.624-5.08-.901-4.398-4.358-7.675-6.688-12.111-.223-.425-.3-.911-.294-1.385l-.912 1.136-1.017.078-17.972-21.375c-1.216-4.167 2.858-3.747 5.164-4.418 1.071-.312 1.851-1.12 3.015-1.302 4.954-.777 11.146 3.377 15.341 5.715.305 2.722-1.588.293-2.702-.179-3.016-1.277-9.68-3.945-12.668-3.646-2.482.248-3.587 2.054-5.997 1.924.828.781.778 2.143 1.233 2.84.757 1.16 7.225 5.578 8.849 6.986 1.459 1.264 4.334 5.093 5.304 5.73 5.768 3.792 13.005 3.534 18.908 8.442 2.738 2.276 4.054 5.46 5.799 8.117.37.562 1.285.71 1.665 1.214.915 1.213 1.28 2.965 2.86 3.611-2.04-12.193-8.442-23.076-12.69-34.566-.712-1.926-1.157-3.694-1.976-5.702-.337-.827-.465-1.507.52-.52l8.422 17.97c2.133 6.754 4.187 13.698 6.43 20.44 1.329 3.997 4.79 9.62 5.423 12.804.698 3.51-1.25 4.044-1.24 5.073.01.987 1.241 2.028 1.299 2.95.087 1.392-.68 3.253-.396 5.278.852 6.1 2.793 11.14 3.51 17.698.337 3.076 1.534 7.32 1.674 10.127.1 1.993-2.299 6.736-2.309 8.667-.004.806 1.292 2.2.933 2.635m-36.945-80.611-.954-.955-.003.957zm26.868 22.074c.867-.971-1.731-2.61-2.392-2.877-.384.431 1.799 3.542 2.392 2.877m3.357 6.72c.266-.78-1.208-3.816-1.675-3.83l-.72 1.429c2.359-.56.757 1.627 2.395 2.4M397.056 220.138c.61 7.09-.51 14.029-.479 21.116 1.111 1.07 3.032-3.036 3.175-3.82.317-1.726-1.365-1.213-1.25-1.691l1.918-4.567.96.246-.46 6.19.674.655 2.176-.375c.565.556-1.492 13.662-2.028 15.484-.277.94-2.046 2.68-1.815 4.423 3.893-.795 1.12 1.346.791 2.635-.546 2.15-1.093 6.85-2.292 8.82-.457.752-.98.766-1.818.824l-.029 1.405.952-.487c.847 1.22-2.607 4.372-3 5.415-4.13 10.972-6.276 14.469-13.52 23.889-1.334 1.736-3.023 6.078-5.705 5.631-.532-.088-1.123-.946-1.754-1.156-1.705-.57-8.05 3.344-10.08 4.13-1.39-1.784 5.06-4.155 5.99-4.8 3.977-2.76 13.606-12.78 16.803-16.785 3.198-4.007.972-3.804 1.989-7.123.51-1.667 2.318-2.643 3.152-4.53 2.987-6.766 8.708-25.712 7.566-32.712-.113-.695.425-1.427-.71-1.22l-5.325 10.513-1.84 1.999-1.798 3.96c-1.832 2.942-4.333 5.407-6.369 8.025-4.842 6.225-10.369 14.504-15.954 19.658-1.983 1.83-4.667 2.96-6.15 5.26-1.284-2.659 3.056-4.324 3.95-5.404 1.41-1.706.416-1.238 2.773-3.227 3.37-2.843 4.394-5.19 6.955-8.4 5.972-7.482 12.987-15.456 17.63-24.114.55-1.026 3.14-6.721 2.526-7.312l-1.633.006c-1.2-1.424.975-1.704 1.523-2.753.788-1.51.536-4.203.583-5.889-1.55-.01-1.598 1.973-2.39 3.144-.256.38-1.07.5-1.304.831-.605.86-.322 3.178-1.349 3.695-.639.322-1.523-2.05-1.561-2.282-.441-2.67 1.521-8.213 4.156-9.541l-1.384-6.885 1.695.022.497-2.478zm-1.445 8.636v-.955h-.47v.955zm.002 1.445h-.955v.954h.955zm6.718 8.636h-.955v.955h.955zm-25.91 64.295c-.069-.067-1.849-.068-1.916 0-.93.934 1.384 2.68 1.913 1.192.074-.208.044-1.15.002-1.192M280.455 160.646c.793.602-.047.872-.709.957-4.204.542-6.276-1.593-7.451 4.317-4.557-2.575-10.805.068-15.639.435-.913.069-1.82-.532-2.806-.456-22.156 1.691-39.252 16.966-53.031 33.381-6.181 7.364-8.313 11.828-12.4 20.228-1.048 2.154-2.773 4.158-3.665 6.448-.444.503-1.328-.175-1.605.003-.64.41-1.111 3.421-3.703 3.587-5.05-2.734-2.145-5.247-1.305-9.28 2.574-12.373 2.65-20.65 11.634-30.59.93-1.03 2.223-1.572 3.117-2.64.778.475-.156 1.061-.477 1.441-1.033 1.223-1.97 1.867-2.829 3.41-.392.702-3.03 6.627-3.08 7.006-.176 1.335.667 4.198.584 5.96-.115 2.438-1.24 4.673-1.153 7.13 2.957-1.833 2.41-6.475 4.39-9.28.319-.452.84-1.348 1.368-.552l-5.046 17.507c1.54-2.599 2.28-6.033 3.883-8.593 7.74-12.363 23.285-28.772 35.543-36.91 1.21-.804 4.442-1.072 3.275-2.963-2.246-.142-3.568 1.648-5.166 2.512-.642.347-1.583.267-2.22.659-4.846 2.981-8.495 7.63-12.765 11.22.229-1.124 1.54-2.881 2.301-3.692.414-.441 1.362-.353 1.67-.724.36-.433.186-1.502.725-2.164 1.058-1.298 12.346-8.054 14.26-8.56 1.558-.413 2.468.5 3.941.173 4.254-.947 9.538-4.505 14.197-5.512 3.87-.837 7.832-.621 11.73-1.224 7.329-1.133 14.684-4.007 22.432-3.234"/><path d="M321.72 259.487c-.018.814-.061 1.634.219 2.42 4.137 11.632 14.866 27.206 23.266 36.232 2.093 2.249 3.185 3.986 5.55 5.964 13.113 10.96 24.424 21.119 40.88 27.253 7.905 2.947 20.152 6.744 28.664 7.802 7.236.899 16.256.599 23.307-1.696 2.517-.82 4.685-4.15 7.67-4.851.932-.22 2.048.408 2.424.09.416-.351.283-1.29.576-1.599.197-.207 4.286-1.557 5.294-2.167 1.216-.735 3.235-4.148 5.129-2.04-.583 1.221-1.597 2.835-2.9 3.37-1.033.423-2.198-.426-2.361-.251-.073.078.08.965-.248 1.42-.475.66-2.366.717-2.851 1.933-.171.43.31 1.086.144 1.347-.116.183-3.11 2.228-3.58 2.448-3.016 1.407-6.556 1.095-9.423 1.57-2.245.371-6.99 3.175-10.19 3.207-1.095.011-2.302-.807-3.412-.845-2.992-.103-6.824 1.059-10.05.937-6.532-.247-12.307-3.244-18.444-5.067-2.678-.796-4.79-.565-7.647-1.95-2.828-1.37-1.991-.907-4.98-1.737-1.75-.487-11.244-7.195-13.825-8.726-4.912-2.914-15.856-8.906-19.578-12.57-.826-.814-1.682-2.965-2.439-3.322-.779-.368-2.206-.103-2.374-.264-.09-.087.065-1.425-.707-2.411-.84-1.075-2.62-1.332-3.608-2.149-3.447-2.85-3.768-5.654-5.774-8.141-3.658-4.536-8.106-8.382-11.139-13.811-2.404-4.304-3.898-8.843-6.264-12.92-1.107-1.906-1.54-6.46-2.73-8.69zm133.871 73.892-1.434.235.724.717.71.002zM543.89 239.33l.953-.239c-.149-3.323.109-6.6.688-9.865.184-1.04.986-1.983 1.194-3.124.76-4.176-.452-9.34 2.43-12.68-.043 5.412-1.45 10.74-1.909 16.08-.372 4.344-.685 13.616.52 17.701 1.384 4.69 3.214 9.603 5.427 13.745 2.818 5.278 6.074 13.106 7.824 19.067.54 1.84.695 3.746 1.106 5.612-.93 1.02-1.488-1.092-1.674-1.677-1.133-3.563-1.076-6.692-3.263-10.18-.75-1.194-1.824-1.792-2.465-2.813-1.15-1.83-1.62-4.766-3.172-6.67l-.952.237c-.626 2.105.579 3.821.853 5.386.777 4.442.867 6.865 2.707 10.705.483 1.009.349 2.26 1.237 3.103-.96.557-3.6-3.171-3.948-4.208-.546-1.628-.331-4.488-1.279-5.812-.443-.62-2.92-.41-3.867-1.039-1.044-.692-1.628-8.021-1.471-9.587.314-3.143 2.426-2.42 1.933-6.714-.243-2.121-1.62-4.172-1.894-5.777-.615-3.588.157-5.628-2.43-9.106-.742-.996-4.07-3.375-4.526-4.089-3.576-5.602-7.288-6.71-10.824-11.25-4.877-6.26-14.627-25.017-15.358-32.621-.15-1.562.008-3.076.49-4.56l2.63 11.035c3.125 7.404 6.761 13.803 10.99 20.678 2.621 4.261 6.014 6.292 9.423 9.77 1.459 1.488 3.32 4.504 4.813 5.743 1.26 1.045 3.628 1.072 3.814 3.148m5.747 33.107c.237-3.998-.768-8.02-2.634-11.51-2.284 2.212-.278 3.15.11 4.686.118.472 1.1 8.466 2.524 6.824M62.135 410.14l-.954-1.666c.494-.865 6.015-2.15 2.4-3.612l-.001-.468c1.975-.1 3.285-1.997 4.934-2.986 2.59-1.553 7.249-4.106 10.163-4.237 8.116-.365 6.506 7.138 8.79 12.836 1.649 4.112 9.357 12.412 8.743 16.185-.084.511-.3.945-.697 1.282-.588.585-1.553.3-2.06-.188-.617-.595-2.91-7.897-3.95-9.718-1.062-1.86-2.046-2.475-3.306-3.889-.848-.95-.312-2.583-2.464-1.617-.21-.789.833-.222.965-.789.144-.619-.077-1.417-.011-2.084l-6.436 4.356c-3.908 1.039-9.58 3.132-13.403.847-1.014-.606-.72-2.012-1.574-2.285-.995-.318-5.204.52-6.413.239-2.191-.51-4.945-3.902-4.247-6.179.427-1.394 2.053-.905 2.485-1.883.83-1.875 2.488-9.985 2.657-12.192.206-2.7.078-8.673-.753-11.119-1.839-5.416-7.769-4.309-10.554-7.436-1.25-1.402-3.044-5.411-4.692-7.066-.605-.608-1.418-.472-2.171-.472 2.792-1.619.558-3.305.182-5.595-.705-4.285 1.66-16.105 3.417-20.31.735-1.763 2.388-4.014 3.36-5.756 1.104 2.44-2.088 4.57-2.537 6.1-2.796 9.521-4.396 22.284 2.57 30.33 2.381 2.75 4.405 2.251 7.089 3.466 1.014.46 5.198 3.654 5.487 4.588.868 4.808 1.002 8.912.537 13.76-.16 1.668-.695 5.596-1.03 7.136-1.106 5.11-6.79 12.381 3.474 10.421m22.473-2.961c-1.128-3.184-.127-5.778-3.321-7.785-2.842-1.786-4.164-1.01-7 .11-5.431 2.142-6.756 3.947-10.21 8.02-2.026 2.389 1.24 2.45 1.678 3.096.383.566-.083 1.582.533 1.95 1.477.882 4.38-.318 6.144.476 2.247-.162 4.264-1.27 6.296-1.903.718-.224 1.66.128 2.6-.28 1.378-.598 1.747-3.307 3.28-3.684M187.236 538.396c.52.577 1.269 3.19 2.123 4.35.496.676 4.226 4.059 4.24 4.387-1.627 1.916-3.78-.532-5.028-1.67l-1.19 2.631c2.67.963 3.172 2.98 4.582 5.004 1.297 1.862 3.533 2.749 3.088 5.79 4.017-1.638 7.133-1.431 10.078-5.033.622-.76.643-1.961 1.43-2.161-.169 1.78 1.251 4.664-.112 6.133-.674.726-2.436-.021-3.428.112-1.54.206-2.488 1.523-3.528 1.793-1.368.356-3.446-.26-4.451.347-.774.468-.989 2.692-1.675 3.612-.478.64-1.603.866-1.702 1.291-.104.448.546 4.85.766 5.403.26.655 6.383 7.065 7.083 7.35 2.762 1.125 6.15-4.036 8.97-3.97l-5.13 6.14c-4.413.52-6.581 1.243-8.737-3.08-.276-.552-.494-1.96-.59-2.038-.523-.433-3.589.112-5.321-2.594-3.164-4.943 3.487-11.075 2.894-13.91-.436-2.088-4.252-5.233-6.628-4.19.525-1.962-.94-3.799-.96-5.51-.03-2.556 1.75-5.543.864-8.55-.239-.808-4.33-4.455-5.203-4.87-1.315-.627-2.785.356-2.61-1.694-1.258 1.696-3.082.177-4.241.514-1.254.364-1.146 2.698-1.287 2.839-.086.086-1.133-.677-2.41-.294-1.023.307-2.589 2.222-3.753 2.998-2.219 1.478-4.503 2.296-6.499 4.538-1.212 1.36-1.33 4.074-4.39 4.27-2.898-.296-.694-5.764.51-6.234 1.8-.703-.57 2.107-.245 2.392 3.166.85 3.63-2.397 5.28-3.595.89-.646 4.23-1.894 4.698-2.258.248-.192.034-1.283 1.075-2.042 1.487-1.084 3.76-.312 3.566-3.147l.527-.426c2.704.83 3.794-1.03 7.051-.408.984.188 9.705 5.13 10.293 5.78M336.98 36.769c-.436.305-6.673 1.762-7.029 2.1-.244.233.259 1.086-.642 1.502-.946.437-2.242.304-3.27.32 2.07 4.823-5.513 6.444-9.094 7.456-8.337 2.357-20.961 5.102-29.51 5.518-4.604.224-10.094-.623-14.52-.375-1.062.06-1.903 1.6-3.489.355.68 2.712-3.13 3.418-5.28 3.355l1.196-2.892-.486-.943c-2.047 1.509-3.76-.446-4.787-.498-.314-.016-.006.972-.94 1.037-1.276.088-4.939-.973-5.201-.926-.451.08-.91.81-1.575.891-.991.122-1.685-1.008-2.834-1.028-1.159-.02-1.959.931-2.91.99-2.694.17-9.608-.986-11.505-.731-1.686.227-2.407 1.58-5.675.75-.562-.143.078-1.226-1.029-.97-.438 1.673-1 .468-2.181.69-1.599.301-2.895 1.265-4.481 1.258l-.542-1.002-4.553 1.459-.004-1.442-8.91 2.275c-.283-.646-2.517-1.914-1.393-2.273 1.706.231 3.287-.763 4.862-.93.935-.099 1.778.235 2.625.162 11.283-.97 23.759-2.869 35.187-1.614 3.775.415 7.417-.248 11.513-.025 1.411.076 2.907.767 4.339.874 1.227.09 2.4-1.331 2.885.576l.976-1.475c1.424.074 2.85-.035 4.273.057 13.297.858 27.274-2.024 40.746-4.54 6.629-1.238 10.786-6.512 17.007-9.249.852-.374 5.75-2.598 6.076-2.552.822.114.574 1.548.155 1.84M124.427 540.746c1.09 3.891 2.91 7.476 4.93 10.934l1.391-.468c.437.503-1.235 4.178-1.285 5.104-.053.973 1.46 3.75.078 4.015-1.768.338-3.193-3.303-3.474-4.674-1.117-5.454-1.197-6.11-4.16-10.715-.919-1.428.314-2.183-2.381-2.935-6.913-1.928-12.235 1.328-18.262 3.468-2.463.874-13.971 4.181-14.89 5.742-.096.16-1.044 3.403-1.03 3.59.036.505 1.447 1.206.31 1.93l-3.366-.25.752-4.316c-1.983-1.894-6.573-1.742-7.98-4.044-1.679-2.747 1.856-4.647 2.324-7.347.323-1.866-.443-2.92-.361-4.18.266-4.06.512-7.656-.018-12.011-.473-3.882-1.467-5.204-3.822-8.169 3.098.658 4.594 1.29 5.613 4.459 1.818 5.657 1.545 12.295.503 17.985-.162.88-1.764 3.658-1.738 3.963 2.946 1.832 4.343 5.45 8.278 4.992 1.436-.168 2.806-1.318 3.913-1.387 6.73-.42 12.84-4.786 19.772-6.13 1.398-.272 7.846-1.173 8.99-1.12 1.561.073 4.07 1.554 5.913 1.564M415.36 191.743c.411.27 7.353 2.304 9.176 3.074.654.276 1.132 1.148 1.649 1.285.96.254 1.574-.977 2.736-.927 2.483.11 10.211 8.205 13.236 9.373l-1.406 1.013c-.68 2.019 3.117 4.776 4.608 5.86.987.718 5.211 2.762 5.388 3.015.354.508-.317 1.57-.244 2.127.096.74 1.546 1.061 1.25 2.135-.497.478-5.388-3.06-6.206-3.626-7.147-4.948-12.963-10.637-20.818-14.688-1.678-.865-4.745-1.448-6.073-2.566-1.103-.928 1.177-1.595 1.91-1.675.734-.966-4.396-3.447-5.169-3.701-5.062-1.665-10.62-1.31-15.679-1.587-1.374-.075-3.513-1.777-5.06-1.91.753-3.092 6.103-.734 8.398-.476 3.28.368 7.763.093 10.918 1.555 1.203.558 1.14 1.558 1.386 1.72M99.722 349.57c.788 1.656.182.462.295 2.298.298 4.826 2.208 8.856 2.423 13.653l-2.308-3.224c-.243-1.195 1.502-3.701-1.524-2.532l.503-2.129-.93-.48c.824-4.55-1.708-10.521-2.012-14.91-.312-4.504.328-9.612-.573-14.26-.283-1.462-1.5-3.632-1.765-4.952-.713-3.548-.204-8.262-.509-11.965-.543-6.617-3.266-12.155-6.607-17.876-1.556-2.665-3.635-4.84-5.847-7.098-1.351-1.379-3.03-1.249-1.932-3.576-1.48.029-4.2-.969-4.293-2.625-.216-3.87 4.04.351 5.255 1.416 2.937 2.572 3.523 4.405 5.533 6.942.734.927 2.678 1.819 3.581 3.136 7.161 10.44 7.244 23.33 8.678 35.465.457 3.86 2.001 8.867 1.419 13.028-.15 1.064-.971 1.809-.98 2.372-.015.99 1.633 2.074 1.82 2.99.237 1.157-.954 2.799-.227 4.327M243.2 553.782c1.783-1.178 3.532-2.407 5.36-3.523.62-.18.941.096.703.705-.794 2.036-6.885 7.903-9.587 6.968l.033 2.85 1.4.264c-.658.875-3.16 1.925-3.593 2.643-.905 1.503.36 4.908-2.202 7.875-1.422 1.648-8.884 6.942-10.863 7.387-2.013.452-3.114-.736-4.216-.683-1.206.059-2.065 1.3-4.005-.248-.361-5.103 6.844-2.421 9.173-2.895.547-.111 5.388-3.023 6.08-3.553 2.5-1.912 4.787-4.888 4.796-8.19.009-3.613-8.239-9.752-11.145-11.795-2.282-.211-4.325-3.253-6.563-1.098l.743 2.185c-1.9.429-2.222 1.679-3.365 2.893-.46.487-1.58.892-1.648 1.01-.251.435.335 1.197.14 1.846-.08.267-1.17 2.247-1.634 2.382-.156-2.113-.936-4.128-.27-6.262.445-1.42 5.881-6.332 7.34-7.053 6.188-3.055 7.361 2.258 10.912 5.168 1.156.947 2.785 1.078 3.58 1.698.908.707.936 2.544 2.28 3.035.725.182 4.47-1.723 5.303-2.232.72-.442.894-1.144 1.248-1.377M570.272 343.927c-2.021-3.108-3.162-6.826-2.642-10.549 1.853 2.454 1.848 5.758 3.68 8.316 1.617 2.257 5.24 3.43 5.675 6.553-.728-.16-.734-.97-1.542-1.57-.623-.463-4.231-2.715-4.689-2.263l1.914 7.673-2.873-.476-.478 3.354c.077-1.413-.02-3.787-1.922-3.834l.24 4.794c-2.762-2.95-3.028-10.223-5.015-13.095-.406-.587-1.377-.62-1.707-1.287-.206-.414-.799-4.032-.764-4.575.08-1.261 1.082-1.602.922-3.208-.098-.974-.78-3.183-1.124-4.214-1.113-3.335-4.176-9.39-4.928-12.366-.35-1.386.37-2.386.18-3.51-.237-1.404-2.307-7.351-2.91-9.094-1.038-3.008-5.088-7.63-1.928-10.542l.004 4.378c.041 1.36 2.954 1.585 3.012 2.57.02.343-.83 1.054-.762 2.274.147 2.609 1.768 3.682 2.709 5.482 1.983 3.793.534 6.707 3.221 11.174 3.86 6.416 5.643 14.095 9.194 21.034.622 1.214.15 3.362 2.533 2.981m-8.397-4.313v.48q.466-.24 0-.48m5.489 9.632-1.88-.28 1.195 1.68h.711zM397.533 466.759c-.444.596-8.393 1.468-9.7 1.334-5.097-.523-9.73-4.548-14.667-5.532-.55-.11-1.321.374-1.477.28-.143-.087-.174-.864-.538-1.096-1.808-1.153-7.949-.62-9.761.322-1.328.69-3.292 3.653-5.468 4.127-1.013.22-3.826.257-3.491-1.344 2.255-.27 4.684-.845 6.234-2.65l-3.352-1.188c1.878-.607 3.964-.262 5.791-.69 1.548-.362 3.36-1.8 5.34-2.336 9.312-2.521 18.194 6.23 28.124 3.172 2.958-.911 5.66-4.435 5.346-7.533-.09-.883-1.768-3.489-.216-3.18 1.419.281 2.67 3.318 2.654 4.575-.012.96-1.927 5.907-2.64 6.485-.323.262-4.033 1.992-4.568 2.15-4.124 1.214-7.215.383-11.241.178-.3-.016-1.764-.71-1.713.292.02.407 3.904 1.1 4.473 1.766 1.409-.155 3.862.792 4.85.817 1.926.048 5.742-2.929 6.02.051m-18.471-4.313v.48q.466-.24 0-.48M257.903 223.501c.265 1.278-.327.825-.945 1.19-2.328 1.377-4.473 1.577-6.58 2.555-10.507 4.876-30.891 19.95-34.91 30.825-.24.646-.374 1.2-.264 1.891.863.872 8.728-3.764 10.032-4.597 11.25-7.188 18.377-14.388 31.607-18.775 1.504-.5 4.646-1.384 6.137-1.549.948-.105.704.1.683.926-2.371.765-4.873 1.232-7.19 2.172-5.086 2.063-17.198 8.48-20.882 12.224-.699.711-1.156 2.24-1.28 2.32-.407.258-1.848.045-2.98.622-1.441.736-4.62 3.717-6.57 4.943-2.166 1.36-4.614 2.364-6.804 3.627-.998.576-2.965 3.689-4.702.756-1.789-3.02 3.665-10.948 5.788-13.46 6.027-7.127 15.992-15.02 24.146-19.517 4.643-2.56 9.597-4.723 14.714-6.153M563.077 488.833c4.415-10.928-9.292-11.27-15.474-6.726-9.262 6.809-16.537 26.835-27.997 27.838-2.406.211-5.555-.423-8.48.116-1.909.352-2.793 1.569-4.17 2.067-1.32.477-3.344.333-4.816 1.174l5.022-3.847c4.94-3.323 10.718-2.715 15.952-4.68 15.865-5.959 14.954-28.133 36.369-27.972 2.765.021 5.684.668 6.368 3.753.135.608-.314 1.257-.23 1.735.144.823.827 1.31.8 2.417-.04 1.614-1.404 4.25-3.344 4.125M315.433 467.296c.477.465-.695 3.273 2.449 1.864-.087 3.151 4.525 5.029 6.725 6.955 2.033 1.78 3.93 3.775 5.75 5.77.243 1.082-1.46.722-1.479 1.896-.03 1.87 2.928 7.03 3.607 9.411.188.662.354 1.903-.446 1.872-.6-.023-1.534-3.86-1.974-4.734-1.207-2.393-9.467-15.873-10.96-16.87-6.814-4.551-4.216 9.814-8.402 7.957l-1.932-1.944c-.059-2.007 2.029.906 2.65-.219.737-2.873 2.442-8.82.2-11.266-.799-.872-5.226-4.109-6.364-4.67-4.986-2.46-15.394-2.825-20.34-.492-1.945.917-4.378 3.722-6.615 3.463l-.254-1.205c2.437-.886 4.813-3.063 7.022-4.024 4.672-2.032 18.8-1.769 23.56.323 3.23 1.419 3.947 5.05 4.942 5.627.581.337 1.665.096 1.86.286M29.031 529.615c-.622-.032-1.196.011-1.663.493-1.932 1.991-4.046 15.803-1.858 16.33 2.515.415 3.984-1.164 5.751-2.59 3.485-2.815 6.917-5.856 10.571-8.617.614-1.855 5.44-7.69 7.334-6.83l1.37 1.455c-2.744 3.051-1.44 6.523.145 9.78 1.668.588 2.687-1.05 4.043-1.357.666-.15 1.95-.353 1.648.687-.809 2.268-1.96 1.51-3.307 1.959-.575.191-1.088.972-1.83 1.101-2.349.41-4.988-3.227-5.663-5.198-.391-1.141.046-3.36-1.183-3.847.038.806.007 1.484-.447 2.195-.818 1.28-5.698 5.13-7.248 6.666-2.905 2.876-3.903 5.81-8.494 7.34-5.032 1.68-6.472-.659-6.741-5.553-.134-2.43 2.473-11.2 3.811-13.21.884-1.328 3.207-3.852 3.761-.804M624.01 473.481c.548 4.835-1.02 8.029-4.07 11.523-4.229 4.845-4.132 3.079-9.397 4.517-3.692 1.009-4.207 2.855-9.335 2.205-6.907-.877-15.862-12.216-15.584 4.305-2.065-.119-2.137-2.91-1.812-4.448.157-.745 3.363-7.131 3.727-7.32 2.773-1.433 11.472 4.665 14.266 4.95 2.923.298 6.675-1.89 9.262-3.006 2.201-.949 4.617-1.326 6.543-3.294 2.266-2.316.44-3.042-.108-5.078-1.054-3.923 3.535-4.292 6.508-4.354"/><path d="M115.229 557.618c.276.26 2.23 2.536 2.3 2.7.165.387-.269.922-.091 1.314 1.17 2.582 2.603 6.84 3.968 9.242.337.595 1.753.834 2.056 1.68-1.98 2.646-1.327 5.848-.862 8.886 2.425-.766 3.496-5.445 2.876-7.674 1.47-.116 2.082 1.897 1.917 3.074-.463 3.313-2.116 5.036-3.84 7.363-1.751 2.365-4.262 5.492-7.21 6.58-1.008.371-7.676 1.86-8.313 1.644-1.96-.668-1.01-7.061-.764-8.8.106-.752.87-1.286.931-1.965.134-1.49-1.555-2.674 1.281-3.517l1.124.666c-1.46 1.842-.322 3.164-.504 4.723-.235 2.01-2.877 8.546 1.179 7.062l.335-1.897c3.957-.304 8.491-2.002 9.084-6.52.5-3.798.086-10.757-1.728-14.144-.54-1.009-1.708-1.166-1.995-1.606-.457-.701-1.174-3.463-1.8-4.676-.54-1.041-1.358-2.823-2.226-3.533-3.868-3.165-9.29-1.84-13.666-1.284-.95.12-.69-.112-.68-.924 6.158-1.648 11.49-3.214 16.628 1.606m7.361 25.259v-.955h-.47v.955zM599.056 220.62c-4.614-3.7-5.369-10.462-8.23-15.036-2.46-3.932-4.937-8.138-7.688-11.985-1.235-1.727-3.88-4.062-4.649-5.427-2.075-3.69-4.405-6.613-8.249-9.025-6.896-4.326-10.84-2.636-17.847-3.743-.74-.117-1.568-.917-2.469-.853-1.427-.783 1.783-2.276 2.823-2.402 3.64-.443 8.047.531 11.37 1.606 1.501.486 7.976 3.195 9.044 3.91.204.137 2.51 2.91 3.128 3.59 7.367 8.12 15.773 21.544 20.246 31.575 1.041 2.336 2.307 5.287 2.521 7.79M592.007 330.837c.544.787 3.595 2.904 4.661 4.212.769.944 2.306 3.242 3.201 4.485.404.56.587 1.827.705 1.922.351.281 1.554-.128 2.325.314.483.276 3.11 4.012 3.842 4.799 1.223 1.316 3.05 1.096 1.913 3.592 2.014-.33 1.627 1.356 2.429 2.142 4.736 4.636 8.726 11.907 11.861 17.887 1.358 2.591 3.827 5.216 3.462 8.288-2.192-1.895-2.579-5.276-4.103-7.647-3.535-5.496-11.334-11.067-14.621-16.566-.984-1.646-1.3-3.444-2.666-5.492-3.705-5.559-9.858-10.82-13.338-16.41-2.556-4.105-3.592-10.757-4.824-15.329-.342-1.268-1.087-2.213-1.488-3.313-.164-.452-.632-1.561.254-1.453 1.905 3.039 2.148 6.31 3.24 9.477.57 1.646 2.546 8.222 3.147 9.092M351.936 170.266l.015 1.41c-1.433-.385-3.541.069-4.805-.187-2.228-.452-5.026-2.388-7.155-2.964-2.304-.622-5.334-.621-7.82-1.297-5.157-1.404-10.63-3.868-16.035-4.502-1.224-.144-3.381.47-4.97-.16l.484 1.433c-2.426 1.041-4.523-.548-6.715.488-.004-.807-.041-1.902-1.13-1.869-1.591.049-1.186 1.67-1.316 1.795-.731.705-15.484-2.39-17.973-2.165l-.7.79c3.357-.385 4.017 1.576 6.285 3.076 2.89 1.912 6.922 3.74 8.795 6.561.368.554.172 1.531.743 2.134.161.17 3.941 2.003 4.198 2.06.893.199 10.25-.716 11.83-.93 3.923-.533 9.285-3.235 12.548-3.326 3.171-.09 12.417 1.5 15.058 3.186.86.549 1.329.914.284 1.626-2.734-1.711-6.485-1.43-9.565-1.941-1.725-.287-3.748-1.595-5.75-1.401-1.464.142-5.704 2.5-7.467 3.126-1.022.362-2.17.123-3.251.585-1.67.713-1.15 2.957-3.472 1.794-.744-.372-.988-1.524-2.19-1.684-1.51-.202-3.961 1-5.737 1.01-2.952.014-6.28-1.058-8.41-3.14-1.257-1.227-1.696-2.88-2.665-4.053-1.914-2.315-5.471-4.419-7.517-6.877-3.017-.712-6.215-.433-9.215-.349-.548.016-1.814.333-1.695-.487l5.962-1.414.316-1.398c1.95-.704 3.683-.071 5.45-.049 4.477.058 6.39.105 11.085-.478 9.686-1.204 19.905.847 29.315 3.261 2.748.705 7.286 2.93 9.753 3.247 1.174.151 2.073-.405 3.021-.23 1.417.263 5.373 2.674 7.07 3.092 1.077.265 2.211-.388 3.34.227m-41.252-7.699h-2.874v.47h2.874zM254.967 506.527l-1.377.064c.727-5.183-1.744-9.484-2.887-14.395-.382-.295-4.975 6.899-6.71 6.713-1.076-1.17 5.358-6.28 5.656-8l-1.82-3.51c.525.018 1.066.147 1.48-.301 1.299-1.407 2.858-8.638 2.364-10.737.833 1.04 3.033 1.479 3.58 2.412.704 1.197 2.124 8.823 2.137 10.376.012 1.444-.643 2.681-.65 3.933-.028 4.738 1.137 9.133-1.773 13.445M59.259 453.805c.76-1.854 2.818-3.007 2.402-5.272-.946.285-2.361-.51-3.069-.369-.507.102-.936.976-1.619 1.205-1.595.533-7.497 1.834-8.268 2.283-.404.236-.984 1.566-1.667 2.175-1.574 1.402-1.265 1.027-2.64 2.615-1.54 1.78-3.364 2.808-2.89 5.73.163 1.01 1.211 1.656 1.37 2.544.154.854-.378 1.614-.281 2.221.097.617 1.082 1.253 1.242 2.097.05.258.131 4.682.108 5.169-.178 3.83-1.744 7.4-1.497 11.233l-1.906.771c.444 1.297 1.395 1.771 1.47 3.353s-2.097 5.427.167 5.493c2.623-1.028 5.89-1.42 2.849 1.887-2.848-.093-6.164-1.857-6.428-4.988-.13-1.53.323-7.306.637-8.981.699-3.732 2.503-6.405 2.125-10.628-.207-2.311-2.71-5.323-2.752-8.722-.033-2.636 3.385-8.275 5.28-10.111.536-.52 1.194-.29 1.447-.495 1.524-1.227 2.474-3.552 5.275-2.568l.067-1.347c2.06.753 4.202-2.296 4.463-2.339.817-.132 3.666.52 5.085.04l3.818 3.89zM600.5 176.004l-.245.959c-.968-.312-1.997-.408-2.886-.953-4.217-2.585-8.994-8.945-12.512-12.439-2.205-2.19-5.31-4.04-6.953-6.729l-1.866.918c-1.265-4.11-6.223-1.524-7.77-4.678-4.133-.99-11.311-.414-14.973-1.621-.58-.192-.754-.83-.787-1.375-.25-.181-.594.578-.927.652-3.889.867-5.975.121-9.607-.912-.721-.205-3.675.612-2.886-1.413.325-.835.869-.54 1.427-.522 3.516.105 7.278.982 10.809 1.232 2.995.211 6.751-.415 9.563.033 1.902.304 5.665 2.136 7.796 2.682 2.982.763 5.258.465 8.562 2.552 5.34 3.372 12.898 11.067 17.271 15.836 1.72 1.876 2.766 5.354 5.983 5.778M455.534 64.27l.514 1.651c7.502-1.655 8.849 6.587 11.179 11.837.373.84 1.25 1.21 1.54 1.818.776 1.626.26 4.365 1.941 5.727.878-.577.674-1.27.74-2.128.177-2.279-.525-7.75-1.093-9.985-.299-1.175-2.128-2.125-1.804-3.71 1.16-1.116 3.44 2.91 3.775 3.658 2.333 5.215 1.55 14.782 1.017 20.566-.204 2.204-1.716 4.314-.476 6.478-2.445-.132-2.649-.897-2.872-3.12-.258-2.566.347-5.523-.12-8.038-.406-2.193-5.118-11.224-6.433-13.74-.638-1.224-1.436-2.663-2.17-4.047-1.318-2.48-2.988-5.133-6.155-3.675l-.004-2.398-2.396.473c-.124-1.657 1.768-1.627 2.817-1.367M613.835 453.703c-.545.314-11.294.276-12.584.076-1.113-.172-2.038-.994-3.127-1.192-2.45-.447-4.942-.664-7.383-1.153l-.67-2.204c.384-2.224 6.922.563 7.88.643.553.047.943-.641 1.615-.62 3.16.097 7.34 1.15 10.77 1.456 1.295.116 1.186 1.192 3.364-.26 3.867-2.575 7.691-12.554 6.373-16.933-.237-.785-1.664-1.478-1.344-2.739l-2.391.959.546-3.767c3.708-1.203 6.659 3.642 6.641 6.888-.039 7.112-6.107 13.23-9.69 18.846M130.75 226.375l-.948-.228c1.125-4.892-1.245-11.983-2.276-16.935-2.017-9.68-3.375-14.264-8.111-23.077-8.275-15.4-16.143-29.098-23.597-45.018-1.85-3.95-5.633-6.7-4.406-12.14l8.532 19.05c.287.74 1.152 1.242 1.467 1.892 6.603 13.644 14.14 25.976 21.111 39.346 4.96 9.51 6.247 16.722 7.686 27.341.438 3.235.677 6.5.542 9.77M635.2 278.518c1.76 1.071 4.02 1.443 5.73 2.109.426.166.341.96.603.95 1.012-.038 1.87-1.81 4.074-.74 1.487.722 4.423 10.114 5.068 12.202.312 1.01.03 2.154.307 3.052.304.982 1.715 1.319 1.835 2.516.15 1.493-1.921 3.799-2.31 5.366-.254 1.027.078 2.166-.203 3.155-.277.973-2.457 2.558-2.308 4.175-2.457.038.108-2.002.377-2.748 1.082-3.003-.378-5.078-.287-6.045.22-2.349.949-3.62.357-6.76-.8-4.245-3.825-8.4-4.874-12.634-2.532-.758-6.472-1.42-8.639-3-.613-.447-.502-1.793-1.093-1.923-.887-.195-.723 1.822-3.747-.559-2.607-2.052-1.954-3.593-2.456-4.232-.409-.521-1.44-.488-1.97-.936-1.297-1.097-1.831-4.829-2.634-6.461l1.477-.55c1.13.523 3.14 6.848 4.59 8.378.566.597 5.404 4.26 6.104 4.685M48.22 419.26c-4.602.43-2.464-4.814-2.49-7.433-.009-.76-.412-1.536-.424-2.405-.09-6.425.976-12.505-3.578-17.971-2.93-3.517-3.378 2.183-4.308 4.295l-2.628 5.763c-.66-1.803 2.694-7.93.642-8.564-1.312-.405-2.717.069-4.599-.678-.693-.275-4.906-3.217-5.371-3.746-2.249-2.553-2.565-6.986-1.227-10.039l.7 6.248c1.265 3.457 3.66 5.509 7.331 6.1 4.04.65 6.171-2.37 8.956-2.248 3.098.135 4.172 2.436 5.106 4.984 1.337 3.65 1.302 7.674 1.436 11.524.163 4.71-.524 9.562.455 14.17M556.833 403.43c.44.461-1.77 3.69-2.186 4.286-2.98 4.268-7.854 8.274-10.242 12.834-.529 1.01-.107 1.544-.041 2.55l-4.348.722c-.083 3.148-2.452 3.53-4.123 5.208-1.494 1.5-3.128 5.677-5.73 3.706-3.198-2.422 3.524-6.459 4.615-7.463 3.693-3.397 6.86-7.504 10.29-10.822.679-.657 3.344-2.268 3.484-2.513.282-.494.03-1.367.348-1.809.384-.53 1.437-.317 1.625-.532.223-.255-.024-1.536.318-2.321.632-1.451 4.188-4.008 5.99-3.845m-22.07 24.474h-.955v.47h.954zM311.166 304.592c-1.331 2.263-5.047 1.904-7.315 2.517-7.81 2.108-14.369 2.763-22.693 2.733-3.683-.013-4.786-.632-8.145-.93-5.634-.497-13.489.89-18.678-.034-1.477-.263-3.26-2.05-5.067-1.897-.153-1.173.016-.76.679-1.013 2.224-.845 8.114 1.389 11.1 1.518 5.327.232 10.405-.794 16.27.002 5.877.797 4.069.169 9.192-.448 5.173-.623 10.648-.516 15.728-1.04 2.56-.264 5.604-2.452 8.93-1.408M325.08 514.271c.117 4.103-6.68 6.206-8.186 8.362-.5.715-.339 1.66-.694 2.184-.195.29-4.218 1.65-4.777 1.693-1.29.1-3.018-.674-4.343-.72-3.273-.116-7.93-.553-10.44 1.885-1.126 1.093-5.788 6.735-6.501 8.027-.798 1.444-1.024 3.482-1.777 4.46-1.392 1.806-3.125.259-1.634-1.631 2.584-3.278 3.633-7.574 6.73-10.546 5.372-5.155 11.152-4.172 17.815-5.694.68-.155 1.538-.882 2.023-.86.417.019.876 3.202 2.669.037l-1.909-.955c.987-.817 2.79-1.294 3.597-1.922 2.282-1.774 4.373-5.815 7.426-4.32m-12 9.589v-.955h-.47v.955zm-3.113-.478v.48q.466-.24 0-.48M247.35 306.502c-1.486-.427-4.14.152-5.372-.099-3.073-.625-12.622-4.218-15.033-6.123-.727-.574-1.087-1.727-1.288-1.86-.24-.161-1.012.315-1.673.05-4.354-1.74-6.007-3.502-9.57-5.81-1.026-.665-2.713-.79-3.71-1.569-1.127-.881-1.28-2.567-2.438-3.32-2.478-1.608-5.827-2.688-8.381-5.053-2.623-2.43.637-2.392 2.994-1.075 3.694 2.066 7.352 6.6 10.646 9.027 7.33 5.4 19.813 9.71 28.282 12.983 2.081.804 4.81.12 5.543 2.849M416.725 19.575c-4.075 1.057-9.48 1.693-12.922 4.111-4.43 3.112-6.932 5.918-12.515 8.118-.955.377-5.707 1.7-6.226 1.206-.621-2.81 5.571-5.224 3.054-7.615l-3.054-1.494c1.701-.838 5.042 1.389 5.916 1.34.777-.042 2.232-1.33 3.182-1.6 5.643-1.61 11.39-3.57 17.167-4.902.54-.124 7.339-.963 5.398.836m-27.342 11.038c2.25-1.675 5.959-3.083 8.022-4.688.584-.455 1.303-.56 1.085-1.549-.266-.271-6.01 3.166-6.669 3.643-.843.61-2.464 1.424-2.438 2.594M607.84 206.073c6.112 3.657 11.057 7.129 11.275 15.268.131 4.895-.185 11.024-.413 15.871-.049 1.028-1.264 1.389-1.364 1.945-.074.413.835 1.304.945 2.309.285 2.606-.486 6.213-.02 8.653.239 1.243 1.648 1.723 2.086 3.234.39 1.348.166 4.934.39 5.85.146.593 1.268.722 1.73 1.586.245.46.761 3.316.581 3.491l-2.167-.467c-.41-2.912-1.86-5.7-2.592-8.444-2.762-10.36-1.315-17.766-1.093-28.272.11-5.24-.002-11.207-3.732-15.364-.757-.845-7.675-6.476-8.466-6.887-.855-.445-1.62-.614-2.58-.545.663-1.899 3.403-.13 4.505.56.512.319.692 1.078.915 1.212M60.987 269.286c3.268 1.66 6.798 2.42 10.012 5.088 1.455 1.208 3.975 3.198 2.896 5.26-1.562-.973-3.35-3.49-4.783-4.332-.973-.571-2.077-.478-2.806-.913-.584-.35-.908-1.757-2.07-2.372-1.096-.58-2.233-.376-3.068-.767-5.407-2.539-17.046-8.456-21.133-12.456-2.679-2.621-3.552-6.36-5.31-9.564-1.239-2.26-4.99-5.41-6.379-8.014-.615-1.155-.895-4.393.432-2.833 1.378 1.62 3.283 5.812 4.646 7.83 5.818 8.618 9.696 13.117 18.864 18.562 2.43 1.443 6.068 3.175 8.7 4.511M583.302 243.085c.036.085.812.089 1.043.66.73 1.816.653 5.352 1.412 7.692.416 1.28 3.222 6.015 3.216 6.372-.005.336-.522.854-1.197.248-1.916-1.718-4.91-10.547-5.467-13.292-.376-1.856-.487-2.368-.98-4.258-.991-3.796-3.76-14.335-5.758-17.146-2.36-3.319-8.348-8.297-11.063-12.092-1.07-1.497-2.367-4.632-2.87-6.48.965-1.019 5.635 6.664 6.248 7.42 4.179 5.153 10.492 10.645 12.32 17.43.449 1.672.285 4.094.727 5.51.354 1.133 2.642 4.297 2.77 5.887.06.745-.606 1.57-.401 2.05M218.075 498.911c.289-.907.275-3.276.712-3.863.364-.488 1.375-.288 1.605-.553.353-.41-.343-1.498.562-1.339.09.804-.096 1.547-.32 2.31-1.271 4.36-1.246 9.238-1.142 13.786.049 2.146 2.927 4.554 1.464 7.415-3.348.223-2.328-4.668-3.108-7.207-.736-2.397-3.443-4.202-3.604-5.03-.58-3.003.418-5.64.25-8.177-.072-1.083-.867-1.956-.767-3.833.077-1.46.644-2.275 1.002-3.583 3.797.736 2.17 5.864 2.488 8.553.082.685-.072 1.334.858 1.521M339.478 489.308c-.967-1.013 2.252-1.436 2.635-1.43 3.273.047 9.847 3.946 8.768-1.566-.097-.499-1.717-5.763-1.89-6.031-.17-.266-1.32-.309-1.83-.804-1.264-1.231-3.066-5.383-4.975-6.787l-8.465-5.443c5.789.17 8.288 4.56 11.733 8.174 2.087 2.19 6.79 5.75 7.361 8.96.103.574-.342 1.276-.227 1.733.183.723.919 1.376 1.104 2.226.606 2.792-2.485 6.233-5.277 6.221-3.453-.015-5.069-4.911-8.937-5.253M579.32 477.388c1.633 3.017-1.063 4.775-2.05 6.69-1.945 3.776-6.402 13.447-9.447 15.984-2.772 2.31-7.274 2.64-10.627 1.609-2.45-.754-5.244-5.427-6.106-7.8l2.866-.72c-.971 2.325 3.986 6.014 5.745 6.493 7.263 1.979 12.493-8.516 14.975-13.841 1.293-2.775 2.359-5.383 2.856-8.416zM114.436 88.189c-3.364-.09-7.862.92-11.133 2.062-1.89.661-4.537 2.639-5.645 2.936-2.573.69-1.294.522-3.067 1.3-2.115.927-9.12 1.263-11.356.676-1.578-.415-3.468-2.365-4.781-3.376.311-.631 1.311-.035 1.779.145 2.373.917 7.653 1.408 10.241.845 2.313-.503 4.918-2.823 6.662-3.415 1.178-.4 2.953.195 3.387-1.166l-3.366-.237c-.938-.522.05-1.129.733-1.224l15.57.241zM564.028 413.507c.158.148.438 1.43.256 1.89-.716 1.817-7.791 7.644-6.484 9.142 4.88-.56 8.733-3.752 13.323-5.145.984-.299 6.193-1.853 6.334-.374-.304.692-1.198 1.777-1.913 1.916-.617.12-1.486-1.3-2.181.247-.093.207 1.025 3.253.312 4.452-.364.612-1.8.955-2.413 1.577-.853.864-1.478 3.062-2.676 3.562-.596.248-.884-.087-.706-.706.109-.376 1.882-3.935 2.204-4.515.803-1.443 2.722-2.573 2.585-4.369-.46-.439-5.75 1.386-6.582 1.81-1.176.602-2.375 2.363-3.524 2.753-1.53.521-2.63-.971-2.856 1.19l-.96-.227-.476-1.689-1.203 1.936c-.924.1-2.827-.875-3.065-1.785-.126-.485 2.157-3.917 2.627-4.437.772-.854 2.402-1.74 3.564-1.958l-.752-1.91zM454.154 354.972c-.12.743-.895.903-1.448 1.187-5.566 2.85-21.334 4.84-27.592 4.13-3.256-.37-7.39-.047-10.045-.544-1.055-.197-2.177-1.346-3.59-1.688-1.71-.414-3.598-.162-5.304-.696l4.552-.995c4.21 1.396 7.46.942 11.494.98 8.225.079 17.274.973 25.447-.718 1.677-.347 4.09-2.411 6.486-1.656M107.716 259.484l2.772 11.37c-1.41 5.643 1.098 12.482 1.095 18.642-.001 3.697-.461 10.265-1.023 13.852-.555 3.543-2.179 7.71-2.845 11.314-2.232-1.748.006-5.48.045-7.92.038-2.407-1.125-4.978-.996-7.43l2.394 2.394c-1.02-4.326.91-9.025.962-13.193.1-8.073-1.375-17.747-2.529-25.78-.145-1.014-1.69-3.688.125-3.249M570.749 378.956c-.73.856-3.194-4.644-5.06-4.823-.326-.03-4.375 2.18-4.734 2.474-.767.628-.61 1.468-1.107 1.893-.645.549-3.62 2.728-4.222 2.847-3.055.604-4.297-1.901-7.68-1.469-1.004.129-1.918 3.048-4.064 2.434-.093-1.575 5.574-4.372 4.32-5.749-1.07-1.174-3.7 1.08-4.563 1.913-.356.076-.328-.503-.234-.71.42-.926 3.334-4.567 4.48-4.461 2.777.5 1.516 3.024 2.422 4.224 5.842 7.733 10.278-5.56 13.089-5.688.595-.027 1.034.708 1.354.707.73-.004 2.194-1.896 3.82.675.371.587 2.478 5.383 2.179 5.733M64.061 544.494c.709.506 1.775 3.402 1.888 4.105.372 2.32-.264 5.976.049 8.103.279 1.902.465 3.042.676 5.086.664 6.45 5.079 11.884 12.034 11.028 1.276-.157 2.159-.988 3.29-.956 1.86.052 3.624 1.34 3.166 3.342-4.696-1.83 1.17 3.828.482 5.755-1.821 1.772-3.948-5.91-3.846-7.186-6.906 1.174-14.267.013-15.784-7.966-.435-2.286.037-4.7-.066-6.644-.051-.966-.773-1.9-.89-2.956-.304-2.77-.655-5.553-.527-8.35l-1.912.479c-.106-1.848-1.123-4.256-1.981-5.941-.657-1.29-2.09-2.364-2.337-3.424-.574-2.471 2.162-.643 2.886.476 1.491 2.301 1.14 4.77 1.907 7.214zM67.068 182.103c.187.304 1.636.952 2.269 1.811 3.866 5.251 7.425 10.872 11.115 16.232 1.63 2.37 4.548 4.247 4.232 7.519-.066.086-1.2-.512-1.454-.828-1.992-2.477-3.72-6.186-5.529-8.738-3.818-5.388-8.01-10.418-11.728-15.753-.708-1.016-3.122-5.438-3.484-5.736-.684-.564-1.747-.287-2.304-.942-1-1.175-1.866-4.12-3.119-5.41l.756-.746c3.039 3.664 6.007 7.02 8.854 10.842.308.413.112 1.295.392 1.749M515.09 192.794l-1.437-.008c.459-.976.65-2.062.526-3.142-.105-.919-1.023-.668-1.033-.962-.022-.648.89-2.112.988-3.326.497-6.078.603-13.09-.073-19.127-.528-4.708-1.794-9.497-2.325-14.22 3.082-.284 2.077 6.167 2.433 8.358.382 2.35 1.652 5.376 1.886 7.71.503 5.002.496 18.237-.852 22.679-.197.65-.104 1.372-.113 2.038M364.91 273.397c-.753-.834 4.216-6.618 4.887-7.823 1.177-2.116 1.591-4.403 2.688-6.426 1.139-2.099 3.293-3.442 4.508-5.57.972-1.703 1.735-6.565 3.755-5.38 1.986 1.165-.132 4.122-1.039 5.697-1.232 2.14-3.264 4.022-4.565 5.99-2.626 3.974-4.77 8.418-8.073 12.08-.325.361-1.715 1.927-2.162 1.432M215.2 81c.241 1.272-.276.83-.961 1.169-1.985.978-4.645 2.092-6.724 2.894-8.024 3.096-17.284 6.036-25.899 6.004-.265-1.342.366-.77 1.024-1.112 3.224-1.672 7.128-1.473 10.608-2.366 6.854-1.758 13.4-4.514 20.068-6.837.781-.273 1.174.163 1.884.248M183.05 58.445c.115.117.218 1.037-.365 1.421-4.103 2.704-10.508 3.55-15.315 5.685-2.873 1.276-6.589 3.413-9.414 4.98-2.763 1.534-5.197 4.645-8.49 3.74 2.928-3.633 7.94-5.864 12.144-7.763 4.195-1.895 9.607-4.218 13.808-5.864 1.103-.432 7.088-2.756 7.633-2.199M578.909 385.67l-7.19-3.352a6.7 6.7 0 0 1-1.046 2.561c-2.827 4.06-6.737 12.252-10.457 14.972-.657.48-.966.906-1.937.697-1.043-1.086 3.654-5.646 4.433-6.838 2.1-3.21 4.661-6.617 6.537-9.777.844-1.424 1.801-3.307 1.987-4.975 1.082-.92 7.086 5.229 7.673 6.713M490.623 55.561l-1.491-16.021c-1.236-4.538-2.828-11.125-6.443-14.19-1.987-1.684-4.65-2.43-5.983-4.808 1.316.647 3.978 1.666 5.05 2.382.76.508 6.196 5.706 6.36 6.116 2.737 6.819 2.724 11.915 3.086 19.083.1 1.992 2.073 7.175-.579 7.438M584.902 330.027c1.61 1.305 2.113 5.054 2.13 7.022.016 2.017-1.405 3.682-.836 5.58.439 1.462 4.853 4.314 6.135 5.874.68.828 2.817 4.502 2.758 5.273-.038.488-1.86 1.587-2.166 2.97-.25 1.129-1.128 7.995-1.088 9.009.144 3.645 3.276 2.561 4.114 3.605l-.496.963c-9.04-1.609-1.791-12.484-2.717-18.37-2.094-3.283-9.862-6.892-8.456-11.515.212-.696 1.149-1.19 1.464-1.902 1.046-2.365-.439-6.03-.842-8.51M184.49 529.615c-1.452.483-2.97.859-4.051-.524-.38-.486.05-1.627-.963-1.434-2.718.15-5.479.71-8.022 1.64-3.376 1.236-10.096 5.764-12.669 8.442-.542.564-2.12 4.362-3.556 3.395-1.546-1.041 2.896-5.686 3.828-6.48 3.717-3.17 13.5-8.583 18.363-8.277.835.052 8.2 1.678 7.07 3.238M101.967 247.01l-9.258-23.614c-3.089-4.452-6.05-8.989-7.538-14.29.993-.216 1.092.512 1.545 1.09 1.079 1.374 2.489 4.038 3.44 5.677 3.273 5.642 6.35 12.466 8.682 18.667 1.37 3.644 2.081 7.53 3.899 11.019zM360.588 278.202l-.477 1.432 1.913.236c-3.887 5.196-9.565 8.295-14.421 12.48l-3.6-.69c-.846-.96 1.722-3.513 2.402-3.895 1.298-.727 2.179-.227 3.288-.55.219-.065 3.424-1.95 3.958-2.28.733-.453 5.58-4.034 5.763-4.345.377-.635-.972-2.52 1.174-2.388M122.593 373.203c-1.225 5.194 1.482 11.025 1.29 16.01-.075 1.988-.893 8.058-1.274 10.156-.208 1.15-1.218.92-1.444 1.544-.86 2.378-.467 7.961-4.328 8.269 3.704-4.605 3.854-9.462 4.375-15.054.13-1.405.886-3.003.9-4.377.041-4.227-1.861-11.154-1.473-14.883.042-.41.022-.842.268-1.2zM204.648 54.122l-.007 2.401c-2.014-1.78-4.717.632-6.665 1.16-2.827.765-9.35 2.405-12.05 2.477-3.534.096.089-3.54 2.375-3.916.775-.127 1.513.315 2.127.215 4.893-.801 9.19-2.891 14.22-2.337M232.475 371.271c-2.966.637-2.554 4.966-4.293 6.406-1.172.97-1.696-.71-1.184 2.243l-4.596 1.436c-.38-2.109 6.912-7.447 5.752-8.633l-8.403 2.87c-.826.25-.988-.353-.481-.963 1.403-1.688 11.596-7.19 13.205-3.359M629.14 351.937c-1.25 1.146-4.468 1.506-4.18 4.214.177 1.674 6.56 5.78 5.767 6.491-3.116.248-9.112-4.71-7.898-7.656 1.049-2.546 5.26-3.702 5.516-5.565.38-2.762-4.633-9.436-4.328-12.686 2.437 1.509 2.358 4.523 3.25 6.58 1.098 2.529 4.464 6.25 1.874 8.622M576.514 332.896c1.443.737 1.154 2.856 1.97 4.024.473.679 1.335.78 1.758 1.6.4.772 2.778 8.696 2.875 9.626.122 1.17-.383 6.238-1.562 6.315l-1.638-1.246c2-7.144-4.054-13.277-3.403-20.319M631.207 398.149c.464 4.65.403 11.312-2.026 15.487-.95 1.634-2.78 2.66-3.26 4.897l-6.702 4.568c-.114-1.615 1.905-1.795 2.607-2.905l4.624-8.577 1.632-.02c2.17-3.936 1.66-8.423 2.167-12.737.083-.714.385-1.477.958-.713"/><path d="M44.526 508.173c-.612.449-2.762 2.28-3.534 2.94-.5.43-2.468 4.193-2.842 1.96 1.781-.942 2.22-2.544 3.366-3.836 2.127-2.395 7.415-6.117 6.613-9.504-.336-1.421-3.136-4.043-.152-5.139 2.194 2.77 4.089 3.963 4.004 7.875-.146.637-2.078 1.274-2.81 1.949-2.1 1.932-2.517 2.194-4.645 3.755M170.097 405.352c.502.704-2.71 5.016-3.348 5.524-1.283 1.019-.575-1.241-1.92-.726.067 2.043-3.104 2.518-3.638 3.362-.39.618.154 1.402-.009 1.958-.462 1.578-1.602 3.025-1.645 4.753-2.569.103.829-2.531-.473-3.6-1.915-1.571-3.307 2.435-5.278 1.678-.476-2.17 2.655-2.335 3.81-3.143.857-.598 1.008-1.543 1.693-2.146.58-.512 1.734-.528 2.215-1.143.538-.687.273-1.902.911-2.448.476-.408 1.521-.331 2.07-.688 1.43-.93 2.561-4.98 5.612-3.381M156.18 509.95l.047 1.895 1.38.033c.725.73-2.607 6.042-3.343 6.946-.621.763-1.481 1.067-2.108 1.73-.86.908-1.589 3.244-2.907 2.847-.388-.7-1.48-1.968-1.518-2.648-.1-1.749 2.84-5.801 4.374-6.956 1.75 1.102-1.146 1.53-1.159 2.139l.442 1.206c2.18 1.032 3.437-8.882 4.793-7.192M569.9 445.56c-.235-.41-.074-.906-.107-1.344 5.27.7 8.764 1.214 13.39-1.727 1.322-.841 2.54-2.346 3.642-3.077 1.558-1.034 1.146.818.447 1.89-3.364 5.155-8.616 7.348-14.616 5.567-.499-.148-2.624-1.078-2.756-1.31M225.275 336.737c.272 1.289-.35.824-.947 1.189-5.793 3.532-13.16 5.113-18.684 9.164-2.36 1.731-3.464 4.912-6.274 5.476-.538-.547 1.19-2.722 1.607-3.186 3.811-4.25 10.224-6.789 15.133-9.098 3.015-1.418 5.505-4.234 9.165-3.545M193.127 272.437c-.337.337-2.012-.926-2.345-1.248-1.327-1.283-7.359-13.557-8.449-16.022-1.386-3.136-1.662-5.09-3.323-8.19-1.378-2.572.3-3.592.137-4.457-.073-.389-1.046-1.053-1.365-1.996-.67-1.98-.836-4.831-.962-6.947l.817 1.33c.525 5.596 3.568 10.534 4.2 15.957 1.33 3.26 3.81 6.048 4.364 9.551zM20.866 206.222c-.942.076-.377-1.457-.256-1.938.352-1.406 1.125-2.505 1.55-3.73.38-1.098.332-2.388.773-3.543.38-.993 1.292-1.724 1.653-2.666 2.21-5.772 3.45-8.38.019-14.165-.605-1.02-1.168-.918-1.676-1.472-.485-.527.254-1.815-2.3-1.767-3.904.074-2.673 4.972-5.992 4.331-.654-.544 4.455-5.636 5.426-5.64 4.325.664 7.74 5.524 8.026 9.702.521 7.625-6.152 13.5-7.223 20.888M566.943 411.626l.449 1.396-2.878-.002 2.394-5.273c-1.932-.026-3.38 2.527-4.122 2.832-1.044.43-1.502-.205-1.162-1.153.058-.162 2.426-1.915 2.727-2.083 1.939-1.085 4.15-1.157 5.685-2.955.356-.13-.026 1.588 1.19.96-.148-.857.701-2.611 1.678-2.397l1.013 3.378c-3.642.406-4.078 4.106-6.974 5.297M444.606 343.017c1.746-1.16 3.577-.06 5.017-.104.812-.025 1.523-.751 2.43-.857 3.068-.36 6.088.025 8.814-1.963l-.463 2.652-7.497 2.621-7.562-.064-.732-.71zM250.71 62.763l-1.916 2.164 2.394.238c-1 3.487-3.169 3.19-5.416 4.795-.91.65-.015 1.901-1.987-.023l-2.654 1.255c-2.341-.278.491-2.413 1.419-2.877 1.372-.686.147.369 2.125-1.273.762-.632 2.05.054 1.712-1.4-1.442.55-4.002 1.031-5.24 1.713-1.332.735-1.953 2.928-3.871 2.6-.137-1.907 1.91-1.627 2.828-2.204 2.202-1.386 4.326-2.92 6.416-4.184 1.264-.763 2.74-.94 4.19-.804M63.098 304.106l-1.43.712c.173 1.096 1.667 1.414 1.804 1.97.092.37-.296.943-.216 1.328.143.688.8 1.277.695 1.892-.228 1.326-1.764 5.324-2.42 6.687-.493 1.023-1.31 2.614-2.268 3.246-.164-1.236.907-1.9 1.003-3.112.198-2.475-1.447-3.947 1.377-6.19l-2.382-9.888c1.935-.322 3.933 1.46 3.837 3.355m-1.44-.953-.958-.003.003.957zm.72 3.833v.48q.465-.24 0-.48M430.638 23.414c3.336-.317 4.358 2.882 6.471 4.812 1.774 1.62 3.997 2.894 5.53 4.782l-6.493-3.34c-1.825-1.175-2.911-4.229-3.789-4.853-.67-.477-1.605-.281-2.04-.6-1.11-.816-1.968-2.225-3.487-2.989-2.025-1.016-6.717-.927-9.142-1.653l1.32-.645c3.303.485 9.55-.467 11.694 2.798.45.684.249 1.032-.064 1.688M498.773 272.44c.124 2.19 1.095 4.412 1.397 6.525.535 3.747.904 9.086 1.027 12.887.135 4.208.384 8.422-1.467 12.253-.911.049-.974.226-.968-.724.013-1.951.88-4.063.997-6.21.212-3.871.226-9.112-.026-12.971-.254-3.886-1.416-7.363-1.88-11.085-.118-.947.103-.69.92-.676M120.19 313.7c-.986.065-.197-1.838-.029-2.19 3.007-6.306 7.297-8.941 3.53-17.162l2.5-11.83c1.616 1.521.044 3.765-.188 5.564-.246 1.909-.978 5.673-1.031 7.161-.087 2.393 1.665 5.056 1.442 7.608-.44 5.01-4.9 6.448-6.224 10.85M453.673 38.773l-1.675 6.718c1.812.23 2.17-1.79 3.15-2.608.923-.773 2.441-1.12 3.5-1.778.671-.418.785-1.314 1.615-1.748 1.255-.659 3.924-.22 5.405-.35-2.64 2.128-6.333 2.889-9.275 4.641-.893.533-1.446 1.44-2.267 2.05-.786.583-2.308.914-2.73 1.348-.855.88-.789 4.969-2.273 4.677-1.063-.759-.61-.88-.345-1.77.846-2.84 2.662-7.247 3.815-10.128.291-.727-.28-1.299 1.08-1.052M153.302 576.16c.558 3.97-3.076 13.885 4.32 11.042-.902 2.894-4.764 3.47-6.126.604-.841-1.773-1.369-7.374-.853-9.266.179-.652 1.728-3.287 2.659-2.38M624.007 336.253l-1.954-5.857c-3.168-4.382-6.976-7.668-12.15-9.477l.19-1.224c7.029 1.154 11.368 6.65 14.217 12.706zM444.075 342.975c-.331 2.265-1.638 2.6-3.654 2.815-1.406.149-8.723 1.062-9.485.905-.763-.159-2.136-2.224-4.13-1.326-.07-1.123-.16-.847.71-.958 2.493-.319 5.543.167 8.17-.028 3.08-.229 5.204-1.89 8.39-1.408M13.68 223.494l1.432.482-.393-2.049 4.23-11.86c.668 2.137-.694 3.905-.93 5.54-.24 1.67.202 3.25-.251 5.027-.588 2.304-2.66 4.063-3.706 5.89-.9 1.572-1.12 3.207-2.074 4.65l-1.003-.993zM169.138 223.983c-.65 1.95-1.315 4.621.9 5.491-2.447 3.76.453 8.691-2.58 11.768-.876-.576-.674-1.27-.74-2.128-.194-2.519.347-12.236 1.24-14.178.333-.723-.07-1.188 1.18-.953M417.212 195.672c.772 1.324-1.61 3.31-2.63 3.35-1.718.066-2.237-1.968-3.561-2.68-2.174-1.166-5.408-1.051-7.967-1.65-.718-.167-.85.363-.72-.935 2.189-1.272 3.408.23 5.063.448 3.294.434 6.546.684 9.815 1.467M158.585 594.393c-1.084-.98 5.544-3.08 6.007-3.345.99-.567 5.576-4.385 6.217-5.287.597-.841 3.465-6.987 3.862-8.144.332-.967-.177-2.669.7-2.892.04 9.585-7.378 18.042-16.786 19.668M566.427 317.061c-2.801-2.735-2.154-7.345-2.983-10.684-.778-3.133-2.88-6.569-2.764-9.944.669-.114.655.807.838 1.309 1.351 3.71 2.55 7.14 3.593 10.807.607 2.136 1.281 4.417 2.189 6.453zM441.199 10.946c-1.682 1.459-.923 4.604.978 5.495.988.463 2.541-.014 2.86 1.213-3.896.277-6.577-2.33-8.14-5.56l-3.41.061-.685-2.164-1.44 1.902c-.812-1.207-2.608-1.114-2.156-2.869.968-.183 1.255.874 2.167.96.895.085 2.083-.592 3.34-.517 1.983.117 4.129 2.134 6.486 1.479M594.738 387.595c-1.65-.66-2.486-2.904-3.584-3.848-2.557-2.198-6.697-4.348-9.093-7.222-.804-.965-1.226-3.08-1.831-3.685-.664-.663-2.152-.064-1.799-1.556.976-.217 1.28.208 1.938.696 3.57 2.647 7.576 7.74 10.54 11.052 1.186 1.327 4.046 2.222 3.829 4.563M629.693 211.103c-.145 2.325 1.647 5.064-.395 6.88 2.288.886 1.11 2.29 1.545 4.205.364 1.605 3.66 11.413 3.243 11.864-.792.142-1.29-.38-1.645-.99-1.146-1.972-1.747-6.336-2.343-8.692-.212-.838-.972-1.571-1.176-2.658-.467-2.492.278-6.791-.24-9.426-.123-.628-1.102-.883-.829-1.74zM349.072 297.867c-.193-1.345.284-2.425 1.476-3.08.268-.148 3.48-1.553 3.673-1.603 1.118-.29 2.263.104 3.155-.1.712-.162.601-2.362 1.77-.725.172.934-6.364 5.116-7.534 5.41-.822.208-1.706.098-2.54.098M151.862 420.704c.903 3.012-2.343 3.03-2.79 5.146-.325 1.539.578 2.913-.085 4.445 1.506.38.7-1.229 1.632-1.958.645-.505 1.742-.359 2.473-.887 1.012-.732.809-3.11 2.128-2.193l-1.921 4.561-1.195-.952c-.984 1.42-2.061 2.796-3.802 3.343-3.15-.674 1.104-8.79 2.108-10.322.399-.609.367-1.42 1.452-1.183M44.857 426.462c.195 2.136 1.446 4.146.963 6.235l-4.487-.899c-.588.994-7.008 5.642-7.505 5.213l6.488-5.262zM464.708 56.041c-.924.88-3.004-2.002-3.346-2.647-2.77-5.222 1.531-5.61 4.073-9.336-2.238 4.71-3.403 6.925-.727 11.983M54.103 283.843c1.149 1.898 2.573 4.19 3.119 6.707.147.68.156 1.355.112 2.042-.604.836-1.715-4.606-1.896-5.057-2.078-5.173-5.515-8.222-9.394-11.738-.91-.825-2.156-2.425-3.1-3.353.918-.021 1.89.468 2.64.954 1.506.974 7.49 6.76 8.137 8.187.346.763.079 1.758.382 2.258M172.977 90.115c-1.27 2.714-2.605 1.507-4.48 1.612-2.815.158-4.233-.07-6.805-.16-2.028-.07-4.988 1.03-6.466-.74zM497.814 83.87l-4.02-6.29c-.785-1.734-2.37-10.42-2.232-12.204.041-.536.014-2.077.738-2.126 1.031-.068.19 2.858.255 3.532.13 1.345.786 5.26 1.06 6.657.615 3.141 3.609 7.1 4.2 10.43M103.88 615.511c-.857 1.492-3.29.962-4.582.497-1.486-.534-5.73-3.978-6.719-5.273-1.917-2.51-1.673-6.654-1.647-9.62l1.07 6.359c1.031 3.794 7.855 8.236 11.878 8.037M134.108 544.976c-.734-.31-2.547-.07-2.394-1.186.215-1.565 1.636-3.981 2.17-5.52.747-2.149.485-5.329 3.101-6.73-.857 4.551-2.985 8.694-2.877 13.436M50.959 159.349c.325.302 3.754 5.831 3.499 6.09-1.432-.678-4.14-2.173-5.257-3.136-1.44-1.242-1.744-3.194-1.936-5.016.144-.155 3.489 1.872 3.694 2.062M577.353 301.348c3.543-.437 6.429 1 6.392 4.92-.006.585-.086 2.118-.758 2.148-.89.04-.18-2.015-.474-2.837-.884-2.473-3.364-3.198-5.776-2.928-1.722.192-3.519 2.031-5.016.257-.002-.443 4.897-1.469 5.632-1.56M239.188 532.017c-.69.113-.67-.845-.809-1.34-.32-1.145-1.104-4.125-1.105-5.135-.001-.95.572-1.904.523-2.882-.229-4.484-1.267-8.686.442-13.191 1.486.758.054 3.454-.02 5.018-.154 3.194-.101 8.296-.017 11.537.051 1.983 1.048 3.977.986 5.993M605.43 181.144c.487.304 1.374.07 2.05.58 2.01 1.517 3.528 3.723 5.496 5.304-1.62-.792-3.823-1.674-5.274-2.647-.652-.438-.826-1.42-1.068-1.559-.596-.342-1.615.124-2.574-.549-.218-.153-3.348-4.098-3.077-4.354 2.185-.364 3.73 2.778 4.447 3.225M78.928 443.735c-.173 2.565-2.955 1.389-4.89 2.063-.882.307-1.585 1.123-2.427 1.411-2.12.726-4.555.813-6.59 2.282-.99-1.313 2.214-2.353 2.883-2.633 3.532-1.478 7.256-2.628 11.024-3.123M423.784 444.285c1.939-.099 1.396 4.806-2.205 4.967-3.731.167-1.05-4.8 2.205-4.967m-.819 1.852-.957-.002.003.957zM460.392 17.663c-2.691 2.829-7.433.523-10.818 1.952l-1.657-1.952c.687-.503 4.038.435 4.976.338.618-.063 1.218-.757 2.004-.81 1.403-.098 3.77.972 5.495.472M240.149 334.822c.12.73-.898.567-1.44.703-3.607.908-7.925 1.925-11.51.488 1.317-.432 2.669-1.056 4.073-1.2 2.63-.272 6.325-.307 8.877.009M185.937 187.512c-.203-2.334-.155-3.394 1.248-5.224 1.975-2.578 1.56-3.276 2.966-5.67.961-1.638 2.956-3.234 4.413-4.46l-3.745 5.607zM566.43 330.015c-1.329.231-.808-.275-1.08-1.05-.914-2.595-2.627-7.872-3.025-10.437-.158-1.013-.587-1.675.51-2.416.817.029 3.248 12.218 3.596 13.903M114.913 330.017c-2.331-1.852.798-6.265 1.665-8.656.777-2.146.837-5.295 2.654-6.698-.82 2.978-1.317 6.066-2.258 9.014-.705 2.21-2.39 3.907-2.06 6.34M471.425 334.338l-4.807 5.026-4.784.245 3.19-2.321zM174.414 471.085c.31 1.735-.964.442-2.033.589-1.3.178-2.26 1.012-3.086 1.173-.588.115-1.363-.4-2.187-.242-1.933.372-3.965 1.69-6.124 1.354-.236-1.397.325-.781 1.114-1.018 4.348-1.303 7.65-2.838 12.316-1.856M235.832 71.4c.229 1.02-1.62 1.833-2.324 2.232-2.216 1.257-4.714 2.516-7.268 2.081l2.513-2.054c2.504-.477 4.412-2.645 7.079-2.259M622.887 193.915c1.13 1.284 2.718 4.414.175 4.63-.835-3.034-3.308-4.739-4.808-7.19.764-.592 4.055 1.905 4.633 2.56M180.992 199.363c-.227.24-.923.46-1.293.625-1.094-1.47 4.016-9.802 5.749-11.036a48 48 0 0 1-1.815 4.658c-.305.677-1.016 1.071-1.271 1.608-.547 1.148-.326 3.043-1.37 4.145M20.254 451.756c-.47.564-1.863.79-2.466 1.61-.812 1.106-2.296 2.968-2.881 3.834-1.363 2.018-1.402 6.9-4.588 7.643-.436-2.58 1.36-4.662 2.66-6.701.685-1.073 2.09-3.205 2.898-4.291 1.346-1.806 3.187-3.679 4.758-5.317.556.758.18 2.548-.381 3.222M165.78 566.57c-2.895 4.557-7.013.252-11.036 1.43 2.967-2.799 7.345-.008 11.035-1.43M176.33 219.658c-.628-.23-.843-2.559-.894-3.177-.436-5.243.744-9.768 2.577-14.572 1.717 1.445-.616 3.667-1.053 5.18-1.067 3.702-.787 8.738-.63 12.569M102.925 489.313l-.957-5.412c-2.447-1.2-.771-2.459-.96-4.662 2.07 2.203 2.556 6.452 3.197 9.379zM134.59 600.637l-1.69 1.424-11.742 2.885 4.317-2.153c2.934-1.202 5.973-1.812 9.116-2.156M253.585 366.006c.151.172.184 1.53-.587 1.581l-7.565 5.611c-.644-.683 1.49-2.583 1.973-3.042.59-.561 5.759-4.627 6.179-4.15M78.437 457.64l.738-1.432 1.194 1.194-1.433 1.005-6.72-.047c1.146-2.457 4.313-1.763 6.221-.72M625.633 201.243c3.56 3.348 1.55 3.029 1.253 7.381-1.297-.657-.313-2.123-.794-3.754-.415-1.405-1.77-2.396-2.06-3.705-.585-2.641 1.211-.289 1.601.078M181.131 89.153c-.08 3.346-4.709 2.617-7.197 2.874l.337-1.437c2.381-1.28 4.34-.012 6.86-1.437M470.46 303.144l-.955-.239c-.371-2.763 1.417-3.526 2.275-5.402.657-1.435.16-3.718 2.042-4.431l-1.807 7.055zM402.33 526.743c.287 2.366-2.176 3.784-3.146 5.724l-3.086 2.428c.128-1.72 1.805-2.638 2.859-4.095.236-.328 2.433-5.131 3.374-4.057M560.67 295.948l-4.788-10.553c2.96 2.793 5.224 6.315 4.788 10.553M58.776 320.903c.32 1.384-1.727 3.69-2.706 4.744-.932 1.005-1.986 2.348-3.53 1.966l3.625-4.755zM453.67 66.599l.556 3.762c2.017.271 3.645 1.71 3.764 3.913-3.153-.027-4.954-4.423-5.26-6.98-.112-.949.134-.721.94-.695M160.026 499.871c1.208-4.205 2.885-8.63 5.749-11.995-1.461 3.252-2.866 7.607-4.425 10.685-.268.53-.71 1.173-1.324 1.31M362.985 25.82l-14.777 6.567c-.441.08-3.487 1.037-3.444-.094.028-.74 12.324-3.96 13.78-5.403zM198.405 353.53l-3.424 6.408-2.331 1.263c1.14-1.352 1.768-3.465 2.658-4.774.552-.811 2.031-2.78 3.097-2.896M129.21 276.663c-.12.192-.894.207-1.236.897-.376.759-.51 2.474-.833 3.512-.105.338-.222 1.478-.714.718-.308-1.897 1.344-4.84 1.433-6.253.065-1.022-.65-2.01-.463-3.295.177-1.207 1.603-2.728 1.676-4.126.757 1.585-.84 2.795-.76 4.556.06 1.286 1.53 2.97.897 3.991M560.673 410.628c.039 1.938-2.42 2.1-3.481 2.866-1.198.864-2.526 3.073-4.674 2.885-.127-.102 1.805-2.518 1.946-2.608.643-.409 1.667-.271 2.242-.636 1.338-.85 2.268-2.461 3.967-2.507M631.207 396.71c-1.444.233-.77-.354-.97-1.164-1.072-4.344-1.663-8.897-2.861-13.226l2.258 6.131zM213.76 164.964c.34.354-.451 2.226-.936 2.658l-7.699 5.491c1.192-1.465 2.788-2.42 4.082-3.828.386-.42 3.46-5.456 4.552-4.321M215.197 377.519c.458 2.781-1.03 1.923-2.352 2.682-.348.2-2.635 2.545-2.92.91-.187-1.084 4.285-3.263 5.272-3.592M616.333 412.548c-1.02 2.506-.783 7.156-4.316 7.19 1.757-1.668 2.849-4.406 2.873-6.9zM148.985 90.115c-.2.853-.845.944-1.607.93-1.879-.033-6.006-.75-8.097-1.068-.49-.075-1.91-.138-1.809-.821zM61.344 522.588c-1.264 1.534-1.33 3.072-2.326 4.623-2.386-3.173 2.062-5.33 4.324-6.697.165 1.08-1.549 1.528-1.998 2.074M256.471 60.841c-.292-.897 1.401-1.812 1.963-2.107 1.64-.86 3.664-1.095 5.225-2.21 1.307 1.35-6.55 3.993-7.188 4.317M615.37 407.747c-1.961-1.719-2.668-4.789-3.349-7.197 1.955 1.496 3.47 4.71 3.35 7.197M200.32 205.759c-.137 3.206-2.05 2.49-3.831.701l1.41-1.462zM239.187 508.984c-.816.126-.515-1.149-.469-1.666.252-2.819 1.617-5.44 3.598-7.437zM83.25 447.087c-2.168.228-3.93-1.227-2.864-3.345l2.618.926zM206.082 384.719c1.027.897-3.91 3.357-4.284 3.628-1.703 1.233-2.656 3.545-5.307 3.084-.213-.956 1.595-1.93 2.24-2.315.96-.574 2.31-.812 2.998-1.318 1.278-.94 1.793-3.727 4.353-3.08M181.139 236.933c.4-2.356.763-5.193 1.411-7.46.187-.653.056-1.488.978-1.656-.413 2.327-.749 5.291-1.363 7.509-.179.648-.195 1.462-1.026 1.607M39.105 271.475c-2.368.375-5.473 4.195-3.545-.983 1.19.08 3.03-.418 3.545.983M335.153 306.026c-.18.217-1.205-1.175-1.771-1.342-1.197-.353-3.4.62-3.022-1.05 3.203-1.322 3.979-1.14 4.793 2.392M207.588 563.74c.384-.268 2.933.067 3.77-1.493.604.776-1.47 3.05-2.243 3.275-2.004.583-2.363-1.196-1.527-1.782M179.693 393.836c-.955 2.128.635 4.182-.716 6.232-1.248-1.263-.804-3.663-.38-5.196.235-.849-.151-1.247 1.096-1.036M403.29 223.021c.415.384-.712 1.337-.835 1.8-.374 1.397.054 3.642-1.557 4.435l.548-5.444c.114-.8 1.573-1.042 1.844-.79M354.828 460.529c.327 1.308-.981 1.076-1.822 1.278-.665.16-4.393 1.063-4.404-.08zM95.245 492.19c.844-1.889 2.544-.903 4.075-.916 1.992-.017 3.216-.902 5.032 1.165-3.151-1.31-5.894-.378-9.107-.25M183.53 385.678c-.044 2.351-2.658 2.468-3.83 4.316.134-2.079 1.647-4.104 3.83-4.316M215.044 390.311c-.205.181-1.229.708-1.277.643-.412-2.354 1.69-3.221 3.349-4.319.481.614-1.573 3.236-2.072 3.676M485.818 516.664l.478 2.617-2.868.743v-2.399l1.43.959zM636.003 242.211c-1.658-1.79-1.995-4.898-2.39-7.197.94.924 1.823 3.533 2.162 4.79.22.812.318 1.57.228 2.407M190.25 378.483l-4.793 4.314c-.666-2.3 2.988-3.638 4.793-4.314M628.328 255.164l-2.425-.21-.449-2.184c1.64-.261 3.123.552 2.874 2.394M211.84 392.395c.04.629-1.367 5.156-2.393 4.313-1.14-1.112 1.737-5.041 2.393-4.313M170.093 271c-2.066-1.323-2.095-3.54-1.91-5.755l1.629 3.402zM492.055 62.76c-1.8-1.058-.658-4.018-.95-5.754l1.354 3.246zM106.279 257.083c-1.1.207-1.086-.505-1.418-1.216-1.083-2.327-2.234-5.4-2.894-7.898 2.248.834 1.534 2.537 2.025 3.97.468 1.367 2.921 2.955 2.287 5.144M127.871 87.714c-.224 2.793-4.086.56-5.752.471zM446.954 8.544c.049.055.25 1.534-.33 1.43l-4.943.962c.237-.69 1.883-1.246 2.558-1.513.522-.206 2.497-1.124 2.715-.879M220.957 383.279c.625 1.132-2.383 3.898-2.874 3.354-.625-1.132 2.382-3.898 2.874-3.354M608.968 396.88c.548.555.86 1.508 1.607 1.993.075.356-.502.327-.711.234-.98-.439-3.28-3.568-4.606-4.514-2.514-1.793-4.993-1.681-6.667-4.844 3.38 2.043 7.584 4.307 10.377 7.132M543.4 382.322c-.971 1.398-3.27 1.542-4.797 1.43.839-2.014 3.003-1.395 4.796-1.43M174.893 563.689c1.363 1.407-3.066 2.882-3.833 1.195zM161.784 563.282c2.466-.687 2.086 4.16-1.273 1.124.398-.348.736-.974 1.273-1.124M153.781 90.113c.017 2.379-3.204 1.131-4.313.235zM343.312 33.017c-.16.733-4.165 2.595-4.311 2.394l.276-1.483zM142.746 599.678c.112.683-.847.689-1.332.812-1.768.452-3.616.632-5.38.137zM648.728 253.252c2.056-.577 1.899 2.079.468 2.392-1.263.277-1.679-2.052-.468-2.392M423.443 463.408c.35 1.888-3.22.602-4.314.955-.349-1.888 3.22-.602 4.314-.955M68.374 456.694l-1.12 1.382-1.753-2.347zM204.17 402.469c-.41-1.156 3.419-5.212 3.83-4.798zM382.183 247.487c-.484-.505 1.576-3.206 2.392-3.356.515.99-1.67 4.11-2.392 3.356M132.19 544.977c-.1 1.584-.956 2.866-2.162 3.826l.716-3.509zM120.196 87.236c-.713 1.593-2.956.8-4.316.953-.349-1.887 3.222-.604 4.316-.953M104.845 615.023l5.27-3.835c-.496 2.336-3.18 3.492-5.27 3.835M188.814 365.041l3.351-3.356c-.069 1.712-1.662 3.276-3.351 3.356M30.952 524.34c-.897-1.827.647-1.98 1.911-2.877zM65.013 454.767c-2.246-.413-3.485-.436-1.196-2.388zM57.334 297.87c-1.953.335-.557-2.397-.469-3.358 1.685.62.443 2.212.469 3.359M116.832 412.543c-2.64-.31-.923-2.132.48-2.877zM116.355 413.507c.25.26-2.258 4.181-3.121 4.307.154-.54 2.281-5.177 3.121-4.307M70.772 459.565c-.285.276-1.741-.107-1.912-.723l.715-1.664c.636.322 1.668 1.928 1.197 2.387M245.426 539.216c-.559-.268-3.565-2.153-2.87-2.879 1.213.705 3.253.935 2.87 2.88M350.992 35.887c-1.049-.31-4.22.885-3.836-.953 1.238.097 3.23-.542 3.836.953M116.835 606.392l-2.919 2.596-1.867 1.005c1.457-1.281 2.677-3.415 4.786-3.6M227.197 156.81c-.755 1.365-2.201 2.506-3.838 2.389zM33.343 407.747c-1.565-.38-.441-3.73.48-4.316zM616.815 189.427c-1.748.15-2.56-.79-3.35-2.16 1.235.151 2.813 1 3.35 2.16M346.671 538.254l-1.444-.28.012-2.596z"/><path d="m158.1 593.92-6.71 3.833c-.228-1.037.51-1.089 1.11-1.523 1.545-1.118 3.654-2.231 5.6-2.31M601.458 203.344c-.352.336-2.733-1.296-2.876-1.912 1.133-.057 2.972.447 2.876 1.912M182.093 400.555c-.076.403-.639 1.026-.96 1.193-2.346 1.223-1.693-1.803.96-1.193M18.95 234.536v1.915l-.71-.002c-.753-.505-.836-1.028-.724-1.912zM427.772 10.936l-1.925-1.192c.589-1.558 4.178.338 1.925 1.192M415.766 14.782c.61.59-1.534 2.18-2.397 1.912l1.686-1.91zM499.742 85.315l3.12 3.826c-1.15-1.173-3.388-1.736-3.12-3.826M605.776 241.73c-1.366.248-.783-.338-1.076-1.056-.48-1.174-.915-2.437-.836-3.738zM205.61 547.373l-.483-2.396.711.002.706.74-.001.907zM47.745 333.374l.002-.711 1.91-1.686c.268.863-1.321 3.008-1.912 2.397M602.895 233.575c-1.605-.537-.31-2.13-.47-3.357l.476.709zM218.56 376.084l-.543 1.368-1.374.064.003-.71c.504-.753 1.03-.838 1.914-.722M598.102 389.03l-1.451-.224c-.614-.415-.502-.99-.464-1.69zM106.759 489.793c-.32.297-1.903-.224-1.908-.717-.014-1.431 2.822-.134 1.908.717M11.274 167.843l-.483 2.873-.47.001-.002-2.874zM32.866 418.3l-.951.002c-.204-1.003-.853-1.665.236-2.396zM32.383 413.982c-1.087-.423-.205-2.885-.47-3.833 1.087.423.205 2.885.47 3.833M243.51 560.805l-1.916-.235 1.912-1.202zM260.785 223.024c-.288 1.09-1.505.999-2.4.95.289-1.091 1.505-1 2.4-.95M181.619 190.871c-.176-1.08.426-2.012 1.43-2.399.051.857-.537 2.049-1.43 2.4M130.268 261.402c-1.088-.424-.205-2.886-.47-3.834 1.087.423.205 2.885.47 3.834M469.508 40.215l-1.206 1.43-.71.002.002-.71c.504-.754 1.03-.839 1.914-.722M35.116 519.394c-.297.335-1.703 1.328-2.238 1.354l2.634-2.634c.28.187-.295 1.166-.396 1.28M402.808 236.933c-1.483-.465-.52-1.726-.47-2.876h.47zM155.7 573.765l-.001.71-1.43 1.207c-.188-1.151.222-2.036 1.432-1.917M351.319 530.253c.187.187.688 1.237.632 1.281-.783.335-2.356-1.356-1.914-1.914.382.159 1.026.377 1.282.633M130.75 87.714c-.008 1.76-1.427 1.76-1.435 0zM473.823 19.104c-.302.949-3.294-.212-3.355-.96zM477.182 103.554c.491.545-.234 1.315-.946.946.069-1.79-2.504-1.07-2.404-2.874zM366.344 24.86c.661.307-2.09 1.322-2.874.95v-.47zM195.044 275.318c-.893-.35-1.482-1.542-1.43-2.398.893.35 1.482 1.542 1.43 2.398M30.234 439.425l-2.889 3.339c.327-1.56 1.602-2.588 2.89-3.34M169.609 483.554c-.304.27-1.327.04-.947-.71l2.16-1.676zM119.716 605.435c-.256.954-1.024 1.079-1.919.95.257-.953 1.024-1.078 1.92-.95M456.076 68.041c.725-.725 2.045 1.427.717 1.428-.318 0-.992-1.152-.717-1.428M255.986 364.569c-.256.953-1.024 1.078-1.919.95.257-.954 1.025-1.079 1.92-.95M451.275 35.407c-.865.157-1.573-.649-1.919-1.43.865-.158 1.573.648 1.92 1.43M184.97 383.28c.153.906-.562 1.594-1.437 1.431l.485-1.434zM176.818 230.698h.955v1.435h-.955zM164.82 504.194l-.486 1.434-.951-.001c-.153-.907.561-1.595 1.437-1.433M601.458 224.941l-.483 1.913-.469.001-.003-1.914zM52.538 328.1l.005.955-1.912.247 1.197-1.199zM158.588 501.314c.06-.066.315.024.469 0 .201 1.108-.394 1.732-1.2 2.386.018-.423.648-2.293.731-2.386M476.223 20.064c.067.068-.025.313 0 .468-.855.13-1.681-.028-1.916-.95.377-.05 1.807.372 1.916.482M148.503 598.236v.954l-1.437-.002.727-.95zM456.553 354.493l-.727.95-.71.002v-.955zM467.594 71.4h.47v1.914h-.47zM33.832 423.101l1.905 2.164-.225.226c-.67-.778-1.846-1.314-1.68-2.39M460.874 17.663h1.915v.47h-1.915zM444.56 33.017h1.915v.47h-1.915zM221.437 492.192h-.955v-.955l1.202-.472zM416.73 463.408h.955v.955h-.955zM497.343 269.083h.47v1.435h-.47zM162.421 507.073l-.955.955-.002-.957zM198.407 410.631l-.954.955-.003-.957zM255.023 563.198l-1.906.733 1.672-1.681zM443.596 205.268l-.003.957-.952-.722zM397.535 194.705l-.957.002.002-.957zM542.919 424.538l-.955-.235.953-.722zM156.668 421.664h.47v1.435h-.47zM184.013 187.038l-.955.954-.002-.957zM222.873 488.352c-.062.067-.315-.023-.47 0 .124-.728.255-2.046.951-1.912.074.162-.414 1.84-.481 1.912M599.066 222.541h.47v.955h-.47zM105.324 491.24h.955v.47h-.955zM458.475 71.882h.955v.47h-.955zM31.911 437.98h.955v.47h-.955zM241.594 334.82h.955v.47h-.955zM130.277 232.138h.47v.955h-.47zM172.502 544.017h.47l.249 1.427-.719-.717zM190.733 377.524h.955v.47h-.955zM24.716 376.562h.47v.955h-.47zM463.753 18.613v-.47l1.428-.249-.718.719zM140.343 523.379c-.062.066-.315-.024-.47 0 .125-.729.255-2.046.951-1.913.074.162-.414 1.84-.481 1.913M26.144 375.116c-.964.078-.264-.864-.097-1.296.24-.62.899-2.309 1.539-2.536zM503.811 89.64c.266.306.967.626.49.94-.232-.28-.964-.606-.49-.94M362.268 276.278q.466.24 0 .48zM415.528 463.885q.468.24 0 .48zM173.217 276.278q.466.24 0 .48zM187.127 273.409c.266.305.966.625.49.94-.232-.28-.964-.606-.49-.94M471.668 303.148q.466.24 0 .48zM28.31 369.842q.466.24 0 .48zM372.349 271.97c.477.314-.224.634-.49.94l-.225-.226zM355.55 35.891q.468.24 0 .48zM385.069 243.416l1.194-1.194.226.225-1.194 1.195zM248.07 531.54q.467.24 0 .479zM16.314 238.853q.468.24 0 .48zM478.385 104.985q.468.24 0 .48zM221.684 160.173c.477.315-.224.635-.49.94l-.225-.225zM279.743 230.226c.477.315-.224.635-.49.94l-.225-.226zM172.257 479.24q.468.24 0 .48zM104.122 551.212q.468.24 0 .48zM429.098.962c1.807 3.148-6.244 4.815-4.918 8.546l-.532.421c-3.299-1.386-4.149 3.506-7.165 4.36.104-1.94 3.284-3.526 3.837-4.792.42-.958.062-2.513.316-2.81.116-.136 1.097-.138 1.608-.528 1.506-1.149 3.185-2.326 3.573-4.287L424.64.863c.88-1.35 3.852-.96 4.46.1M602.18 228.297q.468.24 0 .48zM159.307 570.414c.477.315-.224.635-.49.94l-.225-.225zM0 153.926q.468.24 0 .48zM167.459 484.997q.466.24 0 .48zM557.556 402.47q.468.24 0 .479zM355.788 171.676l-.323-1.444c-2.611-.523-4.948-2.092-6.392-4.306 2.743 1.257 4.94 3.063 8.15 3.121l9.114 9.594c-1.855-.39-3.038-2.163-4.793-2.88-2.434-.995-6.043-1.627-8.642-2.394-1.29-2.135 1.467-2.054 2.886-1.69M59.978 406.308q.468.24 0 .48zM199.132 409.196c.477.315-.223.635-.49.94l-.225-.225zM120.436 604.95q.468.24 0 .48zM370.905 23.896q.466.24 0 .48zM267.02 333.379c.125.795-.245 1.316-1.084 1.338-2.052.055-5.42-1.032-7.79-1.349-.637-.085-1.56-.311-.718-.95 3.27-.331 6.376.65 9.592.96M477.668 513.791h1.435v.47h-1.435z"/></g></svg>