<?xml version="1.0" encoding="UTF-8"?><!DOCTYPE svg PUBLIC "-//W3C//DTD SVG 1.0//EN" "http://www.w3.org/TR/2001/REC-SVG-20010904/DTD/svg10.dtd" []><svg xmlns="http://www.w3.org/2000/svg" xmlns:xlink="http://www.w3.org/1999/xlink" height="515" viewBox="0 0 525.124 514.574" width="525"><g filter="none"><path d="M281.888 402.211c4.234.74 10.673-4.805 14.26-1.305.93.908.828 3.234 1.397 3.753 2.058 1.877 6.732.443 6.465 4.516-.118 1.8-4.244 2.558-5.953 2.053-.235-.07-3.983-2.312-4.21-2.504-1.115-.944-1.775-3.802-2.68-4.064-2.065.064-3.721 1.55-5.724 1.83-2.088.291-7.2-.916-8.13.03-.48 2.372-2.591 3.477-2.14 5.767l.95-.955-.472 4.796 1.435.004.006-1.923c.096-.136.615.25.723.472.696 1.44 2.8 9.087 3.063 10.851.15 1.006.552 6.473-.01 6.856-1.42-.276-3.068.177-4.446.022-2.281-.256-6.465-5.32-6.554-7.905-.172-5.057 4.945.946 5.71-1.493 1.402-4.46-6.013-4.217-5.714-7.58.07-.792 4.16-3.936 5.037-6.05.368-.888.123-1.782.375-2.503.242-.694 1.055-1.032 1.238-1.64.34-1.134-.142-2.488.19-3.648.791-2.756 6.417-3.26 8.84-3.636 8.08-1.257 48.096-4.555 52.002-7.986.508-.447.271-1.383.808-1.685 1.627-.917 13.476-2.678 16.373-3.188 14.168-2.492 28.383-3.867 42.488-5.97 3.496-.522 6.685-1.928 10.37-1.385l-.983-2.165.807-1.133c4.57-2.061 9.356-3.706 13.937-5.73 14.643-6.472 32.98-13.568 44.549-24.542 4.623-4.385 8.495-9.79 12.871-14.237 3.307-3.36 6.626-2.596 11.115-2.934 1.687-.127 2.797.511 4.806-.576.15-.081 2.555-2.005 2.655-2.143 1.387-1.896.143-9.845-.992-12.267 5.876 2.395 7.88 13.062 2.365 16.998-5.12 3.654-11.92.773-14.795 2.457-2.469 1.446-3.82 6.216-5.307 8.627-4.744 7.692-12.853 14.498-20.958 18.385-9.063 4.347-18.364 8.16-27.188 13.115-4.16 2.336-11.677 9.55-16.073 8.738-1.836-.339-2.32-1.579-3.43-1.919-1.078-.33-10.53 2.214-12.808 2.611-17.103 2.982-34.63 3.9-51.688 6.846-6.016 1.038-11.76 3.98-18.227 5.282-14.628 2.946-29.433 4.444-44.163 6.695-.724-.139-2.723 1.892-2.19 2.362m101.706-19.671v-.955h-.47v.955zM139.866 230.927c1.182 2.079-.55 2.48-.796 3.027-.302.672-.192 1.463-.52 2.121-.435.873-1.88 1.659-1.556 2.754.365 1.235 4.106.547 5.413.833 5.464 1.195 4.942 11.88 7.805 15.707 1.325 1.77 3.843 2.673 5.329 4.029 1.646 1.503 4.832 5.38 6.4 7.272 1.224 1.477 5.007 8.683 7.137 7.373l3.688-8.541c2.214-3.452 4.279-5.466 7.178-8.175 1.91-1.785 2.44-3.78 5.317-3.801 2.83-.022 3.482-.136 6.179-.427 8.201-.885 18.47 9.16 19.802 17.043 1.253 7.425-2.397 8.958-3.955 14.528-.785 2.805 2.084 4.394-2.318 6.32-9.992 4.371-17.438-9.074-10.812-17.05 1.403-1.69 4.042-1.616 5.965-.832 1.799.732 4.664 6.295 5.964 4.002 3.328-5.869-1.089-14.682-6.39-17.969-4.129-2.56-3.587-.308-6.372.09-1.723.245-2.192-.835-4.19.075-5.324 2.423-6.563 9.56-6.082 14.804-4.391.932-3.626-2.979-5.037-5.758-3.62 4.827-3.615 9.449-.735 14.645 3.583 6.463 11.557 8.518 17.035 13.192 1.93 1.647 3.183 3.772 5.042 5.513 9.982 9.351 19.21 12.41 32.864 10.302 6.969-1.075 13.44-3.416 15.897-10.588l2.023.604c1.223 3.217.32 6.098-1.913 8.72-3.233 3.796-14.447 6.109-19.358 6.1-12.485-.021-21.298-4.091-30.472-12.26-3.268-2.909-5.61-7.33-9.477-9.235-6.11-3.009-8.7-4.875-13.312-10.198-1.52-1.754-2.683-3.759-3.84-5.758l-.677.04c-.053.035.068.796-.352.916-3.86 1.105-2.934-4.508-4.143-6.104-.942-1.244-6.275-5.07-7.966-6.66-1.057-.994-2.47-3.508-3.444-4.233-1.39-1.034-4.491-1.867-5.969-3.147-3.26-2.824-3.448-7.032-4.8-10.553-.9-2.34-2.522-6.978-5.505-6.245-.715.723 4.172 15.416-2.556 12.984l-.589-.955c-.297-4.617-2.322-9.474-1.375-13.955.235-.507.216-.88-.278-1.2-1.637-1.058-8.463 4.637-9.116 4.081-1.055-.898.443-2.254 1.279-2.799 1.528-.995 5.955-1.8 6.276-2.12.18-.178 2.418-3.22 2.998-3.956 1.273-1.615 1.755-4.434 4.314-4.556m58.867 45.624c-2.319.6-2.33 6.59-.57 8.103.735-1.253 3.508-1.799 4.121-2.584 1.939-2.48-2.153-5.88-3.55-5.52m1.594 9.552 1.202 1.461 2.622-1.221zM445.488 114.812c5.719-.011 4.57 10.003 4.313 14.149-.732 11.85-2.201 23.705-2.866 35.517-.076 1.34-.307 6.64.463 7.205.47.344 1.621.252 2.284.595 3.382 1.747-1.019 2.344-1.571 3.477-.298.61-.193.93-.13 1.533.13 1.218 1.684 6.182 2.199 7.446 1.004 2.467 6.01 9.769 5.678 11.902-.077.494-.7.805-1.011 1.174l-2.634-2.869c.15 1.79-1.223 4.153-1.374 5.645-.079.774 1.348 6.141 1.389 8.04.11 5.153-4.054 9.292-4.151 10.546-.049.637.713 1.567.749 2.433.032.802-.495 1.58-.446 2.344.062.955 1.192 1.937.932 2.854-.236.834-2.151.987-2.371.76-.24-.246.452-1.591-.484-1.432-.31 2.526-3.286 1.19-5.053 1.068-1.008-.07-2.44.671-3.597-.347-1.54-1.355.679-9.217 1.711-10.776.212-.32 3.438-3.63 3.669-3.762.755-.43 2.141.34 3.042-.564 1.03-1.035 1.588-6.722.247-7.47-4.163 2.325-9.626-7.934-6.26-9.61 2.018-1.005 6.496 7.002 9.527 4.519.241-3.09.63-6.564-.649-9.53-1.713-3.975-5.047-3.611-5.531-9.856-.32-4.13-.76-15.402.131-19.05 2.333-9.539 3.471-20.754 3.719-30.79.063-2.563.69-12.875-1.446-13.98-2.365-1.222-4.465 2.135-5.79 2.873-1.461.815-3.68.83-5.27 1.928-3.271 2.26-1.625 6.842-4.073 9.84-1.495 1.833-6.82 4.388-8.817 6.056-1.486 1.241-3.774 4.232-5.301 5.726l1.262.321 16.09-7.783c2.023-1.325 3.228-5.779 5.67-2.562.174 4.849-10.255 7.412-13.865 9.114-2.746 1.296-5.914 3.535-8.692 4.686-1.91.792-5.403 1.252-7.552 2.098-3.256 1.282-11.697 11.336-15.793 13.956-4.98 3.187-23.52 7.55-29.726 8.177-1.64.166-3.315.047-4.955.032l-.515-3.081c.027-.326 3.357-.707 4.026-.843 11.26-2.286 23.923-2.953 34.067-10.046.543-.38.71-1.047 1.148-1.362 3.523-2.534 7.674-4.853 10.2-8.384l-.975-2.644c.783.04 1.545-.052 2.27-.37 5.242-2.3 17.12-12.516 18.255-18.213.348-1.746-.356-3.7.554-5.204.29-.48 6.342-4.917 7.353-5.6 1.8-1.218 2.554-1.16 4.495-2.702.402-.32 1.137-.314 1.498-.664.321-.312 1.438-2.93 1.53-3.501.514-3.174-1.271-7.788-2.762-10.614-.669-1.268-4.676-7.88-5.362-8.552-.923-.904-7.05-2.658-4.021-3.564 4.177-1.249 12.282 10.95 13.956 14.26 1.767 3.493 3.26 7.51 2.138 11.455-.432 1.52-1.66 2.421-1.522 3.996m-31.902 30.23v.48q.466-.24 0-.48"/><path d="M476.874 379.863c-2.988 2.202-6.142 4.285-9.186 6.439-1.876.633-4.19-1.25-5.669-1.344-1.574-.1-4.517.889-6.235.96-1.286.054-2.488-.722-3.792-.51-1.106.18-1.533 1.477-2.412 1.462-.587-.01-1.2-.805-1.952-.95-1.844-.356-4.264.196-5.047 2.139.015 1.178 1.581 1.11 1.889 1.997.589 1.702-.834 3.499-2.556 3.551-4.369.132-4.402-4.983-5.353-5.278-2.644.78-5.219.353-7.756-.62-.512-2.152-.948-4.72-.035-6.777.372-.84 3.58-4.277 4.387-4.727 1.11-.621 9.255-2.368 10.654-2.337 4.701.103 5.983 5.686 11.513 6.274 2.742.292 6.183-.995 8.537-.004.706.297.215 1.784 1.297 1.924l.096-1.36c1.751-.063 2.674-3.016 4.257-4.127 2.49-1.749 3.941-2.663 6.458-4.58 4.106-3.124 5.201-2.736 8.092-7.738 1.076-1.86 5.059-9.27 5.106-10.77.04-1.287-.827-3.175-.267-4.042l15.841-14.885c1.47-1.493 3.642-5.355 5.254-6.262 1.392-.783 2.427-.233 3.75-.567 4.155-1.048 10.174-10.395 8.032-14.755 3.5.126 3.624 5.472 3.143 8.178-1.04 5.861-4.36 5.72-5.914 8.959-.882 1.837-.348 3.766-1.358 5.838-1.761 3.611-10.09 12.162-14.008 13.337-2.735.82-4.12-.67-6.119.111-5.707 2.232-6.627 14.859-8.923 19.876-1.619 3.539-8.548 8.247-11.724 10.588m-40.808 5.377c3.473 2.194 4.544-2.766 6.548-4.845-3.145-3.169-5.97.688-8.149 2.888-.068.323 1.36 1.804 1.601 1.957M261.434 92.083c4.518 4.612 3.44 7.605 1.711 13.347-1.17 3.888-2.88 7.24-5.475 10.357-1.269 1.524-7.283 5.432-3.135 7.424 4.873 2.34 11.37-8.254 17.267-5.747 3.633 1.545 2.025 5.559 1.445 8.384 1.281-.668 4.982 1.754 5.237 2.727.574 2.193-5.939 5.31-7.398 2.057-.853-1.902 1.944-4.57 1.2-5.258-.105-.097-.978.198-1.311-.1-.447-.4.048-1.861-1.923-2.222-3.007-.552-8.54 6.236-10.974 6.509-1.273.143-4.055-1.079-5.14-1.872-3.342-2.442-1.188-4.968-7.153-4.11-1.55.222-6.543 1.975-7.294 3.253-1.531 2.606.354 4.321.18 6.865-.355 5.22-5.83 8.902-10.758 8.472-5.117-.447-7.236-4.854-12.958-4.848-5.808.007-10.49 1.867-16.021-1.206-.694-.385-1.102-1.314-1.825-1.533-3.034-.917-6.563.722-10.48-1.035-6.98-3.132-1.262-5.333.662-9.453 2.403-5.147-2.125-10.365-4.966-7.843-.61.54-3.696 10.875-5.294 5.783-1.611-5.132 1.902-6.997 2.042-9.935.063-1.318-1.326-3.04-1.165-4.15.242-1.673 5.83-6.86 7.527-7.303 3.723-.972 11.31.35 11.527 5.05-1.782-.369-3.429-1.533-5.27-1.724-3.827-.398-7.656 3.531-9.118 6.768 9.407 2.552 14.317 14.08 5.024 20.379l.235 1.224 8.355 1.546c.925-.174 2.9-4.013 3.945-5.11 2.964-3.111 8.57-5.693 12.91-4.85 2.963.576 7.604 12.92 12.582 13.802 5.537.981 3.86-3.01 4.78-6.508 1.386-5.269 5.01-6.963 9.851-8.38 1.017-.298 3.29-1.147 4.077-1.21 1.094-.087 2.548.835 3.516.169 1.593-1.097-1.977-6.802-.262-8.417 1.615-1.727 1.853 2.305 3.72 1.838 3.387-.849 8.097-9.898 8.961-13.15 1.026-3.859.313-7.383.032-11.248.637.066.737.852 1.134 1.258m-45.578 41.746c-1.493-1.859-2.896-4.915-5.656-4.62-1.735.185-7.509 4.13-6.997 6.47l13.598 1.242c1.607-1.722-.219-2.189-.945-3.092M273.879 42.7c1.38 1.67 5.549 3.552 7.533 5.177 4.823 3.95 14.38 14.36 12.84 21.01-1.188 5.133-6.99-3.686-9.245-3.975-1.524-1.692-5.715-3.772-4.804-6.23 3.664 2.284 7.265 4.307 10.085 7.669 1.072.2.678-.477.723-1.198.39-6.169-11.429-18.04-17.176-19.775-7.532-2.274-18.004.428-21.611 7.867-1.69 3.483-2.244 10.924-1.425 14.69.339 1.559 3.647 4.172 5.161 4.473 2.795.556 6.453-2.479 6.734-5.087-2.291.195-2.532-2.367-2.885-4.088l1.892-11.065c.672-.345 1.384-.28 2.09-.12.456.104 4.467 1.805 5.094 2.118 5.179 2.586 5.723 6.69 2.938 11.482-1.869 3.214-4.604 3.978-8.13 3.133-3.103 9.24-13.239 6.93-16.922-.656-.962-1.98-3.088-9.723-2.06-11.362.414-.66 2.506-1.26 2.148-2.88-2.01-.176-2.892 2.068-4.345 3.087-5.695 3.99-11.704 4.24-16.53-1.148-1.607-1.795-2.33-3.061-2.58-5.591-.93-9.441 7.007-8.024 9.631-1 .4 1.07 1.532 3.684-.383 4.054-4.18.808-2.01-4.897-5.939-4.2.702 5.393 6.067 7.34 10.741 5.224 4.236-1.917 10.918-10.826 12.62-15.207 1.64-4.216.63-9.31-2.722-12.334 3.043-3.409 7.702 3.08 8.101 5.804.844 5.762-1.654 8.492-3.4 13.318-.257.71-.586.553.32 1.26 6.569-4.063 13.208-5.394 20.874-3.828.298-.276-2.846-4.85-3.227-5.644-4.128-8.59-2.315-21.252-6.834-28.67-2.045-3.358-7.455-5.348-11.27-5.523-2.537-.117-4.302.958-6.49-.473 1.738-4.733 8.928-2.902 12.417-1.136 16.272 8.238 6.41 29.164 16.036 40.823m-7.824 20.294c3.216-.448 4.065-8.174.248-7.676-1.074.14.28 4.15-.55 5.122zM338.377 368.274c.21.24.688 2.19.603 2.27-4.383-.167-8.87 1.85-13.188 1.955-2.428.06-5.237-1.39-7.201-1.009-1.02.198-2.244 2.61-5.295 2.913-2.62.26-1.346-.946-2.276-1.806-.744-.69-4.779-1.19-5.863-1.129-5.336.298-8.376 3.945-15.348 3.388-18.983-1.516-33.705.284-52.31 1.442-12.308.767-23.715-4.032-35.503-4.786-3.47-.222-5.366.953-7.656 1.004-5.81.129-17.007-5.112-22.898-6.913-13.428-4.107-28.094-5.26-39.922-13.115-.401-.266-2.195-.123-1.237-1.593 1.318-2.023 8.361 2.4 10.074 3.092 7.562 3.051 14.069 4.023 21.587 6.24 8.513 2.512 20.276 7.58 28.668 8.778 2.46.351 4.736-.969 7.54-.856 12.517.504 22.888 4.674 36.079 3.398 17.122-1.655 32.492-3.567 49.87-1.54 9.106 1.062 16.175-2.81 25.352-3.318 7.015-.388 12.258 1.062 18.737 1.449 2.248.134 8.964-1.267 10.187.136M226.72 458.82c1.584.04 3.563.305 4.309 1.924-1.29.376-3.842-1.215-4.572-1.246-.531-.023-3.916 1.135-5.271 1.244-2.174.175-4.527-.22-6.67.047-7.958.99-22.915 7.866-23.79 16.991-.328 3.422.744 6.92 4.603 7.424 4.912.642 2.549-3.817 3.172-5.881.201-.669 2.307-3.377 2.984-3.737 4.368-2.324 9.396.147 12.528 3.388.792 1.797-4.305 3.123-5.383 3.757-4.485 2.635-9.888 5.727-9.144 11.717.632 5.084 3.892 5.711 8.024 7.323-1.461 1.178.175 3.03-2.14 3.912-5.058-1.153-8.245-6.723-9.602-11.35-.594-2.023.084-5.91-.465-6.736-.285-.43-2.599-.91-3.636-1.639-6.452-4.534-5.636-14.89.015-19.698.052-1.62-1.835-.423-2.421-.02-4.098 2.818-10.128 13.611-7.183 18.272 1.002 1.585 3.821 2.476 4.92 4.196 1.312 2.054.602 4.757 1.704 6.932.714 1.408 2.186 1.559 2.795 2.99l-1.517 1.485c-5.99-1.09-3.542-7.76-4.894-10.934-.868-2.038-2.997-1.245-4.447-2.75-5.261-5.468-1.266-16.383 3.115-21.393 3.854-4.406 20.228-12.649 25.82-11.38 4.453 1.011-.696 2.845-2.3 3.73l.968.489c3.843-.459 13.955-5.67 17.17-5.195 4.165.616.351 5.157 1.308 6.137M204.4 479.94v.48q.468-.24 0-.48m-2.156 1.435h.71l.717-.72-1.427.25zM237.026 158.956l-.487.962c.58.836 2.554.806 3.175 1.632.493.655.172 1.895.745 2.227 1.81 1.05 6.795-.27 9.051-.044 1.558.157 2.822 1.398 4.533.965.178-2.835.25-3.654 2.132-5.568.213-.216.883-.09 1.088-.304.311-.326.218-1.056.917-1.738 1.5-1.464 5.052-1.308 6.548-.048.578.486.356 1.196.857 1.648.13.118 2.907 1.68 3.082 1.69.848.045 1.923-.867 2.937-.914 1.167-.054 2.236.634 3.765.436 1.766-.23 4.75-2.137 6.343-2.235 3.269-.2 5.613 3.36 8.987 1.729 1.24 2.669 4.815 4.237 3.178 7.716 2.51 1.408 5.022-1.92 6.95-1.954 3.305-.057 3.514 2.963 1.666 5.052-.606.685-4.632 2.44-5.555 2.506-3.596.255-4.925-2.147-6.746-4.676l-3.982.51c-.632-2.858-.018-4.547 1.451-6.992l-.988-1.635c-1.912 1.866-4.36 1.204-6.657 2.21-1.975.865-2.551 3.3-4.68 3.92l-5.92-3.256c.257 4.406-.348 6.712-5.12 7.02-2.299.147-2.486.06-4.867.508-5.173.973-5.408-.685-9.646-1.478-2.566-.48-7.093.314-9.77.086-1.616-.137-2.662-1.858-4.659-2.109-1.512-.189-2.677.448-4.447.18-3.056-.462-5.107-4.38-7.341-4.705-.439-.064-4.449.967-5.032 1.196-1.522.6-1.099 2.127-2.855 1.698.647-1.36-1.403-1.841-1.423-2.153-.006-.105.66-.475.706-.946.068-.687-.44-1.182-.012-2.148.416-.938 2.295-3.96 3.169-4.524 1.042-.673 3.704-1.748 4.793-1.044.832.538-.876 1.81 1.714 2.48 2.036.526 2.971-.466 4.313-.627.526-.063 1.146.31 1.734.217 1.304-.205 2.243-1.3 3.7-.618.58.272 1.202 1.555 1.68 1.568.206.005 2.642-1.123 3.912-1.255 2.085-.217 4.765-.352 6.414 1.143.206.814-1.843 1.672-2.156 1.672zm.237-.955h-.954v.47h.954zm15.596 7.192v.48q.467-.24 0-.48M375.92 76.428c-.554.545-4.48-2.964-5.154-3.237-6.732-2.722-15.671-4.681-22.903-3.95-3.732.377-2.636 1.127-4.545 2.653-2.381 1.903-3.788 2.446-4.822 5.726 3.38 2.872 5.82.492 9.001-.108 9.286-1.75 18.41-.844 27.65.413 3.762.512 7.497 1.686 11.33 1.87-1.024 2.44-2.61.67-4.196.583-7.714-.42-20.383-1.622-27.725-1.086-4.16.304-8.088 2.003-12.216 2.419-.177 1.239 1.202 1.32 1.85 2.224 1.765 2.467 1.049 5.215 1.748 6.408.801 1.366 5.347 1.931 6.23 3.848.901 1.96-1.087 4.388.208 6.392.562.87 4.645 2.168 5.865 2.886 1.642.966 9.118 7.373 9.935 8.778 1.567 2.694 1.485 5.5.274 8.29-1.785 4.112-6.227 2.972-9.551 4.842-.954 3.213-2.198 6.024-4.32 8.634-2.4 2.951-5.039 5.486-9.097 5.252-2.945-.17-6.071-4.891-4.144-7.455 1.36-1.808 2.646.653 4.15.755 2.803.19 6.105-5.666 6.81-8.03.406-1.366-.389-2.51 1.034-3.76 1.826-1.602 2.127-.08 3.29.188 1.414.325 7.757-3.515 7.808-5.402.052-1.928-2.761-7.966-4.089-9.394-.712-.767-3.607-2.298-4.665-2.544-1.273-.297-2.06.877-2.575-.821-.832 1.129-3.089-.853-3.603-1.623-1.137-1.701.153-4.636-.69-6.508-.5-1.11-3.77-2.382-5.027-4.09-1.603-2.18-2.014-6.191-3.51-8.246-.644-.884-3.86-2.729-4.4-3.993-.468-1.099-.387-2.731-.034-3.858.866-2.765 5.102-2.737 2.44-6.23-1.872-2.458-4.747-1.524-3.546-6.146 4.367-2.701 6.161 4.095 9.294 4.715 2.892.573 6.396-1.052 9.577-.947 2.612.086 15.361 2.883 17.636 3.964 1.989.945 4.546 4.307 4.682 6.588m-17.51 1.442v.48q.468-.24 0-.48M114.442 230.93c-1.633 2.242-5.56.204-7.215-1.186-1.017-.855-1.053-2.591-2.859-2.177l-.927 6.463c.594 2.05.336 4.116.503 6.194.254 3.145 1.594 6.733.91 10.142-.293 1.467-1.219.888-1.924 1.435-1.32 1.023-.02 5.117.017 6.693.201 8.836-1.631 15.38-2.36 23.588-.494 5.578 1.519 8.891 2.291 13.905.706 4.579.764 11.14.548 15.804-.073 1.596-1.204 5.5-.913 6.592.175.656 2.583 2.88 3.176 4.06 2.18 4.34 1.981 10.256 6.108 14.044l4.32 3.836c-1.842-.363-4.37-1.634-5.751-2.884-1.21-1.095-3.811-5.64-4.563-6.021-.651-.332-2.903.638-4.459.166-.187-.057-2.957-2.282-3.07-2.441-1.402-1.959-2.956-11.245-3.038-14.003-.023-.754-.096-.832.728-.725l1.918 1.433c.875-.207 1.56-5.798 1.68-6.961 1.187-11.425-3.058-19.244-3.377-29.727-.102-3.344.935-7.846 1.724-10.79 1.865-6.957-.27-12.388-.732-18.98-.349-4.994.401-10.12-.297-15.113.325-2.589 3.35-5.686 6.044-4.31.32-3.375 2.392-4.359.582-8.017-.71-1.437-1.724-1.487-2.495-2.535 2.81-.695 5.917 2.903 6.508 5.255.195.775-.338 1.51-.084 2.424.585 2.11 4.906 3.91 7.007 3.837M442.722 242.807c2.091 2.334 4.647-5.71 6.144-6.38 2.881-1.29 3.831 2.852 3.224 5.18-.718 2.753-4.143 6.328-4.571 8.38-.428 2.051.128 4.457-.15 6.567-.262 1.988-1.476 4.133-1.743 6.412-.46 3.92 1.066 9.607 2.957 13.087 1.648 3.033 7.983 7.066 4.612 10.796-.617.683-1.657.653-2.212 1.147-1.49 1.323-.303 3.489-4.26 2.888-1.427-.216-2.455-1.849-3.66.23-.803 1.384-1.563 6.69-2.245 8.787-.321.987-.492 2.552-1.56 2.994-.565-2.169.765-4.702.92-6.507.32-3.682.06-7.643.574-11.426.43-3.152 1.795-6.616 1.887-9.64.135-4.448-2.43-10.612-2.853-15.422-.34-3.856.904-9.655.394-12.872-.094-.592-3.277-6.72-3.566-6.985-1.322-1.212-3.171-.403-4.821-3.335-.907-1.612-2.83-10.328-2.607-12.217.184-1.558 1.88-4.394 3.622-3.193 2.478 1.71 2.04 4.37 2.836 6.28 1.577 3.784 4.394 7.488 5.88 10.914.483 1.115.504 3.54 1.198 4.315"/><path d="M295.312 60.599c1.793 5.275 6.03 9.415 8.736 14.06 1.385 2.375 2.113 5.123 3.572 7.463 6.01 9.635 22.125 6.059 29.269 13.192.589.588 1.918 3.094 2.359 3.185.574.118 1.147-.98 1.805-.89 1.098.15 2.987 1.96 2.628 3.397-.947 3.786-5.048 6.134-3.73 11.562.09.37.867.3.95.65.304 1.272-1.57 4.874-1.796 6.755-1.217 10.116 7.08 3.581 7.903-2.164.295-2.059-.167-3.105-.229-4.811-.028-.785-.228-.976.597-1.532 3.395 1.86 3.558 8.918 1.403 11.47-2.702 3.198-7.337 4.641-11.468 3.86-2.423-.459-2.694-4.347-3.931-4.735-3.16.195-5.722 1.775-8.99 1.346-4.753-.625-6.742-7.028-6.817-11.152-.115-6.246 3.683-17.629 11.33-10.633-1.208 1.54-3.649 2.07-4.8 3.353-2.449 2.726-3.026 9.502-2.406 12.973.185 1.039 1.308 1.068 1.558 2.04 1.533.734 6.058-2.576 6.51-4.073.25-.83-.048-1.86.212-2.667 2.454-7.624 9.558-15.786-2.032-20.265-5.35-2.067-12.707-2.67-18.1-4.93l-7.327-.592 4.318-1.435c.054-.528-.022-1.042-.112-1.564-.863-5.033-7.65-12.405-9.908-16.964-.653-1.318-2.024-4.844-2.41-6.235-.248-.9.225-.701.906-.664M118.282 196.858c-.413-3.104 4.148-5.496 4.256-7.888.128-2.854-2.528-10.803-6.529-9.075-.204.089-3.03 2.782-3.231 3.066-3.093 4.37-2.394 13.743-1.626 18.869.802 5.36 2.579 11.875 9.052 12.058-2.176-2.835-4.431-5.262-5.654-8.74-1.803-5.125-1.703-12.511.937-17.319 1.038-.38 3.317.356 3.302 1.591-1.157 1.609-1.516 2.42-1.762 4.406-.43 3.482-.034 8.133 1.163 11.52 1.6 4.529 4.262 9.312 9.828 8.297l1.772 1.93c-.224-2.035.449-2.314 2.14-2.904 5.114-1.785 10.807-2.177 16.094-3.332.265 1.28-.328.825-.946 1.19-2.895 1.712-6.355 1.896-9.615 2.398l1.003 1.868c2.627 1.338 2.616.004 4.502-.212 4.949-.568 8.018 3.134 11.759 5.086 2.931 1.53 6.001 2.596 8.99 3.965 2.168.993 6.596 4.867 9.253 2.73 2.34-1.883 1.086-6.963-.477-9.108-5.693-7.809-13.015-8-21.777-7.362-.461.034-1.547.659-1.728-.324-.2-1.098.737-.845 1.259-.95 3.73-.742 9.034-1.489 12.663-.493 4.089 1.121 10.992 5.823 12.865 9.686 1.944 4.01.563 13.59-5.79 11.543-4.298-2.591-9.344-4.504-13.662-6.965-3.712-2.116-6.344-5.521-11.06-6.212-2.28-.334-5.746.467-7.011.235-.435-.08-1.086-1.06-1.256-.842l-.102 1.35c-2.414.53-1.17 2.006-4.464 2.05-4.214.055-11.676-1.377-15.43-3.317-8.758-4.524-10.956-16.645-10.226-25.743.437-5.441 5.689-15.52 12.154-11.69 6.711 3.975 10.88 19.172-.646 18.638m14.391 19.679-.957-.003.003.957zM87.572 305.78l-6.21 2.658c-15.07 10.197-33.827 33.392-16.345 49.881 13.28 12.525 23.64 11.783 40.398 14.778 19.328 3.455 38.71 7.657 58.21 9.92 2.407.279 6.872-.498 8.881 1.21 1.908 1.62-4.13 2.95-5.1 3.061-7.436.854-10.014-1.285-16.394-2.694-5.163-1.139-11.033-1.05-16.518-2.193-4.358-.908-8.518-2.621-12.747-3.567-21.618-4.833-47.686-5.243-62.68-23.683-11.783-14.493 2.49-36.739 14.845-46.006 4.208-3.156 8.47-4.135 13.66-3.366"/><path d="m317.39 68.034.959.485c1.366-2.644 5.183-4.403 5.736-.443.629 4.512-3.706 6.563-1.021 12.516 1.905 4.224 5.54 4.46 9.678 4-.197.961-.988.81-1.683.948-8 1.59-12.974-3.073-12.918-11.06l-3.313-.526c-2.241-.724-1.57-11.652-1.816-14.017-.529-5.116-2.643-8.392-7.972-9.3-6.55-1.117-11.615.629-18.313-3.278-8.64-5.039-12.06-24.341-.15-27.41 7.54-1.942 6.555 4.373 11.523 5.531 1.494.349 1.9-.901 3.158-.865 2.06.058 5.528 2.25 5.545 4.551.006.818-.908 2.186-1.41 2.881-1.33 1.84-6.957 7.35-8.971 7.818-7.185 1.665-7.81-5.758-5.333-10.607.95-1.86 2.724-2.34 1.951-4.505-2.196-6.155-10.62-1.507-11.18 3.442-.313 2.77.42 9.391 1.453 12.022 1.488 3.789 4.719 6.138 8.564 7.27 7.28 2.141 17.391-2.97 22.727 5.58.644 1.034 2.785 6.375 2.785 7.29zM252.137 426.206c-.96 3.156 1.674 3.763 2.405 5.511.721 1.726.217 3.633.499 5.259.54 3.12 6.614 8.374 9.568 9.626.212 1.135-.51.579-1.176.724-.988.215-3.973.406-4.374.932 1.242 4.394-2.923 16.085-8.716 13.567-1.149-.499-1.633-2.068-3-2.033.2 3.45.753 7.663-1.718 10.516-.838.967-7.49 5.3-8.883 5.99-1.001.497-2.124.627-3.08 1.223-.589-.018-.773-2.174-.64-2.542.224-.627 1.035-.626 1.23-.925.358-.551.143-1.645.658-2.466.643-1.028 2.345-1.247 3.286-1.992.89-.706 5.696-4.533 4.825-5.486-4.975 2.15-11.079 8.381-16.895 7.579-2.191-.303-1.96-1.217-3.014-2.774-1.262 1.603-1.964 4.354-4.584 3.624-1.404-3.158.416-6.293 2.658-8.42 2.357.594 1.632 3.37 2.968 4.232 1.01.652 5.039-.305 6.31-.73 3.494-1.17 13.468-8.334 15.716-11.152 1.218-1.527 1.25-4.885 2.13-6.752 4.108-.331-.818 4.577 2.384 4.793l1.448-6.235c-.993-.023-2.212.018-2.908-.821-1.128-1.36-2.43-8.032-2.398-9.989.014-.886.586-6.623.743-6.946.46-.952 2.19-1.144 2.869-1.927.853-.985.202-2.712 1.689-2.386M205.12 406.052c-.378-3.379-6.224-3.66-3.04-8.177 4.309.305 8.528 1.1 12.83 1.504 6.455.606 12.586.584 19.178-.104 10.87-1.133 21.565-5.15 32.45-3.108.66.124 1.748.475 1.914 1.244-3.08-.197-6.603-.822-9.663-.674-4.013.195-7.895 1.784-11.908 1.878l-.979 1.195c1.487.345 3.068-.605 4.438-.397 5.803.877-4.328 3.066-5.042 3.396-1.33.615-6.399 3.332-7.428 4.088-.603.443-1.284.592-1.081 1.552 2.677-.603 5.622-.544 8.281-1.07 1.157-.228 1.904-1.184 3.465-1.344 1.62-.166 10.374.751 12.44 1.017 4.029.52 6.906 3.321 8.916 6.672-1.269.082-1.716-1.298-2.708-1.846-3.755-2.074-10.057-2.267-14.32-1.983-7.804.521-18.597 5.818-25.12-.34-1.77-5.849 13.19-5.502 15.28-9.735-3.27.381-6.552 1.163-9.84 1.43-5.656.458-12.243 1.186-17.725 1.453-3.35.163-6.544-.327-9.855-.487-.462 1.232 1.989 1.31 2.695 1.378 5.494.536 11.116-.127 16.492 1.502.172.89-.413 1.196-1.094 1.54-5.664 2.866-17.9 5.72-23.979 4.1-.547-.146-3.91-2.025-4.223-2.493-.526-.787-.56-2.19.27-2.19zM273.903 84.288c-.254.162-.457.848-.955 1.176-3.088 2.037-5.846 3.99-9.478 1.467-5.17-3.593 1.294-11.224 5.954-12.642 6.044-1.84 12.638-1.34 18.685.955 4.46 1.694 7.122 5.712 8.51 10.203 2.667 8.628-.689 18.402-9.263 22.124-7.62 3.308-12.569.413-13.166-7.851-.439-6.062.403-9.57 6.005-12.54 3.654.931 3.775 3.854 1.163 6.236-3.078 2.807-7.212 1.252-6.079 6.659 1.556 7.423 10.494 4.777 14.281.583 4.47-4.95 5.871-16.034-1.053-19.094-6.21-2.743-9.478-.537-14.604 2.724m7.98-4.501c-1.05-2.724-5.108-3.882-7.816-3.254-.752.175-5.486 2.861-6.11 3.481-1.048 1.041-1.605 2.068-1.422 3.611.375.435 5.436-4.544 6.99-4.791 2.163-.344 5.723 1.837 8.358.953M46.614 307.877c4.774 3.203 3.6 11.396-.043 15.188-1.887 1.965-5.245 2.672-5.918 5.6-.482 2.095.407 4.078-2.003 5.657-.006.662 6.886 4.496 4.556 6.48-1.806 1.538-4.357-.988-6.363-1.328-4.522-.764-10.16 1.676-12.095-4.218-.52-1.587-.306-4.89-.723-5.514-.5-.745-6.719-2.322-6.017-5.253 1.243-.085 1.38 1.184 2.645 1.425 4.484.857 12.55-2.69 15.58-5.99.664-.72 2.804-4.489 2.843-5.262.138-2.69-3.985-5.945-3.32-8.886 3.587-.67 7.79.042 10.858 2.101m1.14 3.659-3.841-.479c.186 1.879-.142 4.98-.704 6.727-.692 2.15-2.833 3.737-3.61 5.74 5.13-1.575 7.405-7.113 8.155-11.988m-11.04 15.832c-.597-.685-7.488 4.822-7.183 6.485.314 1.408 1.03 1.734 2.397 1.483 4.01-.736 4.63-4.55 4.787-7.968M445.325 320.956c-2.562 1.733-8.525 6.931-11.136 7.84-1.058.368-2.02.462-3.045-.042-.426-2.723.903-4.637 2.343-6.788.562-.84 2.061-.904 1.67-2.762l1.694.003c.391-1.558-1.004-.569-1.476-1.243-1.17-1.67.688-3.664 1.722-4.99l-.237 2.396c2.625-1.087 2.284-3.7 3.33-5.542 2.836-4.997 6.907-9.057 9.819-13.69 1.093-1.74 4.782-10.833 6.27-10.513 1.873 3.607 1.248 8.392.228 12.213-.493 1.844-1.746 3.03-1.858 5.375-.136 2.824 1.396 3.226.192 6.876-1.422 4.307-6.15 8.589-9.516 10.867M234.7 100.733c-3.18 3.152-10.862 7.772-14.333 2.912-.476-.667-3.054-6.719-3.194-7.418-.222-1.103.88-1.814-.295-2.512-.357-.02-4.839 3.912-5.527 4.54-.804.732-2.944 3.606-3.184 3.638-2.879.396-4.844-2.978-4.499-5.526.345-2.54 8.33-4.332 10.113-6.245 3.099-.174 4.953-3.759 7.692-5.255 6.734-3.68 9.406 3.1 7.393 8.832-1.539 4.38-5.056 3.614-8.873 4.326 2.8 12.362 17.243-2.94 19.305-8.767 2.98-8.422.996-19.728-9.943-19.055-.66.04-8.083 1.978-7.207-.01 3.629-3.01 10.063-2.388 14.012-.093 6.09 3.538 7.597 9.926 6.866 16.65-.494 4.552-5.118 10.803-8.327 13.983m-15.668-6.067h-.955v1.914h.955zM374.052 203.116c-1.989 5.097-6.261 9.41-9.27 14.03-4.929 7.565-9.377 15.916-7.354 25.318 1.004 4.669 3.167 5.68 7.779 5.549 5.754-.164 7.351-5.886 5.475-10.646-1.776-4.506-5.447-.587-6.613-1.004-2.147-2.117-1.374-5.054 2.016-4.995 7.84.135 8.022 10.536 5.47 15.975-.234.5-1.162.198-.527 1.244-7.083 4.971-15.386-.165-16.21-8.31-.785-7.761 1.9-15.504 5.67-22.148 3.343-5.893 9.08-10.347 11.114-16.948-3.13-.517-6.244 1.751-8.593 3.636-5.481 4.398-12.766 14.916-14.2 21.784-.48 2.29.101 4.487-.72 6.722-3.712.175-3.193-6.146-2.66-8.662 1.227-5.784 13.14-20.323 18.474-23.268 1.878-1.036 9.66-3.732 10.98-1.56.426.703-.63 2.114 1.287 2.092.74-.01 1.572-.607 2.432-.71 2.1-.252 5.072-.15 7.056-.617 2.654-.624 3.554-4.394 6.093-5.177.462 4.398-2.1 7.331-6.476 7.684-1.502.12-2.762-.439-3.835-.39-2.344.104-4.972.848-7.388.401M422.173 325.148c-4.568 6.003-13.66 9.978-19.832 14.483-1.162.848-2.304 2.69-3.519 3.212-1.863.802-3.22-.693-5.051.25l-1.516-.66c.024-1.637 1.116-2.908 2.123-4.061 2.256-2.587 11.587-9.973 14.68-12.176 7.353-5.236 12.81-9.026 19.173-15.851 2.076-2.227 3.468-5.121 6.018-6.95 3.593 1.977-.514 7.094-2.205 9.323-3.177 4.188-6.81 8.407-9.871 12.43M198.4 157.042c-1.38 1.929-3.895 1.63-5.92 1.481l-.796 2.35c3.203-.265 4.598.055 5.352 3.286 3.474.725 4.411-2.991 7.843-3.304 3.24-.296 6.529 1.678 3.87 4.851-.295.353-5.53 4.574-5.89 4.681-2.788.834-2.688-1.88-3.82-2.259-1.402-.468-3.05 1.056-5.124-.141l-1.03-2.305c-1.832 1.438-3.983 3.926-6.368 4.225-1.597.2-2.073-.711-3.258-.841-3.515-.386-8.897.941-9.617-3.864-.215-1.434.492-3.153.025-4.805.82-1.693 9.635-4.615 11.65-4.66 1.294-.028 4.67 1.206 6.201 1.265 2.471.095 4.285-1.505 6.883.04M95.72 138.325c.053 1.935.965 3.842 1.318 5.649 1.894 9.692.964 20.69.79 30.493-.097 5.373.078 10.921-.643 16.357 1.93 3.8 7.258 9.852 6.61 14.334-.449 3.102-6.473 2.873-8.673 1.666-1.417-.778-1.925-2.558-3.705-2.288-.145 1.7-.72 3.407-.911 5.094-.067.59.986 3.833-.781 3.558-.805-.012-1.248-.76-1.455-1.43-.625-2.013-.602-10.578-.003-12.525.273-.885 1.688-2.337 2.535-2.74l5.4-.86c-.655-5.043-5.01-3.48-8.514-4.644-.477-1.07-1.38-3.25.11-3.75 2.592-.874 4.501.45 6.97.983-.322-1.91.398-3.692.502-5.496.73-12.662-.057-26.17-.48-38.903-.056-1.69-.832-3.41-.505-5.215zm3.846 67.65c.51-5.214-1.5-9.468-7.105-6.15-1.54 2.685 6.582 6.689 7.105 6.15M372.082 276.509c.202.983-.477 1.113-1.103 1.531-12.25 8.184-27.395 20.025-32.581 34.59-1.124 3.155-2.846 12.474-.034 14.757 5.08 4.124 13.655-8.92 13.109-12.71-.218-1.511-1.716-1.348-2.11-2.319-1.244-3.059 2.968-2.586 4.749-3.206 1.45-.505 6.832-3.89 7.66-3.846 2.895 3.354-4.323 5.793-6.738 7.163-.7 1.457.178 2.923.046 4.365-.538 5.876-7.922 14.65-14.382 13.847-8.845-1.098-7.682-12.909-5.175-19.008 3.11-7.57 15.93-24.284 22.792-28.556.643-.4 2.62-1.543 3.331-1.926 3.273-1.763 7.08-3.043 10.436-4.682M108.6 135.054c.575.42 1.404 5.581 2.556 6.564 1.14.668 2.68-1.433 3.285-1.166.421.186 4.294 5.14 4.722 5.866.733 1.242 3.557 9.15 2.957 9.76-3.811.783-4.439-2.348-5.319-5.243-3.496 1.208-4.067-.588-6.32-1.592-.865-.385-1.864-.255-2.721-.637-5.261-2.35-7.556-9.506-10.179-13.812-1.875-3.077-5.734-4.68-3.746-9.401 3.14-.537 3.288 3.028 5.245 4.546.419.488.94.207 1.222-.235 1.347-2.12-3.184-10.304.939-12.008.318.076 1.352 2.706 1.537 3.265.335 1.008 1.446 4.782 1.55 5.655.339 2.814-1.975 6.533 1.598 7.99.904.367 2.363.221 2.674.448M418.143 182.226c-.029-.41-.717-5.967-1.916-4.555.053 4.754.468 19.31-7.659 16.527-1.412-.484-3.85-3.385-5.069-4.548-.484-.46-1.951-.436-.942-1.433 3.086-.24 5.652 6.806 9.343 3.483 2.332-6.888.354-12.45-.486-19.098-.077-.61-.521-4.915-.485-5.179.04-.29.77-.265.934-.682.921-2.355.017-3.97-2.586-3.978-3.11 1.172.58 5.212.584 5.542.003.252-.725.686-.71 1.336.053 2.561 1.765 8.897-2.04 8.985l-.964-13.915c-1.947-.428-1.482 1-2.104 1.737-1.962 2.33-3.8 4.391-4.862 7.371-2.608 7.326-.662 16.02.248 23.519-3.525.356-3.47-5.502-4.064-8.164-.19-.848-1.113-1.534-1.146-2.606-.243-7.845 2.997-15.652 8.56-21.147.71-.702 1.694-.692 2.207-1.156.65-.587.505-1.58.816-1.848.53-.457 1.67.668 1.365-1.948 2.645-2.021 5.99 2.348 6.9 2.343 1.5-.01 4.703-5.427 6.973-1.227-.636 1.89-2.856 3.802-2.934 5.779-.078 1.98 1.748 4.793 1.983 7.16.615 6.205-1.449 12.3-.988 18.495-1.67.262-.958-.977-.958-1.677 0-2.947.207-6.226 0-9.116M246.214 491.142c3.272 3.373 3.101 6.099.255 9.675.058.825 3.638 1.921 4.516 2.11 9.735 2.08 24.413-.196 34.495-1.4 6.88-.82 13.722-2.23 20.608-2.88l.276 1.207c-2.533 1.77-5.056 2.363-8.048 2.995-10.91 2.307-29.263 4.572-40.175 3.476-3.42-.343-8.87-2.667-12.035-2.875-2.025-.134-1.942 1.934-4.968-.275-6.579-4.802-1.414-18.722 5.076-12.033m-.794 11.827c.13-1.541-.702-3.065-.712-4.56-.01-1.577 1.638-4.18-.96-5.06-4.422 1.805-3.325 9.736 1.672 9.62M147.005 260.738l-.902 3.53c-2.6.86-6.094 1.808-8.49 3.024-5.634 2.856-10.524 10.477-17.533 4.906-3.023-2.403-3.916-6.637-5.895-9.109-.92-1.15-2.747-1.851-3.775-2.942-2.668-2.828-2.67-7.864-2.728-11.706-.023-1.5.654-2.977.548-4.815-.134-2.332-1.761-4.547-.735-6.935.246-.572.83-1.184 1.416-.476 4.403 5.32 1.96 13.005 2.389 19.207.683 2.212 4.255 3.194 5.28 4.793.652 1.018.687 2.734 1.282 3.995 1.843 3.91 2.84 7.003 8.122 5.367 1.863-.577 8.068-5.984 10.851-7.38 3-1.507 7.139-3.467 10.17-1.46M465.44 261.197c.995-.214 14.577 4.973 16.634 5.834 18.273 7.64 35.556 25.665 36.73 46.323l-.588 1.575-1.378.385c-2.409-.62-1.895-6.816-2.38-9.178-3.2-15.605-20.722-31.213-34.918-37.051-2.459-1.011-14.288-4.427-14.793-6.325-.216-.814.002-1.156.693-1.563M286.835 417.711c-1.155 1.304.847 2.951 2.117 3.144 1.88.285 5.285-3.002 7.53 1.068 1.738 3.155 1.952 9.874.866 13.267-.868 2.712-4.263 3.675-6.593 4.797-1.493-.7-1.242-2.291-1.19-3.706l2.39.477 1.443-6.234c-2.33-.268-2.488 2.001-3.635 3.35-.247.072-3.17-1.024-3.514-1.239-3.173-1.98-4.261-8.922-3.841-12.387.356-2.934 3.02-6.536 5.884-7.402 4.083 2.893.055 3.159-1.457 4.865m-.151 13.286c3.324-.682 4.723-4.166.714-5.268zM483.229 350.71c.844-.8 1.359-2.65 3.082-2.499 3.382 1.76.915 5.628-.788 7.912-2.187 2.933-3.87 2.435-6.55 4.006-5.343 3.134-9.707 5.441-15.26 8.25-3.11 1.571-9.995 6.593-13.164 6-1.58-.295-1.95-1.441-1.5-2.891 1.15-3.694 13.854-7.428 17.4-9.011 6.353-2.837 11.781-7.021 16.78-11.767M291.817 444.097c.507.397.851 1.747 1.63 2.454 1.035.94 2.674 1.423 3.548 2.665.038 2.233-2.04 3.193-1.671 5.5.08.502 4.032 7.71 4.588 8.398.657.815 1.313 1.593 2.33 1.988 1.842.717 3.711-.103 5.06 1.162-2.223 4.439-8.15 2.687-11.034.014-.467-.433-4.967-7.249-5.366-8.069-1.65-3.398-1.32-9.562-4.731-11.581-4.915-2.909-11.968.532-17.237.684-.241-1.272.265-.836.96-1.172 3.736-1.812 7.874-3.755 12.169-3.467 1.73.116 4.841 2.266 5.824 2.226 1.087-.045 2.216-2.145 3.93-.802M324.021 205.426c-.096.155-.878.188-1.099.543-.434.697-.116 1.672-.52 2.382-3.608 6.35-11.382 13.45-18.895 8.389-3.773-2.542-5.603-9.005-4.723-13.296.656-3.202 3.184-4.76 3.274-9.25.038-1.893-1.513-3.435-.981-5.492.875.019 1.934-.253 2.654.467 1.975 1.974.568 10.31.092 13.076-.805 4.671-4.72 11.871 1.477 14.14 1.977.725 6.891.673 8.302-1.025.907-1.092-.803-2.86-1.235-4.119-1.764-5.137 1.673-8.37 6.707-8.614 1.288-.062 6.481.335 4.947 2.799m-2.798 2.47-1.185-3.299c-2.094 1.22-4.537 1.726-4.085 4.735 2.376.4 3.052-2.87 5.27-1.437M303.44 131.168a5.03 5.03 0 0 1-1.875 4.518c2.312 2.391 5.901.39 8.849.221 2.206-.126 5.965-.221 8.062.132 1 .168 9.161 2.995 9.97 3.463 1.135.657 2.147 1.076 1.895 2.659-3.719-.25-7.109-2.642-10.8-2.868-4.164-.254-9.673.964-13.91.858-1.554-.04-3.439-1.35-4.318-1.326-1.127.03-4.67 3.702-7.303 4.188-4.082.753-9.139-.45-11.766-3.847-.589-.76-2.677-4.4-1.096-4.602 2.608-.333 2.198 1.862 3.125 3.055 2.6 3.347 10.18 1.388 12.743-1.196.353-.355 3.018-3.905 3.064-4.16.134-.745-1.2-1.165-.92-2.092zM433.01 171.432c.698 2.216 1.97 4.268 2.307 6.618.078.549.09 4.006.012 4.527-.49 3.272-5.735 6.552-7.102 9.726 5.635 2.951.235 7.337-.752 10.77-.425 1.479.004 3.093-.645 4.54-1.413 1.93-3.039-1.954-3.294-2.949-.864-3.368-1.022-10.146-.348-13.562.449-2.276 2.185-8.463 5.022-5.757 1.852-2.746 2.762-5.643 3.332-8.912.064-.367-.114-6.49 1.467-5M78.458 269.794c-.188.984-1.027.77-1.682.952-4.146 1.148-8.463 1.76-12.634 2.765-6.669 1.608-8.364 2.227-14.434 5.668-5.584 3.166-7.592 1.901-13.173 7.46-9.598 9.56-20.053 18.479-28.852 28.724-1.889 2.2-3.308 4.848-5.506 6.721.454-1.265.808-2.952 1.41-4.1 4.437-8.476 14.297-15.995 21.165-22.51 12.443-11.801 13.287-16.878 31.535-21.708 7.265-1.922 14.67-3.38 22.171-3.972M400.873 388.296c3.809.462 5.518-5.516 9.529-1.58 1.12 1.844-1.932 14.28-4.11 14.94-3.998 1.213-2.118-4.12-4.937-5.447l.952-1.663c-3.891-3.193-4.21 3.905-4.8 4.308-1.579 1.08-2.269-2.024-2.526-2.267-.373-.352-1.419-.05-1.73-.904-1.378-3.79 3.222-9.765 6.333-11.626 2.442.668 1.833 2.274 1.289 4.24M95.539 395.224c1.43.96 1.295 2.283 2.098 3.405.753 1.052 7.563 3.89 9.112 4.32 2.374.659 5.145.327 7.55 1.567 2.403 1.239 4.448 5.008 7.229 6.205l12.103 3.003c-9.512.768-17.911-4.594-26.396-7.902-5.512-2.15-13.564-4.175-18.563-6.864-1.47-.791-1.898-2.474-2.973-2.776-3.268-.915-7.27.371-10.597.272-.174-.98.114-1.272.709-1.925 3.05-3.35 16.173-1.687 19.728.695"/><path d="M319.308 503.456c-.12.743-.894.903-1.448 1.186-14.786 7.548-31.322 7.746-47.491 9.131-8.524.731-12.938 1.911-21.493-1.541-1.42-.574-7.867-3.67-4.186-4.937 2.94 3.49 7.433 3.32 11.5 4.34 1.073.27 2.54 1.382 3.306 1.306.566-.055 1.226-.755 2.024-.832 17.937-1.75 36.23-2.748 53.574-7.834 1.365-.4 2.77-.848 4.214-.819M27.025 370.167c.393.229 4.285 6.19 5.362 7.35 1.391 1.497 4.18 4.061 5.81 5.223 1.169.833 5.855 3.017 6.073 3.285.335.412.3 1.506.858 2.258 1.5 2.017 2.828 2.922 5.316 3.322 1.646.265 9.942-.257 7.657 2.964-.934 1.316-4.136-.51-5.531-.768-2.823-.52-5.474-.08-8.077-1.044-4.286-1.587-8.047-5.977-11.375-8.775-1.582-1.33-3.374-1.775-5.05-3.587-2.483-2.686-2.301-6.154-6.505-6.471l.728-3.65c.453-.33 4.263-.38 4.734-.107M271.332 219.387l.037-2.793c1.79-1.005 8.222-3.885 8.019-5.986-.213-2.194-4.887-6.29-7.336-6.548-8.833-.934-14.827 9.02-18.072 15.992-.861 1.85-2.022 6.722-2.912 7.872-1.845 2.384-2.953-2.727-2.776-4.403 1.096-10.337 15.366-23.67 26.27-20.057 3.47 1.149 11.152 8.598 8.318 12.863-1.363.894-2.3-.864-3.52-.697-2.182.297-4.485 5.699-8.028 3.757M287.64 258.272c-4.63-1.111-6.633-2.88-11.358-.564-12.552 6.154-5.879 20.662-13.355 27.908-1.933 1.874-4.002 3.082-6.249.98-.677-1.018 2.421-3.19 3.126-4.104 3.169-4.105 2.106-7.274 3.004-11.869 1.38-7.06 5.643-11.924 12.227-14.641 3.945-1.628 13.187-5.012 12.605 2.29M325.549 322.569c1.813-1.656 1.825 7.723 1.944 8.366.7 3.785 4.793 7.5 8.49 8.3 5.814 1.257 10.785-1.271 15.438-4.466 2.745-1.885 7.067-7.501 10.569-5.222 2.74 1.784-1.459 3.588-2.341 4.334-6.763 5.712-20.07 12.784-28.59 6.923-.62-.426-4.922-5.202-5.24-5.795-1.764-3.285-1.091-8.928-.27-12.44M4.968 348.568c.42 1.59 2.214 2.343 2.98 3.49.517.777.4 1.772.917 2.458.356.473 1.16.408 1.448 1.054.871 1.945.562 7.529 1.107 10.288.896 4.54 2.24 6.001 6.458 7.934 1.697.777 3.543-.045 2.986 2.003-.396.64-8.275 1.077-9.46.392-.185-.107-2.349-2.958-2.606-3.389-.819-1.37-2.046-6.268-3.065-6.488-.737-.159-1.841 1.047-2.587-.315.151-1.111 1.585-2.256 1.811-2.99.646-2.093-2.925-9.665-3.278-12.35.12-1.244 2.123-2.765 3.289-2.087M244.945 277.947c2.22-.59 2.866 3.49 2.888 5.06.178 12.606-22.604 16.24-27.733 5.628-.846-1.75-2.449-10.399-.27-11.123 1.4.162 3.254-.375 3.956 1.245.331 1.273-1.413 1.632-1.428 3.248-.013 1.355 1.365 5.34 2.235 6.455 3.702 4.741 16.205 2.009 18.674-2.833 1.056-2.07 1.814-5.357 1.678-7.68M333.53 465.725c.412.31.363 1.256 1.346 1.276.681.013 1.564-.832 2.458-.96 2.742-.397 2.326 1.941 5.008 1.91l-.483 1.43c3.366-.735 5.73-1.6 9.112.01l-3.79 1.24c-3.044 1.81-6.006 5.664-9.895 4.892-5.08-1.009-2.96-7.938-6.703-10.447-3.105 3.587-2.766 5.904-8.137 6.244-5.543.35-6.387-1.31-10.374-4.054-.665-.457-3.128-.76-2.837-1.952 1.726-1.87 4.24-.717 6.062.41.546.337.963 1.55 2.116 1.961.7.25 3.77.738 4.498.708 4.003-.163 6.253-5.935 7.642-5.685 1.243 1.118 2.65 2.018 3.976 3.017M400.216 144.68c.892-.1 4.273 1.543 4.014 2.516-2.93 2.24-5.723 5.318-9.137 6.73-5.56 2.298-12.965 3.034-18.881 4.6-2.044.54-6.544 3.716-8.105.292-.934-2.048 3.347-3.552 4.828-4.05 5.692-1.907 12.99-2.38 18.47-4.558 2.29-.91 7.397-5.374 8.811-5.53M315.947 103.297c-2.58-.754-3.26-3.99-6.41-3.693-2.26.212-6.98 3.193-8.2 5.155-2.35 3.775-2.367 12.718.508 16.26l4.774-3.351c4.4-.426 2.325 7.334-3.382 7.432-7.555.13-7.423-8.734-6.975-14.381.462-5.838 4.24-11.529 9.75-13.757 4.89-1.978 9.77 1.241 9.935 6.335M359.13 281.31c-2.875 3.336-7.601 4.053-11.188 6.319-6.233 3.938-12.005 12.908-15.853 19.17-1.8 2.931-2.398 7.895-6.541 8.089 2.177-8.703 8.244-17.975 14.559-24.3.696-.697 7.024-4.738 4.396-5.293-2.54.412-5.307-.787-7.678-1.596l-.183 1.708c-.741.955-2.972 1.056-3.415-.03l.087-1.118c1.52-.37 1.472-2.195 3.042-2.474 2.816-.5 6.88 2.652 9.478 2.731 4.473.136 8.56-3.994 13.296-3.207M236.445 320.312c1.228-1.024 5.51-1.707 7.23-2.61 3.108-1.63 12.786-10.274 13.842-13.504.702-2.146.104-5.127 1.597-7.042 1.835-2.355 3.321 4.943 2.897 6.73-1.457 6.133-14.894 18.306-20.995 19.793-1.178.287-4.317.722-5.212.112-1.04-.708-.094-2.866.64-3.479M36.961 361.63c.901.093 8.052 4.897 9.302 5.848 4.192 3.187 10.822 8.566 9.667 14.336-2.162 1.072-3.89.952-6.105.374-2.968-3.446-8.346-5.222-11.195-8.516-.934-1.078-3.683-8.256-3.826-9.645-.152-1.479.58-2.56 2.157-2.397m7.079 14.55c.338.287 2.532.84 3.336 1.222.914.435 4.033 3.195 4.67 1.01.47-1.617-4.485-6.054-5.855-7.023-.965-.682-5.819-3.424-6.593-2.758.372 1.055.593 3.574 1.207 4.305.467.555 1.54.544 2.18 1.179.581.575.645 1.718 1.055 2.065M352.662 468.906c3.249-.692 8.015 9.573 8.336 12.286.71 5.995-2.559 11.568-6.956 15.491-1.263 1.127-5.177 3.556-6.385 1.661-.56-1.748 4.236-7.029 5.412-8.87 1.127-1.766 3.963-6.105 4.12-7.913.335-3.843-3.406-7.903-4.86-11.382-.24-.576-.473-1.101.333-1.273M168.66 412.767c-.273-1.357.393-.767 1.028-1.109 3.473-1.865 7.87-3.738 10.484-6.56-6.42 1.181-12.511-.32-18.879-.636-1.429-.618-1.695-1.593-.304-2.482l18.947-.73c1.39.45 7.035 1.438 7.405 2.703.126 1.289-1.458 2.513-2.401 3.269-1.913 1.532-8.608 4.819-10.951 5.26-1.465.276-3.77.14-5.33.285M118.765 398.375c4.908 2.874 11.016 2.769 16.57 2.896 5.88.135 13.35-.821 19.094-.46 2.445.153 3.828.46 4.047 3.101-.308.746-.924.688-1.582.73-8.285.535-17.173-.009-25.425-.504-4.685-.282-12.142.855-12.704-5.763M198.037 241.364c-.323-.308-1.515-6.349-2.893-8.378-2.626-3.865-8.191-5.24-11.616-1.685-1.351 1.403-4.625 8.185-6.462 7.784-2.294-2.793-1.035-6.97.936-9.61 3.372-4.515 8.477-4.537 13.383-2.326 2.716 1.223 6.468 4.941 7.692 7.66.528 1.174 2.237 6.764.543 7.067-.415-.296-1.311-.253-1.583-.512M162.418 84.59c.907.696-1.926 1.812-2.154 1.917-13.655 6.286-27.34 10.577-40.865 18.151-1.169.654-3.117 2.508-3.983 2.763-1.434.422-2.75-1.04-2.367-2.366.376-1.306 10.72-5.22 12.599-6.142 3.72-1.826 7.234-4.051 11.019-5.774 2.448-1.115 17.281-7.214 18.762-7.126.234.014.134 1.46 1.876.99.4-.108.58-1.294 1.614-1.839 1.021-.538 2.36-.623 3.499-.574M488.757 322.963c-.562-1.375-1.724-2.494-1.972-4.024-.361-2.234.501-4.03.447-5.728-.185-5.82-3.014-17-6.789-21.519-1.074-1.285-3.271-2.423-4.248-3.91-.441-.672-.345-1.182.24-1.188.274-.003 4.032 2.693 4.508 3.16 3.44 3.371 9.984 16.382 10.567 21.098.409 3.3-.187 7.128.54 10.5-.028 1.266-2.452 2.105-3.293 1.61M296.31 248.638l-.294-.95-1.653.51c-1.35-1.533 4.8-6.873 5.393-8.277 1.168-2.765.219-7.885 2.715-10.12.569-.508 1.33-.217 1.943-.58.38-.224.4-.924 1.107-1.325 3.986-2.264 9.837.187 14.143-2.855 1.197-2.864 4.228-6.026 5.276-8.875.86-2.339.847-5.422 1.803-7.788 2.276 1.583.653 6.201-.135 8.497-1.762 5.137-5.216 9.394-10.551 11.035-3.179.977-7.545-.853-9.677.882-.76.618-2.984 4.48-3.113 5.441-.154 1.144.35 2.595.17 4.092-.171 1.423-2.396 6.793-3.328 7.707-.766.751-2.561.976-3.116 2.644zM432.391 90.013c1 .88 2.604 3.852.37 4.193-2.44.372-6.538-3.663-7.704-5.702-6.636.651-14.758-.366-21.332-1.733-4.69-.975-10.187-2.957-13.889-6.017 3.988-.273 7.803 2.227 11.492 3.136 4.236 1.045 10.726 1.851 15.116 2.157 2.877.2 7.007-.504 9.605-.01 1.349.257 2.045 1.854 3.171 2.585.896.582 2.375.689 3.171 1.39m-4.892-.148v.48q.468-.24 0-.48M229.587 503.449c-.707.085-1.388-.302-1.883-.75-1.124-1.018-1.076-3.712-2.63-3.044-1.467.63-3.574 6.605-6.55 6.004-1.267-.256-6.4-7.673-3.32-9.194.94-.464 1.747.342 2.613.264 1.304-.117 2.897-1.82 5.235-.51l.736-.765c-.236-2.696.787-4.635.518-7.593-.241-2.643-2.512-5.67-.712-7.918-.28 3.97 2.483 6.17 2.993 9.958.428 3.182-.337 6.313.629 9.446.62 2.01 1.865 2.337 2.37 4.102M175.371 152.72c.355 1.647-2.294.803-3.481 1.073-2.185.497-8.33 4.346-8.331 6.84-.002 3.598 4.447.327 5.818.218 6.554-.52-2.138 8.295-3.924 8.56-3.252.482-2.606-4.43-2.765-4.695-.222-.373-1.58-.95-2.195-1.673-2.952-3.47-.076-7.402 3.298-9.193 4.015-2.132 7.371-.562 11.58-1.13M148.502 155.118l-.802 3.37c-3.169.052-6.877 1.344-10.004.958-1.86-.229-2.95-1.747-4.791-1.7-1.552.04-3.24 1.7-4.324 1.683-1.9-.032-6.318-8.424-.484-8.171 3.417.148 4.023 3.494 7.25 4.343 2.787-.32 8.357-2.08 10.904-1.343.782.226 1.168 1.598 2.251.86M316.906 408.45c4.597-.511 6.814 3.558 2.02 5.615-.243.104-3.119.96-3.29.976-.777.071-4.065-1.397-4.395-2.121-1.991-4.378 1.092-10.39 5.237-12.338 1.261-.592 5.311-1.68 4.664.809-.451 1.734-5.355 5.938-4.236 7.058M170.1 84.099c-.137-.751.058-.925.728-1.207 2.17-.915 5.326-.956 7.442-1.406.995-.211 1.871-.94 2.733-1.106 6.161-1.18 13.336-1.993 19.497-2.008 2.59 3.917-1.882 3.054-4.196 3.396-5.999.886-12.542 2.631-18.435 3.15-2.588.229-5.449.483-7.77-.82M310.047 284.809c3.49 4.477-2.206 7.98-4.984 10.586-.346.325-.087 1.677-1.947 2.095-5.35 1.2-10.466.366-14.504-3.47 1.983-1.66 4.348 1.373 7.016 1.506 1.167.058 8.254-1.793 9.156-2.36.197-.123 2.497-3.473 2.635-3.84.643-1.705.323-3.398.377-5.145-2.593-.433-5.31.623-7.784.372-1.062-.108-5.314-1.07-4.211-2.764.628-.964 6.197.924 7.459.976 1.149.046 2.503-.589 3.236-.423.211.048 3.418 2.296 3.551 2.467M380.718 351.84l-6.724 3.104c-5.099 2.99-10.142 6.646-15.695 8.774-2.874 1.1-11.003 4.382-10.68-.847l1.155.494c.506-1.59 1.587-.73 2.8-1.088 6.013-1.77 11.013-5.31 16.682-7.314 3.877-1.37 8.447-2.117 12.462-3.124M257.943 254.488l2.044.017.721.717c-.206 4.55.284 9.38-1.616 13.603-4.638 3.368-10.94-4.709-6.68-8.598 1.81-1.652 5.544-2.272 5.53-5.74m-1.971 6.666c-1.931.865-1.981 3.082-.235 4.308 1.423-1.153.523-2.918.235-4.308m-2.874 3.353-.954-.955-.002.957zM291.001 229.007v6.957c0 1.17-1.931 3.893-3.354 4.077l-.235-1.429c-1.054.453-2.91 2.634-3.723 3.009-1.11.51-3.4.507-4.075.947-.335.22-3.563 5.114-3.004 5.628l2.333-.063c.176-2.559 3.558-3.4 4.299-.745-1.033 4.036-4.78 3.322-7.56 1.496-1.228-2.457.418-5.156 1.897-7.151.391-.528 3.658-4.088 3.945-4.227 1.676-.81 3.448.842 5.613-1.569 1.816-2.023.117-7.724 3.864-6.93m-1.441 6.722h-.955v.47h.955zM25.202 313.93c.839-1.2.265-2.087-.001-3.355 5.097-.965 6.553 4.94 3.342 8.376-2.631 1.293-9.275 1.598-11.03 3.844-1.159 1.483-1.383 4.558-3.337 5.79-5.034-.315.025-9.161 2.631-9.382 1.413-.12.304 1.474.959 1.45l.501-1.477c2.027-.394 5.12 1.505 5.914-1.073l-1.345-2.936c.236-.932 1.488-.58 1.887-.756.299.429 1.207 2.41 1.434 1.917.122-.801.033-2.354-.955-2.397"/><path d="m24.723 314.41.48-.48c-.126.18.102.222-.48.48M41.882 357.96c-.627.637-2.869.95-3.495.119-1.09-1.447-.138-4.999-1.053-7.088-.055-.126-1.495-2.146-1.597-2.238-1.327-1.186-4.278-1.077-5.53-2.64-3.051-3.807 3.724-3.394 6.198-1.883.97.594 6.086 7.868 6.332 9.032.16.754-.378 4.212-.855 4.697M254.11 234.847c4.933-2.553 6.797-8.51 7.145-13.765.22-3.326 1.943.77 2.182 2.14.738 4.217-1.686 9.83-3.852 13.47-.714 1.2-2.31 4.26-4.106 3.584-2.47-.93-1.154-3.705-1.368-5.429M117.32 229.007c-.082-1.035-.367-4.66 1.192-4.316 1.333 1.797 6.024 5.08 6.407 7.071.509 2.646-2.092 10.217-4.964 10.696-.908.151-.607-.239-.841-.62-1.973-3.222.467-4.67.056-6.258-.06-.23-2.319-3.046-2.827-3.82-.21-.32-.93-.357-.96-.608-.187-1.517.942-1.604 1.937-2.145.184 2.298.83 3.822 3.108 4.8 3.087-3.44 1.733-7.433-3.108-4.8M405.045 206.594c3.003 3.708-2.088 12.331-7.05 11.86-1.379-4.837 1.622-8.596 3.425-12.882.792-.503 3.062.327 3.625 1.022M357.623 397.003c2.01 3.227-6.107 7.876-7.616 10.241-3.277 1.23-3.565-1.728-2.736-4.178.836-2.472 7.44-8.336 10.352-6.063M358.711 403.71c.172-.232 1.132-.207 1.51-.53 1.131-.963 2.888-2.179 3.728-3.105 1.627-1.795 1.265-4.19 4.18-4.498 1.552-.164 1.652.672 1.54 2.024-.29 3.498-5.749 11.187-9.739 9.815-1.034-.355-1.714-3.038-1.219-3.706M320.888 299.209c.237-.22.996-.713 1.31-.42 3.444 2.127-.893 13.829-4.574 15.046-1.375-.89-1.89-1.781-1.662-3.46.21-1.547 3.889-10.208 4.926-11.166M212.795 71.635c-.29 3.64-2.476 6.55-2.336 10.34.039 1.068 1.128 1.846.915 3.305-.09.619-1.958 3.276-2.62 3.128-4.578-3.207-2.519-9.684-.207-13.588zM238.1 21.85c5.682-1.05 6.55 6.117 2.55 7.345-7.345 2.257-9.22-6.113-2.55-7.346M295.8 191.107c-1.13 1.107-2.847 3.506-3.459 4.934-.792 1.85-1.62 9.883-3.49 9.453-3.17-.726-.303-12.56 2.612-14.108.56-.298 3.477-.128 4.336-.279M97.568 219.01c1.137 1.825-1.303 8.712-2.285 10.749-.26.539-.42 1.338-1.225 1.164-2.938-1.833-1.856-11.438.715-12.748zM25.052 353.908c1.192 1.081 2.237 3.471 2.067 5.121-.837.88-5.31-3.952-8.143-2.636-1.128.525-1.75 2.837-3.847 2.157-.549-5.962 5.725-8.452 9.923-4.642M4.166 342.654l2.112 1.013c1.163 2.106-5.32 3.908-6.014.241-.738-3.891-.094-7.698 4.08-8.806l1.614 2.51c-1.436 1.445-2.302 2.898-1.792 5.042M306.964 329.154c-.13-.112-.667-1.261-.61-1.304 3.501.124 6.502.168 9.565-1.715 1.176-.723 2.54-3.322 3.288.139.206.951.013 6.833-1.098 6.84-1.097-.859-2.23-2.716-3.571-3.134-2.463-.768-5.565.905-7.574-.826M123.487 255.801l-2.328.343c-2.14-1.038-2.61-10.556-.234-12.262 2.77 1.2 2.221 4.44 2.426 6.76.037.424.639.985.67 1.652.048 1.024-.608 2.36-.534 3.507M338.018 169.514c.82 5.26-15.775 7.028-11.056 1.299 1.331-1.617 3.446-.29 5.039-.322 1.857-.037 3.948-1.435 6.017-.977M387.916 189.19c.172.221-1.36 1.628-1.69 1.9-.865.718-6.05 4.24-6.7 4.277-1.998.115-1.926-1.348-1.57-2.952.803-3.62 6.822-4.547 9.96-3.226M321.557 474.708c4.452-1.138 1.722 10.062-.57 10.061-3.192 0-2.026-9.397.57-10.06M321.705 173.827c-.292.307-5.998-1.633-6.688-2.183-1.462-1.165-4.11-5.65-.75-5.774 1.612-.06 8.808 6.517 7.438 7.957M326.504 285.62c-.441.504-1.788-1.162-1.873-1.342-1.202-2.544-1.349-6.242-3.192-8.702-1.376-1.837-5.1-2.188-2.6-4.126.704-.492 1.1-.071 1.7.215 4.675 2.234 5.014 9.507 5.965 13.954M302.033 486.66c.726.812-.848 10.462-4.316 8.909-3.039-1.826 1.289-9.136 4.316-8.909M375.445 272.666c-.918-1.052 1.462-1.997 1.93-2.623 1.994-2.664 5.742-7.845 5.783-11.054.019-1.483-.58-2.816-.538-4.3.072-2.583 1.31-.777 1.835.57 1.987 5.102-2.986 11.866-6.368 15.496-.365.392-2.178 2.442-2.642 1.91M143.233 237.163l.444-2.845-2.311-.567c-.474-2.145.224-3.849 2.512-4.189 1.468.714 4.834 5.718 2.374 6.547-.981.331-2.05.028-3.019 1.054M289.08 277.469c.748.75-2.87 5.597.466 8.89.528.521 6.083 3.733 5.289 4.541-2.923-1.864-9.191-4.166-9.065-8.409.03-.966 1.792-6.544 3.31-5.022M70.782 393.093c-2.233-.085-4.272 1.062-6.003-.956-1.385 2.388-4.046.359-3.111-2.4.448-.46 8.68 1.739 9.114 3.356M302.408 276.868c-1.513.833-2.519-.45-1.74-1.731.181-.298 4.653-1.542 5.444-1.546 3.008-.016 5.363 1.66 7.43 3.64-2.915-1.576-6.165-3.112-9.62-1.958-1.155.386-1.241 1.445-1.514 1.595M94.77 269.794c-.651 1.63-2.626.443-4.071.434-3.458-.02-6.973.179-10.44.21-.63.007-1.057.423-1.321-.644 5.276-.707 10.582-.507 15.833 0M369.69 264.032c-.036-1.665 2.053-1.95 2.886-3.107.74-1.027 1.38-4.453 1.444-5.795.05-1.044-1.12-3.148-.022-3.57 2.035 4.634.467 10.283-4.308 12.472M310.666 493.372l-1.575-3.932-.333-2.302c1.67 1.345 2.813 4.183 1.908 6.234M169.134 82.67c.277.285-.107 1.741-.722 1.912l-1.664-.714c.322-.636 1.928-1.67 2.386-1.197M181.606 225.648c-1.855-.374-1.504-1.812-1.91-3.355zM321.707 505.375l-1.199.98-1.197-.747zM307.319 41.405c-.158-.865.648-1.573 1.43-1.919.157.866-.649 1.574-1.43 1.92M226.23 478.506c-.256.954-1.023 1.079-1.918.95.256-.953 1.024-1.078 1.919-.95M313.556 283.703c-.32-.6.767-1.672.95-1.439.32.601-.768 1.672-.95 1.44M419.101 196.383l-.235.955-.722-.953zM308.758 169.034h.47v.955h-.47zM373.526 275.552h.955v.47h-.955zM393.435 186.305q.466.24 0 .48zM381.44 351.355q.468.24 0 .48z"/></g></svg>