<?xml version="1.0" encoding="UTF-8"?><!DOCTYPE svg PUBLIC "-//W3C//DTD SVG 1.0//EN" "http://www.w3.org/TR/2001/REC-SVG-20010904/DTD/svg10.dtd" []><svg xmlns="http://www.w3.org/2000/svg" xmlns:xlink="http://www.w3.org/1999/xlink" data-name="Layer 1" height="233" viewBox="0 0 295.67 233.35" width="296"><path d="M291.76,72.12c-6.36-4.24-19.75,16.58-24.11,20.98-6.78,8.35-16.95,12.38-25.04,19.13-5.13,4.93-11.54,7.74-17.92,10.66-4.47,2.2-8.35,5.44-12.98,7.34-6.17,3.17-13.41,3.74-19.59,6.89-1.23.83-1.48,3.52.4,3.6,4.32-1.23,9.8-3.88,13.91-5.95,5.25-2.47,10.83-4.02,16.38-5.66,5.16-2.1,9.64-5.46,14.28-8.5,2.95-1.64,5.74-2.97,8.67-4.76,6.07-3.91,10.58-9.67,15.58-14.78,5.45-5.35,11.77-9.63,17.18-15.04,2.86-2.09,10.69-13.68,14.02-10.55,1.55,1.4,1.05,3.55.49,5.32-2.2,4.75-4.28,9.38-6.98,13.92-3.41,6.27-9.82,9.77-15.21,14.13-3.7,3.13-8.52,5.9-10.12,10.72-2.3,7.85,7.53,5.13,11.61,3.47,2.48-.87,4.92-1.93,7.5-2.48.59,0,.57-.11.95.11.65.44.02,1.29-.18,1.85-1.36,2.5-3.54,4.45-5.9,6.11-3.88,2.74-8.72,3.84-13.13,5.54-2.58.34-5.43,2.59-4.81,5.45.19,1.37,1.42,2.18,2.65,2.57,2.86,1.01,5.61,2.35,8.16,4,1.29,1.05,2.26,2.38.32,3.42-5.84,1.47-17.92-.52-19.39,7.24.66,3.52,3.86,6.41,3.06,10.26-3.02,1.69-6.75,2.65-10.26,2.39-4.78-.09-12.54-4.07-14.84,2.15-.96,1.85.39,5.28-2.57,5.41-3.97-.14-8.09-.34-11.9-1.5-4.24-2.19-8.1-5.06-11.87-7.98-.73-.56-1.68.77-1.06,1.36,2.68,2.13,5.53,4.05,8.4,5.91,3.79,2.18,7.23,5.5,11.74,5.95.64.14,1.3.21,1.96.21,3.22,0,6.46-1.69,7.54-4.88.69-1.47.49-3.28,1.36-4.63.67-.39,1.22-.42,2.08-.41,3.45.4,6.91,1.08,10.17,2.32,2.24.95,4.63,1.91,7.07,1.13,4.61-1.14,6.85-5.76,5.24-10.14-.98-2.59-3.99-4.66-4.13-7.43,1.55-.13,3.18-.1,4.84-.06,4.43.09,8.99.18,12.48-2.89,3.52-2.91,5.2-8.31,1.26-11.63-2.31-2.24-5.83-2.31-8.24-4.21,2.65-3.25,7.02-4.46,10.68-6.28,3.18-1.32,6.79-1.88,9.59-3.97,4.23-3.29,6.46-10.96-.95-11.45-6.36.35-12.24,3.89-18.47,4.6-.1-1.86,2.1-2.61,3.28-3.67,4.01-2.87,8.39-5.19,12.27-8.25,3.09-2.38,5.74-5.24,8.27-8.21,3.17-3.58,6.54-7.25,8.38-11.73,2.51-5.41,2.92-13-2.1-17.1Z"/><path d="M278.92,185.06c-6.21-2.49-12.39,1-18.63,1.7-7.44.5-15.61-2.28-19.91-8.66-1.1-1.24-1.82-3.73-3.92-2.58-2.43,1.35.46,3.59,1.39,5.02,8.21,10.44,16.23,9.34,23.57,8.23,6.37-.96,12.23-1.92,17.27,4.68-1.2,2.07-4.62,1.49-6.73,2.02-2.52.36-5.05.05-7.56-.26-1.85-.22-3.69-.44-5.53-.4-3.96.09-7.01,4.17-3.97,7.48,4.36,6.02,20.95,3.47,18.52,13.83-.72,1.96-1.87,2.04-3.61,1.21-5.42-2.34-9.28-7.56-15.18-8.84-3.57-1.09-7.08.87-6.73,4.87.36,4.05,2.82,7.6,3.46,11.63.23,1.62.75,3.63-.34,5.04-.33-.04-.67-.26-.9-.49-3.82-3.91-6.27-8.9-9.41-13.32-1.43-2.38-3.51-4.28-5.03-6.6-2.2-3.37-3.49-7.13-5.31-10.72-5.12-9.92-17.15-7.73-26.42-9.58-9.29-2.91-24.82-5.54-28.06-16.1-2.61-7.48-3.11-15.63-2.54-23.5.55-4.02,1.12-8.5-.43-12.43-1.73-3.85-6.24-5.24-9.43-7.68-4.62-3.82-10.43-13.52-3.38-17.64,5.05-2.36,12.57-3.14,16.51,1.54,2.12,2.62,2.5,6.08,4.04,8.98,2.98,5.23,8.26,9.15,14.06,10.71,1.91.6,5.76,1.04,5.8-1.84-.04-.46-.5-.89-.92-1.01-1.29-.32-2.6-.51-3.88-.89-1.03-.25-1.96-.59-2.84-.97.97-.84.97-3.04,1.13-4.25.71-4.68-.09-9.38-1.72-13.79-2.53-8.77-4.22-17.85-5.81-26.83.06-5.56,1.17-11.08,1.2-16.67-.13-7.88.34-16.41,4.82-23.19,4.62-7.83,8.87-15.93,13.76-23.61,2.19-3.92,4.99-7.34,8.2-10.48,2.35-1.97,4.43-5.01,7.55-5.66.65-.03,1.35.38,1.89.76,2.21,4.87-.34,9.63-2.76,13.85-1.99,3.88-3.62,7.92-5.32,11.94-1.56,4.85-3.53,9.49-5.35,14.27-.94,2.26-2.69,6.27.29,7.75,1.4.73,2.68-.3,3.73-1.15,4.23-3.3,8.19-9.17,14.05-8.96-.64,4.34-4.69,6.74-7.19,10-3.41,3.77-7.94,10.32-3.57,14.92,2.09,1.65,4.59,1,7.09.35,2.39-.63,4.8-1.25,6.87.16,0,.08,0,.14,0,.22-1.83,3.07-3.32,6.42-5.36,9.42-2.5,4.04-5.58,7.86-6.89,12.49-.89,9.19,7.92,7.53,13.78,5.35h0c-1.58,4.36-5.01,7.53-1.37,12.11.58,1.24,0,3.86,2.03,3.79,2.42-.84.37-5.12-.33-6.72-.5-3.36,1.87-5.91,1.96-9.31-.62-7.84-8.48-5.56-13.7-4.14-1.22-4.03,2.86-7.39,5.28-10.12,2.75-2.77,6.8-4.55,8.64-8.12,2.66-8.97-5.74-8.8-12.42-8.63-1.4.03-2.73.07-3.85.02h0c1.46-5.92,5.52-10.84,7.99-16.39,1.21-2.26,3.73-3.68,4.36-6.22.42-1.96-1.03-3.9-2.98-4.22-6.37-1.15-11.4,8.21-17.4,10.1-.37-2.24,1.13-4.39,1.85-6.44,1.38-2.76,3-5.34,4.86-7.78,3.24-5.43,6.53-10.93,8.28-17.06,1.39-4.38,3.39-8.94,1.5-13.5C227.36,1.05,225.56.05,223.82,0c-2.04.07-3.42,1.82-4.78,3.14-10.23,10.64-22.69,20.39-27.48,34.88-1.79,3.99-2.18,8.42-3.55,12.57-.97,3.68-2.66,7.1-3.46,10.83-2.35,6.38-2.5,13.5-1.32,20.17.4,4.31.05,8.71.97,12.96,1.35,4.93,3.98,9.44,5.67,14.24.95,3.64,1.03,7.21,1.32,10.97.09,2.35-.88,4.59-1.01,6.89h0c0,.12.02.26.04.4-5.86-3.88-8.59-10.81-13-16.53-7.03-9.35-24.36-4.11-24.52,7.79-.21,1.22-.27,2.48-.19,3.74-.18-.07-.37-.11-.6-.08-1.57.36-2.44,1.59-3.83,2.68-1.27,1.13-2.67,2.17-3.7,3.53-1.52,2.21.03,4.45,2.56,4.44.48.02,1.02.05,1.58.05,1.71,0,3.49-.3,3.68-2.28.13-2.32-1.85-1.71-3.41-1.61,1.34-1.3,3.13-2.2,4.18-3.74.86,3.35,2.83,6.36,6.01,7.95,2.5,1.06,4.72,1.51,7.49,2.12,1.83.45,3.95,1.07,4.94,2.87,1.34,2.9.12,6.23-1.05,9.05-1.36,3.6-2.12,7.38-2.38,11.3-.2,5.3,1.56,10.49,4.29,15.04,1.65,2.17,3.74,4.01,5.52,6.12,3.33,3.97,6.86,8.09,11.53,10.5,10.59,4.45,23.09,1.63,33.3,7.29,6.71,3.61,11.02,10.25,13.01,17.47,1.75,6.19,5,12.07,9.59,16.62,1.39,1.39,2.98,1.98,4.51,1.98,3.91,0,7.49-3.87,6.73-8.46-.17-2.09-.9-4.12-1.98-5.91-.87-1.73-7.36-11.71-1.36-9.03,4.66,4.88,12.94,13.82,20.44,10.48,3.05-1.7,5.69-5.72,3.18-8.93-4.03-6.15-12.95-7.18-16.61-13.73,3.05-.97,6.32-.84,9.61-.72,3.56.15,7.14.29,10.49-.97,5.6-2.64,3.93-9.18-1.33-11.02Z"/><path d="M35.16,131.12c-5.77.25-9.56,3.22-5.2,8.63,2.1,2.12,4.87,3.62,7.79,4.19,1.27.19,2.56.12,3.84.07.97-.05,1.94-.1,2.91-.03,5.02.3,10.8-.14,15.17,2.71-2.38,2.12-6.27,5.25-3.58,8.65,2.5,2.43,6.28,2.42,9.55,2.22,3.94-.21,8.17-.33,12.11.57,3.41,1.02-.35,3.54-.71,5.45-.02.85-.07,1.74.48,2.45.34.82,1.32,1.26,2.28,1.26s1.82-.4,2.13-1.24c1.77-1.07,3.21-3.4,4.22-5.19,1.82-4.91-4.73-6.99-8.53-6.52-2.9-.25-5.72.42-8.54,1.04-2.9.77-6.38,1.81-8.85-.5-3.1-3.49,2.5-5.3,3.32-8.23-.64-6.49-16.44-3.79-21.32-5.52-2.77-1-4.98-3.12-7.4-4.74-1.05-.93-4.24-2.48-1.69-3.49,2.22-.58,4.52-.36,6.84-.15,1.33.13,2.67.26,4.01.23,2.1-.19,4.43-.11,6.24-1.33,1.96-1.31,2.11-4.19.19-5.6-2.22-1.83-5.22-1.86-7.96-1.97-7.63-.46-16.53.4-22.92-4.46-5.02-6.02,4.64-6.05,8.49-6.69,2.45-.44,4.99-.16,7.4-.73,1.9-.53,3.5-2.2,3.76-4.18-.16-3.49-3.83-5.21-6.65-6.4-7.33-2.86-15.17-4.22-22.51-7.11-.79-.2-1.91-1.04-2.17-1.89.14-.51.48-1,.92-1.39,2.61-1.41,5.7-.02,8.47.22,4.12.77,9.41,2.1,12.81-1.11,3.9-6.17-11.98-10.01-16.01-11.2-3.79-1.16-7.97-.9-11.49-2.87-.34-.22-.47-.5-.52-.94.03-.48-.02-1.16.42-1.51h.03c8.72-5.04,26.42,1.72,35.59,4.81,6.94,2.58,11.91,8.53,17.69,12.95,3.46,2.87,7.5,5.01,10.83,8.03,4.9,5.72,10.68,10.42,16.8,14.75,7.23,5.13,13.47,12.84,22.73,13.98.94,0,2.24-.62,2.1-1.75-.46-2.28-3.33-1.5-5-2.22-6.89-3-13.76-6.53-18.59-12.5-3.28-3.78-6.05-7.73-10.21-10.73-6.47-3.94-10.54-10.58-16.91-14.67-7.52-4.88-16.25-7.23-23.88-11.92-6.11-3.17-12.87-6.02-19.88-6.41-3.76-.15-12.25.47-13.71,4.54-.46,3.02,1.81,5.49,4.26,6.94,6.53,4.79,15.24,4.32,22.15,8.25-2.53.82-5.34.73-8.14.64-4.25-.14-8.49-.28-11.68,2.81-.5.64-1.1,1.24-1.28,2.06-.21,1.45.79,2.89,1.77,3.87,5.93,4.22,13.83,3.18,20.32,6.09,2.24,1.18,5.1,1.84,6.5,4.12,1.01,1.46-.91,3.03-2.11,3.66-2.5.79-5.12.74-7.73.7-2.14-.04-4.28-.08-6.36.34-6.83.8-4.77,6.86-.66,9.83,4.88,4.11,11.89,3.41,17.89,4.05,12.79.49,13.75,5.01.17,5.08Z"/><path d="M45.85,75.26c1.76,1.3,3.58,2.86,5.89,2.83.94-.06,1.85-.37,2.46-1.12.73-.85.12-1.94-.16-2.85-3.77-6.23-6.94-13.46-5.12-20.89,1.89,1.48,3.27,3.62,5.47,4.69,2.61,1.31,5.93-.07,5.83-3.22-1.33-8.69-3.78-19.35,1.76-27.08,5.9,4.79,5.88,12.85,7.1,19.72,1.11,5.84,3.27,11.52,7.07,16.15,5.02,4.95,7.72,11.67,12.57,16.71,3.38,3.71,7.65,6.58,10.46,10.79,1.87,3.21,3.33,6.78,4.85,10.19.63,1.35.4,3.17,1.45,4.26.45.35,1,.51,1.55.51.9,0,1.79-.44,2.22-1.28.41-.97-.22-1.98-.54-2.89-1.72-5-5.28-8.91-8.38-13.09-3.81-6.51-7.68-12.96-13.39-18.02-3.12-3.29-5.23-7.25-6.81-11.45-2.18-4.63-4.82-8.99-6.97-13.63-1.7-3.45-3.33-6.96-4.62-10.59-1.31-3.8-2.82-7.98-6.09-10.51-4.21-1.24-7.46,3.99-8.14,7.55-1.37,7.54,5.03,14.32,3.44,21.79-.07.05-.14.1-.21.15-2.1-1.66-4.2-3.81-6.9-4.38-5.96-.42-8.16,4.91-7.11,10.05.47,5.93,6.72,8.87,8.35,14.2-2.27-1.95-6.24-4.63-8.63-1.46-.86,1.75.75,3.62,2.61,2.87Z"/><path d="M137.76,95.17c-1.12.04-2.01.75-1.98,1.6.01.3.14.56.34.79,0,0,0,.02,0,.03-.05,1.03,1.06,1.46,1.92,1.46s2.02-.61,2.06-1.6c.01-.31-.09-.56-.25-.77,0-.02,0-.04,0-.06-.03-.84-.97-1.49-2.09-1.45Z"/><path d="M166.33,120.6c-.08,1.12.62,2.09,1.56,2.15.94.07,1.76-.79,1.84-1.91s-.62-2.08-1.56-2.15c-.94-.06-1.76.79-1.84,1.91Z"/><path d="M148.49,110.46h.42c1.99,0,4.94-.42,5.08-2.76-.51-1.95-2.46-3.22-3.78-4.66-1.39-1.13-2.46-2.67-4.02-3.58-.32-.19-.7-.27-1.1-.26,3.03-5.93,2.72-13.54-2.5-18.25-3.07-2.98-7.76-3.48-11.85-3.32-5.61-.09-10.69,3.58-13.3,8.39-1.94,3.92-2.2,8.31-3.2,12.5-1.91,7.45-6.93,14.65-14.83,16.41-.4.16-1.38.31-1.87.58-.84.33-1.08,1.44-.95,2.25.95,4.5,8.41-.28,10.53-1.73,8.37-5.6,7.53-14.53,10.66-22.93,3.99-6.94,17.18-17.5,22.79-6.86,3.85,5.41,3.13,12.77-.73,17.98-1.75,2.62-4.87,3.81-6.99,6.06-3.1,3.74-4.36,8.82-3.73,13.61.69,5.1,3.03,9.78,4.18,14.76,3.06,10.04-2.78,18.81-8.38,26.65-4.21,6.2-11.28,9.25-17.77,12.5-4.66,2.26-9.88,4.6-15.25,4.16-7.5-.71-16.17-3.71-22.65,1.67-5.69,5.13-9.01,12.48-11.29,19.66-1.68,5.25-2.61,10.71-5.29,15.59-1,1.13-2.05,2.78-3.73,2.78-2.46-.7-3.79-3.25-3.58-5.75.04-6.1,2.97-12.7.49-18.58-1.4-2.28-3.97-1.83-5.28.3-2.32,2.96-3.29,6.93-6.38,9.28-3.19,2.6-9.88,3.37-10.78-1.8-.66-4.92,3.01-8.8,6.99-11.09,1.8-1.05,4.01-1.86,5.17-3.67.94-2.36.63-5.15-1.13-7.09-2.94-4.29-10.34-1.14-13.13-5.38-.03-.08-.06-.16-.08-.24-.35-1.36.34-2.81,1.24-3.83,4.6-3.3,10.96-2.16,16.07-.65,13.16,3.98,21.14.04,29.4-10.51.49-.65-.42-1.99-1.05-1.13-1.49,2.48-3.71,4.32-6.03,6.06-4.06,2.19-8.74,2.63-13.28,3.03-3.49.35-6.93-.53-10.34-1.41-4.13-1.06-8.24-2.12-12.39-1-5.42,1.52-7.33,8.33-4.94,13.09,2.24,4.73,7.7,6.11,12.41,7.02.07.08.15.15.22.22.19.94-.78,1.43-1.28,2.09-2.38,2.08-4.99,3.96-7.11,6.32-4.27,4.46-5.79,12.4-1.09,17.08,9.28,6.28,14.65-9.59,20.5-13.99.08,7.75-6.12,19.05,4.16,22.84.53.1,1.03.14,1.53.14,9.59,0,12.04-17.66,14.38-24.87,2.24-6.08,7.57-10.59,13.51-12.92,5.35-1.89,11.21-1.9,16.87-1.64,4.15.32,8.48,1.11,12.54-.2,6.7-1.96,11.99-6.72,17.38-10.93,3.38-2.37,6.61-5.54,8.52-9.28,2.57-5.04,2.32-10.85,2.76-16.35,1.25-8.04-.57-15.93-2.03-23.83-1.75-8.69,5.6-14.55,10.1-20.93,1.77,1.88,3.99,3.44,5.73,5.4-1.12.1-2.26-.08-3.39-.09-1.89-.24-3.23,2.12-.95,2.73,1.24.31,2.56.29,3.83.36Z"/></svg>