<?xml version="1.0" encoding="UTF-8"?><!DOCTYPE svg PUBLIC "-//W3C//DTD SVG 1.0//EN" "http://www.w3.org/TR/2001/REC-SVG-20010904/DTD/svg10.dtd" []><svg xmlns="http://www.w3.org/2000/svg" xmlns:xlink="http://www.w3.org/1999/xlink" height="954" viewBox="0 0 670.633 954.195" width="671"><g filter="none"><path d="M236.664 718.684c9.711-1.772 14.665-7.658 22.8-12.253 1.672-.944 4.473-.98 5.794-2.565 2.78-3.332-1.75-9.44-2.114-13.305l.94-1.414c6.402.366 11.009 3.096 13.495 8.924 1.956-1.248 7.904-1.327 9.096-2.054.38-.232.555-1.363 1.07-1.81.74-.644 1.91-1.098 2.35-1.723.41-.58.244-10.812-.084-11.921-.145-.49-1.14-.614-1.638-1.673-1.1-2.343-.856-4.974-2.556-7.129l.7-1.96c3.429 1.013 6.702 7.369 6.804 10.609.05 1.587-1.48 3.261.344 4.134a121 121 0 0 1 23.092-1.91c2.346.032 4.313 1.675 6.386-.648 1.49-1.668.324-2.916.308-4.761-.044-4.714-1.833-11.539-4.559-16.66-1.78-3.347-6.615-8.089-10.34-9.014-1.43-.355-2.617.435-3.688-.054-.178-.081-2.928-2.31-3.051-2.462-2.878-3.566 2.752-17.638 6.64-19.67 2.819-1.472 8.296.28 9.616 3.171-.066.824-3.371 6.546-3.906 7.037-1.04.953-6.87 2.024-6.109 4.814.31 1.133 2.83.852 3.834 1.314 4.584 2.104 5.055 5.979 6.832 9.248 1.754 3.229 4.866 6.887 6.37 10.351 2.322 5.344 2.958 11.487 4.483 16.743.579 1.996 3.768 4.243 1.316 6.424-2.329 2.071-6.16-.212-8.436-.59-7.41-1.23-13.08-1.342-20.362.077-1.39.271-2.738 1.663-4.29 1.845l.97 7.021-11.932 8.034c5.11 5.956 8.677 14.346 8.995 22.19 4.419-1.325 8.473-3.766 12.975-5.35 7.462-2.625 24.302-8.142 31.729-8.789 5.952-.518 13.125 2.76 11.85-6.078-.374-2.599-3.832-9.343-3.828-11.009.004-1.607 1.69-1.713 2.909-1.637 4.569.286 2.163 5.821 2.29 8.64.188 4.16 2.817 7.256 3.337 11.2 1.175 2.22 8.124 5.775 8.687 6.758.355.62-.075 1.625.301 2.243.236.386 1.395.397 1.68 1.204.232.661.276 4.912.034 5.33-3.444 1.447-6.584-1.923-8.635-4.425-.977-1.194-4.474-6.421-5.08-7.785-.453-1.018-.3-2.153-.668-3.188l-.752-.58c-5.54.317-11.062 1.278-16.455 2.716-6.645 1.772-14.553 4.321-21.216 6.438-5.777 1.836-11.44 4.083-17.216 5.938-3.14 2.371-1.55 5.006-.276 7.958.288.668 1.31 1.155 1.485 1.806.359 1.333-1.235 2.054-1.231 3.084.003 1.224 2.617 2.494.377 4.232-2.574 1.997-4.914-1.606-6.148-3.598-3.013-4.864-3.096-7.528-9.141-10.17-.919-.4-2.017-.235-2.953-.563-1.237-1.74-.405-4.09-.911-5.847-.117-.405-1.964-3.518-3.081-3.025 1.875 3.012.623 7.281 1.268 9.838.186.739 1.87.851 1.929 1.404.189 1.777-4.929 6.091-5.022 6.496-.134.585.576 1.625.477 2.454-.694 5.787-2.967 7.185-8.306 4.88.533-1.356 1.051-2.778 1.22-4.243.944-8.226 2.95-16.584 3.309-25.047.106-2.522-1.182-3.255-1.244-4.432-.104-1.982 1.24-4.829-.07-7.438-6.076.181-9.073 2.364-13.504 6.109-2.291 1.936-2.225 4.424-5.781 3.546.583 2.371 4.135 2.41 6.1 4.502 2.695 2.872.727 3.388 1 6.02.178 1.716 1.202 3.215 1.105 5.075-.179 3.401-5.148 13.305-7.53 15.63-3.307 3.226-6.799 4.168-10.968 5.755-1.285.489-2.45 1.932-3.67 2.13-2.791.455-7.027-.768-9.832-1.163-.7 2.07 1.074 2.808 1.548 3.913 1.79 4.173 1.485 2.655 3.61 5.393 4.792 6.174 4.598 13.817 6.606 21.695.824 3.231 1.614 6.96 2.591 10.273.432 1.46 2.037 3.422 2.225 4.858.147 1.12-1.638 6.627-2.028 8.73-2.898 15.595-17.85 37.42-34.633 41.209-3.79.855-8.906 1.213-12.592-.043-5.709-1.946-8.2-6.612-8.925-12.288-.991-7.762-.25-31.903 3.378-38.67.86-1.604 3.567-4.327 4.781-6.153.747-1.123.599-2.49 1.538-3.607 1.917-2.284 5.932-1.856 7.313-2.66.755-.439 2.603-4.065 5.268-4.718.971-.238 1.85.372 2.768.232.785-.12 1.489-.92 2.218-1.028 2.874-.424 7.38 2.056 7.333 5.35-.015 1.075-2.41 8.015-2.97 8.02-1.144.01-.065-3.831-1.989-5.723-6.569-6.456-10.434 4.85-16.292 5.138-.06 5.06-4.333 10.193-5.443 14.875-.492 2.072-.118 5.515-.478 7.831-.955 6.145-3.425 16.62-3.06 22.633.066 1.083 1.937 4.48 1.819 6.272.218.38 2.734 1.932 3.228 2.075 3.791 1.103 10.655-.301 14.175-1.954 4.854-2.278 6.082-4.171 9.322-7.402 1.562-1.558 5.069-3.024 6.149-4.14 1.207-1.246.996-3.147 1.872-4.559.899-1.448 3.293-2.455 4.553-3.808 3.869-4.15 4.006-6.36 5.037-11.686 1.843-9.523 2.227-22.097-2.029-31.26-1.934-4.164-4.698-3.895-7.253-6.254-3.81-3.516-5.462-9.274 1.646-8.4.787-2.271-.943-2.425-1.23-3.077-1.418-3.226-2.98-7.684-4.674-10.635-2.432-4.233-6.82-7.94-8.82-12.405-4.443-9.922-8.882-26.5-5.696-37.068.284-.943 1.414-1.397 1.643-2.239.18-.66-.505-1.548-.174-2.14.114-.204 2.483-3.19 2.823-3.55 1.994-2.113 5.522-2.925 6.518-5.385l3.172 1.245c-1.013-3.466-5.342-4.404-5.108-8.627.066-1.186 1.29-2.799.93-3.612-.235-.53-4.31-4.354-4.996-4.649-2.472-1.061-9.895.372-12.364 2.1-10.84 7.584-20.868 28.313-24.232 40.728-2.346 8.658-2.74 17.746-6.018 26.14-1.868 11.288-5.778 22.128-7.69 33.476-2.963 4.28-9.059.619-11.638 3.194-1.19 1.188-.308 2.086-.632 2.602-1.903 3.028-5.17 5.759-7.712 8.308-1.558 1.563-.956 3.455-4.636 4.368-10.653 2.643-29.84 2.376-39.3-4.085-2.437-1.664-5.674-6.185-7.436-8.67-2.646-3.733-5-8.489-7.358-12.684-5.601-9.968-13.526-17.78-17.759-29.705-2.24-6.312-2.639-14.484-4.361-20.723-.454-1.644-2.137-3.863-2.698-5.664-3.142-10.073-1.996-26.585 4.795-35.045.477-.595 3.514-2.67 3.679-3.063.81-1.938.454-4.539 3.417-5.925 4.84-2.266 6.506 7.328 14.03 5.028 4.03-1.23 1.536-2.967 2.107-3.964.322-.562 9.603-5.419 11.2-6.525 10.115-7.007 15.112-21.773 18.027-33.424.215-.86.77-2.708-.089-3.323-2.71-1.942-5.06.8-7.347 1.673-3.91 1.493-8.207 3.674-11.824 4.945-1.27.447-3.353.05-3.63.224-.488.307-.677 1.475-1.307 1.868-3.275 2.045-7.405 3.72-10.592 6.145-1.856 2.906 7.784 8.481 7.984 10.723.312 3.483-8.437.47-10.303-.652-2.271-1.368-2.944-3.35-4.237-4.296-1.043-.763-5.444-1.965-5.916-2.632l.597-3.131c-1.794-.209-1.627 1.705-3.036 2.425-2.17 1.108-5.26.427-7.441.919-2.705.609-8.55 4.394-11.905 5.46-5.973 1.894-11.183 1.66-17.267.238-3.255 1.791-13.14-4.108-14.737-1.351.5 2.007 1.246 4.487 2.064 6.367 2.732 6.272 13.525 19.981 19.578 22.87 3.535 1.689 14.849 1.849 14.729 6.502-.032 1.229-1.738 2.044-2.383 3.373-1.659 3.419-.982 7.636-1.73 10.473-.398 1.511-2.083 1.662-2.542 2.715-.542 1.247.08 2.477-.196 3.566-.842 3.314-3.617 2.348-6.144 2.863-.793.162-1.392 1.146-2.737 1.171-2.083.039-9.449-3.297-11.595-3.254-1.152.022-2.093 1.557-3.363 1.813-2.271.458-5.708-1.159-8.173 1.411-2.453 2.557.349 5.975-4.721 7.177.687 7.61-.378 15.85 2.102 23.051l1.24.586c4.721-.916 7.712.726 11.928-2.891 4.338-3.723 2.98-10.492 1.005-15.1-.668-1.557-2.975-2.783-1.945-4.486 3.08 2.881 6.12 6.315 6.701 10.664.846 6.328-.985 12.472-6.87 15.533-4.347 2.261-8.65 2.226-12.964-.2-6.58-3.7-6.077-13.334-5.124-19.824.262-1.788 1.506-2.29 1.245-5.215-.26-2.902-4.318-7.15-2.91-9.32.235-.362 1.116-.464 1.378-.859 4.171-6.293 4.528-3.967 9.837-6.565.937-.459 1.268-1.728 2.373-2.034 1.117-.309 6.807-.258 8.115-.037 2.824.477 9.555 4.94 11.65 4.296l6.471-8.992.39-4.697c-.242-1.014-2.701-.44-3.681-.885-9.582-4.35-26.226-23.89-27.082-34.728-.146-1.836 1.13-3.199.174-5.309-.67-1.478-9.109-5.043-11.243-5.808 2.508-1.808-1.845-3.84 1.61-4.488 5.419-1.017 15.933 4.463 22.015 5.63 11.184 2.144 14.805.715 25.085-2.273.754-.219 1.773.46 2.761.218 2.395-.588 4.669-4.63 7.694-4.23 1.107-1.198-5.221-3.362-6.214-4.069-.552-.392-.784-1.522-1.443-2.095-.974-.847-2.057-.526-2.845-1.704-1.166-1.741-2.876-9.374-3.477-11.914-5.205-22.026-3.441-41.873-1.446-64.14.691-7.712 1.75-15.323 1.952-23.134.07-2.725-.786-5.807-.716-7.784.053-1.486 1.257-2.224 1.303-3.178.053-1.075-3.624-5.963-4.344-7.856-3.136-8.246-1.012-16.575 1.342-24.763.377-1.31 2.052-3.15 2.186-4.152.121-.904-.638-1.898-.368-2.977.495-1.975 4.273-1.9 4.462-4.006.136-1.524-1.327-2.55-1.2-4.312.042-.585.735-5.426.861-5.688.643-1.334 2.693-.322 2.284-3.495-.286-2.228-2.897-2.961-3.253-5.428 3.193-.44 3.594-7.619 5.767-8.774 3.173-.765 3.396 2.77 4.49 3.927 2.985 3.16 7.075 3.216 9.217 6.257.959 1.362 2.478 4.275 3.137 5.828 2.189 5.153 2.594 10.44 4.19 15.749 2.896 9.632 8.752 18.031 7.298 28.781-.29 2.149-3.997 8.848-5.844 9.647-.793.343-1.84-.434-1.902-.359-.143.178.345 1.468-.379 2.003-1.646 1.217-6.65.043-8.873 1.272-.817-.122-1.37-5.095-3.609-4.55.484 2.556-1.917 6.693-1.876 8.695.044 2.178 2.582 7.43 2.882 9.935.11.92-.022 1.694-.451 2.51-2.568 1.584-10.099-4.247-10.1-6.633 0-2.585 1.588-3.703-.555-6.631-1.666-2.275-2.226 1.047-2.104 2.656.132 1.747 1.463 3.246 1.757 4.728.773 3.894-.92 7.161-1.122 10.797-.553 9.93-1.278 19.756-1.93 29.588-.966 14.614-.112 23.145 1.942 37.33.153 1.05-.63 2.207-.49 3.092.264 1.69 3.739 6.355 5.294 7.483 2.67 1.936 5.973 1.741 7.388 4.838.435.599 1.097-.354 1.204-.737.663-2.373-.821-8.617-.545-12.128.439-5.588 1.922-11.979 2.568-18.013 1.78-16.624 2.824-33.401 4.255-50.284.247-2.912-1.493-5.521 2.483-7.77.424-.031 2.018.995 2.31 1.399.976 1.35.592 11.503.415 14.178-.436 6.576-1.839 11.212-1.14 17.419.63 5.618-1.315 11.888-1.663 17.435-.85 13.552-1.796 27.05-2.62 40.603-.117 1.931.673 5.247.471 6.855-.209 1.662-2.12 1.898-1.941 3.572 2.692-1.362 6.927.045 9.218-.744.863-.298 1.97-2.896 3.915-3.803 8.334-3.883 23.36-12.8 32.81-11.494.536.074 5.285 1.387 5.524 1.546 1.672 1.116-.122 3.066-.282 4.154-2.225 15.1-5.198 24.75-14.145 36.78-2.566 3.45-8.067 7.833-12.125 9.743-3.892 1.831-2.087.153-5.624 3.379-1.673 1.525-3.55 1.987-3.947 4.724-1.804 1.148-5.161-3.3-7.903-3.114-.476.033-4.633 1.8-4.77 2.02-1.676 2.662 5.599 9.146 7.904 8.943 1.245-.11 7.29-6.314 10.171-7.257 4.584-1.502 6.623-.097 10.116 2.41.324 1.18-3.742 2.309-1.93 3.84 2.46 1.99 5.801 1.105 8.34 1.964 1.004.339 4.67 3.196 5.529 4.117 3.027 3.247 8.831 14.751 10.82 19.41 3.588 8.402 4.427 12.815 4.843 21.465.307 6.384 2.846 11.197-3.205 16.043-7.264 5.818-21.789 12.925-30.958 9.183-3.606-1.473-11.927-9.702-13.18-13.192-3.601-10.022-8.32-37.412-5.957-47.383.385-1.627 1.883-2.218 2.295-3.54 1.238-3.972-7.226-8.902-8.428-12.869-.81 1.186-3.355 2.753-3.843 3.863-1.547 3.519-1.425 15.512-.83 19.45.675 4.46 3.848 9.745 5.2 14.096 1.855 5.964 2.958 12.635 5.275 18.524 3.894 9.895 10.043 18.072 15.35 27.1 5.1 8.676 8.532 19.365 19.218 23.23 2.981 1.078 6.533.222 9.157 3.058 1.268-3.299 5.19-1.6 8.345-1.926 6.158-.637 13.4-5.022 14.476-11.566-2.062-.545-4.32.659-6.108.64-5.813-.062-15.784-2.734-21.074-5.294-1.49-.72-3.441-3.066-4.947-3.431-1.995-.484-6.25 1.28-9.29.96-2.124-.223-5.77-1.294-5.887-3.814.549-.793 1.127-1 2.015-1.24 4.377-1.186 8.118-2.29 12.63-1.146 6.31 1.598 13.783 7.19 20.908 8.677 3.759.784 7.678-.717 11.107.142-.455-3.482 3.378-9.83-1.326-10.65l.331-9.322c1.178-1.72 4.947.645 6.305 1.347.674.348 2.395 1.243 3.025 1.619.563.335.587 1.387 1.465 1.79 4.148 1.907 5.15-3.677 8.232-5.198 4.37-9.13 4.982-20.287 7.863-29.912.6-2.004 2.192-4.394 2.877-6.771 2.002-6.947 1.515-10.786 4.947-17.565 5.381-10.632 10.13-19.703 19.342-27.609 1.009-.866 7.301-6.08 7.81-6.383 1.542-.915 6.873-.178 8.438-1.481.76-.632 1.733-9.76 6.933-6.955.315 4.027.516 8.71 4.437 10.993 2.98 1.735 6.494-1.245 9.633.534l.375 2.652c1.805.356 1.218-.642 1.3-1.91 6.974 1.014 11.124 5.024 17.67-.022 4.297-3.314 9.645-12.617 15.959-8.403 1.07.713 1.296 3.185.985 4.452l-9.716 5.22c-4.305 4.137-7.675 6.669-10.857 11.827-1.623 2.632-3.446 1.668-1.197 5.55-6.032 1.072-10.074 7.464-16.26 3.7-1.798-1.093-1.318-3.075-4.97-2.132-6.01 1.552-10.219 10.277-10.036 16.02.268 8.456 2.69 23.358 7.267 30.486.672 1.048 1.644 1.251 2.46 2.1 1.32-5.054 2.157-9.933 2.95-15.051.12-.782 1.003-1.618.988-1.997-.019-.49-1.092-1.11-.99-1.835.069-.486 2.593-2.62 3.287-3.818.76-1.309 2.151-4.678 2.764-6.241.61-1.557.33-3.543 1.322-5.11 2.48-3.916 9.923-1.216 7.693 3.201-.401.796-1.675.954-2.061 1.463-1.58 2.083-1.106 3.5-1.487 5.593-.487.089-1.33.274-1.62.612-1.277 1.482 1.066 2.43 1.62-.612M55.114 521.04c2.618-2.239 2.339-5.86 7.639-3.722 3.538 1.427 3.688 3.828 9.113 1.49.95-.41 3.302-3.756 3.661-4.7 3.406-8.958-5.694-28.918-8.967-37.91-.822-2.26-.569-7.692-3.857-8.363-3.759-.768-2.98.72-4.217 1.54-1.2.795-2.647 1.11-3.466 2.354-1.256 1.91-.625 4.884-1.1 5.655-.264.428-2.675.436-2.987 1.773-.114.492.438 1.468.33 2.32-.664 5.276-2.473 8.172-3.506 12.57-.862 3.674-.308 17.73.62 21.562.6 2.483 3.871 7.883 6.737 5.431m8.875 119.173v.643q.626-.32 0-.643m166.72 46.148c2.336-2.305-2.255-6.713-4.938-6.626l-5.765 4.64c-.606 2.028 3.077 4.375 4.195 5.962.375.067 6.221-3.693 6.508-3.976m-137.055 9.578c.496-.625 2.282-2.637.548-2.985-2.612-.524-7.895 4.282-8.83 6.595-3.93 9.727-4.008 20.574-3.046 31.026.59 6.418 3.034 21.887 8.066 26.022.277.228 6.133 3.015 6.487 3.073 2.668.44 8.175-1.293 10.763-2.472 5.519-2.513 11.58-7.266 12.023-13.759.47-6.863-3.002-21.714-6.157-27.97-1.487-2.949-3.95-5.06-5.387-7.477-.693-1.167-.582-2.967-1.308-3.838-.573-.689-4.19-1.601-4.83-1.444-1.053.258-1.597 4.596-6.409 1.107-.923-.67-3.477-5.137-3.524-6.175-.055-1.241 1.12-1.096 1.604-1.703M285.99 706.01c-.767-1.092-5.218-4.702-6.6-2.785-.706.98 2.737 14.352 3.552 16.45 1.27 3.27 2.975 7.437 7.097 7.374-.386-2.113 1.518-3.347 1.304-5.407-.153-1.47-1.612-2.831-2.15-4.36-.74-2.097-2.5-10.273-3.203-11.272m-51.715 16.724c-2.913 2.238-2.483 9.315-3.44 12.952-1.376 5.234-6.707 8.88-.64 12.94 2.34 1.566 6.396.428 8.852-.867 3.872-2.043 10.348-7.85 12.825-11.615 4.475-6.804 4.574-16.83-5.792-16.11-1.57.109-10.96 2.05-11.805 2.7m-22.052 8.176h-1.28v.63h1.28zm-56.27 34.097c-.966.025-3.383 7.67-.634 8.346 2.756.677 1.938-8.38.635-8.346m-3.215 2.56v.643q.627-.323 0-.644M394.874 200.904c.756-1.994-1.647-2.153-1.88-2.965-.318-1.11 1.233-2.5-.103-4.368-.346-.483-5.007-2.703-5.578-2.818-.458-.093-8.414.488-9.335.654-2.144.388-3.491 2.078-5.591 2.452-.372.507 1.198 3.983 1.623 4.432.894.945 2.367.687 3.155 1.991 1.575 2.608 1.03 9.505 3.538 13.012.662.928 4.426 2.988 4.547 3.501.81 3.47-2.122 7.949-1.974 11.415.077 1.818 2.759 10.33 4.773 9.968 2.37-.424 4.75-9.08 4.7-11.367-.033-1.511-1.161-2.05-1.553-3.262-.433-1.342-.267-2.925-.954-4.212-.7-1.31-6.656-5.96-1.986-7.374 5.618-1.701 11.108 6.347 11.706 11.185.244 1.975-.33 3.52-.277 5.116.037 1.11.893 2.067.895 3.194.002 1.367-1.899 6.165-2.789 7.423-.653.924-5.88 5.024-6.788 5.432-1.128.508-2.329.158-3.388.471-2.948.872-2.053 9.104-2.442 11.708-1.461 9.8-10.52 15.123-15.666 22.924-.562.851-4.152 7.528-4.19 7.977-.232 2.705 4.216 3.44 6.405 3.562-1.627 8.873 4.383 16.687 13.537 17.028l-.038 2.264c6.203.828 6.698-1.217 7.065-6.758.28-4.237-1.614-8.585-1.263-11.51.308-2.567 3.222-7.038 3.593-10.665.17-1.671-.527-2.824-.393-4.134.123-1.195 1.187-2.102 1.272-3.3.415-5.875-3.65-9.476-4.341-14.286-.605-4.204 1.652-7.446 5.353-4.044 3.48 3.2 9.75 13.841 10.427 18.511 1.159 8.005-5.894 21.107-4.958 27.466.195 1.321 1.143 2.314 1.29 3.895.708 7.545-5.68 8.24-10.252 11.682.299 5.35 3.45 8.52 3.773 14.057.33 5.656-1.523 12.418-4.855 16.994-1.024 1.407-6.322 5.738-6.067 6.78.697.858 1.842 1.132 2.57 1.95 11.887 13.364 9.25 23.257 13.687 39.056 2.957 10.53 8.671 20.983 10.689 31.76 3.549 18.963 6.822 37.902 8.433 57.225.235 2.814 1.106 6.359 1.176 8.294.04 1.089-.63 6.29-1.026 7.248-1.186 2.87-2.383 1.35-3.605 1.641-1.971.47-3.93 7.871-5.89 9.461-4.716-2.142-.195-3.808.993-5.447 1.189-1.64 3.132-4.994 4.087-6.85.436-.85 2.345-4.785 2.327-5.309-.077-2.248-2.274-3.929-2.555-5.915-.286-2.025.658-3.476.59-5.055-.054-1.269-1.023-2.564-1.2-3.952-3.134-24.718-7.45-49.623-14.492-73.624-.991-3.38-3.688-8.091-4.694-12.028-2.427-9.493-2.915-18.72-6.917-27.816-.7-1.593-5.16-9.047-6.132-9.947-3.613-3.347-8.073-1.851-11.812-8.126-3.877-6.507-6.287-22.907-5.98-30.481.102-2.532 1.115-6.093 1.102-8.378-.012-1.92-1.385-3.981-1.261-5.757.12-1.732 2.197-3.891 2.344-5.837-.254-2.316-6.678-2.005-8.14-3.216-1.661-1.374-1.812-7.098-.335-8.71l2.887.04c.464-2.082-.626-1.747-1.753-2.841l.474-2.303 2.565.642-1.917-2.558c1.836-.121 2.066-3.194 3.215-4.83 3.35-4.769 8.171-9.66 11.746-14.463.551-.741.599-.989.463-1.942-2.361-.596-4.617 1.337-6.693 1.25-1.945-.083-3.56-2.038-5.055-1.817-.41.061-3.97 2.161-4.554 2.589-1.042.764-1.307 2.017-1.987 2.515-1.057.774-2.833.503-3.641 1.504-.984 1.22-.64 4.813-1.919 6.443-1.407 1.793-3.481 1.432-4.892 5.397-2.144 6.024 1.05 8.33 2.22 13.467.736 3.223.102 6.185.342 8.77.135 1.465 1.647 3.571 1.413 5.87-.56 5.5-4.764 6.795-4.153 14.746.604 7.867 1.243 10.812.752 19.34-.062 1.078.65 2.398.562 3.85-.19 3.186-4.086 6.572-5.058 3.09-.17-9.233-.679-18.218-4.96-26.553-.545 1.515-2.004 1.923-2.805 2.98-1.954 2.577-4.12 7.515-6.557 9.52-3.745 3.08-6.32 2.272-10.442 2.428-.693.026-1.337.944-2.446.858-.437-.034-6.003-2.174-6.217-2.43-.59-.708-.331-2.785-.953-3.552-1.226-1.513-6.332-4.179-8.48-7.275-2.652-3.824-5.456-14.286-4.84-18.908.128-.956 1.286-1.738 1.155-2.471-.104-.577-1.172-1.205-1.202-2.07-.042-1.228 1.811-1.723 1.903-3.15.113-1.749-1.516-3.963-.968-6.164.26-1.042 3.58-8.36 4.215-9.344 2.846-4.417 9.612-3.592 9.661-10.18.68-1.256 2.73.126 3.092 1.329 1.19 3.965-2.16 4.447-3.584 7.087-1.944 3.605-1.9 6.801-2.842 10.02-.25.852-1.427 1.29-1.545 2.025-1.257 7.883 1.054 23.625 3.347 31.272.528 1.763 1.335 5.089 3.293 5.632 4.74 1.315 7.494-3.502 10.122-6.357 7.298-7.927 7.962-17.173 6.949-28.13-.08-.872.48-1.97.377-2.342-.281-1.016-3.553-.83-3.18-3.56-2.75.648-10.32-.728-10.864-3.578-.113-.592-.572-5.42-.515-5.7.155-.756 1.412-1.246 1.69-2.158.29-.95-.383-2.076-.1-3.245 1.193-4.95 2.903-5.952 6.633-8.29.465-.292.489-1.39 1.085-1.536 1.127-.276 2.34.557 3.24.514.893-.043 1.389-.973 2.136-.842 3.36.585 2.026 4.424 2.811 5.56.535.775 2.272.429 2.954.902 2.515 1.744-2.128 11.036-6.105 9.343l-.335 1.275c.518.086 1.265.24 1.598.63 3.486 4.08 8.085 20.54 8.61 26.154.339 3.636-.498 7.04.084 10.533 7.556-3.815 3.983-14.622 2.504-21.485-1.12-5.196-4.27-12.498-3.262-17.541.187-.933 1.122-1.996 1.14-2.476.043-1.053-1.964-4.827-2.135-5.896-.669-4.19 6.844-10.675 11.047-9.838.864.172 2.47 1.774 2.915 1.275.702-.786-.324-2.085-1.281-2.245 1.509-1.137 7.466-10.945 8.118-11.174 5.738-2.017 7.077 2.698 10.076 3.951 2.052.858 5.023-3.786 5.317-5.304.222-1.148-.454-2.03-.345-2.883.128-.998 1.205-1.656 1.155-2.492-.165-2.755-6.072-7.446-3.888-12.468 2.206-5.074 8.446-1.004 9.12-1.492 3.591-6.388-3.123-7.949-5.034-11.318-1.944-3.427-1.456-10.043-7.152-9.883-.227 2.958-4.288 4.18-5.846 7.362-.996 2.032.049 5.319-4.446 1.314 3.88-1.725 1.396-6.162 2.067-8.836.419-1.668 5.483-6.578 2.655-7.461-4.328-1.352-4.962 1.647-7.134 3.126-6.942 4.727-7.834 5.356-12.488 12.454-.531.81-1.482.772-1.942 1.939-.495 1.254-.968 5.223-.246 6.223 1.176.87 2.697.518 4.052 1.09 2.927 1.238 2.681 3.287 5.892.401.974-.875 1.496-2.563 2.67-3.133 1.919-.933 2.91.875 2.61-2.829l3.787-.716c.757.683-3.204 4.722-3.708 5.61-.637 1.125-.787 3.51-1.371 4.293-.533.713-1.608.218-1.96.423-.242.141 1.313 3.241-2.985 3.802-4.727.616-3.632-2.905-5.19-3.894-1.837-1.167-6.326-.06-8.301-2.517.857-4.85-1.525-8.437 2.366-12.471.935-.97 2.835-1.68 3.588-2.521 6.347-7.09 7.515-9.778 17.13-14.068 7.043-3.143 22.03-4.97 29.678-4.345 1.686.138 5.783 1.04 7.233 1.745 6.399 3.109-.572 12.844-2.388 11.074m-71.396 75.9 1.287-4.503-2.481 2.368zm48.89 33.446c-.138 3.928-1.182 8.697-1.16 12.54.04 6.369 3.852 19.727 8.896 23.776 7.354 5.902 14.06-9.438 13.446-15.343-.158-1.517-3.69-12.443-4.474-12.927-3.21-.99-10.189-2.143-12.808-3.913-1.136-.768-2.086-3.616-3.9-4.133"/><path d="M411.824 576.295c11.685 9.673 20.323 24.527 30.88 35.39 5.087 5.235 5.186 4.322 11.497 6.173 3.715 1.09 7.519 4.364 10.14 7.226 2.017 2.204 3.606 8.41 4.502.348 5.925 1.673 9.177-1.219 12.726-5.571 8.183-10.032 3.543-18.878-5.023-26.595 3.294-.545 12.37 8.558 13.211 10.9.883 2.457.757 12.482.266 15.115-.657 3.522-3.168 3.967-4.776 5.514-.27.26-3.58 5.722-3.584 6.074 2.402 1.804 4.861 5.077 6.48 7.715 3.021 4.927 4.8 10.687 7.234 15.92 1.349 2.902 4.882 5.61.054 8.776-6.916 4.537-7.875-5.21-14.38-3.767.589 2.32 2.171 4.56.964 7.068-2.597-1.49-1.72-5.527-2.836-7.297-.54-.857-1.872-.597-2.478-1.209-.46-.465-.442-1.514-.882-2.02-4.598-5.287-12.852-11.945-15.504-17.949-.389-.88-.392-2.776-.575-2.955-.158-.155-1.905-.158-2.854-.673-6.555-3.556-5.442-8.473-8.354-11.593-.729-.782-1.95-.774-2.877-1.625-1.856-1.704-2.485-5.17-5.096-7.124-1.828-1.367-4.74-1.784-6.26-3.07-1.683-1.426-9.029-12.344-11.038-15.006-9.436-12.503-13.368-23.35-30.609-25.341-1.055-.122-1.927-1.015-2.701-1.09-.963-.095-10.406 3.856-11.835 4.622-8.963 4.811-14.549 17.458-15.384 27.123-.13 1.507.206 2.22.98 3.435 2.282 3.585 8.816 7.697 11.03 11.475 4.051 6.917 5.033 17.982 10.48 24.31l-1.88 10.23c-1.878 1.767-3.376.497-4.914.396-.308-.02-.207 1.102-.7 1.212-1.027.228-6.225.6-7.621.635-2.61.065-4.854-.024-7.39-.637-.01-2.742 3.658-2.084 5.298-2.735 3.159-1.255 5.027-7.91 5.024-11.09-.002-2.113-1.174-7.685-2.105-9.506-.598-1.17-2.02-1.332-2.605-2.541-1.188-2.462-2.524-9.418-3.359-10.807-.336-.559-1.605-.59-2.092-1.668-.437-.966.995-5.403-2.744-3.143-1.509.912-4.425 10.345-9.846 6.807-3.653-2.383 1.955-3.694 2.13-3.945.202-.292-.578-1.444-.449-2.11.491-2.54 4.058-9.876-1.135-10.396-4.633-.465-8.04 2.128-13.386.19-5.279-1.915-3.942-4.984-6.55-6.957-1.14-.862-3.018-1.162-4.368-1.896-.522-.284-.626-1.326-1.563-1.792-3.033-1.509-8.762.521-12.09 1.135-2.328 3.327-2.593 7.39-4.343 11.094-.517 1.093-2.767 2.301-1.137 3.386l2.613.037 18.856-4.825.754.573c-.412 2.114 3.347 7.875 4.803 8.696 2.95 1.665 7.729-1.038 10.272 1.297-2.592 3.27-5.984 3.925-9.98 3.587-.29-.036-2.91-2.378-3.334-2.806-1.576-1.595-1.025-1.454-3.392-3.354-1.774-1.425-.734-3.169-4.692-2.115-1.294.344-2.058 1.524-3.376 1.767-2.824.522-6.85-.678-9.567 1.365-2.64 1.986-3.725 15.57-9.422 16.392.009 1.242.184 2.513-.023 3.75-.333 1.992-3.095 8.143-4.162 9.988-1.092 1.891-5.223 5.294-4.522 7.788.317 1.125 1.649 1.808 2 2.583 1.236 2.725-3.553 13.16-8.822 10.241-.404-.223-6.087-6.332-6.261-6.775-.503-1.276 2.335-1.503 2.99-2.403 1.58-2.169 5.25-9.8 6.309-12.662 1.914-5.17-1.494-6.284-.882-8.55.808-2.985 5.498-2.987 6.916-4.715.736-.897 5.385-12.097 5.213-12.767-3.316-2.247-9.945-.76-13.542-1.919-6.403-2.062-13.037-12.453-13.158-18.95-.038-2.026.395-4.52.338-7.467-.063-3.345.811-9.127-1.28-11.58-.571-.67-4.923-2.976-4.51-3.52 3.97-2.458 10.752.254 14.455 2.578 1.476.927 4.61 3.856 5.676 5.296 4.603 6.218 4.612 17.403 15.247 13.014-.211-5.744-6.373-8.512-6.986-11.055-.261-1.086.816-3.88 1.823-4.39 2.478-1.257 7.576 1.998 9.648 3.552 1.136-5.215 2.96-8.076 8.679-7.706 1.216.079 6.643.953 7.56 1.289.833.304.764 1.49 1.417 1.929 4.162 2.792 7.205 3.937 10.267 8.407 3.276 4.781-.328 6.587 1.327 11.544 3.811 2.716 6.988-1.155 10.593 1.235.65-2.41 5.171-4.288 6.139-6.431.886-1.965-.91-4.704-.835-5.32.236-1.967 2.888-3.338 4.828-2.554 4.223 1.705 4.032 4.233 3.408 8.22l1.277.318c1.49-2.57 2.728-6.44 4.515-8.677 2.21-2.765 11.424-10.53 14.612-11.758 12.583-4.847 20.84-1.42 30.638 6.692m-81.906 11.824c.633.243 1.888-.537 1.912-.966.02-.366-2.682-6.44-2.912-6.724-.43-.533-7.449-3.715-8.37-3.856-6.106-.93-9.143 3.054-11.112 8.138 1.905 4.81 6.599 1.838 9.97 1.708 3.358-.13 7.888 2.002 10.504-.239zm-37.077 8.774c-2.41-2.521-6.843-6.092-8.22-8.824-.512-1.019-.263-2.262-.975-3.527-.43-.766-3.677-3.744-4.533-2.857-.534 3.342 1.693 6.028 1.332 9.344-.223 2.056-1.998 2.726-1.898 3.728.041.412 3.006 6.919 3.431 7.533 3.51 5.069 16.143 7.594 15.01-.181-.482-3.31-2.47-3.46-4.147-5.216m64.085 6.651-1.28-1.28-.002 1.283zm10.93 10.938c.583-.606-1.383-2.988-2.566-2.567-.582.606 1.384 2.988 2.566 2.567m93.058 11.774c-.914-.954-3.023-2.08-4.057-3.259l-6.036.5c2.502 3.641 6.101 5.227 9.606 7.431 1.209.76 1.796 2.552 3.567 2.209l.887-1.514c-.233-1.73-1.875-1.868-2.799-2.994-.544-.663-.603-1.784-1.168-2.373m11.155 11.358-1.067-3.148-4.102 1.576c-.224 1.024 1.316 1.451 1.633 2.565.3 1.052-.575 3.632-.212 4.959.954 3.479 6.527 9.004 9.556 11.075 1.723 1.178 10.678 5.702 12.174 4.222l-3.38-13.018c-3.584-3.515-2.685-7.291-8.559-8.163-1.97-.293-4.064.142-6.043-.068m-7.106 3.24v-1.28h-.63v1.28zm2.579.652-1.283-.003.003 1.283z"/><path d="M410.059 621.813c1.647 1.263 9.945 8.702 10.85 10.03 1.025 1.506.612 3.302 1.952 4.515l12.107-4.336c10.94 5.114 13.16 18.93 16.844 29.39 6.937 19.696 13.065 31.597 25.092 48.247 4.025 5.573 9.814 13.619 14.66 17.802.712.614 5.246 4.253 5.572 4.393 4.17 1.792 4.158-1.794 5.427-1.62 6.116 2.792 12.996 5.628 19.62 6.805 5.327.947 11.67 1.66 17.095 2.239 2.656.284 6.051-1.744 6.422 1.96 6.202-1.067 8.482 2.42 13.814-2.287 2.826-2.495 8.206-8.514 10.156-11.711 7.794-12.781 11.588-24.578 17.676-38.28 1.258-2.83 3.622-4.698 3.615-8.447.337-.554 4.896-1.439 5.517-1.42 1.188.035 6.705 3.039 7.453 3.869.431.479.408 1.44.82 2.058.275.415 1.233.448 1.567 1.295 1.663 4.218 2.62 8.64 2.013 13.341-.615 4.764-3.335 10.578-4.303 14.994-1.545 7.051.205 10.226-5.92 16.59-5.75 5.973-15.26 10.23-20.266 15.108-3.448 3.36-4.994 9.517-10.6 10.644-1.928.388-3.89-1.725-3.883 2.215l-2.237-1.285c-1.296 2.147-2.369 2.938-4.796 3.57-11.947 3.105-17.223 1.984-28.734.486-.933-.121-2.118.661-3.018.494-.695-.129-.855-1.951-1.401-1.969-.167-.005-.772 1.23-1.64 1.012-1.83-.46-8.874-4.051-10.927-5.18-7.878-4.33-11.89-8.856-14.523-17.52-.168-.554.494-1.457.105-2.11-1.465-2.463-9.608-5.92-11.736-7.922-1.27-1.195-2.167-4.347-3.148-5.531-1.507-1.82-4.408-1.752-4.737-4.943-.078-.754.566-1.55.464-2.089-.15-.787-3.46-1.584-4.013-2.04-1.484-1.223-2.787-5.822-3.907-7.057-10.167-11.208-14.954-26.517-20.032-41.029-2.158-6.168-4.628-13.365-6.959-20.073-.506-1.459-.342-2.983-1.006-4.78-2.515-6.806-13.088-8.098-16.449-1.35 1.745 3.653 4.72 6.366 6.572 9.94 1.216 2.348 2.126 6.513 3.24 8.364 2.705 4.488 4.174 11.536 5.221 17.263 1.673 9.142 3.451 19.007 4.697 28.106.383 2.798-.335 6.051.683 9.006l-1.971 2.571c4.835.788 1.291 11.726-.958 11.258-2.034-4.427-3.285-10.29.313-14.141-.674-.04-1.556.305-1.972-.414-.168-.291-1.636-5.825-1.734-6.5-.569-3.915.285-8.197-.189-12.032-.827-6.687-3.395-17.087-4.932-24.011-.764-3.444-3.418-14.525-6.107-16.724-.409-.334-1.793-.114-2.795-.735-2.308-1.43-2.622-6.142-7.027-6.535-2.522-.225-3.818 1.258-6.115 1.332.474-1.412 2.702-2.328 3.099-3.671.575-1.947-.686-3.507-.404-4.86.195-.937 1.578-1.77 1.8-3.416.361-2.685-3.075-8.164-5.746-8.986-9.98-3.072-14.42 7-19.991 12.93-8.837.13 1.529-13.86 4.177-16.455 4.257-4.172 11.006-3.84 15.533-.368m189.953 70.504c-.875-.177-1.545.226-1.808 1.07-.605 1.937-.596 9.296-.11 11.472.193.861-.093 1.628.961 2.231 5.57-3.075 4.162-10.39.957-14.773m-4.169 11.573v.643q.627-.32 0-.643m-12.073 26.196c.974-1.562 2.002-3.337 3.03-5.009 2.698-4.387 3.348-9.955 4.337-14.974.148-.753 1.11-1.73-.448-2.347-1.133-.448-1.146.98-1.479 1.692-1.855 3.971-3.397 6.545-5.052 10.413-2.377 5.554-6.167 9.78-8.293 14.861-.467 1.118-1.887 2.03-1.573 3.573 0 .568 1.318.428 1.594.308 1.034-.45 4.831-5.883 5.772-7.106.543-.706 1.833-.964 2.112-1.411m-48.06 13.031c-2.613-3.673-7.345-.145-10.924-3.207-1.505 1.436 6.99 4.534 8.575 4.303.7-.102 1.44-1.199 2.35-1.096m-36.977-2.551-.952.952.952.952.952-.952zm53.056 10.282c-.847-.735-18.838-1.282-22.057-2.063-1.719-.417-4.814-1.487-6.914-2.09-6.356-1.826-11.928-5.048-18.454-6.005l-1.123.472c-1.974 2.586-.508 4.353 1.35 6.396 8.55 9.4 26.492 12.429 38.361 10.855 3.302-2.976 8.62-2.038 8.837-7.565"/><path d="M598.287 580.578c-.719.85-.878 1.957-.833 3.03l1.286-2.572c1.31-.392 1.678.651 1.76 1.757.41 5.503-.511 12.376.15 17.88.242 2.017 1.446 3.424 1.797 5.277.397 2.092.06 6.893 1.105 8.545 1.338 2.115 3.22-1.404 3.97-1.81 2.58-1.4 8.255-1.847 11.103-1.046 2.927.822 10.067 8.243 11.476 11.035.692 1.37.57 3.817 1.691 4.74 1.302 1.073 5.337.121 8.046 2.245 7.582 5.943-.542 13.796-4.068 18.97-2.69 3.946-1.158 6.664-8.665 5.809-1.77 3.736-.87 5.484 1.426 8.719.465.655 1.895.679 2.276 1.948.5 1.662-.846 10.674-.552 13.318.156 1.408 2.575 7.017 3.568 8.065.377.397 9.11 5.066 9.65 5.163 3.537.632 7.23-2.972 11.212-2.551 1.313 4.218-5.277 5.913-8.69 5.829-1.84-.046-8.75-.833-10.125-1.484-1.51-.714-1.39-1.884-1.937-2.243-.965-.634-2.516-.32-4.259-1.853-7.122-6.264-3.4-14.617-4.667-22.328-.688-4.18-4.108-7.096-2.101-10.674 1.031-1.839 4.772-7.176 5.277-8.869 2.644-8.872-9.023-5.94-13.619-6.045-2.991-.069-5.756-2.229-8.75-1.86-.576.555 1.974 9.148 2.734 10.443.864 1.476 3.016 2.561 3.086 2.871.863 3.826-2.96 8.083-3.158 9.629-.108.849 1.136 1.432 1.08 2.347-.2 3.362-7.585 6.29-10.413 6.024-2.964-.28-6.49-4.598-8.459-4.693-1.262-.06-2.86 1.922-3.942 2.127-.605.114-1.42-.424-2.312-.297-.727.103-1.003 1.193-2.41.887-4.25-.922-11.065-10.37-11.985-10.648-1.076-.327-1.948.462-2.523 1.263.708 4.143-.386 4.55-2.847 7.41-4.805-.678-7.241-3.784-10.5-6.963l-1.087-9.464c2.032-.22 1.885 2.693 3.605 3.782 1.305.826 3.832 1.419 4.666-.342 1.659-4.875-5.458-6.6-8.845-8.34-2.318-1.19-4.509-3.22-7.656-3.958-3.101-.726-7.493 3.16-11.005 3.132l-.09 2.473c-2.584-.72-3.472 2.03-4.92 2.474-2.66.818-9.172-.833-11.694-2.205-4.693-2.553-12.382-13.742-5.553-17.643.504.002 3.485 2.18 3.84 2.641.812 1.052.72 2.543 1.138 3.039.465.552 2.156.517 3.03 1.154 1.668 1.216 1.765 4.01 5.451 3.496.524-.073 8.482-2.354 8.891-2.576.725-.394.789-1.429 1.097-1.602.6-.338 1.736.499 2.78.234 1.154-.293 1.925-2.348 3.983-2.41 3.333-.099 10.403 2.77 13.415 4.542 1.021.6 7.05 5.517 7.509 5.026.277-1.348-1.323-2.135-1.141-3.406.04-.286 2.17-4.64 2.529-5.203.506-.793 4.233-4.372 4.327-4.677.082-.264.029-5.078-.041-5.54-.16-1.057-.638-1.873-1.8-1.764l-.012-1.273c2.85.834 1.285-2.604 3.855-2.572l-1.28 4.496 1.982-.372.595-2.84c7.015 2.406 2.754 10.803 3.958 14.347.427 1.26 5.161 3.689 5.54 7.99.296 3.373-2.612 5.494-2.444 8.728l-1.268.46 1.922-.012c1.829 4.913-2.076 2.255-2.569 2.58l.005 7.708c1.338.316 2.802-.772 4.027-.516 1 .21 1.696 1.653 3.326 1.726 2.904.13 10.683-4.277 11.842-2.392.531.863-.494 4.905 1.813 5.622 2.444.76 9.818-2.914 8.914-6.383-.64-.828-3.3-.693-4.581-1.211-.998-.403-1.603-1.364-2.24-1.62-1.813-.727-4.02-.5-5.733-1.985-.651-.564-3.624-5.106-3.753-5.944-.42-2.704 2.515-7.627 3.7-10.174l.045-.909c-2.409.3-2.032-1.018-2.852-2.324-.17-.27-.99-.294-1.037-.673-.504-4.005 6.844-9.266.998-14.38-1.55-1.357-3.604-1.356-4.64-2.119-1.921-1.416-3.796-3.213-6.046-4.562-2.176-1.304-5.323-2.85-7.65-3.613.983-4.646 8.57-.925 11.369.537 1.419.742 7.847 5.885 8.564 5.26.257-1.624.585-3.126.679-4.796.25-4.414-.87-9.368-.64-13.494.294-5.248.438-5.378-.023-10.988-1.005-12.208-.213-28.233.692-40.444.158-2.122.509-8.602 1.19-9.75.994-1.678 3.24-2.276 4.209-.276.453.936 1.563 8.553 1.614 9.974.251 7.008-.678 14.745-.684 21.854-.002 2.483 1.2 8.965.368 10.633-.404.81-1.637.945-2.062 1.449m25.4 53.717c.155-.247.73-4.082.658-4.567-.194-1.296-1.792-2.405-2.16-3.652-.698-2.374.855-4.557-2.923-6.71-5.042-2.873-5.587.248-8.618 2.204-1.422.917-3.964 1.272-4.877 2.84-.918 1.577-.526 3.533-1.035 5.397-.498 1.827-1.735 2.692-2.13 3.663-.498 1.228.518.815.946.956 3.414 1.122 9.274 1.947 12.871 1.923 1.157-.008 6.81-1.322 7.269-2.054m-51.964-8.872-1.282.003.967 1.277zm3.198 23.755c.74-3.144-3.063-11.055-6.408-7.362-3.585 3.957 2.431 4.795 3.314 7.963zm1.304 2.616h-1.28v1.28h1.28zM246.14 275.077c.75.246 1.512 2.694 1.633 2.8.277.245 5.076 3.824 5.374 3.989 4.353 2.412 9.86.926 9.888 8.449l3.202-.35.966.962.006 2.596c.965-1.795 4.992-6.709 5.385-8.174.38-1.41-1.17-2.36-1.068-3.615.163-2.026 4.976-10.896 7.873-10.07 2.288 1.598.2 3.352-.143 4.965-.495 2.33.119 4.311-2.06 6.288.683 1.62 2.386.244 2.525.34.189.132.407 2.533.995 3.198.587.662 2.33.717 3.58 1.563 4.916 3.322 6.66 9.303 7.027 14.841.145 2.183.268 16.272-.28 17.072-1.687 2.462-6.37-2.294-7.757-3.164l-1.433 1.604c.372 6.784-1.578 13.303-2.668 19.933-.236 1.432.088 2.921-.15 4.353-3.224 19.353-9.21 38.41-8.751 57.942.119 5.089 1.788 11.742.955 16.59-.783 4.565-3.694 8.583-5.462 12.545-1.244 2.787.368 4.995-5.107 5.092-1.916.033-8.245-4.137-8.461-6.022-.096-.837 1.062-1.44 1.12-2.417.057-.982-1.595-3.587.992-3.582 1.268.002 3.788 1.912 6.013.519.08-1.785 2.855-4.998 3.06-5.968 1.018-4.806.161-10.645.26-15.417.498-24.365 6.258-49.458 11.12-73.193.495-2.42 1.82-4.445 1.757-6.918-2.217 2.038-3.7 4.879-6.022 6.827-2.022 1.697-5.685 2.559-6.545 5.359-.633 2.06-.26 7.237.396 9.32.666 2.115 3.66 4.575 1.949 7.146-3.65 5.485-11.412-2.059-13.46-5.92-1.788-3.368-1.739-11.4-.41-14.996 2.248-6.08 12.986-9.386 18.464-11.765 2.502-1.086 2.93-3.385 6.869-1.795 2.035-6.233 7.31-12.017 1.65-17.97-2.105-1.03.472 4.253-.63 4.494-1.094-2.086-5.123-3.355-6.148-4.786-1.631-2.28-.059-5.214-5.111-3.566-.497 2.139 2.812 1.272 3.216 3.203-2.431.356-6.645-.89-8.402.93-.215.223-2.764 5.108-2.876 5.497-.71 2.476-.406 7.824-1.725 10.508-.404.82-1.444.965-1.586 1.275-1.233 2.695-3.168 8.892-4.788 10.978-1.32 1.7-3.539 1.71-4.769 2.95-.962.968-1.04 2.45-2.18 3.608-3.248 3.297-10.867 4.138-15.124 2.823-.812-.25-6.382-2.608-6.75-2.897-.582-.457-1.22-1.588-1.57-2.29-1.945-3.901-3.931-11.4-4.212-15.711-.29-4.45 1.553-15.505 4.097-18.995 1.835-2.516 8.86-6.17 10.331-1.888 3.698-3.39 2.466-5.057-.962-7.71l2.92.429.937-1.714-2.567-1.933c8.277.59 12 3.526 10.01 12.207-.638 2.783-2.89 4.058-2.951 4.322-.772 3.32.773 5.112-4.5 6.329-2.337-1.018-2.197-6.554-4.16-6.135-1.18.251-2.354 4.522-2.612 5.756-1.367 6.537-.174 13.544.96 19.678.249 1.346-.143 2.715.314 4.191 1.133 3.656 6.434 2.686 8.904 1.105 7.268-4.652 15.954-24.944 15.892-33.623-.03-4.308-6.114-14.521-8.997-18.016-3.106-3.766-4.326-4.206-9.142-2.708-4.22 1.312-3.65 2.343-5.398 5.565-.442.815-2.276.883-1.865 3.902-4.507-.678-4.751-6.465-2.874-9.793.885-1.569 7.369-4.335 9.34-4.378 3.88-.086 5.555 1.87 8.492 3.08.856.352 2.085-.01 3.204.356M314.642 88.84c.513.833 2.615 1 1.909 4.19 5.098 7.088 5.862 15.924 7.933 24.224 2.62 2.954 4.264 1.035 4.727-2.278 2.76-19.764-4.182-36.906-5.097-55.866-.74-15.344-2.022-37.273-.66-52.161.142-1.552.221-3.459 1.954-4.15.517 1.253-1.215 5.674-1.165 5.98 2.294 14.197 1.254 32.8 1.824 47.723.624 16.339 11.294 50.023 3.106 63.582-.978 1.62-3.798.807-3.111 3.635l2.563-.64-1.85 5.375c3.388 3.932 4.029 9.856 5.227 14.728.47 1.911 1.75 3.766 1.806 5.99.054 2.127-1.063 2.394-1.317 4.133h2.576l-.17 25.246c-.178 1.808-1.297 3.68-1.563 5.393-.324 2.096 2.072 3.412-2.177 4.486.258 2.834.09 5.195-1.111 7.781-1.975 4.251-3.542 6.68-7.02 9.387-1.05.817-1.018 3.067-4.018 2.406l-.692 6.094c.196 3.064 7.137 1.327 9.201 1.739 2.898.578 6.825 3.433 7.87 6.29 2.84 7.755.267 9.752-1.447 16.586-.231.923.442 1.899.068 3.21-.573 2.011-2.93 8.836-4.085 10.124-1.097 1.223-3.186 2-4.533 3.185-1.024.9-1.826 3.194-2.987 3.474-.957.23-2.418-.643-3.713-.585-3.273.146-7.284 2.952-10.602.313-4.849-3.855-3.48-11.567-5.351-17.16-.335-1-1.503-1.44-1.753-2.75-.626-3.282 1.731-7.765-3.87-7.392-.618-1.71 1.162-2.997 1.281-4.201.264-2.678-1.721-5.706 1.284-8.936-1.826-1.786-4.622-1.918-6.43-3.895-.48-.527-3.919-6.058-3.852-6.426.297-1.638 2.269-.18 3.002.202 4.138 2.155 7.318 5.8 11.661 7.64 1.018.431 2.963-.64 4.32 2.107l.963-2.567c.189-.252 2.273 2.512 3.552.666 1.219-1.585-.676-2.782-.882-3.735-.606-2.81 6.805-8.316 8.554-10.446 3.672-4.473 5.142-7.873 6.947-13.008 5.233-14.89 4.375-26.174 1.411-41.633-.182-.954.424-2.009.226-2.779-.37-1.436-2.452-2.072-3.372-3.076-.852-.93-.867-2.748-2.288-3.173-.542 2.25-.597 6.64-1.425 8.55-.47 1.084-1.765 1.09-2.306 2.196-1.257 2.569-1.376 6.573-1.847 9.084-.688 3.66-1.748 6.178-6.002 5.9.498-1.663-.994-3.154-1.157-4.327-.894-6.418 7.254-17.86 8.19-24.337 1.038-7.181-1.005-19.14-3.479-26.03-.678-1.89-3.329-5.828-3.92-7.661-.596-1.85.223-4.919-1.616-6.127-.588-.386-1.762-.262-1.863-.366-.33-.341.79-2.508.378-3.851-.327-1.07-1.738-2.144-2.348-3.498-9.467-21.008-7.984-48.666-10.987-71.342-.78-5.887-4.54-8.691-3.132-14.549 2.96 1.372 2.168-.184 3.083-.571 2.48-1.048 3.703-1.648 5.625.544 2.551 2.909.928 3.508 1.176 6.026 1.74 17.604 2.825 34.487 5.724 52.032.785 4.75 5.084 26.096 7.057 29.296m17.843 58.683h-1.28v1.28h1.28zm-15.43 94.552c-.407-2.501.76-5.276 3.26-6.113 2.038-.683 3.214.654 4.638.235.774-.228 1.25-1.331 1.767-1.507 1.97-.671 3.354.26 4.764-1.664 2.93-3.995 2.64-12.727-2.38-14.925-2.48-1.085-4.245.448-6.642.762-2.531.332-2.645-2.014-5.299 1.77-2.519 3.591-3.746 9.408-5.06 13.589-1.541 4.902-1 8.137 4.952 7.853m4.5 7.073c-3.954-.01-7.152-1.661-10.843.721-2.95 4.81 11.59 5.847 10.844-.72M285.936 802.539c1.027 1.485 1.783 3.12 2.822 4.584 4.453 6.281 10.004 14.009 16.756 17.977 5.804 3.412 11.06 4.276 17.588 5.558 2.504.491 3.134.371 5.148.639 1.86.247 3.764 1.482 5.656 1.093 4.128-.847 14.946-5.332 19.152-7.266 14.434-6.635 29.249-17.285 40.827-28.007 4.796-4.442 4.52-3.86 7.783-9.565.6-1.047 2.168-1.806 2.534-2.64.343-.78-.283-1.716-.005-2.538 2.302-6.826 3.826-14.336 4.111-21.632.066-1.68-1.608-5.116.056-6.371 2.688-2.027 7.796.05 8.373 3.255.357 1.98-1.533 12.606-2.107 15.231-.462 2.112-1.496 3.607-1.749 5.642 9.217-3.828 15.774-11.836 23.785-17.363 1.383 1.506-9.169 10.058-10.325 11.231-1.676 1.7-3.427 4.17-5.084 5.832-5.314 5.323-10.888 8.02-13.224 15.718-2.296 7.563-2.5 14.3-7.117 21.183-2.523 3.761-6.391 9.091-9.624 12.244-6.741 6.574-16.993 10.875-26.402 12.187-16.374 2.283-32.252-5.025-48.175-5.71-9.087-.39-18.492.224-27.241-3.615-13.737-6.028-14.6-11.708-22.704-22.99-3.709-5.163-7.148-8.389-10.52-14.535-1.245-2.27-1.771-5.525-3.28-7.587-2.482-3.396-7.174-4.934-8.315-10.422-.876-4.212 1.847-5.918 3.076-9.223 2.617-7.039 4.307-14.114 8.882-20.389l2.232 1.279 1.29-1.924c3.35 1.232.263 9.644.365 11.85.312 6.704 6.44 23.025 11.19 28.05 6.657 7.047 8.898 10.49 14.246 18.224m-25.48-44.617-3.095 1.722-2.059 10.141c.871.826 6.108 12.32 7.727 10.643-2.704-7.686-4.035-14.307-2.573-22.506m-4.933 24.223c-.687-.435-.571-2.134-2.134-1.71-.067.888-.023 1.754.283 2.604.51 1.413 5.892 9.64 7.147 11.505 3.525 5.236 7.386 8.622 11.196 13.245 3.27 3.968 5.762 9.712 9.316 13.195 5.762 5.647 14.548 8.084 21.954 10.202 1.66.474 3.672.705 5.405.698.227-1.369-1.253-2.046-2.218-2.598-2.5-1.43-6.273-2.546-8.67-4.194-3.445-2.367-12.203-12.202-15.113-15.758-5.578-6.817-6.59-13.909-13.861-20.227-4.966-4.315-8.807-4.11-13.305-6.962m143.203 16.943c-1.088-1.154-10.135 6.925-11.506 8.103-10.358 8.894-19.321 16.593-31.982 22.686-2.507 1.207-6.675.887-6.669 4.58 4.86.147 9.482.731 14.318-.146 13.519-2.452 24.903-10.087 32.108-21.916 2.48-4.072 3.848-8.479 3.73-13.307m-53.054 34.73v.643q.627-.323 0-.644M253.38 629.92c-1.75-1.204-8.431.943-9.46 2.12-.355.407-.307 1.459-.791 2.07-1.593 2.012-3.57 1.15-5.348 1.753-1.884.638-6.759 4.407-9.278 4.978-2.421.55-5.185-1.093-6.954 1.943-2.057-4.202-9.232-.624-13.18-.637 1.42 3.728 5.79 5.19 6.429 9.638-.546.456-8.063-2.122-9.906-1.907-2.221.26-7.847 2.768-6.82 5.769l-2.25-1.973c-4.519 1.198-8.07-.257-12.68.867-.766.187-1.218 1.102-2.102 1.133-.27.01-2.158-3.997-3.248.662-1.288.264-6.095-.453-7.49-.885-4.091-1.267-5.924-7.262-9.335-8.057-1.256-.293-8.019.772-10.124.556-1.6-.164-4.741-.898-6.095-1.675-2.112-1.213-7.404-9.285-3.914-11.207-.273 3.088 3.441 9.966 6.246 10.8 3.875 1.152 12.627-1.651 17.223-.52 1.29.049 2.06-2.068 3.14-1.879 1.361.238 5.75 6.838 7.65 6.876 2.742.31 6.745-1.993 8.79-2.128 2.36-.156.861.553 4.676-.485 3.051-.83 8.867-.992 9.53-4.299l1.214.088 1.016 1.19c2.42-1.447 2.14-4.398 4.216-6.08 2.863-2.317 8.281-2.33 11.27-4.848.432-.703-1.326-7.238-1.481-8.86-.117-1.219.54-2.29.431-3.584-2.147-25.664.43-46.946 5.983-71.988.291-1.315 1.868-7.228 2.262-8.025 1.697-3.424 5.911.168 5.963 3.353.066 4.069-1.827 10.14-1.622 14.484-7.629 15.042-7 30.466-6.741 46.67.105 6.544-.395 14.485.884 20.881.59 2.954 2.762 3.792.391 6.707.239 1.208 4.674 2.15 5.866 1.941 3.333-.585 12.24-5.256 16.173-6.868.784-.322 1.287-1.275 1.78-1.473.977-.392 6.435 1.056 5.046-3.11-.386-1.155-4.988-2.567-6.083-7.45-.854-3.806.134-15.743.379-20.297.978-18.21 3.65-37.06 3.901-55.326.024-1.739-2.01-8.62.276-9.322 1.608-.495 2.025.881 2.567 1.923 4.197 8.08.817 27.48.907 36.988.046 4.895.01 4.94-.622 9.613-.351 2.601.511 8.841-.065 10.82-.273.932-1.82 1.822-1.821 2.078-.001.285 1.742 1.114 1.908 2.592.668 5.98-.962 13.459.042 19.89.316 2.028 2.438 3.612 2.519 5.884.078 2.21-1.766 2.994-1.898 4.46-.114 1.264.943 2.75.63 4.156"/><path d="M189.077 530.222c-.803-3.639 2.048-9.595.849-12.71-.447-1.16-4.151-3.605-5.058-4.627-1.131-1.276-4.315-4.837-5.055-5.88-1.604-2.257-3.207-8.41-5.872-8.933-8.15-1.598-6.936 11.325-7.686 16.087-.25 1.589-1.409 3.214-1.594 4.89-.292 2.65.896 4.924-1.308 7.955l2.558.369 2.582-3.912c6.547-2.503 2.08 9.555 2.576 9.976 2.596 1.22 3.824-2.562 4.27-2.618.678-.086 1.771.623 2.943.523 3.092-.266 5.897-1.67 8.856-2.403-.067 1.938-.872 2.966.649 4.495-4.067.162-5.948 3.625-9.634 4.844-2.088.69-4.88.389-6.977 1.708-.043 4.57-2.724 9.102-.729 13.393 3.83-.466 2.918-3.339 6.737-.153 2.6-.188 3.875-10.154 5.456-8.204l.562 10.644c-3.494 5.686-1.02 14.24-.565 20.554.295 4.092-.332 8.201-.326 12.243.006 4.646.952 6.609-1.126 12.021-1.158 3.015-3.695 6.922-6.947 7.846-1.462.416-5.956 1.509-7.32 1.689-4.941.653-5.454-1.78-8.91-3.377-3.06-1.413-6.523-.437-7.476-4.742-.866-3.913-.017-6.9-.016-10.277.007-12.742-.311-25.823.002-38.539.146-5.911-.903-12.218 1.564-17.725l1.819-.553 2.038 1.866c.653 7.54-.48 15.318-.707 22.927-.209 6.988.087 14.207-.192 21.129-.194 4.814-2.147 15.64-.306 19.543 1.494 3.168 6.594 6.432 10.075 5.72 2.153-.44 4.54-4.427 6.067-4.88 2.215-.655 5.065.018 7.262.506-.174-3.776-1.205-8.18-1.309-11.867-.214-7.623.295-16.21.726-23.826.127-2.25-1.395-3.805.597-6.423-2.108-2.107-5.315.212-6.488.013-.51-.086-6.434-3.946-6.836-4.394-2.32-2.584-3.76-9.397-4.88-12.81-.53-1.617-2.2-2.308-1.63-4.522.275-1.066 1.79-1.902 1.78-3.38-.008-1.036-1.063-2.052-1.215-3.251-.5-3.933 2.898-19.57 4.274-23.958 1.858-5.927 5.416-12.241 7.62-18.102 5.383-4.195 4.693 5.391 5.612 8.47 1.005 3.371 5.215 9.57 7.56 12.378 3.02 3.62 10.266 8.566 9.511 14.026-.11.799-3.16 7.628-4.383 6.251M335.77 887.787c1.587-.375 2.87 1.79 3.563 1.926.784.154 2.233-1.662 3.825-1.861 1.817-.228 5.487 1.299 6.616.557.38-.25 2.051-7.072 4.572-7.636-.059 1.073 1.022 2.044 1.106 2.974.187 2.057-1.342 8.762-1.002 10.086.272 1.06 2.349 1.702 1.765 3.21-4.72 4.112-8.324 10.383-15.488 9.951-1.317-.08-7.545-1.938-6.305-3.7 3.918-2.618 10.602-1.837 10.917-7.695-3.406-1.195-6.144-4.225-9.998-1.984l.978 7.065c-13.43 3.537-21.07 24.398-14.593 36.2 1.005 1.832 3.19 4.403 5.153 5.138.928.348 5.184 1.54 6.088 1.683 1.47.234 2.393-.997 3.735-1.148 2.895-.325 10.444.182 13.441.64 1.479.225 4.383 2.152 6.392 1.746 1.027-.207 5.426-4.641 5.506-5.926.154-2.448-4.102-8.332-3.218-11.51l7.046-3.05c-.337-7.42-7.726-12.36-7.98-19.88 2.86 5.23 7.352 9.629 10.511 14.571.456.714 2.672 4.677 2.706 5.09.114 1.394-1.335 2.14-1.028 2.838 1.174 2.668 3.989 4.744 5.16 6.44 3.374 4.883-3.336 10.062-6.52 13.116-.303.29-.046 1.204-.633 1.715-.924.804-12.308 5.582-13.462 5.736-4.826.642-9.328-1.539-13.614-2.394-7.316-1.46-17.397-2.64-23.651-7.22-1.515-1.108-5.812-9.69-5.951-11.387-.079-.96.862-1.704.849-2.43-.033-1.894-.54-3.741-.37-5.846.468-5.827 6.917-20.322 11.64-23.728 4.836-3.489 12.017-.813 11.457-9.083-.074-1.093-1.3-2.21-1.604-3.47-.836-3.473 4.336-10.31 6.82-12.895.596 4.584-4.975 7.425-4.43 12.161m33.366 50.227c.016-1.367 3.208-5.803.968-6.424-3.795-1.052-3.12 8.41-.968 6.424M667.546 738.621l-2.21-.557-4.204 3.454c.005.671 3.76 1.674 4.487 2.575.992 1.231 1.553 9.014 1.248 10.896-.236 1.448-3.025 8.744-5.022 7.381-2.598-7.011-5.833-2.05-9.732-.272-3.074 1.402-8.137 3.05-11.115.994-.79-.545-1.033-1.89-2.04-2.622-2.336-1.698-4.89-2.163-7.328-4.896-3.608-4.045-3.462-9.841-5.837-12.656-.647-.767-2.023-.287-2.799-1.863-2.056-4.18 1.183-7.966 2.24-11.688 2.323-8.183 3.682-14.173 10.45-20.363 5.379-4.92 4.415-3.266 10.352-3.955 4.637-.538 10.872-2.716 15.437-1.192 3.297 1.101 8.924 5.9 9.157 9.468.066 1.012-.917 1.76-.987 2.628-.16 1.972.239 4.175-.309 6.129-.766 2.739-3.455 6.469-3.706 9.872-.184 2.49 2.233 4.113 1.918 6.667m-5.591-17.18c.216-.348 1.133-.45 1.342-.872 2.414-4.856 1.185-3.968.069-7.998-.48-1.733 1.859-2.534-2.1-3.999-5.389-1.994-18.45 1.92-21.872 6.715-.332.465-4.764 8.732-4.938 9.23-.631 1.803.224 5.779-1.637 7.982l.959.775c3.394-1.586 7.462 3.332 6.605 6.149-.355 1.17-1.675 2.286-2.116 3.694-.258.826.384 1.734.026 2.557-.64 1.47-3.893 2.586-3.61 4.85 3.532 9.76 12.964 10.807 21.786 7.242l.698-5.553c-2.62-.015-2.884-2.133-4.387-3.638-2.357-2.358-5.777-4.738-5.183-8.954.466-3.308 5.612-4.215 5.88-4.595.573-.814.47-3.119 1.28-4.374.664-1.028 2.113-1.378 2.861-2.284 1.862-2.254 2.973-4.738 4.337-6.927M45.632 811.29c-2.597-.914-5.384-2.09-6.823-4.537-2.203.17-3.813 1.888-5.841 2.472-5.259 1.514-13.73 1.432-18.99.649-1.77-.264-5.662-1.9-7.056-3.06-.355-.296-4.61-5.041-4.795-5.349-3.055-5.079 1.217-23.981 4.635-29.384 1.414-2.648 1.593-9.61 2.553-11.597.11-.225 3.269-2.735 3.57-2.857 4.422-1.802 4.653 1.134 7.612 2.98-.65 2.655.944 7.136-2.514 8.6-1.694.718-3.415-1.49-4.769.97L8.233 787.06c-10.236 8.143 3.767 15.548 11.282 17.64 4.608-1.884 9.967-1.843 13.898-5.287-2.712-5.715-6.365-3.194-10.577-3.517-6.078-.466-4.828-8.46.076-8.838.926-.07 5.187.38 6.199.597 4.327.93 7.417 4.886 11.97 4.277 2.836-8.797 1.632-18.734-1.842-27.27-2.646-6.503-2.37-5.333-8.716-6.077-5.607-.657 2.662-6.317 5.497-5.534 3.483.961 7.96 5.347 9.495 8.55.77 1.606 4.46 17.203 4.57 19.24.151 2.814-.362 8.405-.855 11.2-.88 4.98-5.275 7.518-4.067 13.01.564 2.566 2.82 3.003.47 6.238M282.272 221.546c-.045 1.71 1.786 4.767 3.281 5.397 1.175.494 2.374.145 3.384.475 1.64.534 3.928 4.202 6.818 3.792l.617 5.265c-.652 1.26-1.821 2.156-3.098 2.715-.316.138-4.085 1.356-4.308 1.389-2.468.36-3.634-1.6-5.177-2.223-3.233-1.306-5.4.879-4.717-5.647.147-1.402 1.684-2.48.684-3.18-5.99-4.194-11.677 8.384-10.893 13.467.236 1.535 1.351 3.032 1.737 4.69.373 1.601-.19 3.555.251 4.896.114.347 5.016 4.442 5.652 4.639 3.266 1.01 5.873-.333 8.648-.293 2.352.033 5.447 1.154 8.107.586.078.057-.663 1.613-.83 1.74-.356.271-7.578 3.575-8.142 3.746-4.226 1.28-12.114-1.285-15.789-3.562-1.742-1.08-1.343-2.719-4.399-2.542-8.867.511-3.508 10.08-7.949 11.434-4.746 1.448-6.978-3.448-8.32-3.676-.932-.158-5.586 3.722-8.966 1.265-.337-.245-4.22-6.073-4.684-6.891-2.817-4.968-7.809-20.245-8.368-26.36-.219-2.395-.7-7.7 2.765-7.905 4.691-.278 6.511 5.497 8.715 8.474 1.978 2.673 4.484 4.766 6.426 7.247 2.555 3.262 5.324 6.774 7.243 10.447 1.448.18 3.216.96 4.626.788 5.357-.656-.088-4.76 4.907-5.493-.064-1.432-.82-2.644-1.14-4.006-.708-3.013-.943-4.377-.954-7.547-.006-1.726-1.327-5.812 2.084-5.085.224.92.598 1.827 1.245 2.532.897.977 4.82 4.8 5.782 4.148-.18-4.11 7.164-6.302 8.057-8.354.682-1.57-.148-3.463.91-4.879.717-.96 5.083-2.113 5.795-1.489m-43.678 19.231-1.28-1.28-.003 1.284zM477.088 488.355l-5.282.023-2.32-5.432c1.34-1.654 3.706-1.032 5.48-.468l.937-2.42-1.866-.035-1.53-12.32c-.98-4.423-6.607-11.52-7.688-14.833-1.219-3.737-.448-8.977-4.03-12.038-4.834 5.116-9.741 11.901-12.397 18.463-4.171 10.307-7.628 28.428-3.215 38.948.291.693 2.73 5.447 3.711 4.321.17-2.404-.236-5.01.014-7.383.267-2.52 1.385-11.233 3.192-12.246.607-.34 1.234-.44 1.906-.273.81 2.8 2.596 5.646 2.662 8.648.047 2.129-2.002 8.247-1.893 8.917.556 3.395 6.519.295 8.304 1.357 1.358 3.74-1.438 4.456-2.867 6.19-.52.63-.527 1.75-1.313 2.546-2.872 2.911-10.363-.144-13.7-1.487-2.048-3.6-4.755-6.21-5.663-10.73-4.508-22.43 2.89-42.485 16.541-60.072 1.395-1.797 4.691-3.753 5.429-6.205.087-.29.303-5.673.255-6.066-.15-1.222-4.764-8.816-2.157-9.425 2.22-.465 5.682 1.73 6.696 3.543.86 1.537.361 2.87.952 4.193.735 1.647 2.413 2.77 2.755 5.02.469 3.091-.68 8.16-.489 11.31.34 5.605 2.218 13.031 4.344 18.225 1.47 3.595 6.12 10.341 6.524 13.446.263 2.025-.847 12.014-1.709 13.765-.393.798-1.383 1.472-1.583 2.518M354.724 360.808c-3.639 6.272-5.426 13.935-6.157 21.215-.202 2.014 1.007 4.246.6 6.98-.494 3.329-3.757 6.54-3.267 10.237l-5.689 1.703.636 3.205-3.552 1.281c-.376 2.609-1.915 5.372-3.259 7.702-.267.464-1.296.557-1.45.803-.177.285.471 5.345-.695 6.59l.6.704c.474.322 1.456-.187 1.932.062 1.553.812 7.558 4.837 8.7 6 4.463 4.554 1.517 4.309 1.034 7.568-.392 2.642 5.108 3.12 6.946 4.39 1.377.95 4.499 5.41 4.532 7.122.025 1.262-.89 1.817-.967 2.489-.085.73.752 6.08-1.912 5.465-.634-.146-1.974-4.776-2.12-5.613-.52-3.005.907-4.644-2.063-8.22-4.266-5.135-7.36 1.535-10.66-.904-3.887-2.874 2.241-6.241.658-10.313-1.845-4.746-9.066-2.966-12.865-5.147-2.009-1.154-3.507-5.116-3.448-7.365.04-1.496 2.644-8.158 3.525-9.341 1.757-2.362 5.03-5.768 6.724-8.242 3.49-5.1 7.295-10.097 6.4-16.521-.286-2.049-2.427-3.341-2.485-5.166-.187-5.854 6.403-18.36 9.704-23.713 2.826-4.583 10.97-8.322 12.476-1.103.856 4.109-1.472 3.509-2.897 5.567-.46.664-.477 1.696-.98 2.565M369.717 482.065l2.679 4.775c-.25 2.1-1.754 2.786-1.987 5.106-.296 2.939.904 5.636 1.065 8.48.134 2.349-1.242 6.273-.087 8.583.956 1.91 7.308 1.668 9.022 3.841.486 6.272 3.87 14.275 9.718 17.295 1.131.585 9.483 1.303 9.914 1.047.363-.216 2.604-2.912 3.872-3.823 1.015-.73 2.61-.784 3.01-1.174.516-.503 2.432-4.616 2.102-5.614l1.916 2.568c-.145-3.168.483-5.234 1.09-8.142.128-.606-.63-1.687-.38-2.048.351-.506 3.144-.825 2.52-3.317 1.513-.52 1.651 1.277 1.67 2.347.128 7.067-5.542 12.984-8.09 19.22-2.162 2.667-12.54 4.42-16.09 3.89-2.743-.408-10.918-3.307-13.07-4.832-1.09-.774-1.239-3.338-1.876-3.759-1.517-1.003-1.262-.065-3.662-2.291-1.803-1.672-2.639.72-2.629 2.46.045 7.981 1.492 19.782 3.368 27.524.795 3.281 4.248 6.536 3.073 10.758l-4.22.393c-2.133-.335-5.132-9.057-5.29-11.205-.922-12.579-2.848-26.24-2.735-39.067.05-5.82 2.69-13.003 2.494-18.644-.141-4.045-5.706-14.214 2.603-14.371M286.821 460.116c-2.128-1.54-4.238.886-5.418 2.615-5.179 7.584-2.36 12.46-1.66 20.23 1.102 12.252 1.31 30.914 4.651 42.3.088.299 2.262 3.274 2.44 3.384 1.611.99 3.59-1.682 4.357 2.045 1.05 5.109-.16 11.41 6.327 13.617l5.698-7.015c2.16-1.92 4.363-1.914 7.052-1.242 4.713 1.176-1.23 5.649-1.562 7.374-.602 3.14.673 7.42-.303 10.631-.093.305-2.453 5.467-2.627 5.734-3.44 5.272-9.139-2.787-11.536-5.138-3.736-3.665-6.458-6.018-8.97-10.966-3.863-7.61-7.53-23.542-8.655-32.528-.635-5.073.511-10.45-.057-15.363-1.655-14.286-3.29-25.712 3.916-39.138 3.748-6.983 6.927-2.438 6.347 3.46M426.383 822.883c1.193-1.658 4.43-6.817 5.259-8.57 1.148-2.429.993-5.222 2.99-7.194-1.245-2.692-4.71-2.76-6.34-4.477-.482-.508-4.564-6.642-4.47-7.048 3.36-1.606 3.713-4.254 5.494-6.762 5.289-7.444 10.843-14.71 15.443-22.505.956-1.62 1.937-5.386 3.5-6.767.444-.392 3.02-1.203 3.201-.995.054 1.131.055 2.257-.15 3.381-.725 3.97-14.983 27.48-18.063 32.421-.338.544-1.647.696-2.016 1.458-.24.498.32 2.919-.343 3.899 5.375-2.57 9.053 3.138 8.322 8.008-1.025 6.831-3.833 11.755-7.693 17.389-10.307 15.043-23.093 25.05-36.953 36.37-1.619 1.322-8.326 6.772-9.49 7.28-.849.37-2.79.274-2.997.494-.314.333.283 1.979-.698 2.835-.473.413-5.156 2.48-5.838 1.955-.525-.406-1.318-4.268-.96-4.853.312-.512 2.89-1.968 3.708-2.583 6.688-5.025 13.354-9.673 19.778-15.133 8.633-7.336 21.772-19.508 28.316-28.603l.942 1.737 2.256-.483.014-1.894zm10.283-14.154v-1.923h-.63v1.923zm-56.909 58.535v.643q.627-.322 0-.643M608.385 450.471c.276 2.128-1.552 2.228-2.368 4.371-4.88 12.809-.093 28.053-3.587 41.45-.92 3.526-3.962 6.984-4.352 10.768-6.447.267-2.11-6.746-1.444-10.777.86-5.207 2.084-14.133 2.057-19.219-.008-1.567-.624-5.52-1.558-6.66-1.134-1.386-1.607 1.209-2.642 1.868-1.937 1.233-10.66 4.861-13.093 5.557-1.997.571-4.368.887-6.452.944-.636 6.61-2.311 27.18 4.513 30.595 1.365.552 1.952-1.176 3.485-1.05 3.901.32 3.332 9.89 5.314 12.664-1.405 3.94 2.062 8.56-2.377 11.173l.636-2.567-2.89.02c-.007-3.202-2.567-8.206-2.805-10.81-.19-2.086 2.802-2.773-1.057-5.28l-2.889 1.914c-.054-3.27-2.805-4.04-4.18-7.08-2.154-4.765-1.57-7.83-1.613-12.481-.002-.176-1.617-.582-1.793-2.803-.534-6.776 3.564-18.349 5.189-25.38.731-3.166 2.673-3.192 4.957-4.997l.653 5.788c-3.318-.83-2.44 1.93-4.504 3.852 1.727-.012 3.504.207 5.204-.27 1.649-.464 1.522-2.166 2.493-2.629 1.39-.66 3.378-.075 5.017-.735 1.009-.406 2.041-3.105 3.764-4 1.15-.598 2.983-.562 3.35-.866.28-.233 4.35-5.08 4.545-5.388 2.064-3.264.084-2.713 4.267-6.05 1.334-1.065.638-2.756 4.16-1.922M331.178 449.796c-.382.466-8.275.895-9.325 2.585-1.774 2.854 4.515 6.917 6.106 8.88 3.55 4.379 7.687 11.164 7.747 16.87h1.925c.824-2.362-.673-8.465.907-9.712 2.04-1.61 4.515-.247 5.269 1.974l.54 10.338c4.62 7.316 2.032 16.895 3.152 23.99.356 2.253 1.906 5.209 2.286 7.884.486 3.425 1.341 12.16 1.245 15.387-.038 1.303-1.58 5.202-2.861 5.418l-4.128-3.5 1.226-10.341c-2.663-9.283-2.182-18.614-3.18-28.154-.235-2.248-1.699-11.449-3.493-12.02l-1.61.47-.923 1.966c-2.193-.749-6.397-1.195-8.098-2.717-.669-.6-4.263-5.844-4.763-6.813-1.935-3.75-1.88-7.964-4.11-11.97-1.917-3.444-4.801-7.053-7.225-10.19l1.427-4.718c1.154-.72 3.403.664 4.701.532.925-.094 1.754-1.105 3.207-1.31 1.503-.213 5.386-.163 6.759.383 1.243.495 4.393 3.334 3.219 4.768M195.999 739.133c-.2.323-1.4.326-1.683 1.175-.37 1.112.04 2.674-.387 4.136-.391 1.344-2.19 2.714-2.588 3.866-.37 1.071-.894 4.624-1.342 6.355-.907 3.507-.373 8.393-5.012 9.614-.984-1.224-2.463-1.51-3.565-2.244-.647-.432-.839-1.536-1.37-1.847-.886-.52-2.152-.228-3.174-.684-1.977-.882-3.795-4.732-3.725-6.876.202-6.175 3.34-12.046 4.309-17.578.348-1.99-.32-4.21.192-6.24.328-1.305 2.45-4.215 3.08-5.924.915-2.479 3.099-11.793 5.583-12.477 2.597-.402 6.713 2.604 7.735 4.913.77 1.742.184 2.907.401 4.222.446 2.695 2.488 18.073 1.546 19.589m-10.144-15.943-1.922 1.608.003 5.46c.748-.24 1.64-3.049 1.769-3.688.226-1.128.204-2.246.15-3.38m.618 32.13c-.119-4.411.59-10.392-1.2-14.503-2.405-5.52-3.725 7.017-4.251 8.726-.852 2.768-3.896 4.291.298 6.835zm5.813-11.548c-2.064-1.819-2.905 3.453-.636 1.608.488-.397.96-1.322.636-1.608M299.449 185.071c4.875 3.597 9.553 8.655 10.271 15.181.309 2.803-1.335 5.41-.677 8.367-3.485 3.806-7.522 1.65-9.01-2.61-.805-2.309.402-3.115.302-4.782-.104-1.736-.826-6.742-1.665-7.986-.179-.266-3.665-3.623-3.958-3.759-3.743-1.738-8.352-1.65-11.755-2.495-1.878-.466-4.663-2.442-6.78-2.766-5.213-.797-10.97.737-16.188 1.072-.818.052-1.292-.934-2.128-.816-1.216.17-11.104 5.245-11.917 6.1-1.2 1.261-.302 3.204-2.848 2.613-.328 1.664.337.99 1.293 1.594-.565 2.12-3.708 3.383-3.235 1.29l1.241-2.48c-4.08-3.24-2.608-6.092.086-9.705 16.258-8.862 41.682-10.094 56.968 1.182M563.524 524.598c5.77-2.876 9.46 6.9 9.829 11.359.099 1.194-1.074 2.365-1.025 4.215.096 3.567 3 11.991 3.737 16.267 1.108 6.443 2.207 13.088 3.07 19.44.42 3.09 1.865 12.143 1.522 14.531-.388 2.705-4.59 1.51-6.304.544-6.064-3.418-3.08-13.554-3.953-19.202-.753-4.875-3.8-11.788-4.392-16.833-.659-5.62.808-13.332-.13-18.528-.526-2.91-4.92-9.182-2.354-11.793M461.242 516.864l1.593-.657c4.833.115 3.08 14.023 3.489 17.488 1.01 8.594 3.517 16.23 4.44 25.79.747 7.737 1.43 15.384 1.846 23.11-.687 2.893-9.861-.778-10.822-4.486-1.276-4.926.24-6.916.54-10.967.385-5.177.408-8.777-.406-13.61-2.093-12.424-4.687-24.292-.68-36.668M554.785 681.6c.3.255 3.53 4.022 3.706 4.332 1.24 2.191 1.316 6.1.959 8.576-1.299 9.001-6.878 18.476-11.249 26.698-1.907 3.588-4.323 2.76.903 6.882.1 5.116-5.33 5.924-9.068 3.96-3.034-1.594-3.061-11.097-2.24-14.174.883-3.306 5.59-5.862 6.587-8.206.526-1.235.14-2.602.665-3.837.434-1.02 2.496-2.032 3.16-3.273.747-1.398 1.137-4.16 1.793-5.924 1.326-3.565 4.567-8.215 1.438-12.014-1.62-1.967-4.538-2.038-4.795-4.834.449-2.13 6.94.795 8.141 1.814M354.83 855.21l5.975 8.55-2.608 8.956-1.592 2.253c-1.594.087.397-5.162.308-6.078-.062-.628-1.782-3.518-2.282-4.155-3.592-4.57-14.568-8.953-19.218-3.874-.858.937-1.131 2.694-2 3.79-3.056 3.857-5.886 4.91-10.893 4.816-3.132-.059-10.94-2.39-13.754-3.885-2.84-1.508-6.12-4.246-7.786-7.007.48-.916 1.669 0 2.276.297 2.337 1.144 4.507 2.63 7.198 3.092 1.927.33 9.665 1.03 11.289.66 3.524-.807 6.302-6.748 8.451-8.277 1.012-.72 2.308-.37 2.81-.715.507-.35.343-1.824.915-2.306 3.612-3.04 17.387.35 20.911 3.883M340.2 345.626c-.39 5.487-3.048 10.297-4.815 15.44-1.648 4.797-1.881 8.895-4.817 13.193-2.352 3.444-3.904 4.214-8.215 4.01-4.204-.201-16.57-4.818-19.35-7.977-3.59-4.078-7.016-13.903-6.924-19.309.07-4.185 1.327-7.893 5.534-9.216-.207 2.332-2.061 2.767-1.9 5.37.47 7.636 7.366 20.687 14.317 24.342 2.801 1.474 8.946.85 11.282-1.195-.773-3.107 1.207-4.092 1.89-5.824 1.248-3.163 3.327-10.43 5.269-12.741 1.259-1.5 3.992-1.6 5.414-2.947 1.19-1.127.937-2.559 2.314-3.146M318.84 740.064c1.083 2.58 2.931 3.766 4.024 6.577 2.387 6.14 4.617 19.858 3.801 26.358-.222 1.77-2.216 8.736-3.17 10.166-.765 1.146-3.412 2.946-4.507 4.025-.775.763-1.276 2.365-2.209 2.933-3.754 2.286-16.48-3.117-15.109-8.004.827-2.946 10.26.88 12.374.165 1.822-1.584 2.906-3.716 3.782-5.904 3.304-8.26 2.782-20.12-.087-28.473-.765-2.23-3.098-5.33-3.287-7.656-.164-2.01 3.385-.758 4.387-.187M405.149 682.66c-2.94-.028-1.64-3.8-2.063-5.96-1.1-5.606-5.478-3.516-9.425-2.326l1.206 4.428c-1.854.591-1.191-1.598-2.31-1.884-.895-.23-2.869.699-3.993.723.206 5.104-6.193 9.937.854 12.11 3.597-2.287 7.205-4.343 11.577-4.506.965-.036 1.854-.449 1.587.948-1.036 1.154-2.075 2.199-3.407 3.028-1.973 1.23-10.284 4.651-12.19 4.265-1.524-.308-6.02-5.627-6.56-6.987-1.529-3.858 1.846-9.464-5.16-3.838l-1.303-3.864c-12.481 1.739-23.461 8.376-34.393 14.159-.873-.935 4.77-5.12 5.569-5.68 12.137-8.507 26.19-9.573 39.447-13.833 2.736-.879 5.912-1.837 8.765-2.267 8.58-1.295 17.918 1.11 11.799 11.485m-18-4.491h-1.279v.63h1.28zm-2.572 3.212-2.565 3.853c1.005 1.154 2.991-3.123 2.565-3.853M230.015 457.98c-.216.322-1.061.489-1.32.893-7.593 11.862-9.509 33.226-4.078 46.417 3.546 8.612 8.917 1.627 13.04 1.815 6.327.288-1.636 8.969-5.893 9.417-2.88.304-8.646-2.48-10.17-4.993-4.147-6.84-5.477-21.315-4.858-29.214.903-11.54 6.15-20.515 13.15-29.3l5.497-4.15zM254.561 808.198c.393.66-.174 2.073.432 3.1.32.543 1.58.827 2.167 1.7 4.106 6.098 7.896 12.344 5.72 20.345-.492 1.809-3.843 9.287-4.97 10.467-2.552 2.674-7.474 5.307-11.236 4.764-1.262-.181-9.531-2.87-7.433-5.107 2.391.717 5.875-.224 8.216-1.107 3.752-1.416 4.706-2.52 6.956-5.26.607-.74 1.872-.973 2.105-1.785.174-.603-.42-1.423-.346-1.861.125-.746 1.447-.578 1.715-1.392 1.569-4.772-2.9-12.69-6.145-16.22-3.376-3.673-10.013-4.204-9.23-9.926.586-1.386 1.45-.561 2.51-.395l.32-2.573c.997 1.481 8.94 4.783 9.22 5.25M525.834 686.147c.255.144.197 1.447 1.168 1.047l1.959-1.301c2.417 3.006 2.452 5.961 1.105 9.456-1.042 2.706-4.189 4.674-2.711 7.876l-2.551.702c-1.069 1.65 4 4.283 3.83 6.392-1.35-.523-3.526-.901-4.7-1.426-.93-.416-.844-1.526-1.573-1.773-.689-.235-1.701.104-2.71-.342-2.597-1.148-4.508-5.87-3.85-8.653 3.591-.298 6.584-.942 8.257-4.331l-.218-1.49c-.867-.657-1.806-1.216-2.728-1.79-.982-.613-3.208-1.932-4.26-1.898-2.943.095-10.137 4.185-12.298 4.253-3.037.095-7.967-.9-9.988-3.45-.022-1.255 10.685-1.314 12.397-1.739 1.25-.31 2.284-1.466 3.88-1.91 4.747-1.323 10.739-2.011 14.99.377M317.056 436.31c-4.956 2.008-6.537-1.943-11.172 1.381-.445.32-4.185 5.065-4.905 1.511-.258-1.275 2.416-2.127 2.516-3.8.035-.58-1.142-7.245-1.384-8.26-2.718-11.403-4.057-11.96-1.843-24.657.317-1.816-.622-4.072 1.036-5.39.008 3.813 3.281 3.568 4.003 8.198 1.203 7.709-.853 15.554 4.386 22.628 2.26 3.051 7.308 3.814 7.363 8.39M263.032 651.148c-.413.848-1.539 2.733-1.664 3.196-.42 1.546 1.626 3.113-2.68 3.773-1.572.24-2.784-.672-4.285-.542-2.194.19-3.49 2.301-6.112-1.024 1.166-5.194 6.516-7.685 8.457-12.653.63-1.61.199-3.458 1.085-4.703 2.67-3.75 3.668 1.403 4.865 1.51 4.907-2.038 9.461-7.482 15.13-5.624-.1 5.373-2.364 5.084-5.458 7.718-1.105.94-3.612 3.783-4.394 4.276-3.086 1.943-2.55-.84-4.944 4.073l-.003-1.283h-1.28v1.28z"/><path d="M244.002 477.223c2.734 3.851 11.388 17.898 11.849 21.975.153 1.363-.6 2.47-.401 3.532.229 1.225 1.657 2.364 1.814 4.68.093 1.384-.651 9.082-1.134 10.385-1.835 4.961-8.931 7.167-12.609 2.84-3.193-3.758 4.777-3.088 6.611-4.276 2.437-1.578 2.107-8.1 1.988-10.924-.386-9.166-6.486-22.954-12.31-30.133-1.444-1.779-3.665-1.144-5.42-2.298-2.571-1.691-2.204-7.3.607-6.4.757.242 1.44 2.119 2.283 2.867 3.504 3.11 4.036 3.97 6.722 7.752M440.312 512.928c2.235-.627 6.893 3.655 7.988 5.414-1.756 3.397-3.514 6.472-4.404 10.425-2.397 10.648-1.786 20.388-1.433 31.36.049 1.502 1.851 4.628-.979 4.875-4.74.414-3.46-11.38-3.53-14.509-.106-4.598-.508-9.352.083-14.079.472-3.768 2.51-8.71 2.49-12.302-.014-2.393-3.988-10.127-.215-11.184M341.345 537.408c.86-.081 1.085-.047 1.788.477 3.395 2.528-.884 14.583-.085 18.77l-3.134 10.26c-.99 1.433-4.619.41-4.72-.983-.061-.845 2.078-2.682 2.572-3.735 3.148-6.711.246-6.082-.643-11.901-.108-.708-.632-6.46-.598-6.803.206-2.106 2.376-5.853 4.82-6.085M425.884 745.562c-3.016-2.16 1.759-7.04 2.725-8.902.47-.904.129-2.188.387-2.697.377-.744 2.054-1.168 1.964-2.98l5.077.889.604 1.218c-.611 1.331-.334 3.205-.767 4.413-.377 1.05-1.475 1.583-1.92 2.582-.832 1.874-1.09 5.983-4.041 6.256-.473.043-3.768-.592-4.029-.779M398.407 705.82c.734-.039 4.22-1.858 4.82-.007-1.794-.366-3.483.964-4.97 1.142-4.672.562-15.922.136-19.2 3.968-.318.372-2.419 3.08-2.53 3.263-.374.616.932 3.665-1.262 3.208-2.77-.576-1.818-5.284.629-7.076.642-.47 5.6-3.655 5.94-3.755.339-.1 6.574-.743 6.927-.743 3.193 0 6.465.167 9.646 0M165.276 623.493c.287 1.41-.694 1.462-1.576 1.955-3.19 1.782-7.832 4.365-11.543 3.82-1.26-.184-5.532-2.337-4.238-3.847 2.338 1.12 16.585-2.606 17.357-1.928M351.775 415.092c-1.463-2.024-4.067-6.12-4.844-8.335-.43-1.228-.066-2.417-.312-3.443-.107-.443-2.864-.858-.304-3.003 1.803.058 5.884 12.465 5.46 14.78M374.29 361.07c-2.186 3.056-5.69 6.568-5.671 10.608.006 1.214.67 2.336.892 3.503.125.662.834 2.11-.357 1.957-2.395-6.593-1.917-13.024 5.136-16.069M424.45 704.537c.161 3.416-4.395 6.335-7.05 8.056-.86.557-1.28 1.266-2.593.939zM352.421 812.598l-5.12 2.91c-3.516.48-7.31 2.052-10.308-.668 2.662-.171 5.277.725 8 .284 2.36-.382 4.703-2.777 7.428-2.526M570.432 617.053l-1.952-2.2c3.18-6.701 5.136-2.796 1.952 2.2M246.311 200.899c-1.151.609-3.834-1.762-3.846-2.245-.06-2.547 3.848.882 3.846 2.245M394.227 200.912c-.396 1.376-2.133 1.295-3.209 1.923-.185-1.982 1.616-2.082 3.21-1.923M413.517 714.185c.655.646-1.255 2.582-1.922 1.923-.655-.646 1.255-2.582 1.922-1.923M335.701 263.299l-.004 1.283-1.276-.968zM53.056 665.298q.626.322 0 .643z"/></g></svg>