<?xml version="1.0" encoding="UTF-8"?><!DOCTYPE svg PUBLIC "-//W3C//DTD SVG 1.0//EN" "http://www.w3.org/TR/2001/REC-SVG-20010904/DTD/svg10.dtd" []><svg xmlns="http://www.w3.org/2000/svg" xmlns:xlink="http://www.w3.org/1999/xlink" data-name="Layer 1" height="294" viewBox="0 0 199.45 294.09" width="199"><path d="M112.12,188.67c-.93,1.4-.1,3.08.94,4.17,1.4,2.12,2.95,4.47,3.16,7.05-.11.76-.08,1.59-.41,2.28-.63,1.25-1.99,1.67-3.25,2.03-.04.01-.09.02-.13.03-.17-.21-.35-.42-.53-.62-1.87-2.13-4.18-.4-3.4,2.08.21.63.69,1.08,1.2,1.48,1.23,1.21,1.89,2.82,1.89,4.54-.14.23-.29.47-.45.69l-.13.15c-2.1,1.36-4.84,1.71-7.29,1.34-.86-.18-1.42.73-1.51,1.47-.28,1.74,1.52,2.35,2.94,2.35h.47c3.36,0,7.22-.58,8.71-4.01.91-2.25.57-4.93-.49-7.21,2.92-.6,5.54-2.89,5.46-6.06.54-2.23-4.09-15.6-7.16-11.76Z"/><path d="M75.76,193.65c3.17-1.81,5.88-4.13,8.14-7.01,2.44-1.73,5.5-1.79,8.41-2.17.69-.09.96-1.01.9-1.58-.07-.62-.51-1.29-1.21-1.18-2.91.48-5.74,1.35-8.55,2.21-1.88.39-3.05,1.42-4.46,2.78-2.05,1.9-4.33,3.26-6.83,4.68-1.67.81-3.4,1.3-5.25,1.27-2.1.61-1.81,4.29.4,4.5,3.07-.14,5.85-1.98,8.46-3.5Z"/><path d="M90.08,238.97c-.57.11-1.13.53-1.43,1.03-4.33,7.15-8.7,14.77-15.44,19.91-6.21,4.09-13.03,7.21-18.74,12.07-5.57,4.04-11.23,8.33-14.24,14.72-1.02,2.09-3.82,5.54-1.01,7.32.18.04.34.07.49.07,1.6,0,1.85-2.44,2.37-3.67,1.58-3.47,3.51-6.48,5.72-9.67,3.29-5.41,9.51-5.97,14.8-8.33,6.24-3.2,11.08-8.49,16.77-12.52,3.92-2.9,7.39-6.45,9.81-10.71,1.32-2.89,5.27-6.26,2.81-9.49-.47-.55-1.17-.87-1.89-.73Z"/><path d="M148.4,57.03c-.94.76-1.11,2.03-1.6,3.07-2.18,5.92-4.57,11.77-6.61,17.74-1.39,3.29-2.98,6.52-4.05,9.93-1.32,4.61-1.87,9.4-3.48,13.94-1.69,4.19-3.49,8.26-4.28,12.75-1.12,2.38-1.27,6.04.64,8-.48.15-.88.61-1.08,1.12-1,2.56-1.94,5.14-2.95,7.69-2.88,5.67-5.2,11.69-6.83,17.83-.67,3.91-1.78,7.69-2.94,11.49-.76,2.29-1.61,4.55-2.45,6.8-1.64-.52-3.31-.91-5.01-1.13-6-1.05-11.54,1.3-17.25,2.78-9.62,2.33-19.57,3.13-29,6.31-6.49,2.21-12.31,5.87-17.11,10.73-1.47,1.38-3.17,2.47-4.54,3.94-1.46,1.71-2.69,3.76-3.57,5.82-2,5.07-4.24,10.25-5.93,15.48-1.29,4.03-2.31,8.12-4.13,11.97-4.85,8.47-10.32,18.55-16.55,26.13-2.28,1.84-4.72,3.41-6.86,5.42-1.71.87-3.54,2.6-2.55,4.66.37.71.83.98,1.32.98,1.08,0,2.29-1.31,2.96-2.2,3.88-3.05,6.18-7.56,10.03-10.65,3.3-3.33,6.45-6.93,9.22-10.74,2.92-4.53,4.24-9.67,6.45-14.59,2.94-6.2,6.44-12.2,7.99-18.96,1.48-4.37,2.3-9.2,4.38-13.37,1.81-2.54,4.75-4.1,7.7-4.9,7.86-2.95,15.77-5.73,23.53-8.98,7.29-2.56,14.7-6.01,22.54-6.27,3.82.66,7.66,1.94,11.57,2.37.93.22,1.92.37,2.93.51-.29.89-.57,1.79-.83,2.69-.1.43-.27.91-.45,1.42-1.07-.32-2.31-.11-3.42.51-7.94,3.63-15.51,8.19-22.33,13.67-3.31,2.27-5.76,5.61-9.21,7.67-4.55,2.95-9.96,3.91-14.91,5.98-1.48.67-3.09.8-4.69.92-.61.07-1.06.7-1.25,1.23-.34,1.01-.09,2.37.86,2.98.78.5,1.75.25,2.57-.02,2.43-.88,4.9-1.71,7.24-2.79,4.27-2.47,8.48-5.08,12.98-7.1,3.67-1.11,6.83-3.24,10.06-5.24,4.09-2.59,7.82-6.01,11.81-8.89-.03,1.66.47,3.38,1.43,4.19.39.34.75.49,1.08.49,1.37,0,2.08-2.56.9-3.69-.1-.76.32-1.42.53-2.11.16-.43.17-.96.05-1.45,1.35-.76,2.74-1.42,4.2-1.93.29,3.1-.27,6.38-1.57,9.3-.51.42-.81,1.2-1.01,1.96-.71,1.18-1.56,2.28-2.54,3.22-4.42,3.83-9.46,6.84-13.62,10.99-2.1,1.97-4.13,4.11-5.78,6.46-2.32,3.86-3.06,8.47-3.9,12.83-1.08,5.77-4.93,10.16-8.79,14.37-4.36,4.92-9.08,9.5-14.35,13.44-1.05.81-1.14,2.57-.6,3.68.32.66,1.04,1.23,1.76,1.23.27,0,.54-.08.79-.26,2.09-1.51,4.1-3.12,6.1-4.74,4.01-3.02,7.61-6.68,9.8-11.24,2.57-4.3,3.71-9.13,6.02-13.57,2.2-4.73,4.5-9.51,7.46-13.81,1.45-1.78,2.94-3.53,4.44-5.25.83,2.16,2.86,3.65,3.92,5.73.45.85.95,1.7,1.46,2.55-1.46,3.38-2.91,6.77-4.04,10.3-.8,2.35-1.57,4.71-2.45,7.03-.46,1.21-.15,2.96,1.02,3.68.28.17.57.25.85.25.86,0,1.67-.71,1.94-1.6,1.71-5.25,3.53-10.52,4.82-15.9.87,1.67,1.6,3.4,1.96,5.29-.59.1-1.19.11-1.79.16-1.16.09-1.23,2.14-.13,2.39.45.05.86.08,1.24.08,7.03,0,2.5-8.01-.26-12.9.02-.09.04-.19.05-.28,1.04-4.23,2.69-8.25,4.29-12.29.44.37.95.69,1.46.92.28.14.54.2.77.2,1.78,0,2.38-3.42.7-4.35-.41-.27-.89-.6-1.39-.84.53-1.46,1.03-2.93,1.46-4.43.45-1.26,1.18-3.09.68-4.4,2.7-3.26,4.73-6.82,3.89-10.91.39-1.04.51-2.4.84-3.23.37-1.38.71-2.76,1.03-4.15,2.33.36,4.57.93,6.29,2.33-1.39,1.22-3.24,2.96-2.11,5,.43,1.02,1.77,1.59,2.66.75,3.23-2.62,4.05-5.62,1.41-9.05-1.18-1.56-3.09-2.1-4.79-2.91-.77-.36-1.56-.69-2.35-1.01.35-1.58.7-3.15,1.07-4.72,1.76-6.15,5.01-11.6,7.46-17.47,2.78-6.78,4.17-14.01,7.04-20.76.22-.57.2-1.3-.06-1.89.92-.04,1.67-.78,1.78-1.72,1.2-2.12,1.76-4.64,2.87-6.85.44-.19.68-.63.83-1.07,1.58-3.87,3.08-7.78,4.53-11.69,2.33-5.33,5.02-10.53,6.56-16.15,2.22-8.05,2.48-16.56,6.12-24.2.79-3.35-1.36-7.4-4.97-4.69ZM99.62,212.1c-.27.7-.55,1.39-.84,2.08-1.15-2-2.45-4.31-3.89-6.13-.25-.3-.55-.61-.9-.79,2.47-2.76,4.97-5.49,7.46-8.24.74-.93,1.59-1.86,2.49-2.82-1.44,5.32-2.6,10.6-4.32,15.9ZM144.26,82.38c-2.46,5.86-4.62,11.87-6.28,18-1.23,3.58-2.5,7.13-3.56,10.76-.21.96-.76,1.99-.39,2.98-.12.46-.25.92-.36,1.4-.54,1.42-1.09,2.85-1.65,4.26-.08-.09-.15-.16-.24-.23-1.16-.94-1.06-2.28-.58-3.56.46-1.6.89-3.24,1.28-4.93.25-6.18,3.45-11.35,5.99-16.82,2.26-4.63,3.16-9.74,4.61-14.65,2.07-5.7,4.29-11.4,7.14-16.76.61,6.88-4,13.13-5.95,19.55Z"/><path d="M154.46,43.72c-1.03-.4-1.94.55-2.13,1.5-.25,1.91-1.37,4.11-.07,5.86.26.35.66.51,1.06.51s.83-.17,1.1-.51c.73-.79.67-1.96.86-2.96.31-1.45.91-3.61-.82-4.4Z"/><path d="M157.55,28.43c.19.05.36.08.52.08,1.53,0,2.01-2.4,1.53-3.67,2.01-6.42,4.08-12.81,6.18-19.19.2-.6.09-1.43-.49-1.79-.57-.34-1.17.09-1.36.66-2.12,6.41-4.17,12.86-6.25,19.28-1.58.89-1.96,3.79-.13,4.63Z"/><path d="M151.52,35.52c1.16,0,2.24-1.67,1.6-3.2-.87-1.52-1.26-5.3-3.48-5.15-3.2,1.34-.24,4.91.37,7.06.41.92.97,1.29,1.51,1.29Z"/><path d="M142.25,14.19c.37.85.88,1.18,1.37,1.18,1.05,0,2.03-1.51,1.46-2.91-1.16-3.27-2.36-6.54-3.55-9.82-.37-1.41-1.81-3.68-3.32-2.1-1.22,1.39-.21,3.19.45,4.59,1.33,2.96,2.52,5.99,3.59,9.06Z"/><path d="M167.59,32.25c.83,0,1.64-.86,2.1-1.59,1.56-2.02,3.26-3.74,5.09-5.55,1.4-1.39,3.04-2.89,4.7-4.36.76-.67.89-1.9.45-2.78-.39-.8-1.37-1.25-2.11-.59-2.94,2.59-5.49,5.15-8.31,7.96-1.53,1.51-4.87,3.9-2.92,6.39.32.37.67.52,1.02.52Z"/><path d="M123.19,18.17c.27.33.62.48.97.48.45,0,.91-.25,1.2-.68,1.28-2.01-.92-3.78-2.03-5.28-1.61-1.98-3.23-3.95-4.85-5.92-2.33-3.69-5.44.06-2.97,2.68,2.84,2.63,5.25,5.71,7.68,8.72Z"/><path d="M166.24,39.63c-1.97,1.45-6.64,2.08-6.14,5.23.29.6.76.83,1.34.83,2.09,0,5.59-3.12,7.19-3.57,1.72-1.22,5.53-1.85,5.06-4.58-1.22-2.43-5.66,1.53-7.45,2.09Z"/><path d="M197.84,28.41c-2.75.35-5.48.82-8.17,1.51-2.36.89-9.7,1.46-7.84,5.32.29.33.73.47,1.17.47.4,0,.8-.11,1.12-.31,1.72-1.03,3.65-1.64,5.61-2.1,2.53-.59,5.08-1.03,7.66-1.35.99-.13,1.93-1.03,2.06-2.03.12-.98-.66-1.62-1.61-1.51Z"/><path d="M157.64,55.22c1.62,0,3.77-1.7,3.42-3.2-.82-2.81-5.71.09-4.89,2.33.29.61.84.87,1.47.87Z"/><path d="M193.31,50.61c-2.46-.91-5.08-1.26-7.66-1.68-2.51-.27-6.4-1.36-7.77,1.49-.83,2.51,1.97,2.19,3.57,2.08,3.34.04,6.7.69,9.89,1.66.17.06.34.09.52.09,1.76,0,3.49-2.85,1.45-3.64Z"/><path d="M162.34,58.76c-.41.02-.83.01-1.25.01-1.2-.01-2.43-.03-3.42.66-.92.61-1.63,2.18-.6,3,.67.43,1.38.38,2.12.36.27.01.56.01.85.01,1.59,0,3.32-.26,3.77-2.05.27-1.04-.36-1.98-1.46-1.99Z"/><path d="M168.62,56.92c-1.59.48-2.76,3.27-.59,3.74h.74c.21.01.42.01.63.01,1.58,0,3.16-.19,3.69-2.01.55-2.49-2.94-2.25-4.47-1.74Z"/><path d="M163.1,70.68c.17.75.67,1.38.9,2.13.32.65.85.92,1.42.92,1.4,0,3.06-1.62,2.52-3.07-.41-.97-.72-2.3-1.84-2.64-1.48-.38-3.27,1.09-3,2.66Z"/><path d="M157.44,70.61c1.3,0,2.93-1.39,2.6-2.78-.64-3.05-4.68-.74-4.02,1.63.22.82.78,1.15,1.42,1.15Z"/><path d="M158.01,95.49c.16,0,.31-.02.46-.06.99-.27,1.8-1.19,1.83-2.23.07-3.67.11-7.08.31-10.8.46-3.18-3.22-3.1-4.01-.54,0,4.09.23,8.24,0,12.35-.02.84.69,1.28,1.41,1.28Z"/><path d="M184.18,76.57c-1.73-1.77-3.51-3.49-5.31-5.18-.57-.43-1.1-1-1.86-1.04-1.74-.25-3.54,2.02-2.31,3.53,6.25,4.1,10.92,10.22,16.1,15.57.28.3.64.42,1.01.42.55,0,1.13-.27,1.52-.61.64-.57,1.17-1.73.49-2.49-3.14-3.46-6.41-6.82-9.65-10.2Z"/><path d="M126.58,74.59c1.92,0,4.76-2.9,3.42-4.43-1.75-1.88-6.24,2.42-4.28,4.17.25.18.54.26.86.26Z"/><path d="M117.93,58.7c.77,0,1.67-.39,2.35-.56,2.2-.4,4.44-.6,6.67-.79,1.02-.09,1.99-1.08,2.12-2.09.06-.49-.09-.98-.48-1.29-1.26-.44-2.65-.22-4.04,0-.84.13-1.68.27-2.47.26-2.17.09-6.03.64-5.49,3.61.29.65.78.86,1.35.86Z"/><path d="M116.8,47.95c1.01.04,2.01-.86,2.26-1.8.3-.88-.36-1.82-1.3-1.78-5.42-.22-10.83.22-16.14,1.33-1.26.24-2.58.42-3.47,1.44-.75.84-.96,2.3.3,2.76.23.08.46.11.69.11.87,0,1.73-.46,2.55-.69,2.2-.81,4.62-1.03,6.95-1.2,2.55-.16,5.36-.29,8.17-.17Z"/><path d="M125.79,50.59c1.99,0,3.82-3.32,1.29-4-2.53-.82-5.28,3.06-1.88,3.9.2.07.39.1.59.1Z"/><path d="M140.89,53.54c-.38-.66-.8-1.31-1.39-1.81-1.51-1.03-3.7.77-3.46,2.45.09.78.77,1.3,1.18,1.93.35.5.82.7,1.31.7,1.49,0,3.19-1.86,2.36-3.27Z"/><path d="M108.14,135.07c-5.89-2.39-11.78-4.96-17.29-8.11-3.8-2.89-6.84-6.67-9.98-10.25-2.77-3.1-5.75-6.06-7.86-9.68-1.75-2.83-2.67-6.06-3.29-9.31-.84-3.53-2.38-6.85-3.03-10.44-.18-.76-.32-1.52-.79-2.15-1.12-1.16-3.17.07-3.48,1.43-.33,2.44,1.17,4.76,1.91,7.02,1.25,4.51,3.56,8.55,5.64,12.71,2.36,4.8,3.81,10.45,7.16,14.78,2.47,3.55,6.15,6.01,9.85,8.13,5.42,3.62,10.83,7.98,17.1,10.26-.03,0-.06-.01-.09-.02-3.98-.87-7.81-2.24-11.51-3.91-4.71-2.42-10.1-3.81-14.07-7.45-1.74-2.29-3.13-4.81-5.09-6.96-2.18-3.97-5.4-7.32-7.45-11.35-2.43-5.65-3.69-11.79-5.14-17.75-3.43-9.79-4.47-17.84,1.16-27.15,1.65-3.39,3.83-6.47,6.01-9.54,1.36-1.87,4.2-3.99,2.31-6.58-.63-1.04-2.14-1.36-2.95-.37-4.55,4.89-7.58,10.99-9.31,17.4-1.13,8.38-2.27,16.91-2.05,25.39.46,5.86,3.4,11.12,5.46,16.54,2.01,3.81,2.64,8.3,5.29,11.77,2.71,3.63,5.6,7.46,9.5,9.84,3.96,2.54,7.59,5.67,11.74,7.95,5.15,3.1,10.99,5.11,16.71,6.88.4.15.78.21,1.13.21,1.55,0,2.52-1.34,1.91-3.08-.24-.66-.72-1.02-1.28-1.25,2.32-.19,4.51-3.8,1.79-4.96Z"/><path d="M69.4,43.27c5.58-4.72,12.4-7,19.39-8.74,4.16-1.03,8.25-2.51,12.54-2.84,5.02-.14,10.03.49,14.98,1.28,2.11.23,4.28,1.14,6.33.23,4.31.92,7.96,3.34,11.26,6.21-1.28-.58-2.58-1.13-3.94-1.5-4.71-.74-9.15-2.52-13.76-3.67-8.88-2.46-17.68.92-26.17,3.32-8.81,2.52-15.23,8.18-18.85,16.58-3.92,6.72-7.19,13.83-8.58,21.54-.14.77.28,1.09.8,1.09.61,0,1.35-.45,1.45-1.11,1.52-5.76,2.45-11.85,5.48-17.04,3.25-5.94,8.8-9.88,14.31-13.59,3.11-1.74,6.09-3.75,9.38-5.14,2.78-.8,5.7-1.04,8.57-1.39,2.5.12,5.11-.06,7.73-.25,6.2-.43,12.49-.86,17.7,2.72,2.35,1.5,5.64,1.85,7.29,4.22.44,1.01,1.94.94,2.72.3.49-.37.8-.76.98-1.16.09.09.18.19.27.28,1.15,1.12,1.58,2.95,3.05,3.7.29.13.63.2.97.2.67,0,1.36-.25,1.78-.7,1.97-2.33-3.31-5.54-4.67-7.26-5.09-3.8-10.71-7.03-16.55-9.54-2.1-3.19-12.02-2.87-18.83-2.56-2.1.1-3.9.19-5.09.19-8.14-.03-16.55,1.2-23.4,5.87-2.95,2.58-6.47,4.52-9.61,6.9-1.75,1.59,1.2,3.03,2.47,1.86Z"/><path d="M48.93,82.94c.38,7.01.45,14.1,3.05,20.73.65,1.83,1.17,4.5,3.09,5.53.15.08.31.12.47.12.46,0,.91-.29,1.15-.68,1.07-1.99-.83-3.96-1.54-5.75-2.6-7.18-4.88-14.77-4.17-22.49,1.46-9.19,4.55-18.39,8.24-26.95.91-1.77,3.35-3.79,1.61-5.8-.64-.71-1.65-.68-2.18.14-4.72,6.67-8.64,14.14-9.8,22.32-.5,4.26.1,8.56.09,12.83Z"/><path d="M29.77,98.83c.29.27.62.39.95.39.58,0,1.15-.37,1.43-.97.99-2.1-1.09-3.57-2.43-4.82-.53-.53-1.05-1.13-1.8-1.32-.83-.2-1.51.47-1.75,1.2-.73,2.56,2.14,3.93,3.6,5.52Z"/><path d="M38.05,106.01c.32.38.78.58,1.22.58.49,0,.96-.24,1.24-.73,1.36-2.25-1.13-4.16-2.69-5.45-1.17-.79-2.61.52-2.4,1.85.06,1.66,1.64,2.61,2.63,3.75Z"/><path d="M27.02,107.77c.21.08.42.12.61.12,1.36,0,2.23-1.92,3.22-2.73.64-.67,1.27-1.35,1.91-2.02,1.09-1.21.43-3.81-1.29-3.98-1.58.28-2.42,2.12-3.6,3.09-1.65,1.38-3.26,4-.85,5.52Z"/><path d="M36.72,99.41c.87,0,1.56-.89,2.26-1.41.88-.74.88-2.18.38-3.13-.47-.87-1.58-1.49-2.45-.75-1.85,1.14-3.02,3.89-.71,5.18.18.08.36.11.53.11Z"/><path d="M35.39,59.78c.64,0,1.32-.24,1.86-.62-.09.61-.11,1.25-.17,1.72-.14,1.3.14,3.25,1.73,3.44,2.08-.23,1.65-3.1,1.98-4.62.02-.14.02-.28.01-.42.04,0,.07.01.11.01h.1c1.13,0,2.36-.72,2.61-1.88.28-1.94-2.13-2.05-3.38-1.18.27-.87.28-1.99.22-2.71.09-1.17-.39-2.92-1.83-2.99-1.86-.14-2.11,3.54-1.4,5.53-1.67-.51-4.52,1.32-3.3,3.16.38.39.91.56,1.46.56Z"/><path d="M52.94,29.71s0,0,0,0c0,0,0,0,0,.01,0-.01,0-.01,0-.02Z"/><path d="M48.41,26.37c.34.28.74.4,1.17.4.97,0,2.02-.65,2.47-1.47.15.34.47.62,1.05.75.2.04.39.06.57.06,1.61,0,2.56-1.65,3.18-3.01.73-1.03,1.29-2.92-.41-3.3-1.73-.36-2.93,1.18-3.55,2.58-.28.41-.58.94-.77,1.47-.08-.16-.18-.32-.33-.47-1.15-.82-2.17-2.07-3.62-2.31-1.17-.1-2.7.77-2.73,2.03.12,1.58,2.02,2.19,2.98,3.27Z"/><path d="M52.89,28.45c-.36-.63-1.23-.95-2.06-.67-1.58.45-4.3,3.77-1.99,4.86.28.1.55.14.8.14,1.59,0,2.76-1.67,3.28-3.06.09-.22.12-.42.12-.61.34.63.87,1.06,1.48,1.58.34.29.74.42,1.17.42,1.68,0,3.61-1.96,2.2-3.39-.5-.43-.97-.93-1.55-1.23-1.31-.8-3.48.47-3.45,1.96Z"/><path d="M167.68,110.47c-.82,1.52-4.4,3.67-2.3,5.37.36.17.7.25,1.02.25,1.66,0,2.82-2.03,3.89-3.16.8-1,2.45-2.42,1.39-3.75-1.3-1.26-3.39-.2-4,1.29Z"/><path d="M166.88,119.19c-1.69-1.26-4.08.05-2.74,2.11.69,1.11,1.47,2.15,2.24,3.21.49.8,1.39,1.17,2.21,1.17,1.28,0,2.35-.91,1.38-2.55-1.07-1.27-1.77-2.93-3.08-3.94Z"/><path d="M161.98,118.5s.01,0,.02,0c1.58,0,3.38-1.68,2.34-3.15-1.42-1.46-2.86-2.92-4.42-4.25-.84-.56-2.09-.14-2.8.48-2.61,2.4,2.31,4.52,3.53,6.35.07.08.16.15.24.21-.14-.02-.28-.02-.42-.01-.87.06-1.44.69-2.02,1.26-1.3,1.12-2.63,2.27-.95,3.82.62.51,1.19.73,1.72.73,1.06,0,1.96-.87,2.86-1.88.42-.43.99-.93,1.06-1.63.08-.84-.46-1.53-1.17-1.93Z"/><path d="M77.97,96.69c.88,0,1.69-.57,1.49-1.54-.2-.94-1.24-1.67-2.18-1.67-.87,0-1.69.58-1.48,1.54.2.94,1.24,1.67,2.18,1.67Z"/><path d="M109.48,142.01c-.06,1.45,1.36,2.21,2.61,2.41.09.01.17.01.26.01,2.99,0,1.78-3.65-.76-3.67-.77-.04-2.06.11-2.11,1.25Z"/><path d="M135.54,26.62c1.26,0,2.32-.89,1.36-2.53-1.75-3.6-6.86-2.57-3.57,1.38.49.78,1.39,1.15,2.21,1.15Z"/><path d="M136.22,64.36c-1.81,1.05-.39,3.41,1.31,3.53.07.01.14.01.21.01,1.88,0,2.46-.98,2.26-1.97-.27-1.32-1.94-2.64-3.77-1.57Z"/></svg>