<?xml version="1.0" encoding="UTF-8"?><!DOCTYPE svg PUBLIC "-//W3C//DTD SVG 1.0//EN" "http://www.w3.org/TR/2001/REC-SVG-20010904/DTD/svg10.dtd" []><svg xmlns="http://www.w3.org/2000/svg" xmlns:xlink="http://www.w3.org/1999/xlink" height="662" viewBox="0 0 604.342 662.035" width="604"><g filter="none"><path d="M156.596 125.724c-2.862-2.17-11.456-8.244-13.238-10.512-.752-.958-.595-2.242-.737-2.383-.127-.125-1.358-.062-2.124-.51-1.517-.886-4.423-4.96-6.218-5.784-.207-.095-.787-.122-.711.234.77.675 1.093 1.546 1.324 2.513.046.191.605 3.32-.37 2.772-3.433-7.76-9.895-12.925-14.789-19.28-3.742-4.86-6.424-11.743-10.15-16.24-.92-1.11-2.648-1.638-3.309-2.93-.648-1.265-.366-2.34-.8-3.517-1.94-5.26-14.274-15.225-18.696-20.17-2.145-2.398-7.762-10.878-10.285-11.784-.563-.202-1.559-.376-2.113-.248-.556.128-1.792 6.5-1.788 7.47.02 4.393-.384 10.206.043 14.387.75 7.344 10.085 21.937 14.881 27.823 2.773 3.402 5.02 5.264 7.731 9.059.799 1.117 2.257.796 1.373 2.683 1.626-.05 2.166.921 2.867 2.189-.03 1.022-2.852.162-3.311-.04-2.11-.929-5.337-4.679-8.042-4.931-.877-.082-1.23 1.264-2.314 1.374-4.382.445-8.107-3.905-11.805-5.47-12.983-5.49-2.674 7.69.548 11.449 8.642 10.08 18.51 16.503 29.002 24.257 1.702 1.257 3.852 3.957 5.677 5.112 1.008.638 2.415.616 3.85 1.673 1.01.745 1.702 2.147 1.86 2.252.25.164.993-.332 1.673-.054 3.446 1.411 3.752 7.097 7.82 5.4.58 2.368-1.082 2.647-2.147 4.302-.77-.503-1.656-.883-2.135-1.739-.439-.785.218-3.061-.752-3.033-1.373.04.543 2.263-.953 1.905-1.01-2.847-1.309-1.426-3.238-2.038-2.593-.822-3.99-2.478-5.952-3.648-15.282-9.11-32.872-23.714-43.075-38.495-2.527-3.662-4.902-7.869-2.916-12.433 2.808-6.453 10.83.93 14.31 2.957 1.421.828 3.044 1.176 4.33 1.908 1.06.603 1.948 1.963 3.209 2.55.628.292 1.582.76 1.414-.452-5.89-5.454-10.785-11.89-13.663-19.447-3.696-9.707-7.297-32.826-3.5-42.351.72-1.807 2.563-2.479 1.565-4.655-6.59-4.868-10.284-12.418-16.864-17.205-4.567-.815-9.196-4.354-13.573-5.14-1.802-.324-8.371.403-5.294-3.331 2.463-2.99 7.87-1.91 11.01-.944 13.276 4.08 16.034 9.381 24.958 18.705 17.42 18.201 31.775 37.233 45.794 58.326 8.371 12.594 12.843 19.184 24.508 29.232 20.072 17.29 46.93 33.83 69.665 48.37 13.758 8.798 27.742 16.376 40.683 26.49 2.938 2.297 4.985 5.345 7.697 7.659 2.15 1.834 5.425 3.392 7.444 5.51 1.572 1.648 2.648 4.145 4.282 5.795 2.123 2.144 5.588 3.886 7.923 5.991 4.285 3.865 6.852 9.154 10.33 13.662 4.132 5.357 8.081 9.557 11.902 15.447 4.663 7.19 15.767 23.845 11.226 32.155-.483.883-1.462 1.464-1.756 2.082-.85 1.787-.874 5.121-2.344 7.013-1.264 1.628-4.4 2.54-5.852 3.984-1.892 1.88-2.868 5.383-4.343 7.653-3.05 4.692-7.323 7.556-9.399 13.153-3.597 9.7-2.507 23.904 2.882 32.793 2.71 4.468 6.221 4.885 5.865 10.97-.087 1.477-.579 2.656-1.032 4.018-2.648 1.894-9.536-8.655-10.59-10.67-8.896-16.993-3.74-38.961 6.589-54.03 2.821-4.116 8.947-9.648 10.978-13.493 2.458-4.65-.143-5.622.023-9.34.102-2.289 2.344-3.202 1.975-5.516-.234-1.473-4.823-10.4-5.867-12.409-4.76-9.155-9.192-14.712-15.255-22.651-2.32-3.04-3.602-7.2-6.274-10.04-2.903-3.085-10.426-9.137-13.932-11.979-7.439-6.029-15.988-10.613-23.217-16.128-2.312-1.764-4.212-4.837-6.165-6.445-6.037-4.968-15.058-8.57-21.859-12.552-3.156-1.848-6.435-4.482-9.672-6.153-2.143 1.682.826 4.395.403 6.136-.403 1.662-2.546 2.567-2.568 3.69-.019.946.878 1.48 1.146 2.171.167.43-.278 1.072-.112 1.332 1.383 2.162 9.361 1.912 11.915 3.472l-.731.958c-.53-.05-.979-.674-1.43-.72-2.113-.212-3.866-.297-5.644-.372-.62-.026-8.489-.595-7.547-1.787l1.443-1.443c-2.201.582-1.795-.84-2.613-1.452-4.35-3.262-7.524-4.6-12.817-5.914-1.998-.497-4.144-.617-6.156-1.036 1.14 2.005 3.094 1.763 4.655 2.532 1.323.652 4.07 2.87 4.947 3.195 1.344.495 3.324.583 4.78 1.24l-3.836.48c.257 1.426 2.471.679 2.848 1.01l.032 1.383h1.432l.008-2.395c1.277-.274 1.234 1.226 1.941 1.652.573.346 1.507.2 1.91.49.62.447.45 2.085.84 2.998 2.973 6.972 12.776 18.927 19.051 23.173 2.544 1.721 9.36 4.887 12.11 5.663.535.15 1.447-.554 1.825.06.92 1.488-.31 3.254-1.688 3.87l-.31-1.47c-1.736.175-5.193-.103-6.594-1.372-.559-.506-.206-1.384-.3-1.482-.181-.19-1.182.523-1.637.413-.442-.107-2.139-2.648-2.302-2.718-.65-.279-1.337.352-1.987.259-.483-.07-2.994-2.014-2.711-2.265l1.439-.719c-.674-1.318-4.242-2.355-4.684-2.786-1.01-.982-3.015-4.38-4.018-5.786-.798-1.12-2.254-.794-1.37-2.684-2.57.153-1.492-1.701-2.366-3.178-.63-1.063-2.45-1.32-3.33-2.428-.603-.76-.985-2.27-1.58-3.218-.736-1.175-3.478-3.042-1.342-3.436-.192-3.01-1.64-.81-2.44-.929-.424-.063-7.074-2.66-7.988-3.059-1.953-.852-3.013-2.288-4.52-3.156-2.28-1.311-6.105-3.749-8.367-4.593-.826-.308-.791.32-.696.934l1.918.732-1.187 1.506c-1.072-.125-2.005-.916-3.005-1.158-4.242-1.026-9.431-2.621-13.547-4.205-13.74-5.285-38.845-28.701-42.851-43.036-1.462-5.232-4.171-18.767 5.291-15.847 4.224 2.998 7.975 6.887 12.158 9.913 4.45 3.22 7.002 3.688 10.504 8.209.623.803 4.239 2.52.49 2.629 1.001 1.789-.104 2.189-.387 3.254-.584 2.202 2.554 3.638 3.5 5.362 3.266-2.663 8.176-5.321 11.283-.946-2.572-.31-8.019-1.717-9.114 1.442 3.67-1.049 8.241 1.332 11.694 2.94 1.67.778 10.63 6.416 11.814 5.217l-.009-1.42-3.825-1.463c-.092-.925 1.52-.424 1.94-.258 5.613 2.224 11.943 6.244 17.31 9.08.714.377 1.492.826 2.337.776l-16.079-11.508 1.68-.003-.468-1.222c-.783-.519-1.89.498-3.33.019-2.707-.9-11.236-7.776-13.95-9.833l1.44-.005-1.202-1.432zm-84.585-22.412c-.322-.314-1.486-.848-1.78-.615l1.448 2.39.957-.242c-.003-.46-.302-1.218-.625-1.533m65.552 21.773c-4.12-4.575-5.413-5.234-9.985-8.968-1.72-1.405-10.013-10.032-12.244-8.143.445 8.39 3.334 13.854 8.165 20.38 7.183 9.7 18.344 20.19 28.634 26.544 4.586 2.833 10.144 4.106 14.534 7.293.399-1.263-.73-.73-.94-1.326-.136-.383.112-1.016-.12-1.436-.49-.892-7.493-4.233-8.97-5.196-4.17-2.72-8.75-7.311-10.488-12.064-.577-1.58-.948-5.18-1.581-6.096-.527-.762-1.633-.773-2.38-1.457-3.083-2.822-.294-4.51-1.628-6.994-.947-1.764-2.137-1.582-2.997-2.537m-4.001-8.951c-3.075-1.644-6.101-3.335-8.629-5.764.78 4.033 3.999 4.59 7.331 5.861.433.165 1.375.87 1.298-.097m-34.546 10.552-.954.235.952.722zm64.775 1.92-1.435.235.725.717.71.002zm-60.456 1.439h-.955V131h.955zm54.219 7.197c-2.388.251-3.736-2.326-6.236-1.917l1.436.964c.113 1.36-1.035.71-1.238 2.365-.121.985-.084 1.264.252 2.196.539 1.497 6.134 9.097 7.374 10.155.824.703 2.396 1.165 3.451 2.068 2.394 2.049 7.998 7.717 11.095 8.02.685.066 1.489-.46 2.273-.317 2.317.423 9.298 2.593 11.051 2.266.928-.173 1.212-1.42 1.293-2.246 1.493-.117 3.162-.003 2.863 1.83 1.862.147 3.145-.854 4.768.524.212-.992-.477-1.119-1.1-1.535-8.652-5.78-16.373-10.918-25.711-15.552-2.593-1.287-4.519-3.943-7.844-2.575-2.067 1.965.143 2.613.793 3.868.293.565 2.026 4.08.514 3.807-2.123-.383-5.365-5.574-5.812-7.67-.182-.854.231-1.525.148-2.107-.111-.774-.976-1.566-.85-2.405.082-.553 1.903-.518 1.48-1.739m-42.461 2.397v.48q.467-.24 0-.48m1.674 1.437v-.955h-.47v.955zm33.59 1.44c.123-.895 0-1.66-.953-1.917l-.002 1.917zm21.596-1.435c-.276.275.399 1.428.717 1.427 1.328 0 .007-2.152-.717-1.427m7.674 4.791c-.416-.732-4.99-3.597-5.275-3.352-.877.754.662 1.03.944 1.192 1.309.757 2.922 1.621 4.33 2.16m-58.06-1.912-.954.235.952.722zm67.656 4.8c-.401.313 1.833 1.482 2.39 1.2-.395-.507-1.969-1.526-2.39-1.2m6.717 4.31c-.555-1.07-1.548-2.124-2.878-1.91.13.762 2.391 2.307 2.878 1.91m-14.396 13.442h-.955v.954h.955zm2.879 1.92h-1.435v.954h1.435zm3.36 2.39c-.287-1.09-1.504-.998-2.398-.95.288 1.092 1.504 1 2.399.95m39.823 35.036-.957.002.721.952zm-1.92.482h-.954v.47h.954zM598.895 285.603c2.056 4.306 2.96 12.739-3.756 12.86.528 2.648-1.042 5.415-1.522 8.072-2.387.24-3.37 2.244-6.154 1.525v1.436c2.929-.326 6.05.447 7.89 2.908 2.346 3.138.041 4.212.407 6.382.155.92 1.603 1.979 1.797 3.901.335 3.32-1.02 4.646-1.824 7.314-.42 1.395.096 2.792-.867 4.41-1.31 2.202-4.73 2.088-5.96 4.35 3.755 1.036 7.34 4.752 9.842 7.676 4.28 5.002 8.42 9.886-1.676 10.554-.437-4.444-3.039-9.201-6.299-12.175-2.574-2.35-5.627-2.238-4.268-7.005-3.09-.197-9.75-.748-11.029-4.09-.285-.744.133-.736.722-.728 2.911.04 6.172 1.653 9.346.973l-.72-.945-5.033-.967 8.772.49c1.321-2.073 3.351-1.63 3.72-4.552.112-.888.184-3.919-.468-4.37-5.42-.739-11.597-1.312-15.625-5.479-1.022-.004-2.822 8.02-4.2 8.477-2.512.833-3.697-1.364-6.113-1.287l.478 5.749c-3.144-.279-3.102 7.549-2.898 9.865.531 6.051 4.613 7.044 8.18 10.53 1.337 1.306 1.77 2.59 2.666 3.572.78.854 3.275 1.754 3.462 2.726.39 2.03-3.609 3.434-4.475 5.922-.478 1.374-1.575 8.092-.941 9.143 3.01 2.293 6.801 2.48 10 .398 1.57-1.022 4.134-5.83 5.635-2.605 2.52 5.412-4.601 12.649-10.112 10.36l.961 3.358c1.235 1.106 9.165-5.894 9.785-7.725l6.274-18.197c.191-.913 3.345.958 3.483 1.094 1.435 1.42-.354 8.178.133 10.666.243 1.236 1.79 2.171 1.883 4.396.064 1.558-.853 3.071-.383 4.686.242.83 1.079.34 1.376.601.379.334 2.34 2.141 2.431 2.28 2.608 3.934-5.038 16.075-10.592 13.23.852-4.187 5.18-6.691 5.726-10.862.344-2.62-1.812-1.7-2.606-3.05-.575-.98.347-2.642-.966-2.406-2.575.464-2.287 2.261-2.96 3.364-3.438 5.64-5.742 8.712-11.967 11.46-3.546 1.567-7.625 2.197-11.478 2.24-.596.007-1.108-.733-1.803-.637-.693.096-2.076 1.539-3.213 1.34l.956 1.912c-2.922.613-4.423-2.438-7.192-2.394.541 3.89.062 11.173 5.278 11.517l-.484 2.393c1.734.362 3.26.553 5.058.5.687-.02 2.872-.126 3.098-.973-2.055-.009-4.784.38-6.232-1.439 2.246-.688 5.02-.982 7.183-1.694 3.257-1.074 8.949-5.39 11.292-7.902 1.807-1.936 3.757-4.642 4.595-7.162.968-.625 3.91 2.52 4.172 3.658.9 3.92-.548 5.242-4.21 5.904l2.395.478c.349.258-5.471 5.824-5.998 6.233-1.886 1.462-6.481 3.436-7.646 5.309-.19.305-1.693 3.861-1.714 4.082-.112 1.136 1.093 2.341.984 4.268-.374 6.564-8.644 9.208-14.17 8.883-5.393-.316-13.985-5.309-17.158-9.707-1.163-1.611-2.117-5.094-4.063-5.533-8.197-1.845-14.564 3.228-22.209 3.736-.678-4.947 2.362-5.074 5.04-7.2 1.15-.913 1.634-2.184 2.667-3.09 2.22-1.945 5.287-2.08 8.127-2.19.283-.895-.793-1.188-.89-1.76-.111-.658 1.277-1.529.892-2.55-1.82.177-2.157-1.263-3.125-2.402l-1.67 1.434c-.16-2.507-1.192-7.126-2.472-9.285-.723-1.219-6.297-6.744-7.596-7.758-4.009-3.13-10.597-4.778-14.1-7.491-.711-.552-1.34-1.378-1.263-2.331 5.43-.238 10.012 2.916 14.548 5.36 3.856 2.077 6.904 3.096 9.92 6.873 1.313 1.644 1.963 4.058 3.601 5.515 1.086-1.57 1.104-4.398 2.36-5.792.524-.582 5.467-2.428 5.771-2.352.54.134.549 1.368 1.07 1.467.63.12 1.502-.415 2.232-.34 7.107.732 11.373 5.81 18.073 7.495-3.264-3.472-9.838-6.954-12.399-10.868-3.218-4.919-4.33-10.786-6.576-15.496-.444-.932-2.71-2.563-3.562-3.635-4.72-5.945-3.501-8.552-4.38-15.293-.73-5.597-8.628-1.117-10.16-4.25-1.16-2.374 2.435-2.81 1.58-5.626 2.309.211 4.316-1.14 6.52-1.395 2.87-.333 6.007.62 8.617-.98 1.612-2.959 1.56-8.034-1.702-9.868 3.078-2.539 3.803 4.046 4.547 5.995 1.521-1.158.292-2.834.336-4.077.068-1.894.548-4.063.623-5.994 2.255 3.433 3.566 10.569 3.122 14.634-.59 5.41-5.383 6.039-6.128 9.705-.651 3.201-.024 13.57 3.379 15.114 5.306 2.407 18.536.91 17.657-7.083-.182-1.653-4.8-6.596-5.667-9.706-1.01-3.624-.45-14.42 1.208-17.734.981-1.96 4.451-2.492 2.506-5.888l5.302.213c1.522-.786 1.534-2.817 2.355-3.836.472-.586 1.612-.724 1.864-1.494 1.276-3.9-.176-9.988-.85-13.876-.375-2.17.416-3.946-1.474-5.957 1.234-.367 1.158 1.136 1.536 1.366.282.172.948-.336 1.36-.161 1.166.495 2.142 4.182 2.764 5.364 1.62 3.078 2.52 3.282 3.23 7.325.115.65-.562 4.113.92 3.826.667-.13 3.539-3.073 3.518-3.577l-1.81-1.915 1.916-.242-.476-1.434c1.727.927 3.503-.349 5.274-.476l-.96 1.43c4.398.537 2.945-1.116 3.889-3.018.714-1.44 2.214-3.183 3.3-4.414-5.422-2.54-13.408-4.236-14.383-11.274l1.48.28c-.524 1.61 4.554 5.55 5.235 4.99-.793-1.217-2.15-2.16-1.915-3.833 2.394 1.205 12.6.882 13.67-.96.712-1.227-.436-3.572 2.553-2.782m-7.59 31.567-2.137-4.652c-.928-.139-6.197 1.89-6.757 2.722-.912 1.354 1.524 1.475 1.694 2.41-1.098-.088-2.472.232-3.508-.084-1.2-.367-.837-1.676-1.763-1.828-.865 2.36 2.161 4.036 4.114 4.3 2.456.331 6.66-1.02 9.453-.567l.822-.852c-1.388.191-2.78.533-3.828-.724zm-30.949 11.04v.48q.468-.24 0-.48m33.112.01-.715.715.226.226c.266-.306.966-.625.489-.94m-33.353 4.312c-1.871-2.008-1.49 7.643-1.397 8.354.078.6 1.73 6.308 2.835 5.076-.627-2.402-.693-4.9-1.067-7.325-.297-1.928-1.677-3.556-.371-6.105m11.514 29.269c-1.458.234-3.009.84-3.356 2.392.423.37 3.674-1.222 3.356-2.392m-12.232 9.114c-2.682.36-6.72 0-9.596 0-2.515 0 1.927 4.931 2.67 5.487 4.227 3.16 10.903 3.715 16.002 3.11.624-.073 3.35-.664 3.1-1.572-.312-1.135-1.918-2.59-2.57-4.156-.968-2.326-1.385-5.157-1.212-7.664-1.284-.328-.992.952-1.887 1.696-1.547 1.286-4.545 2.837-6.507 3.1m-17.516 17.28h-.954v.47h.954zm25.435 25.907c.144-.13 4.746.93 2.864-.708-2.137-1.86-4.308-.738-6.363-1.315-.624-.175-4.749-3.541-5.342-4.255-4.123-4.956-1.25-13.107-6.844-16.188-2.958-1.629-6.732-1.844-10.013-2.291-.99 1.46-3.788 2.197-4.675 3.134-.716.756-.262 2.28-2.26 1.955.608 1.466.436 3.182 2.4 3.36l-.001.942-1.436.733.701 1.12 5.056-.89-.959-1.429 3.097.027c.701-.133-.558-1.853 1.474-1.485 1.616.294 1.016 2.153 1.908 3.372.506.69 1.523.9 1.892 1.467 1.108 1.708 2.307 7.87 1.644 9.747-.257 1.077-1.714.526-2.241.874-.375.248-1.028 3.038-1.06 3.751l-1.429.226c1.737 3.668 5.142 6.103 8.897 7.46l1.44-1.485c6.236 3.73 14.31 1.937 15.013-6.047.126-1.426-1.368.283-2.794-.384-.55-.258-1.105-1.014-.97-1.69m-26.872-7.68 1.796-3.122-1.076-1.186-1.676 4.306zc-1.586 3.918 2.732 1.987 2.394-.96zm45.58-4.314-3.833 1.911c1.187-.24 3.18-.792 3.832-1.91m-4.076 3.355v.48q.466-.24 0-.48m-2.64 2.393c-.354-1.607-3.306-.419-3.835.48zm-4.8.97h-1.434v.47h1.434zm1.92 1.438h-.955v.954h.954zM555.321 247.602c-.267.285.392 6.816.592 7.8.187.925 2.462 7.74 2.772 8.03.857.803.803-.32.993-.681.97-1.836 1.505-5.33 1.88-7.476l2.66.46c.445 2.731 1.523 5.658 1.648 8.423.23 5.093-1.954 10.358 2.407 14.626l-6.415.342c-3.942-1.116-8.416-6.178-8.84-10.284-.126-1.225 1.247-3.03-1.39-3.38-.786-.103-4.197 2.287-5.244 2.725l-1.314-.92c-2.48.136-3.2 1.85-3.524 1.934-.814.212-3.76-.235-3.983-.011-.813 5.242 3.124 8.593 2.884 13.916 1.67-.396 2.223-2.03 4.313-1.436l-.954 1.432c1.362.805 3.095-.498 3.999-.362 1.447.219 4.124 3.02 5.162 3.917 1.683 1.452 4.74 2.124 1.394 3.885l2.865 2.884c-.91 1.487-3.171-.688-4.098.689-.515.767-.303 7.045-1.882 7.202-2.337-1.187-2.951-4.016-3.093-6.464l-6.466-1.593c-1.891 1.096-2.16 3.927-2.952 5.172-.307.484-1.183.682-1.595 1.283-1.356 1.973.229 2.088.65 3.102.279.667-.342 1.384.498 1.88-.418-3.88 3.673-.492 4.558.7 2.166 2.918.631 13.695-3.949 13.128-2.959-.367-2.355-2.653-1.96-5.1.24-1.488 2.551-6.738.807-7.25-3.651-1.073-7.252 8.277-11.35 7.082-.875-.255-1.145-1.578-2.26-1.358-.398 2.768 1.305 5.247 1.462 7.9.137 2.313-1.13 4.878-.976 6.234.077.684.785 1.205.926 1.964.211 1.135-.23 2.443.508 3.568-3.474 1.96-7.812-3.188-8.646 2.401l-.468-.001c.34-1.806-4.254-.738-5.4-.354-.793.266-1.172 1.284-2.028 1.314-3.004-1.946-6.68-3.218-9.378-5.508-3.61-3.067-5.564-7.41-7.186-11.762 2.372.998 4.811 1.89 6.964 3.346 3.59 2.429 4.707 5.551 9.625 6.209 1.06.141 5.672.609 4.767-1.4-1.148-2.548-3.694-5.295-5.045-8.398-.947-2.176-2.993-7.575-3.278-9.724-.221-1.663.562-2.665 2.293-2.489 1.006 3.13 3.5 5.59 5.311 8.367 1.507 2.312 3.442 6.827 5.252 8.526.74.695 1.397.925 2.412.84.32-6.37.283-12.046-1.433-18.231l2.399-.004c-.568-2.124.907-5.396 1.826-7.525 2.748-6.37 6.46-8.583 11.348-13.103.18-.357.732-4.382.737-5.04.007-.814-.454-1.596-.478-2.406-.15-5.058 1.11-6.442-3.894-9.056-4.357-2.276-7.62-2.763-12.07-3.764-2.462-.554-4.824-1.67-7.065-2.777l.269-.962c.784-.553 3.164-.063 4.21.091 3.545.524 7.112 1.75 10.292 2.66 1.32.378 3.368 1.03 4.66 1.106 1.799.107-.467-3.37-.238-4.325l2.162 4.314c1.165.294.787-1.596.682-2.125-.641-3.235-3.59-7.2-4.777-10.343l-.957.243c.006.262.128.51.198.757.368 1.286 3.162 5.448 3.156 5.957-.003.244-.559.962-1.176.226-1.799-2.147-3.032-5.814-4.087-8.39l1.911.724c-.121-3.132-1.795-2.496-2.884-3.185-3.746-2.37-6.905-6.792-12.02-8.567-1.408-.489-2.025.23-3.324.231l.952-1.195c-.766-.813-2.197-.908-1.908-2.393.824-2.647 9.301 2.224 10.714 3.192 4.416 3.024 14.645 16.719 16.548 21.882.683 1.853-.267 4.416 3.072 4.332l6.83-4.238c.345-1.135.774-2.386.772-3.582-.002-.755-.89-6.403-1.091-7.1-.349-1.206-3.382-2.781-3.183-3.842.067-.36.751-.767.763-1.062.006-.149-1.69-2.296-1.818-2.373-2.435-1.466-7.675-.114-10.197-.84-.208-.06-3.505-2.19-3.615-2.376-.444-.758.091-2.172.884-2.568l2.385-.233.008 2.397c3.873.942 8.872-.437 11.76 2.394l.232-1.427 1.44-.001c-.733 1.447.546 2.584 1.748 3.283 2.8 1.632 8.723.153 12.162 1.03.686-1.144-2.376-1.44-.965-2.165.356-.183 3.557-.72 4.108-.725 1.967-.016 5.348 1.868 6.607 1.017 2.516-3.769 1.603-11.162-1.372-14.417-2.208-2.415-11.94-5.502-15.45-7.079-.599-.268-.648-1.053-1.183-1.252-1.488-.555-3.199.112-4.215-1.529l11.527 2.388c8.703 2.737 16.337 10.311 17.2 19.744.255 2.792-.856 10.368-4.114 11.143-2.061.49-14.857-5.436-15.976-4.241m2.394-1.439h-2.394l.001.956h2.392zm-7.677 7.677h-.955l.003 2.397c1.083-.292 1.022-1.482.952-2.397m-18.13 37.014c.114-.072 2.267.456 2.29-.79.033-1.895-4.797 1.153-4.778 2.403.038 2.37 2.342-1.52 2.489-1.613m-3.22 3.29v.479q.468-.24 0-.48M89.901 255.751l-6.237.969c1.08 5.543 2.198 2.293 4.088 1.924 1.637-.32 3.941.165 5.742-.015 4.08-.409 6.517-3.913 11.426-2.773 1.971.458 6.818 3.482 8.514 4.909 1.905 1.603 9.913 8.991 11.02 10.582 3.593 5.165 4.36 19.258 2.547 25.109-.519 1.675-3.132 6.608-4.907 4.09.526-6.728 1.32-13.258.38-20.022-.357-2.566-.902-5.6-2.345-7.731-1.31-1.936-9.547-11.434-11.173-12.575-.42-.295-3.83-1.132-4.396-1.09-3.84.285-7.297 2.12-11.182 2.744-1.286.206-5.62-.415-5.328 1.241 1.448 1.68.26 3.025 2.09 4.642 2.673 2.363 6.783 1.157 10.074 1.441 4.852.418 1.506 2.347 2.355 3.374 2.995.552 1.395 3.364 4.573 3.875-.422 2.939-4.124-.236-6.104-.875-.967-.313-8.589-2.365-8.745-1.301-1.035 4.56 1.297 5.17 2.982 8.024 4.956 8.4 8.581 21.767 10.38 31.41.159.852-.381 1.646-.27 2.21.122.627 1.102.882.829 1.74-2.39-.069-1.63-2.435-2.153-3.841a361 361 0 0 0-3.363-8.623c-1.106 3.151-2.2 2.91-4.554 4.556l.953.718c-.734 2.344-6.952 1.048-7.7 2.097-.897 2.306-.53 5.287-.051 7.69l-1.608 1.235-1.41-1.45c-3.91 3.254-6.834 2.447-11.296.735-9.094-3.488-18.088-15.558-10.797-24.705.587 2.192-.547 4.183-.211 6.446.272 1.834 2.943 4.706.934 5.547l-1.688-2.875c-.424.015-.294.865-.221 1.179.192.822 3.819 5.896 3.827 4.33l-.96-1.917c.902-.824 1.664 1.183 2.382 1.936 3.011 3.156 11.307 9.253 15.375 5.753 5.2-4.475-.727-5.914-3.551-8.002-3.15-2.328-7.688-6.127-9.806-9.366-.854-1.305-1.766-2.904-2-4.47l1.214 1.438 1.905-.879c1.307.626 1.066 2.076 1.563 3.144.313.67 1.157 1.189 1.284 1.55.407 1.15-1.038 2.87 1.955 3.854 1.514-.019.254-.483-.109-.853-.512-.523-1.337-.922-1.572-1.79-.703-2.6 2.797 1.254 2.982 1.34 1.32.613 2.653.106 3.868.45.844.24 2.961 2.406 4.225 2.972 6.098 2.735 11.315.823 10.994-6.43.494-.06 3.095 3.602 3.354 1.67.252-1.875-4.541-11.09-4.792-13.798-2.068-.248-2.419-2.87-3.354-3.48-1.716-1.12-2.047 4.481-3.356 5.315l-2.195-.755c-.479-.954 1.525-5.243 1.705-6.942.419-3.954-.662-8.832-2.249-12.239-1.853-3.977-5.21-6.588-6.857-10.812l-1.205.264c-.802 1.04-.798 2.335-.759 3.599.163 5.263 1.884 10.32 2.888 15.372.104.525-.43 1.263-.332 1.83.105.618 1.115.884.831 1.74-7.524-1.595-6.14-11.35-7.679-17.028 1.804-.157-.002 3.124 1.919 2.636.754-3.121-1.22-7.123.749-10.053.316-.47 1.156-.591 1.412-.985.79-1.213-.096-3.38-.633-4.641-6.041-14.217-33.542-45.572-47.264-52.538-7.103-3.606-11.186-3.89-17.554 1.32-6.249 5.114-9.777 18.008-9.149 25.863.523 6.548 3.662 18.024 8.288 22.661.286.287 2.877 1.454 3.482 2.07 6.978-.174 10.375-5.864 8.996-12.39-1.039-4.915-7.815-10.358-2.204-14.895 1.604-.453 2.306.235 3.228 1.396 3.97 4.997 6.802 12.893 4.828 19.156-.92 2.92-6.604 10.016-9.354 11.278-10.568 4.852-16.112-8.262-18.007-16.537-3.183-13.888-1.321-35.089 11.334-43.877 5.47-3.8 8.187-3.993 14.343-1.474 12.38 5.065 35.267 29.753 43.661 40.787 4.48 5.889 7.545 12.878 11.76 18.832 1.546-2.72 7.83 2.457 7.441 2.984M77.43 303.742c-.12 1.877 2.393 3.722 2.172.944zm5.995 4.316v.48q.468-.24 0-.48m1.92.48v.48q.465-.24 0-.48m5.515.482c-.905-.186-1.293.614-1.907 1.197.508.743 1.027.83 1.907.718zm3.12-.002v.48q.468-.24 0-.48m1.198.962-1.914.715 1.19.72.722-.725zm-25.907 2.872c-1.432-2.827-2.961-.678-1.195 0 .281.107.817-.042 1.195 0M516.29 620.26c-37.221 30.471-93.646 54.995-141.225 33.838-4.454-1.98-8.505-4.65-13.117-6.556-4.49-1.856-13.292-3.657-16.75-5.8-.557-.344-.98-.703-1.024-1.412.016-1.457 4.458-3.372 5.911-2.52 10.749 3.731 21.143 10.774 31.917 14.149 19.743 6.184 40.216 6.277 60.19 1.924 26.356-5.744 51.532-21.522 73.062-37.297 1.66-1.218 2.067-3.418 4.558-2.394-.31-1.884.966-2.709 2.164-3.834l-.724 1.426c3.593.257 2.25-3.223 2.613-3.828.207-.344 4.426-4.382 5.292-5.296 8.04-8.481 10.656-13.463 15.996-23.829 1.274-2.472 3.57-4.986 4.758-7.718 3.617-8.318 6.021-23.862-3.532-28.837-5.074-2.642-9.556-2.872-15.066-1.277-2.917.845-13.436 5.791-15.98 7.532-5.523 3.779-10.23 11.839-8.75 18.666 1.839 8.488 9.038-1.907 11.923-3.015 4.038-1.55 4.122 2.426 3.589 5.508-.23 1.33-3.061 7.248-4.034 7.959-7.82 5.714-13.82-2.131-14.558-9.769-.68-7.046.224-14.376 5.255-19.688 4.813-5.083 21.592-12.996 28.587-13.184 8.744-.235 15.305 4.434 18.203 12.494 9.367 26.05-21.008 57.819-39.258 72.759"/><path d="M149.765 300.052c.144.081.124.832.367.836.716.013 1.3-.883 2.195-.773 1.344.164 3.049 2.084 4.52 2 .774-.043 1.31-.952 2.023-1.138 2.802-.733 12.538 2.972 15.819 4.016 19.023 6.056 27.85 13.818 41.403 27.777 5.696 5.867 7.322 6.956 15.652 8.338 10.555 1.75 21.48.839 31.85 4.617 2.478.904 7.177 4.169 9.38 4.53 4.927.81 8.575-3.42 13.355-.394.919.582 1.029 1.502 1.594 1.886 3.216 2.183 6.734 1.377 9.927 1.945 10.106 1.799 20.41 4.125 29.035 9.83 3.081 2.038 6.41 6.01 9.302 7.492 1.54.79 4.367.957 5.125 1.592.837.7.745 2.686 1.437 3.841 1.087 1.818 5.305 4.977 6.992 6.923.963 1.11 1.26 3.054 2.923 3.822 1.235.223 1.585-2.128 2.31-2.865 1.653-1.678 10.994-5.74 12.166-2.523.366 1.004.957 5.428.1 6.153-1.724 1.457-9.703 2.21-12 1.193-.993 3.606 1.72 3.213 2.435 4.153.227.3 2.186 6.406 2.335 7.147 1.841 9.143.877 18.731 3.31 27.88.496 1.865 4.079 8.627 3.23 9.792-2.337 1.165-4.926.126-6.057-2.168-2.073-4.203-1.785-10.463-2.383-14.89-.745-5.522-1.377-10.606-2.751-15.964-2.132-8.316-4.277-10.856-10.521-16.595-6.955-6.392-14.415-13.365-21.742-19.275-6.365-5.134-19.295-11.084-27.539-10.264-5.047.502-7.693.554-12.934-.123-3.214-.415-5.57-1.953-8.931-.903.176-1.584-1.195-2.665-1.642-3.806-.274-.699.599-1.491-.507-2.439-.231-.198-3.535-1.88-4.11-2.133-7.797-3.425-24.97-5.51-33.835-5.988-2.025-.11-3.725.572-5.266.507-1.556-.065-3.16-1.58-5.044-.998.698 3.534-1.854 6.628-5.132 4.173-4.028-5.267-7.874-10.783-12.87-15.196-1.823-1.611-4.07-2.697-6-4.555-5.154-4.962-6.146-8.579-13.462-11.969-7.55-3.498-18.623-4.114-25.255-7.372-.28-.137-2.863-1.928-2.966-2.077-.096-.137.81-1.716.393-2.307-2.78-1.035-5.734-1.506-8.587-2.212-.804-.2-1.535-.998-2.272-1.098-1.336-.181-3.55 1.487-2.537-1.526 1.217.746 4.55.764 5.165 1.108m207.387 95.812v-.955h-.47v.955zm1.92 18.716c.011-1.055.274-2.508-.95-2.88-.013 1.056-.275 2.508.95 2.88m.479 3.836v-.955h-.47v.955zm2.399 7.197v-.955h-.47v.955zm-.96 3.359v-.955h-.47v.955zM345.154 551.332c1.783 2.297-1.7 4.023-1.824 4.386-.083.242.487 1.122.331 1.976-1.178 6.44-16.905 15.27-22.865 17.013-4.812 1.407-14.922 2.244-18.691 4.303-1.395.761-.213 2.138-2.791 2.506-7.087 1.011-14.896 1.626-21.914.391-4.9-.861-9.784-2.652-14.65-3.582-1.208-.231-8.686-1.257-9.139-.984-.244.147-.356 1.062-.761 1.37-1.544 1.172-2.976-.073-4.393-.05-7.852.13-15.233.488-22.984-1.924-1.172-.364-2.296-1.598-3.368-1.674-2.752-.193-10.671 1.667-13.986 2.121-2.43.333-4.935-.079-7.377 1.023l3.63.903.504-.937c2.295.667 3.976.38 6.173-.459l.244.959c-.513.562-8.702 1.719-10.323 1.919-3.158.39-7.11-1.47-6.463 3.555l-1.443.289c-.722-1.027 1.822-2.018.955-2.874-.526-.52-1.59.237-1.675.956-.388-1.465-5.642-3.232-6.829-3.273-1.984-.068-.49 4.75-3.485 3.03-.212-.122-2.536-3.772-2.635-4.102-.235-.782.258-1.448.118-2.015-.31-1.253-1.951-4.65-.854-5.4l3.676-1.545c1.262-.218 5.318 1.994 6.662 2.736 1.32.729 3.136 2.578 4.185 3.013 1.58.656 2.703-.252 3.483 1.799l.733-.237c.723-2.23 4.505-1.484 6.215-1.921 1.326-.34 2.697-1.232 4.226-1.537 3.558-.71 7.178-1.011 10.801-1.195 1.855-.543 1.45-3.146 1.872-3.648.263-.313 1.928-.131 2.244-1.393.231-.922-1.969-5.182-1.406-7.503 2.192-2.091 4.098.3 6.047.611 4.318.689 8.879-.794 13.393 1.001 2.84 1.13 3.881 4.432 7.267 4.764 3.531.345 10.048-6.396 13.47-2.238 1.923 2.337-1.353 4.61-.81 5.136 7.434.71 14.945 3.003 22.317 3.834 13.945 1.573 38.528-3.455 50.103-11.778 3.263-2.346 6.306-6.416 9.62-8.847-.088 2.317-5.82 5.25-2.875 6.475-1.986 1.801-4.16 3.671-6.453 5.064-4.325 2.628-12.093 5.571-16.97 7.021-3.787 1.127-13.938 1.614-16.41 4.223-.196.207-.646.59-.47.724.234.008.474.03.711.001 14.37-1.732 29.25-3.843 38.922-15.303 2.163-2.562 4.213-4.406 5.009-7.957.163-.727-.366-.855.933-.726m-84.679 20.151v.48q.468-.24 0-.48m-72.212 1.435-.954-.955-.002.957zm70.293-.955v.48q.466-.24 0-.48m3.838.96v.48q.468-.24 0-.48m27.588 1.445-3.355-.244c.924.443 2.722 2.042 3.355.244m-31.426.954v.48q.466-.24 0-.48m38.624.004-2.876-.002v.955c1.05.023 2.506.264 2.876-.953m1.437 0h-.954v.47h.954zm-98.843 1.433v-.955h-.47v.955zm63.34-.472-1.435-.485c-.158.706.205 1.005.723 1.434l.71.002zm-63.338.956c-.752-.003-1.428.5-2.179.51-.916.012-2.852-1.155-2.611.2 1.17 1.32 3.23.558 4.796.725zM152.179 426.203c.273.167.3 1.134.844 1.27.387.098 1.904-.51 2.854-.466 9.335.441 17.863 5.296 24.49 11.551 1.54.359 1.296-3.335 2.141-4.06 4.331-3.719 4.105 5.074 3.85 7.205-.248 2.065-2.08 3.313-1.928 5.505 1.96-1.41 4.694-2.74 6.463-4.328 2.856-2.566 9.812-13.01 14.648-8.873 3.728 3.19-6.679 10.143-8.159 12.483-.076.356.504.329.712.234 2.204-1.002 5.125-5.768 8.387-5.288l.068-2.337c4.6-1.522 8.796-4.32 12.668-7.236l-.72 1.91 3.219-1.355c4.83 2.182-4.222 6.31-6.431 6.949-.82.237-2.548-.632-3.756 1.12l3.604-.472c.556.402-10.217 7.354-10.997 7.952-5.5 4.213-8.164 7.366-12.527 12.423-.799.927-4.729 5.53-5.27 5.78-2.74 1.272-2.828-3.574-.954-5.042-1.255-.024-2.522-.138-3.732.325-.524.2-7.468 6.662-8.275 7.576-1.052 1.193-1.62 2.693-2.863 3.61.918-3.396 4.31-6.818 6.967-9.103 2.187-1.88 5.289-3.38 7.371-5.123.546-.457 1.95-1.798 1.969-2.566-.848-.744-7.748 4.375-8.86 5.29-2.57 2.109-4.875 4.51-6.702 7.236-.862 1.287.577 1.147-2.184 1.386-.496-1.799 1.266-1.87 1.77-2.541 1.116-1.49 3.116-6.371 3.938-8.253l6.28-4.322c-6.336.063-3.102-5.351-3.946-9.484-.21-1.03-1.816-3.37-2.565-4.153-1.245-1.299-6.675-5.018-8.39-6.004-4.598-2.643-21.81-6.165-27.04-5.508-1.43.18-9.872 2.756-9.867 4.039 1.737 1.889 4.764 1.58 7.177 2.41 4.14 1.423 11.918 4.707 15.324 7.228 3.22 2.383 7.108 6.487 6.331 10.7l1.831.577.032 1.395-1.913-.24c.198 1.542 3.078 3.045 3.182 3.34.13.375.713 6.202.642 6.702-.183 1.288-1.379 2.616-2.15 3.633-1.014-4.026-.633-8.711-2.28-12.59-.439-1.036-3.226-5.489-3.986-6.57-.847-1.205-4.952-5.684-6.008-6.467-.389-.287-2.181-.948-2.355-.763l-.004 1.442c-.476.481-4.682-1.535-5.655-1.781-1.309-.33-7.156-1.601-8.056-1.542-.832.054-1.42 1.07-2.321 1.44-1.727.708-5.544.266-7.18-.575-1.392-.717-3.244-3.797-4.474-4.162-1.686-.501-8.538-.536-9.737 1.336l2.875-.001c-5.537 2.035-10.314 5.168-13.628 10.125-3.643 5.449-4.073 11.527-5.902 17.61-.58 1.93-1.522 6.474-4.163 5.891-1.295-1.062-.018-2.777-.28-4.037-2.41-.93.276-2.309.401-3.513.311-2.995-8.923-1.485-10.605-.993-4.433 1.296-8.182 6.423-8.784 10.889l-3.092 3.377a7.3 7.3 0 0 1 .205-2.426c1.557-6.295 4.636-13.978 11.666-15.684 4.175-1.014 7.558.228 11.643-.352 3.057-5.504 4.718-13.676 9.628-17.722 6.168-5.084 10.234-6.946 17.84-8.549 2.11-.444 3.717-1.935 6.092-2.067 1.598-.088 3.25.994 4.467.666.45-.12 3.67-2.461 4.725-2.988 1.687-.84 3.861-1.423 5.417-2.28.54-.298.686-1.161 1.097-1.402.693-.405 5.098-.989 6.138-.973.801.011 8.402 1.353 8.783 1.586m-18.617 3.255-2.393.481v.47c.658.224 3.012-.672 2.393-.95m77.253 11.517c-3.963 1.025-7.378 3.46-10.067 6.477 3.523-1.575 7.247-3.808 10.067-6.477m-14.397 6.715-.71.002-1.207 1.43c.884.117 1.41.032 1.915-.722zm-1.437 4.791 1.681-.953 3.592-3.84c-.424-.398-4.934 3.956-5.273 4.793m-41.504-4.313v.48q.468-.24 0-.48m26.147 9.602c-2.198-.925-3.284 1.511-4.315 2.868zm-19.192 1.438h-.955v.47h.955zm.48 2.877h-.955v.955h.955zM380.186 421.778l.955-1.438c.442.716.321 2.99.568 3.278.158.184 1.122.144 1.614.525 1.08.835 3.903 8.387 4.353 10.104.235.897-.34 1.696-.059 2.388.08.195 2.052 3.433 2.19 3.592.582.67 7.337 4.234 8.62 4.814 4.207 1.9 12.008 3.479 15.33 5.782.481.334 3.913 4.277 4.55 5.048 3.256 3.949.105 5.783.957 7.173 1.438 2.345 5.103.027 6.75-.037 1.394-.055 2.614.722 4.274.499 1.447-.196 2.293-1.268 4.332-1.445 14.717-1.281 25.498 6.707 41.005-2.663 3.958-2.39 13.147-8.607 16.144-11.685.899-.924 1.063-2.325 2.142-3.136 1.437-1.082 5.247-1.82 6.564-2.794 4.001-2.963 4.487-7.687 7.334-11.137 2.11-2.558 6.163-3.835 9.128-2.146l-.482 1.91 6.233.008c-.086.543-1.811.937-.954 1.913.731.833 1.398-1.456 1.708-1.47.927-.042 7.437 3.85 9.563 4.108.887.108 2.464-.421 3.535-.302.798-.475.69-7.369.327-8.593-.732-2.465-4.064-4.753-6.019-6.211 3.585-.415 8.781 4.011 9.851 7.178 1.896 5.61-.22 13.736-7.572 11.888-2.123-.534-2.024-2.38-2.359-2.672-.39-.341-7.752-2.45-9.676-3.538-.687-.388-.777-1.223-.865-1.272-.188-.102-3.718.506-4.23.67-4.7 1.506-4.535 5.171-6.246 8.628-2.5 5.048-10.066 9.97-14.934 12.895-1.37.823-3.146.926-4.722 1.996-6.852 4.653-8.54 9.193-17.68 12.07-11.764 3.702-19.37-.198-30.596.112-4.665.13-13.025 2.713-16.876 1.568-2.329-.692-4.817-3.134-7.066-3.97-3.216-1.194-10.593-1.53-13.917-.913-1.276.237-2.442 1.76-3.853 1.906-1.069-1.395 1.845-.592.235-2.182l-3.359.25c.208-.539 1.992-1.456 2.453-1.62 2.502-.888 8.369-.895 11.158-.634.317.03 3.227 1.67 3.17.1-.011-.333-4.772-2.746-5.706-3.401-1.742-1.222-3.469-4.15-6.06-4.012-.901.048-1.17 1.132-2.136.932l-.113-2.754c-3.03-1.337-8.993-4.651-10.214-7.79-.565-1.455-.385-4.258-.958-5.28-.322-.574-2.31-1.424-2.944-2.093-2.652-2.789-1.723-6.555-3.089-8.666-.617-.953-1.643-.852-2.217-1.386-1.305-1.212-2.704-2.723-4.238-4.156-6.873-6.418-7.816-16.684-6.878-25.632.312-2.98 3.655-14.302 7.9-9.45 1.593 1.82-1.267 7.069-1.597 9.515-.63 4.675-.468 9.83.71 14.396.765 2.966 2.408 5.644 2.768 8.747zm2.398 3.835c.153-.906-.56-1.591-1.434-1.434v1.434zm110.359 25.438c-.42-.327-1.994.693-2.39 1.2.557.282 2.792-.888 2.39-1.2M444.01 632.9c-2.854-5.084 2.837-5.645 5.278-8.388 11.3-12.694 23.58-51.834 22.478-68.561-.807-12.256-4.73-24.264-7.019-36.16-.907-4.71 2.71-9.842 4.223-14.267 2.08-6.085 4.757-15.254 3.22-21.488-1.319-5.345-7.852-4.538-7.492-10.374 2.697-1.353 7.052 1.144 9.049 3.06 1.578 1.513 5.875 8.977 6.212 11.059.69 4.264-.957 5.843-1.683 9.296-.4 1.897-.332 3.87-.828 5.89-2.634 10.725-8.549 14.392-5.966 26.881 2.931 14.179 8.22 23.284 6.144 38.553-1.66 12.213-2.921 22.705-7.864 34.36-2.513 5.926-10.453 23.929-15.731 26.493-2.13 1.035-4.641.91-6.81 1.828-1.336.565-1.908 1.604-3.212 1.817m33.34-71.014v.48q.465-.24 0-.48m-3.602 7.2h-.954v.955h.954zM404.132 529.302c.239 1.05.826 2.036.967 3.116 1.813 13.866 5.31 28.67-.483 42.14-.633 1.471-3.316 2.7-1.667 5.114 1.146 1.678 14.223-.816 16.83-.986 4.958-.323 13.738-.95 10.82 6.503-6.443.924-13.001.94-19.459 1.653-5.248.58-10.65 1.235-15.832 1.921-7.176.95-12.998 1.794-19.896 4.095-6.26 2.087-18.79 8.843-24.314 9.294-3.749.306-1.874-2.436-4.279-2.84-1.774-.297-14.56 2.985-13.126-2.082 2.267-2.553 5.88-1.423 8.77-1.814 11.33-1.534 24.958-9.653 36.767-12.655 6.78-1.723 14.578-1.917 21.587-2.644.561-.546-1.078-2.715-1.71-2.858-1.085-.245-1.36 2.629-3.083 1.9.098-1.167-.163-2.479-.018-3.613.67-5.23 2.908-11.36 3.715-16.918.674-4.647 1.012-18.457 2.862-21.586.283-.479 1.08-.59 1.131-.916.141-.888-.502-2.177-.542-3.272-.034-.944.56-1.811.553-2.369-.006-.397-1.502.037-.984-1.224z"/><path d="M326.784 595.143c.56.466 1.134 1.728 2.06 2.495 2.66 2.202 6.068 3.804 9.598 3.597l-2.2 1.422.076 1.935c-5.633 4.24-9.666-4.811-13.35-6.357-.686-.288-5.077-1.202-5.87-1.232-7.206-.265-35.003 7.718-40.074 12.759-2.743 2.727-2.739 4.768-3.932 7.926-1.782 4.715-1.982 4.925-2.45 10.095-.042.465-.823.834-.742 1.872.118 1.507 1.534 2.753 2.57 3.716.926-.555.527-.89.57-1.535.341-5.106 2.867-16.766 7.553-19.602.91-.551 1.844-.319 2.654-.705 1.165-.556 2.419-2.849 4-3.678 2.68-1.406 10.754-1.883 11.76 1.406.568 1.855-.638 1.602 1.956 2.826v3.97c-6.61 1.367-10.943 8.418-11.888 14.74-.238 1.586-.6 7.894-.332 9.345.158.859.744.833 1.193 1.208 1.294 1.081-1.25 1.043-1.838 1.425-.966.628-1.462 1.75-2.782 2.034-.746.161-3.435.046-3.508-.674-.192-1.866 3.822-1.985 4.813-4.28.855-1.98-3.279 1.255-3.832.724l2.876-6.027c.17-1.713-1.744-3.02-1.922-4.322-.354-2.575 2.824-9.152 4.404-11.397l5.193-6.078c-1.701-.132-3.479.157-4.964 1.028-4.806 2.818-7.31 8.993-9.106 13.926-.457 1.253-.253 2.706-.763 4.036-.46 1.202-1.976 2.838-2.428 4.304-2.868 1.158-2.671-1.42-3.359-1.973-.283-.227-1.002.156-1.695-.196-1.887-.956-4.36-4.899-4.569-6.966-.84-8.305 3.568-17.978 10.417-22.714 10.166-7.03 32.188-14.666 44.424-12.447 1.057.192 4.537 2.603 5.487 3.394M463.68 192.418c-.322-3.63-.58-7.5-.51-11.295.036-2.005 1.345-2.191-.907-3.393.98-2.538-.336-2.452-.482-2.933-4.795-15.786-13.53-26.464-20.754-40.58-17.574-34.344-27.372-63.51-25.696-102.77.154-3.61.371-7.28 1.077-10.81.47-2.348 4.712-13.394 4.54-14.115-.565-2.346-7.334 1.58-8.548 2.445.289 2.542-.347 5.14-1.054 7.568-.36 1.239-1.207 4.577-2.365 4.594l.98.724c-1.195 1.446-.845 3.863-1.269 5.073-.512 1.466-2.82 4.765-2.935 6.01-.215 2.303.903 6.541-1.098 8.582l.987.537c.182 3.348-1.837 4.179-3.865 6.18l3.354-1.2c.72 2.575-1.605 2.077-2.166 2.867-1.037 1.462.326 6.153-2.63 6.242.338-.702.536-1.347.53-2.15-.054-6.47.324-14.486 1.428-21.078 1.147-6.848 4.005-13.244 4.754-20.197.543-5.039-1.325-8.809 4.472-11.364 2.425-1.07 4.487-1.62 7.177-1.229.799.117 4.124 1.136 4.669 1.565.483.38 2.341 4.902 2.421 5.752.072.762.057 1.544-.138 2.289-1.148 4.377-6.14 10.326-6.974 14.135-.477 2.18-.932 7.147-1.06 9.495-.4 7.328-.049 18.523.483 25.898 2.616 36.334 21.166 66.414 38.958 96.832 3.936 6.73 5.977 8.827 7.434 17.036 1.05 5.918 1.184 11.517 1.022 17.494-.31.85-.702 1.975-1.836 1.796M189.228 389.63l1.684-.473.233.948c-2.56.518-5.105.356-7.679.007.857 1.486 4.967 1.146 6.37.85 1.611-.341 2.563-2.049 4.662-.85.227 1.616-1.772 1.35-2.391 2.284-.932 1.407-1.15 3.81-.486 5.386-.748.656-5.909-2.408-7.186-.236.398.394.74.858 1.194 1.195 2.988 2.223 17.466 6.41 21.254 6.614 1.428.076 2.65-.304 3.927-.854-.25 3.286 4.758 1.114 7.21 1.632 1.176.249 3.325 1.178 4.646 1.633 10.375 3.574 19.825 10.047 31.097 11.127 6.147.589 12.732-.187 18.945.97.132.796-1.184.534-1.692.494-1.165-.093-2.223-.503-3.343-.54-.841-.03-1.645.434-2.401.426-2.178-.025-4.734.11-6.665.047-3.16-.105-6.616-1.339-9.885-.91-.147.916.375 1.293 1.2 1.435 2.273.395 6.298.845 8.627.998 1.976.13 3.893-.767 6.004-.031-.202 1.004-.812.681-1.423.757-2.885.36-12.894-.358-15.975-.877-3.354-.564-7.497-3.33-10.908-4.2-.156.814.412 1.248.974 1.66.74.54 6.86 3.847 7.53 3.986 2.38.495 5.518-.095 8.042.113 4.643.384 9.375 1.554 14.001 1.733 2.14.082 4.768-.604 7.124-.299 1.69.219-.218 1.751-.324 2.802-1.8-.3-3.929.573-5.464.576-8.85.017-19.777-1.192-27.899-4.725-6.609-2.874-12.877-6.76-19.814-8.975-15.24-4.865-36.507-5.067-44.947-20.788-.727-1.354-1.124-3.928-1.87-4.847-1.159-1.43-3.214-.189-3.086-1.947 2.766 1.007 5.318-.61 8.274-.36.956.08 1.995.645 3.056.782 2.262.292 7.805-.238 7.384 2.457m45.095 27.826c.848-.802-2.355-2.15-2.706-2.327-1.428-.72-11.67-5.298-12.163-4.865l1.168 1.466zm1.682-2.876v.48q.466-.24 0-.48m-.96 2.399v.48q.468-.24 0-.48m9.834.964h-.955v.47h.955zM282.688 442.31c-.737 1.013-9.311 1.426-11.197 2.959-1.66 1.348-6.505 11.486-6.822 13.809-.807 5.902 5.65 16.754 3.486 21.24-.774 1.605-6.804 3.126-8.532 2.79-.807-.158-1.341-1.036-2.264-.87-.719 1.68 1.897 2.293 1.955 2.678.361 2.42-7.54 9.846-8.186 2.835-.28-3.041.277-5.392 3.224-6.844 2.04-1.005 3.336.568 4.369-.905.418-7.219-3.212-16.483-2.284-23.396.573-4.267 8.67-19.797 11.94-22.61 2.177-1.873 3.15-1.8 5.717-.884.689.246 6.954 3.501 7.248 3.785 1.07 1.034 2.346 4.037 1.346 5.412M457.503 374.21l-1.262-4.722c-2.358.802-3.516 2.95-5.284 4.302-.776.594-1.918.824-2.758 1.43-.774.557-.654 1.737-2.048 1.958-.911.144-.582-.84-1.297-1.13-5.025-2.032-9.377-2.353-12.459-7.68-1.031-1.782-1.718-5.193-2.77-6.346-1.043-1.141-3.327-1.429-4.784-2.413-4.212-2.848-5.147-8.764.604-10.183 1.598.67 3.238 2.926 4.906 3.233 3.943.725 10.278-.787 14.87-.476 4.27.289 10.946 2.57 13.374 6.299 1.64 2.518 4.826 12.115 3.764 14.699-.936 2.278-2.83.877-4.856 1.028m-23.107-12.411 1.203-1.438c3.359 5.178 11.528 12.874 16.09 4.567 3.57-6.497-1.335-7.55-6.973-7.922-1.881-.124-11.297.23-12.234 1.188-.445.455-.585.767-.5 1.418zm1.69 4.318v.48q.466-.24 0-.48M433.927 432.33c4.044-.262 2.974 4.688 5.991 6.727 2.63 1.776 9.416 1.386 12.219.211.432-.18 3.33-2.372 3.872-2.845.725-.633 1.867-2.799 2.595-2.634 2.963 2.345 4.926 5.33 5.001 9.236-3.658 3.5-4.58.527-6.071-2.404-.225-.443.147-.78-.81-.606-6.587 6.006-10.139 10.382-19.285 5.84-5.283-2.625-8.258-9.925-6.124-15.456-2.983-3.113-9.995-2.42-9.387-7.661 2.221-.075 4.197-.706 6.486-.482 2.146.211 4.005 1.62 5.782 1.89 2.277.348 5.258-.09 7.666.007 1.779.072 3.176.69 5.153.088 1.15.292 5.827 6.33 5.582 7.287-1.588 1.885-4.384 3.012-6.653 1.501-2.723-1.812-.731-2.757-6.044-2.637-.642.014-7.505.561-5.973 1.939m17.752 10.564-.957-.002.003.957zM202.658 249.044l-.478 1.912 3.834-.954c.154.912-.59 1.46-1.303 1.81-2.348 1.152-6.969 1.467-9.726 2.27-7.832 2.28-23.672 7.453-21.583 18.22.49 2.525 7.548 6.199 9.69 7.922.946.761 1.472 2.24 2.818 3.078 1.396.87 4.228 1.055 4.94 2.207.179.29-.624 1.124 1.097 1.389.862.132.546-1.483 2.072-.907l-.959 1.432c4.192.974 8.814 2.227 13.175 1.929 2.534-.173 7.599-2.76 6.98 1.43-7.654.29-15.268-.594-22.792-1.934l-.715 1.456c1.881-1.047 4.19.742 6.243 1.197 2.648.587 6.163 1.21 8.842 1.22 3.588 1.695 8.235-.55 12.257-.012-.003.344-1.198 1.32-1.352 1.381-6.656 2.701-21.283-.204-27.86-3.12-2.091-.929-3.057-1.403-2.963-3.997l-1.892-.026.247 1.429c-6.81-4.005-17.791-10.909-13.633-20.339 3.067-6.956 11.401-12.605 18.343-15.243 4.851-1.843 9.925-1.813 14.718-3.75m-22.316 33.593-.226.226 1.195 1.194.226-.225zm8.4 5.756-2.877-.963c.195.892 3.01 3.333 2.877.963M228.878 589.886c1.256 1.419 4.633 7.265 5.186 8.982.27.836-.132 2.327.266 3.325 2.183.475-.749-3.278.949-3.836 1.004 1.945.064 4.581.497 6.384.101.422 1.674.233.726 3.233-.652 2.063-6.21 7.055-8.296 8.011-10.968 5.027-25.55 3.073-31.082-8.528-1.699.001-6.664 5.984-8.42 7.41-4.598 3.73-10.359 6.508-16.485 5.53-.356-.057-4.973-1.722-5.21-1.865-1.386-.837-1.532-3.374-.034-4.278 3.216-1.11 4.038 1.47 6.2 1.823.99.162 5.51.06 6.485-.188 1.797-.458-.537-.744 3.106-.715 3.256.026 8.817-5.736 10.773-8.416-.615-.809-.967-.935-1.918-.49-.526.245-4.244 4.93-5.515 6.001-.539.454-.781 1.164-1.68.954 1.153-2.148 6.08-5.13 6.232-7.467.163-2.486-4.089-4.668-3.831-7.4.81-.089 1.57.466 2.158.955 1.362 1.132 3.578 4.6 5.06 5.522.419.262 1.057-.171 1.436.034 1.943 1.051 4.303 4.568 6.211 6.208 4.465 3.837 10.7 5.923 16.522 4.995 6.599-1.052 15.649-7.03 15.194-14.605-.1-1.666-1.123-1.647-1.684-2.67-3.635-6.629-5.4-12.233-14.077-13.275-2.516-.303-12.274 2.65-15.355 3.59-4.627 1.415-8.414 3.816-13.423 4.335-.714.074-1.26.49-1.08-.603.593-1.244 5.337-1.894 6.722-2.396 3.277-1.19 6.797-2.152 10.078-3.357 2.506-.92 4.695-2.934 7.554-3.476 6.017-1.141 12.766 1.79 16.735 6.273M518.853 410.741c-4.171.846-3.658-2.49-4.307-5.538-.101-.476.29-1.59-.724-1.175-1.35.554-1.934 3.7-2.791 4.65-.95 1.053-3.946 2.235-5.263 3.008-.48.282-.502 1.17-1.133 1.376-1.726.563-5.95-.056-7.708-.787-4.734-1.97-8.29-9.876-8.34-14.726-.028-2.76 1.52-5.037 4.234-5.882 1.305-.407 6.367-.444 7.958-.418 2.644.043 10.186.39 12.283 1.532.924.503 5.79 9.087 5.79 10.043zm-6.317-12.582c-.786 1.215-2.409-.494-3.128-.678-.691-.176-8.552-.654-9.434-.623-4.677.165-7.472 1.415-4.84 6.175 4.832 8.741 11.188 1.947 17.52-.648l.88-1.446-.444-4.11c-.883-.15-.257.871-.554 1.33M268.83 319.618l.026 1.638c1.609 1.055 9.194.955 9.576 2.444.58 2.268-3.703 1.433-4.562 3.067l1.24 2.879c-.377.27-4.586-.234-5.15-.61-.326-.217-.896-2.118-2.047-1.301-.304.216 1.274 1.709-.233 1.43-1.085-1.541-2.82-.707-4.298-.982-1.744-.325-6.713-4.13-7.959-5.508-.488-.54.071-1.183-.41-1.91-.569-.861-2.14-1.411-2.942-2.384-.783-.95-4.573-10.679-4.738-12.055-.273-2.29-.373-8.288-.026-10.476.313-1.973 1.982-3.547 4.046-3.165 2.491.46 1.91 7 2.214 8.846 1.5 9.085 6.579 15.078 15.263 18.087m-16.272-9.645-.955-.955-.002.957zm.95.968-.956.242c.66 2.448 2.917 4.753 5.05 5.982z"/><path d="m312.058 617.551-.484 1.913 1.084-.003c1.54 1.134-1.062 1.89-1.074 2.163l2.86 1.44c-.034 1.055-6.302 3.335-7.328 4.08-.577.417-.178 1.154-.632 1.488-.367.27-1.384.218-1.565.493-.287.438.036 2.94-.12 3.96-.311 2.037-1.557 9.973-2.189 11.208-.378.74-2.124 2.26-2.758 3.515-.416.824-.08 1.948-.735 2.623-.38.392-2.839 1.306-3.38.98-1.527-.919.336-9.038.48-11.077.349-4.978-.417-9.966 1.506-14.808 2.021-5.088 8.74-9.712 14.335-7.975m-3.842 7.677-.957-.002.002.957zM91.901 580.523c4.746.564 9.275 2.161 14.08 2.471 8.813.569 17.56-.968 26.346.054 3.064.357 1.248 2.818-.228 4.002-1.728 1.387-10.742.645-13.643.752-1.844.068-4.487.949-6.265.973-7.037.094-23.958-3.758-26.714-11.187-.333-.899-1.734-7.668-1.81-8.752-.076-1.094-.298-2.337.718-3.101zM138.215 590.82c.418.446.47 1.297.886 1.745 2.965 3.195 3.64 5.143 8.557 4.774 5.487-.412 10.42-3.032 14.18-6.94 1.34-1.394 1.513-4.096 4.352-3.562.049 4.853-3.308 10.501-7.528 12.863-5.987 3.351-18.425 2.635-23.026-2.935-.863-1.046-.952-2.873-1.647-3.874-.842-1.21-2.53-1.257-2.83-3.41-.22-1.56 1.926-.053 2.255.382.753.996-.106 2.779 2.068 2.25.804-.731-3.384-3.948-2.16-5.272 1.381 1.164 3.725 2.736 4.893 3.98m.146 4.652c.466-.46-1.51-2.716-2.397-2.392-.13.119 1.364 2.852 2.397 2.392M372.756 160.281c.438 3.447-.574 6.797-.241 10.302.452 4.771 3.696 13.775 5.66 18.33 1.561 3.618 6.09 9.095 5.375 12.862-.333 1.753-2.931 1.535-4.084.723-3.24-8.195-7.753-15.748-9.599-24.468-.681-3.22-2.014-11.41-.189-14.11.428-.632 1.363-.829 1.605-1.236.302-.51-.643-1.735 1.473-2.403M439.2 154.514c-4.02-2.679-11.365-3.064-13.301 2.286-.83 2.29-.024 3.333-.236 5.499-.12 1.23-2.072 7.806-3.06 8.012l-1.561-.52-.075-4.241c-4.071 3.3.59 7.897.482 11.993-2.715-.148-2.866-2.55-4.076-4.306-1.95.931-.55 2.606-.819 3.238-.041.096-.538.113-.648.299-.47.797-.422 1.954-1.643 1.728l-1.923-5.275 2.872 2.396-.498-1.636c4.39-3.423-.71-7.725 3.595-12.3 1.065-1.13 3.165-1.536 3.654-2.224.963-1.353 1.12-4.979 2.098-6.897 1.14-2.233 5.266-6.119 7.934-5.023.618.254 1.435 1.692 2.165 2.178 1.784 1.185 5.06 1.822 5.04 4.793M121.568 518.707l-5.756 1.44c-.132.105.252.613.472.722 1.523.75 10.698-.566 13.639-.216 2.387.283 4.945 1.538 1.739 3.115-3.77.065-7.531-.167-11.313-.295-2.296-.077-4.482.543-7.062-.086-5.288-1.29-14.236-11.655-15.09-16.985-.16-1 1.143-1.832-.534-2.319l.148-3.14 1.218-.246 10.754 15.637c3.988 1.101 7.466 2.946 11.785 2.373M113.893 484.15c-1.527.509-2.534-.726-3.62-.933-3.184-.607-6.123-.558-9.28-2.237-.393-.21-5.089-4.39-3.837-1.44.398.937 5.037 3.713 6.242 4.314 9.401 4.689 18.967.766 28.27 7.716.651.486 1.216 1.405 1.888 1.941.065 2.363-6.55-1.818-7.09-2.017-9.78-3.612-20.854-3.697-29.648-9.71l-.909.936c-.632-.454-1.126-.586-1.588-1.302-1.453-2.255.362-2.072.405-2.363.086-.594-.448-1.274-.198-2.466.343-1.642 2.154-3.766 2.836-5.845.662-2.021 1.676-6.531 1.92-8.64.25-2.143-1.172-4.927 3.085-2.662-1.91 1.355-.128 2.711-.071 4.302.034.958-.668 6.092-.914 7.181-.382 1.693-1.993 3.696-2.267 4.97-1.109 5.136 12.246 5.763 14.776 8.255m-16.798-8.635v-.955h-.47v.955zm-.235.962v.48q.466-.24 0-.48M363.945 216.85c.172.182 1.08-.212 1.392.345.92 1.64.81 6.66 1.502 8.503.262.7 1.235.63 1.364 1.125.44 1.679-1.203 6.647 1.67 5.524 2.072 2.787-.768 1.425-1.185 1.836-.053.92-.074 2.194-.739 2.899-.604.64-1.81-.263-2.15.686-.567 1.581.943.816.952 1.67-2.712.674-2.623-1.1-3.884-2.107-.77-.616-2.834-.896-2.847-2.448-.018-2.227 5.814-2.252 5.774-4.306-.537-1.772-2.136-2.586-3.06-4.145-1.96-3.307-7.956-16.65-.131-16.135 2.705.178.95 2.063.94 3.055-.006.503.282 3.37.402 3.498m.406 16.36h-.954v.47h.954zM457.914 205.374l-1.37-.785c-1.429-2.125-4.184-10.964-5.559-12.194-3.22-2.88-9.067-.427-9.202 4.497-.073 2.661 1.31 9.916 1.86 12.921.393 2.148 1.164 4.27 1.807 6.351-.04.433-1.778-.093-1.458 1.202l-.989-.71c-.207-2.96-1.37-5.793-1.823-8.698-.648-4.153-1.87-13.275-.762-16.963.991-3.3 3.11-4.053 6.563-3.753 2.631.229 6.828 2.884 7.473 5.522.868 3.545.716 2.63 2.12 5.557 1.117 2.327 2.275 4.517 1.34 7.053M384.504 466.403l-.465 1.688-2.604.222-.285 1.444c1.196-.087 1.797-.873 3.116-.983 1.577-.133 2.842.547 4.252.48 2.431-.113 6.19-1.85 8.699-2.377.346 1.189-3.01 1.775-3.12 1.93l.49 1.427c-1.31.355-2.716.57-3.986 1.062-3.884 1.506-9.497 5.147-13.265 5.929-3.297.684-6.57.978-7.203-2.934-.721-4.458 1.245-2.31 3.108-2.357 1.414-.036 6.287-1.193 6.947-2.65l-1.92-.009c-.29-.208 5.283-3.799 6.236-2.872M441.126 339.245l1.437-1.913c-.546-.445-5.103 2.828-3.606.469 2.457-3.87 7.256-2.276 10.784-1.174 7.822 2.445 17.318 8.786 19.131 17.27-.387.712-.81.754-1.56.7-3.245-.233-5.339-5.65-7.462-7.926-1.987-2.13-9.095-7.567-11.816-7.9-1.765-.215-5.04.321-6.908.474M458.391 409.3c-.416 2.444 1.967 1.538 2.46 2.209.955 1.3 1.42 6.342 3.639 6.834 1.403.31 3.553-1.076 6.014.56.908.604.661 2.432 2.043 2.42 1.253-.01 5.326-3.991 4.565-5.786l1.435.006c-.204 1.894-1.153 4.03-2.755 5.157-.658.463-7.755 2.676-8.749 2.805-2.822.366-2.543-1.045-3.47-1.4-2.132-.815-3.387-.044-5.608-2.055-1.315-1.192-3.624-5.576-3.81-7.274-.24-2.198 1.774-1.655 2.801-2.297.592-.37.144-1.595 1.435-1.178m7.2 11.04h-.954v.955h.954zM136.922 537.418c-.326 3.143-2.43 5.847-1.915 9.112 1.257.193 1.856-.938 3.087-.982 2.826-.101 4.38 2.055 8.08.876.372-.119 6.26-3.342 6.838-3.716 1.114-.72 1.49-2.268 2.62-2.893.661 2.288-.631 3.225-1.208 4.785-.55 1.488.121 2.462-1.707 3.57-2.232 1.355-5.37.517-7.868.769-2.079.21-4.128.95-6.238.99-3.276.06-4.33-.544-6.494-2.772-.405-3.438 1.86-6.366 2.471-9.68zm13.912 10.553-.233-1.437-.713.718zM210.815 306.144l-1.437 2.392 4.793-1.913c-.923 1.25-3.037 1.696-3.863 3.089-1.035 1.745.108 2.744 1.223 4.108 2.569 3.142 6.583 3.38 4.557 8.634-8.8-1.247-17.089-12.087-5.273-16.31m-1.924 8.63v-.955h-.47v.954zm5.757 5.28c.117-.884.032-1.41-.722-1.915l-.71-.002.002.71zM495.344 384.35c.73 3.943-2.85 4.628-4.755 6.523-.754.75-2.876 3.027-3.407 3.79-1.612 2.322-.896 5.49-4.793 5.043-.948-5.792 3.545-9.485 5.384-14.287 2.51-.928 4.877-1.3 7.571-1.068M137.806 536.377c-.207.128-2.451.468-2.318-.395 1.87-.118 1.408-2.167 2.013-3.507.835-1.846 1.926-3.502 2.635-5.522.567-1.612.749-4.112 1.584-5.849l-1.251 1.458c-1.426-.264-3.34 1.285-4.025-.497.946.58 3.143-2.213 3.3-2.746.382-1.302-.733-1.866-.745-2.302-.014-.492 1.625-1.796 1.766-2.91.183-1.441-.93-3.334-.471-5.153.095-.376.812-.245.903-.642.066-.287-.523-2.15 1.253-2.056.652.034 1.125 1.941 1.2 2.6.72 6.286-1.524 17.066-3.826 23.062-.253.658-1.81 4.33-2.018 4.459m3.431-18.637v-.955h-.47v.955zM266.635 635.134c.298.33 2.596 1.644 2.232 2.077-.052.062-.666-.087-.843.119-.205.236.193.858.047 1.328-1.332 4.302-5.358-1.861-6.305-3.69-2.659-5.131-3.2-12.079 1.108-16.453 2.765 1.901.054 3.182-.159 4.643-.105.72.324 5.054.535 5.998.463 2.066 2.06 4.509 3.385 5.978M70.706 270.632c.324.384-1.203 7.2-1.38 8.453-.272 1.941-.064 5.985-.5 7.573-.144.526-1.29.171-1.72.75-.432.577-.038 1.895-.954 2.407-.854-.633-1.082-1.072-1.223-2.126-.365-2.727.014-15.433 2.419-16.854.635-.374 2.364.753 3.358-.203M583.632 340.207c3.336 3.005 3.16 6.745 1.89 10.772-1.005 3.186-1.611 1.83-3.308 2.93-.786.509-.692 2.207-2.63 1.626-1.623-.487.358-4.085.649-5.048.19-.63-.086-1.53.133-2.265.265-.889 1.918-1.814 2.545-3.214.704-1.571.835-3.093.72-4.801M453.603 235.604c3.02-1.869 5.326-1.26 8.63-.957.266 1.292-.298.7-.956 1.195 2.364 1.11 1.685 2.39 1.435 4.561-.347.358-6.578-1.395-7.333-1.898-.957-.638-4.131-5.255-5.15-6.489-.864-1.047-3.22-2.727-3.353-3.855-.502-4.295 2.797 1.241 3.375 1.915 1.526 1.78 3.903 2.815 3.352 5.528M290.384 430.019c1.08 1.91 1.29 3.909.97 6.084-1.477.83-3.215.302-4.754.764-1.113.334-2.352 2.363-3.602 1.275-2.438-4.915 2.425-9.163 7.386-8.123M121.57 161.226l.953-1.196c-1.57-.574-1.384-1.948-2.353-2.912-1.171-1.166-1.713-1.6-2.892-2.853-.727-.773-1.893-.99-1.95-2.146-.727-.147-.575.744-.499 1.21.253 1.543 2.473 3.128 3.625 4.542.31.38 1.268.95.48 1.439-1.767-1.207-2.85-2.896-4.318-4.32-.587-.568-1.572-.714-2.13-1.228-.523-.482-5.577-8.905-5.783-9.574-.497-1.61 2.13-.215 1.463 1.661l1.886.025c-.66-1.856-2.34-3.004-1.43-5.272.887-.063.298 1.196.722 1.905 1.254 2.092 5.084 7.086 6.743 9.093.758.916 2.134 1.38 2.633 2.165.456.72.349 1.675.7 2.178.49.698 5.246 2.65 6.23 4.81 1.45 3.184-2.634.721-4.08.473M382.104 110.371l-1.433 2.165.953 1.426c-4.103 4.363-6.437 8.41-5.992 14.639-3.784-1.894-1.953-5.79-1.311-8.984.21-1.046-.065-2.184.21-3.149.143-.502 4.362-5.278 4.917-5.656.584-.397 1.907-.12 2.656-.44m-3.36 3.835v-.955h-.47v.955zm-.958.964c-1.543-.107-2.267 1.232-2.876 2.392zM179.586 423.292c.186.282-.523 1.087-.221 1.832.283.7 1.95 1.465 2.181 2.406-2.838.08-4.183-2.567-7.01-2.847-1.374-.136-2.35.4-3.307.358-2.377-.104-4.94-.713-7.433-.388 1.057-4.029 6.487-3.747 9.791-3.315.598.079 5.818 1.68 5.999 1.954M535.004 228.562c.17.192.712 1.237.646 1.28-3.297-.116-.343 1.611-.513 2.123l-3.086 4.576c-.693-.87-1.182-.96-2.158-.457-1.068-1.18 4.14-1.631.991-2.607l.476-1.71c.838.186 1.598.668 1.882-.472-.415.076-.684-.026-.912-.389-2.549-4.06-4.982-7.306-8.67-10.416l3.371-1.006c.501.412.41 1.714.919 2.464 1.56 2.298 5.1 4.392 7.054 6.614M253.267 495.886c3.17-.23 5.484 5.569 4.325 7.46-.608.99-3.665 2.782-4.8 1.445-.96-1.13-2.414-8.696.475-8.905M124.446 367.555c-1.623.344-3.298-2.02-3.636-3.355-.323-1.277.263-1.907.18-2.638-.529-4.66-1.671-9.272-3.256-13.676.781-.145 1.264.421 1.698.937.87 1.032 4.597 12.465 4.902 14.29.246 1.473.082 2.965.112 4.442M406.576 88.295c.145.124 1.132-.315 1.465.307.647 1.207 1.201 5.775 1.546 7.477.305 1.504 1.774 2.244-.373 3.732-.628-1.846-.807-4.36-1.526-6.135-.298-.736-1.521-.393-1.125-1.782.124-.436 1.187.08.971-.713l-2.875.952c.583-.918-.037-1.979.022-2.58.036-.366.89-.096.987-.99.186-1.695-.693-3.36-.532-5.06l-1.915-.241 1.905-2.885-1.906-1.67 2.364-.777.994.54c-2.016 2.721.416 5.133.528 7.187.04.72-.655 2.53-.53 2.638M289.437 512.549l-.495 4.391c-.724 2.141-5.904 1.083-6.772-.766-1.654-3.527 3.526-2.501 2.054-5.146 2.171-.054 3.487.193 5.213 1.52M194.504 241.84c.87 1.015.888-1.418 1.65-.941l3.164 1.68.939 2.384c.074.363-.464.308-.708.23-.859-.27-6.386-3.035-6.994-3.56-1.072-.928-1.432-1.81-.936-3.146l-1.166.936-6.978-4.538 1.455-1.009 10.53 5.353zm2.394.487h-.955v.47h.955zM453.596 403.067c-.264 1.578-1.455 1.39.002 2.869-2.32 1.052-5.252 2.859-6.291 5.245-7.621-1.824 4.165-10.368 6.29-8.114M165.231 190.988c1.255 1.26-3.07 1.042-3.611.966-4.456-.621-8.89-3.099-12.83-4.923-1.328-.615-3.691-.033-3.707-2.286zM360.515 268.712c-2.031 1.143-3.885 2.596-5.754 3.603-.75.404-1.116.47-.96-.478.795-.874 2.186-1.407 3.01-2.142.492-.439.333-1.276.824-1.688.687-.577 2.308-.448 2.893-.963.749-.658.321-1.994.482-2.155.1-.101 1.912.098 2.847-.274.287-.115 2.97-1.657 3.358-1.918.937-.628 5.366-5.256 6.255-4.536-1.275 2.44-2.814 3.71-5.112 5.2-1.37.887-2.132.422-3.524 1.993-.146.164-.323.32-.48.48-.516.206-1.293.015-2.049.458-.752.441-1.612 2.234-1.79 2.42"/><path d="M364.834 265.354c.83-.26 1.929.142 2.864-.951l.97 1.9c-2.789 1.48-5.517 3.225-7.925 5.276-4.9 4.172-9.173 9.267-7.39 16.05.97 3.695 3.863 4.014 7.303 4.532 1.36-.382 3.845-6.548 7.323-7.106 4.898-.786 9.024 2.288 13.648.931v-7.917c-.903-5.41-3.34-10.394-5.036-15.62l-.856-.364-6.094 2.554c1.452-.724 1.642-1.877 2.511-2.804 5.908-6.299 4.006-5.795 6.839-13.273 2.882-7.605 9.911-23.83 18.824-25.32 1.523-.254 3.26.159 4.582-.215.95-.27 2.81-2.559 3.534-2.702.773-.153 1.701 1.215 3.175.812.596-.163 2.346-1.883 3.386-2.41 3.715-1.877 9.96-2.869 10.876 2.48-2.753.013-5.587-.2-8.257.62-5.62 1.725-2.041 3.946-2 7.86.046 4.44-.576 4.814-2.248 8.523-.705 1.563-.093 3.814-2.365 3.87 2.09.5 1.531 2.915 2.02 3.501.503.602 3.216.113 1.813 2.976-9.783-2.04-1.78-11.27-.489-17.036l-1.19-.733-.727.246c-1.359 1.214-1.648 3.12-2.66 4.539-1.827 2.562-4.457 4.54-4.976 7.978-.36 2.386.015 10.941.47 13.385.267 1.432 3.195 4.05.229 5.055l-3.363-3.36-2.884 3.834-1.195-1.428c-.664 1.622 1.25 1.55 1.397 2.188.126.548-2.05 5.915-2.246 7.281-1.02 7.087 2.428 14.409 5.241 20.678l7.125.794c.2.097 2.718 3.245 2.78 3.458.267.93-.15 2.43.168 2.953.106.175 3.372 1.834 3.623 1.891.903.207 3.816.319 4.472-.125 2.011-2.94 1.907-6.397 2.511-9.73 1.84-.297 2.632-2.077 4.322-2.63 1.738-.569 6.8-.635 8.637-.26 2.172.444 3.455 2.818 5.626 3.247-1.177-3.685-3.186-6.768-3.374-10.777-.122-2.605 1.217-11.862 1.961-14.386.147-.495.09-.97.731-1.17 2.926.258 9.372 2.653 6.955 6.458-1.276 2.008-4.125.43-4.79 5.285-.81 5.93 1.485 11.771 6.817 14.691 5.57 3.05 11.326 2.51 15.612-2.339.922-1.044 3.156-5.95 3.354-7.224.19-1.227-1.07-2.972-.96-4.393l-1.379-.304.048-3.37-3.87.01 1.446 1.445-1.678 1.22c-6.719-3.66-8.3-12.338-7.853-19.37 4.226-5.04 10.834-5.775 17.087-4.732l1.075-.655-1.433-4.045c.875.025 2.12-.208 1.918-1.443-.958.328-5.091-.946-5.263-1.71 1.192-3.61 3.07-6.446 5.714-9.151-1.635-2.606-4.109-4.374-3.802-7.854l4.08 4.794c2.394-.59-.744-1.916-.973-2.384-.403-.823-.139-1.978-.448-2.916-.38-1.156-1.599-1.655-1.93-2.389-.345-.768-.136-1.937-.466-2.411-.116-.167-3.395-1.111-3.883-1.166-7.467-.833-17.129 2.177-23.588 5.897-5.498 3.167-7.781 9.09-11.662 13.77-.516.623-3.706 2.4-2.075 3.106 2.391.183 4.596 3.786 7.527 2.856 1.45-.46.355-6.608 3.18-7.162-.747 2.39-1.991 4.46-1.353 7.12 3.818 1.526 7.09 2.482 6.629 7.27l-1.352.059-.8 2.335c-3.09-2.53-5.667-4.86-9.852-3.602-1.875.563-4.492 3.46-4.782 5.329-.25 1.614 1.887 6.402.234 6.916-2.558.794-1.476-5.084-3.845-5.306-1.185-.111-4.933 4.13-5.292 5.281-1.289 4.128 2.748 10.758 7 9.413.704-.223 3.615-1.936 4.266-2.462 2.067-1.668 2.195-4.778 5.272-3.998 1.389 5.141 1.54 9.344-1.888 13.62s-8.517 6.898-14.029 4.933c-.727-.26-4.598-2.175-5.493-2.664-2.014-1.102-7.337-4.615-7.337-7.057v-8.877c1.865-.357.612 1.805.66 2.72.06 1.15.13 3.234.324 4.215.065.33 1.386 3.853 1.525 4.017.164.194.958.011 1.16.22 3.086 3.213 7.125 6.032 11.926 6 3.73-.025 7.528-3.221 8.873-6.613-2.304.833-4.752 1.087-7.09 1.782-2.952.878-6.553 4.17-8.741.14 3.283 1.058 5.671-.54 8.148-2.645-2.536-2.07-4.273-3.115-5.841-6.144-.983-1.897.019-3.648-3.264-3.69l1.434 7.673c-.686.162-.787-.109-1.206-.47-1.613-1.389-3.9-8.626-3.557-10.776.217-1.369 1.302-2.621 1.778-3.975.296-.84-.062-1.913.365-2.994.133-.334 3.738-5.13 4.283-5.79 1.668-2.019 2.662-.549 1.702-4.301 1.138.68 5.333-.604 5.975-1.46.594-.794.662-2.579 1.13-3.668 2.54-5.921 5.988-13.693 11.442-17.347 2.493-1.67 10.664-5.354 13.574-6.099 5.925-1.516 12.587-1.079 18.672-1.718.553-2.42 1.362-4.471 2.953-6.405 2.066-2.511 6.047-4.395 7.993-6.638 1.094-1.26 1.107-3.78 3.51-3.696l-.957-1.427c1.968-.165 4.395-1.913 6.129-2.27 3.734-.769 15.113 2.871 16.791 6.452.539 1.147 1.277 4.871-.2 5.36-1.3.43-8.631-2.085-11.028-2.29-9.018-.767-11.182 1.748-16.969 7.4-1.021.999-1.927.425-1.442 2.843.34 1.692 3.79.931 5.47 1.264 1.51.3 3.309 1.58 3.87 1.65 1.513.186 2.554-.366 4.785.248 7.693 2.116 13.658 7.61 19.514 12.669l-.143 2.09c-1.778-.158-5.281 1.884-6.606 1.3-1.018-.448-1.998-2.562-2.88-3.394-3.598-3.39-8.75-7.535-13.45-9.1-5.001-1.665-9.99-1.41-15.11-2.164-.83.037.706 11.606 4.525 10.063-.116-1.534.908-1.833 1.942-2.623l-1.437-1.67c1.714-.782 7.15-.716 7.684 1.294.135.504.101 3.523-.108 3.883-.97 1.67-8.628 2.512-9.968 6.584l9.222 3.237c3.547 1.812 4.657 4.136 3.721 8.034-2.258-1.075-4.2.58-5.69 2.219l1.44 4.912c5.138.399 12.17 2.11 12.416-5.216l3.322 3.166-1.005 3.46-.867.341c-2.246-1.38-3.978.749-6.492.75-1.698 0-2.918-1-4.556-.997 1.129 5.825 8.256 2.348 11.973 1.177.938-.295 1.976-.128 2.915-.443 4.451-1.492 5.183-8.473 6.709-12.25 1.319-.196.731.148.954.709 1.027 2.584 2.783 9.295 1.668 11.755-.165.366-3.294 3.441-3.83 3.847-4.342 3.29-10.77 4.192-15.897 5.743l-10.423-4.852-2.954-3.768c-1.58-.38-1.817 4.864-1.675 5.76h-1.916c.724-5.337-2.127-7.006-6.854-7.614-2.995.804-.916 11.594 3.01 11.928l.6-2.28 2.07-.172c2.768 3.95 3.095 10.645 8.256 12.403 3.658 1.246 17.19 1.066 18.246-3.572.3-1.32-.479-3.337 1.054-3.978.476 2.89 2.228 8.6.7 11.014-.856 1.355-3.2 3.102-4.803 3.35-2.288.352-10.031.421-12.214-.204-1.536-.439-3.45-2.3-5.265-1.449 1.614 1.28.93 3.282 1.288 4.465.54 1.79 1.993 6.456 2.672 7.889 3.103 6.542 12.751 5.862 18.583 3.959 1.263-.413 5.049-3.127 5.452-3.06 1.784.298 3.398 6.53.437 7.51-3.985 1.317-10.622 2.442-14.756 2.028-7.835-.785-14.499-9.058-15.2-16.711-3.398-.684-4.861-.96-6.033 2.684-1.64 5.1-.582 10.245-1.593 15.2-.89 4.36-7.62 7.59-11.733 7.94-4.157.354-10.903-.765-11.265-5.748 9.29 3.154 22.538.48 21.361-11.532-.719-1.27-3.348 1.873-3.616 2.662l.962 1.188-12.472-2.4.003 1.927-2.355.046-.582 2.772-1.864.052.92-2.837c-4.4-1.116-7.034-6.283-10.349-9.082-1.564-1.32-8.615-4.182-10.458-3.924-2.312.325-4.226 6.338-5.04 8.377.243.981 2.347.647 3.31 1.018 3.213 1.238 6.425 4.953 10.583 4.537l-.874 3.146 1.352.7c-.416 1.772-4.285.517-4.772.995l-.03 1.397-3.37-.255c-.98.675-.222 2.17.255 2.17h7.197l.689.778c.179.707-.56 1.637-.49 2.273.063.558 1.873.492 1.477 1.746-1.647-.585-3.13-.413-4.795-.478.072-.1-.193-.679.08-.89.453-.348 2.635.367.605-1.493l-2.6 1.67c-.25 1.178 1.21.686 1.915.713-1.053 1.459-3.62 1.367-5.242 2.195-.675.344-1.078 1.232-1.781 1.578-.851.419-4.602 2.091-5.168 2.016l-.95-1.005c-8.093 1.62-4.734 4.346-4.593 9.875.1 3.876-4.402 4.893-6.266 7.298-1.59 2.053-.413 6.087-4.288 4.654-.835-.308-8.295-5.48-9.084-6.271-3.066-3.076-3.372-9.063-9.169-8.345-.726 2.51 2.446 6.077.704 8.143-1.08 1.28-3.638.637-5.015 1.222-.545.23-3.304 2.715-3.373 3.36-.118 1.12 1.361 3.877 2.19 4.556.638.522 1.824-.008 2.767.543 2.649 1.547.526 7.463-1.796 7.568-.666.03-1.564-.509-2.436-.488-1.149.027-2.208.468-3.238.413-6.849-.368-6.79-4.31-7.578-9.94-2.65-.464-6.52 3.64-6.681 6.037-.123 1.83 1.549 2.681-.005 3.782 2.433-.179 3.482 2.586 5.796 3.787 4.089 2.12 10.532.546 14.824-.67.545 2.592-3.3 3.513-4.097 5.268-.237.523.766 1.496.73 2.6-.077 2.267-2.473 7.17-3.135 9.857-.455 1.85-.128 3.878-.924 5.802-.282.682-4.07 3.831-4.564 3.342-1.607-7.416.468-14.768 4.315-21.109-1.786-.165-3.79.02-4.754 1.75-.768 1.377.17 2.118-.237 3.533-.686 2.387-4.484 4.026-3.648 7.187-2.561-1.316-4.51.131-6.6.343-1.199.122-2.656-.3-3.623-.174-.518.067-1.061.763-2.021.842-1.11.092-.247-1.45-1.666-1.006l.243 1.426c-1.524-2.925-3.902-.494-5.042-2.864.486-.657 10.753-.616 12.715-.964 3.139-.557-.504-4.447-.98-5.739-.182-.49-1.244-5.137-1.226-5.537.02-.43.025-.855.252-1.238 1.724-.354 2.367-.997 3.623-2.122-2.692-1.441-3.31-3.95-4.556-6.499l-.514-.373c-6.252.53-13.651.777-17.681-4.914-1.506-2.125-1.777-5.1-3.906-6.669-.81-.18-4.684 5.847-6.728 6.652-7.447 2.934-10.266-2.694-12.9-8.596-1.716-3.845-4.03-9.622-1.987-13.492 1.467-2.777 3.151-4.921 6.511-3.75-.551 1.407.808 3.295.81 4.053.003.824-1.215 3.747-1.267 5.297-.073 2.175.67 4.9 1.92 6.703.942 1.357 4.842 4.302 6.366 4.005 3.122-.608 3.19-4.837 4.386-5.735.773-.58 1.833-.302 2.666-.694 3.088-1.452 4.667-9.776 4.297-12.894-.617-5.208-5.105-5.123-6-8.433-.721-2.672 3.498-11.227 6.96-11.702l5.796-.773c-2.668.33-5.668-1.22-8.041-1.32-2.184-.092-4.274 1.253-6.348-.84l.966-1.68.957.256-.002 1.66c2.058-2.019 4.566-1.103 7.193-1.444l-2.158-2.877c1.43.074 2.884-.113 4.31.01 3.628.315 4.601.486 5.504 4.089 6.541.523 3.703-2.588 2.534-5.89-.607-1.713-4.368-12.986-3.908-13.52 1.052-.588 5.572-2.551 6.08-3.035.46-.439.495-1.85 1.318-2.28l.468 2.391c2.179-2.394 4.735-4.38 6.963-6.714 1.017-.571 2.51-.892 3.516-1.897.47-.47.287-.945.323-.982.172-.069.336-.435.48-.48M491.5 197.7c-2.22-.048-4.172-.216-6.237.736-.722.333-1.186-.071-.955 1.178 2.185-.2 4.29-.661 6.475-.967.847-.118.801.232.717-.947m-18.23 15.356c-1.49-.656-4.623 3.007-2.632 3.352 1.072.185 1.927-2.695 2.632-3.352m.957 19.186-.002-.957-.953.722zm-75.81 25.91c.527-3.26-1.726-5.638-1.937-8.853-.341-5.195 4.965-15.18-2.376-16.572l.48 3.352c-2.484.17-5.483 3.026-6.719 5.044-.556.907-4.524 9.065-4.672 9.723-.577 2.564.314 17.305 2.245 18.611 1.843 1.248 2.504-1.085 3.245-2.06.312-.412-.002-.871 1.097-.602l.477 2.872c1.14-2.982.914-7.01 2.942-9.775.738-1.005 2.315-1.168 2.353-2.693zm73.416-12.95c-.148 2.644 3.823 4.546 5.752 2.631.652-2.098-4.33-3.054-5.752-2.63m-73.414 47.015c-1.943-4.38-4.754-8.275-5.995-12.947-1.63 1.048.264 3.164.1 4.104-.072.413-2.483 1.53-2.718 3.358-.048.376-.049 3.814-.007 4.232.662 6.58 4.831 1.954 8.62 1.253m-26.095 2.038c-2.544.499-1.104 8.58.264 10.605 1.255 1.861 5.856 4.454 8.073 3.43 2.803-1.293 3.833-8.658 2.357-10.981-.915-1.439-9.416-3.305-10.694-3.054m-30.762 1.806v.48q.468-.24 0-.48m1.92.48v.48q.465-.24 0-.48m53.62 5.877c-1.816 1.91-1.259 7.985.635 9.92 1.888 1.928 2.915.843 4.21 1.155 2.682.646 3.865 1.82 7.064 1.074 2.124-.496 9.996-4.822 10.341-6.979.058-1.052-.79-2.572-1.557-3.312-1.025-.988-10.116-5.46-11.572-5.7-1.222-.2-2.7-.286-3.854.203-.756.32-.845 1.347-1.557 1.823-.923.618-3.258 1.34-3.71 1.816m-36.625-3.44c-1.48-1.009-4.548 2.531-4.75 4.083-.536 4.087 4.503 6.011 7.662 6.915zm-12.44 9.556c.41-2.267-4.814-1.431-5.274-.95-.44.462-.365.935.604.82 1.657-.198 3.024.271 4.67.13m75.812-.952c-2.732-.167-3.708 2.662-5.277 4.309.501.454 5.006-3.404 5.277-4.309m-49.423 10.076c-1.375-.58-2.957-.289-4.332-.708-1.252-.382-3.524-2.05-4.581-2.178-1.072-.13-1.948.632-3.089.294-2.153-.637-2.972-4.263-6-3.455-1.045 2.212-4.908 6.99-4.551 9.135.21 1.264 5.213 5.148 6.592 5.434 1.537.318 6.858-.445 8.262-1.114 1.285-.614 2.172-2.695 3.145-3.573.722-.652 5.23-2.894 4.554-3.835m42.226-4.318c-1.08-.175-2.012.427-2.399 1.43.857.052 2.049-.536 2.4-1.43m-30.47 3.366c-1.284.857-.552 2.221.234 3.115.258.293 2.998 2.932 3.182 3.054 1.891 1.257 3.404-.162 2.348-1.867-.189-.305-5.405-4.32-5.765-4.302m-6.709 8.627c-1.404 1.307-2.276 3.208-3.591 4.57-1.215 1.258-2.433 1.734-3.542 2.695-.425.369-1.23.63-.318 1.138.995.553 6.265 1.209 7.005.244-.302-2.89.622-5.292 1.639-7.916zm19.425.482c.734 2.374-1.475 6.473 1.907 7.474 2.921.864 4.563-2.112 6.217-3.944.366-2.008-6.448-3.873-8.124-3.53m-28.79 6.716c-6.735.285-11.392 1.26-17.425-2.487-2.323-1.443-5.42-6.218-5.87-1.371-.321 3.465 7.385 8.652 10.339 10.1l-1.906.713c2.512 2.565 2.364.072 3.231-.233 1.666-.586 7.661-1.379 8.745-2.175zm-18.599 16.657c.762.33 1.931.317 2.502-.326 2.665-5.168-3.167-6.67-6.208-9.62-1.997-1.939-5.96-9.165-8.062-2.777-1.632 4.958.407 7.128 4.45 9.743l-1.428.708 1.639.522.993-.992c1.399 2.932 2.305 1.122 4.706 1.533 1.274.218 1.274 1.151 1.408 1.21m23.875-8.503c-4.258-.718-.318 7.173.724 7.188 1.873.028-.99-6.188-.724-7.188M382.584 152.112c-1.626.262-3.585-1.504-4.056-2.896-.364-1.071-.105-2.057-.386-2.973-.577-1.883-1.79-3.81-1.795-6.122l1.695-.018c.404 4.509 4.336 7.496 4.542 12.009M424.311 180.434l1.456 6.226-4.815-.698c-1.643-1.036 1.906-6.474 3.36-5.528M151.316 381.949c-3.393.151-5.682-3.543-9.114-1.92 1.438-1.577-4.04-2.939-2.877-3.833 1.884-.419 2.871 1.081 4.315 1.678.546.227 9.202 2.766 7.676 4.075M385.946 466.395c-.152-1.02-.041-.773.606-1.066.731-.331 3.814-1.183 4.574-1.246 1.618-.133 2.04 1.11 3.566.37.557-.27.329-1.952 1.8-.211-2.756 2.204-7.15 3.862-10.546 2.153m4.315-.952-1.913.484-.001.47 1.914.001zM403.219 69.584c1.302.19 2.352-.51 2.393 1.731.032 1.791-1.322 1.355-1.464 1.959-.191.81.893 2.793-.218 3.027-1.337.282-2.402-1.18-2.147-2.403l.952-.474-1.915.475c-.052-2.455 2.14-2.561 2.399-4.315-.982-.143-2.016.23-2.66-.98l-.217-3.816c2.394-.195 3.163 2.855 2.877 4.796M219.447 564.764l.48 2.88c-3.685-3.3-8.656-1.132-13.209-1.423-1.59-.102-3.61-.477-5.025-1.216.027-.923 16.45 1.11 17.754-.241M203.61 178.026c.189.19 1.373 3.835 2.023 4.941 1.302 2.216 3.207 4.024 4.702 6.09-2.58.355-2.215-1.364-3.123-2.391-.49-.555-1.315-.814-1.529-1.106-1.604-2.186-2.47-4.245-2.924-6.926-.162-.958.595-.866.852-.608M109.053 326.83l.045 1.384 1.433-.482c.57 1.226-.945.807-.99 1.25-.196 1.896 1.61 4.822 2.036 6.596.442 1.837-.795 1.105-1.798.315.156-2.093-.75-5.003-1.543-7.063-.513-1.332-2.626-2.358.817-2M253.04 256.234c-1.116-1.04 5.316-5.908 6.706-3.596-.577 1.197-5.835 4.407-6.706 3.596M219.448 563.324c-1.64-.197-3.9-.643-5.492-.72-.341-.016-7.105.808-5.058-.715l9.299-.845c.975.378 1.404 1.235 1.251 2.28M125.574 364.485c2.644 1.816 5.71 3.477 8.313 5.389.589.433 1.34.492 1.115 1.519-.986.868-8.918-5.486-10.08-6.516l.012-1.157c.733-.193.309.537.64.765M214.175 290.781c-.478-3.023 5.52-5.478 4.817-1.678-.315 1.699-3.326 1.408-4.817 1.678M401.979 59.806c.07.135.662.135.749.514.507 2.232-.044 3.615-2.385 3.985l.001-6.716c.83.308 1.237 1.457 1.635 2.217M231.444 329.173l-.492 1.917c-3.028-.344-5.88-1.474-8.132-3.604 2.746 1.104 5.662 1.503 8.624 1.687M95.66 332.055c.05.84.22 1.033-.733.976-1.55-.092-7.072-4.182-5.982-5.297 2.88.435 3.895 4.126 6.715 4.321M377.784 139.159c-2.701-1.694-3.594-6.788-2.388-9.593zM167.15 386.278l-.636.879c-1.672-.514-3.339-1.22-5.007-1.72-1.243-.373-3.625-.069-4.429-1.561zM205.534 242.32c-1.913-.687-3.776.237-4.557-1.916l-1.196.959-.004-1.924c-1.907.938-1.505-.541-2.265-.974-1.35-.768-3.522-1.003-4.448-2.376 2.126-.047 3.904 1.936 5.668 2.722 1.489.664 3.269.943 4.674 1.563.82.362 2.297.772 2.128 1.946M213.694 304.695c1.42-3.33 4.742-3.826 7.672-5.274l-5.68 4.632zM107.18 325.81l-1.439-6.716c1.237 1.48 4.83 6.208 1.44 6.715M133.925 372.972c.124.062.15.681.714.96 1.75.867 3.438.282 3.24 3.221-.204.275-4.934-3.501-5.753-3.365-.398-1.289 1.01-1.21 1.8-.816M159.474 204.421c-.351.976-.452.894-1.276.564-.76-.305-5.867-3.68-5.91-4.168-.095-1.068 1.106-.365 1.564-.138 2.176 1.078 3.256 3.328 5.622 3.742"/><path d="M330.765 298.464c.77.674-3.919 4.227-4.314 3.834l1.433-2.163c.123-1.53-1.403.679-.954-1.186zM85.103 472.635c-3.126.155-1.779-2.58-.95-4.312 2.989.382.17 2.702.95 4.312M146.995 191.94c-1.333-1.01-3.114-2.568-3.853-4.068-.77-1.56 1.353-1.598 1.895-.446zM226.648 298.946c-2.657 2.312-5.928 4.217-9.116 5.749 2.57-2.322 5.804-4.706 9.116-5.749M401.805 141.54l-.503-2.378 1.435-.007.477 1.441.478-2.873.759 2.894zM141.717 190.98l-3.354-2.407 1.446-2.387zM156.483 383.006c.235.417.084.9.11 1.342-2.028.07-3.599-1.416-4.791-2.873.982.209 4.26.78 4.681 1.531M182.991 587.798c1.186.27 1.842 4.814.714 4.788-1.113-1.244-1.155-3.3-.714-4.788M397.935 184.743l-.957-.247c.343-2.533.147-3.234 2.877-4.072zM72.635 263.433l-.348-2.025c.641-.545-.455-3.242.582-3.242.812 0 1.019 5.064-.234 5.267M275.11 321.009l-4.108-.056-1.168-1.377c1.574.58 4.35-.118 5.275 1.433M544.28 381.954c-.11 2.079-1.409 2.722-3.354 2.394-.32-1.163 2.949-2.78 3.354-2.394M114.37 345.962l-1.435.005.003-4.798c.637.214 1.08 2.232 1.216 2.856.142.648.317 1.264.216 1.937M140.28 508.149c-1.73.36-.417-1.437-.446-2.625-.02-.751-.535-1.414-.51-2.173 3.185.722.909 2.861.956 4.798M414.252 109.888c-1.526.36-1.571-.665-2.274-1.685 1.621-2.438 2.59-.618 2.274 1.685M183.232 428.497l.466 2.874c-1.727-.493-1.965-2.018-.466-2.874M411.85 278.319c.263.294.098 1.277-.709.946-.914-.458-3.587-6.177-3.122-6.712 2.158.316 1.137 3.09 2.46 4.992.493.709 1.297.69 1.372.774M64.476 482.232l-.485-1.666c.288-.794 1.292-.253 1.363-.344.361-.462-.03-1.692 1.033-1.825-.04.675-.687 4.783-1.911 3.835M150.358 199.133l-2.907-1.656-1.886-2.658c.223-.235 4.61 3.46 4.793 4.314M229.044 202.505l-.242.957c-2.495.058-3.052-2.543-5.023-3.61zM410.057 101.845c.045-.087.564-.074.67-.269.314-.58-.159-1.414.644-1.28l.237 3.833c-.877.124-1.88-1.658-1.551-2.284M381.625 154.516c.977.964-1.786 2.876-2.877 2.392.396-.53 1.924-3.33 2.877-2.392M397.938 118.524c-.924.475-1.723-1.96-1.763-2.24-.096-.66.37-1.382.332-2.073zM140.759 297.028c.036.904-2.098.505-2.537.375-.646-.191-1.494-1.175-1.778-1.816zM168.953 472.057c-.116.2-.868.258-1.056.584-.68 1.174-.09 3.62-2.18 4.316.66-2.2 1.502-5.365 3.35-6.717-.046.589.19 1.295-.114 1.817M380.178 535.971c-2.9.077 2.154-3.62 2.404-3.354zM126.852 163.621l.24-.954c1.205-.155 1.916.263 2.625 1.203-1.028 1.521-1.72-.161-2.865-.249M167.632 383.386c-1.287-.304-3.622-.094-4.318-1.43 1.396-.013 3.572 0 4.318 1.43M222.33 199.133c-.811.183-4.006-2.184-3.354-2.874 1.359.574 2.608 1.579 3.354 2.874M445.92 307.1c.863.957-1.167 2.525-2.395 1.915-.809-.643 2.132-2.205 2.394-1.914M322.61 310.932c-.735-.016-3.953-1.214-2.876-2.392.484-.529 2.699 1.815 2.876 2.392M148.44 373.31c-1.331-.371-3.563-.647-4.319-1.91 1.357.15 3.533.708 4.318 1.91M130.207 372.35c-1.041.55-3.435-1.787-2.875-2.394 1.133.494 2.318 1.236 2.875 2.394M407.536 143.964c.39 1.706-1.886.733-2.878.948.66-1.515 1.497-1.49 2.878-.948M339.881 278.791c.06 1.734-.99 1.995-2.392 2.397zM158.992 386.756c-.456 1.278-3.54.01-3.833-.961zM151.318 542.689l2.394-3.354c.422.796-1.663 4.047-2.394 3.354M371.069 239.445c.042 1.97-2.437 1.97-2.394 0zM148.437 376.201c.286 2.362-3.117-.718-3.827-1.212zM203.488 243.423c.105.055 1.35 1.43 1.566 1.774-1.802-.262-2.735-1.957-4.795-1.44.138-1.206 2.694-.615 3.229-.334M99.502 333.012l-.006.954-2.399.001.007-1.437zM225.691 248.557c-.463-.505.612-2.303 1.432-2.396.492.897-.712 3.181-1.432 2.396M540.444 218.326l-4.316-.95c1.36.147 3.604-.641 4.316.95M370.589 236.567l-.485 1.914h-.949l-.001-1.916zM392.658 99.813c-.258.359-1.845-1.979-1.432-2.396 1.477-.132 1.55 1.207 1.432 2.396M444.485 304.701l-.008 1.438-2.871-.965zM163.313 135.796l-4.415-2.058-1.342-1.292c1.987.51 4.306 1.893 5.757 3.35M267.912 422.732l-2.396.002v-.954c.914-.07 2.105-.132 2.396.952M168.591 478.401c-.413 1.053-.715 2.163-1.684 2.865.07-1.031.173-3.045 1.684-2.865M325.01 313.341l3.349 1.68c-1.243-.043-2.855-.361-3.35-1.68M277.026 641.535l-1.914-.715 1.19-.719.722.724zM135.002 518.705c.242.213-.11.903-.475 1.199-1.692 1.377-1.065-2.557.475-1.2M136.447 517.745h1.914v.955h-1.914zM103.335 336.365l-.71-.001-1.677-1.68c.753-.28 3.088 1.005 2.387 1.681M271.272 352.687l-.693.932-6.505-3.811zM238.161 329.653l-.235 1.914c-.738-.517-.835-1.03-.72-1.914zM112.933 340.682c-1.21.125-1.623-.763-1.434-1.915zM166.187 491.832l-.948-.234c.613-.683.418-1.959 1.429-2.165zM268.874 422.262h3.354v.47h-3.354zM391.219 94.535c-1.217-.37-.981-1.825-.95-2.876h.47zM319.734 305.656l3.826-3.12c-1.455.883-1.822 3.448-3.826 3.12M118.689 345.007l-.003 1.437-1.434-.485.002-.952z"/><path d="M402.256 138.677h-.954l.002-1.917c.954.257 1.076 1.022.952 1.917M213.691 192.897c-.498.492-1.923-.952-1.434-1.434.497-.492 1.923.952 1.434 1.434M114.858 346.927h.47v3.354h-.47zM154.677 198.653l-5.748-4.558c2.202.94 4.068 2.875 5.748 4.558M185.864 384.355c-.256.954-1.024 1.079-1.919.95.257-.953 1.025-1.078 1.92-.95M153.235 181.861l-.951.002-.486-1.434c.875-.162 1.59.526 1.437 1.432M373.47 539.814c1.314-.804 3.166-2.875 4.565-3.834l-.09.872-3.033 2.96c3.585.36 5.194-3.176 7.228-5.003 1.273-1.144 3.681-2.035 4.763-3.874-1.19-.529-2.599 1.192-3.602 1.672-.331-.449.642-1.148.952-1.442.681-.644 4.158-3.612 4.571-3.342l-.247 1.91 1.055-1.195-.377-1.448c4.966-4.567 10.749-9.034 15.169-14.14 2.556-2.952 10.79-14.529 10.79-18v-7.197c2.48-2.001 5.261-.69 5.712 2.445 1.629 11.345-10.122 27.602-17.427 35.74-9.455 10.534-22.61 22.048-36.753 26.584-3.037.974-7.177 2.683-10.282 2.136-.529-.093-4.837-1.858-5.07-2.124-1.094-1.252-.058-3.959-.547-4.496-.141-.155-1.118-.13-1.612-.524-1.453-1.157-4.337-3.87-6.22-3.874-1.21-.002-2.835 1.051-4.089.255 1.107-1.885 3.966-2.003 5.245-2.912 1.056-.75 1.873-3.292 3.654-3.576 3.21-.514 2.58 1.124 3.206 1.787.362.384 1.584.176 2.061 1.088 1.044 1.999-1.934 5.044 3.417 5.26 4.846.196 12.804-3.182 16.961-5.728-1.058.559.426 2.192.955.713.253-.707-.378-1.017-.955-.713m20.8-9.908c1.292-1.25 2.443-2.48 3.7-3.737.548-.548 1.639-.56 2.112-1.247.18-.262 1.262-3.345.264-3.337-.154 1.602-1.852 1.657-2.904 2.616-11.11 10.127-19.395 16.977-32.903 24.203a4.6 4.6 0 0 1-2.103.537l-.005 1.428c1.087-.14 2.147.415 3.229.122 1.128-.304 6.401-3.424 7.746-4.263a125.7 125.7 0 0 0 20.864-16.322M243.437 335.888c-.954-.257-1.078-1.024-.95-1.92.954.257 1.078 1.025.95 1.92M163.313 185.218l-1.436.002v-.955l.71.003zM181.546 429.93c-.624.195-2.412-.719-1.917-.95.856-.13 1.683.027 1.917.95M400.337 178.987v.955l-.71-.002-.724-.718zM142.682 298.457l-1.437.002v-.955l.71.003zM165.712 184.748l-.726.95-.71.002v-.955zM198.337 559.97v.954l-.71-.002-.724-.717zM437.76 238.483c-2.266-1.367-.265-1.317.017-1.755.37-.573.164-1.673.943-1.6zM162.35 182.83c.067.068-.024.313.002.468-.857.13-1.683-.028-1.917-.95.377-.05 1.807.372 1.915.481M208.893 195.781v.955l-.71-.002-.725-.718zM395.546 196.258c-.195-.624.719-2.412.95-1.916.13.856-.028 1.682-.95 1.916M186.822 595.957v.954l-.71-.002-.725-.717zM207.456 195.294l-1.437.002v-.954l.71.002zM140.283 369.48c.42-.326 1.994.693 2.389 1.2-.557.283-2.791-.887-2.39-1.2M222.815 298.461c-.257-1.26.988-1.175 1.68-1.909l.225.226zM195.943 225.533h1.914v.47h-1.914zM394.584 108.933h.955v.955h-.955zM116.774 343.088h.955v.955h-.955zM396.026 198.18h.47v1.915h-.47zM568.756 344.527h.955v.955h-.955zM211.764 198.183l1.445 2.394-2.391-1.449zM176.748 563.801c-.601.32-1.672-.768-1.44-.95.602-.32 1.673.767 1.44.95M334.608 294.146h.955v.955h-.955zM206.499 241.845h.955v.955h-.955zM140.76 372.837l-.002.957-1.432-.485-.001-.469zM396.026 190.503h.47v1.915h-.47zM172.425 210.173c-.182.233-1.27-.838-.95-1.439.183-.233 1.27.838.95 1.44M523.653 218.335h1.435v.47h-1.435zM167.152 209.209l-.957.002.002-.957zM191.622 220.255l-.955.954-.002-.957zM133.562 166.519l-.234.948-2.632-2.642zM380.185 158.83l-.955-.235.953-.722zM160.917 387.714h1.435v.47h-1.435zM143.164 183.788h1.435v.47h-1.435zM568.748 337.805l-.469-.001-.481-2.873h.47zM205.539 248.085h1.435v.47h-1.435zM228.573 254.32h.47v1.435h-.47zM173.872 384.355h1.435v.47h-1.435zM142.681 505.262l-.956.002.002-.957zM402.259 177.07l-.955.955-.002-.957zM151.321 384.355h1.435v.47h-1.435zM159.957 184.268h1.435v.47h-1.435zM234.81 227.929h.47v1.435h-.47zM336.53 286.948h.47v1.435h-.47zM402.736 78.224l-.235.955-.722-.953zM166.195 379.077h1.435v.47h-1.435zM395.546 79.181l-.002-.957 1.202-.473.225.226zM157.558 376.678h1.435v.47h-1.435zM153.714 374.76c.82.651-1.997.115-2.393-.011v-.47c.254-.119 2.188.319 2.393.481M342.283 277.834l-.955.955-.002-.957zM144.121 193.855l-.957.002.002-.957zM438.727 233.21h.955v.47h-.955zM182.988 613.233h.955v.47h-.955zM137.406 371.88h.955v.47h-.955zM545.245 280.713h.955v.47h-.955zM194.504 286.471h.955v.47h-.955zM154.2 375.239h.955v.47h-.955zM161.397 377.638h.955v.47h-.955zM407.059 99.338h.955v.47h-.955zM141.724 171.792h.955v.47h-.955zM64.477 487.036h.47v.955h-.47zM165.238 478.399h.47v.955h-.47zM157.552 200.103c.067.07-.024.314.001.47h-.71l-1.197-1.2c.325-.024 1.835.657 1.906.73M174.831 381.956h.955v.47h-.955zM260.238 348.368h.955v.47h-.955zM415.689 112.766h-.47l-.25-1.427.72.717zM568.755 341.651h.955v.47h-.955zM360.038 247.125h.955v.47h-.955zM165.715 389.154h.955v.47h-.955zM567.318 333.491h.47v.955h-.47zM170.033 189.066h.955v.47h-.955zM238.646 330.135h.955v.47h-.955zM232.888 329.655h.955v.47h-.955zM396.504 119.491h.955v.47h-.955zM396.986 208.257h.47v.955h-.47zM274.632 419.863h.955v.47h-.955zM67.352 329.166l2.107-1.876 2.201 1.645-1.43.71 2.884.481-.237-.962c4.227 1.5 5.887-4.229 9.827-3.349-.769 1.238.196 2.846-.217 3.816-.374.88-3.13 2.672-4.102 3.136-.978.465-5.058 1.779-5.987 1.715-1.496-.103-3.756-1.764-5.008-2.71-6.009-4.542-9.887-14.959-7.23-22.27l1.179 7.688c.932 4.449 7.647 7.542 6.013 11.976m-1.925-3.834c.122-.957-.884-2.017-1.914-1.915zM386.665 117.567q.468.24 0 .48zM240.803 329.17q.467.24 0 .48zM189.943 239.923q.468.24 0 .48zM402.979 134.84q.466.24 0 .48zM162.594 205.855q.466.24 0 .48zM204.342 247.61c.477.315-.224.635-.49.94l-.225-.226zM215.853 194.34q.467.24 0 .48zM162.594 203.456q.466.24 0 .48zM243.682 339.727q.467.24 0 .48zM396.261 112.289q.468.24 0 .48zM382.827 111.81q.466.239 0 .479zM261.914 348.843q.468.24 0 .48zM169.311 474.558q.468.24 0 .48zM165.952 485.594q.468.24 0 .48zM173.63 188.581q.467.24 0 .48zM160.195 380.992q.467.24 0 .48zM216.333 305.18q.467.24 0 .479zM587.706 304.7q.467.24 0 .48zM410.656 105.571q.466.24 0 .48zM158.275 380.032q.468.24 0 .48zM393.382 102.213q.468.24 0 .48zM155.397 379.072q.467.24 0 .48zM215.373 176.586q.467.24 0 .48zM164.993 378.593q.467.24 0 .48zM196.18 559.967q.468.24 0 .48zM566.114 295.583q.468.24 0 .48zM202.898 560.927q.467.24 0 .48z"/><path d="M219.453 180.9c1.191.606.843-.941 1.213-.984.964-.113 5.427 3.242 6.474 4.096 2.997 2.446 9.36 8.283 11.703 11.327 1.99 2.586 3.466 6.009 5.085 8.858 4.083-.57 1.993 3.303 3.448 5.877.782.92 6.675-.263 7.969 1.133.074.08-.367.718.06 1.113.642.593 2.059.827 2.88 1.482 4.638 3.697 4.75 6.77 7.344 11.39.36.643 1.234.762 1.336 1.152.374 1.426-.595 2.869-1.957 3.254-4.667 1.32-5.944-8.309-7.404-11.276-.394-.457-6.29-1.435-7.229-1.447-3.814-.049-13.192 4.897-15.19 8.314-1.045 1.787-.963 3.817-2.271 5.383l2.132 1.664c1.286-3.505 2.82-6.644 5.767-9.097 1.363-1.133 9.162-5.506 10.308-4.326l-.006 1.437-1.36-.44c-.583 1.977-3.092 1.712-4.903 2.568-1.712.808-5.393 4.286-5.984 6.014-.251.735-.85 4.39-.656 4.98.853 2.59 5.293-1.203 6.677-1.838.981-.45 7.146-2.38 7.6-2.124l2.496 5.46c-1.847.484-.59 2.31-1.065 3.777-.559 1.725-6.325 1.079-8.09 3.904-1.617 2.587-.458 4.757.045 7.412 5.355.566 9.014-5.157 14.366-3.567 1.318 1.345.931 3.33.956 5.045-5.473-.624-9.739 2.956-15.357 1.92-.99 1.684 2.413 3.866 2.417 4.116.015 1.03-1.272 2.547-1.392 3.44-.132.986 1.544 2.272.163 2.521-.565.102-1.133-.89-1.889-.938-1.18-.075-4.181 1.653-5.816 1.852-4.13.504-6.421-2.663-7.309 3.304-.12.806.384 1.878.327 1.96-.17.24-1.135-.014-1.387 1.242-1.5 7.454 3.85 22.899 13.62 16.02.921-.649 1.057-1.443 2.522-2.275 3.574-2.03 6.676-2.164 10.294-3.141 4.068-1.098 2.44-3.68 2.903-6.694.604-3.926 2.381-10.8 4.701-13.899.315-.42 3.019-1.32 3.395-2.955l-1.906.487c.45-.53.737-1.153 1.174-1.7 2.397-2.998 8.457-6.548 12.246-7.426 3.077-.712 10.501-2.199 9.603 2.642l2.11-.404 1.234 1.608-7.477-1.155c-8.517.546-11.733 1.393-16.49 8.233-.073.104-2.932 2.718-.738 1.791.776-.327 2.266-3.167 3.18-4.02.602-.56 5.873-3.81 6.541-4.014 4.753-1.452 10.02-.856 14.425 1.194.675.314 1.31-.289 1.049 1.084-6.546-1.134-12.638-1.34-18.74 1.652-6.82 3.344-8.856 15.192-9.107 22.126-.051 1.42.96 7.53.03 8.161-4.515-1.11-13.737-.218-17.456 2.679-2.544 1.982-2.43 3.63-6.825 4.21-8.417 1.111-12.74-3.613-16.126-10.662-2.348-4.889-3.67-8.474-2.66-13.884.761-4.082 2.766-9.038 5.924-11.828 3.406-3.008 8.602-.568 11.607-4.125-.681-1.361-1.732-2.47-2.177-3.97-1.485-5.014.903-9.58-1.062-14.772-1.625-4.293-2.174-1.286-4.467-1.73-1.437-.277-2.208-2.046-3.664-2.4.604-3.49 1.344-7.187 3.389-10.162.822-1.197 5.785-7.225 6.673-7.721 1.072-.6 5.25-1.144 5.271-2.418.048-2.915-5.388-10.189-7.394-12.563-3.947-4.673-14.674-16.348-19.977-18.65-1.383-.6-3.614-.308-4.795-1.912l6.239-.492c1.685.684 2.164 1.418 1.43 3.128m15.83 41.267-.003-.957-.952.722zm8.639 16.311c1.038-.97 2.423-3.186-.047-2.678-.727.15-2.657 2.907-3.023 3.692-.54 1.159-1.8 9.71-1.573 11.08.483 2.912 1.082 1.93 2.265 3.72l.938.02c-1.802-2.565-.21-4.125-.025-6.019.253-2.588-.51-4.3.89-6.786 1.318-2.34 2.149-1.667 4.088-2.54.508-.23.407-1.801 2.928-.535 2.57-3.779-.834-2.99-3.27-1.818-1.541.74-1.474 2.099-3.171 1.864M205.297 561.407q.466.24 0 .48zM83.905 561.886q.467.24 0 .48zM333.406 294.623q.468.24 0 .48zM196.66 563.326q.468.24 0 .48zM156.836 376.194q.468.24 0 .48zM318.532 570.043q.468.24 0 .48zM209.615 197.218q.468.24 0 .48zM197.135 182.833c.266.306.967.625.49.94-.232-.28-.964-.606-.49-.94M393.387 81.59c.477.315-.223.635-.49.94l-.225-.226zM147.72 192.42q.467.24 0 .48zM264.793 617.066q.468.24 0 .48zM402.499 58.069q.466.24 0 .48zM404.418 50.871q.468.24 0 .48zM559.637 285.511c3.836-.764 8.383.14 11.852-1.827 3.875-2.197-.916-2.55-2.247-4.66 6.284 2.283 6.3-.489 6.692-5.762.37-4.982-.724-10.762-.477-15.34.035-.649-.306-1.48.723-1.198 4.508 1.237 3.418 14.756 4.68 18.354.333.948 1.574 1.4 1.713 2.094.298 1.493-3.515 5.87-4.42 7.418-.91 1.552.082 2.246-2.174 3.584-5.401 3.203-12.467 2.406-16.342-2.663M174.347 158.83c-.251.273-2.812-1.406-3.317-1.717-.772-.474-8.032-5.31-6.755-6.435 4.27.114 9.534 3.54 10.072 8.152M178.185 159.79c-4.623.104-.803-2.77-.002-.71zM184.422 160.757c.108.86-1.076.462-1.614.416-.514-.043-2.65-.228-2.699-.897zM178.907 159.792q.468.24 0 .48zM538.765 398.266q.466.24 0 .48z"/></g></svg>