<?xml version="1.0" encoding="UTF-8"?><!DOCTYPE svg PUBLIC "-//W3C//DTD SVG 1.0//EN" "http://www.w3.org/TR/2001/REC-SVG-20010904/DTD/svg10.dtd" []><svg xmlns="http://www.w3.org/2000/svg" xmlns:xlink="http://www.w3.org/1999/xlink" height="746" viewBox="0 0 473.346 745.816" width="473"><g filter="none"><path d="m310.686 3.412-.487.952c2.796-1.045 4.392.299 7.07.853l14.996 8.061c1.457 1.043 3.09-1.424 4.037-1.205 1.145.446.918 2.45 1.551 2.896.798.562 6.677.98 8.437 1.529 6.992 2.176 6.879 7.268 10.665 11.886 1.544 1.882 6.953 3.976 7.24 5.248.785 3.486-5.701-1.606-6.516-2.614-1.521-1.882-2.039-4.44-3.343-6.253-2.297-3.192-7.954-6.668-11.988-5.999l-.036 2.846c-2.705.56-3.269-1.738-4.88-2.972-4.048-3.098-10.172-5.5-14.767-7.303-1.32-.518-7.393-2.968-7.56-3.905-.104-.58.496-1.42.373-2.102l-.96 2.394c-1.373.402-.815-.971-1.648-1.261-2.685-.935-16.834-1.774-19.585-1.022-.93.255-1.482 1.04-2.152 1.22-1.349.363-9.25-1.427-11.456-1.752-4.769-.704-10.571-1.979-14.948-1.154-9.554 1.799-14.807-.463-23.826-.363-4.475.05-13.737 4.437-18.168 3.362-.39-.095-.167-.95-1.029-1.004-.986-.06-2.254.545-2.844.428-.855-.17-2.018-2.79-3.171-.376l1.915.479c-3.453.32-6.723 1.685-10.07 2.647-1.514.435-3.918.457-5.163 1.073-.702.346-2.594 2.553-3.804 3.393-8.3 5.763-17.4 9.322-25.58 14.739-.555.367-1.244-.122-.952 1.186 21.298-7.953 43.268-15.567 66.024-18.172 12.933-1.48 26.012-.645 38.78-.518 8.033.08 12.894-.412 20.692 1.372 8.19 1.874 15.663 1.83 23.953 4.834 2.108.764 6.445 3.346 7.894 3.636.946.189 1.876-.47 2.589-.242.686.22.68 1.657 1.861 2.493 2.454 1.74 8.153 2.397 11.248 3.626 7.587 3.012 10.618 8.087 16.5 12.287 2.508 1.79 8.036 3.636 9.566 5.788 1.014 1.426 1.331 4.699 1.667 6.494-1.004-1.327-1.068-3.291-2.146-4.576-.328-.392-2.642-2.344-3.376-1.902 1.434 1.861 2.446 4.411 3.845 6.231 3.87 5.032 10.677 10.308 15.117 15.59 2.636 3.135 6.992 10.659 9.327 12.745.955.852 2.044.557 2.93 1.388 1.638 1.533 4.054 7.217 5.516 9.358 2.01 2.942 5.217 6.259 7.139 9.175.6.911.343 2.623 1.2 3.598.654.743 1.995.837 2.879 1.44 2.869 1.955 5.715 4.383 8.717 6.156 1.284.758 4.862 1.523 5.394 2.828.572.826-.337 2.948-1.329 2.719l-9.715-6.615-1.118-.076c-.301.297 1.594 4.75 1.986 5.447.514.916 1.7 1.49 2.07 2.249.924 1.896 1.056 6.165 4.547 4.784 4.52 7.632 8.455 15.684 12.902 23.349 9.685 16.693 19.34 30.238 23.742 49.669.971 4.284 4.311 15.096-1.586 16.225-.667-.451-.377-9.606-.544-11.215-.93-8.987-4.35-20.458-10.49-27.17 1.326 10.285 5.069 20.152 7.434 30.226 1.224 5.215 3.646 15.775 3.086 20.812-.247 2.221-1.496 2.493-2.612 4.142-.395-2.278-.987-4.722-1.168-7.03-1.25-15.967-4.66-32.196-9.385-47.67-1.207-3.95-3.554-11.925-5.31-15.323-3.886-7.524-10.592-14.435-14.693-22.252-1.245-2.374-2.08-5.365-3.348-7.688-7.232-13.242-16.662-28.865-26.042-40.662-1.403-1.765-1.528-2.595-2.445-3.784-.572-.743-2.771-1.685-3.017-2.05-.126-.185.363-1.887-.08-2.288-1.045-.944-.746 1.195-1.43.953-.69-2.694.127-3.952-2.883-5.037l.955-.951c-2.164-2.188-3.805-4.852-5.769-7.19-4.15-4.941-12.243-11.282-15.342-15.845-.943-1.387-1.192-3.08-1.924-4.559l-.705 1.426-1.682-1.672.981-.927c-.202-2.399-4.092-3.558-6.006-5.084-1.786-1.425-3.293-3.56-5.046-5.03-5.474-4.588-11.4-6.793-17.757-9.825.64 3.007 6.423 3.59 3.119 6.703-.676-.33-.926-1.434-1.344-1.76-2.083-1.622-4.309-2.242-6.55-3.29-1.793-.839-2.197-4.023-4.824-3.583l.45-2.358c-2.097.063-5.006-2.104-6.564-2.36-1.463-.24-1.909.625-2.837.713-8.071.762-20.22-3.669-29.658-3.704-7.69-.03-11.821.757-19.707-.413-5.996-.89-14.29.262-20.515-.668-.762-.113-2.926-1.49-3.897-1.23l-.754 1.386-1.186-.975c-1.86.746-5.83 2.277-7.655 1.928-.717-.138-1.398-1-1.879-.906-.278.054-2.523 1.687-3.921 1.832-1.463.151-2.774-.295-3.828-.198-2.3.212-5.537 1.984-7.683 1.99-.33.001-.683-.54-.946-.78l-.24 1.426-2.182-.407c-.411.9-2.318 1.513-3.367 1.817-6.12 1.774-12.687 2.648-19.176 4.815-23.393 7.81-42.061 20.183-60.212 37.186-9.893 9.268-18.238 19.838-27.05 30.045-4.158 4.815-6.872 12.154-11.301 17.009l-.72.25-1.184-.775 2.374-4.999c-.988-.956-4.288 4.88-4.798 5.513-.911 1.13-2.113 1.322-2.983 2.775-1.825 3.05-1.805 7.526-5.276 10.078l-7.618 17.088-2.829-.909.44 1.85c-1.688.747-4.158 3.288-4.957 4.912-.536 1.09-.559 2.459-1.152 3.646-7.077 14.164-11.852 28.014-17.633 42.825-7.668 19.646-11.348 43.575-12.663 65.027-.075 1.222-.779 2.481-.471 3.825l-1.473.279c.316.994 1.077 2.588.967 3.59-.114 1.04-1.35 1.56-1.338 1.913.01.274.823.786.85 1.444.028.721-.76 1.342-.817 1.99-4.747 53.751-8.47 102.403-.556 156.784 7.335 50.4 30.211 119.445 67.642 155.45 3.845 3.698 18.136 17.174 22.025 18.807.641.27 1.41-.34 1.908-.045.683.406.808 2.15 1.42 2.929 1.283 1.632 9.531 8.222 11.562 9.55.713.467 3.597 1.508 3.77 1.78.28.438-1.17.931.994 3.055 8.829 8.664 22.188 18.127 32.587 24.985 1.224.807 4.973 4.46 6.636 2.476 2.714-3.236-.856-13.177 3.997-17.35 4.137-3.558 13.161-5.845 18.533-6.795 1.407-.248 2.94.262 4.008.073 1.468-.26 1.942-1.542 3.543-1.747 5.995-.77 13.803 2.842 19.693 2.95 4.684.086 5.576-4.3 11.7-1.184 3.956 2.013 5.172 6.262 7.958 7.898.656.386 3.586 1.019 4.42 1.563 1.814 1.185 1.543 2.916 2.357 4.593 1.347 2.774 4.804 5.501 6.358 8.515.638 1.238.32 2.609 1.24 3.558 2.103 2.168 5.84-.157 6.913.523.796 1.591 1.269 4.158 1.067 5.932-.198 1.747-1.869 2.896-1.716 4.548 1.886-.84 4.942-3.43 6.84-3.755 1.755-.3 3.375 1.26 5.606.867 1.272-.223 8.628-4.906 9.337-6.034.482-.767.395-1.788.798-2.56 3.38-6.476 4.86-8.452 10.308-13.684.878-.843 1.35-2.056 2.36-2.917 3.305-2.819 10.024-3.58 13.928-1.904 7.683 3.299-3.21 7.473-6.713 8.395l1.914-5.273c-4.473-.633-4.125 5.01-6.237 7.912-2.086 2.868-6.087 5.526-8.646 8.147-3.855 3.95-7.404 8.277-11.44 12.07-1.827 2.346.55 9.265 3.066 9.764 4.367.864 9.496-1.99 6.23-6.694l-2.403 2.385c-.938-.972.624-2.254.672-3.09.037-.645-.46-1.535-.452-2.405.025-2.742.39-3.962 1.525-6.433l2.017-.089c.132 1.001 1.456 1.674 1.725 2.308.444 1.05.688 3.835 1.237 4.908.412.806 1.79.913 2.082 1.765 1.292 3.77-5.229 5.417 3.23 7.318 5.606 1.26 8.703 2.832 13.857 4.373 4.464 1.335 8.798 1.057 13.39.405 4.179-.593 7.46-1.23 10.105-4.768 3.267-4.372 4.014-8.257 3.644-13.66-.077-1.115-.953-2.1-.865-2.766.07-.518.954-1.894 1.182-3.12.316-1.708.006-4.031.234-5.008.282-1.213 2.169-2.413 2.587-4.171.955-4.015 1.34-13.209-1.305-16.521-.412-.516-.594-1.178-1.381-.567-4.724 5.474-9.514 10.829-15.98 14.253-1.522.806-9.261 4.402-10.322 3.683-.06-.041-.347-1.05-.553-1.36 2.468.652 2.149-.691 3.171-1.37 4.705-3.123 9.944-5.545 14.107-9.424 1.238-1.155 7.957-8.574 6.71-9.842-10.294-.328-20.151.193-30.138 2.724-4.08 1.034-11.786 2.898-14.015 6.616-.724 1.209-.744 2.68-1.596 4.162-1.316 2.286-3.363 2.97-4.657 4.476-.417.485-.347 1.47-.514 1.62-.424.382-3.241.098-3.281-.643 1.566-2.038 5.187-10.203 7.177-11.011 1.834-.745 3.512-1.87 5.552-3.12 2.866-1.759 6.436-4.095 9.482-5.391 7.853-3.341 16.84-3.642 25.06-4.687 1.832-.233 3.627.242 5.506-.25 2.784-.731 13.766-10.144 16.819-12.45 1.127-.85 2.394-1.433 3.572-2.197l-.534-1.444c4.71-4.709 9.632-9.35 13.697-14.649 1.52-1.98 3.795-4.456 3.854-6.946l1.67 1.438 2.64-3.604c-.423-2.286-1.609 1.258-2.64 1.684-2.103.867.962-2.452 1.128-2.713 1.662-2.612 5.296-9.97 7.04-11.706.498-.495 1.158.045 1.655-.21.834-.429 2.499-3.996 2.692-5.015.158-.83-.49-1.728-.063-2.418.262-.422 1.445-.813 2.12-1.754.817-1.139 1.016-2.82 1.726-4.031 2.148-3.662 4.536-7.15 6.26-11.014l.242 1.437.947-.72-.952-1.19c2.361-.114 1.314-1.956 1.525-2.294.388-.62 3.072-2.84 3.6-4.087.546-1.29-.045-3.74 2.067-4.665l-.95 3.839c1.426-.749 2.196-2.565 2.443-4.103l-1.005-1.408 2.392-.725c-.504 3.867-2.445 7.493-4.233 10.877-4.464 8.448-10.18 17.86-15.235 26.028-10.602 17.132-25.048 40.455-43.116 49.967-1.99 1.048-4.592.796-6.014 3.104l1.386.738c.102.976-.044 1.9.273 2.87.346 1.056 5.477 10.466 6.002 10.791.502.312.976.398 1.475.014.38-.291 2.895-7.728 3.606-8.869l1.644-1.238-.964-.956c-.31-1.064.923-.522 1-1.021.106-.687-.476-1.492-.255-2.123.34-.965 7.515-6.753 6.935-5.015l-.954 2.16c1.962-.08 4.889 1.313 5.754-.952l-2.876-.48c1.09.053 2.126-.055 3.153-.448 1.686-.646 4.688-2.607 6.066-3.522 6.638-4.404 11.033-6.029 15.156-13.64 2.748-5.074 2.277-10.138 4.177-15.016 1.197-3.072 4.654-4.03 5.307-7.654l-.22-.775c-5.576-1.97-2.532-5.603-2.246-9.843.798-1.36 1.206-5.006 2.848-3.898.722-.102 1.058-1.43.776-1.83-.216-.303-1.708 1.275-1.432-.233l1.267-1.105c.631.12 1.866.133 1.609 1.074l-4.738 11.92c.372 1.531 2.886 1.61 3.977.864.665-.456-.32-1.874 1.237-1.482-.15 2.84-.759 6.746-1.9 9.371-1.61 3.703-6.357 7.7-5.342 12.017l-.903.207v.951l.926.21c.003.692-4.456 10.462-5.158 11.645-3.905 6.575-13.692 11.799-20.737 14.289-4.942 1.746-8.145.656-11.21 6.063-1.121 1.977-8.515 15.328-8.722 16.227-.802 3.482-.485 8.162-1.28 11.677-.455 2.017-2.066 3.352-2.274 4.442-.518 2.724.471 6.083.423 8.577-.215 11.176-7.37 17.09-17.575 19.373-4.544 1.016-8.44 1.004-13.095-.115-4.21-1.011-7.415-3.346-11.799-4.033-1.594-.25-7.359-.769-8.494-.093-.43.256-.397.929-.8 1.237 7.286 2.445 15.134 3.638 22.55 5.75 9.426 2.685 11.843 6.805 17.746 13.442 3.056 3.437 8.398 6.781 8.17 11.971-.26 5.937-8.088 14.405-11.25 19.496-1.189 1.915-6.776 11.134-4.61 12.715 3.772-.267 6.696-.249 8.592-3.935 1.003-1.95 1.418-6.529 4.209-6.797 3.778-.363 2.323 9.631 8.935 6.505 1.247-.59 8.602-7.791 8.032-2.062-.142 1.424-5.706 4.31-7.173 5.324-1.921 1.328-1.83 3.204-4.844 2.388-1.094-.297-2.148-1.589-3.139-1.707-.942-.113-1.796.47-2.735.392-.773-.065-1.712-.916-2.441-.77-.47.094-1.204 1.088-1.892 1.44-1.385.71-3.06 1.043-4.136 1.62-1.74.931-3.411 3.727-6.18 2.993-6.26-8.442 4.926-16.673 7.104-24.376-5.59-1.64.198-3.202 1.886-4.598.32-.263 3.657-3.947 3.874-4.282.81-1.248 1.065-2.6.954-4.08l-3.607 3.352-1.898-1.483c-5.217 1.446-9.555 4.888-14.308 7.34-4.44 2.29-14.44 7.835-18.832 8.511-3.687.568-8.195-2.204-9.748-5.546-1.725-3.714-1.32-6.821-2.203-10.273-.637-2.492-4.829-11.669-6.273-13.879-1.578-2.415-5.268-4.06-7.531-5.795-2.095-1.608-2.3-4.023-5.875-3.852-2.902.138-8.142 6.314-12.242 5.31.436 3.639 1.516 8.135 1.481 11.751-.027 2.79-2.044 11.55-3.034 14.284-2.764 7.64-13.207 19.119-19.314 24.348-1.528 1.308-2.96 3.513-4.846 4.27-7.634 3.065-8.037-6.101-10.08-11.022-3.518-.257-5.234 3.943-7.51 4.945-2.698 1.187-6.928 1.67-9.954 3-1.099.483-1.544 1.408-2.62 1.687-5.03-7.311 7.933-11.645 10.397-16.461 1.355-2.649.796-6.184 1.659-8.898.468-1.473 1.623-1.924 2.188-3.089 1.222-2.518 1.106-6.443 2.05-8.986.632-1.698 2.656-2.82 2.167-4.955-.09-.395-1.016-.136-1.012-1.015.007-1.297.996-1.95 1.006-3.14l-7.437 5.272-.235-.95c2.171.235 8.506-7.549 7.67-8.644-1.831.81-3.917.879-5.754 1.679-.534.233-4.527 2.531-4.687 2.751-.703.97-.548 4.797-.587 6.13l-3.34-.024c.138-.996-.808-4.015-1.748-4.238-4.356.465-7.975 5.512-12.46 3.813-1.62-2.257 4.006-3.842 5.525-5.1.784-.648 1.097-1.676 1.707-2.13 2.2-1.643 7.256-3.721 7.663-6.645.095-.675-.406-1.542-.19-2.166.243-.698 1.221-.674 1.334-.843.1-.15-.582-.973-.202-1.847.75-1.73 19.41-11.551 20.418-10.574.073.687-.404 1.69.715 1.436l3.489-3.23 14.506-3.966c.154-.804-.176-1.006-.832-1.323-2.172-1.047-5.286-.855-7.538-1.578-2.914-.934-3.118-2.43-7.237-1.908-1.562.198-2.576 1.42-4.05.74-2.238-1.032-1.6-3.838-.868-5.664.082-.205 3.062-2.88 3.263-2.972 1.844-.845 5.177-.461 5.99 1.662.807-2.322 1.954-2.233 4.3-2.41 5.234-.392 9.075-.311 13.707 2.163 1.959 1.047 3.654 3.857 5.757 1.948.468-.425 3.022-4.341 2.861-4.565-.518-.068-1.226-.205-1.618-.534-2.346-1.972-7.384-8.313-8.946-10.864-.397-.649-1.443-3.126-1.408-3.75.066-1.15 1.937-1.69 1.397-3.067-1.224-.41-2.693-1.09-3.78-1.764-.395-.245-.449-1.124-.802-1.18-.906-.141-1.578.916-2.38 1.006-2.758.31-10.11-7.071-13.76-7.855-2.54-.546-3.524 1.96-5.38 2.032-1.573.062-3.46-1.44-4.83-1.426-1.46.016-1.75 1.195-2.363 1.29-1.85.286-6.029-1.08-8.19-1.238-5.908-.43-9.132 2.477-13.93 2.327-1.111-.035-2.087-1.136-3.362-1.344-4.334-.705-9.343 3.07-10.656 7.038-1.328 4.016-.26 9.692-1.547 14.042 1.276.264.826-.325 1.19-.945 2.23-3.784 1.858-3.757 5.067-6.948.732-.728 1.384-2.248 2.1-2.694 4.644-2.888 2.23 5.49 2.695 7.929.21 1.097 1.353 1.73 1.303 2.815-.047 1.034-2.766 7.39-3.513 8.452-3.205 4.557-10.293 8.927-13.178 14.17-1.324 2.406-3.606 11.92-2.784 14.333 1.58 1.008 2.974 2.802 4.294 3.862 2.482 1.996 2.563.788 4.76 4.265.286.453 1.709.508.697 1.793l-4.969-.554c-.017-2.394-2.056-1.644-3.931-2.54-.708-.338-2.851-2.083-3.112-2.68-.299-.683.273-1.191.25-1.618-.016-.325-.813-.223-.93-.629-2.022-7.053 2.474-12.753 3.607-18.83.288-1.547.08-2.98.345-4.453.677-3.78 2.378-6.742.813-10.434-4.197 1.431-9.003-.415-4.302-4.096.31-1.175-7.5-5.88-8.862-6.967-7.137-5.697-14.068-12.356-21.137-18.206-3.772-3.121-10.632-7.142-13.69-10.303-2.732-2.824-5.226-6.758-8.583-9.167-2.04-1.464-4.702-2.265-6.967-4.068-15.973-12.713-38.545-40.518-46.987-59.05-3.564-7.825-8.981-14.985-12.159-23.348-9.706-25.546-17.741-46.583-22.596-73.848-12.575-70.613-7.947-133.636.934-203.783 3.141-24.813 9.077-44.86 17.7-68.231 8.91-24.146 21.845-45.688 36.365-66.797 3.485-5.067 7.635-9.081 11.41-13.54 9.708-11.466 19.89-23.703 30.188-34.585 14.17-14.973 32.078-25.527 49.702-36.18 5.262-3.18 14.346-6.705 18.448-10.819.881-.884 1.508-2.555 1.78-2.779.875-.715 16.284-4.008 18.47-4.319 3.385-.482 6.774-.247 9.896-.66 4.763-.63 10.773-2.623 15.362-2.285 4.582.337 9.231 1.795 13.981 1.405 3.767-.31 7.629-2.19 11.479-2.433 7.8-.491 13.813 4.625 22.538 3.346 1.95-.286 4.53-1.85 6.765-1.906 2.894-.072 7.03 1.44 9.603 1.907 1.403.255 3.086-.114 4.534.032m-97.879 3.352V5.81h-.47v.955zm-63.326 35.033c-1.782.227-3.343 1.158-4.752 2.2l-3.876 4.036c2.384-1.97 5.037-3.463 7.682-5.046.61-.365 1.215.094.946-1.19m-13.91 10.55c1.034.183 4.973-3.143 4.313-3.834-1.777.77-3.19 2.288-4.313 3.834m-41.26 49.434c-.6-.32-1.671.768-1.438.95.6.32 1.672-.768 1.439-.95m-22.063 31.185c.84-.203 1.098-1.009 1.448-1.665.297-.558 1.33-2.285.224-2.651zm.475.485-.957-.002.002.957zm-2.876 3.831c.275.276 1.427-.4 1.427-.717 0-1.328-2.152-.008-1.427.717m364.13 2.405h-.954v.954h.955zm13.434 27.353h-.955v.47h.955zm.957 2.392v-.955h-.47v.955zM113.02 596.98l-.957.002.722.952zm89.477 29.748v.48q.468-.24 0-.48m-14.32 28.145c2.657-2.587.785-5.94-1.488-2.69-.423.605-2.154 4.146-.499 3.824.676-.254 1.474-.635 1.987-1.134m-9.423 8.323c2.132-2.446 4.86-7.944 3.111-11.034-1.099 3.646-2.887 7.151-3.11 11.034m100.264-3.352c-2.305-1.61-5.701-.456-7.418 1.454-1.152 1.283.653 5.464 1.654 6.005 2.365 1.278 5.127-5.783 5.764-7.459m-39.337 1.91c3.668-1.319 7.484 2.144 10.542-.717-2.832-2.298-6.098-1.781-9.32-.695-.787.266-1.396.352-1.222 1.412m55.89-.478v.48q.465-.24 0-.48m-38.213 1.99c-1.503-.764-2.731-.85-3.758.65 1.198 1.594 1.883 1.845 3.772 1.145zm7.995.412c-1.134.25-.708 2.173.465 1.915 1.134-.25.708-2.173-.465-1.915m-11.764 2.4h-.955v.954h.955zm15.352 1.914-.235-.955-.722.953zm-4.318-.473h-.954v.47h.954zm-27.823 5.269c3.752-.904 7.802-1.237 11.025-3.599-2.942.48-6.938 1.195-9.7 2.289-.567.224-1.175.697-1.325 1.31m92.276 18.075c-6.314-5.095-14.495-4.879-22.246-6.779-5.024-1.231-13.522-3.904-17.696-6.774-2.972-2.044-4.304-5.223-8.205-4.314-.934 2.643-3.225 5.192-2.863 8.15.288 2.353 7.443 8.044 9.354 10.355 2.781 3.362 5.76 10.517 6.822 14.77.738 2.96.678 10.127 3.137 11.737 4.641 3.04 8.17 1.515 12.815-.358 5.726-2.308 12.35-6.39 18.082-9.267 2.584-1.297 4.708-4.042 8.052-2.5l.513-.457c-.271-.895.3-5.423.15-5.664-.116-.187-.883-.261-1.074-.604-2.406-4.317-2.877-5.097-6.84-8.295m-68.768-17.588c-1.341-.04-2.757-.284-3.61.94l.74 2.892c2.087.255 3.035-1.966 2.87-3.832m4.318 1.922-2.188.446-.208 2.426c1.507.101 1.756-1.878 2.396-2.872m-38.863.96h-.955v.47h.955zm36.462 2.876-.952-.001-.485 1.434c.875.162 1.59-.526 1.437-1.433m-30.225.96c-1.185-.134-2.526-.03-2.394 1.435l2.394-.485zm23.987 0c-5.996-.543-4.22 8.17-10.407 4.89-1.2-.636-2.24-2.666-3.515-2.314-.386.107-5.95 3.865-6.663 4.42-7.84 6.11-12.051 14.542-12.937 24.502-.118 1.325-.46 1.85.918 2.36-1.207 2.166.245 1.435.698 2.113.214.32.862 7.301.658 7.627-1.3.919-3.638.14-4.73.785-.736.434-3.409 5.247-4.308 6.249-1.246 1.387-4.736 3.466-5.537 5.02-.369.715.117 1.42.486 1.435.288.012 4.858-2.21 5.22-2.447 1.112-.725 1.775-2.272 2.95-3.288 8.408-7.273 9.348 10.183 13.816 9.51 5.334-2.496 7.893-7.394 11.58-11.46 1.221-1.346 3.351-2.36 4.576-4.061 1.28-1.78 4.53-7.304 5.547-9.327 2.85-5.667-1.547-1.17-2.687-.762-4.55 1.63-1.626-4.631.999-5.768 1.411-.61 2.303 1.355 3.577-1.66 2.468-5.837-.64-15.17-.737-21.329-.036-2.304.49-4.249.496-6.496m4.78.978c-1.312-.536-1.897 2.682-2.41 3.537 1.769 1.813 2.531 2.392 4.83.512-.401-.531-2.202-3.96-2.42-4.05m-41.238.464c-1.792.569-5.883 2.023-7.19 3.121-.847.711-.42 2.11-.482 3.112zm5.517 1.914v.48q.467-.24 0-.48m-3.358 1.92v.48q.467-.24 0-.48m6.476 4.803c-.6-.32-1.672.768-1.439.95.601.32 1.672-.767 1.44-.95m-4.557 1.915v.48q.467-.24 0-.48"/><path d="m170.053 14.87-12.187 6.758c-7.572 5.522-15.925 9.502-23.731 14.652l-1.048 6.387L129.858 44l-5.116 12.637c-.746 1.74-3.354 2.508-4.268 3.41-1.405 1.386-.717 4.456-4.713 3.348-.472-.131-1.682-2.627-2.244-3.148-.695-.411-8.167 4.254-9.38 5.052-5.262 3.459-9.744 7.731-14.095 11.834-2.708 2.553-3.626 4.942-5.087 8.328-3.42 7.927-6.255 16.328-6.29 25.11-.005 1.189.884 3.772.54 4.623-.09.226-2.342 3.733-2.634 4.108-.887 1.138-2.684 1.254-2.415 3.109-1.753.475-1.593-1.236-2.736-1.816-.79-.401-2.161-.214-2.996-.843-1.839-1.383-1.479-5.988 1.14-5.533.22.038 1.05 2.452 3.308 1.983 1.37-1.55 1.82-3.757 1.771-5.787-5.458-.85-6.822 2.733-9.817 5.777-2.18 2.215-4.308 2.956-5.63 6.365-.414 1.066-.039 2.43-.847 3.51-.585.78-1.483.051-2.191.606-3.041 2.383-7.04 20.176-9.73 24.86-1.35 2.348-3.262 4.041-5.367 5.673.217 2.3 4.2.401 5.065 1.64.615 1.767-.197 4.123-1.13 5.65-1.82 2.974-5.41 2.73-8.225 4.73-4.018 2.856-13.028 17.157-14.445 22.02-3.23 11.078-.024 18.627 3.608 28.586 2.617 7.177 2.921 8.703 2.12 16.502-.199 1.925-.01 1.903-.06 3.313-.015.412-1.34 4.248-1.601 4.611-.723 1.004-2.84 1.57-3.814 2.423-9.017 7.907-9.1 27.668-7.304 38.514.66 3.984 2.406 3.967 4.403 6.633 2.496 3.334 4.795 9.297.238 11.757-.241 1.48 5.508 5.607-.129 5.916-1.935-.647-1.194-5.495-6.024-.62-4.129 4.168-6.894 17.918-5.216 23.35.23.744 1.12 1.02 1.321 2.038.71 3.599-.827 8.12-.422 11.94 1.217 11.473 8.042 21.279 7.142 32.922 8.1.837 2.722 2.987.555 5.587-3.055 3.668-3.303 7.188-4.621 11.213-.817 2.493-3.163 5.219-3.961 7.555-1.703 4.983-1.202 10.354-.665 15.284.568 5.205.083 12.672 3.431 16.727.465.563 4.139 4.31 4.412 4.472.915.541 2.631-.825 1.716 2.164-.927 3.028-6.045 1.525-7.593-.501-3.606-4.722-4.873-16.267-5.286-22.177-2.633-.142-3.892-.361-4.25-3.185-.681-5.365-.185-15.478.486-21.014.402-3.316 2.592-4.383 2.85-6.265.331-2.417-.477-4.574-.544-6.744-.043-1.4.721-2.611.501-4.276-.244-1.85-2.363-3.982-2.744-6.396-1.525-9.662 3.752-14.422 3.238-23.392-.24-4.182-1.656-8.83-1.906-12.965-.14-2.312-.597-3.71 1.925-4.399 1.121-7.156 2.5-20.844 8.118-25.85 2.663-2.374 5.612-1.39 5.806-6.712.103-2.825-1.923-1.917-3.883-3.322-5.018-3.599-4.964-16.509-4.313-22.108.129-1.114.9-6.54 1.069-7.086.227-.738 1.325-1.102 1.343-2.002.019-.97-1.19-2.166-.982-4.338.05-.523 1.415-5.824 1.568-6.127.156-.309 3.85-5 4.216-5.38 1.064-1.106 3.99-2.295 4.546-3.611.557-1.319.555-4.51.951-6.247.855-3.74 2.124-5.56 1.644-9.768-.593-5.201-3.816-8.816-5.006-13.226-2.404-8.912-1.391-19.349.99-27.843 3.022-10.783 6.843-20.445 16.05-27.612 1.475-1.148 3.387-1.666 4.762-2.915 5.71-5.19 7.494-17.1 10.37-24.176 3.19-7.844 8.195-14.49 13.899-20.649 2.67-2.883 4.894-5.91 9.111-3.35l.504-.469c.463-1.853.456-3.954.93-5.787 2.964-11.45 9.515-28.296 19.288-35.411 5.941-4.326 13.165-7.583 19.017-12.206 2.79-.836 2.591 3.844 4.183 2.78.442-.295 1.337-2.847 1.984-3.773.928-1.326 2.321-2.226 3.269-3.449 3.136-4.05 4.107-9.782 5.553-14.6 9.5-6.115 19.286-12.272 29.158-17.86 1.566-.886 9.39-5.317 10.376-5.476 1.175-.19 1.77 1.754 1.4 2.624M58.328 124.805l-.003-.957-.952.722zM34.026 167.2c3.052-2.395 8.322-1.643 6.824-5.957-.289-.402-3.391-.838-3.652-.688-.207.118-2.768 3.207-3.063 3.634-.47.681-2.582 4.324-2.19 4.763 1.323.268 1.479-1.28 2.08-1.752M4.114 409.84c.293-2.85.605-5.487 1.69-8.154.999-2.457 3.155-4.659 4.154-6.88 1.408-3.13.946-5.893 3.143-9.333.948-1.483 2.61-1.506 2.563-4.212-.03-1.75-1.22-1.418-1.887-2.438-2.25-3.44-1.061-5.106-1.511-8.565-.785-6.029-2.891-12.423-4.678-17.874-.977-2.981-.17-7.348-1.794-10.203-.278 4.564 1.25 9.065.724 13.675-.323 2.828-2.35 4.842-2.766 7.31-.508 3.015-.257 8.695.608 11.64.45 1.534 1.88 3.418 2.126 5.071.211 1.423.642 9.364.258 10.277-.437 1.04-2.268 1.668-2.83 2.444-1.537 2.121-1.118 13.459-.757 16.528.083.707.355 1.454.957.714M469.485 294.672c1.991.08 2.481-1.739 2.883-3.355.851-.05 1.02-.226.97.726-.083 1.544-1.461 4.112-1.816 5.871-2.186 10.86-.269 22.887-.58 33.968-.351 12.46-.326 28.785-5.687 39.898-1.283 2.66-3.619 4.71-4.645 7.83-1.167 3.551-.827 14.137-3.73 15.496-1.486.695-3.871-1.262-3.739 2.997.039 1.231 4.19 5.542 5.222 7.26 5.692 9.483 5.326 25.602 3.33 36.27-.61 3.257-7.861 12.317-10.419 15.012-1.394 1.469-3.398 2.572-4.815 4.056 2.522-5.58 6.72-10.392 9.192-15.993 3.607-8.172 5.633-19.388 3.54-28.177-.557-2.344-2.614-5.138-3.044-7.07-.267-1.204.476-2.197.16-2.973-.098-.239-2.599-3.691-2.997-4.203-.307-.396.007-.877-1.092-.604-.908 4.202-2.57 8.236-3.725 12.355-1.082 3.862-.86 8.05-3.634 11.72l-2.726 17.673 2.405-.004c.388.382-1.665 9.493-2.055 10.665-.48 1.441-1.913 3.146-2.152 4.086-.602 2.37.037 4.676-1.283 7.354-.563 1.142-4.032 5.516-5.3 5.247-.835-.532-.479-.703-.426-1.336.648-7.777 3.532-15.127 5.335-22.537 2.914-11.98 3.544-25.606 8.178-36.926l1.827-11.438-1.249-1.654c2.926.528 2.976-2.538 2.833-4.777l-1.39-.263c.534-1.146 2.086-2.283 2.32-3.476.26-1.336-.452-2.196-.391-3.223.285-4.866 3.22-11.724 3.688-16.464.133-1.343-.486-3.432-.265-4.555.237-1.2 1.78-2.158 1.798-3.465.011-.872-.769-2.106-.894-3.38-.346-3.527.772-10.044.957-13.885.56-11.596 1.466-23.977.478-35.502-1.55-18.07-4.802-36.499-5.77-54.733-.115-2.15.066-4.329-.003-6.476h1.435c.136 1.245-.265 2.811.097 3.985.228.74 1.303 1.08 1.329 1.99.022.813-.779 1.681-.754 2.428.04 1.173 1.515 4.158 1.705 5.299.723 4.337.096 9.305.488 12.858.031.29.797.267 1.057.966.28.75 1.705 9.994 1.35 10.378l-1.08.005-.347 1.198 1.69.672c.644 5.31.514 10.753.709 16.12.516 14.244 1.829 28.798-.025 43.172.597 13.3-.932 26.437-2.374 39.607.915-.89 1.723-3.1 2.146-4.327.552-1.602.68-3.324 1.333-4.904 1.147-2.775 4.455-6.06 5.402-8.513 1.857-4.814 2.263-15.854 2.648-21.344.865-12.32.645-24.598.92-36.987.042-1.917 1.271-3.255-.183-5.059-1.29-1.6-3.978-1.197-3.953-4.432.009-1.185 1.094-6.299 1.52-7.52 1.337-3.822 5.387-6.324 5.083-11.3-.077-1.251-.805-2.012-.829-2.397-.603-9.724-2.673-16.942-5.302-26.529-.646-2.355-5.65-15.677-6.71-17.246-.61-.903-1.498-.541-2.048-1.338-.14-.204-.985-2.71-.977-2.861.07-1.178 2.585.339 2.823.528 2.488 1.98 9.3 20.79 10.604 24.902 2.821 8.898 4.904 18.919 3.831 28.32-.401 3.516-3.363 6.612-2.877 10.314m-13.92 79.174c.976-2.367-1.143-2.479-.953 0zM25.594 441.624c.234.235.95 2.246.995 2.649.245 2.154-2.715 2.122-4.261 3.211-1.353.953-4.83 5.283-5.147 6.85-.344 1.699.121 3.496-.136 5.141-.548 3.503-1.646 6.811-1.712 10.664-.28 16.31 17.582 27.061 24.849 40.144 1.02 1.837 1.547 4.152 2.47 5.69 1.367 2.276 3.039 1.565 1.28 5.668l-2.634-1.43c-1.16 1.195-1.458 3.362-1.101 4.926.282 1.238 1.482 1.787 1.72 2.603.488 1.668.054 4.202-.384 5.896l-1.912-2.164c-1.974-.921-.153 6.272.729 7.433 1.248 1.644 4.815 2.392 6.946 5.05 2.074 2.586 4.536 9.707 6.463 11.29 1.065.874 6.839 3.246 7.862 2.31.122-.636.296-2.088 1.26-1.842 1.935 5.413 6.815 6.047 10.807 9.348 5.559 4.597 5.594 6.537 7.79 12.84.234.671 1.173 1.205 1.197 1.554.025.378-.767 1.096-.795 1.913-.042 1.28 1.438 2.7 1.339 3.303-.33 1.341-2.164 1.424-2.684 1.881-.402.354-.408 1.252-.872 1.763-.528.582-1.38.741-1.883 1.484-2.222 3.284-1.295 8.06.78 11.178.673 1.012 2.46 2.23 2.71 3.063.515 1.72-.904 3.298-.151 4.921.418.904 4.498 4.241 5.56 5.008 3.597 2.599 5.525 1.64 6.842 6.591 1.081 4.063-.065 8.069 4.615 10.296 2.063.472 7.27-4.137 8.418-4.136.66 0 1.96 1.436 2.922 1.875 3.614 1.65 5.136.257 8.532.585 3.807.367 8.894 2.979 13.04 3.271 1.174 3.69 4.31 4.026 5.903 7.066.176 1.972-5.378.84-6.657 1.13 2.534 3.087 4.417 11.075 8.988 11.879 3.598.632 4.306-2.196 8.255.86 2.883 2.233 1.466 6.142 5.328 8.588 1.92 1.216 4.112 1.482 6.342 1.105 2.031-.343 5.497-3.125 6.787-2.739 2.504.75-3.074 4.468-4.081 4.97-7.898 3.94-13.023-.407-15.765-7.659-5.61.483-11.39-1.682-14.812-6.294-2.677-3.607-4.329-10.016-8.537-12.094-1.606-.793-4.33-.992-5.426-1.771-1.178-.837-2.342-4.039-2.98-5.415-1.511-.408-2.963.66-4.463.42-1.489-.24-2.04-2.435-4.344-2.436-4.196-.004-5.825 8.664-11.952.943-3.224-4.063-2.062-7.979-3.611-10.663-.341-.59-5.301-3.592-6.518-4.637-3.719-3.196-5.696-6.832-8.607-10.6-.447-.578-1.402-.751-1.723-1.264-.483-.77-.915-3.109-.835-4.089.857-10.503 10.325-21.851.152-31.094-.777-.706-9.738-7.17-10.352-7.436-1.688-.732-3.165 1.946-6.932-.708-5.545-3.906-6.17-10.782-9.82-14.651-1.258-1.335-3.137-1.376-4.499-2.218-3.804-2.353-4.82-7.653-5.06-11.737-.068-1.14.567-2.211.404-3.734-.314-2.935-3.845-4.558-1.822-7.904l3.771-.066c.906-6.178-5.131-4.697-8.813-6.304-.295-.129-2.894-1.814-3.203-2.074-3.675-3.103-11.163-17.866-13.168-22.819-.752-1.86-.998-3.926-1.966-5.72l2.204-2.668c.33-10.354-2.684-21.245 2.96-30.628.788-1.308 5.228-7.553 6.115-8.278.944-.773 2.36-1.016 3.283-.088m-6.604 46.423-3.353-5.75c-.81 1.208 2.393 6.651 3.353 5.75m20.147 24.955c-1.114-3.625-3.936-6.854-6.693-9.376-.806-.739-1.897-.889-2.923-1.875-3.367-3.233-5.403-9.33-9.567-11.78-1.422 1.916 3.766 13.074 5.274 15.115 3.274 4.43 8.858 6.317 13.91 7.916m90.674 127.159-2.38-5.08c-2.87.626-4.834.79-7.689-.194.075 2.156 2.785 1.683 4.183 2.289 2.01.871 3.571 2.814 5.886 2.985m18.711 16.8c-1.54-1.358-2.167 2.576-.475 1.199.365-.297.717-.986.475-1.2M428.827 538.08c-.567.461-1.83 4.038-2.496 4.433-.71.422-3.648-1.16-2.907 2.165l-1.434-.002c-.917-2.127.202-3.29.389-4.665.152-1.12-1.096-2.414.581-3.243 1.308-.647 2.068-.146 3.834-1.441 6.3-4.62 8.192-17.577 8.158-24.948-.015-3.094-2.675.998-3.288 1.988-3.286 5.3-6.853 9.75-10.064 14.886-4.426 7.08-6.98 15.13-12.065 21.874-.732 1.023-1.869.379-2.902.342-.757-.856 5.452-8.095 6.323-9.748 2.07-3.926 3.585-9.155 5.43-13.299l2.418-.454c-.505-2.843 1.169-3.078 2.35-4.837 4.767-7.099 12.499-17.523 14.062-25.764 1.033-5.444 1.165-11.57 2.088-17.105.208-1.245 1.19-2.4 1.292-3.514.154-1.66-.65-3.402.586-5.409 1.66.622.462 2.3.451 3.579-.047 5.647-.18 10.44-.73 16.066-.034.356-.518 1.51.507.984.367-.189 2.891-4.855 3.375-5.744 1.746-3.21 3.178-7.525 4.927-10.428.745-1.238 1.994-1.958 2.604-3.153.686-1.343.757-3.322 1.572-4.661 2.09 1.507 1.865 2.644 1.053 4.89-2.886 7.977-8.589 15.476-12.73 22.774-2.994 5.278-2.43 10.002-3.545 15.647-1.277 6.471-2.584 10.274-2.769 16.905-.064 2.296-1.932 7.76-3.359 9.596-1.466 1.887-2.821 1.56-3.711 2.285M413.828 90.737c-1.083.198-.766-.044-1.07-.61-4.585-8.52-7.743-17.352-13.814-25.046-2.256-2.86-7.036-6.84-8.648-9.583-.447-.76-.557-1.311-.449-2.186.922 1.725 2.418 1.582 3.304 2.209 3.058 2.162 9.668 10.704 11.766 14.144 1.668 2.737 7.972 13.84 8.696 16.254.468 1.56.132 3.231.215 4.818M323.159 726.533c-.171-.965.858-1.272.973-2.183.129-1.02-.537-1.982-.413-3.205.544-5.375 3.906-1.434 3.077 2.059-.374 1.576-2.065 2.913-3.637 3.33"/><path d="M135.418 610.564c.1.113.678 1.092.398 1.278l-2.644-2.384c.657-.055 1.861.672 2.246 1.106M15.152 244.765l-1.437.003v-.955l.71.002zM14.672 249.564l-.957.002.002-.957zM371.134 607.059h.955v.47h-.955zM13.235 250.533h.955v.47h-.955zM419.827 524.52q.468.24 0 .48z"/></g></svg>