<?xml version="1.0" encoding="UTF-8"?><!DOCTYPE svg PUBLIC "-//W3C//DTD SVG 1.0//EN" "http://www.w3.org/TR/2001/REC-SVG-20010904/DTD/svg10.dtd" []><svg xmlns="http://www.w3.org/2000/svg" xmlns:xlink="http://www.w3.org/1999/xlink" data-name="Layer 1" height="233" viewBox="0 0 180.76 232.83" width="181"><path d="M98.72,122.32c10.57,6.74,22.97,8.44,34.88,11.94.35.12.69.18,1.01.18,2.46,0,3.5-3.31,0-3.43-10.21-2.11-19.53-7.4-29.68-9.75-11.63-2.1-21.62-8.68-32.36-13.36-1.78-1.24-5.71.39-3.49,2.57,9.53,4.94,20.2,7.33,29.65,11.85Z"/><path d="M26.64,201.87c-.43-.14-.92-.05-1.26.28-.3.29-.41.69-.45,1.09-.33,3.2-.6,6.4-.68,9.61-.14,2.03-.03,4.08-.07,6.11,0,1.29-.11,3.57,1.34,4.45.37.19.7.27.97.27,1.64,0,1.46-3.08,1.29-4.48-.09-3.21-.1-6.43-.05-9.64-.28-2.4,1.72-6.4-1.09-7.69Z"/><path d="M91.26,5.15c-3.19,3.94-6.47,7.78-9.67,11.71-1.44,1.86-4.67,4.58-2.22,6.91.38.35.73.48,1.06.48.92,0,1.66-1.09,2.21-1.94,1.89-2.67,3.95-5.21,5.91-7.81,1.73-2.18,3.47-4.36,5.28-6.46.65-.76.26-2.1-.33-2.76-.62-.69-1.6-.89-2.24-.13Z"/><path d="M45.47,38.23s-.01-.06-.02-.09c0,0,0,0,0,0l.02.09Z"/><path d="M180.59,100.81c-.48-2.56-.67-5.38-1.78-7.76-1.36-4.19-3.69-7.92-4.5-12.32-.56-1.83-1.05-3.64-1.39-5.5-1.91-4.88-3.99-9.69-6.79-14.13-3.85-5.79-7.89-11.57-12.89-16.39-2.52-2.98-4.93-6.3-7.2-9.49-4.24-4.72-8.69-9.25-12.79-14.08-2.52-2.28-5.83-3.73-8.22-6.26-2.58-2.34-4.72-5.12-7.57-7.16-2.87-2.3-6.39-3.48-9.78-4.76C102.57,1.26,97.11-.24,91.67.03c-5.27.53-10.44,2.65-15.27,4.82-2.04,1.04-4.48,1.86-5.91,3.69-.23.47-.2.88-.03,1.22-7.81,7.39-15.21,15.18-22.27,23.3-1.17,1.48-3.29,2.94-2.74,5.08.04.1.09.17.14.25-.13.13-.27.25-.39.39-3.46,3.84-5.75,8.58-6.96,13.6-.64,2.44-1.64,4.58-2.17,7.07-.78,4.27-1.04,9.02.05,13.32.78,3.4,2.23,6.88,3.01,10.34,1.43,4.48,2.48,9.31,4.49,13.64,1.34,2.54,3.57,5.15,5.27,7.57,2.25,2.89,4.2,6.32,7.55,8.06.11.03.23.04.35.04-.03.19-.03.39,0,.59-1.27.04-2.54.19-3.79.49-3.12,1.08-6.2,2.59-8.9,4.58-.31.02-.62.03-.94.06-2.85.37-5.29.34-8.12.4-5.42-.31-10.36,2.04-14.21,5.66-2.38.75-4.73,1.65-6.66,3.32-3.98,2.73-6.39,7.13-8.27,11.46-3.63,6.56-5.94,13.81-5.16,21.41.11.8.28,1.58.47,2.36-.57,6.15-1.55,12.26-1.1,18.48.1,3.47.03,6.95.4,10.4-.16.94.2,2.08.38,3.04,1.01,5.03,2.27,10.03,4.72,14.59,2.56,5.23,6.9,9.15,11.34,12.71,2.66,2.11,5.05,4.63,8.18,6.1.4.62,1.19.91,1.86,1.16,1.85.74,3.67,1.45,5.64,1.83,3.56,1.03,7.5,1.63,11.33,1.66,1.22.08,2.42.11,3.63.11,8.93,0,17.71-1.78,26.6-2.63,1.31-.01,2.64,0,3.96.04,3.39.06,6.78.13,10.13-.38,4.87-1.35,9.64-3.05,14.52-4.38,3.39-1.13,6.92-1.36,10.29-2.43,5.3-1.32,10.15-3.91,14.77-6.76,3.36-2,7.12-3.14,10.51-5.03,4.98-3.4,9.44-7.33,11.92-13.05.21-.37.39-.85.51-1.34.92-.07,1.46-1.19,1.5-2.13.48-3.92.55-7.87.68-11.81.17-5.28.46-10.56.1-15.84-.19-1.3.29-3.34-1.34-3.84-.61-.05-.92.2-1.08.61.36-5.18-1.9-10.73-5.25-14.64-1.09-1.1-2.09-2.75-3.47-3.57.19.07.39.11.58.11.75.09,1.55.13,2.3.14h-.28c4.28.14,7.71-1.91,9.99-5.01.15.06.3.09.45.09.56,0,1.14-.34,1.64-.62.87-.46,1.71-.98,2.56-1.47.84-.5,1.73-.89,2.49-1.53,4.91-4,10.12-8.15,12.89-14.07,2.6-4.58,5.05-9.45,5.5-14.77.17-2.6,1.05-5.1.53-7.71ZM76.4,96.63h0c.77-.98,2.46-2.57,1.1-3.77-.68-.49-1.51-.03-2.02.48-1.38,1.63-2.94,3.1-4.36,4.69-2.38,3.07-5.3,5.6-8.24,8.1-.24-.48-.77-.81-1.03-1.28-.79-1.05-1.42-2.38-2.1-3.54-1.6-2.83-2.79-5.91-4.56-8.65-2.56-4.37-5.72-8.48-7.42-13.29-.88-3.41-.3-6.85-.26-10.36,1.3-7.11.21-14.89,4.2-21.35,1.68-2.78,4.5-4.47,7.18-6.22,2.58-1.64,5.29-3.01,8.11-4.13-.04.22-.07.43-.1.64-.33,2.38-.34,4.79-.35,7.2-.18,6.02.18,12.49,1.7,18.4,2.8,9.24,4.13,19.7,12.07,26.22,3.28,2.39,6.82,4.46,10.13,6.88,7.24,4.84,15.8,6.54,24.19,7.94,4.78,1.7,9.27,3.91,13.88,6.07,3.8,1.47,7.85,2.37,11.9,2.85.48.06.96.1,1.41.1,1.78,0,3.12-.65,2.59-3.06-.32-1.13-1.43-2.46-2.75-2.18-2.71.36-5.41-.39-8.09-.52-4.75-.58-9.55-1.35-14.09-2.93-4.27-1.52-8.13-4.15-12.15-6.23-3.64-2.08-7.63-3.52-11.53-5.11-3.91-1.67-7.95-2.96-11.44-5.45-2.66-3.29-5.57-6.63-8.01-10.17-1.96-3.16-3.81-6.68-5.01-10.25-2.17-7-1.48-14.68-1.46-22.02-.09-2.89,1.27-6,.28-8.78-.12-.21-.28-.41-.46-.59,1.45-.48,2.92-.9,4.43-1.24.83-.11,1.81-.49,2.48-1.09.28.27.61.51.92.75,6.03,4.87,11.22,10.73,17.38,15.47,2.52,2.15,5.07,4.27,7.64,6.37,1.95,1.23,4.02,2.3,5.58,4.03,4.16,4.18,6.9,9.27,10.73,13.81,2.74,4.3,6.51,7.74,10.47,10.85,2.17,2.31,3.58,5.18,5.29,7.83,1.67,3.27,3.52,6.43,5.49,9.52,1.1,1.59,2.4,2.94,3.2,4.76,2.18,3.82,3.45,7.96,4.17,12.32.42,2.86,1.65,5.59,1.52,8.5-.31-.1-.67-.07-1.09.16-6.66,3.6-11.84,11.27-10.82,19.01.03.19.09.42.16.66-.09.05-.17.1-.24.17-3.68-4.09-8.58-7.1-13.48-9.52-5.61-1.7-11.18-4.37-17.18-4.15-1.47.47-1.99,1.26-1.83,1.97-.44-.69-.89-1.39-1.34-2.07-2.54-3.43-6.4-6.09-10.46-7.39-1.94-.55-9.81-3.18-8.73,1,.59,1.35,2.41,1.52,3.73,1.56,6.36.16,11.73,4.37,15.72,9.11,3.17,4,4.16,9.18,5.13,14.1-.04,3.28.4,6.58-.36,9.81-.37.71-.46,1.43-.32,2.08-1.69-1.11-3.39-2.26-5.17-3.21.29-.1.52-.31.54-.68.66-2.91.96-6,.5-8.94-.74-5.02-3.66-9.15-7.4-12.44-1.97-1.89-7.3-6.87-10.08-5.16-1.08,1.04.09,2.51,1.15,3.02,7.81,3.36,13.74,11.01,13.83,19.66.16,1.07-.59,2.57-.29,3.61-3.98-2.09-8.44-2.72-12.76-3.75-.62-.26-1.22-.55-1.82-.84.79-.57,1.4-1.42,1.53-2.33.23-2.27.6-4.58.35-6.86-.48-4.68-2.39-9.01-3.41-13.58-1.48-6.85-5.44-13.76-12.4-16.08-3.8-1.89-8.08-3.48-12.41-3.95.31-.26.62-.55.96-.81,5.6-4.81,10.74-9.92,15.38-15.72ZM28.53,188.93c-1.59-2.96-4.46-5.2-6.15-8.17-2.69-4.29-5.1-8.51-7.35-13.1-3.88-6.3-3.24-13.82-1.53-20.72.69-3.4,1.02-6.91,2.39-10.15.82-2.03,2.05-3.75,3.62-5.17-4.19,5.23-5.91,12.28-5.26,18.94.32,4.12,1.08,8.13,1.87,12.19.34,2.28.63,4.67,1.8,6.74,2.24,5.03,5.25,9.67,8.51,14.09.93,1.62,2.1,3.31,3.7,4.31.06.03.12.05.18.07.15,1.15,1.45,1.71,2.59,1.71.17,0,.35,0,.51-.04,1.21,0,2.45-.02,3.67.01,3.51.02,7.02-.24,10.54-.5,5.43-.4,10.87-.79,16.31-.16,5.68.26,11.71.69,17.4-.2,5.54-.76,10.93-2.5,16.38-3.74,6.99-1.96,14.29-2.39,21.28-4.4,4.34-.74,8.61-3.99,12.25-6.66,2.33-1.36,4.12-3.38,5.98-5.29-3.61,5.43-9.17,9.67-14.54,13.16-6.2,3.32-13.52,2.31-20.15,4.26-7.08,1.62-14.25,3.45-21.58,3.24-5.89.08-11.59,1.69-17.37,2.45-9.82.79-19.69-1.33-29.53-1.66-1.84-.03-3.77-.5-5.53.25.15-.49.16-1.02,0-1.46ZM59.54,124.27c3.15,1.91,6.04,4.21,8.68,6.78-1.25.45-2.52,1.64-3.32,2.36-3.6,3.33-6.39,7.59-7.47,12.42,0,.02,0,.03,0,.05-.48-.12-.95-.24-1.43-.37-3.13-1.03-6.01-2.64-8.98-4.03-.11-.03-.22-.06-.33-.1-.64-.21-1.28-.4-1.9-.64.02,0,.04.02.07.03,0,0,0,0,.01,0,0,0,0,0-.01,0,0,0,0,0,0,0-.53-.21-1.07-.32-1.6-.5-.06-.02-.12-.04-.18-.06-.27-2.59-.79-5.36-.51-8.02.49-3.23,1.68-6.91,4.55-8.78,2.6-1.36,5.77-1.82,8.73-1.3,1.31.5,2.57,1.22,3.69,2.16ZM86.38,160.03c8.22,3.72,16.26,8.87,25.29,10.28.17.05.35.08.54.08,1.42,0,3.11-1.64,1.59-2.7-.65-.19-1.27-.43-1.89-.69,3.06-1.04,1.79-8.44,1.5-11.08-1.67-6.64-4.76-12.85-8.39-18.66.49.44,1.31.75,2.35.75,9.52,1.31,19.38,4.29,26.93,10.41,2,2.25,3.61,5.86,3.56,8.92-.3,1.35-.36,2.77-.93,4.05-.41,1.08-1.28,2.08-1.46,3.27-3.15,3.86-6.36,7.78-11.34,9.17-4.27,1.12-8.1,3.44-12.06,5.34-2.12,1.08-4.56,1.42-6.63,2.6-6.52,2.27-13.6,1.72-20.38,2.55-9.89.51-19.6,2.73-29.47,3.2-4.73-.04-9.65.03-14.32-1.09-2-.12-6.24-1.48-8.85-.86-.12-1.97-2.39-3.56-3.64-4.98-3.59-4.72-6.56-9.87-9.37-15.08-4.56-8.39-1.12-18.43.79-27.15,2.23-8.4,10.08-11.51,17.93-12.58.03.09.07.18.12.26-2.4,3.09-4.18,6.83-4.54,10.63-1.54-.47-3.09-.84-4.68-.95-1.22.14-2.66,1.48-2.01,2.76.61.88,1.74,1,2.7,1.28,5.89,1.21,11.46,3.47,17.17,5.25,3.67,1.23,7.49,2,11.09,3.45,9.22,4.32,18.61,8.56,28.41,11.57ZM37.83,138.11c-.41-2.59.19-5.03,1.28-7.3,0,.07-.01.13-.01.2.07-.2.13-.39.2-.59-.72,2.68-.87,5.48-.35,8.1-.37-.14-.75-.27-1.12-.41ZM75.9,148.93c.02.53-.08,1.07-.21,1.62-3.55-1.6-7.27-2.42-11.02-3.16.57-.59.94-1.45,1.2-2.24,1.01-2.21,2.43-4.81,4.54-6.24.88-.57,1.88-.77,2.61-1.59.15-.15.25-.32.32-.5.22.28.44.56.65.84,1.36,1.72,1.74,3.87,1.79,5.99.19,1.74.29,3.5.12,5.28ZM68.53,136.02c-3.66,2.21-5.69,6.29-7.06,10.2-.07.18-.1.35-.1.52-.22-.04-.44-.09-.65-.13.34-.33.58-.75.6-1.23,1.22-4.39,4.11-7.74,7.5-10.76.48-.38,1.12-.83,1.53-1.37.49.53.96,1.07,1.42,1.63-1.11.03-2.23.63-3.25,1.15ZM65.22,116.63c3.33,1.97,6.73,4.23,8.93,7.47,3.64,5.02,7.19,10.23,8.61,16.36.8,3.19.24,6.51-.02,9.74.07,1.14-.4,2.48-.49,3.71-.54-.28-1.07-.56-1.61-.85.61-1.58.62-3.5.8-5.12.2-7.32-4.4-13.66-8.69-19.23-3.32-4.72-7.9-8.98-13.93-9.39-1.56-.3-3.18-.42-4.8-.39-2.09-.36-4.21-.32-6.17.39,5.26-3.08,11.48-5.21,17.38-2.7ZM144.67,172.12c-3.11,4.76-9.12,6.28-13.83,9.01-5.03,2.1-9.42,5.67-14.55,7.42-5.38,1.86-11.16,2.33-16.45,4.56-2,.47-3.85,1.33-5.76,2.07-2.89.84-5.8,1.15-8.8,1.51-6.11.33-12.2.9-18.32,1.12-10.9.44-21.86,3.88-32.67,1.31-.63-.19-1.45-.33-2.19-.55-.9-.28-2.18-.65-2.74.46-.48,1.53,1.64,1.31,2.67,1.51,2.98.38,6.21.45,9.24.86,4.27.82,8.69.85,13.03,1.22.85.03,1.7.05,2.55.05,7.55,0,14.97-1.33,22.35-2.92,4.84-1.42,9.81-2.5,14.89-2.75,4.22.25,8.63.19,12.74-1.05,5.39-1.34,10.18-4.33,15.32-6.39,5.54-2.06,11.39-4.19,15.77-8.3,3.61-2.82,7.16-5.86,9.68-9.74,1.62-1.87,2.53-4.04,2.9-6.32.01.68.07,1.38-.05,1.85-.26,3.83-.53,7.68-.64,11.56-.22,3.78-.47,7.57-.87,11.33-.04,1.29-.46,2.98-.32,4.4-.93.29-1.74,1.12-1.77,2.07-1.66,5.33-5.73,9.29-10.21,12.4-7.86,7.33-18.89,6.55-27.85,11.52-4.24,1.41-8.92,2.6-13.49,3.43-3.61.59-7.32.66-10.79,1.92-5.17,1.69-10.4,3.37-15.89,3.59-5.79-.32-11.63-.25-17.43-.66-7.42-.87-15.01-.51-22.3-2.23-3.86-.68-7.74-2.12-10.24-5.36-.54-1.56-2.25-2.5-2.62-4.12-2.07-2.93-3.33-6.28-4.85-9.53-2.68-5.37-6.05-10.51-7.03-16.53-.04-.22-.14-.38-.25-.52-.22-1.61-.53-3.23-.52-4.82-.12-5.72-.26-11.46-.25-17.21,1.05,2.47,2.25,4.9,3.25,7.43,3.66,8.76,9.3,16.43,16.47,22.69.93.99,1.78,1.38,2.46,1.38,1.75,0,2.33-2.64-.02-4.43-7.1-5.66-12.91-12.75-17.38-20.7-1.47-3.17-2.84-6.53-3.16-10.06.19-2.9.19-5.86.38-8.79.24-3.54.5-6.88,1.5-10.34,1.22-2.51,2.84-4.75,4.65-6.84-1.24,2.92-2.08,5.98-2.27,9.2-.41,3.62.18,6.92.93,10.49,1.23,6.96,3.77,13.59,6.79,19.96,3.05,4.48,5.15,10.38,9.66,13.54.16.06.33.09.48.09.17,0,.33-.04.49-.09-.04.28,0,.56.16.84.38.6,1.09.78,1.75.87,1.56.2,3.14.19,4.71.18.6,0,1.19,0,1.78,0,5.31.47,10.68.37,16.05.26,5.85-.11,11.69-.23,17.45.41.74.05,1.49.08,2.23.08,6.77,0,13.29-2.04,20.04-2.5,7.85-.85,16.05-.93,23.27-4.5,5.41-2.41,10.4-5.63,15.57-8.53,8.07-4.33,18.98-13.62,13.81-23.78-.18-.31-.39-.71-.62-1.11.6.82,1.16,1.69,1.62,2.65,2.25,4.7,2.34,10.91-.51,15.43ZM140.48,145.17c-.01-.3-.02-.58-.02-.84.25.48.67.91,1.14,1.17-.35-.17-.72-.29-1.12-.32ZM151.32,141.53c-2.48.91-5.1,1.36-7.73.89-.9-.08-1.86-.67-2.74-.14-.03.02-.05.05-.08.07.37-1.45.94-2.87,1.7-4.19.4.34.92.55,1.52.55.1,0,.21,0,.31-.02,11.04-1.35,8.17-15.91,4.64-23.04-2.42-5.85-4.29-11.89-6.61-17.74-1.95-5.46-6.08-9.88-9.72-14.31-3.64-4.46-6.33-9.79-11.12-13.27-3.45-3.43-7.08-6.63-11-9.51-2.26-2.02-4.27-4.42-6.05-6.88-2.88-2.97-5.86-5.82-8.55-8.96-4.63-4.65-10.56-9.33-16.07-12.88-.88-.63-2.18-1.35-3.02-.97-3.22-1.82-15.18,4.95-17.95,6.56-7.47,3.71-10.33,12.16-13.44,19.34-2.9,6.18-2.77,13.39-1.76,20.03.72,4.21,1.46,8.41,3.02,12.44,1.05,3.19,2.96,5.97,5.27,8.4,2.62,3.41,6.03,6.42,9.13,9.46.05.07.1.13.16.18-.77.66-1.53,1.33-2.28,2.01-.07-.42-.29-.74-.6-1.04-2.24-2-4.45-4.04-6.31-6.42-4.49-6.06-9.35-12.48-10.88-20.05-1.01-5.85-.73-11.6-1.12-17.56-.01-3.3-.34-6.73.8-9.9,1.28-3.89,4.18-6.94,6.28-10.42,4.22-7.44,11.54-12.91,20.03-14.41,2.46-.02,4.9-.88,7.38-.92.78-.03,1.39-.68,1.68-1.41.17,1.18,1.77,2.13,2.82,2.65,4.17,2.18,7.9,4.89,11.81,7.68,5.86,3.35,10.86,7.84,15.17,13,4.19,4.63,9.27,8.29,13.82,12.53,4.12,4.66,7.21,10.13,11.59,14.58,3.3,3.38,6.77,6.72,9.3,10.76,4.2,7.53,7.01,15.86,9.84,23.99,1.9,6.85,9.2,24.84.76,28.92ZM173.8,115.91c-.74,2.57-2.54,4.61-4.1,6.71.01,0,.01-.01.02-.02.02-.02.04-.05.06-.08,0,.02.07-.04.13-.11-3.26,4.32-6.73,8.49-10.64,12.24-1.01,1.01-1.91,2.13-2.96,3.1.67-1.59,1.1-3.3,1.27-5.05,1.06-4.36.52-8.93-.43-13.33-1.67-9.53-6.54-18.47-11.99-26.36-5.25-6.9-7.59-15.51-13.31-22.1-2.64-3.13-5.81-5.75-8.68-8.65-4.04-4.64-8.08-9.53-13.14-13.15-3.91-3.04-8.26-5.29-11.96-8.75-5.04-5.21-11.06-9.21-17.11-13.16-1.19-.69-2.95-2.13-4.34-1.06-.1.12-.17.24-.23.35,0-.9-.81-1.55-1.69-1.31-5.2.66-10.05,3.05-14.74,5.3-2.91,1.36-5.96,2.87-8.74,4.57.48-.64.89-1.19,1.18-1.47,4.57-5.25,8.95-11.16,13.57-16.46,1.72-2.02,3.54-3.93,5.61-5.58.28-.2.42-.51.46-.83.42.05.85.01,1.2-.16.59-.21,1.18-.47,1.73-.79,8.57-4.82,18.65-9.16,28.55-6.19,2.68.88,4.83,3.03,7.01,4.75,3.6,3.74,8.44,6.01,12.34,9.42,2.03,1.73,3.61,3.92,5.28,5.95,1.26.85,2.43,1.8,3.54,2.84,4.1,3.28,7.8,7.03,11.66,10.57,3.08,2.38,6.16,5.1,8.33,8.38,1.84,3.54,3.84,7.04,5.83,10.52,2.49,4.45,4.55,9.09,7.75,13.12,3.54,5.75,7.78,11.27,9.17,18.02.78,4.02.56,8.16.69,12.28-.3,5.49-.22,11.08-1.32,16.49Z"/><path d="M171.59,100.27c-2.1,2.17-3.31,5.1-5.3,7.41-1.53,1.94-3.14,3.84-5.06,5.42-.65.55-1.3,1.58-.75,2.46.23.36.56.52.96.52,3.57,0,13.14-12.95,13.01-15.17-.08-1.52-1.99-1.52-2.86-.64Z"/><path d="M129.19,204.79c.11,1.1-.12,2.35.54,3.31.29.36.68.51,1.09.51.87,0,1.81-.69,2.14-1.46.97-4.56.1-9.86-1.15-14.38-.68-2.34-4.25-.36-3.77,1.62.94,3.39,1.11,6.9,1.15,10.4Z"/><path d="M134.43,197.23c.22,1.7.24,3.5.3,5.23.06.81.26,1.76,1.25,1.87,3.23-.04,2.89-4.03,2.74-6.31-.11-3.09-.95-6.11-2.22-8.92-.44-.99-1.61-1-2.44-.52-.86.49-1.63,1.61-1.23,2.63.77,1.93,1.39,3.94,1.6,6.02Z"/></svg>