<?xml version="1.0" encoding="UTF-8"?><!DOCTYPE svg PUBLIC "-//W3C//DTD SVG 1.0//EN" "http://www.w3.org/TR/2001/REC-SVG-20010904/DTD/svg10.dtd" []><svg xmlns="http://www.w3.org/2000/svg" xmlns:xlink="http://www.w3.org/1999/xlink" height="850" viewBox="0 0 603.983 849.834" width="604"><g filter="none"><path d="M106.976 84.588c.188.183 1.224 1.578-.069 1.276-.55-.284-4.32-3.35-4.568-1.663 1.04 1.25 1.384 3.68 1.964 4.7.806 1.418 2.352 1.978 3.146 2.897 4.017 4.648 6.8 11.67 14.213 10.274 3.36-.633 9.85-4.897 12.179-5.023 1.284-.07 3.21.833 2.98 2.386-.517 3.484-9.152 4.1-11.836 5.004-8.16 2.75-13.278 13.27-19.537 18.37-2.673 2.179-10.729 7.404-13.885 7.707-2.758.265-5.202-.537-7.671-.523-9.27.051-18.532.279-27.874.045-4.75-.12-15.31-1.737-19.44-.288-1.465.514-1.063 2.056-2.586 1.713-.91-1.798-3.729-1.35-5.641-2.066-2.008-.752-7.36-3.691-8.543-5.373-1.276-1.817-2.616-4.511.962-3.606l-.72-2.874c.895 1.177 2.443 1.052 3.568 1.71.849.496 1.3 1.533 2.298 2.02 6.733 3.286 21.459 1.216 28.629 3.533.932.302.407 1.875 1.733 1.367l-.96-1.43 2.882-.01v1.925c2.013-1.14 2.754.214 4.125.434 6.526 1.05 18.916 2.632 25.146 1.25 5.807-1.286 16.93-10.263 21.593-14.394 1.1-.975 8.41-7.673 8.567-8.247.16-.583.152-1.025-.426-1.349-6.669-2.008-9.145-9.16-13.7-13.666-.569-.129-2.68 2.865-3.594 3.55-3.23 2.42-8.276 4.791-11.256 7.459-5.765 5.16-15.081 17.608-22.293 19.932-7.952 2.562-18.893 2.087-25.788-3.017-3.045-2.255-3.522-5.08-3.483-8.747 1.446.835.988 2.584 2.143 3.85 8.891 9.739 24.564 7.33 34.268.179 8.325-6.135 10.664-10.596 16.833-18.062.844-1.021 2.475-1.911 3.567-3.284.714-.898 3.078-4.306 2.47-5.252-1.6-1.24-3.787-1.261-5.508-2.181-1.423-.761-3.327-3.518-4.708-3.933-.53-.159-6.173-1.4-6.508-1.407-3.122-.07-21.147 7.203-24.3 9.245-2.444 1.581-4.886 4.267-7.562 5.874-2.827 1.698-5.837 2.45-8.637 3.837-1.581.784-2.596 3.239-2.564-.16.012-1.245.379-4.78 1.462-5.287.584-.272 1.517.3 2.408.081 6.563-1.606 11.823-7.66 18.236-10.12 6.225-2.387 14.102-2.859 20.738-4.212 2.407-.49 7.554-2.543 9.693-2.703 4.294-.321 14.726 5.215 17.854 8.259M38.52 338.76l-.954 2.393c1.919.24 3.1-.755 4.788 1.205-.478.598-1.279 1.039-1.634 1.716-1.67 3.19-1.05 15.198-1.242 19.395-.103 2.271-1.105 6.036-.958 8.175.287 4.188 5.621-2.092 6.712-3.384 3.457-4.091 6.565-9.026 9.834-13.198.838-1.071 1.934-3.059 2.66-4.303l.956.241-.964 1.67 3.12-2.392c.358-.076.323.49.233.71-.89 2.158-3.893 5.653-6.228 6.253-.445.942 1.799.604.951 1.663-.053.066-.964.082-1.395.753-.512.798-.286 1.814-.67 2.473-3.752 6.431-9.045 10.995-14.011 16.451-2.504 2.75-4.294 6.28-7.19 8.644-.87.71-2.806.727-2.638 2.396 4.72.232 11.2 3.536 15.521.892 5.702-6.124 9.614-13.544 15.918-19.11 4.154-3.668 9.126-6.636 13.493-10.062.965-.708 4.187.348 4.486 1.174l-.974.515.496 1.152c-5.782 1.816-11.423 4.697-15.84 8.882-6.518 6.176-14.147 22.338-24.59 20.764-2.203-.332-5.405-2.178-7.317-2.315-1.938-.139-2.936.966-4.728 1.028-1.272-.278.018-4.06.46-4.81 8.482-14.38 9.891-21.888 8.848-39.152-.218-3.618-3.343-9.817 2.858-9.82M30.374 521.107c-1.968-6.836-5.991-13.117-7.198-20.154l7.94 18.716zM16.939 114.182c-.735-4.828 1.434-8.327 4.788-11.516-.584 2.228-2.342 4.068-3.121 6.26-.643 1.81-.217 4.134-1.667 5.256"/><path d="M276.991 4.773c.39-.349 1.648-.614 2.125-1.768 6.593.322 12.211 2.356 17.297 6.577 4.783 3.97 3.918 5.684 5.177 11.135.417 1.805.637 1.357.872 3.892.352 3.796 2.975 1.26 4.623 4.531 2.913 5.782 4.026 19.89 4.33 26.765.379 8.591-.494 16.764-2.01 25.189-.076.415-1.597 4.08-1.774 4.226-.346.287-1.33.002-1.853.072-.575.502 2.464 3.673 2.927 4.032 13.196 10.22 26.634 11.659 41.999 15.58 7.772 1.983 13.572 4.926 21.986 5.349 12.881.646 24.333-.626 37.225 2.134 14.824 3.172 36.769 16.11 48.193 26.18 18.831 16.602 27.427 47.645 33.152 71.455 11.487 9.127 18.424 21.037 25.24 33.78 1.132 2.118 2.749 4.833 3.535 7.025.164.456.634 1.559-.255 1.454l-2.399-4.794c.025 1.56.68 3.317 1.208 4.783 5.581 15.519 14.392 31.124 18.694 47.045 3.049 11.284 3.352 23.751 7.839 34.389 2.052 4.866 4.774 9.734 6.885 14.708 1.518 3.577 3.825 12.073 5.551 14.602.798 1.169 1.786.923 2.06 1.42.6 1.092-.224 3.23.696 4.463 1.567 1.435-.304-2.69.25-2.886 2.117 2.528 2.442 7.848 2.87 11.28.599 4.795.544 9.862 1.195 14.646 1.067 7.837 3.388 16.505 4.079 24.228.298 3.336-.245 7.227.006 10.513.42 5.502 1.79 11.234 1.824 16.832.102 16.976-11.66 33.898-17.513 49.569-3.356 12.567 2.928 47.477 10.502 58.312 4.689 6.708 7.973 6.816 14.267 10.684 6.396 3.93 18.984 16.568 22.665 22.92.35.604 1.18 1.135 1.36 1.52.7 1.497-1.764-.53-1.427.942.713 3.11 2.868 6.663 3.298 10.141 1.815 14.693-4.968 27.74-16.01 37.15-6.925 5.903-14.882 7.525-22.069 12.958-15.933 12.048-29.511 26.321-40.472 43.02-6.93 10.555-12.4 21.932-19.489 32.334-4.86 7.13-9.032 14.856-13.778 22.21-5.999 9.298-13.126 14.04-21.044 21.182-15.63 14.098-24.929 35.066-37.273 51.47-7.075 9.402-28.445 25.779-40.548 24.922-1.696-.12-7.118-1.775-8.091-1.082-1.215 1.307.493 5.87-1.234 6.45-2.46.824-4.63-1.786-4.491-3.984.065-1.038 1.077-1.623.955-2.67-2.516 2.762-3.071 4.993-7.46 4.828-1.087-.041-1.812-1.031-2.312-.952-1.248.197-1.564 4-4.419 4.276-5.207.505-5.413-7.014-7.163-7.668l-2.624 4.08c-4.165 2.311-6.21-3.953-8.022-4.468-1.353-.384-3.304-.14-5.15-.607-2.141-.543-3.966-1.924-6.048-2.589-10.089-3.221-20.44-5.988-29.853-9.972-1.042-.441-4.556-2.82-5.39-2.787-.222.008-.211.933-.546 1.003-1.57.33-9.303-4.545-11.475-5.282l-1.172.94c.272-2.534-2.927-2.233-4.804-2.401l2.877-.478c.133-.672-.028-.788-.513-1.161-1.083-.833-6.018-2.4-7.637-2.918-1.053-.337-2.303-.144-3.255-.55-.73-.311-.787-1.402-1.267-1.466-.39-.052-1.209.42-1.936.366-.862-.064-1.978-.833-2.66-.269 1.56.827 3.325 2.134 4.936 2.74 1.389.524 6.745.578 4.395 2.766-6.69-1.416-13.086-4.984-19.526-6.828-5.642-1.615-13.416-1.995-19.342-2.289-22.581-1.118-45.07 1.394-67.563-1.97-10.804-1.616-18.843-4.968-30.288-4.25-1.68.106-13.675 1.604-13.67 3.115l2.18 1.17c1.147 1.598-2.248 4.679-3.85 4.86-3.295.373-3.474-1.843-4.714-1.847l-8.496 1.814c-.208-1.235.178-.87 1.034-1.098 3.063-.817 7.167-.428 9.039-3.694-6.708.69-13.637 1.959-20.413 1.455-8.681-.646-33.139-11.5-39.335-17.764-2.67-2.698-6.433-8.314-9.256-10.064-.512-.317-2.348.17-1.957-1.424l.946-.327-.542-2.11c-1.942.722-3.617-.019-4.712-1.754-2.103-3.332-1.374-1.448-3.291-3.177-.288-.26-1.54-2.935-1.696-3.076-15.273-13.852-18.327-37.183-14.605-56.876 1.395-7.38 4.147-9.471 1.042-17.16-2.457-6.087-5.134-8.547-4.034-16.063 1.197-8.177 14.04-25.824 19.443-32.86 5.243-6.826 12.19-12.655 17.966-19.462 4.447-5.239 5.314-3.689 6.222-11.532 1.349-11.646.918-28.502-3.853-39.328-1.688-3.83-6.593-8.928-9.095-12.5.513-2.344 2.608 2.241 3.602 2.64 2.205-.365-.814-2.532-1.207-3.114-5.038-7.477-8.772-16.036-12.944-24l8.553 11.117c2.568 5.252 6.8 9.789 9.877 14.595 1.342 2.096 2.988 6.604 4.371 8.104.91.988 3.45 1.555 3.959 3.24.888 2.937-1.333 2.65-1.397 3.734-.208 3.54 2.134 9.964 2.447 13.93.387 4.88-.27 10.179.01 15.104l2.794-3.68c11.57-21.751-.908-45.797-10.885-65.246-11.232-21.897-23.797-43.292-35.022-65.265-1.166-2.283-8.483-17.907-7.744-18.883l3.116 5.276c.6-1.12-2.112-6.191-2.64-6.521l-1.438.288.002-1.447c.495.17 1.04 1.013.897-.169-.349-2.89-2.618-5.462-2.583-8.462 2.401 5.123 4.634 10.314 7.188 15.365 16.326 32.288 36.915 62.617 49.565 96.788 5.017 13.55 9.326 28.469 5.733 42.95-1.468 5.917-5.302 9.601-7.711 14.841-3.019 6.566-4.26 14.349-7.17 21.14-4.253 9.921-11.673 19.367-15.795 29.791-3.91 9.888-10.324 28.598-10.47 38.994-.094 6.611 4.862 8.788 8.65 13.167-1.986-.134-8.365-8.375-8.121-2.705.295 6.86 1.195 13.736 3.177 20.372 1.429 4.783 3.817 9.112 5.454 13.654.15.414 1.682.846.933 2.752 1.22.59 1.144-1.412 1.676-1.428.63-.018 4.237 5.094 5.088 5.94 1.432 1.424 3.71 2.496 4.99 3.647 9.266 8.338 17.385 19.45 29.08 24.181 15.065 6.095 28.386 2.465 43.788 3.714 13.106 1.063 24.826 7.43 37.242 10.26 7.612 1.736 15.768 2.334 23.513 2.877-.547-.654-1.119-1.111-1.914-1.444-5.482-2.295-14.174-3.736-20.255-5.656-30.15-9.516-54.862-22.418-80.465-40.451-3.766-2.652-8.293-5.763-11.651-8.846-5.776-5.302.237-2.576 3.125-.863 7.016 4.161 13.783 9.897 20.612 14.416 34.164 22.607 83.63 40.485 124.523 43.896 9.28.774 19.936.182 29.072 1.635 11.344 1.804 23.661 5.405 35.23 7.475 30.764 5.504 54.055 6.507 85.25 2.55 7.261-.921 14.578-2.032 21.355-4.792-2.952 2.994-8.184 2.453-11.49 4.58-1.112.922-.146.774.59.592 2.15-.53 4.245-1.507 6.579-.62l-2.875 1.208c-.881.913 2.087 1.118.486 1.681-.801.282-1.582.286-2.41.229l-.474-.955c.59 1.376-2.364 2.496-3.576 2.903-3.966 1.333-10.973 1.554-15.384 1.89-2.382.18-5.05-.473-7.236.44-1.187.907-1.852 7.289-2.337 9.18-.418 1.625-2.02 3.583-1.714 5.417.057.342 1.136.303 1.36 1.62.318 1.864-1.063 4.474 1.544 5.676 3.34 1.542 2.516-5.537 3.311-6.661.303-.428 2.62-1.037 3.224-1.7l1.133.668v7.918c1.218.28 1.027-.552 1.2-1.414.488-2.422-.29-6.075 2.194-7.447.538-.297 1.401-.114 1.775-.363.683-.456 1.54-4.706 3.931-5.458 3.57-1.122 1.676 5.072 2.419 7.006 3.6-.249 4.196-3.816 5.752-6.003.909-1.277 8.224-6.326 9.438-6.381.718-.033 1.605 1.067 2.552.884-.13 3.134-.751 4.858-4.06 5.768l-.948-1.004c-3.571 1.274-8.38 3.839-7.465 8.42.453 2.272 6.895 1.983 8.838 1.624 26.261-4.85 36.152-28.716 49.493-47.91.708-1.019 8.876-10.585 8.368-11.06l-11.007 6.502c-10.299 7.977-20.34 17.045-32.496 22.205-.44.187-1.223 1.043-1.597.323 1.9-1.528 4.287-2.008 6.38-3.217 1.291-.747 4.74-2.797 4.421-4.216l-4.08 1.432c-.152-.898.604-1.428 1.208-1.925 6.111-5.026 15.008-10.096 21.7-14.853 2.694-1.915 6.411-3.566 8.773-5.996 2.034-2.092 3.374-4.302 5.745-6.73 10.5-10.755 22.417-20.802 32.308-31.972 3.304-3.73 5.133-7.017 7.722-11.011 2.735-4.22 2.654-9.1 5.307-13.407l.984 2.855 1.167.502c1.155-3.738 4.535-6.255 6.708-9.373 7.255-10.41 12.97-21.636 20.93-31.853 6.493-8.335 13.843-16.536 21.478-23.867 1.303-1.252 6.56-5.077 7.023-6.175.307-.728-.428-.852-.951-.97-2.098-.476-7.512 1.835-9.73 2.764-.607.254-1.255 1.223-1.543 1.223-.294-.001-1.082-1.166-1.66-.826-.1.06-.06 1.042-1.499 1.605-1.412.552-3.024.461-4.4.895-.98.308-1.626 1.869-3.24 1.313.161-3.263 3.041-2.342 4.921-2.99 4.297-1.482 4.986-2.518 10.064-3.328 17.287-2.761 24.662-10.231 27.583-27.163 3.822-22.151-1.954-37.51-22.716-47.076-3.004-1.384-6.256-2.014-9.15-3.804-10.735-6.636-14.317-30.437-12.616-42.073 1.585-10.847 12.254-23.726 14.654-35.25 1.393-6.69 1.232-14.426 2.177-21.337 3.706-27.127 13.308-49.361 10.985-77.777-1.313-16.052-7.77-31.434-13.676-46.306-7.365-18.55-18.211-30.929-29.708-46.587-6.71-9.137-15.833-24.786-16.576-36.25-.069-1.062.593-2.154.506-2.753-.037-.253-1.046-.526-1.523-1.458-1.261-2.463-1.354-5.94-2.102-8.462-1.61-5.427-4.07-11.676-5.41-17.142-.798-3.25-3.447-20.532-4.68-21.73-.454-.44-1.38-.341-1.572-.568-.27-.317-.029-1.367-.54-2.096-1.628-2.32-19.013-7.28-23.258-9.376-17.128-8.455-25.414-26.826-36.073-41.661-3.792-5.279-12.893-12.712-18.2-16.828-5.92-4.594-13.656-10.533-20.248-14.78-1.905-1.227-4.052-1.493-5.422-3.215l.92-.263-.428-1.19c-1.08-.69-2.22.262-3.067.127-4.231-.676-12.655-7.303-17.572-8.8-1.08-.33-1.933.44-2.594.252-.544-.154-.583-1.06-.898-1.268-2.254-1.49-10.14-2.836-13.204-3.836-2.485-.81-17.748-6.683-18.817-5.89l.96 1.43c-.543.41-11.073-4.128-12.647-4.861-4.018-1.872-7.495-5.504-12.303-4.726.323 1.282.959 4.324.828 5.46-.04.346-3.215 5.812-3.47 6.05-.922.865-4.236.905-5.651 2.378-1.301 1.355-1.42 3-3.846 4.44-6.314 3.747-19.442 2.556-26.236.132-8.305-2.964-16.926-13.817-20.158-21.824 5.941 6.511 10.275 15.318 18.855 18.808 7.475 3.04 18.704 4.46 25.91.294 4.153-2.4 2.637-2.667 4.144-5.933.465-1.01 3.165-4.888 2.68-5.502-3.883-1.653-8.082-.124-12.43-.527-4.733-.44-10.484-2.673-14.55-3.214-.717-.096-2.068 1.824-3.492-.331l2.387.242-.49-1.185c-2.869-.852-7.618-1.48-10.197-2.758-1.324-.656-5.507-4.328-6.439-4.597-.964-.278-6.272-.563-6.8-1.118-.124-.13-.294-2.08-1.292-3.266-4.743-5.64-14.702-7.746-20.68-12.19-.775-.574-.898-2.424-3.004-1.72-.742 1.983-1.3 4.817-2.24 6.637-1.798 3.486-9.37 13.836-12.5 15.81-4.422 2.787-10.237 1.886-10.68-4.053-3.734-2.56-5.724 2.528-9.146 3.42-1.08.281-4.296.122-4.723.802-.637 1.013.233 2.233-2.486 3.027l1.919.712c.193.196-.36 4.826-.528 5.477-1.027 3.985-12.39 12.199-15.81 15.378-6.779 6.298-9.883 13.712-13.162 22.347-1.385 3.647-3.03 8.53-4.075 12.27-3.166 11.327-1.021 24.98-10.126 34.47-7.817 1.761-13.664 6.45-18.921 12.268-.358.076-.322-.489-.232-.71.301-.738 3.286-4.174 4.066-5.053 2.753-3.102 11.406-9.542 12.737-11.734 3.272-5.385 6.923-21.425 7.611-27.898.392-3.683-.219-7.745.055-11.462.526-7.115 1.722-14.256 2.39-21.358-2.116 1.24-4.483 2.072-6.66 3.171-1.037.523-2.65 2.097-3.437 2.344-.698.22-1.523-.345-1.913-.037-.382.302-.313 1.156-.643 1.544-1.23 1.444-6.859 5.492-7.283 6.877-.172.563.24 1.228.014 1.905-.73 2.188-12.307 13.336-14.623 16.231-6.56 8.201-12.55 22.676-16.189 32.628-7.04 19.259-6.13 35.163-6.325 55.06-.03 3.088-1.323 6.063.452 8.877l5.33-12.176c1.789-2.607 3.025-5.618 4.657-8.298 1.274-2.09 3.2-5.967 5.363-6.63l-1.44 1.437.955.711-1.584 1.112c.791 2.569-1.763 5.117-2.98 7.522-4.548 8.984-9.773 19.697-10.125 29.922-.749 21.775 3.623 44.276 2.706 65.82-.108 2.539 1.18 3.109-2.174 5.041-.467-.967-.36-1.143-1.658-.955l-.97 2.39c.337-2.225-1.091-4.642-1.325-6.595-.464-3.864.515-9.304-.122-12.834-.162-.897-.668-1.49-1.673-1.198-.82.238-.584 1.91-.952 2.407-.44.594-1.533.393-2.147.728-1.317.718-1.375 3.66-1.938 5.269-2.307 6.597-5.503 11.022-9.612 16.545l-.708-.954c2.674-2.061 2.58-4.85 3.703-7.338 2.124-4.708 4.364-8.872 5.629-14.031l-1.168-.708c-8.715 9.08-15.324 21.634-28.372 24.9l-1.62-.423c4.378-1.39 9.117-4.342 12.712-7.204 7.984-6.355 21.68-26.035 24.734-35.726 2.475-7.855.943-18.982.912-27.4-.044-12.152-2.42-29.387-9.856-39.523-2.69-3.666-3.986-3.549-5.161-8.754-4.235-18.76 9.145-37.536 19.44-51.91 6.362-8.882 13.683-14.035 20.056-21.69 1.097-1.317 6.465-9.076 5.29-10.3-1.792-.463-3.439 2.053-4.67 2.309-1.08.224-2.02-.732-3.16-.724-8.508.061-26.787 18.03-33.205 24.313-5.397 5.285-10.712 10.906-15.177 16.494-3.304 4.135-6.41 7.605-8.087 12.787l-.476-1.44-1.647.993-5.065 8.605c3.061-.851 3.508-4.591 5.508-6.723.578-.615.83-.806.72.239-5.133 8.506-9.742 17.325-13.995 26.314-12.518 26.462-18.321 47.813-24.66 76.11-.635 2.836-.61 6.084-1.649 8.908 2.596.704.892-3.583 2.4-4.074l.45 4.492-2.896 1.07c-1.078 2.786 2.68 4.3.532 1.161l1.437-.005c.2 1.947-.194 3.747-2.386 2.875-.395 1.281-.273 2.832-.53 4.045-1.706 8.063-2.472 19.327-2.834 27.875-1.121 26.477 1.287 51.661 3.3 77.763.215 2.775.883 4.591-.91 7.156.61.963 1.059.422 1.921.25-.174 2.397.76 4.625 1.005 6.965.217 2.076-.17 1.237.399 3 .643 1.993.203 5.598.513 7.79l-1.082-4.909c-.795-1.004-2.894-4.323-.858-4.227l.023-.694c-1.636-.79-1.633-1.307-1.432-3.121l.479.958.946-.721c-1.56-.818-1.895-1.772-2.337-3.413C1.676 416.511.52 395.365.12 380.767c-.363-13.23.15-26.792.936-39.848 1.923-31.927 9.523-68.422 20.35-98.7.578-1.617 2.967-5.861 3.12-6.978.099-.723-.53-1.733-.356-1.987.091-.133 1.113-.324 1.64-1.02 2.932-3.88 4.928-11.261 6.854-15.705 5.067-11.69 12.103-27.32 20.752-36.83 2.49-2.737 6.84-5.536 9.093-8.191.538-.634.433-1.562.513-1.65.048-.052.819.504 1.395.249 1.582-.7 3.114-3.506 4.13-4.566.619-.646 2.71-1.42 3.339-2.907.27-.64-.353-1.367-.033-1.894.598-.982 3.9-3.198 4.595-4.073 1.074-1.354.695-2.656 2.61-4.587 10.516-10.598 26.522-15.681 38.787-23.592 4.29-2.768 3.37-3.93 5.836-7.12 1.66-2.146 5.092-3.703 7.215-6.22 3.655-4.333 5.71-10.635 8.953-15.04 3.463-4.701 10.053-11.361 11.938-16.851.403-1.173.28-2.91.698-3.621.446-.762 4.45-3.85 5.426-5.109 3.293-4.243 1.489-3.947 1.046-8.086-.192-1.804.485-3.996.348-5.229-.33-2.952-8.644-4.775-10.776-6.9-5.138.334-3.572-1.19-5.035-4.08-1.495-2.955-5.258-4.473-6.562-6.909-.623-1.164-.039-1.632-.189-2.25-.487-2.005-20.467-17.365-23.521-19.344C96.494 10.892 79.93 4.638 59.809 2.925c-3.52-.3-5.946.467-9.482.48-.782.215-.26 1.737-1.763 2.53-2.38 1.254-3.763.062-5.74.459-5.66 1.137-3.743 4.724-2.506 8.823 1.569 5.202 5.462 11.393 5.771 16.786.08 1.395-.91 8.114-.363 8.758l1.912-.476-.218 1.962-2.085.763c.093 2.547-4.983 13.514-3.927 15.032l.952-.488-.718 1.922c-.272.148-.164-1.872-.958-.478-.374.656-3.516 10.493-3.62 11.25-.346 2.511.842 10.62 2.65 12.277.639.585 1.603.653 2.04 1.076 1.904 1.839 1.054 8.25-2.142 8.89-.681.137-1.402-.352-2.152-.252-4.21.564-6.95 1.784-10.446 4.188-.524-.563 3.051-3.845 3.609-4.304 2.746-2.265 6.058-3.406 8.836-5.59-.985-3.174-3.843-3.97-4.998-7.395-5.82-17.247 17.574-40.402 6.194-59.94-2.036-3.494-8.23-8.347-7.917-12.738.283-3.98 5.568-5.655 8.914-5.998 16.487-1.689 45.431 1.243 60.149 8.93 7.808 4.077 13.411 9.147 20.251 14.296 6.263 4.715 13.298 8.368 17.713 15.15-.842.71-8.572-6.804-9.84-7.67-.66.618.305 2.007.717 2.509 2.983 3.63 8.426 6.986 11.76 10.447l4.085 2.153c-1.52-2.072-3.665-2.733-4.8-5.276.398-.688 1.982.625 2.405 1.087 3.387 3.7 9.864 9.523 14.518 11.738.85.405 1.9.372 2.742.853l-1.384-3.503c4.979-7.846 8.67-1.429 14.22-.445 1.788.317 2.982-.427 4.453-.185 2.957.488 10.704 4.47 12.677 4.546 3.67.14 8.475-2.679 12.26-2.815.315-1.85-2.7-.814-1.898-2.617.165-.368 1.468-1.078 2.046-1.833.621-.812.672-2.516.892-2.66.33-.217 1.216-.063 1.79-.357 4.94-2.533 15.69-7.315 19.112-10.901.658-.69 1.805-3.236 2.515-3.957.264-.269 4.135-3.38 3.369-1.433-.7 1.776-4.165 5.47-5.363 7.595-.464.825-1.24 1.593-.153 2.238 7.631-4.059 16.63-4.359 24.812-6.367 4.506-1.106 8.942-2.68 13.441-3.88 3.56-.95 8.607-1.535 12.051-2.679.624-.207.09-1.435 1.118-1.857 1.447-.593 4-.354 5.564-.676 3.21-.661 5.824-1.882 9.5-1.534 2.072-2.696-1.55-3.646-1.503-5.29.015-.505 1.202.086.991-.733-3.4.394-4.791-3.61-7.015-4.743-2.125-1.083-8.419-.722-10.97-.538-12.421.895-22.053 1.824-32.644 9.102-3.032 2.083-5.32 4.795-8.38 6.73-.315-.361.914-1.996 1.224-2.37 7.734-9.35 24.367-15.754 36.487-17.254 1.852-.229 4.863.45 6.297-.681.205-.162.068-.753.13-.809-.337.19-4.11 1.176-3.361-.477l3.124-.951c.627.273.802 1.112.237 1.428m3.354 1.437v-.955h-.47v.955zM110.012 18.687v-.955h-.47v.955zm2.644 1.442v.48q.467-.24 0-.48m184.478 8.64c-4.45 2.55-7.233-2.768-11.946-2.636-.407.011-5.688.67-5.98.761-.658.205-.56 1.272-1.116 1.408-.679.166-2.604-.532-3.62-.378-10.753 1.624-27.433 6.597-38.271 9.714-2.322.668-5.333 1.602-7.517 2.559-1.142.5-9.406 4.934-9.746 5.374-1.26 1.627 1.318-.114.953 1.186l-1.68 1.2c-.63.208.432-2.291-.942-1.905-1.188.334-7.732 4.225-7.45 5.5.944.685 3.096 1.424 4.19 1.572 4.397.595 13.105-4.065 18.25-5.032 7.73-1.452 15.595-.688 23.376-1.096 2.666-.14 8.023-2.58 8.395 1.253.467 4.83-10.384 9.693-14.364 10.533-2.542.537-8.94.484-10.588 1.408-.73.409-.266.99.313 1.142 2.564.674 6.897-.48 9.753 1.053l.022 1.41-7.679.484c-.046.42-.083.627.23.966.625.678 9.587 2.897 11.173 3.22 6.063 1.238 12.38 1.498 18.443 2.67 11.307 2.184 20.892 9.124 31.28 13.745 2.822-2.323 1.23-5.231 1.296-7.836.13-5.228 2.437-12.697 2.783-18.34.374-6.107-1.761-13.064-.283-18.995.175-.704 1.275-2.065 1.215-2.57-.025-.214-2.746-1.7-1.848-3.575l-1.856.451c-.708-2.758-3.205-3.861-5.768-2.894zM128.73 31.16c.233-.183-.838-1.27-1.439-.95-.233.182.838 1.27 1.44.95m178.967 10.084h-.954v1.435h.954zm-.237 5.276v.48q.468-.24 0-.48m-86.604 13.911c2.43.075 7.184 2.267 9.242 1.843 1.45-.298 4.834-3.254 6.937-4.13 4.554-1.896 11.663-2.636 15.825-4.807.666-.348 2.705-1.998 2.538-2.73-.646-.757-1.832-.94-2.764-1.075-4.167-.607-21.798 2.262-26.133 3.835-.57.207-1.175.306-1.58.82.048 4.466-.827 2.964-3.09 4.586-.566.405-1.129.849-.975 1.658m-8.834 2.6c-2.785-2.724-1.097-1.455-1.374-4.22-.418-4.16-9.593-4.319-12.459-3.047-2.56 1.136-3.437 3.9-5.426 5.176-2.014.195-1.615-1.978-2.631-2.648-1.504-.991-6.504-2.245-8.353-2.188-1.36.042-4.037 1.279-4.35 1.272-1.193-.028-3.16-.2-4.798-.256-1.856-.062-3.63-.782-5.516-.52l1.059 5.397c2.041 1.752 5.105 9.693 7.096 10.684 3.401 1.693 4.655-2.592 6.215-3.869 3.247-2.657 4.462.542 6.957 1.726 2.798 1.327 6.761.926 9.238 2.278 1.186.647 2.564 2.594 1.85 3.93-.568 1.067-4.428 3.704-5.324 1.437l-.197-2.164c-2.815-.241-12.176-5.613-13.719-1.653-.295.76.404 1.56.223 1.838-.628.967-7.446 4.01-8.595 1.508.165 4.306.958 3.002 3.342 4.09 1.637.748 1.021 2.19 4.544 1.643 2.065-.32 2.66-.378 4.717-.55.763-.064 1.465-.752 2.426-.723 2.504.078 2.071 2.157 2.531 2.29 3.635 1.057 6.62-1.662 9.604-1.934 2.83-.258 4.409 1.363 7.807-.308 1.5-.737 7.51-5.582 8.415-6.94 1.688-2.537 1.258-4.701 1.21-7.626-4.012-.06-1.242-1.384-1.413-2.16-1.16-.861-2.036-1.442-3.079-2.462m9.072 1.244v.48q.468-.24 0-.48m71.9 20.466c-8.973-6.455-15.744-10.526-27.283-11.823-9.794-1.1-19.474-1.904-29.206-3.421-3.786-.591-8.46-1.161-11.577-3.193l-1.139 1.158c.7 3.211 4.04 2.52 6.521 3.432 3.583 1.316 10.224 6.812 13.402 9.408.75.614 3.637 4.015 3.904 4.112.706.256 2.12.121 2.983.497v-1.925c2.298.285 5.022-1.014 6.065 1.487l1.833-.504c1.254 1.296-.44 2.062 2.068 2.737 4.39 1.182 8.95 1.036 13.25 1.62 5.092.694 10.709 2.025 15.875 2.359 3.646.236 7.515-.563 11.045.462l.493-.96c-2.734-1.846-5.532-3.502-8.234-5.446M168.899 69.213c-.488-.544-2.472-.906-2.993-2.054-.78-.185-1.396.806-1.14 1.623.116.372 5.633 5.147 6.184 4.61-.426-.817-1.657-3.74-2.05-4.179m1.092 7.057c.914-.85-1.922-2.148-1.907-.717.005.494 1.588 1.014 1.907.717m-.586 8.27c-.243-.337-5.865-3.096-6.393-4.895-.901-.201-1.095 1.211-1.69 1.633-1.035.735-3.666.613-2.607 2.67l2.157-1.437c.62 2.023-1.021 2.023-1.463 2.729-1.874 2.996-1.678 9.944-2.574 13.624-.334 1.372-1.339 1.96-1.74 3.057-1.326 3.62-2.08 7.555-2.857 11.3.253.237 1.784-.547 1.438.715-6.007 5.265-5.043 15.39-5.751 22.798.804.168.978-.215 1.37-.785 1.27-1.852 2.466-6.039 3.717-8.278 1.875-3.355 4.712-6.124 6.013-9.822l11.926-11.587-1.433-.95c1.063-1.241 3.385-2.611 2.637-4.564-1.734 2.382-4.646 4.748-7.437 5.754l3.614-3.336 1.894-2.907c-4.76.732-7.824 5.142-12.225 6.24 1.524-1.981 4.097-3.222 5.775-5.013 1.787-1.905 1.543-3.384 2.631-5.046 1.024-1.563 5.238-3.35 5.043-5.498-.076-.842-1.01-1.426-1.225-2.184-.278-.98-.492-3.762-.82-4.217m41.37-1.547-11.71 3.327c-1.273.851.583 1.084.92 1.444.534.572.864 1.661 1.517 1.885 2.629.898 10.489-5.356 9.273-6.656m82.048 14.387c.111-.774.048-1.09-.481-1.67-1.663-1.82-11.763-2.296-14.583-2.69-2.685-.376-6.747-1.69-9.306-1.77-4.983-.159 2.74 4.111 4.05 4.627 6.534 2.573 13.474 2.873 20.32 1.503M130.17 124.257c.323.332 6.091-4.33 6.93-4.821 2.126-1.243 5.94-1.966 7.691-4.305 2.096-2.8 2.205-11.692 3.125-15.345-4.821 3.55-6.57 10.073-9.86 14.848-1.834 2.664-4.832 5.436-6.93 7.945-.45.54-1.161.778-.956 1.678m198.157-23.028-.957.002.722.952zm45.518 11.577c-5.477-.85-11.386-1.764-16.73-3.179-6.387-1.691-12.64-5.116-19.062-6.368-.472-.092-5.023-.427-3.488.843 3.694-.077 6.996 2.452 10.085 3.595 7.513 2.78 15.063 3.526 22.025 5.805 3.471 1.136 6.779 4.14 9.948 5.886 11.858 6.532 23.397 13.49 34.671 20.99 21.872 14.548 27.504 37.446 46.578 53.709 6.208 5.293 18.65 10.404 26.543 12.808 2.004.61 1.886-.384 1.662-2.13-1.896-14.806-13.93-41.886-22.93-53.864-7.407-9.858-15.147-15.877-25.753-22.23-12.807-7.674-35.285-16.32-50.27-15.458-3.861.222-8.35 2.331-12.442 1.964zM152.72 105.54l-.955-.955-.002.957zm-3.361 5.766h-.955l.003 1.437.95-.727zm225.753 2.396v.48q.468-.24 0-.48m-226.84 8.994c.697-.583 1.036-3.102-.11-3.705-1.312 1.04-1.87 2.387-1.682 4.067.161.33 1.722-.304 1.792-.362m-10.468-.4-.196-1.393-3.59 2.637c1.128 1.53 1.718-.326 2.253-.727.42-.314 1.428-.364 1.533-.517m239.945-.91h-.955v.47h.955zm-232.7 22.547c.924-.163.698-.776.8-1.368.794-4.633 1.565-10.857 1.762-15.542.03-.712.592-1.167-.411-1.801-1.347 2.217-1.863 4.876-2.152 7.44-.223 1.982.057 4.307-.048 6.189-.106 1.878-1.377 2.656.048 5.082m-22.56-7.672h-.954v.47h.955zm26.39 1.437h-.954v.955h.954zm-49.42 24.473-3.823 3.61c-10.03 14.647-29.67 36.993-23.868 55.995 2.09 6.843 7.455 11.259 10.182 17.649 1.578-4.933.673-10.406 1.246-15.545 1.351-12.126 4.325-28.963 7.878-40.587 1.99-6.511 5.937-12.397 8.12-18.752.279-.812.368-1.521.265-2.37m43.662 3.834-.002-2.394h-.47l-.483 2.393zm-5.757 12.004h-.955v.47h.955zm401.122 142.992c-.614-1.427-.258-3.12-.576-4.458-.295-1.242-1.55-1.951-1.987-3.29-2.265-6.921-3.74-14.64-5.957-21.875-7.274-23.74-16.257-47.775-31.573-67.756-1.616-2.108-3.904-3.864-5.252-6.26.76 2.803.752 5.945 1.329 8.744 2.81 13.647 7.937 27.138 11.524 40.78 1.466 5.573 2.737 9.1 5.028 14.166 1.265 2.798 2.024 6.131 3.39 9.086 3.802 8.215 12.367 18.924 18.317 25.828.803.932 4.815 5.865 5.757 5.035M84.347 227.43v.48q.468-.24 0-.48m0 1.919v.48q.468-.24 0-.48m.235 8.637v-2.396h-.47c-.026 1.017-.853 2.04.47 2.396m-1.435 2.875-.954-.955-.003.957zm414.797 7.203v.48q.466-.24 0-.48m.715 2.876v-1.434h-.47v1.434zm2.888 7.2.942-.714-.473-1.201-.469-.001zm-1.204-.48v.48q.467-.24 0-.48M3.494 405.459v-.955h-.47v.955zm1.442 9.597c.072-1.607.037-3.335-.715-4.794-1.18.875-.56 2.446-.25 3.63.207.79-.493 1.403.965 1.164m559.222.482v.48q.467-.24 0-.48M5.416 416.5H4.46v.954h.955zm547.94 68.134c6.381-14.733 15.787-30.999 14.32-47.67-.375-4.261-2.113-6.708-2.685-9.78-.672-3.61 1.722-7.5-.836-10.684-3.352 21.75-9.39 43.021-11.265 65.026-.054.634-.409 2.973.466 3.108M5.898 423.211l-.955-.955-.002.957zm-.005 1.921v-.955h-.47v.955zm21.112 39.352-.233-1.917-.72 1.19zm1.442 3.356c.194-1.098-.426-1.997-1.432-2.396l.482 2.397zm540.96 91.44c-4.297-4.222-8.25-5.615-10.545-11.762-.38-1.017-.103-2.173-.487-3.352-.542-1.668-2.871-4.065-3.804-6.273-3.828-9.058-3.988-20.62-6.012-30.221-3.315.68-2.202 1.268-3.139 2.835-10.02 16.756-13.331 47.432 5.702 59.148 5.946 3.66 12.43 3.522 17.834 7.596 15.836 11.937 16.81 45.284 5.515 60.221-.279.369-.97.81-.243 1.197 1.76-.606 3.411-1.255 5.052-2.145 8.328-4.516 16.465-14.98 18.527-23.658 2.6-10.934.652-23.273-5.76-32.796-5.042-7.49-11.712-9.414-17.585-15.043-1.743-1.67-3.242-3.967-5.055-5.747m25.694 22.29c.158-.907-.56-1.597-1.435-1.434zM62.138 633.967c.269-.467 2.489-.476.618-2-1.064 1.704-2.834 2.582-4.078 4.07-3.633 4.347-6.404 8.245-8.91 13.162-1.11 2.177-3.03 2.842-4.55 4.088-3.468 2.843-10.732 13.875-12.45 18.26-.797 2.034-2.913 9.207-2.814 11.064.075 1.42 2.389 9.696 3.054 11.248.238.554.444 1.068.959 1.431 4.746-7.979 8.068-16.93 12.055-25.364 4.443-9.402 11.77-21.596 15.138-30.927.521-1.444.838-4.789.978-5.032m-13.06 12.869h-.954v1.434h.955zm493.488 5.756v.48q.468-.24 0-.48M39.482 703.934l2.877-17.273c-2.119.968-1.55 3.428-2.135 4.818-.983 2.331-4.42 6.135-3.88 8.63.133.62 2.293 4.721 3.138 3.825m-2.219 5.591c-.474-.674-2.999-4.909-4.01-4.147-1.863 8.96-4.681 19.771-3.633 28.94 1.363 11.917 12.088 28.477 19.475 37.985 2.215 2.85 4.661 5.626 6.965 7.93 3.876 3.873 7.146 8.685 11.248 12.244 6.939 6.02 25.24 14.894 34.318 15.584 15.346 1.166 30.89-5.628 46.035-6.251 9.97-.41 21.983 4.104 32.173 4.812 5.644.393 11.414-.121 17.026-.48l-4.56-.95c-15.741 1.004-28.713-7.32-43.035-11.184-14.263-3.849-29.193-3-43.801-4.18-12.57-1.017-13.7-2.51-24.105-8.044-.745-.396-1.962-.392-2.554-.833-.739-.55.257-1.343-.06-2.05-.081-.18-2.6-2.033-3.05-2.49-1.799-1.826-6.947-5.641-7.7-6.696-2.544-3.567-4.714-6.55-8.756-9.098-.353-.223-1.204-.035-1.803-.49-.9-.683-1.322-3.498-2.36-4.363-1.132 2.144 2.103 3.79 1.444 5.754-3.254-3.172-6.08-6.347-8.412-10.301-7.204-12.21-10.351-26.138-9.575-40.336.056-.901-1.024-1.007-1.27-1.356m16.616 44.792-.955-.954-.002.957zm-2.89 21.132-.946.224 1.914 1.68zm243.515 39.816c-2.107-.25-4.971 0-7.197 0-.128 0-.51-.443-.95-.49l-.248.962 38.613 15.845.498-.964c-1.663-.51-2.673-2.1-3.84-2.883-7.624-5.119-17.64-11.373-26.876-12.47m67.891 5.277c-1.818-.055-3.168.83-5.016.981-6.876.56-18.04.448-24.99 0-4.905-.316-10.163-2.147-14.994-2.294-.778-.023-.973-.238-1.53.595.01.463 5.394 4.188 6.269 4.758 5.702 3.714 11.922 6.939 18.327 8.543 2.376.595 6.84 3.641 9.213 3.75 1.324.061.45-1.652.977-2.885.21-.489 1.221-1.421 1.823-1.375 2.349.183 1.71 3.483 2.939 4.751.661.683 3.532 1.76 3.69.27.143-2.487 4.473-15.923 3.292-17.094m-71.012-.474h-.955v.47h.955zm1.44.96h-.955v.47h.954zm10.08 3.356c-1.116.501-4.192-1.566-3.841.474.85-.318 4.273 1.345 3.84-.474m95.24 4.317v.48q.468-.24 0-.48m-17.51 9.115c1.095 1.098 3.03-1.978 1.19-2.394-1.177-.266-1.501 2.083-1.19 2.394m-26.393 2.887h-2.396v.47c1.018.026 2.04.853 2.396-.47"/><path d="m16.451 478.397.96 4.8c-2.233.07-.793-1.782-1.06-2.292-.15-.29-1.075.365-.671-1.995.143-.835-.015-1.5.771-.513M62.511 344.518c-.14 1.445-1.132 2.865-2.16 3.829.327-1.267.979-3.146 2.16-3.83M6.863 319.085c-.062-1.064.355-2.465 1.43-2.88.06 1.064-.357 2.465-1.43 2.88M400.782 812.87c.011.82-2.686 1.597-2.876 1.433-1.083-.936 2.503-1.566 2.876-1.433M32.283 523.985c-.21.452-1.72-2.11-1.432-2.395 1.464-.132 1.573 1.208 1.432 2.395M53.879 721.207c-1.075.166-1.612-1.01-2.39-1.68.873-.071 2.093.882 2.39 1.68M417.093 803.273l-2.884 1.667-1.902.492zM503.941 715.938c-.3.339-1.556 3.683-2.396 2.872zM407.017 810.951c.496.232-1.292 1.146-1.916.95.234-.922 1.06-1.08 1.916-.95M10.221 298.453h.47v2.395h-.47zM21.247 493.755c-.922-.234-1.08-1.06-.95-1.917.232-.495 1.146 1.293.95 1.917M55.796 723.608l.239-.954 1.673 1.201zM45.718 548.94c-.857-.52-1.851-1.844-1.91-2.88.857.521 1.85 1.845 1.91 2.88M65.874 340.204l-.485 1.431-.469.001-.003-1.435zM60.117 350.271l-1.437-.233.717-.712zM273.152 5.248l-.957.002.003-.957zM382.549 125.214l-.957.003.003-.957zM63.955 342.603l-.955.955-.002-.957zM5.903 335.882h.47v1.435h-.47zM11.661 460.647h.47v1.435h-.47zM7.815 320.047l-.002.957-.953-.722zM18.371 485.6l-.003.957-.952-.722zM17.413 483.683l-.954.955-.003-.957zM408.462 809.991h.955v.47h-.955zM19.817 490.399h.47v.955h-.47zM21.737 496.157h.47v.955h-.47zM6.383 323.406h.47v.955h-.47zM403.659 811.911v.47l-1.428.249.718-.719zM36.61 533.107c.69.025.895 1.32 1.188 1.924.338.699 1.03 1.629.972 2.383l-1.124-1.75zM42.848 534.546h.47v.955h-.47zM6.863 326.285h.47v.955h-.47zM409.421 806.632h.955v.47h-.955zM53.409 559.733l.225-.226 1.195 1.195-.225.226zM534.647 654.513l-.065 1.849c-.987.55-2.313.384-3.297.784-5.184 2.11-12.399 5.648-16.537 9.372-2.757 2.481-4.768 6.808-6.884 9.697-.207.284.194.665.169.8-.158.848-.635-.089-.73.05-.72 1.054.919 1.39.994 2.128.42 4.135-.59 8.51-.539 12.496.054 4.192 2.758 16.279-1.427 18.746-.5.295-1.136-.207-1.585-.098-1.488.361-1.04 1.584-2.704-.512-.397-4.962-.649-8.326.6-13.187.214-.838 1.079-1.369 1.276-2.563 1.055-6.392-1.442-12.207 1.75-18.883 3.724-7.788 11.212-12.3 18.477-16.071 1.153-.599 10.11-5.031 10.502-4.608M504.661 714.493q.468.24 0 .48zM43.083 544.621q.468.24 0 .48zM40.205 539.822q.466.24 0 .48zM22.931 498.554q.468.24 0 .48zM18.613 487.037q.468.24 0 .48zM12.376 464.004q.466.24 0 .48zM10.931 457.775c.266.306.967.626.49.94-.232-.28-.964-.606-.49-.94M18.613 442.41q.468.24 0 .48zM411.578 805.668q.466.24 0 .48zM61.796 348.836q.468.24 0 .48zM7.098 321.964q.467.24 0 .48zM7.577 314.286q.468.24 0 .48zM405.34 808.067q.468.24 0 .48zM304.1 23.008q.468.24 0 .48zM9.497 448.168q.467.24 0 .48zM57.243 761.522h.47v.955h-.47z"/></g></svg>