<?xml version="1.0" encoding="UTF-8"?><!DOCTYPE svg PUBLIC "-//W3C//DTD SVG 1.0//EN" "http://www.w3.org/TR/2001/REC-SVG-20010904/DTD/svg10.dtd" []><svg xmlns="http://www.w3.org/2000/svg" xmlns:xlink="http://www.w3.org/1999/xlink" height="709" viewBox="0 0 529.175 709.194" width="529"><g filter="none"><path d="M362.692 371.87c4.596-2.258 6.88-5.99 12.712-5.29.667.08 1.375.272.72.964-2.362.886-4.92 1.356-7.073 2.769-3.041 1.996-7.008 8.01-9.945 9.752-.68.403-1.39-.183-1.936.435-.937 1.485.82.612 1.252 1.256 1.628 2.422-3.16 6.397-3.67 8.817-.224 1.066.572 1.83-.26 3.076l-.725.742c-1.548-.748-2.327-.933-4.026-.45-.025-.846-.068-1.696.096-2.538.068-.346 1.728-2.925.147-2.254-.756.32-3.68 4.18-4.039 5.08-.7 1.756-.402 3.158-.852 4.906-.327 1.27-3.622 8.209-4.007 4.173-.171-1.794.882-5.832 1.935-7.44-.539-.496-2.906 2.113-3.371 2.621-1.3 1.421-2.288 4.545-4.309 3.368-.213-2.334 7.576-8.085 6.718-8.871-2.684-.206-4.686 2.696-7.193 1.92.617 2.189-1.311 4.712-1.865 7.01-.868 3.598-1.252 8.215-1.5 11.915.071.536 1.108.27 1.574.156 6.823-1.678 14.05-6.068 21.356-3.863l8.736 3.246c-4.826 3.416-8.548-2.752-14.106-2.117-5.945.678-13.906 3.863-18.3 7.611-2.162 1.844-2.762-.384-4.53.748 1.782.453 2.19 2.106 3.488 2.751 1.503.746 6.048 1.167 6.606 1.549.558.38.321 1.798 1.238 2.12.826.291 4.542.139 5.585-.052 2.065-.379 8.41-5.37 11.059-6.694 7.118-3.557 14.21-3.18 20.725-7.108l-.478-.945-6.961.942c1.059-3.645 5.727-3.646 8.868-3.352 2.508.234 4.359 1.515 7.14.504.98.327.568 1.88 1.254 2.625.38.412 1.347.406 1.785.85 2.861 2.893 4.977 6.792 4.662 10.897 3.395 1.74 6.66 1.898 10.027 3.918 4.948 2.968 15.03 11.494 15.69 17.417.257 2.307-1.859 13.538-3.706 14.672-1.885 1.16-7.584 1.795-9.204 4.11-2.21 3.159-1.45 12.027-2.8 16.392-2.894 9.358-18.534 26.63-28.66 27.474-16.018 1.337-18.483-14.631-26.87-23.549-3.719-3.954-5.804-6.012-9.342-10.33-2.05-2.5-6.149-4.819-8.186-7.647-.817-1.133-1.203-3.038-1.566-3.472-.287-.344-3.775-2.395-4.694-3.224-2.08-1.875-2.711-5.295-6.604-2.439-.229 3.047 4.047 6.439 4.599 8.284.872 2.921.63 6.696 1.104 9.452.595 3.461 2.392 7.088 1.877 10.833-5.87-1.065-4.671-10.323-5.336-15.051-.232-1.65-1.903-10.495-2.784-11.129-.579-.417-2.26-.383-2.705.24-.886 1.238 1.168 3.71-.451 3.397-1.345-.26-3.122-3.488-4.366-4.23-1.513.117-4.841 1.48-6.132 1.228-.78-.152-1.422-1.674-2.035-1.766-.62-.092-1.18.984-1.794.885-.554-.089-1.661-2.171-3.128-1.343-.088 1.822-2.02 2.62-2.659 3.812-.614 1.145-.702 3.03-1.362 4.396-1.325 2.743-3.88 5.514-4.802 8.153-2.527 7.228-3.879 17.668-5.855 25.334-1.323 5.129-3.753 9.854-5.276 14.877-3.63 11.967-6.376 24.743-9.246 36.817-5.883 24.753-12.984 36.504-6.685 63.547 1.825 7.83 5.45 13.77 8.985 20.828l-1.281 1.656c-1.405.166-3.772-3.015-4.386-4.21-7.633-14.847-10.704-39.616-7.073-55.795.49-2.187 3.148-9.148 2.68-10.743l-1.741-.73c.08-4.945.47-10.107.285-15.172-.114-3.133-.883-6.904-.999-10.037-.267-7.196.888-14.277-.465-21.373-.65.084-.838.652-.934 1.22-.227 1.34.84 13.204-.74 13.165-.571-.45-.965-.952-1.234-1.635-.996-2.529-1.018-16.04-.238-19.02.827-3.157 4.278-4.268 5.335-.473 2.678 9.614.733 20.67.698 30.48-.021 5.803 4 10.023 1.92 16.09.108.139.594-.246.72-.475 1.63-2.933 2.136-9.045 3.473-12.362 2.024-16.205 8.722-31.546 13.313-47.145 1.298-4.41 2.215-8.93 3.118-13.431l-2.799.559c-.19.752 0 1.587-.3 2.325-2.343 5.769-23.51 19.82-29.738 21.61-7.932 2.281-10.244-1.688-16.826-2.416-2.572-.285-4.32.679-6.71-.968-10.913-7.524.381-25.932-7.028-34.716-3.895-4.618-10.811-9.274-16.696-10.653-2.4-.562-9.148-.57-9.999-3.433-.775-2.607 1.577-9.26 3.05-11.626l4.523-4.827c-3.755.687-8.535-.603-12.118-2.036-11.24-4.496-16.84-14.198-23.877-23.145-3.846-4.89-4.695-5.24-7.713-10.999-1.455-2.776-4.218-6.426-5.318-9.074-1.208-2.91.313-15.19 1.27-18.588.624-2.215 5.248-9.236 4.996-10.198-2.457-2.095-3.308-5.925-5.93-7.54.517 1.293.187 8.563-.962 8.63-.427-.392-1.058-.484-1.418-.972-.777-1.053-3.56-10.466-3.49-11.839.045-.89 1.247-1.784.825-3.01-1.557-.417-3.621.571-3.767 2.242-.058.662 2.417 2.955 2.91 4.134 1.211 2.905.205 4.246.34 6.826.27 5.17.87 10.358.514 15.586l-3.785-2.463.431-1.85-1.467.287c-.774.988 1.709 4.605-2.107 4.04-2.401-.356-2.381-4.18-2.206-6.04.13-1.382 2.105-5.04-.216-5.029-1.214.006-2.405 2.51-3.344 3.394-2.862 2.696-5.947 5.292-8.753 7.795-.858.766-1.684 3.63-3.311 4.61-3.782 2.275-12.432-.419-9.062-5.694 4.316 7.505 7.373 3.086 11.284-1.204 3.036-3.331 5.154-4.237 7.928-6.942 2.148-2.095 4.53-8.81 7.919-6.904l-.99 13.797 1.444.286 1.516-9.055 1.846-.063c.635-3.36-1.455-5.762-2.639-8.639-1.639-3.983-1.564-3.322-3.505-6.57-1.94-3.247-3.466-12.438-2.397-16.126.155-.538 3.908-3.812 2.056-4.171-.774-.15-1.45 1.007-1.77 1.58-1.513 2.717-2.392 7.2-4.03 10.362-2.299 4.434-8.796 14.16-12.439 17.311-2.032 1.758-5.14 4.28-7.9 3.85-1.287-1.252 4.942-5.174 5.775-5.976 6.747-6.494 11.872-15.116 14.748-24.117.278-.87 1.3-3.83.987-4.36-.323-.546-2.5-.804-1.36-2.971.686-.497 8.814 3.203 9.627 4.523 1.28 2.08-.519 3.052-.51 5.07l5.294-.217c1.41-.923-1.187-3.942-.978-4.093l4.008.884c.865-.407 1.688-1.364 1.055-2.344-1.389-.81-5.105-3.053-6.5-2.158-.582.374-.685 1.901-1.66 1.68-4.099-3.238-8.521-7.138-13.943-7.656-4.723-.451-6.867-.317-10.745 2.194-3.729 2.415-5.293 6.231-10.6 4.997l.244-3.359c2.612-1.422 4.312-4.69 6.71-6.244 3.422-2.217 16.69-1.932 20.992-1.31 1.796.259 5.37.933 4.198 3.218l8.363 2.848c1.247-.306.305-2.658 1.22-3.569 1.654-1.647 5.606-1.48 7.73-.979.951.225 1.644.939 2.644 1.192 3.96 1.004 5.687.652 4.518-3.792l2.159 1.908 2.877-4.299c4.054 4.767 2.988-1.336 3.81-3.876.087-.268 2.49-4.036 2.933-4.745 8.095-12.932 18.477-15.118 33.008-11.987.786-.177.315-2.813 2-2.954.621-.052 5.017 2.567 5.517 3.148 1.062 1.235 2.06 4.448.992 5.811-2.81 2.351-2.986-1.534-4.696-2.586-2.141-1.316-5.74-.786-8.083-1.996-2.697 2.265-1.982.39-4.322.007-14.109-2.315-24.156 11.315-24.644 24.245l7.636 7.151c-.341 1.586-5.876-.66-7.194-.233l.514 4.961c-2.504 2.262-2.504-2.63-3.864-3.29-.904-.439-2.312-.146-3.421-.436-.805-.21-.909-1.062-1.806-1.517-4.002-2.03-5.7.226-9.426 1.711-.143 2.49-.53 4.044-2.073 6.015 3.408 2.322 3.422 5.277-1.517 4.55-.335.328.226 5.903.606 6.836.844 2.07 4.488 4.14 2.658 7.245-.429.727-1.291.544-1.396 1.51-.236 2.17 2.356 6.32 4.589 6.438 2.795.146 5.572-2.946 8.416-2.35l-3.354 4.31c3.265 1.459 4.352.48 7.375-.51 2.937.662-4.01 6.861-4.699 7.753-.808 1.046-3.648 6.178-4.113 6.466-.955.592-3.074-.77-4.085 1.169-.845-1.798 1.746-2.504 2.855-3.863.983-1.206 2.62-3.705 3.534-5.102 1.377-2.106 2.459-3.229-1.092-3.032-4.396.244-7.447 2.308-8.771 6.63-.62 2.022-2.34 15.88-2.019 17.584.073.39 2.7 6.011 3.142 6.934 3.628 7.569 7.14 10.41 12.18 16.608 7.688 9.457 14.396 20.926 28.634 21.159 5.456.09 6.088-3.54 9.278-7.008-5.044 1.31-10.103 3.921-15.471 3.228-3.072-.397-9.516-3.759-10.528-6.753-.182-.54-.354-1.306.33-1.268.523.028 5.698 5.115 8.752 5.633 11.935 2.024 22.82-7.927 28.71-17.12l16.032-3.393c-1.078-.373-5.728-1.32-6.243-1.676-.56-.387-.414-1.681-1.445-2.393-1.376-.95-8.123-2.552-10.643-3.752-3.105-1.479-5.433-2.295-6.757-5.718-1.469-3.796-2.931-8.185-4.299-12.015-.33-.925-1.136-.977-1.346-2.495-.33-2.386.602-3.844 1.936-5.663.401-.548 1.24-.66 1.666-1.336.877-1.387 1.087-6.26.644-7.8-.511-1.777-6.255-3.566-8.079-3.006-.738.226-3.436 1.261-4.168 1.59-3.614 1.626-2.85 7.557-2.735 10.676.024.675.36.868-.517 1.431-2.573.539-2.964-8.4-1.672-10.069-2.797-2.107-5.758 9.38-6.105 10.924-.42 1.872-1.245 6.252-1.335 8.007-.112 2.176 1.31 9.073.498 10.35-1.01 1.59-2.912-2.233-3.23-3.039-1.711-4.342.518-12.966 1.77-17.616.87-3.234 2.293-7.982 4.163-10.71 1.426-2.081 4.933-3.528 3.759-6.075l1.922-.005c1.185-1.147-4.973-5.773-5.28-7.19 3.788-.232 4.63 1.68 6.959 3.351.919.66 2.643 1.065 3.376 1.901.825.941.553 1.873.934 2.423 1.181 1.704 3.188-1.016 4.315-.989.256.007.012.908.937 1.029 1.749.228 3.284-.568 4.829-.562 1.7.007 3.05 1.179 4.586.813 1.581-.377 2.874-4.627 4.552-5.565-1.998-3.292 1.682-3.996 3.096-6.72-1.941.438-1.388-1.085-2.162-1.924-.533-.579-1.234-.793-1.68-1.334-2.256-2.74-4.572-6.159-4.244-9.862l3.278-1.997c-.76-1.85-2.977-1.884-4.547-3.122-1.414-1.114-2.275-2.654-2.889-4.309-1.964-5.291-1.508-7.373 4.385-8.111 1.003-.126 1.632.877 2.598-.265.805-.952 1.952-7.35 2.646-9.364 2.39-6.942 6.383-12.323 12.996-15.793 1.98-1.039 5.033-1.116 5.588-1.465 1.138-.714 2.31-2.859 4.546-3.752 2.357-.942 3.785 0 4.892-.366.5-.166 3.3-2.358 3.857-2.883.617-.582 5.374-6.094 5.537-6.488.234-.564-.098-1.886-.492-2.382-2.202.687-4.69 5.201-6.951 3.116.025-.578 7.547-5.688 8.502-7.802 2.494-5.522 2.439-16.42 1.535-22.4-.465-3.072-2.957-3.236-3.566-4.591-.659-1.468.188-3.655-.794-5.205-4.745-1.048-13.838.695-16.511-4.358-.575-1.087-.594-2.28-1.075-3.244-.658-1.317-2.814-5.84-3.477-6.599-1.759-2.012-7.396-3.376-10.05-3.14l1.437 1.913c-1.39-.207-2.701.53-4.056.502-2.196-.045-4.29-1.572-6.716-1.471-2.788.116-4.84 2.31-6.293 2.41-2.115.146-2.934-2.11-3.857-2.283-.214-.04-2.87.355-2.985.453-.186.158-.14 1.225-.765 1.864-.781.8-2.37.869-3.321 1.483-2.173 1.402-3.975 3.379-6.299 4.736-1.37.8-7.826 3.257-8.184 3.813-1.653 2.57 4.162.09 4.57.496-1.64 8.817-16.7-.301-14.045-5.649.876-1.764 3.29-1.572 4.876-1.02l-.012 1.8-1.864.804 1.745 2.603c3.172-2.28 7.147-2.882 10.59-4.692 5.105-2.685 8.945-7.307 14.066-9.69.475-.639-2.903-3.368-.673-4.292 3.184.238 5.571 3.78 8.617 4.267 4.67.747 10.8-2.042 15.563-1.89l-3.615-5.256c-1.12-2.17-3.643-9.56-3.554-11.733.076-1.833 2.076-3.605 1.343-5.722-.178-.517-3.154-2.61-3.665-3.52-.289-.512-1.283-3.76-1.06-3.994 4.974-.03 3.316 5.476 7.195 5.27-3.137-3.04-.848-4.923-1.061-7.31-.175-1.957-1.767-2.248-1.836-2.617-.114-.608.482-1.969-.255-3.062 3.462-3.678 9.901-7.544 14.439-3.332 2.602 2.416 2.798 12.292 2.15 15.846l1.432-.478v.95c-2.542 1.343-5.221 2.524-5.28 5.763l.004-3.353-3.802 1.71-3.868.68c.711.22 2.052.67 2.375 1.348.216.455 1.067 5.968 1.03 6.583-.058.953-.984 1.733-.801 2.15 1.109 2.523 3.594-.012 5.108 1.647l3.794 6.99c1.616-3.935-1.752-5.186-1.918-8.632l2.393-.722c-1.308-2.191-4.131-3.773-4.303-6.476.767-.03.462.891 1.268 1.362 2.303 1.345 6.612 2.044 9.049 3.727.64.045 3.248-2.907 3.838-3.644 1.12-1.397 2.671-2.804 2.68-4.558.004-.99-1.029-4.859-1.455-5.798-1.007-2.222-2.927-2.49-1.85-6.108.304-1.025 5.113-3.977 6.165-5.827.84-1.475.392-7.341 3.493-6.46.913.26 1.739 2.816 1.779 3.77l4.292-.455c.26 1.724-1.471 2.465-2.387 3.596l1.91.725c.347 1.298-.805.897-1.43 1.674.625.777 1.777.376 1.43 1.675l-8.157 1.449c-.264 1.351.456.861 1.383.986.824 2.796-1.62 3.53-4.01 3.324-1.085 1.51.973 1.803 1.676 2.634 3.168 3.74-.812 9.842 4.072 13.202l.965-1.915c.517-.17.658.198.935.495 1.271 1.362 3.226 8.673 4.668 11.166 1.314 2.272 3.095 3.312 4.432 5.164 2.108 2.919 2.16 6.237 5.313 9.082 2.95 2.66 3.805 1.165 6.586 1.53 2.565.336 7.325 3.286 10.421 4.013 4.139.973 8.555.38 12.602-.882 2.602-.811 1.905-1.494 3.224-2.516 1.032-.799 3.317-1.953 3.92-2.849.75-1.111-.619-2.785.2-4.564.672-1.465 8.854-7.973 10.638-9.03 2.6-1.542 5.672-3.068 8.779-2.972.347 4.384-4.56 2.71-7.221 4.53-.98.67-6.707 7.94-6.98 8.892-.317 1.105.188 2.583.99 3.388 1.688 1.697 6.299-1.388 4.355 1.44-1.485 2.157-6.443.263-8.132.47-.918.113-5.992 4.151-6.275 4.794-.414.943-.044 2.27-.45 2.909-.484.76-2.355.124-3.43.889-.332.235-5.062 5.588-5.4 6.093-.581.869-1.107 1.982-1.037 3.058l2.627-.957.726 1.191c-1.667 2.33-3.962 2.452-6.647 2.105-2.368-2.94 7.335-10.534 6.17-11.928-3.91-.754-7.874-1.4-11.726-2.433-1.811-.486-11.429-4.921-12.26-2.116-.153 1.47 1.361 2.141 2.161 3.104.45.287-.31.879-.523.935-.388.103-7.318-.423-8.01-.563-2.21-.448-4.003-2.448-5.658-3.459-1.528-.933-10.128-6.696-11.003-6.025 1.453 2.97 5.448 4.159 6.962 7.184-2.48-3.815-7.495-1.469-8.951-5.705-3.896 1.761-6.103-2.03-9.523-2.92-.506.508 1.495 2.631 1.698 3.346.477 1.677-.718 2.64 1.97 4.256 1.302.783 6.6 1.93 8.091 1.897 2.869-.064 3.298-2.203 5.611 1.673 2.83 4.744 6.261 11.793 5.637 17.352-.208 1.845-.399 1.936-.436 4.323a541 541 0 0 0-.075 8.674c2.408 1.69 5.471 5.05 8.64 3.31 1.85-1.017 4.253-3.568 7.004-3.568h7.437c-1.13 4.774-7.314-1.549-7.198 2.874 1.624-.43 2.187 1.12 2.782 1.403 2.002.951 4.256.793 5.622 2.917l1.67-.957 1.441 6.004.96-.485v-8.157c0-2.274 2.64-9.273 3.614-11.741 1.126-2.854 2.537-6.382 4.538-8.652-2.213 7.841-5.854 15.47-6.27 23.745-.084 1.673.58 3.215.098 4.962 2.523 1.633 5.16.732 8.084 1.774 3.115 1.11 3.124 1.455 6.854 2.262 2.563.554 8.651 6.926 10.43 9.243 3.814 4.966 7.954 16.54 9.454 22.694.678 2.786.277 5.879 1.821 8.246 1.658-.011 3.562-13.013 2.617-14.965-.59-1.222-4.8-3.4-6.383-3.27-1.282-1.674 1.211-1.77 2.101-2.614 2.018-1.913 3.756-4.862 5.739-6.737 2.098-1.984 5.097-3.144 6.972-5.503 2.124-2.67 2.358-6.816 4.048-8.907 1.834-2.266 4.239-2.418 3.82 1.414-.947 8.68-11.705 13.409-16.774 18.74-2.53 2.66-1.926 3.427.459 5.698.36.343.25.508.993.318.145-1.266 2.07-5.525 3.136-5.753l1.112.79c.668 1.965-3.603 13.247-2.8 14.078 3.375-.274 5.935-3.997 8.396-5.754 1.746-1.246 6.528-4.578 8.295-5.142 1.547-.494 2.4-.842 3.724.335.716.635.46 1.877 1.875 1.465.244-.071 2.326-4.063 3.862-.977 1.25 2.515-1.701 4.415-3.113 6.006-.936 1.056-1.412 3.226-3.142 3.088-2.594-.207-1.852-5.426-3.831-6.686l-.195 1.666-11.553 15.351c.825 3.927 9.929-5.804 10.804-6.46 5.397-4.046 5.864-3.318 11.946-4.367 2.147-.37 9.369-3.23 9.771 1.314.265 2.992-8.541 6.582-10.623 8.39l-5.106 5.202c.18.186 4.346.85 5.088.92 3.794.361 5.139.667 8.958 2.07.742.272 1.084 1.26 1.999 1.314 1.61.094 5.32-2.439 5.461-4.135.093-1.127-5.032-5.468-2.546-5.922 1.459-.266 3.238 2.356 3.448 2.408 1.416.354 7.573.01 8.569 1.402.96 1.344-1.423 6.113-2.454 7.206-1.06 1.123-3.5 1.106-3.094 3.378 3.782 1.422 3.209-5.307 6.198-2.58.502 1.634-3.803 5.454-3.3 9.023.168 1.184 1.225 2.38 1.318 3.505.15 1.807-.85 3.304.589 5.517.828 1.275 3.846.795 3.827 2.77-2.915.676-2.848-1.388-4.29-2.663-.834-.735-1.974-.966-2.642-1.676-1.158-1.23-2.71-4.513-2.896-6.21-1.276 1.298-4.535.392-5.284 1.91-.243.49.053 8.593.233 9.26.333 1.231 4.794 2.284 6.04 2.287 2.902.006 2.34-2.396 5.982.672.626.528.882 1.542 1.447 1.91 1.274.83 3.449-.066 2.823 2.153l-1.88.56c.758 3.813-4.001 3.448-6.284 3.999-2.221.536-5.084 3.562-6.932 5.084-1.756 1.448-3.193 2.976-5.075 4.5-.4.324-5.102 3.925-4.266 1.974.472-1.1 8.542-8.36 10.064-9.611 1.561-1.285 5.16-3.175 6.028-4.048 1.668-1.68.408-3.607 4.533-2.424l-.296-1.482c-.43-.306-7.377-1.453-8.053-1.39-1.554.143-4.44 2.794-5.802-.008-1.263-2.6-.847-14.717-.02-17.77.713-2.626 4.393-4.219 2.585-7.109l-7.329-.536-.546.964c.03.365 2.625 2.825.994 2.85-.829.012-2.535-3.015-4.577-1.682-1.04 1.823 1.491 1.465.784 4.13-1.113 4.19-7.384-.16-9.287-.439-1.024-.15-1.801.449-2.635.299-.508-.091-4.18-2.264-4.19-2.536l2.386-1.913c-2.66-3.13-6.431-.83-9.79-1.25-3.833-.478-8.224-4.768-12.754-3.792.376 4.556 1.987 3.167 4.919 3.953 4.169 1.117 6.665 2.16 8.782 6.094.45.835 2.438 5.485 2.52 6.136.142 1.146-.654 1.889-.665 2.767-.024 1.848 2.07 3.276 2.88 4.592.446.727.317 1.895.711 2.531.362.585 1.43.538 1.952 1.036 1.014.967 1.33 6.642 1.58 8.506.663 4.956 2.092 7.466-.89 12.326-1.25 2.039-3.392 3.319-3.554 5.798 3.307-1.006 4.6-3.34 6.701-5.53 1.599-1.665 4.1-3.067 4.596-5.494.172-.842-.418-1.558-.05-2.392.49-1.106 5.132-6.114 6.233-6.762.764-.45 1.786-.902 2.457.02.085.117.223 2.74.21 2.884-1.102.54-3.41.357-3.357 2.396 1.375-.266 3.21-.864 3.356-2.396m-131.56-187.228c1.324-3.545-5.323-8.692-7.946-6.033-.173.175-2.014 4.229-2.038 4.473-.115 1.168 1.091 2.256.97 2.84-.71 1.38-1.997.07-2.874.469-1.473.67-.402 6.494.708 7.464.885.772 3.869.67 4.737.04.785-.569 3.512-8.851 6.442-9.253m-5.18 31.279c-3.2-.253-4.585-5.415-4.044-8.156l-3.148-.956c-1.126 1.112 4.719 12.487 8.155 11.037-1.053 2.915.725 3.198 1.232.01.347-2.182-1.005-5.601-2.663-6.981-2.318-1.93 1.146 5.057.467 5.046m21.112-7.68c.233-.183-.838-1.27-1.439-.95-.233.182.838 1.27 1.44.95m-10.89 3.662c-.24-.162.12-.978-.62-.776-.038 2.422.661 4.303 2.393 1.443-.717.007-1.2-.28-1.773-.667m18.043-.729c-.761-.647-5.52 1.12-4.758 2.83l-2.045-1.327-11.388 1.81c.058 1.372.745 2.63.484 4.055-.296 1.611-2.507 1.823-1.696 3.61.41.902 7.941 7.695 8.655 7.675 2.1-.058-2.673-5.362-1.445-6.224 1.114 1.158 2.196 2.267 3.53 3.187 3.41 2.349 16.698 10.27 20.099 11.088 1.055.253 2.24-.029 3.26.517 2.572-.345-2.702-4.65-3.445-5.13-1.294-.838-2.85-1.084-4.448-2.27-2.607-1.933-11.214-12.891-11.562-15.789-.03-.24.01-.485.01-.722 3.534 4.69 6.012 10.561 10.544 14.642.43.387 5.686 4.9 5.752 2.395-1.687-1.655-1.705-4.483-2.44-6.142-1.129-2.545-4.574-5.013-6.106-7.375-1.211-1.867-2.4-4.66-3-6.83m-34.984 11.473c-1.065-.401-1.807-.4-2.871 0l-.001.469h2.873zm48.226 50.86c-.209.062-.47.537-.714.717l2.141 1.199c1.608-1.083.104-2.366-1.427-1.915m1.67 7.194-.75-2.364-5.482-.99c1.098 3.415 4.031 1.541 6.232 3.354m3.359-2.879-1.425 1.2c.907 1.314 1.611.177 1.425-1.2m6.717 5.276c.232-1.881.127-4.224-2.146-4.794l-.532 1.472zm-24.467-2.874c-1.355-.128-3.54 3.621-2.873 4.314 1.285 1.334 3.237-3.281 2.873-4.314m9.6 1.92c-.319 1.593 3.073 2.605 3.354 1.19.289-1.45-2.484-1.275-3.353-1.19m-3.113 1.439c-1.323.294-.565 2.422.473 2.867l1.069-1.182c-.2-.617-.719-1.868-1.542-1.685m20.382.967c-.082-.097-2.08-.391-2.517-.388-1.537 1.667-6.254.505-3.13 3.419 1.405 1.372 6.71-1.773 5.647-3.03m-22.55.952c-.586-.63-2.05 1.254-1.435 1.915.586.63 2.049-1.254 1.434-1.915m11.514.96h-1.434v.955h1.434zm28.306.966c-2.176-1.293-4.26-1-6.71-.966.48 2.601 4.494 1.789 6.473 1.92zm19.26 28.265c-.156-.158-.065-2.615-.197-3.432-.903-5.598-1.846-4.932-4.116-8.838-1.668-2.87-2.872-6.243-4.95-8.964-5.835-7.64-9.619-2.775-16.819-4.772-3.03-.84-3.315-3.563-6.733-2.631-.697.19-5.708 3.519-6.37 4.183-1.698 1.703-3.206 3.696-5.067 5.49-3.595 3.463-7.51 6.09-9.956 10.712.543 2.108.593 4.39 1 6.496 1.01 5.232 2.152 10.799 4.295 15.378.29.62 1.524 3.474.145 3.216-2.17-.405-2.427-3.895-3.227-5.412-1.74-3.298-4.154-6.41-5.19-10.176 1.85-.425.921-2.89-.449-3.613l-.242 1.438c-2.308-3.645-2.333-8.92-3.048-13.263-.086-.523.275-1.155.153-1.669-.122-.515-2.517-5.399-2.913-5.652-.899-.574-7.262-1.15-7.87-.522l.724 1.912c-1.888-1.642-3.803-4.14-6.593-3.741-1.407.201-9.646 4.16-11.253 5.091-7.102 4.119-12.954 13.428-13.352 21.67-.278 5.758 4.524 7.776 3.495 14.535-.72 4.731-3.24 3.157-6.082 5.95 1.873 6.934 8.472 11.26 15.53 11.698 3.969.246 2.726-.958 4.207-1.621 3.769-1.687 4.379 2.96 7.57 4.238 4.208 1.685 10.46-1.035 10.55 5.998-1.23.51-2.379-.963-3.115-.956-.692.007-1.208.982-2.34.958-1.192-.026-2.438-1.104-3.536-1.32-2.395-.472-8.813-1.672-10.909-1.59-3.048.12-5.64 4.29-7.685 3.88l-.295-1.365c-7.51-2.68-6.674.792-10.257 4.717-1.135 1.244-2.928 1.84-3.051 1.98-.255.29.04 2.098-.18 2.947-.3 1.168-1.064 2.123-1.29 3.508-.335 2.063.088 4.943-.633 7.043-.391 1.14-2.114 1.932-2.701 3.053-1.665 3.18 2.286 8.669 3.523 11.708 1.506 3.7.056 5.145 4.414 7.58 3.557 1.988 12.464 4.408 16.247 4.49.587.012 1.084.355 1.659.399l-.957 3.093 4.797 1.706c.398 1.8-1.653.452-2.397 1.192 1.995 1.287 3.77 2.932 3.831 5.52-3.474-2.058-8.274-4.183-12.27-2.44-4.034 1.758-13.334 12.145-16.225 15.923-1.652 2.158-2.952 4.213-4.125 6.665.67.508 7.44-2.943 8.646-3.583 5.544-2.941 16.425-9.254 20.504-13.317 1.115-1.112.363-3.07 3.953-2.286.336.31-.972 3.757-.921 4.595.067 1.105 1.685 1.478 1.402 2.832-1.308 1.68-1.06-1.494-2.876-.71-1.046 2.28 1.846 3.272 1.944 3.693.27 1.16-.723 2.722-.508 3.98 5.99.807 4.282-2.098 4.298-5.976.035-8.199.968-19.839 6.06-26.608 2.17-2.886 3.936-3.084 4.475-7.517.428-3.517-1.714-6.737-1.42-8.586.462-2.9 5.335-.455 5.764 3.404.156 1.408.346 2.909.47 4.285.719 7.967-6.184 13.464-7.926 19.854-.97 3.558-2.996 11.786-3.096 15.175-.037 1.235.625 4.96 1.477 5.707.464.406 7.067 4.025 8.018 4.457 4.997 2.265 21.602 4.989 27.218 4.918 2.556-.033 8.716-.488 10.762-1.709 1.314-.785 2.8-2.934 4.125-4.032 3.227-2.675 9.47-7.134 10.898-11.173.406-1.147.244-2.252.581-3.257.422-1.257 2.053-1.956 2.05-3.48-.002-1.334-1.451-4.229-2.172-5.463-.655-1.122-2.12-2.285-2.477-2.91-.586-1.025-4.239-8.363-3.85-8.753 1.384-.14 2.5.676 3.363 1.669.658.756 1.09 3.163 2.388 2.41-1.196-1.163-.857-3.332-1.708-4.53-.606-.853-3.625-2.507-4.071-3.243-1.555-2.566.827-5.13 3.526-4.884 2.916 2.216 2.243 5.406 6.466 5.568 1.583.061 6.545-.133 7.999-.374 1.507-.25 2.026-1.692 3.623-.94l.004-4.318c1.435-.354 2.25 1.307 2.98 2.297l.572.123c.657-.067 7.607-3.602 7.853-3.966.254-.376.08-1.3.557-2.072 1.953-3.163 6.103-6.14 8.114-10.607 1.557-3.46.642-7.264 1.442-10.874-.302-1.255-2.282-1.398-2.822-2.003-.6-.673-.28-1.502-.61-2.028-.173-.277-.88-.37-1.202-.933-.922-1.617-.729-6.196-1.508-8.588-1.438-4.415-6.158-7.972-6.264-12.688-2.618.219-4.785-1.188-7.444-1.433-4.64-.427-9.703.988-13.93.497-1.253-.146-2.337-.668-1.345-1.946 4.317-.669 7.417-3.264 6.904-7.928-.22-2.011-2.06-4.388-.46-6.668.323-.461 2.543-1.637 3.098-1.735.89-.156.83 1.994 1.66.975.92-1.127-1.957-2.895-2.141-4.244-.053-.385-.045-2.11.7-1.988l.49 2.876c1.146 1.157.348-3.412.019-4.015-.31-.567-1.228-.166-1.4-.34m-59.08-23.958-.484-1.913-.469-.001-.002 1.914zm104.112 26.396c-3.831.24-6.908 5.363-10.41 1.486l-.74.022-10.908 8.806 4.55 2.631c.808-1.991 2.602-1.498 4.242-2.467 1.72-1.018 11.847-7.643 12.582-8.528.537-.647.848-1.036.684-1.95m-152.248 4.905c-.59.048-2.695 1.258-2.967 1.808-1.808 3.662 6.499 8.704 8.88 7.471 2.434-1.26 1.355-6.411-.987-7.677-.361-.195-4.668-1.623-4.926-1.602m-98.678 1.815h-.955v.47h.955zm38.382 2.4h-.954v.47h.954zm173.45 2.878c-.372.087-1.021.835-.238 1.187l2.157 1.198c-.015-1.118-.442-2.728-1.92-2.385m9.828.478c-.85-.914-2.148 1.922-.718 1.907.494-.005 1.014-1.588.718-1.907m6.237.48c-.907-.153-1.595.561-1.432 1.437l1.433-.486zm15.835 2.881-1.437.233.717.712zm20.943 1.013c-1.186.105-5.73 4.302-3.423 5.698 1.134.241 3.95-4.033 4.539-5.039zm-23.944 1.503c-1.382-1.24-4.872-.953-6.597-.598-.214 1.128.111.764.622 1.062 2.078 1.21 4.172 1.597 6.575 1.331.217-.2-.33-1.553-.6-1.795m-33.945.363h-.954v.47h.954zm35.504 4.796c-.548-.54-3.278.542-2.874 1.915 1.228.661 3.956-.85 2.874-1.915m-212.541.482c-1.106-.187-1.748.394-2.39 1.195l.71.71zm209.183.96h-1.435v.47h1.435zm24.375.58c-1.807-1.038-4.793 1.717-4.219 3.732l5.274-.96c.307-.276-.751-2.597-1.055-2.772m-234.52 1.337c-.903-.86-4.886 3.349-4.314 3.834 1.65 1.01 4.963-3.216 4.314-3.834m86.84 8.637c-.326-.288-4.868.68-4.312 2.395.22.21 5.417-1.422 4.312-2.395m6.238.48-.957.002.722.953zm-28.31 12.95v-.954h-.47v.955zm123.31 31.198-.958-.003.002.957zm-81.084 5.268c.704.58 2.147-1.558 1.914-2.394zm63.81-1.91-1.916-.002.003.71.715.718zm-63.813 3.832-.002-.957-.952.722zm60.695 4.8v.48q.468-.24 0-.48m77.963 13.434c.26-3.85-.671-9.254-4.938-10.441-7.313 2.703-14.721 4.926-22.406 6.366-6.86 2.658-12.061 10.047-19.455 9.853-1.294-.034-2.448-.555-3.811-.537-7.53.1-12.652 6.6-19.914 7.722-.507.675 2.779 2.73 3.4 3.07 20.269 11.061 40.386 23.618 56.824 40.098 1.574 1.578 8.296 8.268 8.387 9.887.127 2.258-1.82 1.17-2.645 2.118-.76.873-1.104 3.638-2.67 5.008-2.411 2.108-6.607 2.18-9.424.854-4.862-2.287-12.644-7.02-16.704-10.644-3.137-2.8-5.585-7.219-9.822-8.166 2.02 2.618 5.188 4.316 7.196 6.954 7.232 9.5 11.077 24.56 26.877 16.803 9.837-4.83 19.53-18.177 21.451-28.93.363-2.03.622-9.474 1.336-10.66.078-.131 1.996-1.948 2.21-2.11 2.48-1.872 7.445-2.83 9.002-5.87.523-1.023.346-1.896.657-2.702.272-.704 1.02-1.042 1.217-1.661 2.692-8.472-8.082-17.103-14.516-20.787-.838-.48-7.265-3.419-7.676-3.34l-.646 1.078 4.663 23.195c3.678 2.093 7.723-.16 11.296-.798.794-.141.972-.81 1.694.273-3.673 3.366-9.111 3.771-13.906 3.597-.628 2.228 2.984 7.56-.833 8.09-2.673.371-1.814-3.18-2.266-4.747-3.082-10.679-6.64-13.239-7.941-26.126-.15-1.476-2.39-10.893 1.155-10.302 1.661.277.508 3.197 2.208 2.855m-54.69 1.924c-2.848-.305-8.425-2.411-11.033-1.196-.58.27-.876 1.165-1.808 1.55-1.72.711-4.301.245-5.857.86-1.146.452-9.154 8.455-9.123 9.1l1.38 1.358c-.539 2.33-4.652 3.443-3.583 6.114.393.546 7.178 1.376 7.946-.281.595-1.136-1.971-.325-2.645-1.671-.704-1.405.413-2.522.18-3.508-.194-.82-1.618-1.136-1.367-2.246 4.41-1.752 8.49-1.393 13.069-3.009 3.409-1.203 8.934-4.187 12.225-6.002.552-.304.81.027.615-1.069m56.13 4.798h-.955v.955h.954zm-123.303 42.224c-3.138 1.477-5.84 3.354-7.923 6.233-1.128.472-.738-1.357-.463-1.905 6.774-6.34 12.94-13.437 19.398-19.946 1.19-1.198 4.095-2.919 4.85-4.267.685-1.223.305-2.296.724-3.595.652-2.023 2.38-3.18 3.565-4.826l-7.397.42c-.176 3.077-.579 3.577-3.792 3.927-1.475-1.275-2.37-4.562-4.138-5.098-.68-.205-6.492-.92-6.74-.69l.475 2.393c-1.634-.044-3.29.148-4.92-.112-5.651-.9-12.53-4.074-16.532-8.177-.505-.52-.345-1.68-.927-1.82-1.38-.332-3.254.908-4.737 1.012-1.601.112-2.987-.613-4.263-.493-4.199.396-16.464 7.303-20.404 9.865-1.735 1.128-6.072 5.265-7.828 4.932-1.7-.322-2.392-1.416-1.088-2.816 1.265-1.356 9.495-6.377 11.606-7.583 3.06-1.75 6.972-2.725 9.926-4.952 1.03-.778 1.434-1.973 2.703-2.574.192-.588-.117-.967-.71-.71-1.145.494-3.23 2.55-5.203 3.436-7.071 3.175-14.748 3.614-21.673 8.555-3.814 2.721-5.583 5.019-5.828 9.903-.321 6.43 5.915 4.813 10.645 6.394 4.803 1.605 14.776 9.223 16.795 13.912 3.736 8.673-1.632 20.55 2.414 27.816.285.512 1.976 2.231 2.47 2.367.753.206 6.484-2.168 7.655-2.726 6.778-3.23 13.36-7.277 19.974-10.733 6.866-3.587 20.644-8.484 24.506-15.318 1.98-3.504 1.603-7.095 2.825-10.61.815-2.343 2.397-3.134 2.284-5.88-.03-.724.327-1.407-.73-1.205-.402.167-4.963 4.886-5.178 5.413-.545 1.329.222 2.017-.063 3.22-.182.766-3.843 8.545-4.392 9.566-1.103 2.052-4.178 7.141-6.86 5.228l-.067-1.842c-.895-.953-5.341 3.214-6.252 4.066-1.043.976-1.595 2.193-2.628 3.13-.975.883-7.977 5.19-8.96 5.425-1.878.448-10.669.205-10.4-2.219.387-2.992 4.711-3.695 5.727-5.325.637-1.023.304-2.07.705-3.133.462-1.23 2.504-3.16 3.344-4.335 1.156-.227.736.932.662 1.621-.54 4.986-5.433 12.462 4.961 6.404 2.962-1.726 10.376-9.581 11.882-12.348.642-.303 1.104.142 1.44-1.435-1.351-.261-1.118.843-1.44 1.435m66.378-22.241c-4.363-4.117-6.969-4.293-11.365-7.107-2.442-1.563-5.118-6.125-8.465-2.561 2.793.664 4.814 5.455 6.357 6.123 1.843.798 3.09-.556 4.806-.039 1.888.568 5.471 4.99 7.621 5.83.427.166 3.795 1.083 3.748.081-.024-.493-2.215-1.867-2.702-2.327m-36.634-5.108c-.425-.47-7.872 4.002-8.42 5.733-.558 1.757.489 5.924.262 8.416-.076.832-1.758 5.55-.235 5.513 1.337-.034 2.74-8.124 4.192-9.468.753-.696 2.384-.296 2.816-.89zm11.882 3.208c-.096.117-2.47 1.443-2.646 1.489-3.164.818-2.615-2.045-4.195-3.73-1.896 1.151.197 3.25.039 3.858-.284 1.088-1.996 2.324-1.241 4.291l4.534.448.66-1.053-.39-1.795c3.516 3.273 7.669 1.508 10.048-2.16-.814-1.587-5.367-3.968-6.586-2.493-.186.225-.02.898-.223 1.145m62.005 28.457c.964-1.005-5.044-5.878-6.008-6.702-5.574-4.77-12.07-8.313-17.702-13.007-1.023-1.177-3.387.26-3.612 1.273-.294 1.324 5.46 3.154 5.98 4.038.514.878.007 2.333.763 3.555.287.465 4.189 4.395 4.779 4.817 1.625 1.163 15.132 6.722 15.8 6.026m-28.36-10.49c.955 3.07 3.572 5.188 5.531 7.655 5.61 7.062 9.593 12.649 17.712 17.314 4.188 2.407 14.64 8.061 16.045.045.73-4.167-1.411-4.098-3.249-6.605-.97-1.324-1.795-3.623-3.107-4.57-2.308-1.663-5.454-.578-8.055-1.06-6.173-1.146-15.866-7.35-20.734-11.413-2.654-2.216-7.087-7.933-10.142-8.578-1.44-.305-.045 3.375-.438 4.276l5.775 9.107c1.15-1.538-1.888-4.444-1.682-5.504zm-59.438 17.215-.957-.003.002.957zm-13.914 4.798c-3.28 1.508-7.338 3.313-10.33 5.259-.61.397-1.42.368-1.181 1.452 4.6-1.037 9.149-2.24 11.511-6.711m3.359 3.839c-1.306.1-2.426 1.349-3.349 2.159 1.152-.2 2.734-1.154 3.349-2.16m-3.838 2.399c-3.064.808-5.991 1.949-9.1 2.65-4.046.915-7.943 1.047-11.991 2.403-1.556.522-10.093 4.385-8.651 6.45 1.861.179 4.3 1.812 6.025 1.894 2.934.14 11.799-4.648 14.667-6.377 2.979-1.795 6.4-4.708 9.05-7.02"/><path d="M504.712 268.704c-1.288 5.542 1.192 11.125 2.172 16.537.865 4.771 1.286 10.021 2.614 14.902l.49 20.383c10.899-3.795 9.674-13.05 4.224-21.26-1.76-2.651-5.896-5.468-3.954-8.932 1.604-2.863 3.873-1.307 4.042-1.47.187-.18.807-4.601 1.76-4.83 2.717-.655 2.84 1.844 3.854 2.452 2.047 1.227 6.835-.44 9.26-.504-.665 2.345-1.369 4.676-1.776 7.095-.953 5.654-.695 11.07-2.647 16.547-.524 1.47-2.165 3.641-2.287 4.951-.304 3.254.734 6.123-.137 10.379-.429 2.098-2.804 6.633-2.783 7.818.049 2.731 3.538 5.07 5.08 6.944 11.298 13.722-3.568 35.931-2.653 51.49 9.056 6.056 3.335 16.833.382 24.943-2.28 6.258-6.093 13.272-7.918 19.431-1.073 3.619-.975 7.587-1.784 11.172-.702 3.106-2.958 6.803-3.52 9.435-.574 2.683-.437 4.404-1.674 6.947-1.459 2.999-2.6 2.516-5.63 2.578-1.467.03-2.25-.93-.816-1.825 3.442-2.148 5.667-7.995.46-5.76-3.512 1.508-2.137 5.189-2.572 7.98-.433 2.772-1.969 5.215-1.376 8.201.315 1.592 3.055 3.4 3.956 4.677 2.89 4.098 2.178 12.441.29 16.864-1.17 2.74-3.33 4.462-3.558 7.478-7.414 6.8-7.51 17.206-10.81 26.114 2.578 2.17 5.175-2.588 6.471-4.543 3.646-5.494 8.95-15.302 5.079-21.547 2.941-.16 3.2 2.139 3.373 4.535.416 5.742-4.499 16.205-7.973 20.85-.5.67-2.636 3.431-3.083 3.634-1.304.593-3.857-.183-4.365.532-.996 3.22-1.807 6.507-2.591 9.786-1.622 6.781-2.215 14.005-4.758 20.205-.335.82.298 2.789-1.458 2.837-1.324.036-3.104-2.625-5.53-.961-1.427-2.416 1.696-2.791 1.93-4.588.096-.745-.298-2.055-.487-2.872-.106-.46.301-1.6-.72-1.176-.96.398-4.544 8.873-5.603 10.714-.322.56-2.757 2.879-.248 2.152 1.334-.386 2.07-1.751 3.176-2.1 1.731-.545 4.394-.654 4.822 1.503.393 1.984-.67 1.463-1.126 2.166-1.725 2.667-2.054 3.886-4.146 6.434-.82 1-4.731 4.896-3.371 5.769 2.202 1.413 5.54-4.203 6.95-5.56 5.484-5.28 13.41-10.208 16.331-17.724.685-1.762.37-3.949 1.675-4.798.305 10.739-10.191 16.877-16.276 24.295-.14.784 4.108 4.572 5.17 4.565-.172 1.846.653 3.71.602 5.452-.079 2.709-2.1 4.68-3.019 7.1-2.616 6.891-2.175 9.157-7.75 15.041-5.64 5.951-16.873 17.188-24.682 19.221-8.035 2.092-10.663-1.888-7.865-9.305.195-.515 3.049-4.738 1.295-3.986-.83.356-3.67 3.837-4.815 4.784-1.404 1.16-3.181 1.91-4.553 3.124-1.831 1.62-2.339 3.479-3.816 4.82-1.444 1.312-3.81 2.003-5.292 3.345l3.355 1.2c-.74-4.739 5.11-3.557 7.938-5.769 4.007 1.899-3.396 5.23-5.343 6.201-1.239.618-2.288.316-3.584 1.214-2.031 1.407-1.03 2.868-1.611 4.626-1.903 5.757-6.532 10.19-11.063 13.888-3.88 3.166-16.53 11.714-21.013 13.052-3.49 1.042-8.945-.503-8.945-4.664 0-3.142 6.97-6.254 8.594-9.124.207-1-.493-.793-1.201-.724-2.541.245-6.407 4.137-8.722 5.677-3.038 2.02-6.51 2.872-8.775 6.09-.043 1.645 6.752-1.017 7.664.976.374 1.812-2.12 2.185-2.555 3.214-.904 2.133.37 3.704-.025 5.664-.113.558-3.378 6.216-3.676 6.438-.986.736-3.83.968-5.236 1.482-5.357 1.96-10.61 4.198-15.97 6.1-1.084.385-3.417 2.982-4.275.45l-.638-.089c-1.175 2.315-3.081 3.436-4.564 5.036-.859.927-1.171 2.25-2.23 3.048-2.272 1.71-5.117.453-5.47.743-.495.409-.604 2.446-1.581 3.481-1.002 1.062-8.14 4.64-9.711 4.924-5.134.927-9.58.195-13.8-2.914-1.686-1.241.287-2.606 1.305-2.298.67.202.92 1.608 1.76 2.112.595.357 3.964 1.023 4.296.736l-.959-5.273c3.03.44 3.507-.993 5.576-1.862 2.39-1.004 6.89-1.216 6.897-4.375-1.22-.257-1.052 1.002-1.809 1.428-3.87 2.179-16.502 4.58-21.424 5.802-6.065 1.505-9.134 3.308-15.86 2.837-4.549-.32-6.784-.67-11.44-.29-1.45.119-2.923.456-4.357.694l-1.117-1.607 2.128-2.074c3.658.468 8.012.763 11.685.19 4.383-.685 22.83-6.514 26.216-8.809.615-.417 1.31-.543 1.105-1.53-1.794.18-3.668.288-5.451.542-16.604 2.365-33.268 7.031-50.313 5.567-32.645-2.806-63.304-14.266-91.464-30.406-1.554-.89-7.128-5.03-8.181-5.244-.746-.152-1.354.685-2.183.705-3.063.07-14.099-7.973-17.682-9.638-3.94-1.83-7.876-1.487-10.704-5.16-2.391.5-2.729 5.02-1.475 6.549.357.435 4.595 2.112 3.695 3.011-8.741.972-11.13-9.494-3.13-12.916l21.842 10.762c-7.265-7.094-16.305-12.016-24.086-18.502-5.876-4.898-12.447-10.841-18.14-16.042-3.665-3.35-6.763-7.41-10.797-10.316-.844-.113-.726-.025-.728.722-.004 1.436 6.33 16.05 7.497 17.942.561.91 3.57 4.6 4.374 4.796.961.235 1.44-.818 2.274-.868.32-.019 3.578.006 3.768.034 3.122.464 2.386 2.528 2.949 4.264.464 1.435 2.682 3.896 3.136 5.503.258.912-.494.885-1.116.634-2.247-.904-3.245-5.075-4.625-6.89-4.492-.556-7.273-.418-10.585-3.81-.904-.925-3.27-5.646-4.55-3.623-.557.881 1.292 2.749-.704 2.404.75-4.216-4.74-4.366-3.837-8.637l2.64.954c1.22.405-2.77-11.705-4.904-12.37-.879-.273-1.821-.025-2.887-.472-1.2-.504-8.13-4.612-9-5.394-2.328-2.094-1.563-3.82-1.75-6.647-6.49-1.67-10.669-8.176-12.268-14.361-.611-2.364-.646-5.282-1.215-7.422-.49-1.843-12.937-18.98-14.502-20.044-.774-.526-1.706-.48-2.686-1.153-5.98-4.1-17.196-26.578-19.39-33.87-1.998-6.643-3.269-14.485-.692-21.062l2.129.43c1.604 1.891.02 2.881-.33 4.486-1.861 8.537 4.08 22.324 8.156 29.914.418.779 6.41 11.225 6.794 10.714.103-3.06-2.453-5.291-3.592-7.678-3.354-7.024-5.377-18.437-6.416-26.212-.266-1.984.219-4.145-.171-6.067-.286-1.41-1.71-2.82-2.147-4.091-1.498-4.355-3.175-8.593-4.434-12.84-1.496-5.046-2.544-13.668-4.579-17.973-.545-1.154-2.625-3.547-3.846-3.65l-1.082.408c-1.212 1.306-.778 8.942.36 10.69 1.241 1.904 5.075 4.042 5.87 5.646.615 1.242 2.26 5.746.072 6.082-.23.036-2.397-1.397-2.468-1.524-.293-.523-.004-1.496-.356-2.28-.483-1.077-3.939-4.428-4.948-6.094-1.929-3.183-2.975-5.553-2.369-9.396.38-2.415 2.706-5.374 2.794-7.32.13-2.854-2.42-5.223-2.397-8.072.024-2.93 2.405-3.617 3.572-6.07 3.446-7.245-2.025-14.13-4.1-20.863-1.994-6.47-3.437-13.622.477-19.693-5.555-2.463-4.608-7.28-2.308-11.92.565-1.14 2.372-2.062 1.795-3.827-.193-.593-6.13-4.193-7.251-7.176-.602-1.603-1.072-6.79 1.56-5.4 1.008.533 1.075 2.826 1.788 3.97 1.913 3.07 5.844 3.92 8.742 5.676.14.473-4.159 7.346-4.73 8.662-.897 2.071-2.338 4.62-.307 6.43 3.59 3.195 6.158-3.258 7.444-1.927.743 3.493-.763 3.2-2.109 4.844-7.985 9.752-3.36 15.415.298 25.517.766 2.115 1.238 3.421 1.946 5.732.497 1.623 1.704 3.18 1.747 4.981.045 1.916-3.137 6.781-4.35 8.536-.38.548-1.165.695-1.268.867-.71 1.18 2.138 5.87 3.025 7.1.412.094 4.02-4.436 4.964-1.604.51 1.528-1.285 5.346-1.39 7.586-.262 5.632 2.848 12.632 4.58 18.007 1.913 5.932 3.756 11.168 6.097 16.934 1.937 4.77 7.208 14.515 7.373 19.296.066 1.932-2.002 3.217-1.013 6.975 1.302 4.95 4.129 6.434 6.49 9.82 2.311 3.316-.117 3.679-.34 5.818-.05.475.314 3.613.456 4.144.384 1.433 2.213 2.608 2.985 3.732a609 609 0 0 0 5.52 7.915c.714 1.005 1.017 2.435 1.934 3.344 1.289 1.279 3.245 1.044 3.89 1.869.447.573 1.752 5.012 1.87 6.046 1.488.11 1.726-1.277 1.23-2.417l-9.79-17.605.65-1.568c2.259-.628 4.645 5.836 5.587 7.36 5.337 8.627 10.2 17.726 16.233 25.858 22.933 30.912 50.413 54.542 82.652 76.297 31.557 21.295 75.933 37.595 114.32 35.895 26.435-1.17 59.4-8.305 82.313-21.323 10.247-5.822 20.262-14.051 30.5-20.839 4.529-3.002 9.82-4.939 13.842-8.709 3.77-3.534 7.362-8.13 11.243-11.788 2.453-2.314 4.946-4.493 7.237-6.658.413-.39 5.22-3.703 4.294-1.485-.483 1.156-3.196 3.922-4.305 4.805l1.42 1.44c-1.113 1.034-2.732.814-4.001 1.745-.873.64-3.417 2.913-4.374 3.783-.37.336-5.41 5.046-2.899 4.3 2.887-.856 6.446-4.084 9.814-4.582 4.505-6.376 11.215-11.124 16.859-16.248l3.32-3.876c-1.884-.353-3.18 3.409-5.272 2.884 4.342-4.555 7.854-9.87 11.232-15.158 5.47-8.566 9.508-17.854 14.767-26.497 1.965-3.23 4.604-6.063 6.54-9.294 8.249-13.76 12.121-31.99 18.22-46.556.83-1.983 2.486-2.762 3.216-4.461 3.231-7.52 3.086-16.301 4.117-24.193.237-1.81 1.403-3.61 1.852-5.346 3.393-13.093 4.596-28.073 6.77-41.693.218-1.365 1.277-2.826 1.382-4.417.399-6.055.519-11.915 1.528-18.104.694-4.254 1.187-9.081 4.255-12.294-.458 2.258-.083 5.273-.507 7.41-.313 1.579-1.397 3.061-1.648 4.81-.188 1.312.261 3.9-.234 5.534 2.791-1.245 1.602-3.633 1.973-5.939.225-1.397.991-4.936 1.648-6.027 1.504-2.499 3.013.443 3.33.443.43 0 2.923-3.179 3.33-3.861 2.278-3.82 3.192-8.38 3.988-12.709-.167-.89-3.534-.644-4.928-1.647-.586-.422-2.63-3.75-2.617-4.092.082-2.28 4.153 2.377 5.14 2.571 2.835.558 3.083-3.771 3.426-5.984 1.504-9.683-.612-10.2-2.68-18.316-1.246-4.884-3.063-23.76-2.488-28.598.184-1.548 1.513-4.201 1.397-5.318-.083-.794-2.875-3.98-3.503-5.635-1.36-3.582.072-5.937-1.541-9.01-1.475 1.241-.249 2.976-.222 4.536.127 7.29.449 14.357.436 21.59-.017 10.213 1.468 22.306.499 32.168-.295 3.003-1.576 6.34-1.909 9.607-.47 4.617.457 9.761-1.453 14.147-1 .914-1.412-1.741-1.439-2.158-.747-11.623 2.78-23.896 2.401-35.983-.648-20.66.206-43.835-1.922-64.295-.774-7.442-2.963-15.226-4.26-22.61-.838-4.769-.9-11.014-2.089-15.67-.398-1.556-1.694-3.05-1.794-4.499-.113-1.64 1.364-2.58.975-4.16-.074-.302-3.923-3.367-4.337-4.418l.79-1.137c2.465-.776 4.586 2.061 6.242 2.746 1.966.813.671-3.128.41-3.77-1.218-2.996-8.726-6.133-10.26-8.932-.495-.905-2.979-7.334-2.968-8.11.01-.728.153-1.484.98-1.662 1.812 4.746 4.755 8.974 8.408 12.47 1.921 1.838 4.33 2.975 6.245 5.27 2.86 3.426 4.214 7.96 4.455 12.295 1.9 4.103 3.08 8.333 3.857 12.802-2.62 3.895-5.375-3.902-9.04-3.493m22.543 18.238c-.384-.372-5.788 2.397-6.41 2.94-1.57 1.366-2.61 4.426-5.062 5.53-.279.928 3.45 7.653 3.95 9.37.335 1.149.772 7.1 1.527 7.1 3.61-3.408 2.837-8.788 3.637-13.148.292-1.588 2.79-11.374 2.358-11.792m-6.72 30.23c-.793-.18-.972.254-1.428.723-.625.644-4.532 6.04-4.79 6.722-1.115 2.949.224 6.128 2.168 8.384 2.153.525 4.9-10.003 4.924-11.746.017-1.242-.728-2.809-.873-4.084m-3.82 20.158c-2.026 5.58-.45 11.36-.116 17.028.327 5.554.155 11.006 1.776 16.56.505 1.73 1.565 4.023 2.885 5.261.402.01 2.166-6.734 2.404-7.662 1.574-6.142 3.336-13.535 2.58-19.865-.514-4.318-4.84-11.036-9.53-11.322m6.218 58.054c-3.188.531-2.21 4.43-2.7 6.608-.52 2.314-1.271 5.272-2.217 7.42-1.088 2.47-9.63 14.169-8.505 15.72 1.57-1.065 4.254-2.207 4.792.477-3.912.038-4.595 4.905-5.963 7.715-.415.852-1.239 1.456-1.588 2.25-1.296 2.94-2.58 6.045-1.56 9.233 5.62-1.328 5.003-8.01 6.614-12.335 3.14-8.43 13.307-23.797 12.597-32.555-.157-1.933-1.015-2.806-1.47-4.533m-15.349 29.751h-.955l.003.71.717.725zm-6.72 27.348c.933-3.104 3.331-4.054.243-7.195-.936 1.888-1.481 4.382-1.198 6.484.088.652.287 1.452.955.711m6.483-2.399v.48q.466-.24 0-.48M19.407 460.17c-.906 0-.906 2.38 0 2.38s.906-2.38 0-2.38m478.584 20.864v11.036c0 .318.813 1.818 1.432 1.198 1.686-4.253 2.338-8.763-.47-12.722zm-3.354 6.96c-.481 5.04-2.395 9.792-2.652 14.872-.042.82-.598 1.22.489 1.91.295-.018 3.01-4.56 3.1-5.054.466-2.581-1.17-7.102-.462-10.056zm-2.408 18.229v-.955h-.47v.955zm-457.231 2.879-.235-1.435-.718.725-.002.71zm2.393 5.283c-1.065-.18-1.157.104-.863 1.106l2.309 4.166zm448.125 12.958-1.192.943-8.88 23.042c1.849.193 3.562-.287 4.42-2.052 1.764-3.63 3.005-13.091 4.05-17.542.362-1.542.804-3.018 1.602-4.391m-12.956 42.223c-4.08.126-7.754 5.189-9.465 8.524-.24.468-1.89 4.496-1.95 4.783-.327 1.6 1.152 2.215 2.244.788 1.053-1.375 1.996-4.582 3.214-6.381 1.894-2.796 5.205-4.508 5.957-7.714M66.516 572.11c-.159-.184-1.702-1.189-1.764-1.105-.23 3.063 1.983 6.12 3.836 8.394.634.778 1.548 1.077 2.107 1.731 3.18 3.718-.835 6.165.031 8.091.136.302 2.779 2.881 3.174 3.1 1.313.724 2.677.495 3.779 1.016.749.355 1.236 1.709 2.417 1.67-3.483 7.45 1.931 6.826 5.743 9.375 1.01.676 2.004 2.819 3.852 3.09.025-.84.061-1.693-.11-2.526-.614-3.008-4.594-6.534-6.277-9.102-4.44-6.776-6.96-9.788-11.84-15.963-1.673-2.116-3.23-5.782-4.948-7.77m381.098 28.64c.501.483 1.792-1.04 2.164-1.43 4.815-5.047 8.98-12.281 10.075-19.189-5.239 6.051-7.837 13.915-12.24 20.619m28.785-18.707c-3.965-.841-3.56 1.304-5.446 3.186-2.987 2.982-6.318 2.64-9.77 4.384-2.464 1.244-4.199 5.412-5.891 7.544-2.913 3.672-7.43 7.97-9.813 11.78-.47.752-.88 1.434-.74 2.374 6.162-5.192 12.212-10.675 19.183-14.875-.236 4.838-5.91 6.733-9.337 9.611-4.215 3.54-13.73 13.166-14.613 18.488-.115.693-.225 2.464.074 2.988 1.925 1.656 4.173.769 6.383.117 7.744-2.283 25.13-19.026 28.252-26.446.411-.977.334-2.097.735-3.104 1.663-4.177 3.685-5.997 2.794-10.924-.302-1.666-3.256-2.344-1.811-5.123m-407.337 2.882h-.954v.47h.954zM446.9 602.203l-.715.714.226.226c.265-.305.966-.625.489-.94m-8.88 10.542c.874.162 1.592-.527 1.434-1.435zm-18.715 23.039c-.391-.442-9.916 4.409-10.702 4.906-.942.596-2.389 2.473-3.458 3.26-.643.472-1.847.284-1.68 1.423l-.706-1.425c-3.04 1.648-3.926 5.142-6.731 6.703-1.498.833-3.515.447-4.322 1.433-.945 1.156.787.94.738 1.2-1.082 3.042-8.104 6.992-8.148 10.038-.036 2.463 3.135 1.987 4.917 1.622 5.005-1.026 24.929-16.115 27.788-20.672 1.5-2.39 2.629-5.665 2.304-8.488m-47.502 32.623c.644-1.38.154-2.528-.941-1.2l.473 1.2zm-2.395.486c-5.673 1.2-11.032 3.73-15.789 6.997-1.286.883-2.087 2.303-3.54 3.178-4.748 2.86-12.033 4.9-17.14 7.808-3.193 1.818-4.593 3.197.486 3.13l-.476 2.874c2.56.628 1.756-1.217 3.1-2.415 1.092-.974 4.352-1.598 5.788-2.847.902-.785.954-2.195 1.951-2.846 1.66-1.083 6.642-3.511 8.808-4.627 6.03-3.108 14.104-4.542 16.812-11.252m3.838 1.44c-.662-.761-4.361 4.22-5.025 4.805-1.096.967-3.972 2.882-5.171 3.482-3.324 1.665-9.177 3.021-12.047 5.21-.804.613-.931.772-.782 1.852.67.633 6.707-1.496 7.925-1.906 2.155-.725 10.811-3.769 11.926-4.867.783-.77 3.716-7.954 3.174-8.577m-24.227 15.352v.48q.468-.24 0-.48m-46.775 11.994c2.946-.597 5.923-1.203 8.838-1.952 1.95-.502 14.583-3.975 15.163-4.514.99-.92-.032-3.166-1.127-3.07-6.783 3.892-14.846 5.44-21.915 8.364-.757.313-1.181-.065-.96 1.172m27.815-4.313c-1.373-.098-1.179 1.302-2.43 2.118-2.33 1.519-5.89 1.015-6.513 3.682l-3.04.192c2.874 1.604 5.102 4.32 8.5 2.267.634-.383 4.106-4.716 4.257-5.389.321-1.429-.462-1.607-.774-2.87m8.645 1.44c-.895-.128-1.663-.003-1.92.95.896.129 1.663.004 1.92-.95m-41.263 4.789-.696-1.278-9.855 2.238c3.572.68 7.076.031 10.55-.96"/><path d="m333.428 36.947-.006 1.434c-.166.197-2.975-1.377-3.354.476 7.335 2.645 16.684 4.635 22.998 9.393.605.456 1.477 1.617.274 1.638-.54.009-8.038-4.034-9.713-4.674-29.695-11.34-66.122-16.02-97.723-13.99-23.947 1.538-46.052 8.638-68.666 16.738-12.118 4.34-22.234 10.595-32.724 17.896-.39 1.898-1.661 3.432-2.155 5.284-.128.48-.868 1.118.358.838 1.296-.296 6.619-5.056 8.232-6.165 10.954-7.534 25.048-13.409 37.258-18.878 2.794-1.251 12.512-5.296 14.993-5.65 1.582-.227 3.483-.076 3.562 1.89-1.537.28-3.329.687-4.789 1.212-10.65 3.835-21.706 8.42-32.007 13.095-29.105 13.21-53.284 41.666-75.182 63.962-11.688 11.9-28.59 36.682-36.837 51.449-13.253 23.73-18.059 46.567-23.66 72.785-4.202 19.666-6.576 35.764-8.398 55.9-2.09 23.089-3.12 46.38-4.343 69.55-.965 18.296 1.376 39.344 3.927 57.533 3.482 24.83 9.206 41.957 19.544 64.425 5.205 11.31 10.455 22.785 15.95 33.952 7.43 15.104 18.235 27.888 25.712 42.902 1.423 2.858 4.632 9.618 5.31 12.445a5 5 0 0 1 .103 1.57c-.822.159-1.235-.41-1.657-.978-1.473-1.984-3.497-8.559-4.969-11.345-3.48-6.585-9.613-17.068-14.074-22.871-.345-.448-.96-1.509-.888-.077 10.982 23.608 22.463 47.376 40.061 66.943l-.472 1.435-8.593-8.204c-19.965-24.356-29.434-55.226-43.89-82.78-2.68-5.108-5.726-9.422-8.31-14.243-.733-1.365-1.666-5.07-1.847-5.318-.654-.902-3.197-1.46-3.813-2.94-.694-1.665 4.839.256 4.308-1.423-2.21-4.21-4.867-8.56-6.794-12.882-12.31-27.607-19.407-64.382-21.022-94.616-.84-15.697 1.168-30.542 1.934-46.04.491-9.955-.103-20.405.464-30.245 1.058-18.333 3.12-41.987 6.936-59.76 2.861-13.331 5.757-27.132 9.107-40.316 12.894-50.74 55.414-102.566 93.594-137.198 1.9-1.724 4.806-3.337 6.657-5.338 3.56-3.849 1.74-7.817 6.765-11.948 7.24-5.951 24.913-14.864 33.834-18.464 10.032-4.047 20.728-5.655 29.708-12.035.446-.318 5.672-5.749 4.742-2.457-.918 3.246-4.826 2.164-5.666 5.127 1.476-.719 3.057-1.435 4.668-1.805 23.031-5.28 49.204-6.784 72.805-3.946 4.31.518 8.815 1.826 13.019 2.334 11.601 1.402 23.32 1.784 34.729 4.38m-4.803.479-.957.002.722.953zM426.506 327.243c.966.196 1.12-.462 1.535-1.099 2.42-3.707 3.199-8.906 6.617-13.055.861-1.044 5.226-5.39 5.284-1.94.016.954-5.136 7.534-6.021 9.36-2.706 5.583-3.336 12.218-7.886 17.056.892 1.428 1.211-.35 2.063-.17.43.09.75.935 1.287.684 1.079-.465 2.477-5.881 3.222-7.35.262-.516.766-.56 1.044-1 .509-.804 2.013-4.922 3.67-2.507 1.63 2.375-1.178 4.582-2.097 6.106-1.493 2.473-2.626 5.018-3.997 7.519-1.17 2.131-2.874 1.566-1.084 5.072 1.112 2.18 3.331 2.23 3.719 4.435.55 3.136-2.782 4.46-2.562 5.912l.964.498 1.916-1.683c-.951 2.751-.264 7.278.945 9.846 1.668 3.543 8.194 7.854 8.625 10.572.855 5.394-4.392 6.809-8.379 8.36-.746 3.537-1.1 7.837-4.875 9.505-3.255.566-4.264-7.474-5.237-9.452-1.708-3.47-6.058-7.121-6.796-11.434-.343-2.008.491-6.256 1.054-8.314.764-2.79 3.302-4.3 3.13-7.15l-3.818-.976c-.18.733.686 1.717.267 2.393-.126.203-3.217 2.78-3.658 3.093-1.23.872-2.778 1.25-4.047 2.19-3.972 2.943-9.816 10.962-14.132 12.258-3.624 1.088-11.06-.14-13.454-3.384 2.304.072 4.538 1.095 6.934 1.22 1.757.09 4.09.16 5.669-.607 3.721-3.267 7.252-6.905 11.154-9.958 2.063-1.615 9.24-5.043 8.868-7.917-.188-1.445-1.663.293-2.106.207-1.951-.974-.627-2.133-.774-3.532-.042-.396-1.237-3.796-1.408-3.915-.651-.452-2.14-.056-3.045-.313-6.063-1.717-15.301-3.334-20.023-7.326-3.78-3.196-6.44-7.923-6.253-12.978.16-4.325 1.495-19.29 3.601-22.315 2.302-3.306 5.955-4.568 9.855-4.304-4.175-3.277 1.173-4.897 3.957-6.254.269-.131.35-.73.733-.907 7.936-3.68 19.124 8.64 22.27 14.99 2.695 5.442 4.144 12.597 3.269 18.564m-3.366 3.839c1.472-11.874-.899-24.614-10.79-32.146-3.354-2.554-6.907-4.575-11.274-3.837l1.268 3.32 5.925-.92c.233 1.466-.914 2.29-2.057 2.975-6.497 3.89-15.353.364-17.966 9.383-1.178 4.063-2.772 14.983-2.515 19.063.372 5.905 3.9 9.28 9.116 11.512 3.265 1.397 11.267 3.55 14.752 3.97 3.636.44 3.223-1.407 5.129-3.742.915-1.12 1.967-.618 2.21-2.588.638-5.19-.796-10.214-2.966-14.848-1.403-2.995-3.825-3.665-2.5-7.896 1.251-3.996 5.51-.682 3.25 2.345 2.56 5.306 5.482 11.263 5.549 17.248l.466-2.147c-.471-2.143-.628-4.37-1.185-6.494-.443-1.693-3.448-7.91-2.91-8.65l1.464-.491.959.514zm2.894 17.756c2.03-.626 1.032-4.636.21-5.739-.286-.385-4.83-2.27-5.379-2.35-3.139-.457-2.867 6.879-4.447 8.855 1.366 4.986 6.403 5.614 8.646.679l-2.674-.45c-1.091-3.151 2.847-3.848 3.644-.995m10.632 29.395c.457-.64 2.64-.366 3.547-1.046 2.425-1.816-3.013-4.857-4.111-6.039-1.386-1.491-3.191-4.164-4.073-6.003-.743-1.55-1.858-7.435-4.266-6.683-.26.081-3.483 3.47-3.757 3.954-3.505 6.188 2.489 8.636 6.342 12.087 1.381 1.236 3.681 4.565 5.13 4.948 1.808.48.729-.573 1.188-1.218m-13.836-5.575c-.392-.36-.455-1.223-1.12-1.267-.093 4.858 4.47 8.536 6.427 12.521.517 1.054 1.038 5.07 2.438 4.751.672-.153 1.553-2.881 1.646-3.641.75-6.157-5.637-8.93-9.39-12.364"/><path d="m284.492 15.35 1.526-1.833c.454-.265 4.74.686 5.079.978.445.384.31 1.556.734 2.15 1.984 2.792 4.279-.236 6.112.852l-.017 2.172c1.812-1.87 2.463-.234 4.097-.02 3.46.45 6.189.832 9.61 1.423 2.034.352 3.888-.606 5.73.987.705.61 1.072 2.106 2.006 2.353.895.237 1.637-.406 2.33-.377.968.04 2.355 1.761 3.561.682-.824-.937-.226-2.341-.543-3.31-.216-.663-1.144-.678-1.257-.86-.99-1.588 1.657-2.043 2.98-1.844 2.11.318 1.283 2.225 2.016 2.93.76.732 6.822 1.67 8.588 2.334 4.178 1.57 7.56 4.987 12.532 5.144 3.904.123 2.462-6.302 5.93-7.752 6.449-2.698 15.964 7.885 20.66 11.466 5.636 4.297 10.582 6.193 16.218 9.691 3.671 2.279 6.979 5.586 11.4 7.312 1.801.703 6.222 1.191 6.885 1.769.551.48.509 2.026 1.922 2.384-2.464 2.849-.833 2.852-.132 5.405.386 1.406.48 2.99.989 4.29.915 2.34 4.13 4.255 2.981 6.853 2.195-.597 3.149.729 4.684 1.33.597.233 1.792-.036 1.995.15.096.089.487 2.438.458 2.565-.374 1.65-4.824.453-6.037-.104-6.997-3.21-12.547-5.251-17.728-11.78-2.297-2.893-3.615-6.753-5.948-9.647-5.942-1.203-11.28-2.459-16.64-5.409-2.185-1.203-6.479-5.002-8.738-5.677-1.883-.563-6.029.475-5.779-2.614l1.436-.475c-1.781-.867-3.864.37-5.416-.09-1.32-.392-3.257-3.489-5.502-3.669-1.21-.097-1.614.664-2.39.797-1.543.264-3.204-1.926-4.742-2.743-3.646-1.939-7.729-2.685-11.46-4.374-.942 1.132 1.072 1.19 1.205 1.682.449 1.652-3.27.19-3.791-.055-2.91-1.37-2.792-2.674-7.015-3.061-9.455-.867-17.865 3.124-27.047-2.22-1.571-.914-8.372-6.852-8.931-6.936-3.185-.476-6.088 5.518-10.558 5.817-2.43.163-2.89-1.321-3.346-1.35-.406-.025-1.026.808-1.843.743-.636-.05-1.523-.879-2.34-1.01-1.256-.2-2.878-.006-4.219-.334.167 1.093.08 3.439-1.676 2.878-1.08-.344-.41-4.681-2.46-5.249-1.435-.036-2.724 2.982-3.163 3.265-.272.175-.914-.428-1.598.013-1.624 1.05-1.702 4.721-3.414.505-2.084-.281-3.677 1.459-5.675 1.472-4.11.026-7.502-2.776-11.963-2.362-5.106.475-10.233 1.479-15.452 2.3-3.775.594-11.024-.737-9.778 5.34-3.844-1.422-5.579 1.013-8.637 2.155-2.837 1.059-9.384 3.306-12.132 2.54-.518-.145-1.736-1.08-.827-1.585 5.734-.727 10.958-2.262 15.988-5.124 1.739-.99 6.755-5.14 7.946-5.42 1.431-.34 2.813 1.175 4.115 1.218 2.28.074 6.666-1.799 9.36-2.207.896-.136 1.725.35 2.58.225 4.816-.702 9.637-1.543 14.442-2.307.914.183.46 2.043 1.502 2.797.716.518 2.882.73 3.712.52.404-.102.63-1.26 1.635-1.83 3.133-1.781 6.947-.404 10.48-3.915.819-.813.737-2.357 1.962-2.842 1.752-.694 1.283 2.442 2.876 2.751l3.464-1.914c1.059-1.854-4.184-3.51-5.206-4.499-.045-.096 1.584-1.06 1.806-1.108 1.125-.237 8.176 3.112 10.087 3.61.744.194 5.374 1.35 4.662-.34-.138-.329-4.256-4.111-5.05-5.033-.53-.615-.798-1.865-1.06-2.058-.26-.19-4.41-.88-4.946-.837-.665.053-7.356 3.25-8.404 3.824-6.632 3.636-8.137 4.8-15.798 7.233-2.184.694-5.64 3.778-6.725-.248 7.497-1.064 14.552-4.204 21.08-7.949.949-.544 2.235-.683 3.086-1.23 2.165-1.394 2.442-4.41 3.203-6.64.351-.248 6.998 2.879 7.82 3.413 1.174.761 1.907 2.034 2.95 2.808 3.292 2.44 7.726 4.036 6.963 9.116m-.487.962c-3.39 1.276-6.604-1.601-10.199-1.365l-5.15 4c5.42 2.571 12.898 4.64 15.349-2.635m12.474 1.92h-.954v.955h.954zm18.712 5.747c.143-.666-.054-.785-.49-1.178-.797-.719-9.963-2.067-11.562-2.044-4.838.072-2.01 3.68 2.28 4.129.954.1 7.18.502 7.557.428.63-.125 1.252-1.427 2.215-1.335m52.61 4.497c-1.517-1.258-6.875-5.616-8.593-5.366-1.195.174-5.518 2.9-4.196 4.234l2.393.723c-1.663 1.294-3.51 2.774-5.746 2.641-1.482 1.387 7.618 4.53 8.327 4.863 1.25.588 4.538 3.005 5.412 3.154 2.082.355 4.867-2.244 7.369-.818l-1.87 3.118c.008 1.474 11.468 6.574 13.383 7.197.937.305 1.937.204 2.895.463 1.611.437 3.009 1.904 5.262 1.211-.54-6.298-5.893-6.846-10.327-9.58-5.567-3.433-9.472-7.829-14.309-11.84m-29.818-1.13v.48q.468-.24 0-.48m75.082 41.267c-.631-2.722-2.784-4.375-3.728-7.064-.61-1.737-.843-5.69-1.508-6.649-1.23-1.77-4.633-.943-6.49-1.187-1.088-.143-1.939-1.151-3.14-.932 2.204 7.23 8.125 12.688 14.866 15.832M62.823 289.34c-1.668.46-5.057-2.745-5.581-2.831-.542-.09-1.155.808-1.886.92-1.37.21-3.924-.75-6.161-.445-2.711.369-7.198 3.481-6.99 6.371.121 1.667 1.482 3.29 1.449 5.318-.101 6.192-2.974 10.518-3.74 15.492-.39 2.534 1.263 7.475 2.395 9.85 1.716 3.602 10.367 9.6 4.218 12.583-.072.626 5.179 5.496 5.966 6.501 1.885 2.405 3.027 4.933 5.79 7.166 3.986 3.218 5.312 1.796 9.524 2.47 7.187 1.15 13.228 2.382 20.714 2.362 1.957-.005 3.858-1.326 5.254.45 1.172-.809.51-2.278.828-3.48.978-3.7 9.994-15.475 13.458-16.77 1.283-.479 2.373-.441 3.702-.371.294 2.187-2.253 2.652-3.585 3.846-3.395 3.043-9.834 9.573-10.328 14.144-.294 2.728.288 5.844-.037 8.6-.304 2.583-3.052 7.379-2.112 9.387.111.238 2.68 4.145 2.858 4.34.547.598 3.587 2.352 4.377 2.393 1.869.098 1.64-1.736 2.563-2.166 2.147-1 4.207 4.036.293 4.578-6.67.923-10.504-4.308-12.723-9.814-.13-.577-.633-.334-.982-.05-.361.293-3.385 5.114-3.748 5.849-2.768 5.606-5.692 21.044-4.756 27.142.491 3.198 3.576 6.423 6.153 8.241 3.444 2.429 13.196 5.041 14.569 8.463.461 1.15.34 2.56.843 3.955 2.33 6.451 9.667 11.312 16.188 12.6 2.305.454 10.566.4 11.548.927 1.577.847-3.01 2.044-3.647 2.126-4.907.635-14.294-1.813-18.575-4.374-3.263-1.952-6.93-6.805-8.432-10.28-1.163-2.694-.846-6.373-4.243-7.274-3.194-.847-5.623-1.657-8.555-3.44-3.35-2.037-7.059-4.644-8.239-8.554-2.252-7.462 1.795-25.526 5.682-32.437 2.053-3.651 5.378-6.226 6.659-10.37-4.286-.4-7.428 2.255-11.751 1.91-6.826-.544-11.49-4.72-16.883-8.066-9.2-5.709-15.248-8.757-22.212-17.612-1.221-1.553-6.005-6.345-2.067-7.363 1.184-.306 2.337 1.445 3.492.66-1.199-1.451-2.418-3.244-3.216-4.941-1.94-4.128-3.898-9.177-3.44-13.717.372-3.677 4.993-13.027 2.366-15.922-.97-1.069-3.552-.773-2.663-3.06.956-2.457 5.901-7.91 8.406-8.897 2.473-.975 10.496-2.038 12.861-1.365 2.142.61 5.835 2.203 4.396 4.955m6.725 68.606c4.234 2.113 7.288 4.1 12.23 4.055 2.232-.02 12.739-1.617 12.733-4.281l-.768-1.19c-7.77 2.843-16.023 2.03-23.953.46zM297.918 475.034l-1.911-.48c-2.162 5.567-3.226 11.402-2.904 17.536.407 7.735 4.386 14.348 5.65 21.7.086.495 1.161 5.83-.355 4.679-1.346-2.083-1.266-4.769-2.071-7.05-1.286-3.644-3.571-7.297-4.779-11.056-.874-2.72-1.121-6.126-1.867-8.69-.75-2.578-2.354 2.598-2.354 3.757-.003 4.378 1.846 9.677 1.862 14.394.016 5.021-1.406 10.389-1.82 15.358-1.031 12.39 1.725 18.356 2.87 29.752.83 8.256.169 16.47 1.745 24.603 1.003 5.173 2.644 11.959 4.153 17.003 2.826 9.443 8.638 19.207 10.758 28.588 2.253 9.965-4.263 11.039-10.42 16.645-4.239 3.86-7.964 8.894-11.967 12.503-.743.67-1.826.72-2.442 1.396-.998 1.093-4.13 9.214-4.228 10.676-.116 1.744 3.705.697 2.808 3.01-2.588.998-6.588.028-7.476-2.85-.691-2.238.842-2.477 1.156-3.738.753-3.024-4.33-10.416-5.703-13.28-.28-.584-.62-.987-.446-1.71 1.638-.235 3.28.973 4.311 2.162 1.939 2.235 1.704 6.586 3.611 9.342l.506.478c2.85.904 4.34-7.391 5.471-8.878 1.184-1.554 5.677-4.17 7.468-5.966 2.789-2.796 5.469-7.21 8.359-9.875 1.99-1.834 5.117-2.53 6.118-5.392 1.17-3.342-.158-3.41-1.056-5.872-5.4-14.815-11.145-29.382-14.04-44.978-1.982-10.678-.6-22.915-2.56-32.948-.454-2.327-1.806-4.155-1.91-6.755-.587-14.584-.733-30.013.04-44.621.206-3.869 2.255-14.714 4.106-17.966.449-.79 3.158-3.555 4.042-2.911l.245 1.443c4.74-1.567-.34-10.697 2.143-12.269.507-.32.961-.316 1.46.008 1.92.996.345 9.807 1.427 12.252m-8.638 15.354v-.955h-.47v.955zM32.742 211.46c.872.81 2.324.28 2.307 2.303-.012 1.358-3.216 6.023-4.613 5.883l-1.08-1.08c1.419-1.528 3.802-6.755-.118-5.797-3.25.793-11.734 9.342-13.63 12.31-.922 1.444-2.77 5.174-2.59 6.79.234 2.098 3.05 5.462 5.18 4.45.766-.363 4.411-4.51 5.285-3.599.694 2.535-2.882 3.72-3.61 5.305-.317.69.148 1.325-.18 2.157-1.019 2.593-5.448 4.061-7.002 9.81-3.184 11.777 2.494 16.15 5.264 25.924.905 3.19.87 6.395-.611 9.44-.764 1.57-3.238 3.786-3.718 5.398-.571 1.917-.225 4.728-.927 6.75-.652 1.229-2.702-2.242-3.434-2.37-3.304 1.572-3.548 6.053-4.737 9.074-1.174 2.982-5.368 6.933.505 7.221 2.611.128 4.546-1.81 6.671-1.463 4.33.71.61 6.998.306 9.402-.656 5.186-.045 9.225 4.276 12.443l-.793 1.144c-.64.166-1.512-.79-2.084.297.923 2.265.885 4.765.996 7.206.044.97-.486 2.13-.38 2.794.155.972 2.05 2.067 1.785 3.418-.266 1.35-1.525-.135-2.109-.21-1.291.239-6.092 10.84-3.399 12.457 1.712-.872 3.202-2.368 5.046-.64l-.98 13.352-1.206 1.22c-3.395-.012-.194-9.521-.713-11.533-6.744.133-5.697-6.888-4.074-11.515 1.118-3.186 3.565-5.112 4.012-8.935.827-7.064-5.72-12.49-4.611-19.503.067-.427.204-1.442.831-1.312.372 1.094-.932 4.66.962 4.313.307-2.032-.602-4.33-.182-6.291.407-1.9 1.844-3.236 1.619-5.222-5.449 3.197-12.88 2.613-10.575-5.546.692-2.447 3.63-10.452 4.903-12.368 2.667-4.015 8.047-5.953 9.867-10.764.503-1.33 1.155-5.204 1.113-6.576-.045-1.499-2.425-7.902-3.348-9.074-.44-.557-.91-.249-1.473-.3l-.066 6.899-.891 4.138c.383-3.469-2.064-6.4-3.023-9.216-2.175-6.39-3.637-17.892-2.695-24.567.559-3.96 6.728-6.026 7.111-7.317.292-.984-1.164-2.543-1.366-3.79-1.1-6.775 5.893-14.437 10.517-18.694 1.192-1.098 6.595-5.755 7.7-6.216 2.755-1.15 2.774.896 3.962 2M9.566 268.223c1.332-6.492-.718-12.982.03-19.409.248-1.02 7.146-6.557 4.009-7.44-2.064-.581-5.453 3.824-5.75 5.709-.24 1.51.671 4.004.656 5.547-.037 3.86-1.388 8.127-.266 12.364z"/><path d="M306.073 460.64c.193 1.949.799 4.08.958 6.005 1.453 17.576 1.4 33.765.481 51.331-.123 2.354-.901 5.32-.974 7.663-.11 3.509 1.025 7.299-.107 10.45-.44 1.225-3.11 5.786-3.222 6.374-2.389 12.496-.7 33.58 6.496 44.346 1.703 2.549 4.567 4.598 6.431 7.007.332 1.005-1.962.706-2.61 2.148-2.213 4.92 4.944 7.039 5.51 11.271.133 1.003-.648.909-1.204.727-.732-.239-1.753-4.879-3.83-4.328-.727.192-.549 3.95-1.097 5.15-.448.98-1.556 1.735-2.276 2.524-1.333.296-1.644-3.502-1.576-4.42.075-1.016 1.886-8.962 2.251-9.784.477-1.074 1.193-1.133 1.919-1.856-.824-2.499-3.307-3.979-4.726-5.902-13.336-18.077-8.357-36.156-8.476-56.889-.063-11.139.197-22.524-.175-33.674-.126-3.758-.885-10.037-.492-13.441.105-.905.257-1.743.955-2.4l1.96-.018c.847.597.1 2.076.303 3.047.168.799 1.722 5.368 2.063 5.627l.963-.494c-.15-.607-.529-1.295-.484-1.913.36-4.945-.239-9.52-.473-14.4-.16-3.327-.848-9.582-.506-12.496.165-1.406.392-1.84 1.938-1.655M327.663 198.17l.213-2.431c3.029-2.343 4.397 2.093 5.382 2.376 2.452.704 4.558-3.082 8.962-.345 5.312 3.3 5.046 7.14 8.214 10.5 1.817 1.927 5.35 2.185 4.584 6.211 4.807-1.25-1.923-4.527.797-7.235 2.19-.444 4.355-.898 6.503-1.534 4.3-1.273 4.79-2.6 10.166-1.261 3.866.962 3.346 3.173-.674 3.073 1.527 1.829 3.842 3.445 5.275 5.28 3.352 4.294 13.256 26.4 14.664 31.9 1.185 4.63-4.56-.065-5.744-1.953-.793-1.263-1.464-3.714-1.981-5.217-1.998-5.804-5.4-16.644-8.651-21.577-4.272-6.481-8.832-8.674-15.095-2.688-1.152 1.102-3.652 5.225-4.64 5.48-2.39.615-2.04-4.886-5.75-3.42-1.952.77-2.139 2.232-3.519 3.234.013 1.25 8.455 6.875.973 4.08l-.008 2.397c-1.598-.274-3.481-4.562-4.146-4.759-1.59-.47-2.65 1.712-3.554 2.135-.582.272-2.578.03-3.502.683l-3.144-4.596c-.223-1.028 1.292-.635 1.427-1.84.266-2.384-1.612-.07-1.945-1.464-.518-2.176 1.578-1.225 2.41-1.413 2.928-.664 4.55-1.54 7.672-.509.938.31 1.35 1.322 2.388 1.202-1.547-1.869-3.348-4.537-6.142-3.984-1.585.314-4.556 3.078-4.671-.342 4.564-6.352 10.55-2.439 13.001 3.359 1.418-.582 3.257-.658 2.517-2.523-1.544-1.149-7.412-8.587-8.404-8.884-1.81-.543-3.483.578-5.182.429-1.226-.108-1.863-1.168-3.111-1.003l-.006 4.794-4.333-.7c-1.792-4.01-4.55-7.506-7.652-10.58-1.233-1.222-4.52-4.198-5.87-5.153-1.4-.992-7.927-3.53-8.061-3.958-.075-.24-.168-1.237.285-1.206 7.385-.998 15.682 8.554 20.352 13.441M344.412 593.026c-1.902.111-3.727.45-5.223-.909.193 3.517-2.675 4.294-3.87 6.452-3.84 6.942-8.043 16.947-10.555 24.472-.263.788-.356 1.396-1.412 1.222 1.19-9.72 7.376-18.393 10.556-27.613-.02-3.49-6.513 2.287-7.947.284-.96-4.308 8.267-4.624 8.892-7.949.21-1.12.136-4.029-.03-5.223-.263-1.876-1.446-2.832-1.76-3.999-.634-2.354-1.49-6.202-1.918-8.638-.405-2.3-2.041-9.44 1.967-7.354 1.068.806 4.116 17.766 4.575 20.484.39 2.315-.612 5.119 1.736 6.892.369-.006 2.327-4.435 2.515-5.152 1.045-4.007 2.02-11.86 2.517-16.196 1.871-16.325-.864-36.984-6.377-52.632-4.014-11.393-6.549-23.163-9.592-35.032-.243-.948-.819-2.719-1.204-3.595-1.266-2.884-9.684-12.083-2.155-12.549 1.527-.095.993 2.575 1.325 3.783.368 1.34 1.599 2.162 2.047 3.23 6.585 15.688 11.378 36.167 15.248 52.888 5.023 21.7 5.079 41.515 1.637 63.548-.19 1.213-.891 2.333-.972 3.586"/><path d="M420.1 243.107c-2.665 2.477-8.15 2.712-11.507 5.046-3.04 2.113-6.172 6.79-9.198 9.035-3.97 2.946-9.12 2.947-13.667 1.195-2.25-.868-7.804-6.219-9.354-5.992-1.014.624-.304 1.98-.102 2.975 1.116 5.508 6.316 18.57 3.152 23.115-.95 1.364-4.303 2.643-5.92 3.198-2.012.69-6.281 1.19-7.643 1.952-1.648.923-3.008 4.729-4.343 6.212-2.51 2.789-9.291 5.485-12.985 4.776-.911-.174-2.066-1.784-2.156-2.67-.24-2.39 5.07-6.442 6.52-8.33l1.19.244.451 5.476c5.738.785 6.093-5.334 8.652-7.42 2.832-2.307 13.589-2.824 14.264-6.314.278-1.438-1.45-3.598-1.702-4.846-.488-2.41-.119-6.009-.615-8.502-.312-1.572-1.315-3.23-1.676-5.042-1.177-5.909-2.033-15.446-6.24-20.15-1.514-1.691-4.19-2.241-4.95-4.66l.671-1.129c4.3 1.316 7.038 4.375 8.95 8.315 1.45 2.988 1.25 5.357 3.75 7.766 3.712 3.576 8.993 8.685 14.21 9.298 6.736.79 7.56-2.922 11.975-6.641 1.387-1.168 3.108-2.924 4.541-4.085 2.965-2.4 8.616-4.286 12.12-5.986 1.317-1.378.873-3.307.213-4.943-4.764-11.821-13.713-21.888-26.635-24.702-3.408-.742-6.844-.604-10.18-1.097 1.194-3.774 8.418-1.891 11.513-1.196 10.066 2.259 16.91 7.273 22.661 15.723 3.285 4.827 9.42 14.38 4.04 19.38m-68.925 48.153h-.955v.955h.955zM176.054 147.304l-4.087-4.305-5.026-2.406 1.234 2.376c.295 1.268-1.49 1.005-2.222.769-.333-.108-3.512-2.56-3.302-.548.388 3.734 2.327 4.811 3.75 7.774.746 1.553 2.267 7.653 2.92 8.117.483.343.928.223 1.456.223-.217-1.672.9-6.63 3.348-5.533 3.16 1.415.176 6.952-1.032 9.046-.987 1.71-2.544 4.608-4.698 4.185-.545 2.453 2.654 2.847 3.562 5.277.53 1.42.039 4.031 2.446 4.313.21.025 3.944-.086 4.18-.122 1.514-.232 5.603-2.402 6.249-2.228l1.196 1.131-.855 1.676c6.068 1.33 2.748 5.124-.899 7.027-.055 1.726-.175 3.509-.078 5.233.117 2.086 2.218 6.332-1.366 5.438-.78-2.696-1.878-5.182-1.499-8.092-1.525-.253-1.935 1.944-2.775 2.397-.189.102-3.964.929-4.178.929-1.433 0-4.133-2.76-5.512-3.14-.835-.23-1.423.212-2.088.12-.624-.087-1.197-1.116-2.234-.305l-.117-3.487-1.8-4.67c.035 2.94-2.615 3.55-1.911 6.942.193.932 1.065 1.222.944 2.17-1.48.274-1.083-2.129-2.63-1.432-.578.26-2.045 5.119-2.07 5.987-.072 2.633 1.098 10.184 4.712 6.124 1.819-2.043 2.447-6.239 5.503-6.373 1.226-.054.833 2.698.693 3.583-.55 3.485-2.479 1.412-3.325 1.919-1.744 1.044-4.715 9.088-7.57 2.8-1.846-4.066-1.726-8.367-.865-12.643.193-.956 1.047-1.705 1.21-2.629.3-1.698-.4-3.713.379-5.38.785-1.679 4.616-2.546 4.701-5.415l1.93.496c-.867 1.79 2.135 8.175 3.58 8.878.603.293 1.234.35 1.884.221 1.608-3.934 1.726-6.102.022-10.054-1.762 1.258-5.251-.733-5.267-2.676-.012-1.515 1.854-3.784 2.503-5.138.336-.7.194-1.638.508-2.129.186-.29 1.014-.313 1.224-.906 1.542-4.346-5.87-12.313-9.278-14.569l-1.432 1.426c-1.84-1.256-.832-4.063-3.726-3.735-.952.108-4.837 1.93-5.62 2.558-2.103 1.691-2.71 5.49-2.302 8.027.209 1.304 4.951 9.176 1.13 7.987-2.26-.704-4.21-11.375-3.431-13.9.72-2.33 7.489-7.144 9.747-7.564 1.773-.33 3.51.88 5.531.288 2.42-.708 3.132-4.557 4.922-4.71 1.062-.09 1.697.757 2.438.84 1.001.11 2.276-.582 3.752-.325 2.757.48 6.004 5.3 5.54 8.137m5.757 35.993h-1.434c.008 1.76 1.427 1.76 1.434 0m-2.4.96c-1.02-.301-1.833-.51-2.81.067l-.062 1.847c1.344.203 2.9-.316 2.873-1.914M91.615 93.09c.65.759-2.46 3.828-3.08 4.832-2.388 3.868-4.064 7.436-1.297 11.652l-2.375 1.557c.802 3.753.176 9.982-2.162 13.105-.9 1.203-2.99 1.473-4.17 3.028-1.638 2.162-1.66 5.617-2.964 8.072-.297.558-3.974 5.822-4.246 6.074-.526.486-2.837 1.216-3.693 1.095-1.16-1.19 4.51-7.344 5.37-8.779.54-.9 1.403-2.581 1.74-3.544.142-.409.967-1.473-.153-1.577-1.794-.166-1.236 2.691-1.624 3.6-1.052 2.467-3.951 3.951-5.102 6.46-1.768.867.627-3.446.244-3.832-1.868.074-3.505.926-4.342 2.61-1.048 2.11-2.802 10.802-2.362 12.976.238 1.175 2.368 2.934 3.475 2.191.367-.246 4.697-5.347 5.157-6.017.679-.988.666-2.316 1.672-3.116 1.816 1.319 1.262 2.493.337 4.168-.694 1.255-6.906 9.332-7.78 9.97-1.535 1.122-4.433 2.038-6 3.6l-.232-1.43c-1.094-.249-1.74.772-2.658.936-1.16.209-2.323-.161-3.602.234-.283.087-4.35 3.345-4.567 3.594-1.085 1.25-3.836 11.02-3.938 12.892-.044.809.546 4.544 1.327 3.933-.15-2.242 1.91-2.1 2.657-2.866 1.385-1.422 4.34-5.495 5.234-7.24.877-1.713.914-4.849 2.912-6.205l-1.093 7.064c-1.548 3.138-7.331 12.435-10.947 12.618-1.939.098-1.952-2.267-3.295-3.253-4.089.753-8.576 5.089-6.725 9.47 1.516 3.588 8.309.203 7.195 4.82l-8.282-1.096c-4.769-8.02.966-13.905 8.778-15.684 1.223-12.484 8.26-23.833 18.21-31.211.31-2.648-.457-4.916.467-7.69 1.123-3.372 5.486-4.424 4.564-8.632.223-.236 4.588.42 5.92-.438.238-.154 2.693-4.228 2.976-4.82 1.91-3.991 2.073-8.198 1.887-12.508 1.265-1.906 2.02 1.904 2.116 2.71.285 2.363.158 5.09-.421 7.378 4.008-.095 6.46-6.266 5.748-9.828-.186-.931-.847-1.128-1.15-1.727-1.254-2.48-.355-3.03-4.326-1.939-3.473-5.62 1.284-12.204 6.287-15.21 2.327-1.397 5.669-3.015 8.313-1.998m-4.8 3.356c-3.42-.151-10.736 8.266-8.165 10.807.434.43 5.103 1.873 5.285 1.664-.774-5.04.91-8.138 2.88-12.471m-27.832 55.18c-.933-.849-6.542 3.803-5.748 5.756 3.044-.747 8.737 1.766 9.11-2.877-1.801.862-3.346-1.223-3.362-2.88M241.785 516.785c-.998 2.417.654 4.556.965 6.95.787 6.065.274 13.497.465 19.7.103 3.338 1.935 6.642-.709 9.325-.8.004-2.23-4.368-2.425-5.242-1.317-5.889.207-12.399-.19-18.523-.122-1.87-1.501-9.311-2.4-10.585-.616-.872-1.877-.184-2.834-.122l-1.034 36.154c-.323 2.034-.639 3.936-1.296 5.9-3.203 9.57-4.075-.515-5.646-2.782-.898-1.296-.763 1.493-2.404.976l-.599-1.314 1.793-21.724c-1.278-.266-.824.33-1.19.945-1.77 2.979-2.268 5.972-2.639 9.375-.205 1.886.95 5.84-1.443 5.99.06-.597-.284-1.194-.297-1.756-.145-6.116 1.902-12.052 3.021-17.827 1.194-6.156 1.29-12.964 4.77-18.295 1.266-.37 1.782 1.26 2.404 1.37.725.126 2.182-2.032 4.188-1.349 1.35.46.17 2.67 1.593 3.223 2.287.887 3.647-.577 5.907-.389m-12.995 7.156c3.795-9.937-1.773-10.176-1.395.04zm1.957 3.875v-.955h-.47v.955zm-.48 1.44v-.956h-.47v.955zm.005 17.036c-.176 2.444.127 4.987 0 7.437.746.063.814-1.207.91-1.728.435-2.388.58-6.562.553-9.056-.011-.986.284-1.409-.98-1.21.463 1.57-.4 3.39-.483 4.557M213.24 705.358c-5.08-1.053-12.508-8.552-16.87-11.44-3.412-2.258-7.581-2.606-8.796-7.272 2.942.234 5.487 1.754 8.26 2.534 1.147.323 2.283-.381 3.695.624 1.644 1.171 1.14 2.822 1.586 4.168.402 1.213 9.682 7.838 11.299 8.372 2.902.96 11.542.536 12.573-2.993.248-1.225-1.981-.603-2.998-.825-1.5-.328-6.433-1.748-7.067-3.01-.105-.804-.034-.769.72-.727 2.614.144 6.917 1.947 9.619 2.385 1.775.288 3.749-.209 5.616.142 2.661.5 5.285 2.691 8.856 2.622 1.499-.03 2.094-1.828 4.111-1.22 1.64.495.988 2.43 1.588 2.856 1.235.88 5.706.907 7.389 1.87-.182.832-.923.969-1.658.976-3.617.035-8.43-2.006-12.418-1.906-8.299.206-12.667 3.616-19.522 5.95-9.034 3.073-25.947-4.162-32.8-10.354-5.48-4.952-9.097-13.39-13.706-17.963-1.882-1.866-5.354-3.773-7.458-5.496-2.036-1.669-8.12-6.3-9.35-7.922-1.556-2.051-1.32-2.781-.955-5.199l1.192-.328c.701 2.087 2.333 2.716 3.622 4.066 2.081 2.179 3.368 4.688 6.348 6.126.959.463 2.037.222 3.016.823.273.168 3.665 3.805 4.364 4.515 2.76 2.798 4.052 5.02 6.129 8.023 1.119 1.617 4.246 2.85 5.124 4.032.6.806-.106 1.437.184 2.152 3.17 7.817 21.129 17.073 29.26 16.378 1.04-.09 1.652-.675 2.483-.826 1-.181 2.902.543 3.52-1.133-2.059-.287-5.05.396-6.956 0m14.633-3.843 2.869-1.195c-.833-1.37-2.49.382-2.869 1.195M377.738 143.292c1.559 1.225 4.095 2.128 6.07 3.768 2.942 2.443 7.958 7.883 7.657 11.948-.31 2.66-3.278 9.86-2.866 12.04.278 1.476 1.833-.44 2.603-.749.762-.306 2.243-.29 2.579-.532.603-.435.085-2.287 1.052-2.305l-.47 4.067 1.43.25c.677 6.58.504 12.283-1.205 18.703-1.581 5.936-4.148 11.997-9.592 15.342-3.674-3.995 1.865-6.323 3.814-9.125 2.44-3.508 4.249-14.201 3.597-18.411-.49-3.165-1.625-1.595-3.082-1.717-7.5-.625-4.506-7.603-3.382-12.489.582-2.528 2.083-4.827 1.673-7.39-.765-4.778-11.425-11.254-15.078-14.195-3.813-3.07-6.764-7.104-11.329-9.302-6.062-2.92-11.83-.995-18.212-2.42-4.224-.942-6.976-3.387-10.533-4.82-3.068-1.236-6.629-1.48-9.59-3.126-.017-.787 1.646-.972 2.146-.958 7.129.19 13.002 5.494 19.795 6.607 3.694.605 8.187.23 11.874.6 7.92.794 15.093 9.534 21.049 14.214M130.838 279.861c1.629 1.863-1.99 7.365 2.02 8.78 3.356 1.184 2.519-4.284 5.77-4.101l.967 5.756c2.325-.626 2.843-2.99 4.943-4.41 2.951-1.994 7.801-3.894 11.365-4.222 1.935 1.91-8.302 5.33-8.847 5.782-2.164 1.792-4.559 5.773-3.621 8.612l-3.393.23-2.43-4.964-1.787.013c-.474 1.917-2.13 3.159-3.144 4.764-.44.696-.33 1.787-.812 2.547-1.036 1.633-3.094 1.685-3.148 5.23-.01.693.809 5.33 1.109 5.66.511.56 5.806 3.11 6.892 3.544 4.044 1.616 8.629 3.018 12.944 2.163-.625-.983-2.196-.181-3.339-1.213-.438-.395-.638-.502-.494-1.18.417-.394 9.5 2.333 10.682 2.987 1.589.88 4.874 4.074 2.269 5.43-1.58.823-2.25-1.223-3.394-1.905-5.843-3.482-17.833-2.743-25.044-6.623l-4.47-5.866c.606-4.25-.198-8.264 1.274-12.41-4.4-2.866-6.399-6.552-3.12-11.334.295-.429 3.44-3.64 3.684-3.74.727-.3 2.613-.113 3.124.47m-3.23 12.354 1.42-.717-1.332-1.535-.338-5.893-2.134 4.572zM115.437 75.165c-2.16 2.011-4.33 4.6-6.313 6.4-2.946 2.676-6.49 4.693-9.37 7.457-6.658-.212-1.681-6.33.51-9.119 6.626-8.43 16.666-17.557 21.5-26.96.888-1.726.135-3.517 2.953-3.042 1.6 1.59-6.27 12.316-7.672 14.155-4.83 6.332-11.212 12.266-16.034 18.512-.687.89-2.311 3.171-2.593 4.127-.204.694-.353 1.304.625 1.105l26.41-24.932c3.856-3.966 8.384-7.703 10.233-13.145-.935-1.623-3.03-1.681-4.259-2.933-.364-.37-1.254-1.457-.475-1.934 1.217-.704 5.907 1.657 7.92 1.684 6.369.085 13.572-3.155 18.632-6.799.979-.705 5.216-3.837 5.639-4.45 1.235-1.792-3.116-7.414-.753-7.942 3.149-.704 4.025 10.129 1.458 11.54l-12.152 7.083c-2.557-.207-3.74 1.288-5.761 1.872-1.875.542-8.51 1.057-9.225 1.81-.77 1.47-.876 3.16-1.566 4.673-2.791 6.117-14.465 15.957-19.707 20.838M217.347 153.043l1.356-.033c2.941-5.704 6.227-14.446 13.965-13.858.84.694-3.725 2.688-4.275 3.156-2.027 1.73-3.372 6.096-3.254 8.704.092 2.027 3.026 3.913 3.721 6.103.511 1.608.266 2.804.564 4.235.198.947 1.966 3.26.855 3.96-4.105.82-2.894-4.427-3.809-6.764-.577-1.476-2.383-2.222-2.459-4.026l-1.442.197-.182 5.56c-3.208 1.812-3.67-2.323-4.75-3.934-1.555-2.321-5.809-8.134-8.73-8.068-.36.008-4.463 2.983-4.75 3.384-.734 1.03-1.664 4.621-1 5.732 1.214 2.028 9.578-.103 5.767 5.738-2.378-2.94-7.91-1.344-8.693-5.25-.883-4.405 2.685-8.882 5.812-11.532.75-.636 2.396-.51 2.157-1.917-1.596-.189-6.965-2.286-7.9-3.376-.955-1.113-2.03-5.923-2.136-7.49-.063-.915-.194-1.48.679-2.08 2.697.79 3.829 3.464 5.57 4.976 5.356 4.65 9.225 5.274 13.19 12.245.431.759 1.087.602-.045 1.47-.993-1.402-7.028-7.397-8.17-7.66-.586-.136-1.329.61-1.185 1.186 2.328.744 2.934 2.484 4.368 3.794 1.915 1.75 4.565 2.377 4.776 5.548M130.385 271.455c.265-.382-.148-1.237.338-1.327 2.151.003 5.28 1.505 4.583 4.053-.206.75-4.161.595-5.004 1.197-.502.358-.306 1.58-1.036 1.968-5.804-2.867-11.688-5.559-17.51-8.392-5.833-2.839-10.593-4.94-17.512-4.605-2.547.123-4.356 2.273-6.53 2.188-1.948-.077-9.99-2.414-12.053-3.23-1.434-.566-2.026-2.783-2.276-4.196 1.68.413 2.536 2.009 4.2 2.752 6.509 2.906 12.11.044 18.825-.36.816-1.136-5.959-4.382-6.948-4.8-4.415-1.863-10.277-3.806-14.82-1.853-6.076 2.613-11.952 7.234-16.606 11.722-.39.377-1.326.662-1.387.77-.31.548.391 1.477.366 2.107-.033.836-.756 1.516-.884 2.406-.617 4.287 2.397 7.004 3.336 10.763-2.253 2.104-4.559-8.21-4.81-9.353 1.01-5.994.383-7.501 5.04-11.77 2.9-2.66 13.093-9.019 16.8-9.15 2.352-.084 14.532 3.105 17.04 4.122 3.851 1.562 6.929 5.293 10.922 6.837 2.363.914 5.25.406 8.115 1.474 5.459 2.034 9.11 7.936 15.75 7.284.548-.053 1.776-.198 2.06-.607M262.895 1.438c-1.279 4.646-8.638 4.808-12.57 5.897-7.256 2.009-13.133 4.94-20.166 7.183-9.797 3.124-18.656 4.674-28.92 5.625-.63.058-8.403-.372-7.43.96l7.674.968c-.227 2.363-6.2 1.871-7.877 1.398-1.999-.563-3.07-2.413-5.775-2.326-1.87.06-1.712 1.565-2.776 2.024-.825.357-1.865-.356-2.89-.063-.646.185-1.169 1.124-1.932 1.462-3.826 1.699-7.182 2.481-11.373 2.776 2.504-2.992 7.14-3.36 10.408-4.7 4.082-1.675 7.021-5.997 11.429-5.884 2.046.052 4.657.881 6.715.987 15.044.774 28.654-2.981 42.078-9.25 1.432-.668 4.363-2.805 5.532-3.104 1.715-.439 3.845.092 5.633-.125 4.48-.543 8.13-2.233 12.24-3.828"/><path d="m80.095 272.077-.44 2.324c3.444 1.989 5.44 3.13 9.427 1.608 2.124-.81 5.433-3.93 7.192-4.324 7.44-1.661 10.357 2.907 12.87 9.008.305.74.038 1.865.314 2.316.656 1.076 5.713 1.44 6.828.626.513-2.046-.139-3.684 2.667-3.892.477 2.034 3.039 5 .297 6.285-2.155 1.01-6.315 1.27-8.472.22-4.207-2.046-4.83-6.938-8.106-10.127-5.972-5.812-9.26 2.806-13.818 3.537-2.452.393-7.17-2.011-9.98-1.651-.865.11-.987 1.506-1.258 1.661-.711.406-2.206-.738-3.032.426-3.911-2.806 1.468-9.956 5.51-8.017M312.313 130.514c1.325 1.278-4.966 5.264-5.761 5.99-2.498 2.282-8.35 13.241-9.002 16.429-1.052 5.138-.186 15.958 2.06 20.755.638 1.361 4.22 5.447 2.65 6.51-1.806 1.223-4.02-1.508-4.694-3.026-2.59-5.835-3.984-15.608-3.477-21.943.302-3.785 4.277-13.804 6.503-17.008 2.347-3.379 7.296-8.293 11.72-7.707M427.46 88.284c-.228 2.05.878 3.89 1.828 5.615 3.057 5.558 7.67 8.906 14.14 6.928l4.181 3.06c.18 1.111-.37.662-1.075.595-1.319-.125-2.384-.83-3.73.348-2.716 2.754 5.529 14.628 8.512 15.502 2.69.787 5.79-2.544 7.33 1.296l-2.86 1.44c.855 2.864 3.697 4.017 5.997 5.509.612.396 1.417.372 1.181 1.453-1.266 1.044-8.265-2.605-9.142-4.056-.468-.773-.308-1.697-.557-2.07-.163-.243-4.247-2.085-5.139-2.782-4.153-3.246-8.146-11.72-8.752-16.92-2.457-1.092-4.973-1.42-7.124-3.19-1.538-1.264-5.945-8.037-6.822-9.969-1.02-2.249-.203-2.677 2.033-2.759M154.943 243.757c.54.724-1.793 2.416-2.319 2.713-2.057 1.165-15.324 6.146-14.928 8.508.4 2.386 9.022 1.2 10.521.52.648-.293 1.179-1.398 1.97-1.865 2.786-1.644 3.862-.026 4.756 2.595-.175.174-3.746-1.055-4.82-.757-1.218.337-1.456 1.83-2.487 2.325-1.125.542-7.063 2.285-8.285 2.308-4.522.082-8.35-6.01-11.322-8.863-1.445-1.388-5.628-3.836-6.182-5.336-.268-.726.107-.758.721-.727 2.859.142 7.845 6.748 10.061 6.523 2.43-1.016 4.87-1.02 7.438-1.955 3.44-1.253 9.76-5.533 12.597-6.164.946-.21 1.382-.093 2.279.175M423.625 271.582c-1.742-.52-1.365 1.488-2.873 1.44l-1.719-4.287c-1.898.414-3.59 1.393-5.257 2.357-14.106 8.162-21.383 21.413-31.423 33.35-.51.608-1.178 1.362-1.904 1.69-.056-1.276.553-2.398 1.024-3.528 4.002-9.603 20.53-27.418 29.522-32.854 1.983-1.199 8.25-4.652 10.265-3.237.247 2.36 1.53 3.136 2.365 5.069M256.745 149.317c.697-1.195 5.088-1.957 4.715-5.596-.264-2.576-3.63-1.114-5.53-1.19-5.197-.212-5.638-4.737-10.172-5.67-7.08-1.458-6.485 4.387-8.168 8.407-.289.69-.113.728-1.078.596-.083-4.208-.633-6.946 2.92-9.79 3.219-2.579 6.236-1.4 9.877.11 2.04.847 4.6 3.307 5.884 3.713 2.195.692 7.086-.318 8.414 2.618 1.834 4.054-3.455 6.44-3.973 8.982-.373 1.832.655 5.119-.328 8.293-1.68 5.428-9.51 6.837-10.709 2.048-.84-3.357 3.68.837 4.958.81 2.04-.041 4.037-5.669 4.069-7.414.024-1.294-1.337-5.132-.88-5.917M497.39 218.205c-2.373.779-3.045 3.923-5.895 1.572-3.29-2.713.174-11.39-2.137-15.368l1.641.437c2.274-3.697.085-9.313-1.78-13.019-1.625-3.23-2.71-3.26-4.386-5.21-2.092-2.435-6.762-8.638.004-6.229-1.119 3.206 1.65 4.057 3.077 6.027 4.947 6.834 6.438 9.515 6.259 18.252-.027 1.279-.707 2.56-.511 3.793.27 1.696 6.106 6.562 3.728 9.745m-3.245-4.679c-1.49-1.42-.8 4.261.248 4.307 1.533.067.02-3.682-.248-4.307M230.75 237.039c-.52 1.791-3.32 2.634-4.321 4.2-1.634 2.553-1.756 8.872-.839 11.755 1.57 4.936 9.435 8.678 11.495 13.936.879 2.245 2.066 11.149 1.77 13.496-.402 3.19-3.006 1.718-3.682-.547l-.443-13.922c-.594-1.299-2.492-1.61-3.24-2.55-.613-.772-.526-1.882-.848-2.267-.502-.6-4.314-1.763-6.127-4.192-4.23-5.666-3.78-21.187 6.234-19.91M440.413 346.928l-.238.953c-2.597.353-3.557-.852-5.597-1.601-1.91-.701-4.854-.057-2.483-3.64 2.067.099 9.846.455 10.717-1.245.214-.947-.359-.68-.953-.936-1.507-.65-3.323-.642-4.566-1.692-.515-.436-.983-.688-.243-1.213 4.028-.867 16.05 2.876 19.207.498 3.199-2.41-5.24-6.585-4.323-7.445 3.984.83 10.007 7.258 5.432 10.471-4.99 3.506-12.006 1.341-17.22 3.89-1.793.876-1.518 1.523.267 1.96M223.07 282.62c-3.749-2.367-4.451-6.75-10.093-5.058-3.988 1.198-2.03 2.775-2.355 4.803-.493 3.071-5.259-.856-7.107-1.095-2.16-.28-4.834.729-7.304-.567-.055.803-.174 1.096.507 1.647 2.094 1.694 5.927 2.023 7.656 3.859 1.066 1.132 2.07 3.152.233 4.018-3.858-4.377-10.78-4.858-13.495-10.247l.407-1.082c2.045-1.895 7.955.402 10.234.3.578-.026 4.29-.74 5.229-.916 1.39-.26 3.961-2.506 6.106-3.01 5.92-1.394 10.013 1.112 9.982 7.349M149.193 235.117c-.356-2.001 1.69-2.041 2.887-3.106 2.666-2.371 7.298-6.237 3.855-9.64-3.717-3.673-8.853-2.08-13.183-2.65-3.622-.477-6.322-3.596-10.247-1.779-.27.196-.517 1.137-.469 1.508.072.559 6.107 7.682 7.064 8.722.994 1.082 3.923 2.875 4.327 3.832.274.65-.102.81-.717.72-3.83-.559-4.946-4.068-7-5.96-.928-.854-2.399-1.072-3.067-1.738-.227-.227-2.83-4.036-2.903-4.284-1.104-3.742 2.421-6.252 5.74-5.759 1.57.233 1.952 1.328 3.024 1.79 4.703 2.025 8.751.056 12.708 1.206 2.339.68 8.908 3.442 8.81 6.345-.131 3.93-6.822 10.338-10.829 10.793M181.5 247.759c-1.23 1.027-2.043 3.176-4.483 3.2l1.23 2.375-.502.956c-.679-.625-1.968-.232-2.539-.578-.663-.403.028-1.817-2.522-1.104-5.091 1.424-10.627 9.547-13.44 13.918-.38.59-.603.94-.457 1.697 2.228.2 3.624-.883 5.102-2.324.701-.138 2.37.859 2.09 1.844-3.87-.864-4.128 1.675-6.38 2.976-4.176 2.412-4.998-1.573-3.132-4.575 3.016-4.851 9.975-13.197 15.161-15.543 1.933-.874 4.842-1.108 6.328-1.828.934-.452 3.509-4.36 5.051-5.505 1.398-1.036 4-1.653 5.284-3.343.908.707.584.548.325 1.263-1.477 4.08-1.31 2.5-4.105 4.064-.67.374-2.229 1.855-3.01 2.507M377.51 526.428c1.175 2.553-1.852 3.783-3.95 4.342-1.647.438-6.68 1.444-8.229 1.405-1.61-.04-3.017-.668-4.405-1.39-2.28-1.188-6.344-4.973-7.841-7.034-1.501-2.067-8.38-13.177-6.703-15.124 1.241-.118 1.83 1.293 2.408 2.146 3.872 5.72 4.847 10.864 10.795 15.594 3.142 2.498 4.942 3.264 8.992 2.3 2.952-.704 5.397-3.274 8.933-2.239M202.923 252.384c-.81 1.184-4.559-.704-5.872-.385-.817.198-1.65 1.347-2.65 1.704-4.465 1.591-14.141 3.37-17.351 6.639-.932.949-5.186 6.365-5.548 7.407-.642 1.847-.266 6.192-3.375 4.81-1.229-6.908 5.78-11.275 8.905-16.553 3.876-1.338 7.994-1.669 11.877-2.997 2.458-.84 6.04-3.196 8.06-3.453 1.493-.19 7.481.594 5.954 2.828M183.584 484.778c-4.314-5.282-8.49-7.473-11.111-15.034-.178-.512-1.195-3.388-.015-3.336 1.046.046 3.92 7.113 4.64 8.307 3.524 5.843 12.585 14.905 19.473 16.031 6.546 1.07 12.058-.405 17.379 5.163-.805 1.123-.804.427-1.58.155-1.875-.658-4.428-2.52-6.368-2.777-1.855-.245-3.969.59-6.189.454-3.375-.205-10.602-2.389-13.212-4.54-1.908-1.572-1.897-3.05-3.017-4.423M481.192 165.062c-.978-.73-1.877 2.728-4.289 1.665-2.769-1.221-2.745-4.102-3.921-6.165-.54-.948-1.704-1.548-2.26-2.538-3.543-6.307-5.736-13.863-7.753-20.792 1.282-.248 2.515.97 2.99 2.043 1.842 4.169 2.307 9.67 4.461 14.253.949 2.018 2.84 5.167 4.046 6.99 1.817 2.746 2.551 1.48 4.36 1.87 5.811 1.252 5.5 5.937 5.462 10.845l4.096 5.026c-5.04 3.351-4.27-1.491-4.915-4.673-.09-.443-.663-.921-.809-1.59-.466-2.156-.008-4.65-1.468-6.934M451.287 306.78c3.242 2.932 4.143 7.643 5.829 11.202 1.336 2.822 4.377 4.7 3.234 8.33-.763 2.424-2.65 2.405-3.319-.13-.27-1.026.335-2.482.154-2.736-.059-.082-1.354-.358-1.881-.766-2.885-2.23-.898-8.222-3.105-9.87-2.208-1.65-5.224 3.048-6.021 2.436-.848-1.704.218-3.314 1.671-4.318.747-.516 2.999-.761 2.639-1.67-2.48-3.897-6.153-.509-9.102-2.405 2.754-1.702 7.279-2.446 9.9-.074M258.7 180.051c.484-.451 1.598-.415 2.241-.87 1.124-.796 2.513-2.465 3.854-2.865 3.652-1.09 9.08 1.132 12.792 1.643 6.918.954 14.648.383 21.295 3.174.793.333 1.37.78 1.908 1.441-.566.834-1.274.729-2.148.76-3.095.113-7.984-2.1-11.385-2.608-2.255-.337-4.636-.076-6.79-.368-4.282-.579-10.153-2.946-14.216-1.148-2.062.912-3.746 3.288-6.473 3.169-1.706-.075-2.198-1.283-1.078-2.328M322.388 281.659c-1.35.002-2.355-.987-2.974-2.06-4.545-7.863-4.132-25.727-1.477-34.3.402-1.298 2.325-6.37 3.737-6.332 1.02.733.464.667.32 1.258-1.048 4.295-3.153 8.38-3.789 13.019-.64 4.667-.73 16.536 1.205 20.601 1.544 3.244 3.629 1.14 5.85 2.778l-3.135 1.671zM118.469 43.684l-.271 1.46c-1.993.584-4.185 1.491-5.91 2.638-5.015 3.331-10.508 13.63-12.882 19.267-.48 1.14-2.24 7.818-3.713 7.793-2.099-.036.085-5.977.5-7.169 2.056-5.924 10.556-19.407 15.896-22.488 1.01-.583 5.616-2.663 6.38-1.5M220.674 510.547c-1.21 5.46-1.812 11.15-4.083 16.304-1.926 4.372-5.21 8.17-7.523 12.15-1.541 2.653-5.932 13.332-8.395 13.707-.825.125-1.233-1.285-2.325-1.398-1.415-.146-4.607 2.734-5.017-.457l6.714-.967-.478-1.431c1.443-.234.88 2.097 2.634.473.635-.588 2.674-6.391 3.52-7.997 2.816-5.341 7.274-9.725 9.608-15.342 1.795-4.318 2.18-10.123 3.874-13.88.326-.723.493-1.346 1.471-1.162M332.952 239.437c-1.103 2.49-1.811 5.152-1.828 7.915-.007 1.148 1.597 6.231-.339 5.04-1.15-1.544.04-4.292-1.672-5.278-.955 2.039 1.537 6.26-1.443 6.714-.8-3.48.864-6.473 1.301-9.485.338-2.326.167-9.663 2.523-10.92 2.058-1.098 1.171 3.16 1.689 4.09 2.26-1.636.33-6.008 3.354-7.192 1.344.286.366 8.081 1.169 9.764l-1.178.815zM193.334 131.471c-.302-1.9-2.328-10.656-4.096-11.031-1.58 1.401-3.59 2.949-4.357 4.827-4.127-1.05-7.463 2.864-11.049 3.302-1.057.13-1.74-.457-1.526-1.59.324-1.723 5.845-3.65 7.46-4.032 1.124-.267 2.454.143 3.492-.347.878-.415 1.71-3.258 3.376-4.3 6.41-4.012 8.138 7.435 7.67 11.51-.081.718-.095 1.48-.97 1.661M249.94 544.13c-.987.74-2.28-2.453-2.475-3.038-2.697-8.072-.84-17.356-4.717-25.267 2.104-.18 4.687 1.012 5.177 3.215.995 4.471.633 10.62 1.067 15.248.156 1.672 2.045 9.017.947 9.841M137.151 37.95c-1.233-1.062-7.773 2.918-7.154-1 2.077.443 6.302-2.536 7.425-2.668.908-.108 2.242.65 3.31.586.662-.04 3.918-1.165 4.623-1.518 3.445-1.726 6.76-8.562 10.044-4.745.189 1.16-6.49 5.23-7.807 6.022-1.52.913-5.04 2.09-6.06 3.056-1.26 1.194-.467 2.92-2.086 3.706-1.627.79-2.138-2.352-2.295-3.44M146.787 429.454c-5.466 1.86-14.864 4.208-15.828-3.84 1.142-.074 1.559 1.069 2.537 1.538 6.381 3.056 6.91-.138 11.675-.422.622-.037 4.612.982 4.755 1.24.933 1.678-1.185 3.92-2.42 4.837-1.187.88-6.296 3.578-6.508 1.197-.276-3.085 5.352-1.77 5.79-4.55M343.85 342.73c.404.42.435 1.309.852 1.777 1.868 2.094 2.809 1.85 3.08 5.567l15.864 12.445.483 2.152c-.694.117-1.241-.034-1.888-.267-3.25-1.17-14.571-12.206-17.612-15.255-.983-.985-5.27-5.806-5.455-6.782-.312-1.65 3.98-.364 4.677.363M350.7 232.24c1.833-.11 1.325 2.053 1.766 3.267 3.475 9.567 8.183 26.34 5.909 36.318-.624 2.735-2.044 1.727-2.181-.205-.046-.64.727-1.24.766-2.167.322-7.78-.813-15.309-2.658-22.827-.53-2.159-4.543-13.291-3.602-14.386M191.887 29.269c.123 3.219-4.772 2.572-6.83 3.48-3.905 1.726-1.595 3.982-3.055 6.627-.74.124-11.167-4.444-11.912-5.342-1.36-1.637-1.251-3.047 1.166-1.887l.96-1.439-.957 1.912 6.924 2.443c.454-.077.237-1.025.528-1.44.402-.57 12.613-4.908 13.176-4.354M184.82 362.4c-.3.477-.062 1.34-.57 2.063-.35.496-2.975 2.097-3.633 2.098-.975 0-5.562-2.363-5.55-3.574.01-1.04 4.124-3.254 4.686-4.552 2.246-.952 7.94-1.105 6.783 2.55-.32 1.012-1.46 1.005-1.717 1.416m-5.408.356-.957.003.722.952zM208.207 122.355c2.518-1.936 1.235-8.113 4.556-9.114.433 1.54-1.162 2.743-1.625 4.612-.737 2.973-.443 8.768-.536 11.938-.03 1.049-.608 2.046-.484 3.122-4.812-.579-1.317-3.51-1.505-4.492-.137-.72-1.616-1.175-1.851-2.488-.258-1.433.497-2.582.43-3.764-.08-1.367-.809-3.075-.835-4.436-.032-1.619.553-9.652 2.085-9.764 1.015-.074.321 1.349.266 1.688-.735 4.534-.85 8.083-.501 12.698M155.38 110.881l.969 6.472c1.22 1.707 6.622 1.114 8.693 5.221.649 1.288 1.403 4.655 1.58 6.13.264 2.21-1.576 1.437-2.49.058-1.171-1.77-.587-4.058-1.71-5.488-1.98-2.523-7.185-2.999-9.015-6.338-1.503-2.743-2.41-6.564 1.974-6.055M165.503 310.93c-4.762.824-11.254-2.308-13.205-6.709-.72-1.622-2.894-8.35.893-6.175 3.86 2.218 1.055 7.349 6.283 9.077 2.314.765 6.513.247 6.029 3.806M170.639 105.184c1.738-.403 7.464.478 8.763 1.589 1.871 1.6.85 5.14-.115 7.056-.335.665-3.677 5.493-4.005 5.595-.81.252-1.147-.08-1.615-.668 2.737-2.417 4.572-5.817 4.718-9.509-.55-2.345-5.944-1.56-7.342-.303-1.01.908-1.188 3.523-3.33 2.815-2.238-.739.854-6.095 2.926-6.575M459.606 113.715c-1.003.09-1.926-.236-2.61-.983-2.375-2.591-5.348-8.754-7.734-11.94-2.563-3.422-6.302-7.825-9.312-10.839-1.481-1.483-3.953-2.086-3.849-4.064.364-.398 2.466 1.33 2.883 1.671 5.322 4.354 12.182 12.663 16.225 18.321.659.923 4.931 7.293 4.397 7.834M144.45 172.201c3.15 2.446 5.536.472 8.877.123l3.054.647c-3.31 2.46-9.381 4.444-12.936 1.433-1.751-1.483-2.298-5.464.178-6.512.889-.376 5.048-1.515 4.604.281-1.445 1.048-4.07 1.72-3.777 4.028M175.243 423.543c-1.513-1.265-4.641-5.725-5.604-7.587-.193-.374-2.107-4.07-.545-3.296 1.177.585 5.582 8.54 7.469 9.807 2.38.568 4.653 1.573 7.052 2.064 1.027.21 4.781-.342 4.433 1.314-.544 2.594-10.883-.695-12.805-2.302M162.87 385.788c1.707-.352.882 2.35.973 2.95.833 5.5-.26 8.538 1.566 14.18.141.436.996 1.378-.155 1.58-1.09.19-3.41-4.577-3.562-5.546-.281-1.803-.34-9.781-.016-11.474.105-.551.739-1.596 1.193-1.69M397.239 353.159l-.45-2.203-7.232.28.07-1.85c3.758-1.63 7.726-1.247 11.662-1.958l.673 1.083c-.836 2.041-2.355 4.33-4.723 4.648M275.853 257.187c-5.587.73-10.234-2.309-12.735-7.177-.548-1.068-2.157-4.755-2.422-5.774-.312-1.2.387-2.357.072-2.88-.352-.583-2.465-1.226-2.669-2.396 4.45-.086 3.526 3.19 4.568 6.223 1.383 4.023 4.475 10.52 9.586 10.506 1.813-.005 3.782-2.557 3.6 1.498M322.052 226.33c-.362-.304-.556-1.21-1.092-1.531.762-1.036 2.165-1.02 3.196-1.592 1.54-.855 6.563-5.086 8.102-2.988.55 1.109-.23 2.18-1.058 2.835-.423.336-6.067 3.471-6.51 3.597-1.017.289-1.766.408-2.638-.321M126.641 420.337c4.488 1.423 7.27 1.465 10.814-1.9 1.3-1.236 2.582-3.99 3.81-4.83.635-.434 1.12-.403 1.208.26.048.354-1.634 3.699-2 4.229-1.953 2.828-3.718 3.232-6.596 4.437-.46.192-.806.937-1.348 1.09-1.307.37-7.366-1.796-5.888-3.286M148.225 445.765c.793.573-1.205 7.172 2.162 9.599 1.531 1.103 6.743 2.242 8.717 2.36 1.764.105 4.354-1.463 4.476.992-4.407 1.245-8.855-1.292-13.22-1.886-2.554-1.437-7.49-10.468-2.135-11.065M119.689 419.377c1.674-.354 3.662 6.827 4.326 8.14l.457 4.331c-1.748.217-5.626-9.168-5.555-10.793.024-.55.215-1.56.772-1.678"/><path d="M265.298 245.676c3.029-.762 4.035 2.593 5.98 3.85.81.523 4.905 1.536 4.57 3.098-2.537 3.772-11.675-5.96-10.55-6.948M62.116 281.183c.614-.12 2.653 2.269 4.34 2.38 3.396.225 4.663-5.319 7.404.25-.18.916-7.48 1.508-8.761 1.618-1.474-.248-5.566-3.747-2.983-4.248M321.909 18.715c.132.576-.199 1.234-.765 1.356-.277.06-4.851-.372-5.65-.462-3.736-.426-7.083-1.742-10.63-2.825-.728-.222-1.44.553-1.183-.95zM183.73 347.397c-.905.21-1.136-.517-1.678-.956-2.216-1.795-5.421-4.522-7.442-6.472-.518-.5-1.12-.844-.95-1.684 1.88-1.638 11.304 5.728 10.07 9.112M181.644 332.214c-.54-.647-3.492-1.849-1.625-2.692 3.461-1.563 8.12 6.493 6.143 7.568-1.938 1.054-3.254-3.366-4.518-4.876M222.08 128.62c1.242.762.412 8.657.032 10.248.054.48-.956.359-1.18.265-2.506-1.042.136-8.29-.254-10.544zM348.776 201.526c-.82.956-5.832-6.16-6.219-6.964l1.459-1.634c1.636-.93 5.59 6.793 4.76 8.598M214.436 183.292c-4.995-2.463-11.076-3.03-15.345.962.687-5.15 11.756-5.49 14.564-2.815.675.643.994.702.781 1.853M139.115 243.27l4.332-2.62c.515-.275 3.673-5.924 4.3-3.362.877 3.588-5.353 7.292-8.632 5.981M197.587 247.528c-1.522 2.355-6.938-2.62-2.81-4.489 2.809-1.272 3.295 3.738 2.81 4.49M324.554 584.44c2.534-.613 1.018 6.971-2.41 6.703-2.036-.775 2.039-6.614 2.41-6.704M134.709 357.076c2.033 3.461-6.355 4.084-4.639-1.204.589-1.814 4.483.938 4.639 1.204M402.514 237.031c.637-1.256 5.74-6.16 6.979-4.335 2.088 3.076-5.3 3.678-6.979 4.335M419.784 281.184c-.146 4.025-9.265.824-7.672-.48 2.827-.4 4.926-.286 7.672.48M250.42 147.789c.193 1.733-4.35 9.435-5.987 9.112-1.055-.706-.506-1.058.029-1.881zM207.97 190.972c1.72-.373 2.184 1.86 2.903 2.846.508.696 2.532.96 1.172 2.199-.94.586-2.994-.383-3.604-1.206-.38-.513-1.66-3.58-.471-3.839M105.526 410.255c-1.378 1.375-7.697-7.021-5.033-8.152.966 1.862 1.777 3.862 3.116 5.515.37.457 2.907 1.649 1.917 2.637M137.628 240.832l-2.848.757c-4.217-3.998 3.022-6.086 2.848-.757M276.333 246.156c.957-.107 7.787-2.208 7.193.23-.167.686-2.413 1.159-3.139 1.221-.522.045-5.266-.143-4.054-1.45M185.96 280.763c.556-.184 1.216-.12 1.789-.007l.544.423c.316.81 1.204 2.507.261 3.144-1.541.87-3.533-.89-3.417-2.412.019-.568.272-.965.823-1.148M30.202 319.093c-1.063 2.182.232 5.533-1.914 7.193.317-1.9.342-3.894.713-5.783.167-.855-.009-1.703 1.2-1.41M272.969 230.328l-.24.954c-.983.245-5.22-3.116-4.55-3.843zM203.406 357.468c-.143-1.317.035-.757.724-.936 4.403-1.14 2.738 2.642-.724.936M394.833 161.7l-1.914-3.353c1.856.015 2.113 1.865 1.914 3.352M395.315 166.977l-.956-.001.484-2.873h.469zM249.94 512.466c.249 1.248-.997 1.172-1.681 1.907-.223-.707 1.125-2.464 1.682-1.907M350.697 203.922l-.956.003-.473-1.202.225-.226zM257.616 238.482c.066.058-.023.315 0 .47-.515.24-1.982-.673-2.386-1.2.423.015 2.292.647 2.386.73M193.804 136.751c.067.048.396 1.363.363 1.607-.412 2.992-5.05 3.234-6.805 5.14-1.4 1.52-3.744 7.74-2.903 9.561.414.896 2.307 1.69 3.121 2.635 3.012 3.498 3.669 8.623.706 12.236.317-2.716.91-5.558.124-8.266-1.017-3.503-3.884-2.581-4.888-5.19-1.5-3.898-1.055-9.251 2.106-12.23 1.189-1.12 3.177-1.584 4.51-2.688.784-.65 2.423-3.69 3.666-2.805M479.277 180.893c-.54.618-2.508-1.832-2.798-2.235-8.702-12.077-15.524-26.938-24.351-38.985-2.893-3.949-6.073-6.587-9.079-10.114-9.33-10.95-16.6-24.1-26.376-34.56-7.918-8.473-27.781-26.527-37.675-31.418-4.421-2.184-9.746-3.774-14.088-6.063-1.31-.69-3.49-1.799-3.902-3.29 4.91 2.985 10.16 5.346 15.595 7.185.678-.652-3.742-4.121-4.346-4.525-2.606-1.74-7.05-3.36-9.345-5.53-.645-.61-.825-1.039-.697-1.936 1.065-.159 1.845.434 2.72.873 8.574 4.31 18.59 13.078 25.802 19.3 10.035 8.658 20.404 16.358 29.296 26.362 6.51 7.324 11.558 15.994 17.525 23.738 6.942 9.01 14.872 16.347 20.693 26.33 5.358 9.187 10.147 18.687 16.111 27.552.711 1.057 5.596 6.536 4.915 7.316M147.51 234.637q.465.24 0 .48zM282.086 355.079c.722.7-2.688 5-3.355 5.75l5.274.968c.773.728-2.985 3.361-3.967 2.891l-.355 1.184c1.174 1.668 5.405-.817 5.222 1.364-.715 2.25-3.348 2.606-4.978 4.143-.912-.05-.827-6.488-2.63-7.185l-1.932 7.196-2.392-.747c-1.442 1.254-.596 2.826-1.954 4.312-1.914 2.094-5.807 2.93-8.085.958-1.013-.876-4.59-7.914-4.74-9.187-.096-.812.39-1.51.382-2.294-.015-1.771-.864-3.15.739-5.02 1.287-1.5 2.241-.336 3.24-.582 1.11-.274 1.384-1.885 3.941-1.878 2.081.005 5.058 2.481 6.642 2.345 1.012-.087 7.634-5.492 8.948-4.218m-13.909 5.278c-.59 1.804 1.065 4.393 2.894 3.134 1.671-1.151-1.417-3.852-2.894-3.134m-2.89 3.36c-1.175-.164-.76.02-1.01.678-.697 1.834.325 3.78 2.456 3.635zm-.83 10.427c2.25 1.559 4.862-.04 5.156-2.503-.227-.844-3.023-.808-4.103-1.184-1.583-.553-2.466-2.121-4.05-2.423zM279.064 327.385c1.083 1.366.328 3.247.737 4.788.255.962 1.678 2.062 1.423 3.61l3.903.66.819 1.129c-.02 1.392-9.149 5.745-8.65 8.867 6.607-3.258 13.406-7.44 21.104-6.714l-.241 1.913 5.52-2.392c-2.431 2.75-8.276 2.187-9.594 5.751 5.038 1.105 8.725-2.894 13.36-2.809l.342 1.845c-4.959 3.887-12.22 6.764-18.5 5.278-.422-2.304 2.434-1.961 3.329-3.647-.893-3.23-5.243-.61-7.34.364-1.703.79-6.586 4.015-8.162 3.678-.661-.141-1.64-1.92-3.167-1.364-1.518-2.915 5.905-7.206 5.703-8.312-.697-.919-1.9-2.041-2.162-3.189-.395-1.735.556-2.993-.633-5.564-.2-.434-.138-1.397-.995-.669-.532.453-4.335 9.343-4.574 10.543-.428 2.15-.751 8.59 1.687 9.138l-1.677 3.336c-1.993-.864-3.635-3.38-3.544-5.529.034-.807.708-1.379.79-2.012.729-5.609.847-9.104 3.467-14.284 1.432-2.832 3.909-8.38 7.055-4.415M294.402 389.307c.46.342.564 1.467 1.444 1.69 1.144.292 4.455-1.749 4.95.323.273 1.143-4.12 3.238-5.271 2.626-.937.803 5.097 4.207 2.639 5.744-4.848-3.975-11.442-6.057-14.837-11.544-.824-1.333-3.067-6.626.22-4.538.477.304 1.775 3.542 2.608 4.588 1.24 1.557 2.426 2.316 4.335 2.857-1.807-3.129-5.064-4.21-5.307-8.139-.236-3.82 3.715 2.734 4.629 3.545 1.276 1.133 3.182 1.802 4.59 2.848M260.142 346.79c1.483 1.468 4.19-.543 5.5-1.208.581-.296.781-.885 1.347-.117 1.367 1.73-2.083 7.452-3.37 7.694-1.212.228-2.801-.15-4.083.001.976-3.685-2.347-2.512-3.727-3.468-.651-.451-1.935-4.708-1.9-5.762.05-1.495.955-5.065 2.767-3.025zm-2.52 1.566c.927.927 2.964-1.524 1.19-1.914-1.01-.223-1.539 1.565-1.19 1.914M266.85 405.343c-1.5-1.502-.56-10.893 2.045-12.35 1.911.017.443 7.546.475 8.885.026 1.052 1.04 2.134.682 3.27-.374 1.193-2.52.877-3.202.195M281.916 320.69c.41.516.756 1.05.65 1.755-4.574.636-4.26-4.58-6.206-6.505-1.232-1.219-4.68-.357-4.824-3.087.33-.302 3.103 1.054 3.67 1.362 2.807 1.527 4.765 4.024 6.71 6.475M258.572 328.687c.555 3.889 1.63 7.52 3.36 11.034-1.082 1.265-3.943-5.947-4.102-6.688-.128-.6-.72-5.776.742-4.346M340.62 364.196c.652 1.524-3.189 1.608-3.357 1.434l-.002-1.435zM274.89 387.228c-.84 1.632-1.201 3.422-1.836 5.12-.185.498-.402 1.662-1.036 1.593.21-1.913.983-3.931 1.787-5.665.313-.676-.288-1.31 1.084-1.048M336.306 445.291c.88-.23 1.686-.444 2.615-.508 5.523-.381 15.89-.959 21.152-.477 6.955.636 12.148 6.491 14.866 12.484.513 1.13 2.235 4.354-.014 4.347-1.823-.006-5.606-8.253-7.24-10.048-5.51-6.051-13.6-3.758-20.586-3.842-1.024-.012-1.934-.474-2.884-.518-.715-.033-9.432.577-7.909-1.438M338.22 464.009c1.36 1.586-3.42.565-2.873-.967zM242.227 220.79l-.677 1.848c-1.01-.863-2.272-1.47-2.642-2.871zM246.105 221.197c-1.286.272-.827-.334-1.192-.945-.776-1.3-1.825-2.871-2.162-4.329 1.688 1.255 2.367 3.511 3.354 5.274"/></g></svg>