<?xml version="1.0" encoding="UTF-8"?><!DOCTYPE svg PUBLIC "-//W3C//DTD SVG 1.0//EN" "http://www.w3.org/TR/2001/REC-SVG-20010904/DTD/svg10.dtd" []><svg xmlns="http://www.w3.org/2000/svg" xmlns:xlink="http://www.w3.org/1999/xlink" data-name="Layer 1" height="409" viewBox="0 0 308.42 408.61" width="308"><path d="M308.39,328.1c-.48-2.37.33-10.32-2.64-11.07-.08-1.79-2.33-2.39-3.88-1.48,0,0,0-.01,0-.02-.07-2.3.25-4.66-.18-6.92-.02-1.87.11-3.79-.55-5.57.11-4.11-.53-8.13-.78-12.22-1.32-15.95,3.49-31.89,1.65-47.89-.07-8.77,1.52-17.5.94-26.29-.02-8.64-2.3-17.09-1.39-25.76.79-5.48,2.45-10.85,2.45-16.44-.1-4.93-1.04-9.82-1.15-14.76-.37-6.43.41-12.94-1.12-19.28-1.6-6.7-4.45-12.84-6.13-19.55-1.92-7.88-1.92-16.22-5.24-23.74-2.74-6.11-6.57-11.42-10.94-16.6-4.8-4.68-9.75-9.29-14.14-14.46-6.69-8.55-16.03-14.46-26.08-18.35-8.24-3.83-16.48-8.95-25.85-8.92-11.18.44-22.24-2.23-33.38-2.69-1.55.16-6.13-1.08-8.67-.6-.55-.16-1.09-.33-1.65-.47-1.92-.27-6.04-2.64-8.26-1.98-.29-.58-.9-.93-1.88-.72-.07.02-.13.05-.2.07,0-.02.01-.03.02-.04.32-.99.06-2.37-1.14-2.58-1.09-.17-2.62-.41-4.35-.62.16-.69.15-1.39.22-2.1.07-.73-.24-1.35-.73-1.72.1-.08.2-.16.28-.26,13.59-1.48,15.73-23.05,1.57-25.06-7.31-.19-15.25,4.81-16.25,12.43-.62,4.66,1.7,9.84,5.66,12.32-1.69.67-2.19,2.78-2.19,4.58-1.88.52-3.38,1.42-4.11,2.9-.37.11-.76.33-1.13.71-.51.51-.82,1.15-1.01,1.83-4.62-.38-9.27-.71-13.89-.43-6.87.3-13.45,2.2-19.81,4.79-7.72,2.65-15.77,3.59-23.74,5.12-7.41,1.93-13.53,6.68-19.54,11.21-6.68,5.15-14.18,9.5-19.57,16.1-3.36,3.8-5.42,8.4-8.1,12.65-2.97,4.66-6.4,8.91-9.25,13.66-5.62,9-6.6,19.7-9.15,29.77-1.01,3.52-1.86,7.09-2.09,10.76-.85,12.15.95,24.37-1.25,36.42-2.05,11.87-2.06,23.93-1.28,35.92.64,6.67,1.78,13.13.53,19.88-1.14,6.44-2.11,12.94-1.9,19.52.37,6.3,1.57,12.28,1.53,18.73-.84,9.8-.6,19.56.92,29.27.26,8.39-1.22,16.77-.88,25.14-2.04-.18-5.5,2.09-5.64,4.04-1.6.51-2.94,2.16-2,3.76.06.09.15.17.22.25-.14.15-.27.3-.37.46-.87,1.54-.68,3.43-.9,5.14-.05.67.29,1.32.88,1.65.49.24,1.02.29,1.53.2-.42.79-.45,1.7.27,2.39.79.61,1.84.6,2.79.58,3.72-.19,7.42.12,11.13.34,3.45.12,6.9-.01,10.36,0-.19.23-.35.51-.48.82-3.97-.79-8.92,6.7-11.01,9.54-5.42,8.04-5.83,18.53-3.4,27.7,1.72,7.28,8.39,13.03,15.67,14.29,10.45.89,25.5-.93,27.87-13.33,2.44-11.32,2.68-28.06-7.26-35.49,1.59.28,3.19.46,4.83.46,6.53.33,13.11.07,19.59,1.15,2.09.3,4.15.77,6.23,1.17-1.21,3.09-1.4,7.84-1.32,9.65-.02,12.82,12.68,18.45,23.67,19.91,11.95.42,21.07-18.75,16.17-28.84,6.68,1.13,13.31,2.66,20.05,3.45,9.61,1.14,19.25.87,28.9,1.01,7.08.51,13.95,3,20.96,4.13,4.3.97,8.69,1.35,13.09,1.54-1.49,1.09-2.84,2.52-3.74,3.56-4.11,4.38-5.83,10.24-6.65,16.09-.99,8.85.77,18.81,7.19,25.34,5.49,4.54,13.04,4.19,19.77,4.39,21.39.53,29.28-27.61,20.79-43.92-.64-1.22-1.5-2.36-2.49-3.38,1.32.02,2.65-.08,3.74-.54,1.8,1.86,6.69-1.54,8.8-2.15,2.4-.92,4.75-1.94,7.07-3.01-2.23,6.56-1.62,14.1,3.67,19.07,4.66,4.59,10.88,8.49,17.56,8.82,12.65.88,26.32-16.99,22.99-29.04-.58-2.38-.75-5.06-2.15-7.11-2.94-2.19-5.5-5.63-8.88-7.07,6.17-2.37,12.38-4.7,18.39-7.42,1.37-.73,1.85-2.22,1.44-3.23.29-.46.44-.98.36-1.52ZM300.46,317.85s0,.05-.01.08c-.21.21-.43.41-.65.61.1-.2.17-.39.21-.59.16-.02.3-.05.45-.09ZM236.36,344.69c-.29-.53-.89-.91-1.87-.98-5.48-.15-10.98-.73-16.53-.83-9.37-.36-18.46-2.97-27.81-3.46-6.86-.2-13.66.67-20.52.36-12.33-.92-24.3-5.09-36.74-4.88-6.24.15-12.55-.58-18.76.36-5.29.25-10.19-1.2-15.38-1.98-6.5-1.38-13.08-2.62-19.74-2.81-8.33-.02-16.69.65-24.88-1.21-6.65-1.08-13.16.4-19.86.45-5.32.11-10.57-.78-15.83-1.34-.81-.04-1.62-.07-2.43-.11,2.63-.21,5.89-1.76,6.39-3.75,1.2-.8,1.79-3.05,1.39-4.46,0-.02,0-.05,0-.07.18.3.42.56.77.72.82.39,1.74.03,2.51-.32,8.65-4.02,17.03-8.33,25.31-13.12,3.39-1.66,6.62-3.61,9.96-5.34.65-.33.96-1.17.81-1.87-.14-.6-.75-1.14-1.38-.79-9.61,5.63-20.24,9.12-30.27,13.88-2.58,1.4-7.08,1.44-7.96,4.67-.69-6.01-1.04-12.07-1.62-18.09-.2-6.68,1.15-13.45,1.9-20.2.71-7.09-.55-14.17-.4-21.26.62-6.08,1.5-12.16,1.15-18.29-.31-4.5-1.83-8.81-2.26-13.31-.9-8.81.26-17.6.96-26.41,1.29.41,2.67-.19,3.96-.41,8.75-1.62,17.36-3.84,26.05-5.78,4.24-.87,8.4-1.76,12.69-2.44-.1.14-.18.29-.23.49-.3,7.83-1.24,15.61-1.85,23.47-.29,6.44.94,12.79,1.27,19.21.1,6.87-1.08,13.71-.63,20.58.45,7.42,2.37,14.7,1.73,22.17-.79,7.3-.71,14.62-1.22,21.94-.27,1.74.53,3.53,2.3,3.99.1.04.19.05.29.07.17.27.37.51.64.71,1.43,1.16,3.44.99,5.1.5,1.39-.48,1.18-2.23.45-3.15-.9-1.27-2.23-1.38-3.57-1.19-.09-7.77-.52-15.52-1.14-23.27-.46-5.97.97-11.77,1.61-17.68.89-5.81-.09-11.23-.48-17.13-1.2-11.38,2.16-22.69.34-34.09-.49-5.06-.09-10.43-.98-15.46-.13-.64-.69-1.18-1.34-1.47.35-.07.69-.17,1.04-.21.54,0,1.14-.06,1.58-.4,3.56-2.53,2.88-8.54.19-11.45-.76-.53-1.56-.54-2.27-.24-.16-2.02-.06-4.06-.29-6.08-.32-6.37-1.22-13.13-1.27-19.57-.22-7.85,2.31-15.31,3.95-22.9,1.87-6.87,1.8-14.26,3.19-21.25,3.53-10.43,8.1-20.57,12.68-30.58,2.08-4.01,5.2-7.18,8.36-10.32,3.91-4.13,7.43-8.52,11.84-12.19,1.58-1.23,3.47-2.76,2.51-5,3.55-1.09,7.12-2.04,10.74-2.65,2.12-.29,4.27-.37,6.41-.39-3.52,2.01-6.99,4.59-8.5,5.55-4.12,3.54-7.78,7.58-11.86,11.18-3.83,3.62-8.09,6.83-11.16,11.15-3.58,4.98-5.54,10.33-7.73,16.11-3.29,7.35-7.36,14.38-8.63,22.47-1.18,6.69-.42,13.57-1.45,20.29-1.2,6.49-2.22,13.25-2.58,19.89-1.58,14.33,2.82,28.51,1.34,42.81-.99,10.49-2.35,20.93-1.62,31.51-.57,8.35-1.61,16.82-1.14,25.32.16,6.68,1.32,13.26,1.71,19.9.26,6.95-.46,13.95-.88,20.87-.23,1.31-.1,2.65-.16,4-.29,1.88-.28,4.56,2.14,4.92,1.71,0,2.36-2.08,1.95-3.49-.14-1.69-.04-3.42-.34-5.1-.4-7.47-1.36-14.93-1.28-22.45,1.32-13.15,2.11-26.56,1.72-39.81.74-9.75,2.92-19.41,1.04-29.19-2.6-12.46-.09-24.97.34-37.51.64-12.71-2.37-25.76.52-38.3,1.98-6.79,5.26-13.14,6.8-20.1,1.04-3.46,1.39-7.09,2.73-10.46,1.62-4.15,4.28-7.8,6.57-11.59,2.6-4.21,4.72-8.68,7.01-13.03,3.96-6.15,9.71-10.93,16.13-14.46,4.45-3.1,9.07-6,14.35-7.47.3,1.67,1.28,3.01,3.61,3.49,4.3.35,8.69.32,13.05.09-.06.06-.12.12-.17.19-.63.79-.84,1.82-.88,2.81.05,4.05-.39,8.25.58,12.21.77,3.69,5.6,3.44,8.58,3.79,4.65.02,9.29-.44,13.94-.53,1.82-.35,5.03.89,5.64-1.56.31-2.32-3.37-1.13-4.9-1.48-5.84-.55-13.12-.36-18.65-2.1,0,0,0,0,0,0-1.12-4.15-.12-8.37-.73-12.64-.04-.37-.18-.65-.35-.88,1.52-.12,3.03-.25,4.53-.4,1.76-.59,6.09-3.07,4.38-5.32-.38-.29-.75-.35-1.11-.27.21-.35.34-.72.38-1.1,6.88,1.49,13.59,3.91,20.04,6.7,9.89,5.13,16.87,13.92,24.9,21.53,4.92,5.85,5.94,13.77,9.63,20.36,2.83,5.83,5.96,11.86,7.34,18.29,1.45,8.21.61,16.54,1.25,24.81.27,9.86,3.49,19.3,3.84,29.11-.15,9.04-3.45,17.91-2.36,27.07.45,7.16.89,14.25-.23,21.39-.31,11.75.81,23.51,1.19,35.23-.65,6.91-2.36,13.77-2.48,20.76-.45,6.85.25,13.72-.37,20.58-.34,3.86-.7,7.74-1.03,11.63-1.42-.44-2.88.52-4.36.44-10.72.4-21.61.34-32.31-.83-7.65-.9-14.94-3.84-22.61-4.53-7.86-.5-15.67.96-23.53-.06-11.4-1.96-22.81.75-34.24-.31-7.05-.99-14.06-1.8-21.14-2.49-2.04-.22-4.51-.92-6.14.73-.79.76-1.19,1.93-.55,2.9.36.55,1.08.72,1.69.8,2.72.27,5.45.15,8.17.33,8.97.88,17.99-.46,26.96,1.09,5.27,1.39,10.84,2.43,16.33,2.33,5.46-.15,10.91-.98,16.43-.57,5.77.79,11.47,2.16,17.34,1.97,6.05-.5,12.08-.88,18.16-.68,10.03.57,19.6,4.3,29.7,3.99,2.24.16,4.5,0,6.73-.16,1.05.15,2.14.03,3.02-.53-.71,9.27-1.13,18.56-.57,27.8-.04-.04,0,.23.06.5.01.27.11.58.28.9-.32,1,.29,2.42,1.65,3.02,2.12,1.33,4.8.79,7.15.44,1.48-.32,3.01-.71,4.31-1.5,1.03-.86.84-2,.14-2.89.14-3.4.53-6.76.67-10.17.84-5.56,1.81-11.14,2.4-16.75,14.48,1.88,29.37.26,43.98,1.24.85.1,1.75-.56,1.91-1.39.15-.77-.49-1.28-1.22-1.18-2.42.06-4.85-.09-7.27-.23-12.24-1.05-24.53-1.96-36.76-2.94-.08,0-.17.01-.25.02.21-3.28.24-6.58,0-9.88-.83-8.6.44-17.13.77-25.71-.17-7.32-.42-14.71-1.17-22.03-.78-7.28,1.48-14.23,2-21.48,1.2-7.43.55-14.93.38-22.41,9.4-1.96,18.29-5.11,27.64-7.75,5.42-1.43,11-2.43,16.49-3.44-.11.16-.2.35-.23.57.78,7.62,1.18,15.31,2.25,22.92.42,4.61.56,9.27.02,13.87-.86,4.33-1.63,8.65-1.6,13.1-.13,4.77.36,9.57.86,14.36.12,5.19-1.24,10.21-1.54,15.37-.88,11.36,2.23,22.38,2.46,33.7.1,3.08.22,6.13.35,9.22-1.92.97-.37,3.7,1.34,4.26,1.83.79,4,1.02,5.96.56-1.21.64-2.45,1.23-3.62,1.84-4.69,2.45-9.22,5.63-14.29,7.5-5.7,2.1-12.13,3.12-18,4.99-6.41,2.07-12.53,4.94-18.96,6.99-1.21.53-3.24.96-4.36,2.04ZM39.39,193.1c-4.99.66-10.01,1.36-14.95,2.19-.31.08-.61.23-.89.43.08-1.58.14-3.15.15-4.73,1.6.57,3.55-.46,5.19-.62,7.43-1.54,14.89-2.81,22.28-4.56,5.02-1,10.13-1.66,15.23-2.29.12.53.38,1.01.84,1.39,1.14.66,1.15,2.16,1.25,3.34-9.58,2.18-19.3,4.03-29.1,4.87ZM65.88,141.91c.2,12.1-2.27,24.24-1.71,36.41-.16.83-.11,1.86.2,2.74-11.1,1.73-22.48,2.11-33.53,4.19-2.26.43-4.69.15-6.85.95-.12.06-.23.15-.34.24.15-10.81-1.42-21.61-.09-32.39,1.17-6.43,2.63-12.82,3.55-19.32,1.16-7.7,1.09-15.85,4.38-23.08,4.23-8.85,7.9-18.46,13.34-26.74,5.05-7.4,13.2-12.08,20.47-17.07,8.42-6.31,18.46-8.82,28.46-11.62,2.99-.85,5.99-1.83,8.99-2.83-6.16,6.49-11.65,13.45-16.25,21.15-3.79,5.38-8.79,10.13-11.27,16.35-2.63,6.25-3.41,13.04-5.48,19.46-3.76,10.09-4.89,20.87-3.86,31.57ZM289.95,188.57c-9.19,2.45-18.29,5.38-27.73,6.84-6.96.82-13.72,2.79-20.58,4.13.15-1.92.29-3.84.4-5.77.16.04.31.05.47.05,2.78-.42,5.22-1.62,7.98-2.34,11.62-2.87,23.28-6.71,35.25-8.12.75.43,1.69.54,2.44,1.01,1.06.67,1.99,1.81,1.93,3.12-.08.33-.14.7-.16,1.08ZM286.97,178.5c-.91.24-1.67,1-2.04,1.89-10.26,2.45-20.78,3.42-31.06,5.65-3.15.78-6.34,1.44-9.51,2.17-.74.18-1.49.42-2.12.84.08-3.43,0-6.87-.41-10.28-.53-2.36-.3-4.82-.88-7.18-1.18-3.46-1.23-7.14-1.95-10.69-.85-9.3,1.27-18.76.28-28.11-.76-10.92-4.55-21.16-7.45-31.63-1.18-6.16-1.87-12.47-4.14-18.33-1.58-4.5-4.25-8.67-7.49-12.14-3.27-3.92-5.51-8.59-8.92-12.39-1.95-2.31-4.16-4.27-6.54-6.01,4.96,1.02,9.83,2.45,14.79,3.51,6.42,1.5,12.99,3.05,18.12,7.48,5.47,4.1,11.62,7.36,16.77,11.88,5.04,4.89,8.29,11.23,12.6,16.72,3.93,5.6,8.78,10.56,11.55,16.92,3.34,8.04,3.83,17.12,4.82,25.7,1.08,9.22,2.38,18.4,3.54,27.6.33,5.43.23,10.91.06,16.38ZM189.75,40.63c7.38-.27,14.97-.2,22.19,1.82,7.68,3.15,15.87,4.68,23.58,7.74,5.99,2.93,10.8,7.73,16.64,10.93,6.98,4.31,14.4,7.95,19.73,14.42,4.18,5.74,7.8,12.01,10.86,18.48,4.1,9.15,9.22,18.05,11.39,27.98,1.29,6.08,1.1,12.17,1.28,18.38.88,10.45,4.13,20.45,2.64,31.1.02,9.25,2.56,18.3,1.3,27.58-3.3,13.87-2.43,28.18-2.14,42.29-.52,5.18-.97,10.38-.7,15.6.26,8.61,1.8,17.09,1.85,25.71.2,6.63-.81,13.23-.82,19.85-.78,2.24-.88,6.41-1.06,8.88-.06,1.18-.24,2.37-.14,3.42-.44.1-.85.34-1.16.75-.57.75-1.53,1.07-2.42,1.26-.94.15-1.7-.2-2.52-.4-.37-3.98-.4-7.92-.47-11.99.42-11.1,3.77-22.03,2.56-33.24-.14-3.86-.92-8.05-.63-11.99.76-6.48,1.46-13.03.87-19.56-1.79-10.26-2.3-20.62-1.37-31.03-.16-3.53-.3-7.06-.31-10.59.07-1.97-.47-4.41-2.36-5.16,1.21-.23,2.41-.46,3.61-.7.74-.45,1.11-1.28,1.16-2.08.35-.35.62-.78.78-1.21,1.46-3.67-.3-8.3-3.99-9.84-.38-.16-.78-.32-1.19-.44-.07-5.58-.12-11.19.25-16.76,1.88-13.27,1.88-27.24-3.01-39.94-2.54-6.43-5.82-12.57-7.92-19.23-2.54-10.77-9.48-19.59-17.65-26.78-4.8-4.77-9-10.46-15.17-13.66-6.49-3.72-14.04-4.96-20.93-7.82-6.96-2.85-14.17-4.98-21.47-6.74-1.73-.22-5.79-2.1-7.44-.9-3-1.55-6.07-3-9.06-4.5-1.2-.61-2.4-1.23-3.6-1.84,2.28.11,4.56.22,6.83.21ZM159.63,36.83c.43-.08.8-.3,1.1-.61,1.68,2.1,7.12,1.95,9.42,3,.19.06.39.12.58.18.7.5,1.59.72,2.49.78,5.32,1.58,10.78,2.85,15.57,5.8,6.7,4.12,12.27,10.15,18.09,15.46,2.5,2.38,5.12,4.72,7.1,7.57,2.5,3.57,3.66,7.79,5.71,11.6,3.4,6.97,7.59,13.09,10.28,20.56,1.9,6.51,1.71,13.47,2.26,20.2.44,12.73,3.48,25.07,4.8,37.68-.31,3.24-.18,6.49-.65,9.71-.89,2.5-.52,5.13-.71,7.71-.86,11.27,2.28,22.66.62,33.98-.71,6.77-.21,13.19-.04,20.05.53,4.51,1.36,9.05.97,13.61-.95,8.43-2.68,16.75-3.03,25.26-.26,6.75.8,13.52.34,20.3-1.04,12.33-.7,24.74.15,37.15-.14,3.17-.17,6.33-.23,9.49-.61-.21-1.26-.23-1.82.04-1.63.68-3.46,1.19-5.26,1.24.42-7.37.94-14.76,1.45-22.13.54-8.02.32-16.08.6-24.11.7-7.97,2.1-15.92,1.47-23.96-.19-5.4-1.5-10.68-1.7-16.08.78-10.3,2.23-20.66,2.9-30.98.14-4.74-.65-9.47-.3-14.21.45-3.31.93-6.6,1.04-9.95,1.17-9.34-1.58-18.42-2.27-27.64-.45-4.76.43-9.57.71-14.32.44-9.53.24-19.32-2.64-28.49-1.4-6.22-3.8-12.08-4.35-18.49-.91-5.2-.73-10.66-2.85-15.6-2.09-4.79-4.89-9.39-8.1-13.64-2.7-4.56-5.53-9.16-9.42-12.86-5.73-5.81-13.62-8.63-20.52-12.74-6.15-4.07-13.01-7.21-20.22-9-2.09-.36-4.95-2.14-6.7-.27-.6-1.15-.7-2.57-.08-3.7.78-1.17,1.79-2.28,3.23-2.57ZM143.09,10.45c.45-4.02,3.92-6.58,7.73-7.19,6.63-.67,9.62,9.42,7.32,14.54-.82,2.22-3.55,2.15-5.23,3.22-6.48.66-10.92-4.16-9.82-10.57ZM147.04,25.87c.77.22,1.57.35,2.42.37.23.01.47.02.7.01-.49.71-.74,1.62-.76,2.52-.88-.04-1.77-.05-2.64-.02.3-.96.49-2.05.28-2.88ZM151.85,33.73c1.1-.02,2.63.44,4.05.56-3.17,2.61-5.02,6.98-3.77,10.94.72,2.56,2.69,5,5.53,5.09.57.13,1.18.05,1.74-.17-.41.49-.79.97-1.16,1.25-.12.04-.25.07-.37.09-6.48.62-13.79.72-19.85-2.09.01-.06.02-.13.03-.19,1.32.46,2.93.41,4.25.61,3.03-.13,8.46.85,8.87-3.37.06-1.21-.77-2.22-2.02-2.06-3.37.85-6.84-.46-10.15-.19.58-2.94,1.17-5.88,1.55-8.85.27-.11.52-.24.74-.43,3.34-1.37,7.02-1.47,10.57-1.19ZM14.34,152.39c1.49-8.68,2.83-17.51,3.27-26.39,2.16-11.2,6.74-22.28,10.66-33.01,3.2-8.97,11.59-14.23,17.95-20.8,9.65-10.43,21.52-17.75,34.56-23.19,7.53-3.92,15.48-6.96,23.95-8.08,9.14-.03,18.32-.97,27.45-.64.92-.05,2,.12,3.07.21-.25,1.68-.53,3.37-.84,5.04-1.03-.14-2.33.16-3.75.71-.12-.13-.27-.22-.49-.21-1.78.09-3.56.13-5.34.29-10.57.96-21.23,1.01-31.5,3.97-6.27,1.47-12.02,4.44-18,6.78-7.65,2.46-14.89,6.23-20.45,12.14-4.73,4.63-7.66,10.45-11.84,15.58-5.97,7.04-12.23,14.24-14.96,23.28-2.85,10.85-7.02,21.85-6.87,33.26-.3,4.6.38,9.37.51,13.98.19,6.03-1.1,12.25-1.85,18.29-1.01,9.65-2.05,19.34-1.48,29.06.4,8.31,2.22,16.59,1.73,24.97-.33,6.22-1.97,12.31-1.64,18.56.39,7.94,1.55,15.76.37,23.78-1.39,9.96.81,19.88.73,29.84-.51,7.06-.71,14.24-.18,21.33-.7-.04-1.39.16-1.76.8-.76,1.22-2.42,1.81-3.83,1.56-.2-.26-.48-.47-.78-.64-.06-.65-.17-1.3-.25-1.93-.14-5.23-.5-10.44-.86-15.66-.49-8.43,2.12-16.67,1.8-25.11-.02-4.51-.84-8.93-1.14-13.42-.28-6.12.64-12.21.63-18.32,0-8.02-2.04-15.79-2.01-23.79.57-8.9,1.61-17.76,1.94-26.69,1.29-15.26-2.96-30.54,1.21-45.57ZM9.35,326.59c.31.32.73.52,1.23.49.21,0,.4-.06.59-.13.85.62,1.91,1.03,2.82,1.17.1.03.21.06.32.08-2.07-.11-4.13-.24-6.18-.48.46-.35.88-.73,1.22-1.14ZM34.58,346.41c.14,5.61-.47,11.22-.82,16.82-.33,2.83.29,6.32-2,8.45-.13-.03-.27-.06-.4-.1-.05-.02-.1-.05-.16-.07,0,0,0,0,0,0-2.26-9.16-.46-18.84-.85-28.15-.17-.52-.38-.93-.6-1.25,2.58.07,5.15.28,7.71.78.04,0,.07.02.11.03-1.47-.36-3.18,1.01-2.99,3.5ZM41.8,348.69c1.8.23,3.59.87,5.1,1.9,9.49,6.19,11.02,20.2,4.03,28.82-4.82,4.91-12.04,11.09-19.42,9.74-7.97-3.08-18.56-8-18.6-17.87.26-7.11,3.78-14.3,8.59-19.48,1.36-1.54,3.21-2.5,4.77-3.77.12,6.28-.25,12.59.67,18.81.33,2.07.68,5.16,2.21,6.93,2.39,2.07,5.22-.14,6.56-2.33,2.98-3.98,3.59-9.12,3.89-13.97.25-3.95.41-7.94-.11-11.87-.23-1.6-1.02-2.45-1.89-2.68.95.23,1.89.48,2.84.74-1.08,1.58-.7,4.59,1.36,5.03ZM114.23,351.75c.92,1.13.94,2.7.89,4.09-.5,6.16-5.18,10.9-10.02,14.24-2.36,2.2-5.92,3.49-9.22,3.13-9.93-.15-16.3-11.01-13.79-20.12.26-1.27,1.21-2.71,1.64-4.08.21.01.42.04.63.04,2.07.07,4.14.01,6.2-.11-.5,3.65,1.93,10.07,4,11.01,3.01,1.44,5.51-2.53,6.21-5,.14-1.94,1.3-5.57-.59-6.79,2.84-.22,5.69-.37,8.55-.26,1.45.12,2.9.29,4.34.49-.31,1.22.1,2.64,1.16,3.35ZM94.61,348.65c1.21-.1,2.41-.21,3.62-.31-1.58,1.41-.08,5.15-2.07,6.69-1.17-1.91-1.03-4.26-1.54-6.38ZM172,352.44c-10.35-.97-20.29-4.7-30.73-5.5-11.58-1.49-23.28.11-34.85-1.09-6.58-.66-12.86-2.93-19.45-3.4-7.74-.27-15.53.71-23.18-.97-5.66-.88-11.28-2.12-17.05-1.83-3.72.15-7.39.75-11.13.34-9.52-1.02-17.64-2.41-27.4-2.9-1.11-.09-2.26-.32-3.37-.1.19-.35.31-.73.33-1.12,0-1.16.35-2.48.19-3.66,13.21,1.02,26.69-1.81,39.54,2.4,8,1.12,16.12-.61,24.06,1.39,12.91,2.03,25.94,1.76,38.92.82,9.21.59,20.46,3.57,30.36,4.17,8.03.03,16.11-.15,24.16-.11,10.49.26,20.25,4.61,30.69,5.1,13.31-.17,26.41,2.18,39.67,3.09-.25,1.09-.15,2.36-.26,3.44,0,1.05-.46,2.41.04,3.35-11.27.18-22.54-.7-33.59-2.98-8.94-.98-17.97-.29-26.94-.42ZM209.36,359.47c.82.02,1.63.04,2.45.07,1.24.11,2.5.23,3.76.35-.37,6.09-1.31,12.15-1.67,18.24-.81,2.37.29,6.37-2.36,7.57,0,0,0,0,0,0-2.23-1.83-2.14-5.13-2.43-7.8-.29-5.68.09-11.36.29-17.03.06-.51.04-.97-.03-1.4ZM236.59,390.93c-4.21,5.04-10.56,7.53-16.14,10.74-7.63,4.3-17.04.08-22.62-5.74-3.47-4.16-6.32-9.45-5.64-15.02,1.44-6.98,5.39-15.27,12.55-17.71.16,0,.31-.02.45-.05.03,4.3.1,8.6.07,12.89.03,4.31.38,9.66,4.13,12.41,1.41,1.31,3.03.03,4.37-.88,6.44-7.14,6.42-18,7.13-27.2,2.28.2,4.56.39,6.83.54.04,1.1.53,2.25,1.58,2.67.77.3,1.5.7,2.23,1.08,7.41,4.6,10.45,19.17,5.06,26.26ZM247.82,353.15c-1.51,1-4.69,1.92-6.88,3.29-.81-1.01-2.67-.86-4.44-.69.53-.53.89-1.21.95-1.94.08-1,.18-2,.25-3,.06-.81.22-1.8.04-2.65.13-.02.25-.04.37-.07,3.47-.94,6.82-2.19,10.28-3.15,8.96-2.03,17.43-5.67,25.51-10.01,9.15-4.93,20.42-6.89,28.55-13.48.42,2.72.69,5.46.86,8.21-11.66,5.21-22.55,12.23-35.19,15.05-7.19,1.87-13.66,5.08-20.3,8.43ZM283.46,344.54c1.29.36,2.7.5,3.77,1.4,2.67,2.18,5.6,4.53,5.87,8.22,1.54,5.16.82,10.46-1.63,15.24-4.76,7.07-19.29,9.62-26.89,6.56-5.6-2.93-8.03-10.51-6.63-16.45.83-2.3,1.88-4.62,3.61-6.4.26-.26.46-.61.59-.97,1.63-.82,3.25-1.65,4.87-2.48.05,2.56.34,4.99.61,7.85.4,2.92.8,6.55,3.24,8.5,4.85,2.26,6.76-8.18,7.67-11.38.11-1.84,2.65-9.72.08-9.88-.81,0-1.2.93-1.19,1.62-.68,4.22-.73,12.98-4.9,15.06-1.79-4.37-.84-9.27-1.36-13.86,1.67-.83,3.35-1.66,5.04-2.44,1.96-.86,3.95-1.67,5.94-2.47.12.84.56,1.6,1.31,1.89Z"/><path d="M108.93,80.64c2.92,1.75,6.57.67,9-1.65.14.68.6,1.22,1.53,1.37,9.6-.21,19.46-1.13,29.15-1.46,9.42.26,18.84.97,28.31,1.09.81-.01,1.47-.39,1.95-.94.25.15.53.23.86.21,1,1.31,2.74,1.7,4.3,1.87,3.15.16,6.56-1.22,8.26-3.99,2.05-3.55.61-9.17-3.84-9.87-4.9-1.25-9.99,2.71-10.69,7.54-.23,0-.49.04-.77.1-6.42.58-12.93.86-19.4.78-4.14.73-8.31.29-12.5-.08-7.86-1.03-17-.94-24.87-.17.18-.53.3-1.07.35-1.62,4.96.46,10.1-.56,15.12-.39,3.93-.29,10.88.94,11.52-4.57.26-2.96-.28-5.99-.19-8.97-.21-1.16.9-4.6-1.37-4.22-2.32,1.11-1.2,4.72-1.68,6.85-.27,1.88-.31,4.02-.7,5.91-7.49,1.02-15.28-.8-22.68.74-1.39-2.2-5.27-3.19-7.79-2.16-5.95,1.45-9.58,9.58-3.87,13.59ZM182.28,75.32c-.09-1.91,1.61-3.4,3.45-3.46,2.72-.02,3.85,1.57,3.06,4.18-.86,1.35-2.59,1.9-4.13,2.08-.91.03-1.8-.22-2.63-.59.32-.72.29-1.42.24-2.21ZM112.45,72.05c1.26-.28,2.7-.3,3.78.5.66.5,1.02,1.46,1.92,1.56-.2,1.77-1.9,3.27-3.59,3.59-3.16.21-6.68-4.57-2.11-5.66Z"/><path d="M119.47,80.36s0,0-.01,0c0,0-.02,0-.02,0,0,0,.04,0,.04,0Z"/></svg>